<svg width="456" height="335" viewBox="0 0 456 335" fill="none" xmlns="http://www.w3.org/2000/svg">
<g clip-path="url(#clip0)">
<path fill-rule="evenodd" clip-rule="evenodd" d="M396.839 275.68H81.3962C74.5506 275.68 69 270.139 69 263.302V75.3786C69 68.5427 74.5506 63 81.3962 63H396.839C403.686 63 409.235 68.5427 409.235 75.3786V263.302C409.235 270.139 403.686 275.68 396.839 275.68Z" stroke="#264C6C" stroke-width="2" stroke-linecap="round" stroke-linejoin="round"/>
<path fill-rule="evenodd" clip-rule="evenodd" d="M206.361 79.208C207.679 79.208 208.999 79.2031 210.319 79.211C210.315 80.5337 210.139 81.8485 210.163 83.1731C208.838 83.1761 207.516 83.1761 206.192 83.1712C206.207 81.8485 206.299 80.5297 206.361 79.208ZM151.84 82.5138C153.414 80.8466 155.804 80.2434 158.03 80.2867C159.978 80.4333 162.15 80.4864 163.752 81.7412C163.637 82.8179 163.528 83.8955 163.41 84.9722C160.927 83.8571 157.948 83.0826 155.34 84.237C154.098 84.7399 153.363 86.4927 154.306 87.5782C155.231 88.5909 156.647 88.9481 157.96 89.1184C159.891 89.452 161.936 90.1911 163.097 91.8641C164.277 93.5106 164.03 95.7377 163.326 97.523C162.315 99.9371 159.672 101.131 157.206 101.406C154.444 101.604 151.467 101.652 148.975 100.268C149.059 99.1517 149.174 98.0377 149.208 96.9197C151.478 98.0062 154.061 98.2837 156.547 98.0928C157.872 97.9028 159.331 97.2238 159.74 95.843C160.041 95.0764 159.805 94.1532 159.137 93.6612C157.941 92.7331 156.336 92.8709 154.966 92.3788C152.845 91.7677 150.633 90.3928 150.11 88.1008C149.788 86.1167 150.502 83.9998 151.84 82.5138ZM104.614 80.8122C107.106 80.8289 109.599 80.7984 112.091 80.8279C114.627 80.9992 117.68 81.8308 118.757 84.3994C119.689 87.156 118.546 90.6349 115.889 92.0118C113.417 93.3098 110.529 93.3394 107.801 93.3453C107.552 95.9493 107.436 98.5671 107.233 101.176C105.937 101.192 104.64 101.182 103.345 101.182C103.758 94.3934 104.126 87.5949 104.614 80.8122ZM108.312 84.1366C108.224 86.1138 108.141 88.0909 108.05 90.0681C109.909 89.9667 111.932 90.2413 113.595 89.2109C114.711 88.6184 115.387 87.2347 114.97 86.0085C114.635 85.0165 113.599 84.5136 112.643 84.2872C111.22 83.9979 109.755 84.173 108.312 84.1366ZM216.792 84.5411C218.121 84.5263 219.453 84.5362 220.784 84.5362C220.759 85.1473 220.717 85.7605 220.699 86.3726C221.248 86.469 221.801 86.5488 222.353 86.6354C222.289 87.6776 222.243 88.7237 222.184 89.7679C220.222 89.0711 217.693 88.7582 216.056 90.318C214.617 91.8415 214.258 94.2084 214.786 96.1835C215.124 97.4009 216.267 98.2876 217.52 98.3792C218.994 98.4638 220.497 98.2079 221.852 97.6155C221.886 98.6744 221.772 99.7294 221.746 100.789C221.156 100.983 220.553 101.143 219.939 101.239C219.866 101.722 219.854 102.211 219.834 102.701C218.513 102.703 217.193 102.702 215.872 102.701C215.877 102.288 215.916 101.877 215.941 101.466C214.697 101.278 213.436 100.861 212.515 99.9735C211.281 98.8279 210.801 97.0998 210.741 95.4651C210.651 93.178 210.988 90.7206 212.44 88.8674C213.482 87.5221 215.098 86.7722 216.735 86.4336C216.781 85.8048 216.75 85.171 216.792 84.5411ZM124.647 86.16C126.491 85.8421 128.448 86.0557 130.15 86.843C131.55 87.4926 132.681 88.9304 132.572 90.5247C132.399 94.0706 132.169 97.6145 132.037 101.162C130.679 101.201 129.321 101.171 127.964 101.178C128.058 99.1025 128.19 97.026 128.316 94.9514C127.314 94.5567 126.204 94.5449 125.146 94.6453C124.136 94.8136 123.006 95.4356 122.83 96.5359C122.703 97.521 123.569 98.4756 124.558 98.4845C125.719 98.4549 126.82 97.9845 127.776 97.3517C127.654 98.4087 127.48 99.4588 127.334 100.513C125.983 101.539 124.16 101.71 122.532 101.428C121.124 101.242 119.708 100.48 119.081 99.1576C118.212 97.2986 118.678 94.8992 120.138 93.4643C122.355 91.4124 125.671 91.4921 128.479 91.8513C128.594 91.1959 128.588 90.4283 128.091 89.9214C127.442 89.2719 126.458 89.1193 125.576 89.1282C123.851 89.0751 122.145 89.454 120.49 89.9096C120.475 88.8979 120.638 87.8961 120.643 86.8834C121.939 86.473 123.306 86.348 124.647 86.16ZM91.3274 87.5152C92.6481 86.4198 94.4142 85.9878 96.1073 86.0695C97.9395 86.0646 99.9175 86.7653 100.937 88.3704C102.174 90.2954 102.142 92.7282 101.776 94.9051C98.5722 94.916 95.3692 94.9042 92.1651 94.912C92.1622 95.8617 92.4362 96.8774 93.1665 97.5308C94.0219 98.3113 95.2391 98.5543 96.3655 98.5189C97.9444 98.5691 99.5035 98.2069 101.001 97.7405C100.913 98.7089 100.991 99.6851 100.881 100.652C98.7358 101.341 96.4552 101.512 94.2131 101.452C92.4214 101.397 90.6159 100.58 89.584 99.0809C88.3412 97.272 88.1066 94.9386 88.5156 92.8227C88.8842 90.8347 89.721 88.8202 91.3274 87.5152ZM94.3284 89.3674C93.3941 89.8968 92.8668 90.9154 92.5643 91.9094C94.3698 91.9212 96.1744 91.9212 97.9789 91.9094C98.105 91.0483 97.8853 90.0326 97.1264 89.515C96.3104 88.9875 95.1888 88.8645 94.3284 89.3674ZM166.94 88.5771C168.994 85.8559 173.145 85.3717 176.047 86.9208C178.714 88.5358 178.991 92.1525 178.393 94.914C175.188 94.912 171.984 94.8943 168.779 94.9228C168.854 95.7092 168.966 96.5398 169.476 97.1795C170.252 98.1873 171.605 98.5425 172.829 98.5248C174.471 98.5937 176.1 98.2424 177.658 97.7414C177.628 98.7128 177.543 99.6832 177.523 100.655C175.403 101.357 173.143 101.508 170.925 101.46C169.251 101.419 167.524 100.746 166.468 99.4076C165.402 98.0928 164.99 96.3715 164.945 94.7103C165.063 92.5491 165.596 90.319 166.94 88.5771ZM170.63 89.6016C169.916 90.1822 169.452 91.0296 169.224 91.9114C171.012 91.9261 172.799 91.9094 174.588 91.9202C174.733 91.0985 174.565 90.134 173.867 89.6006C172.947 88.9087 171.538 88.8556 170.63 89.6016ZM183.63 88.1815C184.905 86.4818 187.148 85.8461 189.195 86.0705C189.005 87.1688 188.886 88.2799 188.688 89.3772C186.933 89.5317 184.549 89.6852 183.748 91.5423C183.454 94.725 183.401 97.9363 183.121 101.125C181.892 101.124 180.661 101.122 179.432 101.126C179.664 96.1963 179.999 91.2697 180.298 86.3411C181.407 86.3401 182.513 86.3411 183.622 86.3411C183.626 86.9532 183.62 87.5674 183.63 88.1815ZM224.324 88.8084C226.126 86.1492 229.831 85.4977 232.73 86.5015C234.079 86.9749 235.173 88.0634 235.671 89.3998C236.329 91.1516 236.355 93.1042 235.946 94.916C232.751 94.9051 229.555 94.9051 226.36 94.916C226.391 95.7298 226.546 96.5821 227.078 97.2307C227.861 98.1902 229.166 98.5425 230.365 98.5248C232.005 98.5927 233.635 98.2532 235.188 97.7483C235.224 98.7207 235.11 99.6881 235.083 100.658C232.872 101.381 230.514 101.525 228.203 101.449C226.141 101.349 224.131 100.139 223.285 98.2237C221.912 95.2063 222.527 91.5187 224.324 88.8084ZM228.181 89.6104C227.463 90.1852 227.029 91.0394 226.772 91.9064C228.568 91.9291 230.365 91.9114 232.161 91.9163C232.266 91.1487 232.162 90.2649 231.557 89.7157C230.653 88.8989 229.132 88.828 228.181 89.6104ZM137.198 86.3952C138.268 89.4707 139.283 92.5698 140.358 95.6452C141.888 92.5717 143.318 89.4441 144.789 86.3411H148.977C145.373 93.6208 141.716 100.875 138.105 108.153C136.82 108.158 135.537 108.156 134.254 108.154C135.496 105.53 136.764 102.918 138.024 100.302C136.367 95.6521 134.73 90.9941 133.084 86.3411C134.452 86.3785 135.845 86.2663 137.198 86.3952ZM189.947 86.3992C191.279 86.3992 192.609 86.3864 193.941 86.4051C194.89 89.6341 195.83 92.866 196.778 96.095C196.808 96.0959 196.866 96.1019 196.895 96.1038C198.261 92.8729 199.626 89.64 200.985 86.4041C202.322 86.3874 203.659 86.3982 204.998 86.3992C202.83 91.3179 200.629 96.2209 198.442 101.13C197.179 101.085 195.898 101.19 194.646 101.081C193.053 96.1963 191.524 91.2894 189.947 86.3992ZM205.97 86.3923C207.244 86.4021 208.516 86.3923 209.788 86.3962C209.402 91.3032 209.085 96.216 208.759 101.126C207.534 101.121 206.308 101.124 205.083 101.126C205.366 96.214 205.639 91.3022 205.97 86.3923Z" fill="#264C6C"/>
<path fill-rule="evenodd" clip-rule="evenodd" d="M226.905 197.369C226.072 197.369 225.39 198.051 225.39 198.884V207.643C225.39 208.492 226.041 209.158 226.905 209.158H231.36C232.224 209.158 232.876 208.492 232.876 207.643V198.884C232.876 198.051 232.194 197.369 231.36 197.369H226.905ZM226.905 207.643V198.884H231.36V207.643H226.905ZM237.803 204.021H242.076C242.576 204.021 242.924 203.946 243.303 203.597C243.728 203.203 243.773 202.794 243.773 202.248V199.142C243.773 198.597 243.728 198.187 243.303 197.793C242.924 197.445 242.576 197.369 242.076 197.369H237.045C236.651 197.369 236.287 197.581 236.287 198.127C236.287 198.672 236.651 198.884 237.045 198.884H242.258V202.506H238C236.863 202.506 236.287 203.082 236.287 204.218V209.158H243.015C243.409 209.158 243.773 208.946 243.773 208.401C243.773 207.855 243.409 207.643 243.015 207.643H237.803V204.021ZM254.504 198.672C254.595 198.506 254.67 198.324 254.67 198.081C254.67 197.687 254.322 197.369 253.928 197.369C253.549 197.369 253.367 197.642 253.185 197.945L247.518 207.658C247.367 207.901 247.185 208.158 247.185 208.446C247.185 208.84 247.564 209.158 247.942 209.158C248.321 209.158 248.503 208.946 248.685 208.628L254.504 198.672ZM262.583 207.643V197.369H258.84C258.446 197.369 258.082 197.581 258.082 198.127C258.082 198.672 258.446 198.884 258.84 198.884H261.067V207.643H258.84C258.446 207.643 258.082 207.855 258.082 208.401C258.082 208.946 258.446 209.158 258.84 209.158H264.81C265.204 209.158 265.568 208.946 265.568 208.401V204.582C265.568 204.143 265.371 203.824 264.81 203.824C264.25 203.824 264.053 204.143 264.053 204.582V207.643H262.583ZM271.995 198.884H275.708C276.102 198.884 276.465 198.672 276.465 198.127C276.465 197.581 276.102 197.369 275.708 197.369H270.48V204.021H274.95V207.643H271.45C271.207 207.643 270.859 207.431 270.646 207.34L270.192 207.143C270.025 207.067 269.889 207.022 269.707 207.022C269.313 207.022 268.98 207.385 268.98 207.779C268.98 208.31 269.434 208.446 269.843 208.628L270.419 208.886C270.798 209.052 271.025 209.158 271.419 209.158H274.783C275.329 209.158 275.723 209.098 276.102 208.643C276.42 208.264 276.465 207.931 276.465 207.461V204.218C276.465 203.688 276.42 203.324 275.996 202.93C275.632 202.582 275.268 202.506 274.783 202.506H271.995V198.884Z" fill="#264C6C"/>
<path fill-rule="evenodd" clip-rule="evenodd" d="M201.61 195.936H202.702L200.985 200.967H199.992L198.292 195.936H199.415L200.507 199.756L201.61 195.936ZM203.723 199.066H205L204.372 197.086L203.723 199.066ZM203.788 195.936H204.976L206.758 200.967H205.618L205.294 199.933H203.44L203.092 200.967H201.993L203.788 195.936ZM207.457 195.936H208.508V200.063H211V200.967H207.457V195.936ZM212.75 200.967H211.705V195.936H212.75V200.967ZM214.81 196.81V200.094H215.779C216.276 200.094 216.621 199.849 216.817 199.36C216.924 199.091 216.978 198.771 216.978 198.4C216.978 197.888 216.897 197.495 216.737 197.221C216.577 196.947 216.257 196.81 215.779 196.81H214.81ZM216.735 196.045C217.088 196.161 217.374 196.374 217.592 196.683C217.767 196.934 217.887 197.204 217.95 197.496C218.014 197.787 218.046 198.065 218.046 198.329C218.046 198.998 217.912 199.564 217.643 200.029C217.279 200.654 216.717 200.967 215.957 200.967H213.789V195.936H215.957C216.269 195.94 216.528 195.977 216.735 196.045Z" fill="#264C6C"/>
<path fill-rule="evenodd" clip-rule="evenodd" d="M202.32 202.881V203.772H200.815V207.913H199.756V203.772H198.244V202.881H202.32ZM202.988 207.913V202.881H204.029V204.8H205.995V202.881H207.04V207.913H205.995V205.667H204.029V207.913H202.988ZM209.155 203.755V205.107H210.346C210.583 205.107 210.76 205.08 210.878 205.025C211.088 204.93 211.192 204.741 211.192 204.458C211.192 204.154 211.091 203.949 210.889 203.844C210.775 203.785 210.604 203.755 210.377 203.755H209.155ZM211.409 203.011C211.599 203.091 211.76 203.208 211.892 203.363C212.002 203.49 212.088 203.631 212.152 203.786C212.215 203.941 212.247 204.117 212.247 204.315C212.247 204.554 212.187 204.789 212.066 205.02C211.946 205.251 211.747 205.414 211.469 205.51C211.701 205.603 211.866 205.736 211.962 205.908C212.059 206.079 212.107 206.342 212.107 206.694V207.032C212.107 207.262 212.116 207.418 212.135 207.5C212.162 207.63 212.226 207.725 212.326 207.787V207.913H211.169C211.137 207.802 211.114 207.712 211.1 207.643C211.073 207.502 211.058 207.358 211.056 207.21L211.049 206.742C211.045 206.421 210.986 206.207 210.873 206.1C210.761 205.993 210.55 205.94 210.24 205.94H209.155V207.913H208.127V202.881H210.595C210.948 202.888 211.219 202.931 211.409 203.011ZM213.212 202.881H214.28V205.974C214.28 206.32 214.321 206.573 214.403 206.732C214.531 207.014 214.808 207.155 215.236 207.155C215.662 207.155 215.938 207.014 216.066 206.732C216.148 206.573 216.189 206.32 216.189 205.974V202.881H217.257V205.974C217.257 206.509 217.174 206.925 217.008 207.224C216.698 207.77 216.108 208.043 215.236 208.043C214.365 208.043 213.773 207.77 213.461 207.224C213.295 206.925 213.212 206.509 213.212 205.974V202.881Z" fill="#264C6C"/>
<path fill-rule="evenodd" clip-rule="evenodd" d="M94.5877 227.059L92.4674 224H90.2949V236.653C90.2949 237.209 90.5382 237.522 91.1639 237.522C91.7896 237.522 92.0329 237.209 92.0329 236.653V226.399H92.0676L93.7187 228.849V229.127C93.7187 229.666 93.962 230.17 94.5877 230.17C95.2481 230.17 95.4566 229.666 95.4566 229.127V228.849L97.1077 226.399H97.1425V236.653C97.1425 237.209 97.3858 237.522 98.0114 237.522C98.6371 237.522 98.8804 237.209 98.8804 236.653V224H96.708L94.5877 227.059ZM104.533 230.188H104.933L109.73 237.035C109.921 237.313 110.147 237.522 110.494 237.522C110.981 237.522 111.381 237.192 111.381 236.705C111.381 236.375 111.137 236.044 110.946 235.784L107.036 230.188H108.635C110.025 230.188 111.381 229.353 111.381 227.72V226.521C111.381 224.974 110.008 224 108.635 224H102.795V236.653C102.795 237.209 103.038 237.522 103.664 237.522C104.29 237.522 104.533 237.209 104.533 236.653V230.188ZM104.533 225.738H108.409C108.93 225.738 109.643 225.825 109.643 226.521V227.72C109.643 228.415 108.878 228.45 108.391 228.45H104.533V225.738ZM135.512 237.522C135.912 237.522 136.381 237.278 136.381 236.653C136.381 235.992 135.895 235.784 135.512 235.784H132.679C131.897 235.784 131.723 235.732 131.376 235.019L129.899 232.012C129.69 231.595 129.534 231.3 129.534 230.813C129.534 230.274 129.673 229.962 129.899 229.492L131.411 226.468C131.741 225.808 131.862 225.738 132.61 225.738H135.512C135.912 225.738 136.381 225.495 136.381 224.869C136.381 224.209 135.895 224 135.512 224H132.558C131.219 224 130.472 224.47 129.881 225.669L128.282 228.884C127.935 229.579 127.796 230.049 127.796 230.813C127.796 231.491 127.969 232.047 128.265 232.638L129.864 235.871C130.42 237 131.167 237.522 132.471 237.522H135.512ZM140.296 236.653C140.174 237.07 140.644 237.522 141.13 237.522C141.669 237.522 141.947 237.07 142.069 236.653L142.729 234.567H146.431L147.074 236.653C147.196 237.07 147.474 237.522 148.012 237.522C148.499 237.522 148.968 237.07 148.847 236.653L145.492 224.887C145.371 224.435 145.162 224 144.589 224C144.033 224 143.841 224.418 143.702 224.887L140.296 236.653ZM145.944 232.829H143.216L144.571 228.119H144.606L145.944 232.829ZM154.534 230.188H154.934L159.731 237.035C159.922 237.313 160.148 237.522 160.495 237.522C160.982 237.522 161.382 237.192 161.382 236.705C161.382 236.375 161.138 236.044 160.947 235.784L157.037 230.188H158.636C160.026 230.188 161.382 229.353 161.382 227.72V226.521C161.382 224.974 160.009 224 158.636 224H152.796V236.653C152.796 237.209 153.039 237.522 153.665 237.522C154.291 237.522 154.534 237.209 154.534 236.653V230.188ZM154.534 225.738H158.41C158.931 225.738 159.644 225.825 159.644 226.521V227.72C159.644 228.415 158.879 228.45 158.392 228.45H154.534V225.738ZM167 235.784H166.165C165.714 235.784 165.296 236.027 165.296 236.653C165.296 237.278 165.714 237.522 166.165 237.522H169.05C170.406 237.522 171.188 237.122 171.796 235.888L173.378 232.725C173.691 232.099 173.882 231.508 173.882 230.813C173.882 230.014 173.708 229.51 173.361 228.797L171.831 225.738C171.24 224.557 170.562 224 169.207 224H166.304C165.766 224 165.296 224.244 165.296 224.869C165.296 225.53 165.783 225.738 166.357 225.738H167V235.784ZM168.738 225.738H168.946C169.746 225.738 169.902 225.721 170.267 226.468L171.709 229.406C171.953 229.91 172.144 230.24 172.144 230.831C172.144 231.265 172.005 231.561 171.814 231.96L170.284 235.054C169.972 235.697 169.798 235.784 169.068 235.784H168.738V225.738ZM184.644 231.63V236.653C184.644 237.209 184.888 237.522 185.513 237.522C186.139 237.522 186.382 237.209 186.382 236.653V224.869C186.382 224.313 186.139 224 185.513 224C184.888 224 184.644 224.313 184.644 224.869V229.892H179.535V224.869C179.535 224.313 179.291 224 178.666 224C178.04 224 177.797 224.313 177.797 224.869V236.653C177.797 237.209 178.04 237.522 178.666 237.522C179.291 237.522 179.535 237.209 179.535 236.653V231.63H184.644ZM196.693 225.426C196.275 224.609 195.563 224 194.59 224C193.616 224 192.904 224.609 192.487 225.426L190.749 228.884C190.419 229.562 190.297 230.066 190.297 230.813C190.297 231.647 190.523 232.169 190.87 232.881L192.469 236.079C192.886 236.913 193.582 237.522 194.59 237.522C195.598 237.522 196.293 236.913 196.71 236.079L198.309 232.881C198.656 232.169 198.882 231.647 198.882 230.813C198.882 230.066 198.761 229.562 198.431 228.884L196.693 225.426ZM196.745 229.406C197.005 229.91 197.144 230.24 197.144 230.813C197.144 231.265 197.04 231.578 196.849 231.96L195.181 235.262C195.059 235.506 194.937 235.784 194.59 235.784C194.242 235.784 194.12 235.506 193.999 235.262L192.33 231.96C192.139 231.578 192.035 231.265 192.035 230.813C192.035 230.24 192.174 229.91 192.435 229.406L193.999 226.26C194.138 225.982 194.225 225.738 194.59 225.738C194.955 225.738 195.042 225.982 195.181 226.26L196.745 229.406ZM204.535 235.784V224.869C204.535 224.313 204.292 224 203.666 224C203.04 224 202.797 224.313 202.797 224.869V237.522H210.514C210.966 237.522 211.383 237.278 211.383 236.653C211.383 236.027 210.966 235.784 210.514 235.784H204.535ZM217.001 235.784H216.166C215.715 235.784 215.297 236.027 215.297 236.653C215.297 237.278 215.715 237.522 216.166 237.522H219.051C220.407 237.522 221.189 237.122 221.797 235.888L223.379 232.725C223.692 232.099 223.883 231.508 223.883 230.813C223.883 230.014 223.709 229.51 223.362 228.797L221.832 225.738C221.241 224.557 220.563 224 219.208 224H216.305C215.767 224 215.297 224.244 215.297 224.869C215.297 225.53 215.784 225.738 216.358 225.738H217.001V235.784ZM218.739 225.738H218.947C219.747 225.738 219.903 225.721 220.268 226.468L221.71 229.406C221.954 229.91 222.145 230.24 222.145 230.831C222.145 231.265 222.006 231.561 221.815 231.96L220.285 235.054C219.973 235.697 219.799 235.784 219.069 235.784H218.739V225.738ZM229.536 235.784V231.63H232.09C232.542 231.63 232.959 231.387 232.959 230.761C232.959 230.135 232.542 229.892 232.09 229.892H229.536V225.738H235.514C235.966 225.738 236.383 225.495 236.383 224.869C236.383 224.244 235.966 224 235.514 224H227.798V237.522H235.514C235.966 237.522 236.383 237.278 236.383 236.653C236.383 236.027 235.966 235.784 235.514 235.784H229.536ZM242.036 230.188H242.436L247.232 237.035C247.424 237.313 247.649 237.522 247.997 237.522C248.484 237.522 248.883 237.192 248.883 236.705C248.883 236.375 248.64 236.044 248.449 235.784L244.539 230.188H246.137C247.528 230.188 248.883 229.353 248.883 227.72V226.521C248.883 224.974 247.51 224 246.137 224H240.298V236.653C240.298 237.209 240.541 237.522 241.167 237.522C241.793 237.522 242.036 237.209 242.036 236.653V230.188ZM242.036 225.738H245.911C246.433 225.738 247.145 225.825 247.145 226.521V227.72C247.145 228.415 246.381 228.45 245.894 228.45H242.036V225.738Z" fill="#00B4D5"/>
<path fill-rule="evenodd" clip-rule="evenodd" d="M98.2121 256.359C98.6118 256.359 99.0811 256.116 99.0811 255.49C99.0811 254.83 98.5945 254.621 98.2121 254.621H95.3792C94.5972 254.621 94.4234 254.569 94.0758 253.857L92.5985 250.85C92.39 250.433 92.2336 250.138 92.2336 249.651C92.2336 249.112 92.3726 248.799 92.5985 248.33L94.1105 245.306C94.4408 244.646 94.5624 244.576 95.3097 244.576H98.2121C98.6118 244.576 99.0811 244.333 99.0811 243.707C99.0811 243.047 98.5945 242.838 98.2121 242.838H95.2576C93.9194 242.838 93.1721 243.307 92.5811 244.507L90.9822 247.722C90.6346 248.417 90.4956 248.886 90.4956 249.651C90.4956 250.329 90.6694 250.885 90.9649 251.476L92.5638 254.708C93.1199 255.838 93.8672 256.359 95.1707 256.359H98.2121ZM109.392 244.263C108.974 243.446 108.262 242.838 107.289 242.838C106.315 242.838 105.603 243.446 105.186 244.263L103.448 247.722C103.118 248.4 102.996 248.904 102.996 249.651C102.996 250.485 103.222 251.007 103.569 251.719L105.168 254.917C105.585 255.751 106.281 256.359 107.289 256.359C108.297 256.359 108.992 255.751 109.409 254.917L111.008 251.719C111.355 251.007 111.581 250.485 111.581 249.651C111.581 248.904 111.46 248.4 111.129 247.722L109.392 244.263ZM109.444 248.243C109.704 248.747 109.843 249.077 109.843 249.651C109.843 250.103 109.739 250.416 109.548 250.798L107.879 254.1C107.758 254.343 107.636 254.621 107.289 254.621C106.941 254.621 106.819 254.343 106.698 254.1L105.029 250.798C104.838 250.416 104.734 250.103 104.734 249.651C104.734 249.077 104.873 248.747 105.134 248.243L106.698 245.097C106.837 244.819 106.924 244.576 107.289 244.576C107.654 244.576 107.74 244.819 107.879 245.097L109.444 248.243ZM117.234 249.025H117.634L122.431 255.873C122.622 256.151 122.848 256.359 123.195 256.359C123.682 256.359 124.082 256.029 124.082 255.543C124.082 255.212 123.838 254.882 123.647 254.621L119.737 249.025H121.336C122.726 249.025 124.082 248.191 124.082 246.557V245.358C124.082 243.811 122.709 242.838 121.336 242.838H115.496V255.49C115.496 256.047 115.739 256.359 116.365 256.359C116.991 256.359 117.234 256.047 117.234 255.49V249.025ZM117.234 244.576H121.11C121.631 244.576 122.344 244.663 122.344 245.358V246.557C122.344 247.253 121.579 247.287 121.092 247.287H117.234V244.576ZM129.734 251.25H133.54C134.479 251.25 135.191 251.18 135.869 250.416C136.512 249.703 136.582 249.077 136.582 248.191V245.827C136.582 244.889 136.512 244.246 135.765 243.551C135.139 242.96 134.566 242.838 133.766 242.838H127.996V255.49C127.996 256.047 128.24 256.359 128.865 256.359C129.491 256.359 129.734 256.047 129.734 255.49V251.25ZM129.734 244.576H133.593C134.618 244.576 134.844 244.837 134.844 245.827V248.261C134.844 249.251 134.618 249.512 133.593 249.512H129.734V244.576ZM146.892 244.263C146.475 243.446 145.763 242.838 144.789 242.838C143.816 242.838 143.104 243.446 142.686 244.263L140.948 247.722C140.618 248.4 140.497 248.904 140.497 249.651C140.497 250.485 140.723 251.007 141.07 251.719L142.669 254.917C143.086 255.751 143.781 256.359 144.789 256.359C145.797 256.359 146.493 255.751 146.91 254.917L148.509 251.719C148.856 251.007 149.082 250.485 149.082 249.651C149.082 248.904 148.96 248.4 148.63 247.722L146.892 244.263ZM146.944 248.243C147.205 248.747 147.344 249.077 147.344 249.651C147.344 250.103 147.24 250.416 147.049 250.798L145.38 254.1C145.259 254.343 145.137 254.621 144.789 254.621C144.442 254.621 144.32 254.343 144.198 254.1L142.53 250.798C142.339 250.416 142.235 250.103 142.235 249.651C142.235 249.077 142.374 248.747 142.634 248.243L144.198 245.097C144.337 244.819 144.424 244.576 144.789 244.576C145.154 244.576 145.241 244.819 145.38 245.097L146.944 248.243ZM154.735 249.025H155.135L159.931 255.873C160.122 256.151 160.348 256.359 160.696 256.359C161.183 256.359 161.582 256.029 161.582 255.543C161.582 255.212 161.339 254.882 161.148 254.621L157.237 249.025H158.836C160.227 249.025 161.582 248.191 161.582 246.557V245.358C161.582 243.811 160.209 242.838 158.836 242.838H152.997V255.49C152.997 256.047 153.24 256.359 153.866 256.359C154.491 256.359 154.735 256.047 154.735 255.49V249.025ZM154.735 244.576H158.61C159.132 244.576 159.844 244.663 159.844 245.358V246.557C159.844 247.253 159.08 247.287 158.593 247.287H154.735V244.576ZM165.497 255.49C165.375 255.908 165.845 256.359 166.331 256.359C166.87 256.359 167.148 255.908 167.27 255.49L167.93 253.405H171.632L172.275 255.49C172.397 255.908 172.675 256.359 173.214 256.359C173.7 256.359 174.169 255.908 174.048 255.49L170.694 243.724C170.572 243.273 170.363 242.838 169.79 242.838C169.234 242.838 169.043 243.255 168.903 243.724L165.497 255.49ZM171.145 251.667H168.417L169.772 246.957H169.807L171.145 251.667ZM181.421 244.576V255.49C181.421 256.047 181.664 256.359 182.29 256.359C182.916 256.359 183.159 256.047 183.159 255.49V244.576H184.845V245.202C184.845 245.758 185.088 246.071 185.714 246.071C186.34 246.071 186.583 245.758 186.583 245.202V242.838H177.997V245.202C177.997 245.758 178.241 246.071 178.866 246.071C179.492 246.071 179.735 245.758 179.735 245.202V244.576H181.421ZM195.659 244.576H198.214C198.666 244.576 199.083 244.333 199.083 243.707C199.083 243.081 198.666 242.838 198.214 242.838H191.367C190.915 242.838 190.498 243.081 190.498 243.707C190.498 244.333 190.915 244.576 191.367 244.576H193.921V254.621H191.367C190.915 254.621 190.498 254.865 190.498 255.49C190.498 256.116 190.915 256.359 191.367 256.359H198.214C198.666 256.359 199.083 256.116 199.083 255.49C199.083 254.865 198.666 254.621 198.214 254.621H195.659V244.576ZM209.394 244.263C208.976 243.446 208.264 242.838 207.291 242.838C206.317 242.838 205.605 243.446 205.188 244.263L203.45 247.722C203.12 248.4 202.998 248.904 202.998 249.651C202.998 250.485 203.224 251.007 203.571 251.719L205.17 254.917C205.587 255.751 206.283 256.359 207.291 256.359C208.299 256.359 208.994 255.751 209.411 254.917L211.01 251.719C211.357 251.007 211.583 250.485 211.583 249.651C211.583 248.904 211.462 248.4 211.131 247.722L209.394 244.263ZM209.446 248.243C209.706 248.747 209.845 249.077 209.845 249.651C209.845 250.103 209.741 250.416 209.55 250.798L207.881 254.1C207.76 254.343 207.638 254.621 207.291 254.621C206.943 254.621 206.821 254.343 206.7 254.1L205.031 250.798C204.84 250.416 204.736 250.103 204.736 249.651C204.736 249.077 204.875 248.747 205.136 248.243L206.7 245.097C206.839 244.819 206.926 244.576 207.291 244.576C207.656 244.576 207.742 244.819 207.881 245.097L209.446 248.243ZM222.346 253.387H222.311H222.328L217.792 242.838H215.498V255.49C215.498 256.047 215.741 256.359 216.367 256.359C216.993 256.359 217.236 256.047 217.236 255.49V245.932H217.271V245.949L221.807 256.377H224.101V243.724C224.101 243.168 223.858 242.856 223.232 242.856C222.606 242.856 222.363 243.168 222.363 243.724L222.346 253.387ZM245.66 244.576H248.215C248.667 244.576 249.084 244.333 249.084 243.707C249.084 243.081 248.667 242.838 248.215 242.838H241.368C240.916 242.838 240.499 243.081 240.499 243.707C240.499 244.333 240.916 244.576 241.368 244.576H243.922V254.621H241.368C240.916 254.621 240.499 254.865 240.499 255.49C240.499 256.116 240.916 256.359 241.368 256.359H248.215C248.667 256.359 249.084 256.116 249.084 255.49C249.084 254.865 248.667 254.621 248.215 254.621H245.66V244.576ZM259.846 253.387H259.812H259.829L255.293 242.838H252.999V255.49C252.999 256.047 253.242 256.359 253.868 256.359C254.493 256.359 254.737 256.047 254.737 255.49V245.932H254.772V245.949L259.308 256.377H261.602V243.724C261.602 243.168 261.358 242.856 260.733 242.856C260.107 242.856 259.864 243.168 259.864 243.724L259.846 253.387ZM273.216 256.359C273.615 256.359 274.085 256.116 274.085 255.49C274.085 254.83 273.598 254.621 273.216 254.621H270.383C269.601 254.621 269.427 254.569 269.079 253.857L267.602 250.85C267.393 250.433 267.237 250.138 267.237 249.651C267.237 249.112 267.376 248.799 267.602 248.33L269.114 245.306C269.444 244.646 269.566 244.576 270.313 244.576H273.216C273.615 244.576 274.085 244.333 274.085 243.707C274.085 243.047 273.598 242.838 273.216 242.838H270.261C268.923 242.838 268.176 243.307 267.585 244.507L265.986 247.722C265.638 248.417 265.499 248.886 265.499 249.651C265.499 250.329 265.673 250.885 265.968 251.476L267.567 254.708C268.123 255.838 268.871 256.359 270.174 256.359H273.216Z" fill="#00B4D5"/>
<path fill-rule="evenodd" clip-rule="evenodd" d="M127.423 158.732H99.4464C93.7007 158.732 89.042 154.08 89.042 148.343V127.623C89.042 121.885 93.7007 117.233 99.4464 117.233H127.423C133.169 117.233 137.827 121.885 137.827 127.623V148.343C137.827 154.08 133.169 158.732 127.423 158.732Z" stroke="#00B4D5" stroke-width="2" stroke-linecap="round" stroke-linejoin="round"/>
<path d="M105.468 117.233V120.35" stroke="#00B4D5" stroke-width="2" stroke-linecap="round" stroke-linejoin="round"/>
<path d="M121.401 117.233V120.35" stroke="#00B4D5" stroke-width="2" stroke-linecap="round" stroke-linejoin="round"/>
<path d="M132.571 119.366V126.747" stroke="#00B4D5" stroke-width="2" stroke-linecap="round" stroke-linejoin="round"/>
<path d="M93.9701 126.747V119.366" stroke="#00B4D5" stroke-width="2" stroke-linecap="round" stroke-linejoin="round"/>
<path d="M89.0422 129.535H107.768V124.122H119.266" stroke="#00B4D5" stroke-width="2" stroke-linecap="round" stroke-linejoin="round"/>
<path d="M137.827 129.535H128.957H119.367V126.971" stroke="#00B4D5" stroke-width="2" stroke-linecap="round" stroke-linejoin="round"/>
<path d="M106.125 129.699V147.414H108.096V152.335H118.937V147.414H120.908V129.699" stroke="#00B4D5" stroke-width="2" stroke-linecap="round" stroke-linejoin="round"/>
<path d="M132.735 132.652V136.588" stroke="#00B4D5" stroke-width="2" stroke-linecap="round" stroke-linejoin="round"/>
<path d="M137.663 139.541H123.865" stroke="#00B4D5" stroke-width="2" stroke-linecap="round" stroke-linejoin="round"/>
<path d="M132.735 142.493V146.43" stroke="#00B4D5" stroke-width="2" stroke-linecap="round" stroke-linejoin="round"/>
<path d="M132.735 153.319V157.255" stroke="#00B4D5" stroke-width="2" stroke-linecap="round" stroke-linejoin="round"/>
<path d="M137.663 149.382H123.865" stroke="#00B4D5" stroke-width="2" stroke-linecap="round" stroke-linejoin="round"/>
<path d="M94.2985 132.652V136.588" stroke="#00B4D5" stroke-width="2" stroke-linecap="round" stroke-linejoin="round"/>
<path d="M89.3707 139.541H103.168" stroke="#00B4D5" stroke-width="2" stroke-linecap="round" stroke-linejoin="round"/>
<path d="M94.2985 142.493V146.43" stroke="#00B4D5" stroke-width="2" stroke-linecap="round" stroke-linejoin="round"/>
<path d="M94.2985 153.319V157.255" stroke="#00B4D5" stroke-width="2" stroke-linecap="round" stroke-linejoin="round"/>
<path d="M89.3707 149.382H103.168" stroke="#00B4D5" stroke-width="2" stroke-linecap="round" stroke-linejoin="round"/>
<path d="M113.024 123.794V120.842" stroke="#00B4D5" stroke-width="2" stroke-linecap="round" stroke-linejoin="round"/>
<path d="M113.024 155.287V152.335" stroke="#00B4D5" stroke-width="2" stroke-linecap="round" stroke-linejoin="round"/>
<path d="M337 20V28" stroke="#374D6B" stroke-width="2" stroke-linecap="round" stroke-linejoin="round"/>
<path d="M333.5 24H340.5" stroke="#374D6B" stroke-width="2" stroke-linecap="round" stroke-linejoin="round"/>
<path d="M195.5 1H224.5" stroke="#00B2D4" stroke-width="2" stroke-linecap="round" stroke-linejoin="round" stroke-dasharray="1 6"/>
<path d="M446.5 146H458.5" stroke="#00B2D4" stroke-width="2" stroke-linecap="round" stroke-linejoin="round" stroke-dasharray="1 6"/>
<path d="M160.5 334H209.5" stroke="#00B2D4" stroke-width="2" stroke-linecap="round" stroke-linejoin="round" stroke-dasharray="1 6"/>
<path d="M1.5 190H46.5" stroke="#374D6B" stroke-width="2" stroke-linecap="round" stroke-linejoin="round" stroke-dasharray="1 6"/>
<path fill-rule="evenodd" clip-rule="evenodd" d="M290 300L285 305L290 310L295 305L290 300Z" stroke="#374D6B" stroke-width="2" stroke-linecap="round" stroke-linejoin="round"/>
<path fill-rule="evenodd" clip-rule="evenodd" d="M128 30L123 35L128 40L133 35L128 30Z" stroke="#00B2D4" stroke-width="2" stroke-linecap="round" stroke-linejoin="round"/>
<path d="M286.5 45H293.5" stroke="#374D6B" stroke-width="2" stroke-linecap="round" stroke-linejoin="round"/>
<path d="M307.5 94H320.5" stroke="#00B2D4" stroke-width="2" stroke-linecap="round" stroke-linejoin="round" stroke-dasharray="1 6"/>
<path d="M258 125V135" stroke="#374D6B" stroke-width="2" stroke-linecap="round" stroke-linejoin="round"/>
<path d="M253.5 130H262.5" stroke="#374D6B" stroke-width="2" stroke-linecap="round" stroke-linejoin="round"/>
<path d="M112.5 298H117.5" stroke="#374D6B" stroke-width="2" stroke-linecap="round" stroke-linejoin="round"/>
<path d="M41.5 140H46.5" stroke="#00B2D4" stroke-width="2" stroke-linecap="round" stroke-linejoin="round"/>
<path d="M425.5 107H430.5" stroke="#00B2D4" stroke-width="2" stroke-linecap="round" stroke-linejoin="round"/>
<path d="M370.5 286H378.5" stroke="#00B2D4" stroke-width="2" stroke-linecap="round" stroke-linejoin="round"/>
<path d="M93.38 186.2V173.996H88.934C88.466 173.996 88.034 174.248 88.034 174.896C88.034 175.544 88.466 175.796 88.934 175.796H91.58V186.2H88.934C88.466 186.2 88.034 186.452 88.034 187.1C88.034 187.748 88.466 188 88.934 188H96.026C96.494 188 96.926 187.748 96.926 187.1V182.564C96.926 182.042 96.692 181.664 96.026 181.664C95.36 181.664 95.126 182.042 95.126 182.564V186.2H93.38ZM102.789 181.898H107.865C108.459 181.898 108.873 181.808 109.323 181.394C109.827 180.926 109.881 180.44 109.881 179.792V176.102C109.881 175.454 109.827 174.968 109.323 174.5C108.873 174.086 108.459 173.996 107.865 173.996H101.889C101.421 173.996 100.989 174.248 100.989 174.896C100.989 175.544 101.421 175.796 101.889 175.796H108.081V180.098H103.023C101.673 180.098 100.989 180.782 100.989 182.132V188H108.981C109.449 188 109.881 187.748 109.881 187.1C109.881 186.452 109.449 186.2 108.981 186.2H102.789V181.898ZM121.036 175.796V178.784C121.036 179.792 120.64 180.098 120.136 180.098H116.608C116.14 180.098 115.708 180.35 115.708 180.998C115.708 181.646 116.14 181.898 116.608 181.898H120.136C120.64 181.898 121.036 182.204 121.036 183.212V186.2H114.844C114.376 186.2 113.944 186.452 113.944 187.1C113.944 187.748 114.376 188 114.844 188H121.036C122.062 188 122.836 187.226 122.836 186.2V182.744C122.836 182.024 122.692 181.502 122.134 180.998C122.692 180.494 122.836 179.972 122.836 179.252V175.796C122.836 174.77 122.062 173.996 121.036 173.996H114.844C114.376 173.996 113.944 174.248 113.944 174.896C113.944 175.544 114.376 175.796 114.844 175.796H121.036ZM129.599 181.628V174.896C129.599 174.446 129.383 173.996 128.699 173.996C128.015 173.996 127.799 174.446 127.799 174.896V183.428H133.091V187.1C133.091 187.676 133.343 188 133.991 188C134.639 188 134.891 187.676 134.891 187.1V183.428C135.359 183.428 135.791 183.176 135.791 182.528C135.791 181.88 135.359 181.628 134.891 181.628V176.426C134.891 175.976 134.675 175.526 133.991 175.526C133.307 175.526 133.091 175.976 133.091 176.426V181.628H129.599Z" fill="#264C6C"/>
<path d="M167.616 175.796H172.026C172.494 175.796 172.926 175.544 172.926 174.896C172.926 174.248 172.494 173.996 172.026 173.996H165.816V181.898H171.126V186.2H166.968C166.68 186.2 166.266 185.948 166.014 185.84L165.474 185.606C165.276 185.516 165.114 185.462 164.898 185.462C164.43 185.462 164.034 185.894 164.034 186.362C164.034 186.992 164.574 187.154 165.06 187.37L165.744 187.676C166.194 187.874 166.464 188 166.932 188H170.928C171.576 188 172.044 187.928 172.494 187.388C172.872 186.938 172.926 186.542 172.926 185.984V182.132C172.926 181.502 172.872 181.07 172.368 180.602C171.936 180.188 171.504 180.098 170.928 180.098H167.616V175.796ZM178.789 175.796C179.311 175.796 179.689 175.436 179.689 174.896C179.689 174.428 179.311 173.996 178.843 173.996H177.763C177.133 173.996 176.989 174.482 176.989 174.896V186.866C176.989 187.694 177.313 188 178.159 188H184.711C185.521 188 185.881 187.712 185.881 186.866V182.834C185.881 182.006 185.701 181.628 184.801 181.628H178.789V175.796ZM184.081 183.428V186.2H178.789V183.428H184.081ZM197.036 175.796V178.28C197.036 179.072 197.072 179.054 196.478 179.576L193.994 181.718C193.544 182.114 193.526 182.168 193.526 182.762V187.1C193.526 187.676 193.778 188 194.426 188C195.074 188 195.326 187.676 195.326 187.1V183.608C195.326 182.978 195.362 182.942 195.83 182.528L198.35 180.35C198.854 179.918 198.836 179.846 198.836 179.216V173.996H190.844C190.268 173.996 189.944 174.5 189.944 174.896V175.796C189.944 176.192 190.268 176.696 190.844 176.696C191.42 176.696 191.744 176.192 191.744 175.796H197.036ZM206.499 180.098V175.796H208.191V180.098H206.499ZM205.599 173.996C204.987 173.996 204.699 174.428 204.699 174.896V180.098C204.141 180.098 203.709 180.296 203.385 180.602C203.061 180.908 202.899 181.358 202.899 181.916V186.2C202.899 187.298 203.583 188 204.699 188H209.991C211.107 188 211.791 187.298 211.791 186.2V181.916C211.791 181.358 211.629 180.908 211.305 180.602C210.981 180.296 210.549 180.098 209.991 180.098V174.896C209.991 174.428 209.703 173.996 209.091 173.996H205.599ZM204.699 186.2V181.898H209.991V186.2H204.699Z" fill="#264C6C"/>
<path d="M246.126 186.2C245.604 186.2 245.226 186.56 245.226 187.1C245.226 187.586 245.586 188 246.126 188H247.026C247.566 188 247.926 187.586 247.926 187.1V174.896C247.926 174.428 247.53 173.996 247.026 173.996H239.934C239.43 173.996 239.034 174.428 239.034 174.896V179.504C239.034 179.972 239.43 180.404 239.934 180.404H246.126V186.2ZM240.834 178.604V175.796H246.126V178.604H240.834ZM257.335 186.2V173.996H252.889C252.421 173.996 251.989 174.248 251.989 174.896C251.989 175.544 252.421 175.796 252.889 175.796H255.535V186.2H252.889C252.421 186.2 251.989 186.452 251.989 187.1C251.989 187.748 252.421 188 252.889 188H259.981C260.449 188 260.881 187.748 260.881 187.1V182.564C260.881 182.042 260.647 181.664 259.981 181.664C259.315 181.664 259.081 182.042 259.081 182.564V186.2H257.335ZM266.744 173.996C265.754 173.996 264.944 174.806 264.944 175.796V186.2C264.944 187.208 265.718 188 266.744 188H272.036C273.062 188 273.836 187.208 273.836 186.2V175.796C273.836 174.806 273.026 173.996 272.036 173.996H266.744ZM266.744 186.2V175.796H272.036V186.2H266.744ZM279.699 181.898H284.775C285.369 181.898 285.783 181.808 286.233 181.394C286.737 180.926 286.791 180.44 286.791 179.792V176.102C286.791 175.454 286.737 174.968 286.233 174.5C285.783 174.086 285.369 173.996 284.775 173.996H278.799C278.331 173.996 277.899 174.248 277.899 174.896C277.899 175.544 278.331 175.796 278.799 175.796H284.991V180.098H279.933C278.583 180.098 277.899 180.782 277.899 182.132V188H285.891C286.359 188 286.791 187.748 286.791 187.1C286.791 186.452 286.359 186.2 285.891 186.2H279.699V181.898Z" fill="#264C6C"/>
<path d="M320.126 175.796V178.784C320.126 179.792 319.73 180.098 319.226 180.098H315.698C315.23 180.098 314.798 180.35 314.798 180.998C314.798 181.646 315.23 181.898 315.698 181.898H319.226C319.73 181.898 320.126 182.204 320.126 183.212V186.2H313.934C313.466 186.2 313.034 186.452 313.034 187.1C313.034 187.748 313.466 188 313.934 188H320.126C321.152 188 321.926 187.226 321.926 186.2V182.744C321.926 182.024 321.782 181.502 321.224 180.998C321.782 180.494 321.926 179.972 321.926 179.252V175.796C321.926 174.77 321.152 173.996 320.126 173.996H313.934C313.466 173.996 313.034 174.248 313.034 174.896C313.034 175.544 313.466 175.796 313.934 175.796H320.126ZM328.689 181.628V174.896C328.689 174.446 328.473 173.996 327.789 173.996C327.105 173.996 326.889 174.446 326.889 174.896V183.428H332.181V187.1C332.181 187.676 332.433 188 333.081 188C333.729 188 333.981 187.676 333.981 187.1V183.428C334.449 183.428 334.881 183.176 334.881 182.528C334.881 181.88 334.449 181.628 333.981 181.628V176.426C333.981 175.976 333.765 175.526 333.081 175.526C332.397 175.526 332.181 175.976 332.181 176.426V181.628H328.689ZM342.526 175.796H346.936C347.404 175.796 347.836 175.544 347.836 174.896C347.836 174.248 347.404 173.996 346.936 173.996H340.726V181.898H346.036V186.2H341.878C341.59 186.2 341.176 185.948 340.924 185.84L340.384 185.606C340.186 185.516 340.024 185.462 339.808 185.462C339.34 185.462 338.944 185.894 338.944 186.362C338.944 186.992 339.484 187.154 339.97 187.37L340.654 187.676C341.104 187.874 341.374 188 341.842 188H345.838C346.486 188 346.954 187.928 347.404 187.388C347.782 186.938 347.836 186.542 347.836 185.984V182.132C347.836 181.502 347.782 181.07 347.278 180.602C346.846 180.188 346.414 180.098 345.838 180.098H342.526V175.796ZM353.699 175.796C354.221 175.796 354.599 175.436 354.599 174.896C354.599 174.428 354.221 173.996 353.753 173.996H352.673C352.043 173.996 351.899 174.482 351.899 174.896V186.866C351.899 187.694 352.223 188 353.069 188H359.621C360.431 188 360.791 187.712 360.791 186.866V182.834C360.791 182.006 360.611 181.628 359.711 181.628H353.699V175.796ZM358.991 183.428V186.2H353.699V183.428H358.991Z" fill="#264C6C"/>
</g>
<defs>
<clipPath id="clip0">
<rect width="456" height="335" fill="white"/>
</clipPath>
</defs>
</svg>
