<svg xmlns="http://www.w3.org/2000/svg" width="186" height="116" viewBox="0 0 186 116">
  <g fill="none" fill-rule="evenodd" transform="translate(1 1)">
    <path fill="#FFFFFF" stroke="#374D6B" stroke-width="2" d="M178,114 L6,114 C2.66594394,114 0,111.316785 0,108 L0,6 C0,2.68221123 2.66594394,0 6,0 L178,0 C181.334056,0 184,2.68221123 184,6 L184,108 C184,111.316785 181.334056,114 178,114 Z" stroke-linecap="round" stroke-linejoin="round"/>
    <path fill="#374D6B" d="M14.5432729,59.7060862 L14.5432729,56.2006029 C14.5432729,56.0469593 14.5857264,55.9074691 14.6706348,55.7821283 C14.7555431,55.6567874 14.9152492,55.5941179 15.1497579,55.5941179 C15.3842666,55.5941179 15.5439727,55.6567874 15.6288811,55.7821283 C15.7137894,55.9074691 15.7562429,56.0469593 15.7562429,56.2006029 L15.7562429,59.7060862 C15.917973,59.7060862 16.0594848,59.7525829 16.1807824,59.8455778 C16.30208,59.9385726 16.3627279,60.0942355 16.3627279,60.3125712 C16.3627279,60.5309069 16.30208,60.6865698 16.1807824,60.7795647 C16.0594848,60.8725595 15.917973,60.9190562 15.7562429,60.9190562 L15.7562429,63.393515 C15.7562429,63.5875912 15.7097462,63.7371893 15.6167514,63.8423139 C15.5237565,63.9474385 15.3680936,64 15.1497579,64 C14.9314222,64 14.7757593,63.9474385 14.6827645,63.8423139 C14.5897696,63.7371893 14.5432729,63.5875912 14.5432729,63.393515 L14.5432729,60.9190562 L10.9771411,60.9190562 L10.9771411,55.1695784 C10.9771411,55.0159348 11.0195946,54.8764446 11.104503,54.7511038 C11.1894113,54.6257629 11.3491174,54.5630934 11.5836261,54.5630934 C11.8181348,54.5630934 11.9778409,54.6257629 12.0627493,54.7511038 C12.1476576,54.8764446 12.1901111,55.0159348 12.1901111,55.1695784 L12.1901111,59.7060862 L14.5432729,59.7060862 Z M21.5178504,58.6750617 L23.7497152,58.6750617 C23.9437914,58.6750617 24.1176487,58.6972993 24.2712923,58.7417751 C24.4249359,58.7862508 24.5745341,58.8772227 24.7200912,59.0146933 C24.8899078,59.1764234 24.9950309,59.3361296 25.0354634,59.4938165 C25.0758959,59.6515033 25.0961119,59.8354686 25.0961119,60.0457178 L25.0961119,62.6414736 C25.0961119,62.8274633 25.0799391,62.9932342 25.0475931,63.1387913 C25.0152471,63.2843484 24.9343832,63.4339466 24.8049991,63.5875902 C24.6513555,63.7735799 24.4916493,63.8888109 24.325876,63.9332867 C24.1601026,63.9777624 23.9680509,64 23.7497152,64 L21.0569218,64 C20.8951917,64 20.7597447,63.979784 20.6505769,63.9393515 C20.541409,63.898919 20.4100052,63.8463575 20.2563616,63.7816654 L19.795433,63.5754605 C19.7145679,63.5431145 19.6337041,63.5087473 19.552839,63.4723581 C19.4719739,63.4359688 19.3971749,63.3935152 19.3284396,63.3449962 C19.2597042,63.2964772 19.2051211,63.2358293 19.1646886,63.1630507 C19.1242561,63.0902721 19.1040401,63.0013219 19.1040401,62.8961973 C19.1040401,62.7344672 19.1606448,62.5929554 19.2738559,62.4716578 C19.387067,62.3503602 19.5245356,62.2897123 19.6862657,62.2897123 C19.7590443,62.2897123 19.8257569,62.2977987 19.8864058,62.3139717 C19.9470546,62.3301447 20.009724,62.3544039 20.0744161,62.3867499 L20.4383071,62.544436 C20.5272587,62.5848685 20.6323817,62.6354084 20.7536793,62.6960573 C20.8749769,62.7567061 20.9841431,62.78703 21.0811812,62.78703 L23.8831419,62.78703 L23.8831419,59.8880317 L20.3048804,59.8880317 L20.3048804,54.5630934 L24.4896269,54.5630934 C24.651357,54.5630934 24.7928688,54.6095901 24.9141664,54.702585 C25.035464,54.7955798 25.0961119,54.9512427 25.0961119,55.1695784 C25.0961119,55.3879141 25.035464,55.543577 24.9141664,55.6365719 C24.7928688,55.7295667 24.651357,55.7760634 24.4896269,55.7760634 L21.5178504,55.7760634 L21.5178504,58.6750617 Z M28.4439091,55.7760634 C28.282179,55.7760634 28.1406672,55.7295667 28.0193696,55.6365719 C27.898072,55.543577 27.8374241,55.3879141 27.8374241,55.1695784 C27.8374241,54.9512427 27.898072,54.7955798 28.0193696,54.702585 C28.1406672,54.6095901 28.282179,54.5630934 28.4439091,54.5630934 L32.6165259,54.5630934 C32.9642457,54.5630934 33.253334,54.6783244 33.4837995,54.9087899 C33.7142649,55.1392553 33.8294959,55.4283436 33.8294959,55.7760634 L33.8294959,58.1049658 C33.8294959,58.347561 33.7971504,58.5618502 33.7324583,58.7478399 C33.6677662,58.9338296 33.5424273,59.1117301 33.3564376,59.2815467 C33.5424273,59.4513633 33.6677662,59.6292638 33.7324583,59.8152535 C33.7971504,60.0012432 33.8294959,60.2155324 33.8294959,60.4581276 L33.8294959,62.78703 C33.8294959,63.1347498 33.7142649,63.4238381 33.4837995,63.6543036 C33.253334,63.884769 32.9642457,64 32.6165259,64 L28.4439091,64 C28.282179,64 28.1406672,63.9535033 28.0193696,63.8605085 C27.898072,63.7675136 27.8374241,63.6118507 27.8374241,63.393515 C27.8374241,63.1751793 27.898072,63.0195164 28.0193696,62.9265216 C28.1406672,62.8335267 28.282179,62.78703 28.4439091,62.78703 L32.6165259,62.78703 L32.6165259,60.7734998 C32.6165259,60.4338665 32.5578996,60.2013829 32.4406453,60.0760421 C32.3233909,59.9507012 32.1798575,59.8880317 32.0100409,59.8880317 L29.6326197,59.8880317 C29.4708896,59.8880317 29.3293778,59.841535 29.2080802,59.7485402 C29.0867826,59.6555453 29.0261347,59.4998824 29.0261347,59.2815467 C29.0261347,59.063211 29.0867826,58.9075481 29.2080802,58.8145533 C29.3293778,58.7215584 29.4708896,58.6750617 29.6326197,58.6750617 L32.0100409,58.6750617 C32.1798575,58.6750617 32.3233909,58.6123922 32.4406453,58.4870514 C32.5578996,58.3617105 32.6165259,58.1292269 32.6165259,57.7895936 L32.6165259,55.7760634 L28.4439091,55.7760634 Z M41.3499099,62.78703 L41.3499099,55.7760634 L37.7837781,55.7760634 L37.7837781,62.78703 L41.3499099,62.78703 Z M41.3499099,54.5630934 C41.6895432,54.5630934 41.9766099,54.680346 42.2111186,54.9148547 C42.4456273,55.1493634 42.5628799,55.4364301 42.5628799,55.7760634 L42.5628799,62.78703 C42.5628799,63.1266633 42.4476489,63.41373 42.2171835,63.6482387 C41.986718,63.8827474 41.6976297,64 41.3499099,64 L37.7837781,64 C37.4360583,64 37.14697,63.8827474 36.9165046,63.6482387 C36.6860391,63.41373 36.5708081,63.1266633 36.5708081,62.78703 L36.5708081,55.7760634 C36.5708081,55.4364301 36.6880607,55.1493634 36.9225694,54.9148547 C37.1570781,54.680346 37.4441448,54.5630934 37.7837781,54.5630934 L41.3499099,54.5630934 Z M58.8166779,62.78703 L58.8166779,59.8880317 L55.2505461,59.8880317 L55.2505461,62.78703 L58.8166779,62.78703 Z M58.2101929,54.5630934 C58.4204421,54.5630934 58.5740834,54.6237413 58.6711215,54.7450389 C58.7681596,54.8663365 58.8166779,55.0078483 58.8166779,55.1695784 L58.8166779,58.6750617 C59.0026676,58.6750617 59.1684385,58.7053856 59.3139956,58.7660345 C59.4595527,58.8266833 59.5889349,58.9095687 59.702146,59.0146933 C59.9204817,59.2249425 60.0296479,59.5200956 60.0296479,59.9001614 L60.0296479,62.78703 C60.0296479,63.1590093 59.9225033,63.4541624 59.7082109,63.6724981 C59.4939184,63.8908338 59.1967437,64 58.8166779,64 L55.2505461,64 C54.8704803,64 54.5733056,63.8908338 54.3590132,63.6724981 C54.1447207,63.4541624 54.0375761,63.1590093 54.0375761,62.78703 L54.0375761,59.9001614 C54.0375761,59.5200956 54.1467423,59.2249425 54.365078,59.0146933 C54.4782891,58.9095687 54.6076713,58.8266833 54.7532284,58.7660345 C54.8987855,58.7053856 55.0645564,58.6750617 55.2505461,58.6750617 L55.2505461,55.1695784 C55.2505461,55.0078483 55.2990644,54.8663365 55.3961025,54.7450389 C55.4931406,54.6237413 55.6467819,54.5630934 55.8570311,54.5630934 L58.2101929,54.5630934 Z M57.6037079,58.6750617 L57.6037079,55.7760634 L56.4635161,55.7760634 L56.4635161,58.6750617 L57.6037079,58.6750617 Z M66.9435769,59.7060862 L66.9435769,56.2006029 C66.9435769,56.0469593 66.9860304,55.9074691 67.0709388,55.7821283 C67.1558471,55.6567874 67.3155532,55.5941179 67.5500619,55.5941179 C67.7845706,55.5941179 67.9442767,55.6567874 68.0291851,55.7821283 C68.1140934,55.9074691 68.1565469,56.0469593 68.1565469,56.2006029 L68.1565469,59.7060862 C68.318277,59.7060862 68.4597888,59.7525829 68.5810864,59.8455778 C68.702384,59.9385726 68.7630319,60.0942355 68.7630319,60.3125712 C68.7630319,60.5309069 68.702384,60.6865698 68.5810864,60.7795647 C68.4597888,60.8725595 68.318277,60.9190562 68.1565469,60.9190562 L68.1565469,63.393515 C68.1565469,63.5875912 68.1100502,63.7371893 68.0170554,63.8423139 C67.9240605,63.9474385 67.7683976,64 67.5500619,64 C67.3317262,64 67.1760633,63.9474385 67.0830685,63.8423139 C66.9900736,63.7371893 66.9435769,63.5875912 66.9435769,63.393515 L66.9435769,60.9190562 L63.3774451,60.9190562 L63.3774451,55.1695784 C63.3774451,55.0159348 63.4198986,54.8764446 63.504807,54.7511038 C63.5897153,54.6257629 63.7494214,54.5630934 63.9839301,54.5630934 C64.2184388,54.5630934 64.3781449,54.6257629 64.4630533,54.7511038 C64.5479616,54.8764446 64.5904151,55.0159348 64.5904151,55.1695784 L64.5904151,59.7060862 L66.9435769,59.7060862 Z M72.7173141,55.7760634 C72.7173141,55.913534 72.6647526,56.048981 72.559628,56.1824084 C72.4545034,56.3158357 72.3049053,56.3825484 72.1108291,56.3825484 C71.9167529,56.3825484 71.7671548,56.3158357 71.6620302,56.1824084 C71.5569056,56.048981 71.5043441,55.913534 71.5043441,55.7760634 L71.5043441,55.1695784 C71.5043441,55.0321078 71.5569056,54.8966608 71.6620302,54.7632335 C71.7671548,54.6298061 71.9167529,54.5630934 72.1108291,54.5630934 L77.4964159,54.5630934 L77.4964159,58.0807064 C77.4964159,58.185831 77.4943943,58.270738 77.4903511,58.3354301 C77.4863078,58.4001222 77.4761998,58.4587485 77.4600268,58.5113108 C77.4438538,58.563873 77.4115082,58.614413 77.3629892,58.662932 C77.3144702,58.711451 77.2497791,58.7720989 77.168914,58.8448775 L75.470756,60.3125712 C75.3898909,60.3853498 75.3272214,60.4439761 75.2827457,60.4884519 C75.2382699,60.5329276 75.2039027,60.5774028 75.1796432,60.6218786 C75.1553837,60.6663543 75.1412325,60.7209374 75.1371893,60.7856295 C75.133146,60.8503216 75.1311244,60.9352286 75.1311244,61.0403532 L75.1311244,63.393515 C75.1311244,63.5875912 75.0846277,63.7371893 74.9916329,63.8423139 C74.898638,63.9474385 74.7429751,64 74.5246394,64 C74.3063037,64 74.1506408,63.9474385 74.057646,63.8423139 C73.9646511,63.7371893 73.9181544,63.5875912 73.9181544,63.393515 L73.9181544,60.4702573 C73.9181544,60.3732192 73.920176,60.294377 73.9242193,60.2337282 C73.9282625,60.1730793 73.9403921,60.1184962 73.9606084,60.0699772 C73.9808246,60.0214582 74.0131702,59.9749614 74.057646,59.9304857 C74.1021217,59.8860099 74.160748,59.8314268 74.2335266,59.7667347 L75.9074252,58.3233004 C76.0044633,58.2343488 76.0792624,58.1635929 76.1318247,58.1110307 C76.1843869,58.0584684 76.2227973,58.0059068 76.2470568,57.9533446 C76.2713163,57.9007823 76.2834459,57.8381128 76.2834459,57.7653342 L76.2834459,55.7760634 L72.7173141,55.7760634 Z M81.4506981,62.78703 L85.6233149,62.78703 C85.785045,62.78703 85.9265568,62.8335267 86.0478544,62.9265216 C86.169152,63.0195164 86.2297999,63.1751793 86.2297999,63.393515 C86.2297999,63.6118507 86.169152,63.7675136 86.0478544,63.8605085 C85.9265568,63.9535033 85.785045,64 85.6233149,64 L80.2377281,64 L80.2377281,60.0457178 C80.2377281,59.1319425 80.6946089,58.6750617 81.6083842,58.6750617 L85.0168299,58.6750617 L85.0168299,55.7760634 L80.8442131,55.7760634 C80.682483,55.7760634 80.5409712,55.7295667 80.4196736,55.6365719 C80.298376,55.543577 80.2377281,55.3879141 80.2377281,55.1695784 C80.2377281,54.9512427 80.298376,54.7955798 80.4196736,54.702585 C80.5409712,54.6095901 80.682483,54.5630934 80.8442131,54.5630934 L84.8712735,54.5630934 C85.0734362,54.5630934 85.2493151,54.585331 85.3989155,54.6298068 C85.5485158,54.6742825 85.7001356,54.7652544 85.8537792,54.902725 C86.0235958,55.0644551 86.1287189,55.2302261 86.1691514,55.4000427 C86.2095839,55.5698593 86.2297999,55.7639326 86.2297999,55.9822683 L86.2297999,58.4688568 C86.2297999,58.6871925 86.2095839,58.8812658 86.1691514,59.0510824 C86.1287189,59.220899 86.0235958,59.38667 85.8537792,59.5484001 C85.7001356,59.6858707 85.5485158,59.7768426 85.3989155,59.8213184 C85.2493151,59.8657941 85.0734362,59.8880317 84.8712735,59.8880317 L81.4506981,59.8880317 L81.4506981,62.78703 Z M101.877113,59.7060862 L101.877113,56.2006029 C101.877113,56.0469593 101.919566,55.9074691 102.004475,55.7821283 C102.089383,55.6567874 102.249089,55.5941179 102.483598,55.5941179 C102.718107,55.5941179 102.877813,55.6567874 102.962721,55.7821283 C103.047629,55.9074691 103.090083,56.0469593 103.090083,56.2006029 L103.090083,59.7060862 C103.251813,59.7060862 103.393325,59.7525829 103.514622,59.8455778 C103.63592,59.9385726 103.696568,60.0942355 103.696568,60.3125712 C103.696568,60.5309069 103.63592,60.6865698 103.514622,60.7795647 C103.393325,60.8725595 103.251813,60.9190562 103.090083,60.9190562 L103.090083,63.393515 C103.090083,63.5875912 103.043586,63.7371893 102.950591,63.8423139 C102.857597,63.9474385 102.701934,64 102.483598,64 C102.265262,64 102.109599,63.9474385 102.016604,63.8423139 C101.92361,63.7371893 101.877113,63.5875912 101.877113,63.393515 L101.877113,60.9190562 L98.3109811,60.9190562 L98.3109811,55.1695784 C98.3109811,55.0159348 98.3534346,54.8764446 98.438343,54.7511038 C98.5232513,54.6257629 98.6829574,54.5630934 98.9174661,54.5630934 C99.1519748,54.5630934 99.3116809,54.6257629 99.3965893,54.7511038 C99.4814976,54.8764446 99.5239511,55.0159348 99.5239511,55.1695784 L99.5239511,59.7060862 L101.877113,59.7060862 Z M111.216982,62.78703 L111.216982,59.8880317 L107.65085,59.8880317 L107.65085,62.78703 L111.216982,62.78703 Z M110.610497,54.5630934 C110.820746,54.5630934 110.974387,54.6237413 111.071426,54.7450389 C111.168464,54.8663365 111.216982,55.0078483 111.216982,55.1695784 L111.216982,58.6750617 C111.402972,58.6750617 111.568742,58.7053856 111.7143,58.7660345 C111.859857,58.8266833 111.989239,58.9095687 112.10245,59.0146933 C112.320786,59.2249425 112.429952,59.5200956 112.429952,59.9001614 L112.429952,62.78703 C112.429952,63.1590093 112.322807,63.4541624 112.108515,63.6724981 C111.894222,63.8908338 111.597048,64 111.216982,64 L107.65085,64 C107.270784,64 106.97361,63.8908338 106.759317,63.6724981 C106.545025,63.4541624 106.43788,63.1590093 106.43788,62.78703 L106.43788,59.9001614 C106.43788,59.5200956 106.547046,59.2249425 106.765382,59.0146933 C106.878593,58.9095687 107.007975,58.8266833 107.153532,58.7660345 C107.29909,58.7053856 107.46486,58.6750617 107.65085,58.6750617 L107.65085,55.1695784 C107.65085,55.0078483 107.699368,54.8663365 107.796407,54.7450389 C107.893445,54.6237413 108.047086,54.5630934 108.257335,54.5630934 L110.610497,54.5630934 Z M110.004012,58.6750617 L110.004012,55.7760634 L108.86382,55.7760634 L108.86382,58.6750617 L110.004012,58.6750617 Z M116.384234,62.78703 L120.556851,62.78703 C120.718581,62.78703 120.860093,62.8335267 120.98139,62.9265216 C121.102688,63.0195164 121.163336,63.1751793 121.163336,63.393515 C121.163336,63.6118507 121.102688,63.7675136 120.98139,63.8605085 C120.860093,63.9535033 120.718581,64 120.556851,64 L115.171264,64 L115.171264,60.0457178 C115.171264,59.1319425 115.628145,58.6750617 116.54192,58.6750617 L119.950366,58.6750617 L119.950366,55.7760634 L115.777749,55.7760634 C115.616019,55.7760634 115.474507,55.7295667 115.35321,55.6365719 C115.231912,55.543577 115.171264,55.3879141 115.171264,55.1695784 C115.171264,54.9512427 115.231912,54.7955798 115.35321,54.702585 C115.474507,54.6095901 115.616019,54.5630934 115.777749,54.5630934 L119.80481,54.5630934 C120.006972,54.5630934 120.182851,54.585331 120.332451,54.6298068 C120.482052,54.6742825 120.633672,54.7652544 120.787315,54.902725 C120.957132,55.0644551 121.062255,55.2302261 121.102687,55.4000427 C121.14312,55.5698593 121.163336,55.7639326 121.163336,55.9822683 L121.163336,58.4688568 C121.163336,58.6871925 121.14312,58.8812658 121.102687,59.0510824 C121.062255,59.220899 120.957132,59.38667 120.787315,59.5484001 C120.633672,59.6858707 120.482052,59.7768426 120.332451,59.8213184 C120.182851,59.8657941 120.006972,59.8880317 119.80481,59.8880317 L116.384234,59.8880317 L116.384234,62.78703 Z M128.68375,57.6682966 L128.68375,55.7760634 L125.117618,55.7760634 L125.117618,57.6682966 L128.68375,57.6682966 Z M128.68375,58.8812666 L124.511133,58.8812666 C124.341316,58.8812666 124.197783,58.8206187 124.080529,58.6993211 C123.963274,58.5780235 123.904648,58.4365117 123.904648,58.2747816 L123.904648,55.1695784 C123.904648,55.0078483 123.963274,54.8663365 124.080529,54.7450389 C124.197783,54.6237413 124.341316,54.5630934 124.511133,54.5630934 L129.290235,54.5630934 C129.460052,54.5630934 129.603585,54.6237413 129.720839,54.7450389 C129.838094,54.8663365 129.89672,55.0078483 129.89672,55.1695784 L129.89672,63.393515 C129.89672,63.5552451 129.842137,63.6967569 129.732969,63.8180545 C129.623801,63.9393521 129.476225,64 129.290235,64 L128.68375,64 C128.49776,64 128.350184,63.9393521 128.241016,63.8180545 C128.131848,63.6967569 128.077265,63.5552451 128.077265,63.393515 C128.077265,63.2075253 128.13387,63.0599488 128.247081,62.950781 C128.360292,62.8416131 128.505847,62.78703 128.68375,62.78703 L128.68375,58.8812666 Z M143.785226,58.6750617 L146.017091,58.6750617 C146.211167,58.6750617 146.385025,58.6972993 146.538668,58.7417751 C146.692312,58.7862508 146.84191,58.8772227 146.987467,59.0146933 C147.157284,59.1764234 147.262407,59.3361296 147.302839,59.4938165 C147.343272,59.6515033 147.363488,59.8354686 147.363488,60.0457178 L147.363488,62.6414736 C147.363488,62.8274633 147.347315,62.9932342 147.314969,63.1387913 C147.282623,63.2843484 147.201759,63.4339466 147.072375,63.5875902 C146.918731,63.7735799 146.759025,63.8888109 146.593252,63.9332867 C146.427479,63.9777624 146.235427,64 146.017091,64 L143.324298,64 C143.162568,64 143.027121,63.979784 142.917953,63.9393515 C142.808785,63.898919 142.677381,63.8463575 142.523738,63.7816654 L142.062809,63.5754605 C141.981944,63.5431145 141.90108,63.5087473 141.820215,63.4723581 C141.73935,63.4359688 141.664551,63.3935152 141.595816,63.3449962 C141.52708,63.2964772 141.472497,63.2358293 141.432065,63.1630507 C141.391632,63.0902721 141.371416,63.0013219 141.371416,62.8961973 C141.371416,62.7344672 141.428021,62.5929554 141.541232,62.4716578 C141.654443,62.3503602 141.791912,62.2897123 141.953642,62.2897123 C142.02642,62.2897123 142.093133,62.2977987 142.153782,62.3139717 C142.214431,62.3301447 142.2771,62.3544039 142.341792,62.3867499 L142.705683,62.544436 C142.794635,62.5848685 142.899758,62.6354084 143.021055,62.6960573 C143.142353,62.7567061 143.251519,62.78703 143.348557,62.78703 L146.150518,62.78703 L146.150518,59.8880317 L142.572256,59.8880317 L142.572256,54.5630934 L146.757003,54.5630934 C146.918733,54.5630934 147.060245,54.6095901 147.181542,54.702585 C147.30284,54.7955798 147.363488,54.9512427 147.363488,55.1695784 C147.363488,55.3879141 147.30284,55.543577 147.181542,55.6365719 C147.060245,55.7295667 146.918733,55.7760634 146.757003,55.7760634 L143.785226,55.7760634 L143.785226,58.6750617 Z M154.883902,57.6682966 L154.883902,55.7760634 L151.31777,55.7760634 L151.31777,57.6682966 L154.883902,57.6682966 Z M154.883902,58.8812666 L150.711285,58.8812666 C150.541468,58.8812666 150.397935,58.8206187 150.280681,58.6993211 C150.163426,58.5780235 150.1048,58.4365117 150.1048,58.2747816 L150.1048,55.1695784 C150.1048,55.0078483 150.163426,54.8663365 150.280681,54.7450389 C150.397935,54.6237413 150.541468,54.5630934 150.711285,54.5630934 L155.490387,54.5630934 C155.660204,54.5630934 155.803737,54.6237413 155.920991,54.7450389 C156.038246,54.8663365 156.096872,55.0078483 156.096872,55.1695784 L156.096872,63.393515 C156.096872,63.5552451 156.042289,63.6967569 155.933121,63.8180545 C155.823953,63.9393521 155.676377,64 155.490387,64 L154.883902,64 C154.697912,64 154.550336,63.9393521 154.441168,63.8180545 C154.332,63.6967569 154.277417,63.5552451 154.277417,63.393515 C154.277417,63.2075253 154.334022,63.0599488 154.447233,62.950781 C154.560444,62.8416131 154.705999,62.78703 154.883902,62.78703 L154.883902,58.8812666 Z M163.617286,62.78703 L163.617286,55.7760634 L160.051154,55.7760634 L160.051154,62.78703 L163.617286,62.78703 Z M163.617286,54.5630934 C163.956919,54.5630934 164.243986,54.680346 164.478495,54.9148547 C164.713003,55.1493634 164.830256,55.4364301 164.830256,55.7760634 L164.830256,62.78703 C164.830256,63.1266633 164.715025,63.41373 164.484559,63.6482387 C164.254094,63.8827474 163.965006,64 163.617286,64 L160.051154,64 C159.703434,64 159.414346,63.8827474 159.183881,63.6482387 C158.953415,63.41373 158.838184,63.1266633 158.838184,62.78703 L158.838184,55.7760634 C158.838184,55.4364301 158.955437,55.1493634 159.189945,54.9148547 C159.424454,54.680346 159.711521,54.5630934 160.051154,54.5630934 L163.617286,54.5630934 Z M168.784538,62.78703 L172.957155,62.78703 C173.118885,62.78703 173.260397,62.8335267 173.381694,62.9265216 C173.502992,63.0195164 173.56364,63.1751793 173.56364,63.393515 C173.56364,63.6118507 173.502992,63.7675136 173.381694,63.8605085 C173.260397,63.9535033 173.118885,64 172.957155,64 L167.571568,64 L167.571568,60.0457178 C167.571568,59.1319425 168.028449,58.6750617 168.942224,58.6750617 L172.35067,58.6750617 L172.35067,55.7760634 L168.178053,55.7760634 C168.016323,55.7760634 167.874811,55.7295667 167.753514,55.6365719 C167.632216,55.543577 167.571568,55.3879141 167.571568,55.1695784 C167.571568,54.9512427 167.632216,54.7955798 167.753514,54.702585 C167.874811,54.6095901 168.016323,54.5630934 168.178053,54.5630934 L172.205114,54.5630934 C172.407276,54.5630934 172.583155,54.585331 172.732755,54.6298068 C172.882356,54.6742825 173.033976,54.7652544 173.187619,54.902725 C173.357436,55.0644551 173.462559,55.2302261 173.502991,55.4000427 C173.543424,55.5698593 173.56364,55.7639326 173.56364,55.9822683 L173.56364,58.4688568 C173.56364,58.6871925 173.543424,58.8812658 173.502991,59.0510824 C173.462559,59.220899 173.357436,59.38667 173.187619,59.5484001 C173.033976,59.6858707 172.882356,59.7768426 172.732755,59.8213184 C172.583155,59.8657941 172.407276,59.8880317 172.205114,59.8880317 L168.784538,59.8880317 L168.784538,62.78703 Z"/>
    <g stroke="#374D6B" stroke-width="2" transform="translate(11 16)" stroke-linecap="round" stroke-linejoin="round">
      <path d="M31 0L4 0C1.88436468 0 0 1.91122932 0 4L0 25C0 27.0887707 1.88436468 29 4 29L31 29C33.1156353 29 35 27.0887707 35 25L35 4C35 1.91122932 33.1156353 0 31 0zM13 28.121L13 7M22 28.121L22 7M23 11L33.59 11M23 16L33.59 16M23 21L33.59 21M0 11L12.59 11M0 16L12.59 16M0 21L12.59 21"/>
    </g>
    <g stroke="#374D6B" stroke-width="2" transform="translate(157 22)" stroke-linecap="round" stroke-linejoin="round">
      <path d="M0 12C.319 11.2336842.503 10.3905263.503 9.5.503 8.60947368.319 7.76631579 0 7M4 14C4.624 12.6213425 4.977 11.1013339 4.977 9.5 4.977 7.89866609 4.624 6.37768933 4 5M8 16C8.63875433 13.8580749 9 11.4934389 9 9.00051316 9 6.50758742 8.63875433 4.1429514 8 2M12 18C13.2772586 15.2450593 14 12.2045455 14 9 14 5.79545455 13.2772586 2.75494071 12 0"/>
    </g>
    <path fill="#374D6B" d="M10.5771281,90.1376403 L15.1694133,90.1376403 C17.1547748,90.1376403 18.7040757,90.7267457 19.8173625,91.9049743 C20.9306493,93.0832028 21.4872844,94.72373 21.4872844,96.8266051 C21.4872844,98.9356651 20.9321955,100.579285 19.8220012,101.757513 C18.7118068,102.935742 17.1609597,103.524847 15.1694133,103.524847 L10.5771281,103.524847 L10.5771281,90.1376403 Z M12.24705,91.64057 L12.24705,102.021918 L15.0580852,102.021918 C16.5733922,102.021918 17.7392334,101.575063 18.5556438,100.681341 C19.3720541,99.7876195 19.7802531,98.5089051 19.7802531,96.8451598 C19.7802531,95.1690446 19.3736003,93.8825992 18.5602824,92.9857848 C17.7469646,92.0889704 16.5795771,91.64057 15.0580852,91.64057 L12.24705,91.64057 Z M28.1673753,94.8505309 C27.3818896,94.8505309 26.7309358,95.1102939 26.2144944,95.6298278 C25.698053,96.1493616 25.4120045,96.8327858 25.3563401,97.6801207 L30.857805,97.6801207 C30.8392502,96.8327858 30.5841258,96.1493616 30.0924241,95.6298278 C29.6007224,95.1102939 28.9590459,94.8505309 28.1673753,94.8505309 Z M30.8206956,100.667425 L32.4163987,100.667425 C32.2803303,101.52713 31.8226526,102.233748 31.0433518,102.787298 C30.2640511,103.340849 29.3394184,103.617621 28.2694261,103.617621 C26.8654477,103.617621 25.7506314,103.163035 24.9249436,102.253851 C24.0992559,101.344667 23.6864182,100.113885 23.6864182,98.5614684 C23.6864182,97.0090518 24.0977097,95.7659001 24.920305,94.8319762 C25.7429002,93.8980523 26.8345234,93.4310973 28.1952073,93.4310973 C29.5311515,93.4310973 30.5887581,93.8717667 31.3680589,94.7531188 C32.1473596,95.6344708 32.5370042,96.82969 32.5370042,98.3388121 L32.5370042,98.9696715 L25.3563401,98.9696715 L25.3563401,99.062445 C25.3563401,100.014924 25.6253804,100.775658 26.163469,101.344672 C26.7015577,101.913685 27.415906,102.198187 28.3065354,102.198187 C28.931213,102.198187 29.4708398,102.060575 29.9254319,101.785345 C30.380024,101.510116 30.6784423,101.13748 30.8206956,100.667425 Z M39.9778373,103.617621 C39.2480159,103.617621 38.6047932,103.464546 38.0481498,103.158392 C37.4915064,102.852238 37.0492907,102.411569 36.7214896,101.836371 L36.6843802,101.836371 L36.6843802,103.524847 L35.1536185,103.524847 L35.1536185,89.5531676 L36.7678763,89.5531676 L36.7678763,95.1474059 L36.8049857,95.1474059 C37.120417,94.5969474 37.5564478,94.1732863 38.1130912,93.8764098 C38.6697346,93.5795333 39.3036801,93.4310973 40.0149467,93.4310973 C41.2766717,93.4310973 42.2971693,93.8995985 43.0764701,94.8366149 C43.8557709,95.7736313 44.2454154,97.002867 44.2454154,98.524359 C44.2454154,100.052036 43.8542247,101.282818 43.0718314,102.216742 C42.2894382,103.150666 41.2581171,103.617621 39.9778373,103.617621 Z M39.6902396,94.8690856 C38.8181649,94.8690856 38.1115477,95.2077052 37.5703666,95.8849547 C37.0291855,96.5622042 36.758599,97.4419968 36.758599,98.524359 C36.758599,99.6129061 37.0291855,100.494245 37.5703666,101.168402 C38.1115477,101.842559 38.8181649,102.179632 39.6902396,102.179632 C40.5684992,102.179632 41.2720241,101.848744 41.8008353,101.186957 C42.3296466,100.52517 42.5940482,99.6376458 42.5940482,98.524359 C42.5940482,97.4172571 42.3296466,96.5312797 41.8008353,95.8664 C41.2720241,95.2015204 40.5684992,94.8690856 39.6902396,94.8690856 Z M46.8620297,103.524847 L46.8620297,93.5238707 L48.4762876,93.5238707 L48.4762876,103.524847 L46.8620297,103.524847 Z M47.6691587,91.9096129 C47.3908369,91.9096129 47.1511746,91.8091094 46.9501645,91.6080993 C46.7491544,91.4070891 46.6486508,91.1674268 46.6486508,90.8891051 C46.6486508,90.6045985 46.7491544,90.36339 46.9501645,90.1654723 C47.1511746,89.9675546 47.3908369,89.8685973 47.6691587,89.8685973 C47.9536653,89.8685973 48.1948738,89.9675546 48.3927915,90.1654723 C48.5907091,90.36339 48.6896665,90.6045985 48.6896665,90.8891051 C48.6896665,91.1674268 48.5907091,91.4070891 48.3927915,91.6080993 C48.1948738,91.8091094 47.9536653,91.9096129 47.6691587,91.9096129 Z M52.1134097,91.2694762 L53.7276675,91.2694762 L53.7276675,93.5238707 L55.6759097,93.5238707 L55.6759097,94.8598082 L53.7276675,94.8598082 L53.7276675,100.86225 C53.7276675,101.319934 53.8281711,101.657008 54.0291812,101.87348 C54.2301913,102.089953 54.5440716,102.198187 54.9708316,102.198187 C55.2491533,102.198187 55.4810846,102.182725 55.6666324,102.1518 L55.6666324,103.51557 C55.4316052,103.571234 55.0852544,103.599066 54.6275699,103.599066 C53.7245706,103.599066 53.0798016,103.39342 52.6932437,102.982123 C52.3066858,102.570825 52.1134097,101.885855 52.1134097,100.927191 L52.1134097,94.8598082 L50.7218081,94.8598082 L50.7218081,93.5238707 L52.1134097,93.5238707 L52.1134097,91.2694762 Z"/>
    <path stroke="#00B4D6" stroke-width="2" d="M159.1948,92.9009 C159.1948,86.9989 154.4098,82.2139 148.5078,82.2139 C142.6058,82.2139 137.8208,86.9989 137.8208,92.9009 C137.8208,98.8029 142.6058,103.5879 148.5078,103.5879 C154.4098,103.5879 159.1948,98.8029 159.1948,92.9009 Z" stroke-linecap="round" stroke-linejoin="round"/>
    <path stroke="#00B4D6" stroke-width="2" d="M174.6144,92.9009 C174.6144,86.9989 169.8294,82.2139 163.9274,82.2139 C158.0254,82.2139 153.2404,86.9989 153.2404,92.9009 C153.2404,98.8029 158.0254,103.5879 163.9274,103.5879 C169.8294,103.5879 174.6144,98.8029 174.6144,92.9009 Z" stroke-linecap="round" stroke-linejoin="round"/>
  </g>
</svg>
