<?xml version="1.0" encoding="UTF-8" standalone="no"?>
<svg width="136px" height="178px" viewBox="0 0 136 178" version="1.1" xmlns="http://www.w3.org/2000/svg" xmlns:xlink="http://www.w3.org/1999/xlink">
    <!-- Generator: Sketch 3.8.3 (29802) - http://www.bohemiancoding.com/sketch -->
    <title>Group 31</title>
    <desc>Created with Sketch.</desc>
    <defs></defs>
    <g id="Page-1" stroke="none" stroke-width="1" fill="none" fill-rule="evenodd">
        <g id="colored-icons-and-chars" transform="translate(-616.000000, -1245.000000)">
            <g id="Group-31" transform="translate(617.000000, 1246.000000)">
                <g id="Group-56" transform="translate(22.000000, 2.000000)">
                    <path d="M92.3409,66.7012 C92.3409,71.5122 90.0009,75.4112 87.1149,75.4112 C84.2279,75.4112 81.8889,71.5122 81.8889,66.7012 C81.8889,61.8902 84.2279,57.9912 87.1149,57.9912 C90.0009,57.9912 92.3409,61.8902 92.3409,66.7012" id="Fill-94" fill="#FFFFFF"></path>
                    <path d="M92.3409,66.7012 C92.3409,71.5122 90.0009,75.4112 87.1149,75.4112 C84.2279,75.4112 81.8889,71.5122 81.8889,66.7012 C81.8889,61.8902 84.2279,57.9912 87.1149,57.9912 C90.0009,57.9912 92.3409,61.8902 92.3409,66.7012 L92.3409,66.7012 Z" id="Stroke-96" stroke="#264C6C" stroke-width="2" stroke-linecap="round" stroke-linejoin="round"></path>
                    <path d="M13.3666,66.7012 C13.3666,71.5122 11.0266,75.4112 8.1406,75.4112 C5.2536,75.4112 2.9146,71.5122 2.9146,66.7012 C2.9146,61.8902 5.2536,57.9912 8.1406,57.9912 C11.0266,57.9912 13.3666,61.8902 13.3666,66.7012" id="Fill-98" fill="#FFFFFF"></path>
                    <path d="M13.3666,66.7012 C13.3666,71.5122 11.0266,75.4112 8.1406,75.4112 C5.2536,75.4112 2.9146,71.5122 2.9146,66.7012 C2.9146,61.8902 5.2536,57.9912 8.1406,57.9912 C11.0266,57.9912 13.3666,61.8902 13.3666,66.7012 L13.3666,66.7012 Z" id="Stroke-100" stroke="#264C6C" stroke-width="2" stroke-linecap="round" stroke-linejoin="round"></path>
                    <path d="M13.0228,173.2587 L13.0228,132.6857 C13.9608,128.4357 17.7278,125.4087 22.0808,125.4087 L74.7288,125.4087 C79.0818,125.4087 82.8488,128.4357 83.7868,132.6857 L83.7868,173.2587" id="Stroke-102" stroke="#264C6C" stroke-width="2" stroke-linecap="round" stroke-linejoin="round"></path>
                    <g id="Group-107" transform="translate(32.000000, 110.860000)">
                        <polyline id="Fill-104" fill="#FFFFFF" points="30.8914 18.942 30.8914 0.117 26.0534 0.117 0.7184 0.117 0.7184 18.942"></polyline>
                        <polyline id="Stroke-106" stroke="#264C6C" stroke-width="2" stroke-linecap="round" stroke-linejoin="round" points="30.8914 18.942 30.8914 0.117 26.0534 0.117 0.7184 0.117 0.7184 18.942"></polyline>
                    </g>
                    <path d="M70.9392,76.0493 L67.2422,76.2603 C55.1112,76.9543 45.3852,66.3633 47.1072,54.3343 L50.6472,29.6063 C52.1522,19.0923 61.8962,11.7893 72.4102,13.2943 L77.1952,13.9793 C88.0802,15.5373 95.4452,25.8893 93.3492,36.6833 L88.7202,60.5153 C87.0432,69.1503 79.7212,75.5473 70.9392,76.0493" id="Fill-108" fill="#264C6C"></path>
                    <path d="M24.2452,13.3413 L20.5482,13.1303 C8.4172,12.4363 -1.3088,23.0273 0.4132,35.0563 L3.9532,59.7843 C5.4582,70.2983 15.2022,77.6013 25.7162,76.0963 L30.5012,75.4113 C41.3862,73.8533 48.7512,63.5013 46.6552,52.7073 L42.0262,28.8753 C40.3492,20.2403 33.0272,13.8433 24.2452,13.3413" id="Fill-110" fill="#264C6C"></path>
                    <path d="M62.2547,119.3652 L33.3547,119.3652 C20.1287,119.3652 9.4067,108.6432 9.4067,95.4162 L9.4067,30.6522 C9.4067,17.4252 20.1287,6.7032 33.3547,6.7032 L62.2547,6.7032 C75.4817,6.7032 86.2037,17.4252 86.2037,30.6522 L86.2037,95.4162 C86.2037,108.6432 75.4817,119.3652 62.2547,119.3652" id="Fill-112" fill="#FFFFFF"></path>
                    <path d="M62.2547,119.3652 L33.3547,119.3652 C20.1287,119.3652 9.4067,108.6432 9.4067,95.4162 L9.4067,30.6522 C9.4067,17.4252 20.1287,6.7032 33.3547,6.7032 L62.2547,6.7032 C75.4817,6.7032 86.2037,17.4252 86.2037,30.6522 L86.2037,95.4162 C86.2037,108.6432 75.4817,119.3652 62.2547,119.3652 L62.2547,119.3652 Z" id="Stroke-114" stroke="#264C6C" stroke-width="2" stroke-linecap="round" stroke-linejoin="round"></path>
                    <path d="M68.3152,64.806 C67.0052,64.806 65.9432,63.744 65.9432,62.434 C65.9432,62.096 66.0162,61.776 66.1442,61.485 C66.0312,61.476 65.9182,61.468 65.8032,61.468 C63.4552,61.468 61.5512,63.371 61.5512,65.72 C61.5512,68.068 63.4552,69.971 65.8032,69.971 C68.1512,69.971 70.0542,68.068 70.0542,65.72 C70.0542,65.211 69.9602,64.725 69.7962,64.273 C69.3902,64.601 68.8792,64.806 68.3152,64.806" id="Fill-116" fill="#00B5D6"></path>
                    <path d="M32.3191,64.806 C31.0091,64.806 29.9471,63.744 29.9471,62.434 C29.9471,62.096 30.0201,61.776 30.1481,61.485 C30.0351,61.476 29.9221,61.468 29.8071,61.468 C27.4591,61.468 25.5551,63.371 25.5551,65.72 C25.5551,68.068 27.4591,69.971 29.8071,69.971 C32.1551,69.971 34.0581,68.068 34.0581,65.72 C34.0581,65.211 33.9641,64.725 33.8001,64.273 C33.3941,64.601 32.8831,64.806 32.3191,64.806" id="Fill-118" fill="#00B5D6"></path>
                    <polygon id="Fill-120" fill="#FFFFFF" points="63.3689 123.9744 47.8049 135.2934 55.5869 141.6604 69.1159 125.1154"></polygon>
                    <polygon id="Stroke-122" stroke="#264C6C" stroke-width="2" stroke-linecap="round" stroke-linejoin="round" points="63.3689 123.9744 47.8049 135.2934 55.5869 141.6604 69.1159 125.1154"></polygon>
                    <polygon id="Fill-124" fill="#FFFFFF" points="32.241 123.9744 47.805 135.2934 40.023 141.6604 26.494 125.1154"></polygon>
                    <polygon id="Stroke-126" stroke="#264C6C" stroke-width="2" stroke-linecap="round" stroke-linejoin="round" points="32.241 123.9744 47.805 135.2934 40.023 141.6604 26.494 125.1154"></polygon>
                    <path d="M37.3371,95.2088 C37.5381,100.8238 42.1411,105.3168 47.8051,105.3168 C53.4691,105.3168 58.0711,100.8238 58.2731,95.2088 L37.3371,95.2088 L37.3371,95.2088 Z" id="Stroke-128" stroke="#264C6C" stroke-width="2" stroke-linecap="round" stroke-linejoin="round"></path>
                    <path d="M55.0498,47.3896 L71.0498,47.3896" id="Stroke-133" stroke="#264C6C" stroke-width="2" stroke-linecap="round" stroke-linejoin="round"></path>
                    <path d="M40.0498,47.3896 L24.0498,47.3896" id="Stroke-134" stroke="#264C6C" stroke-width="2" stroke-linecap="round" stroke-linejoin="round"></path>
                    <polyline id="Stroke-135" stroke="#264C6C" stroke-width="2" stroke-linecap="round" stroke-linejoin="round" points="48.5353 65.3537 46.6523 84.9917 50.9563 87.1447"></polyline>
                    <path d="M56.9192,0.5014 C33.5162,0.5014 13.5302,8.5594 5.5152,19.9254 C12.6102,32.2334 33.4572,41.1504 58.0802,41.1504 C81.4842,41.1504 101.4692,33.0924 109.4842,21.7264 C102.3892,9.4184 81.5422,0.5014 56.9192,0.5014" id="Fill-136" fill="#264C6C"></path>
                    <path d="M57.9734,37.3985 C77.0574,37.3985 93.3534,30.8285 99.8894,21.5595" id="Stroke-137" stroke="#FFFFFF" stroke-linecap="round" stroke-linejoin="round"></path>
                    <path d="M76.3686,158.3096 L76.3686,172.7676" id="Stroke-138" stroke="#264C6C" stroke-width="2" stroke-linecap="round" stroke-linejoin="round"></path>
                    <path d="M20.4405,158.3096 L20.4405,172.7676" id="Stroke-139" stroke="#264C6C" stroke-width="2" stroke-linecap="round" stroke-linejoin="round"></path>
                </g>
                <path d="M19,0 L19,8" id="Stroke-3" stroke="#264C6D" stroke-width="2" stroke-linecap="round" stroke-linejoin="round"></path>
                <path d="M15,4 L23,4" id="Stroke-4" stroke="#264C6D" stroke-width="2" stroke-linecap="round" stroke-linejoin="round"></path>
                <path d="M0,104 L13,104" id="Stroke-103" stroke="#264C6C" stroke-width="2" stroke-linecap="round" stroke-linejoin="round" stroke-dasharray="0,4"></path>
                <path d="M134,46.5 C134,45.11875 132.88125,44 131.5,44 C130.11875,44 129,45.11875 129,46.5 C129,47.88125 130.11875,49 131.5,49 C132.88125,49 134,47.88125 134,46.5 L134,46.5 Z" id="Stroke-9" stroke="#00B4D5" stroke-width="2" stroke-linecap="round" stroke-linejoin="round"></path>
            </g>
        </g>
    </g>
</svg>