<?xml version="1.0" encoding="UTF-8"?>
<svg width="140px" height="175px" viewBox="0 0 140 175" version="1.1" xmlns="http://www.w3.org/2000/svg" xmlns:xlink="http://www.w3.org/1999/xlink">
    <!-- Generator: Sketch 41 (35326) - http://www.bohemiancoding.com/sketch -->
    <title>colombian-girl</title>
    <desc>Created with Sketch.</desc>
    <defs></defs>
    <g id="All-pages" stroke="none" stroke-width="1" fill="none" fill-rule="evenodd">
        <g id="colombian-girl">
            <g id="Group-Copy-3">
                <path d="M129,6 L140,6" id="Stroke-2-Copy" stroke="#00B4D5" stroke-width="2" stroke-linecap="round" stroke-linejoin="round" stroke-dasharray="0,4"></path>
                <polygon id="Stroke-79-Copy" stroke="#264C6D" stroke-width="2" stroke-linecap="round" stroke-linejoin="round" points="2 13.1332917 10 11 7.86670834 19 5.73404172 16.3341667"></polygon>
                <g id="Group-78-Copy" transform="translate(118.000000, 108.000000)" stroke="#264C6D" stroke-width="2" stroke-linecap="round" stroke-linejoin="round">
                    <path d="M4,0 L4,8" id="Stroke-3"></path>
                    <path d="M0,4 L8,4" id="Stroke-4"></path>
                </g>
                <g id="Page-1">
                    <g id="Group-27" transform="translate(16.129032, 0.443548)">
                        <path d="M96.363871,58.0265323 C97.2832258,51.9700806 97.8074194,43.3007258 94.6380645,37.9378226 C91.3558065,32.381371 86.1864516,28.7120161 77.863871,27.6394355 C77.863871,27.6394355 67.0251613,18.8329839 53.5896774,17.381371 C18.863871,12.1716935 12.4364516,29.9620161 12.9364516,41.1958871 C13.0735484,44.2039516 12.8558065,46.4539516 12.4929032,48.5910484 L12.3477419,48.5991129 C12.3154839,48.5749194 12.2832258,48.5507258 12.2509677,48.5345968 C11.5896774,48.1797581 10.4445161,47.6958871 9.04935484,47.7684677 L9.04935484,47.631371 C4.45258065,20.6233065 25.9848387,2.06685484 52.0654839,0.462016129 C78.4606452,-1.16701613 87.1945161,17.7684677 87.1945161,17.7684677 C87.1945161,17.7684677 94.3235484,16.9458871 101.202581,24.7362097 C110.597742,35.381371 104.63,50.0184677 98.6783871,59.6797581 L96.4848387,58.7039516 L96.2670968,58.6716935 C96.2993548,58.4620161 96.3316129,58.2523387 96.363871,58.0345968 L96.363871,58.0265323 Z" id="Fill-1" fill="#264C6C"></path>
                        <path d="M77.863871,59.3733065 L77.863871,65.8249194 C77.863871,67.381371 76.5977419,68.6475 75.0412903,68.6475 C74.2670968,68.6475 73.5574194,68.3329839 73.0493548,67.8168548 C72.5332258,67.3087903 72.2187097,66.5991129 72.2187097,65.8249194 L72.2187097,59.3733065 C72.2187097,57.8168548 73.4848387,56.5507258 75.0412903,56.5507258 C75.8154839,56.5507258 76.5251613,56.8652419 77.0332258,57.381371 C77.5493548,57.8894355 77.863871,58.5991129 77.863871,59.3733065" id="Fill-3" fill="#00B5D6"></path>
                        <path d="M53.5896774,17.381371 C50.7751613,17.0668548 47.8558065,17.0829839 44.896129,17.5749194 L44.8719355,17.5749194 C17.0816129,17.5749194 17.1622581,37.6555645 16.5332258,46.1878226 C16.3719355,48.3249194 15.9767742,51.3249194 14.4041935,53.4458871 L13.7509677,52.9942742 C13.7509677,52.9942742 13.3074194,49.3329839 12.3477419,48.5991129 L12.4929032,48.5910484 C12.8558065,46.4539516 13.0735484,44.2039516 12.9364516,41.1958871 C12.4364516,29.9620161 18.863871,12.1716935 53.5896774,17.381371" id="Fill-5" fill="#264C6C"></path>
                        <path d="M32.0654839,131.002339 L32.0170968,130.752339 C32.13,130.73621 32.2509677,130.703952 32.363871,130.663629 C34.6622581,129.945887 39.4606452,127.905565 41.146129,127.155565 C41.396129,127.599113 41.6783871,128.034597 41.9848387,128.48621 C42.2832258,128.937823 42.5574194,129.413629 42.896129,129.905565 C43.2348387,130.389435 43.5977419,130.905565 43.9767742,131.453952 C44.3396774,132.026532 44.7106452,132.631371 45.113871,133.268468 C45.5090323,133.937823 45.9364516,134.671694 46.3558065,135.48621 C47.5654839,137.824919 48.7751613,140.824919 49.4041935,144.857177 C50.2348387,150.260403 49.896129,155.389435 48.4283871,159.865242 C46.9525806,164.349113 44.2832258,168.163629 40.146129,170.98621 C35.9929032,173.792661 32.1703226,174.316855 29.0896774,174.171694 C25.9848387,174.010403 23.5735484,173.131371 21.8316129,172.703952 C18.3719355,171.80879 18.3235484,170.550726 18.63,169.510403 C18.7832258,168.978145 19.2429032,169.010403 20.1703226,168.945887 C21.0896774,168.873306 22.5090323,168.712016 24.4848387,167.695887 C26.4606452,166.671694 28.0977419,165.115242 29.4122581,162.494274 C30.0735484,161.195887 30.6219355,159.615242 31.0251613,157.73621 C31.2348387,156.80879 31.363871,155.768468 31.4767742,154.703952 C31.5332258,153.599113 31.613871,152.462016 31.5170968,151.23621 C31.2348387,146.373306 30.6380645,143.655565 30.4283871,141.6475 C30.2106452,139.655565 30.2670968,138.300726 30.2106452,136.73621 C30.2267742,135.962016 30.2348387,135.260403 30.4445161,134.599113 C30.5896774,134.082984 30.7187097,133.607177 30.9041935,133.163629 C30.9525806,133.034597 31.0090323,132.913629 31.0735484,132.792661 C31.3558065,132.252339 31.5735484,131.800726 31.7509677,131.48621 C31.9122581,131.212016 32.0412903,131.042661 32.0654839,131.002339" id="Fill-7" fill="#264C6C"></path>
                        <path d="M39.4445161,115.260403 C39.5493548,116.341048 39.5493548,117.252339 39.5332258,117.889435 C39.5251613,118.203952 39.5090323,118.453952 39.4848387,118.639435 C39.4606452,118.816855 39.4525806,118.913629 39.4525806,118.913629 L39.4364516,119.05879 C37.5574194,118.8975 35.1380645,119.889435 32.0735484,122.332984 C31.7590323,122.574919 31.2912903,123.010403 30.7832258,123.550726 L30.6380645,123.413629 C29.5654839,122.792661 29.0009677,121.760403 28.4687097,120.599113 C28.2187097,120.002339 28.0332258,119.365242 27.8880645,118.695887 C27.7751613,118.050726 27.5735484,117.252339 27.4767742,116.542661 C27.0412903,113.663629 27.3477419,111.260403 27.3477419,111.260403 C27.5816129,109.292661 27.9203226,107.502339 28.1541935,105.978145 C28.396129,104.437823 28.5574194,103.381371 28.7429032,102.179758 L28.863871,102.05879 C31.4687097,104.73621 34.4364516,107.066855 37.646129,108.913629 L37.63,108.945887 C37.7670968,109.228145 37.9283871,109.550726 38.0574194,109.857177 C38.3316129,110.478145 38.5574194,111.107177 38.7509677,111.720081 C38.9445161,112.341048 39.0977419,112.945887 39.2187097,113.526532 C39.3235484,114.139435 39.396129,114.720081 39.4445161,115.260403" id="Fill-9" fill="#264C6C"></path>
                        <path d="M44.8719355,17.5749194 C42.1703226,18.0184677 39.4445161,18.8571774 36.7348387,20.1878226 C20.863871,28.0184677 21.63,39.8571774 19.4041935,49.663629 C18.8074194,52.3168548 18.363871,57.3571774 13.3558065,58.7039516 C13.13,58.7926613 12.9203226,58.9055645 12.7187097,59.0265323 C12.3074194,59.2765323 11.9364516,59.5829839 11.6219355,59.9378226 L11.4848387,59.8168548 C10.6380645,60.0104032 9.87193548,60.3087903 9.19451613,60.6716935 C9.19451613,60.6716935 9.18645161,60.6716935 9.1783871,60.6797581 C9.07354839,60.7362097 8.97677419,60.7845968 8.88,60.8491129 L7.84774194,60.6716935 C7.84774194,60.6716935 7.71870968,60.4539516 7.52516129,60.1071774 L7.84774194,59.9862097 C8.68645161,57.9620161 10.0816129,56.2604032 11.9606452,55.4297581 C12.9929032,54.9700806 13.7912903,54.2765323 14.4041935,53.4458871 C15.9767742,51.3249194 16.3719355,48.3249194 16.5332258,46.1878226 C17.1622581,37.6555645 17.0816129,17.5749194 44.8719355,17.5749194" id="Fill-11" fill="#264C6C"></path>
                        <path d="M36.7348387,59.3733065 L36.7348387,65.8249194 C36.7348387,67.381371 35.4687097,68.6475 33.9122581,68.6475 C33.1380645,68.6475 32.4283871,68.3329839 31.9203226,67.8168548 C31.4041935,67.3087903 31.0896774,66.5991129 31.0896774,65.8249194 L31.0896774,59.3733065 C31.0896774,57.8168548 32.3558065,56.5507258 33.9122581,56.5507258 C34.6864516,56.5507258 35.396129,56.8652419 35.9041935,57.381371 C36.4203226,57.8894355 36.7348387,58.5991129 36.7348387,59.3733065" id="Fill-13" fill="#00B5D6"></path>
                        <path d="M30.6380645,123.413629 L30.7832258,123.550726 C30.4525806,123.889435 30.113871,124.268468 29.7912903,124.671694 C29.6058065,124.905565 29.4122581,125.1475 29.2348387,125.389435 L29.1380645,125.30879 C29.1380645,125.30879 28.4767742,125.284597 27.4767742,125.212016 C26.9767742,125.171694 26.4041935,125.115242 25.7832258,125.050726 C25.4767742,125.010403 25.1622581,124.970081 24.8316129,124.929758 C24.4929032,124.889435 24.1380645,124.841048 23.7832258,124.800726 C23.0735484,124.695887 22.363871,124.55879 21.6864516,124.381371 L21.1864516,124.244274 C21.0090323,124.179758 20.7590323,124.034597 20.5493548,123.921694 C20.1219355,123.679758 19.6864516,123.421694 19.2670968,123.139435 C18.4364516,122.574919 17.6380645,121.921694 16.9364516,121.179758 C16.5816129,120.80879 16.2509677,120.421694 15.9445161,120.010403 C15.646129,119.599113 15.4041935,119.107177 15.1783871,118.631371 C14.3074194,116.687823 13.9525806,114.841048 13.9445161,113.195887 C13.9606452,112.663629 14.0090323,112.155565 14.0816129,111.671694 C14.2348387,110.582984 14.5170968,109.607177 14.8477419,108.768468 C15.8074194,106.324919 17.146129,104.945887 17.146129,104.945887 L17.1622581,104.945887 C17.2509677,105.857177 17.4445161,106.663629 17.7106452,107.349113 C18.1219355,108.494274 18.63,109.437823 19.2993548,110.091048 C19.9606452,110.744274 20.6945161,111.195887 21.4203226,111.48621 C22.8880645,112.066855 24.363871,112.018468 25.4687097,111.824919 C26.0170968,111.728145 26.4929032,111.574919 26.8235484,111.462016 C27.1541935,111.349113 27.3477419,111.260403 27.3477419,111.260403 C27.3477419,111.260403 27.0412903,113.663629 27.4767742,116.542661 C27.5735484,117.252339 27.7751613,118.050726 27.8880645,118.695887 C28.0332258,119.365242 28.2187097,120.002339 28.4687097,120.599113 C29.0009677,121.760403 29.5654839,122.792661 30.6380645,123.413629" id="Fill-15" fill="#264C6C"></path>
                        <path d="M28.863871,102.05879 L28.7429032,102.179758 C28.5574194,103.381371 28.396129,104.437823 28.1541935,105.978145 C27.9203226,107.502339 27.5816129,109.292661 27.3477419,111.260403 C27.3477419,111.260403 27.1541935,111.349113 26.8235484,111.462016 C26.4929032,111.574919 26.0170968,111.728145 25.4687097,111.824919 C24.363871,112.018468 22.8880645,112.066855 21.4203226,111.48621 C20.6945161,111.195887 19.9606452,110.744274 19.2993548,110.091048 C18.63,109.437823 18.1219355,108.494274 17.7106452,107.349113 C17.4445161,106.663629 17.2509677,105.857177 17.1622581,104.945887 C16.9364516,102.8975 17.1864516,100.332984 18.1783871,97.3652419 C18.1783871,97.3652419 19.4041935,94.7926613 20.7670968,91.9055645 L21.4848387,91.6797581 C23.38,95.4781452 25.8880645,98.9942742 28.863871,102.05879" id="Fill-17" fill="#264C6C"></path>
                        <path d="M21.4848387,91.6797581 L20.7670968,91.9055645 C19.4041935,94.7926613 18.1783871,97.3652419 18.1783871,97.3652419 C16.5977419,97.4942742 15.2751613,97.2523387 14.1864516,96.7200806 C13.1058065,96.1797581 12.1783871,95.3894355 11.646129,94.3571774 C11.0816129,93.3329839 10.7267742,92.1475 10.5493548,90.913629 C10.4445161,89.8249194 10.5332258,88.6878226 10.7187097,87.5991129 C10.7429032,87.4378226 10.7670968,87.2845968 10.7993548,87.1233065 C10.9929032,85.8975 11.7106452,84.4458871 12.5654839,83.0749194 C12.9606452,82.4458871 13.38,81.8329839 13.8154839,81.2523387 C13.8558065,81.1878226 13.896129,81.131371 13.9445161,81.0668548 C14.4767742,80.4297581 14.7267742,80.1394355 15.2590323,79.5910484 L15.3477419,79.4700806 C16.0654839,79.9942742 16.9283871,80.3168548 17.8316129,80.3733065 C17.9929032,81.1394355 18.1541935,81.913629 18.3154839,82.6958871 C18.9767742,85.7926613 20.0493548,88.8168548 21.4848387,91.6797581" id="Fill-19" fill="#264C6C"></path>
                        <path d="M14.1864516,96.7200806 C15.2751613,97.2523387 16.5977419,97.4942742 18.1783871,97.3652419 C17.1864516,100.332984 16.9364516,102.8975 17.1622581,104.945887 L17.146129,104.945887 C17.146129,104.945887 15.8074194,106.324919 14.8477419,108.768468 C14.5170968,109.607177 14.2348387,110.582984 14.0816129,111.671694 L13.8396774,111.631371 C12.7025806,111.099113 10.8477419,110.123306 9.01709677,108.413629 C8.15419355,107.526532 7.28322581,106.453952 6.50903226,105.228145 C6.13,104.599113 5.72677419,103.978145 5.45258065,103.23621 C5.17032258,102.510403 4.9283871,101.73621 4.73483871,100.937823 C4.47677419,99.8652419 4.36387097,98.8410484 4.35580645,97.8733065 C4.41225806,96.881371 4.5816129,95.9539516 4.82354839,95.0991129 C4.96870968,94.6071774 5.13,94.1475 5.30741935,93.7120161 C5.76709677,92.6071774 6.32354839,91.6716935 6.98483871,90.8652419 C7.89612903,89.7442742 8.8316129,88.9297581 9.53322581,88.3975 C10.2348387,87.8652419 10.7106452,87.5991129 10.7106452,87.5991129 L10.7187097,87.5991129 C10.5332258,88.6878226 10.4445161,89.8249194 10.5493548,90.913629 C10.7267742,92.1475 11.0816129,93.3329839 11.646129,94.3571774 C12.1783871,95.3894355 13.1058065,96.1797581 14.1864516,96.7200806" id="Fill-21" fill="#264C6C"></path>
                        <path d="M15.3477419,79.4700806 L15.2590323,79.5910484 C14.7267742,80.1394355 14.4767742,80.4297581 13.9445161,81.0668548 C13.896129,81.131371 13.8558065,81.1878226 13.8154839,81.2523387 L13.7670968,81.2200806 C12.3558065,81.0507258 11.3235484,80.5104032 10.5816129,79.7362097 C10.5735484,79.4942742 10.5654839,79.2281452 10.5493548,78.9458871 C10.4041935,75.8007258 10.1058065,70.6071774 11.2832258,67.5749194 L11.3316129,67.5587903 L11.3396774,67.5587903 L13.5090323,76.7200806 C13.7832258,77.8733065 14.4606452,78.8249194 15.3477419,79.4700806" id="Fill-23" fill="#264C6C"></path>
                        <path d="M13.7670968,81.2200806 L13.8154839,81.2523387 C13.38,81.8329839 12.9606452,82.4458871 12.5654839,83.0749194 C11.7106452,84.4458871 10.9929032,85.8975 10.7993548,87.1233065 C10.7670968,87.2845968 10.7429032,87.4378226 10.7187097,87.5991129 L10.7106452,87.5991129 C10.7106452,87.5991129 10.2348387,87.8652419 9.53322581,88.3975 C8.8316129,88.9297581 7.89612903,89.7442742 6.98483871,90.8652419 C6.32354839,91.6716935 5.76709677,92.6071774 5.30741935,93.7120161 L5.1783871,93.6555645 C4.75903226,93.2362097 4.1783871,92.6716935 3.62193548,91.9216935 C3.0816129,91.163629 2.50903226,90.2442742 1.96064516,89.163629 C1.68645161,88.6233065 1.42032258,88.0426613 1.17032258,87.4297581 C0.920322581,86.8168548 0.77516129,86.1555645 0.605806452,85.4700806 C0.315483871,84.0910484 0.0493548387,82.5749194 0.121935484,80.9942742 C0.186451613,79.9378226 0.38,78.9458871 0.670322581,78.0345968 L0.476774194,77.8491129 C1.72677419,76.5426613 3.54129032,74.9942742 3.54129032,74.9942742 C3.19451613,77.6071774 3.90419355,77.6958871 5.29935484,79.9781452 C6.79935484,82.4297581 9.56548387,82.9378226 10.5090323,81.5587903 C10.6219355,81.3975 10.6219355,80.7200806 10.5816129,79.7362097 C11.3235484,80.5104032 12.3558065,81.0507258 13.7670968,81.2200806" id="Fill-25" fill="#264C6C"></path>
                    </g>
                    <path d="M114.154194,170.703952 L114.154194,144.066855 C114.154194,138.260403 111.154194,132.978145 106.428387,129.937823 C105.29129,129.203952 104.049355,128.599113 102.726774,128.155565 L82.0493548,120.994274" id="Stroke-28" stroke="#264C6C" stroke-width="2" stroke-linecap="round" stroke-linejoin="round"></path>
                    <path d="M27.863871,170.703952 L27.863871,144.066855 C27.863871,138.260403 30.9122581,132.978145 35.6622581,129.937823 C36.8074194,129.203952 38.0493548,128.599113 39.3719355,128.155565 L44.8477419,126.252339" id="Stroke-30" stroke="#264C6C" stroke-width="2" stroke-linecap="round" stroke-linejoin="round"></path>
                    <path d="M46.7751613,133.494274 C42.8396774,132.550726 39.1380645,131.389435 35.7267742,130.034597" id="Stroke-32" stroke="#264C6C" stroke-width="2" stroke-linecap="round" stroke-linejoin="round"></path>
                    <path d="M106.283226,130.155565 C96.4929032,133.994274 84.3316129,136.268468 71.1622581,136.268468 C68.2187097,136.268468 65.3154839,136.155565 62.4848387,135.929758 L62.4445161,135.929758" id="Stroke-34" stroke="#264C6C" stroke-width="2" stroke-linecap="round" stroke-linejoin="round"></path>
                    <path d="M61.0009677,18.0184677 C58.2993548,18.4620161 55.5735484,19.3007258 52.863871,20.631371 C36.9929032,28.4620161 37.7590323,40.3007258 35.5332258,50.1071774 C34.9364516,52.7604032 34.4929032,57.8007258 29.4848387,59.1475" id="Stroke-36" stroke="#264C6C" stroke-width="2" stroke-linecap="round" stroke-linejoin="round"></path>
                    <path d="M93.9929032,28.0829839 C93.9929032,28.0829839 83.1541935,19.2765323 69.7187097,17.8249194 C66.9041935,17.5104032 63.9848387,17.5265323 61.0251613,18.0184677" id="Stroke-38" stroke="#264C6C" stroke-width="2" stroke-linecap="round" stroke-linejoin="round"></path>
                    <path d="M25.1783871,48.0749194 C20.5816129,21.0668548 42.113871,2.51040323 68.1945161,0.905564516 C94.5896774,-0.723467742 103.323548,18.2120161 103.323548,18.2120161 C103.323548,18.2120161 110.452581,17.3894355 117.331613,25.1797581 C126.726774,35.8249194 120.759032,50.4620161 114.807419,60.1233065 L112.613871,59.1475" id="Stroke-40" stroke="#264C6C" stroke-width="2" stroke-linecap="round" stroke-linejoin="round"></path>
                    <path d="M26.7106452,80.1797581 C27.4525806,80.9539516 28.4848387,81.4942742 29.896129,81.663629" id="Stroke-42" stroke="#264C6C" stroke-width="2" stroke-linecap="round" stroke-linejoin="round"></path>
                    <path d="M36.896129,92.3491129 C35.5332258,95.2362097 34.3074194,97.8087903 34.3074194,97.8087903 C32.7267742,97.9378226 31.4041935,97.6958871 30.3154839,97.163629 C29.2348387,96.6233065 28.3074194,95.8329839 27.7751613,94.8007258 C27.2106452,93.7765323 26.8558065,92.5910484 26.6783871,91.3571774 C26.5735484,90.2684677 26.6622581,89.131371 26.8477419,88.0426613 C26.8719355,87.881371 26.896129,87.7281452 26.9283871,87.5668548 C27.1219355,86.3410484 27.8396774,84.8894355 28.6945161,83.5184677 C29.0896774,82.8894355 29.5090323,82.2765323 29.9445161,81.6958871 C29.9848387,81.631371 30.0251613,81.5749194 30.0735484,81.5104032 C30.6058065,80.8733065 30.8558065,80.5829839 31.3880645,80.0345968" id="Stroke-44" stroke="#264C6C" stroke-width="2" stroke-linecap="round" stroke-linejoin="round"></path>
                    <path d="M16.7993548,78.4781452 C16.5090323,79.3894355 16.3154839,80.381371 16.2509677,81.4378226 C16.1783871,83.0184677 16.4445161,84.5345968 16.7348387,85.913629 C16.9041935,86.5991129 17.0493548,87.2604032 17.2993548,87.8733065 C17.5493548,88.4862097 17.8154839,89.0668548 18.0896774,89.6071774 C18.6380645,90.6878226 19.2106452,91.6071774 19.7509677,92.3652419 C20.3074194,93.1152419 20.8880645,93.6797581 21.3074194,94.0991129" id="Stroke-46" stroke="#264C6C" stroke-width="2" stroke-linecap="round" stroke-linejoin="round"></path>
                    <path d="M26.8396774,88.0426613 C26.8396774,88.0426613 26.363871,88.3087903 25.6622581,88.8410484 C24.9606452,89.3733065 24.0251613,90.1878226 23.113871,91.3087903 C22.4525806,92.1152419 21.896129,93.0507258 21.4364516,94.1555645 C21.2590323,94.5910484 21.0977419,95.0507258 20.9525806,95.5426613 C20.7106452,96.3975 20.5412903,97.3249194 20.4848387,98.3168548 C20.4929032,99.2845968 20.6058065,100.30879 20.863871,101.381371 C21.0574194,102.179758 21.2993548,102.953952 21.5816129,103.679758 C21.8558065,104.421694 22.2590323,105.042661 22.6380645,105.671694 C23.4122581,106.8975 24.2832258,107.970081 25.146129,108.857177 C26.9767742,110.566855 28.8316129,111.542661 29.9687097,112.074919" id="Stroke-48" stroke="#264C6C" stroke-width="2" stroke-linecap="round" stroke-linejoin="round"></path>
                    <path d="M44.8719355,102.623306 C44.6864516,103.824919 44.5251613,104.881371 44.2832258,106.421694 C44.0493548,107.945887 43.7106452,109.73621 43.4767742,111.703952 C43.4767742,111.703952 43.2832258,111.792661 42.9525806,111.905565 C42.6219355,112.018468 42.146129,112.171694 41.5977419,112.268468 C40.4929032,112.462016 39.0170968,112.510403 37.5493548,111.929758 C36.8235484,111.639435 36.0896774,111.187823 35.4283871,110.534597 C34.7590323,109.881371 34.2509677,108.937823 33.8396774,107.792661 C33.5735484,107.107177 33.38,106.300726 33.2912903,105.389435 C33.0654839,103.341048 33.3154839,100.776532 34.3074194,97.8087903" id="Stroke-50" stroke="#264C6C" stroke-width="2" stroke-linecap="round" stroke-linejoin="round"></path>
                    <path d="M33.2751613,105.389435 C33.2751613,105.389435 31.9364516,106.768468 30.9767742,109.212016 C30.646129,110.050726 30.363871,111.026532 30.2106452,112.115242 C30.1380645,112.599113 30.0896774,113.107177 30.0735484,113.639435 C30.0816129,115.284597 30.4364516,117.131371 31.3074194,119.074919 C31.5332258,119.550726 31.7751613,120.042661 32.0735484,120.453952 C32.38,120.865242 32.7106452,121.252339 33.0654839,121.623306 C33.7670968,122.365242 34.5654839,123.018468 35.396129,123.582984 C35.8154839,123.865242 36.2509677,124.123306 36.6783871,124.365242 C36.8880645,124.478145 37.1380645,124.623306 37.3154839,124.687823 L37.8154839,124.824919 C38.4929032,125.002339 39.2025806,125.139435 39.9122581,125.244274 C40.2670968,125.284597 40.6219355,125.332984 40.9606452,125.373306 C41.2912903,125.413629 41.6058065,125.453952 41.9122581,125.494274 C42.5332258,125.55879 43.1058065,125.615242 43.6058065,125.655565 C44.6058065,125.728145 45.2670968,125.752339 45.2670968,125.752339" id="Stroke-52" stroke="#264C6C" stroke-width="2" stroke-linecap="round" stroke-linejoin="round"></path>
                    <path d="M43.4767742,111.703952 C43.4767742,111.703952 43.1703226,114.107177 43.6058065,116.98621 C43.7025806,117.695887 43.9041935,118.494274 44.0170968,119.139435 C44.1622581,119.80879 44.3477419,120.445887 44.5977419,121.042661 C45.13,122.203952 45.6945161,123.23621 46.7670968,123.857177" id="Stroke-54" stroke="#264C6C" stroke-width="2" stroke-linecap="round" stroke-linejoin="round"></path>
                    <path d="M53.7590323,109.389435 C53.896129,109.671694 54.0574194,109.994274 54.1864516,110.300726 C54.4606452,110.921694 54.6864516,111.550726 54.88,112.163629 C55.0735484,112.784597 55.2267742,113.389435 55.3477419,113.970081 C55.4525806,114.582984 55.5251613,115.163629 55.5735484,115.703952 C55.6783871,116.784597 55.6783871,117.695887 55.6622581,118.332984 C55.6541935,118.6475 55.6380645,118.8975 55.613871,119.082984 C55.5896774,119.260403 55.5816129,119.357177 55.5816129,119.357177" id="Stroke-56" stroke="#264C6C" stroke-width="2" stroke-linecap="round" stroke-linejoin="round"></path>
                    <path d="M55.5654839,119.502339 C53.6864516,119.341048 51.2670968,120.332984 48.2025806,122.776532 C47.8880645,123.018468 47.4203226,123.453952 46.9122581,123.994274 C46.5816129,124.332984 46.2429032,124.712016 45.9203226,125.115242 C45.7348387,125.349113 45.5412903,125.591048 45.363871,125.832984 C45.2348387,126.002339 45.113871,126.179758 45.0009677,126.349113 C44.5654839,127.002339 44.2267742,127.6475 44.1541935,128.203952 C44.0816129,128.655565 44.2106452,129.107177 44.4122581,129.518468 C44.5816129,129.929758 44.8880645,130.300726 45.2912903,130.599113 C45.4929032,130.744274 45.7267742,130.873306 45.9767742,130.978145 C46.2106452,131.082984 46.4445161,131.163629 46.7106452,131.220081 C47.146129,131.30879 47.63,131.316855 48.146129,131.195887 C48.2590323,131.179758 48.38,131.1475 48.4929032,131.107177 C50.7912903,130.389435 55.5896774,128.349113 57.2751613,127.599113 C57.4687097,127.510403 57.6219355,127.445887 57.7267742,127.3975 C58.2348387,127.171694 59.113871,126.760403 59.7025806,125.978145 C59.9929032,125.599113 60.2267742,125.107177 60.2590323,124.526532 C60.2751613,124.228145 60.2348387,123.889435 60.1380645,123.526532 C60.0574194,123.212016 59.9283871,122.873306 59.7429032,122.518468 C59.5412903,122.131371 59.3154839,121.752339 59.0574194,121.405565 C58.7912903,121.05879 58.4687097,120.776532 58.13,120.510403 C57.4445161,119.98621 56.63,119.615242 55.6945161,119.510403 C55.6541935,119.510403 55.6058065,119.502339 55.5654839,119.502339 Z" id="Stroke-58" stroke="#264C6C" stroke-width="2" stroke-linecap="round" stroke-linejoin="round"></path>
                    <path d="M48.2025806,131.437823 L48.1945161,131.445887 C48.1703226,131.48621 48.0412903,131.655565 47.88,131.929758 C47.7025806,132.244274 47.4848387,132.695887 47.2025806,133.23621 C47.1380645,133.357177 47.0816129,133.478145 47.0332258,133.607177 C46.8477419,134.050726 46.7187097,134.526532 46.5735484,135.042661 C46.363871,135.703952 46.3558065,136.405565 46.3396774,137.179758 C46.396129,138.744274 46.3396774,140.099113 46.5574194,142.091048 C46.7670968,144.099113 47.363871,146.816855 47.646129,151.679758 C47.7429032,152.905565 47.6622581,154.042661 47.6058065,155.1475 C47.4929032,156.212016 47.363871,157.252339 47.1541935,158.179758 C46.7509677,160.05879 46.2025806,161.639435 45.5412903,162.937823 C44.2267742,165.55879 42.5896774,167.115242 40.613871,168.139435 C38.6380645,169.155565 37.2187097,169.316855 36.2993548,169.389435 C35.3719355,169.453952 34.9122581,169.421694 34.7590323,169.953952 C34.4525806,170.994274 34.5009677,172.252339 37.9606452,173.1475 C39.7025806,173.574919 42.113871,174.453952 45.2187097,174.615242 C48.2993548,174.760403 52.1219355,174.23621 56.2751613,171.429758 C60.4122581,168.607177 63.0816129,164.792661 64.5574194,160.30879 C66.0251613,155.832984 66.363871,150.703952 65.5332258,145.300726 C64.9041935,141.268468 63.6945161,138.268468 62.4848387,135.929758 C62.0654839,135.115242 61.6380645,134.381371 61.2429032,133.712016 C60.8396774,133.074919 60.4687097,132.470081 60.1058065,131.8975 C59.7267742,131.349113 59.363871,130.832984 59.0251613,130.349113 C58.6864516,129.857177 58.4122581,129.381371 58.113871,128.929758 C57.8074194,128.478145 57.5251613,128.042661 57.2751613,127.599113" id="Stroke-60" stroke="#264C6C" stroke-width="2" stroke-linecap="round" stroke-linejoin="round"></path>
                    <path d="M83,47 C87.3308799,43.0028928 93.6741385,42.9971083 98,47" id="Stroke-62" stroke="#264C6C" stroke-width="4" stroke-linecap="round" stroke-linejoin="round"></path>
                    <path d="M43,47 C47.3258615,43.0028928 53.6691201,42.9971083 58,47" id="Stroke-64" stroke="#264C6C" stroke-width="4" stroke-linecap="round" stroke-linejoin="round"></path>
                    <path d="M112.492903,58.4700806 C113.412258,52.413629 113.936452,43.7442742 110.767097,38.381371 C107.484839,32.8249194 102.315484,29.1555645 93.9929032,28.0829839" id="Stroke-66" stroke="#264C6C" stroke-width="2" stroke-linecap="round" stroke-linejoin="round"></path>
                    <path d="M29.5735484,59.5829839 C31.1058065,66.9862097 32.4687097,73.5749194 33.9606452,80.8168548 C34.1219355,81.5829839 34.2832258,82.3571774 34.4445161,83.1394355 C35.1058065,86.2362097 36.1783871,89.2604032 37.613871,92.1233065 C39.5090323,95.9216935 42.0170968,99.4378226 44.9929032,102.502339 C47.5977419,105.179758 50.5654839,107.510403 53.7751613,109.357177 C55.863871,110.55879 58.0574194,111.55879 60.3316129,112.316855 C63.6380645,113.429758 67.1058065,114.042661 70.6622581,114.05879 L71.0332258,114.05879 C74.6783871,114.050726 78.2509677,113.405565 81.6380645,112.23621 C90.2025806,109.292661 97.63,103.010403 102.371935,95.2120161 C105.662258,89.8087903 107.065484,85.5587903 108.089677,80.8087903 C109.017097,76.4942742 109.646129,71.7523387 111.097742,65.3652419 C111.097742,65.3652419 111.799355,62.7926613 112.396129,59.1152419 C112.428387,58.9055645 112.460645,58.6958871 112.492903,58.4781452" id="Stroke-68" stroke="#264C6C" stroke-width="2" stroke-linecap="round" stroke-linejoin="round"></path>
                    <path d="M75.44261,79.4306236 C74.2182844,78.4336229 72.6838188,77.7915483 71.0090323,77.7915483 C69.2988696,77.7915483 67.7350184,78.4610342 66.4982877,79.4942742" id="Stroke-70" stroke="#264C6C" stroke-width="2" stroke-linecap="round" stroke-linejoin="round" transform="translate(70.970449, 78.642911) scale(1, -1) translate(-70.970449, -78.642911) "></path>
                    <path d="M81.2348387,92.2604032 C79.8477419,92.2604032 75.896129,90.6152419 74.0412903,90.6152419 C72.0412903,90.6152419 71.4122581,92.2765323 71.4122581,92.2765323 C71.4122581,92.2765323 70.5977419,90.6152419 68.5977419,90.6152419 C66.7025806,90.6152419 62.5332258,92.3329839 61.2187097,92.2523387 C61.146129,92.2523387 61.0816129,92.2442742 61.0251613,92.2281452 C61.0251613,92.2281452 62.3880645,94.9781452 63.5977419,96.2200806 C64.8074194,97.4539516 66.5735484,100.05879 71.4122581,100.260403 C75.7670968,100.05879 77.88,97.4539516 79.0896774,96.2200806 C80.2993548,94.9781452 81.5170968,92.2281452 81.5170968,92.2281452 C81.4445161,92.2523387 81.3477419,92.2604032 81.2348387,92.2604032 Z" id="Stroke-72" stroke="#00B5D6" stroke-width="2" stroke-linecap="round" stroke-linejoin="round"></path>
                    <path d="M61.2187097,92.2684677 C66.4445161,95.5668548 71.0412903,95.7039516 71.0412903,95.7039516 L71.4041935,95.7039516 C71.4041935,95.7039516 76.0090323,95.6394355 81.2348387,92.3491129" id="Stroke-74" stroke="#00B5D6" stroke-width="2" stroke-linecap="round" stroke-linejoin="round"></path>
                    <polyline id="Stroke-76" stroke="#264C6C" stroke-width="2" stroke-linecap="round" stroke-linejoin="round" points="60.1380645 124.73621 60.1380645 123.526532 60.1380645 112.881371"></polyline>
                    <polyline id="Stroke-78" stroke="#264C6C" stroke-width="2" stroke-linecap="round" stroke-linejoin="round" points="81.8719355 112.881371 81.8719355 120.994274 81.8719355 124.73621"></polyline>
                    <path d="M23.9767742,60.4297581 C24.8154839,58.4055645 26.2106452,56.7039516 28.0896774,55.8733065 C29.1219355,55.413629 29.9203226,54.7200806 30.5332258,53.8894355 C32.1058065,51.7684677 32.5009677,48.7684677 32.6622581,46.631371 C33.2912903,38.0991129 33.2106452,18.0184677 61.0009677,18.0184677 L61.0251613,18.0184677" id="Stroke-80" stroke="#264C6C" stroke-width="2" stroke-linecap="round" stroke-linejoin="round"></path>
                    <path d="M28.6219355,49.0345968 C28.9848387,46.8975 29.2025806,44.6475 29.0654839,41.6394355 C28.5654839,30.4055645 34.9929032,12.6152419 69.7187097,17.8249194 C70.7187097,17.9700806 71.7429032,18.1394355 72.7912903,18.3249194" id="Stroke-82" stroke="#264C6C" stroke-width="2" stroke-linecap="round" stroke-linejoin="round"></path>
                    <path d="M112.492903,58.4781452 L112.492903,58.4700806 C116.404194,49.5829839 116.71871,43.1394355 116.396129,38.6152419" id="Stroke-84" stroke="#264C6C" stroke-width="2" stroke-linecap="round" stroke-linejoin="round"></path>
                    <path d="M19.6703226,75.4378226 C19.3235484,78.0507258 20.0332258,78.1394355 21.4283871,80.4216935 C22.9283871,82.8733065 25.6945161,83.381371 26.6380645,82.0023387 C26.7509677,81.8410484 26.7509677,81.163629 26.7106452,80.1797581 C26.7025806,79.9378226 26.6945161,79.6716935 26.6783871,79.3894355 C26.5332258,76.2442742 26.2348387,71.0507258 27.4122581,68.0184677" id="Stroke-86" stroke="#00B5D6" stroke-width="2" stroke-linecap="round" stroke-linejoin="round"></path>
                    <path d="M23.613871,62.2926613 C21.5170968,64.1071774 20.613871,66.4700806 20.7187097,67.2281452 C20.8719355,68.413629 20.3235484,71.5749194 19.7670968,74.8168548 C19.7348387,75.0345968 19.7025806,75.2362097 19.6703226,75.4297581" id="Stroke-88" stroke="#00B5D6" stroke-width="2" stroke-linecap="round" stroke-linejoin="round"></path>
                    <path d="M25.3074194,61.1233065 C25.2025806,61.1797581 25.1058065,61.2281452 25.0090323,61.2926613 C24.6058065,61.5265323 24.2267742,61.7845968 23.88,62.0668548 C23.7912903,62.131371 23.7106452,62.2039516 23.6219355,62.2845968" id="Stroke-90" stroke="#00B5D6" stroke-width="2" stroke-linecap="round" stroke-linejoin="round"></path>
                    <path d="M27.613871,60.2604032 C26.7670968,60.4539516 26.0009677,60.7523387 25.3235484,61.1152419" id="Stroke-92" stroke="#00B5D6" stroke-width="2" stroke-linecap="round" stroke-linejoin="round"></path>
                    <path d="M26.5654839,79.3975 C26.5654839,79.3975 25.1380645,76.7120161 25.3235484,75.4458871 C25.5090323,74.1797581 25.5332258,72.4458871 24.4283871,67.5426613 C23.5412903,63.6071774 24.6622581,61.8410484 25.13,61.3087903 C25.2187097,61.2039516 25.2832258,61.1475 25.3074194,61.1233065 C25.3154839,61.1152419 25.3235484,61.1152419 25.3235484,61.1152419" id="Stroke-94" stroke="#00B5D6" stroke-width="2" stroke-linecap="round" stroke-linejoin="round"></path>
                    <path d="M19.6703226,75.4297581 L19.6703226,75.4378226 C19.6703226,75.4378226 17.8558065,76.9862097 16.6058065,78.2926613 C16.2106452,78.7039516 15.863871,79.0910484 15.6622581,79.3975 C14.7912903,80.663629 11.5493548,82.0023387 9.73483871,80.7362097 C7.92032258,79.4781452 7.36387097,71.3410484 11.3154839,68.0184677" id="Stroke-96" stroke="#00B5D6" stroke-width="2" stroke-linecap="round" stroke-linejoin="round"></path>
                    <path d="M23.6380645,62.2765323 C23.6380645,62.2765323 23.63,62.2765323 23.6219355,62.2845968 C23.613871,62.2845968 23.613871,62.2926613 23.613871,62.2926613 C23.1622581,62.5023387 16.7025806,65.5265323 14.8719355,66.5184677 C14.0090323,66.9862097 12.7106452,67.5991129 11.3154839,68.0184677 C9.65419355,68.5023387 7.83967742,68.7039516 6.42032258,68.0184677 C3.80741935,66.7523387 -0.297419355,62.413629 0.0170967742,58.9378226 C0.0170967742,58.9378226 3.01709677,56.7200806 3.65419355,55.0668548 C4.28322581,53.4055645 7.06548387,51.3491129 10.0654839,51.3491129" id="Stroke-98" stroke="#00B5D6" stroke-width="2" stroke-linecap="round" stroke-linejoin="round"></path>
                    <path d="M23.6380645,61.6233065 C23.6380645,61.6233065 19.4525806,60.8329839 18.1864516,59.4862097 C16.9203226,58.1475 15.3558065,57.3571774 14.0090323,56.6475 C12.9122581,56.0668548 10.5412903,54.7684677 10.1380645,51.3410484 C10.0332258,50.5265323 10.0412903,49.5910484 10.2106452,48.5104032 C11.0816129,42.8975 11.8154839,42.8168548 11.8154839,42.8168548 C11.8154839,42.8168548 16.7670968,41.7120161 20.1622581,44.0829839 C23.5574194,46.4539516 24.5090323,48.0345968 24.5090323,48.0345968" id="Stroke-100" stroke="#00B5D6" stroke-width="2" stroke-linecap="round" stroke-linejoin="round"></path>
                    <path d="M23.9767742,61.1152419 C23.9767742,61.1152419 23.8477419,60.8975 23.6541935,60.5507258 C23.0654839,59.5104032 21.8154839,57.2765323 21.3477419,56.0910484 C20.7187097,54.5104032 20.1864516,50.4055645 22.6622581,48.9781452 C23.3154839,48.5991129 23.9525806,48.3894355 24.5493548,48.2845968 C24.7670968,48.2442742 24.9767742,48.2200806 25.1783871,48.2120161 C26.5735484,48.1394355 27.7187097,48.6233065 28.38,48.9781452 C28.4122581,48.9942742 28.4445161,49.0184677 28.4767742,49.0426613 C29.4364516,49.7765323 29.88,53.4378226 29.88,53.4378226" id="Stroke-102" stroke="#00B5D6" stroke-width="2" stroke-linecap="round" stroke-linejoin="round"></path>
                    <path d="M29.4848387,59.1475 C29.2590323,59.2362097 29.0493548,59.3491129 28.8477419,59.4700806 C28.4364516,59.7200806 28.0654839,60.0265323 27.7509677,60.381371 C26.7509677,61.5023387 26.2993548,63.0749194 26.6703226,64.6555645 L27.4606452,68.0023387 L27.4687097,68.0023387 L29.6380645,77.163629 C29.9122581,78.3168548 30.5896774,79.2684677 31.4767742,79.913629 C32.1945161,80.4378226 33.0574194,80.7604032 33.9606452,80.8168548 L33.9687097,80.8168548" id="Stroke-104" stroke="#264C6C" stroke-width="2" stroke-linecap="round" stroke-linejoin="round"></path>
                    <path d="M112.613871,59.1475 C114.742903,60.0265323 115.976774,62.3410484 115.428387,64.6555645 L112.460645,77.163629 C111.960645,79.2523387 110.162258,80.6878226 108.13,80.8168548" id="Stroke-106" stroke="#264C6C" stroke-width="2" stroke-linecap="round" stroke-linejoin="round"></path>
                </g>
            </g>
        </g>
    </g>
</svg>