<?xml version="1.0" encoding="UTF-8" standalone="no"?>
<svg width="168px" height="174px" viewBox="0 0 168 174" version="1.1" xmlns="http://www.w3.org/2000/svg" xmlns:xlink="http://www.w3.org/1999/xlink">
    <!-- Generator: Sketch 3.8.3 (29802) - http://www.bohemiancoding.com/sketch -->
    <title>Group 28</title>
    <desc>Created with Sketch.</desc>
    <defs></defs>
    <g id="Page-1" stroke="none" stroke-width="1" fill="none" fill-rule="evenodd">
        <g id="colored-icons-and-chars" transform="translate(-846.000000, -1249.000000)">
            <g id="Group-28" transform="translate(847.000000, 1249.000000)">
                <g id="Group-54" transform="translate(26.000000, 0.000000)">
                    <path d="M129.9622,172.86 L115.9032,121.657 C112.2132,98.23 92.0252,80.972 68.3102,80.972 L61.6522,80.972 C37.9372,80.972 17.7482,98.23 14.0592,121.657 L0.000199999999,172.86" id="Stroke-140" stroke="#264C6C" stroke-width="2" stroke-linecap="round" stroke-linejoin="round"></path>
                    <path d="M64.9811,129.9322 L64.9811,152.7772" id="Stroke-141" stroke="#264C6C" stroke-width="2" stroke-linecap="round" stroke-linejoin="round"></path>
                    <path d="M77.0432,0.7021 L52.9192,0.7021 C36.2942,0.7021 22.8172,14.1791 22.8172,30.8041 L22.8172,46.6741 C22.8172,63.2991 36.2942,76.7761 52.9192,76.7761 L77.0432,76.7761 C93.6682,76.7761 107.1452,63.2991 107.1452,46.6741 L107.1452,30.8041 C107.1452,14.1791 93.6682,0.7021 77.0432,0.7021" id="Fill-142" fill="#264C6C"></path>
                    <path d="M55.3293,8.3022 C42.0263,8.3022 31.2413,19.0862 31.2413,32.3902" id="Stroke-143" stroke="#FFFFFF" stroke-width="2" stroke-linecap="round" stroke-linejoin="round"></path>
                    <path d="M23.8396,40.7334 L9.8946,97.6674 C22.5636,113.0774 43.7486,122.3314 64.9806,122.3314 C86.2126,122.3314 107.3976,113.0774 120.0676,97.6674 L106.1226,40.7334 L23.8396,40.7334 Z" id="Fill-144" fill="#264C6C"></path>
                    <path d="M23.8396,40.7334 L9.8946,97.6674 C22.5636,113.0774 43.7486,122.3314 64.9806,122.3314 C86.2126,122.3314 107.3976,113.0774 120.0676,97.6674 L106.1226,40.7334 L23.8396,40.7334 L23.8396,40.7334 Z" id="Stroke-145" stroke="#264C6C" stroke-width="2" stroke-linecap="round" stroke-linejoin="round"></path>
                    <path d="M18.6879,94.2216 C20.8439,85.0746 22.9989,75.9266 25.1549,66.7796 C27.2749,57.7826 27.8009,44.7696 35.7539,38.6846 C44.4289,32.0476 56.7119,35.1236 62.6649,44.2456 C64.9329,47.7216 67.2979,44.2456 67.2979,44.2456 C72.6359,34.7506 85.5329,32.0476 94.2079,38.6846 C102.1619,44.7696 102.6879,57.7826 104.8079,66.7796 C106.9629,75.9266 109.1189,85.0746 111.2739,94.2216" id="Stroke-146" stroke="#FFFFFF" stroke-width="2" stroke-linecap="round" stroke-linejoin="round"></path>
                    <path d="M64.9811,60.8098 L64.9811,60.8098 C62.2871,60.8098 59.4891,68.4098 59.4891,68.4098 C59.2401,69.5158 60.0811,70.5668 61.2141,70.5668 L68.7481,70.5668 C69.8811,70.5668 70.7221,69.5158 70.4731,68.4098 C70.4731,68.4098 67.6751,60.8098 64.9811,60.8098" id="Fill-147" fill="#FFFFFF"></path>
                    <path d="M85.9347,44.6952 L82.8207,44.0682 C78.2977,43.1582 74.0747,46.6162 74.0747,51.2292 L74.0747,54.3822 C74.0747,55.7882 75.2147,56.9282 76.6207,56.9282 L91.3217,56.9282 C92.7277,56.9282 93.8667,55.7882 93.8667,54.3822 L93.8667,54.3822 C93.8667,49.6762 90.5487,45.6232 85.9347,44.6952" id="Fill-148" fill="#FFFFFF"></path>
                    <path d="M44.0277,44.6952 L47.1417,44.0682 C51.6647,43.1582 55.8877,46.6162 55.8877,51.2292 L55.8877,54.3822 C55.8877,55.7882 54.7477,56.9282 53.3417,56.9282 L38.6407,56.9282 C37.2347,56.9282 36.0957,55.7882 36.0957,54.3822 L36.0957,54.3822 C36.0957,49.6762 39.4137,45.6232 44.0277,44.6952" id="Fill-149" fill="#FFFFFF"></path>
                    <path d="M91.0449,106.3858 C91.0449,104.1018 89.1939,102.2508 86.9099,102.2508 C84.6259,102.2508 82.7749,104.1018 82.7749,106.3858 C82.7749,108.6698 84.6259,110.5208 86.9099,110.5208 C89.1939,110.5208 91.0449,108.6698 91.0449,106.3858" id="Fill-150" fill="#FFFFFF"></path>
                    <path d="M47.1875,106.3858 C47.1875,104.1018 45.3365,102.2508 43.0525,102.2508 C40.7685,102.2508 38.9175,104.1018 38.9175,106.3858 C38.9175,108.6698 40.7685,110.5208 43.0525,110.5208 C45.3365,110.5208 47.1875,108.6698 47.1875,106.3858" id="Fill-151" fill="#FFFFFF"></path>
                    <path d="M52.5887,96.1014 L52.5887,107.8704" id="Stroke-152" stroke="#FFFFFF" stroke-width="2" stroke-linecap="round" stroke-linejoin="round"></path>
                    <path d="M58.7894,86.5856 L58.7894,107.8706" id="Stroke-153" stroke="#FFFFFF" stroke-width="2" stroke-linecap="round" stroke-linejoin="round"></path>
                    <path d="M64.9901,79.603 L64.9901,107.871" id="Stroke-154" stroke="#FFFFFF" stroke-width="2" stroke-linecap="round" stroke-linejoin="round"></path>
                    <path d="M71.1908,86.5856 L71.1908,107.8706" id="Stroke-155" stroke="#FFFFFF" stroke-width="2" stroke-linecap="round" stroke-linejoin="round"></path>
                    <path d="M77.3915,96.1014 L77.3915,107.8704" id="Stroke-156" stroke="#FFFFFF" stroke-width="2" stroke-linecap="round" stroke-linejoin="round"></path>
                </g>
                <path d="M0,103 L9,103" id="Stroke-13" stroke="#264C6D" stroke-width="2" stroke-linecap="round" stroke-linejoin="round"></path>
                <polygon id="Stroke-51" stroke="#00B4D5" stroke-width="2" stroke-linecap="round" stroke-linejoin="round" points="161 2 156 7 161 12 166 7"></polygon>
                <polygon id="Stroke-79" stroke="#264C6D" stroke-width="2" stroke-linecap="round" stroke-linejoin="round" points="18 42.1332917 26 40 23.8667083 48 21.7340417 45.3341667"></polygon>
            </g>
        </g>
    </g>
</svg>