<?xml version="1.0" encoding="utf-8"?>
<!-- Generator: Adobe Illustrator 16.0.0, SVG Export Plug-In . SVG Version: 6.00 Build 0)  -->
<!DOCTYPE svg PUBLIC "-//W3C//DTD SVG 1.1//EN" "http://www.w3.org/Graphics/SVG/1.1/DTD/svg11.dtd">
<svg version="1.1" id="Layer_1" xmlns="http://www.w3.org/2000/svg" xmlns:xlink="http://www.w3.org/1999/xlink" x="0px" y="0px"
	 width="28px" height="18px" viewBox="0 0 28 18" enable-background="new 0 0 28 18" xml:space="preserve">
<g>
	<rect fill="#454B80" width="28" height="18"/>
	<g>
		<polygon fill="#FFFFFF" points="28,1.787 28,0 24.319,0 0,16.216 0,18 3.619,18 		"/>
		<polyline fill="#8A0C00" points="15.088,8.416 27.727,0 25.801,0 14.349,7.638 		"/>
		<polyline fill="#8A0C00" points="13.765,8.888 0.103,18 1.985,18 14.152,9.895 		"/>
	</g>
	<polygon fill="#FFFFFF" points="3.603,0 0,0 0,1.813 24.424,18 28,18 28,16.186 	"/>
	<polyline fill="#8A0C00" points="12.639,7.935 0.678,0 0,0 0,0.827 12.168,8.892 	"/>
	<polyline fill="#8A0C00" points="13.574,8.963 27.217,18 28,18 28,17.272 14.392,8.243 	"/>
	<polygon fill="#FFFFFF" points="28,6.49 16.569,6.49 16.569,0 11.43,0 11.43,6.49 0,6.49 0,11.51 11.43,11.51 11.43,18 16.569,18 
		16.569,11.51 28,11.51 	"/>
	<polygon fill="#8A0C00" points="28,7.355 15.683,7.355 15.683,0 12.315,0 12.315,7.355 0,7.355 0,10.645 12.315,10.645 12.315,18 
		15.683,18 15.683,10.645 28,10.645 	"/>
</g>
</svg>
