<svg xmlns="http://www.w3.org/2000/svg" width="35" height="73" viewBox="0 0 35 73">
  <g fill="none" fill-rule="evenodd">
    <path fill="#00B4D5" d="M13,19 L22,19 L22,18 L13,18 L13,19 Z M11,21 L24,21 L24,16 L11,16 L11,21 Z"/>
    <path fill="#00B4D5" d="M15.0440574,16 L19.9564402,16 L18.3765359,11.8618947 L20.1569761,9.94235407 L24,11.6453971 L24,6.35567464 L20.1569761,8.0587177 L18.3765359,6.13917703 L19.9569378,2 L15.0440574,2 L16.6244593,6.13917703 L14.8440191,8.0587177 L11,6.35567464 L11,11.6453971 L14.8440191,9.94235407 L16.6244593,11.8624306 L15.0440574,16 Z M23.1401281,18 L11.8603559,18 L13.8592171,12.8554591 L9,14.9719004 L9,3.02912456 L13.8592171,5.14556584 L11.8603559,0 L23.1396441,0 L21.1417509,5.14556584 L26,3.02912456 L26,14.9719004 L21.1417509,12.8554591 L23.1401281,18 Z"/>
    <path fill="#374D6B" d="M7 60L28 60C24.445421 53.0665882 22.5048908 44.8317739 22.3515736 36L12.6494188 36C12.4961015 44.8307647 10.5560675 53.0650743 7 60L7 60zM32 62L3 62 3.98292315 60.3277523C8.14163737 53.2506497 10.3400301 44.531992 10.3400301 35.1138417L10.3400301 34 24.6614766 34 24.6614766 35.1138417C24.6614766 44.5334771 26.8593672 53.2521349 31.0175791 60.3277523L32 62zM12.0615048 30L22.9774767 30 27.1538462 21 7.88461538 21 12.0615048 30zM24.2002339 32L10.8007572 32 5 19 30 19 24.2002339 32z"/>
    <path fill="#374D6B" d="M4.05110274,62 C2.9201917,62 2,63.1204879 2,64.499076 C2,65.8782802 2.9201917,67 4.05110274,67 L30.9483919,67 C32.0798083,67 33,65.8782802 33,64.499076 C33,63.1204879 32.0798083,62 30.9483919,62 L4.05110274,62 Z M30.7411119,69 L4.25839055,69 C1.91052923,69 0,66.9809546 0,64.4992113 C0,62.0185196 1.91052923,60 4.25839055,60 L30.7411119,60 C33.0894708,60 35,62.0185196 35,64.4992113 C35,66.9809546 33.0894708,69 30.7411119,69 L30.7411119,69 Z"/>
    <path fill="#374D6B" d="M6,71 L28,71 L28,69 L6,69 L6,71 Z M4,73 L30,73 L30,67 L4,67 L4,73 Z"/>
    <path fill="#00B4D5" d="M9.60044717,32 C9.26914826,32 9,32.4486301 9,33 C9,33.5513699 9.26914826,34 9.60044717,34 L25.402121,34 C25.7313654,34 26,33.5513699 26,33 C26,32.4486301 25.7313654,32 25.402121,32 L9.60044717,32 Z M25.1745255,36 L9.82796874,36 C8.26857021,36 7,34.6540226 7,33 C7,31.3459774 8.26857021,30 9.82796874,30 L25.1745255,30 C26.7324275,30 28,31.3459774 28,33 C28,34.6540226 26.7324275,36 25.1745255,36 L25.1745255,36 Z"/>
  </g>
</svg>
