<?xml version="1.0" encoding="UTF-8" standalone="no"?>
<svg width="60px" height="63px" viewBox="0 0 60 63" version="1.1" xmlns="http://www.w3.org/2000/svg" xmlns:xlink="http://www.w3.org/1999/xlink">
    <!-- Generator: Sketch 3.8.3 (29802) - http://www.bohemiancoding.com/sketch -->
    <title>Group 2</title>
    <desc>Created with Sketch.</desc>
    <defs></defs>
    <g id="Page-1" stroke="none" stroke-width="1" fill="none" fill-rule="evenodd">
        <g id="colored-icons-2" transform="translate(-168.000000, -387.000000)">
            <g id="Group-2" transform="translate(168.000000, 387.000000)">
                <polygon id="Fill-69" fill="#374D6B" points="16 63 43 63 43 61 16 61"></polygon>
                <path d="M60,48 L0,48 L0,10 C0,9.30177184 0.329874477,8.5136165 1,8 C1.51832636,7.32839806 2.31564854,7 3,7 L11,7 L11,9 L3,9 C2.9241841,9.23907767 2.69824268,9.33112864 3,9 C2.35430962,9.67395631 2.25941423,9.89985437 2,10 L2,46 L58,46 L58,10 C57.7405858,9.89985437 57.6461925,9.67345874 57,10 C57.3027615,9.33112864 57.076318,9.23907767 57,9 L49,9 L49,7 L57,7 C57.6843515,7 58.4816736,7.32839806 59,8 C59.6706276,8.51411408 60,9.30226942 60,10 L60,48 Z" id="Fill-70" fill="#374D6B"></path>
                <polygon id="Fill-73" fill="#374D6B" points="55 43 4 43 4 11 10 11 10 13 6 13 6 41 53 41 53 13 49 13 49 11 55 11"></polygon>
                <path d="M2,48 C2,48 2.09476923,52.5180589 2,53 C2.44141176,52.8975183 57.5575747,52.8975183 58,53 C57.904724,52.5180589 58,48 58,48 L2,48 Z M57,55 L3,55 C2.31615063,55 1.51983264,54.6719738 1,54 C0.330376569,53.4871852 0,52.6948297 0,52 L0,46 L60,46 L60,52 C60,52.6948297 59.6691213,53.4866859 59,54 C58.4791632,54.6719738 57.6833473,55 57,55 L57,55 Z" id="Fill-74" fill="#374D6B"></path>
                <polygon id="Fill-68" fill="#374D6B" points="39 63 20 63 20 57 22 57 22 61 37 61 37 57 39 57"></polygon>
                <polygon id="Fill-71" fill="#374D6B" points="15 9 20 9 20 7 15 7"></polygon>
                <polygon id="Fill-72" fill="#374D6B" points="15 13 20 13 20 11 15 11"></polygon>
                <polygon id="Fill-75" fill="#00B4D5" points="14 9 12 6 11 9 9 8 12 0 16 8"></polygon>
                <path d="M16,41 L14,41 L14,9 L11,9 L11,41 L9,41 L9,8 C9,7.50950795 9.48613793,7 10,7 L15,7 C15.5138621,7 16,7.50950795 16,8 L16,41 Z" id="Fill-76" fill="#00B4D5"></path>
                <polygon id="Fill-77" fill="#00B4D5" points="50 41 48 41 48 8 42 2 21 2 21 41 19 41 19 0 43 0 50 7"></polygon>
                <polygon id="Fill-78" fill="#00B4D5" points="48 8 41 8 41 1 43 1 43 6 48 6"></polygon>
                <path d="M32,28 C28.5628116,26.9662434 26,23.5366214 26,20 C26,14.884495 29.8129275,11 35,11 C39.1865797,11 43,14.884495 43,20 C43,23.5366214 40.4371884,26.9662434 37,28 L36,26 C38.8889565,25.0583875 40.7826087,22.5239516 41,20 C40.7826087,16.1306261 37.964058,13.259303 35,13 C31.0354493,13.259303 28.2173913,16.1306261 28,20 C28.2173913,22.5239516 30.1110435,25.0583875 33,26 L32,28 Z" id="Fill-79" fill="#00B4D5"></path>
                <polygon id="Fill-80" fill="#00B4D5" points="35 37 33 37 33 32 35 32"></polygon>
                <path d="M31,31 L37,31 L34,24.5314965 L31,31 Z M40,33 L28,33 L34,20 L40,33 Z" id="Fill-81" fill="#00B4D5"></path>
            </g>
        </g>
    </g>
</svg>