<svg xmlns="http://www.w3.org/2000/svg" width="64" height="62" viewBox="0 0 64 62">
  <g fill="none" fill-rule="evenodd" stroke-linecap="round" stroke-linejoin="round" stroke-width="2" transform="translate(1 1)">
    <path stroke="#264C6D" d="M27.014298 22.9856443C22.995234 18.9665033 22.995234 12.4500804 27.014298 8.42994411L32.4297828 3.01435572C36.4488468-1.00478524 42.965145-1.00478524 46.984209 3.01435572 51.0052637 7.034492 51.0052637 13.5509149 46.984209 17.5700559L41.5697196 22.9856443C37.5506556 27.0047852 31.033362 27.0047852 27.014298 22.9856443zM3.01426917 47.9856443L3.01426917 47.9856443C-1.00475639 43.965508-1.00475639 37.4500804 3.01426917 33.4299441L8.42970208 28.0143557C12.4487276 23.9952148 18.9659588 23.9952148 22.9849844 28.0143557 27.0050052 32.0334967 27.0050052 38.5509149 22.9849844 42.5700559L17.5695514 47.9856443C13.5505259 52.0047852 7.03329473 52.0047852 3.01426917 47.9856443zM34 16L18 32"/>
    <path stroke="#00B6D7" d="M62 46.5C62 39.0441046 55.9553433 33 48.5 33 41.0446567 33 35 39.0441046 35 46.5 35 53.9568953 41.0446567 60 48.5 60 55.9553433 60 62 53.9568953 62 46.5zM49 53L49 40M55 47L42 47"/>
  </g>
</svg>
