<?xml version="1.0" encoding="UTF-8" standalone="no"?>
<svg width="62px" height="72px" viewBox="0 0 62 72" version="1.1" xmlns="http://www.w3.org/2000/svg" xmlns:xlink="http://www.w3.org/1999/xlink">
    <!-- Generator: Sketch 3.8.3 (29802) - http://www.bohemiancoding.com/sketch -->
    <title>Group</title>
    <desc>Created with Sketch.</desc>
    <defs></defs>
    <g id="All-pages" stroke="none" stroke-width="1" fill="none" fill-rule="evenodd">
        <g id="colored-icons" transform="translate(-232.000000, -168.000000)">
            <g id="Group-25" transform="translate(224.000000, 168.000000)">
                <g id="Group" transform="translate(8.000000, 0.000000)">
                    <path d="M39,72 C36.2298841,72 34.0957681,71.0980024 32,69 C30.884,67.821348 30,65.6432803 30,63 L30,35 L32,35 L32,63 C32.2173913,65.0389319 32.8707826,66.6488517 34,68 C35.2443768,69.0707705 36.8221739,69.7374643 39,70 C40.1778261,69.7374643 41.7556232,69.0707705 43,68 C44.1292174,66.6488517 44.7826087,65.0389319 45,63 L47,63 C47,65.6432803 46.116,67.821348 45,69 C42.9047246,71.0980024 40.7701159,72 39,72" id="Fill-263" fill="#374D6B"></path>
                    <path d="M4.51566994,32.3679389 C10.1849982,32.3679389 15.3196459,35.2498728 18.3085157,40 C21.4011973,36.1521628 26.0248495,33.902799 30.999748,33.902799 C35.9746466,33.902799 40.5988027,36.1516539 43.6919882,39.9989822 C46.6808581,35.2498728 51.8139939,32.3679389 57.4813064,32.3679389 C58.3254064,32.3679389 59.1679946,32.4335878 60,32.5638677 C58.5723372,17.5531807 46.1048543,6 30.999748,6 C15.8936338,6 3.42615103,17.5531807 2,32.5638677 C2.83150148,32.4335878 3.67308177,32.3679389 4.51566994,32.3679389 L4.51566994,32.3679389 Z M18.2363756,44 L17.3633391,42.2129159 C15.0060909,37.3883885 10.2250112,34.3909247 4.88642047,34.3909247 C3.73164711,34.3909247 2.57935821,34.5353506 1.46135475,34.8197049 L0,35.1925138 L0.0700615503,33.6777901 C0.837757261,17.0358191 14.4237353,4 31,4 C47.5752709,4 61.161249,17.0358191 61.9304353,33.6777901 L62,35.1925138 L60.5386453,34.8197049 C59.4216356,34.5353506 58.2683529,34.3909247 57.1110951,34.3909247 C51.7749888,34.3909247 46.9953998,37.3878887 44.6376547,42.2119164 L43.7651151,43.9985008 L42.6943162,42.3248585 C40.11943,38.300421 35.747788,35.8981522 31,35.8981522 C26.252212,35.8981522 21.8810669,38.3009208 19.3066776,42.3253583 L18.2363756,44 Z" id="Fill-264" fill="#00B4D5"></path>
                    <path d="M45,42 L42.7236595,42 C42.7236595,20.6247797 36.6620176,6.26571092 31,6.26571092 C25.3384882,6.26571092 19.2763405,20.6247797 19.2763405,42 L17,42 C17,32.0293615 18.3602399,22.6392485 20.8303223,15.5591536 C23.4309149,8.10546818 27.0427085,4 31,4 C34.9577974,4 38.569591,8.10546818 41.1701836,15.5591536 C43.6397601,22.6392485 45,32.0293615 45,42" id="Fill-265" fill="#00B4D5"></path>
                    <polygon id="Fill-266" fill="#374D6B" points="30 5 32 5 32 0 30 0"></polygon>
                </g>
            </g>
        </g>
    </g>
</svg>