<?xml version="1.0" encoding="UTF-8" standalone="no"?>
<svg width="76px" height="72px" viewBox="0 0 76 72" version="1.1" xmlns="http://www.w3.org/2000/svg" xmlns:xlink="http://www.w3.org/1999/xlink">
    <!-- Generator: Sketch 3.8.3 (29802) - http://www.bohemiancoding.com/sketch -->
    <title>Group 25</title>
    <desc>Created with Sketch.</desc>
    <defs></defs>
    <g id="Page-1" stroke="none" stroke-width="1" fill="none" fill-rule="evenodd">
        <g id="colored-icons-and-chars" transform="translate(-384.000000, -971.000000)">
            <g id="Group-25" transform="translate(384.000000, 971.000000)">
                <path d="M61,43.9354839 C53.7962436,43.9354839 47.9354839,49.7958547 47.9354839,57.0002507 C47.9354839,64.2041453 53.7962436,70.0645161 61,70.0645161 C68.2037564,70.0645161 74.0645161,64.2041453 74.0645161,57.0002507 C74.0645161,49.7958547 68.2037564,43.9354839 61,43.9354839 M61,72 C52.7291646,72 46,65.2712161 46,57.0002454 C46,48.7287839 52.7291646,42 61,42 C69.2708354,42 76,48.7287839 76,57.0002454 C76,65.2712161 69.2708354,72 61,72" id="Fill-1" fill="#00B4D5"></path>
                <polygon id="Fill-4" fill="#00B4D5" points="55.5120374 62 51 56.999741 55.5125049 52 56.9995325 53.6482776 53.9749903 56.999741 57 60.3517224"></polygon>
                <polygon id="Fill-6" fill="#00B4D5" points="66.4879626 62 65 60.3517224 68.0250097 56.999741 65.0004675 53.6482776 66.4874951 52 71 56.999741"></polygon>
                <polygon id="Fill-8" fill="#00B4D5" points="60.2207592 64 58 63.3674962 61.7792408 50 64 50.6319891"></polygon>
                <polygon id="Fill-10" fill="#374D6B" points="30 28 37 28 37 26 30 26"></polygon>
                <polygon id="Fill-12" fill="#374D6B" points="36 36 43 36 43 34 36 34"></polygon>
                <polygon id="Fill-13" fill="#374D6B" points="36 40 43 40 43 38 36 38"></polygon>
                <polygon id="Fill-14" fill="#374D6B" points="36 53 43 53 43 51 36 51"></polygon>
                <polygon id="Fill-15" fill="#374D6B" points="36 58 43 58 43 56 36 56"></polygon>
                <polygon id="Fill-16" fill="#374D6B" points="30 32 44 32 44 30 30 30"></polygon>
                <polygon id="Fill-17" fill="#374D6B" points="30 45 37 45 37 43 30 43"></polygon>
                <polygon id="Fill-18" fill="#374D6B" points="30 49 44 49 44 47 30 47"></polygon>
                <polygon id="Fill-19" fill="#374D6B" points="46 36 53 36 53 34 46 34"></polygon>
                <polygon id="Fill-20" fill="#374D6B" points="46 40 60 40 60 38 46 38"></polygon>
                <polygon id="Fill-21" fill="#374D6B" points="46 32 53 32 53 30 46 30"></polygon>
                <path d="M25,23 L66,23 L66,14 L25,14 L25,23 Z M23,23 L68,23 L68,12 L23,12 L23,23 Z" id="Fill-22" fill="#374D6B"></path>
                <polygon id="Fill-23" fill="#374D6B" points="30 18 32 18 32 16 30 16"></polygon>
                <polygon id="Fill-24" fill="#374D6B" points="34 18 36 18 36 16 34 16"></polygon>
                <polygon id="Fill-25" fill="#374D6B" points="39 18 41 18 41 16 39 16"></polygon>
                <polygon id="Fill-26" fill="#374D6B" points="44 65 23 65 23 20 68 20 68 40 66 40 66 22 25 22 25 63 44 63"></polygon>
                <path d="M11.5,63 C10.1216992,63 9,64.121313 9,65.4991392 C9,66.8781132 10.1216992,68 11.5,68 C12.8783008,68 14,66.8781132 14,65.4991392 C14,64.121313 12.8783008,63 11.5,63 M11.5,70 C9.01852061,70 7,67.9808051 7,65.4992378 C7,63.0186868 9.01852061,61 11.5,61 C13.9814794,61 16,63.0186868 16,65.4992378 C16,67.9808051 13.9814794,70 11.5,70" id="Fill-27" fill="#374D6B"></path>
                <polygon id="Fill-28" fill="#374D6B" points="17 70 19 70 19 61 17 61"></polygon>
                <path d="M58.5,2 C57.1216992,2 56,3.12144169 56,4.5 C56,5.87855831 57.1216992,7 58.5,7 C59.8783008,7 61,5.87855831 61,4.5 C61,3.12144169 59.8783008,2 58.5,2 M58.5,9 C56.0185206,9 54,6.98119919 54,4.5 C54,2.01880081 56.0185206,0 58.5,0 C60.9814794,0 63,2.01880081 63,4.5 C63,6.98119919 60.9814794,9 58.5,9" id="Fill-29" fill="#374D6B"></path>
                <polygon id="Fill-30" fill="#374D6B" points="50 9 52 9 52 0 50 0"></polygon>
                <polygon id="Fill-31" fill="#374D6B" points="46 9 48 9 48 0 46 0"></polygon>
                <path d="M15,47 L14,47 L14,45 L15,45 C15.5777199,44.805614 15.9134396,44.6802901 16,44 C16.4200022,44.2253208 16.5593882,43.9229831 17,44 L17,34 C16.5593882,34.0770169 16.4200022,33.7741916 16,34 C15.913982,33.3197099 15.5777199,33.194386 15,33 L14,33 L14,31 L15,31 C16.2290921,31 17.1782189,31.35354 18,32 C18.6067903,32.637012 19,33.4903843 19,34 L19,44 C19,44.509128 18.6067903,45.3625004 18,46 C17.1793036,46.6459724 16.2301768,47 15,47" id="Fill-32" fill="#374D6B"></path>
                <path d="M5,47 L4,47 C2.77012367,47 1.8208939,46.64646 1,46 C0.392709915,45.3610375 0,44.5081528 0,44 L0,34 C0,33.4913596 0.392709915,32.6379873 1,32 C1.82197874,31.3530523 2.77120851,31 4,31 L5,31 L5,33 L4,33 C3.42210892,33.194386 3.08526795,33.3197099 3,34 C2.58027772,33.7737039 2.44087655,34.0765292 2,34 L2,44 C2.44087655,43.9229831 2.58027772,44.2258084 3,44 C3.08581037,44.6802901 3.42210892,44.805614 4,45 L5,45 L5,47 Z" id="Fill-33" fill="#374D6B"></path>
                <polygon id="Fill-34" fill="#374D6B" points="4 41 6 41 6 39 4 39"></polygon>
                <polygon id="Fill-35" fill="#374D6B" points="9 41 11 41 11 39 9 39"></polygon>
                <polygon id="Fill-36" fill="#374D6B" points="13 41 15 41 15 39 13 39"></polygon>
            </g>
        </g>
    </g>
</svg>