<?xml version="1.0" encoding="UTF-8" standalone="no"?>
<svg width="55px" height="69px" viewBox="0 0 55 69" version="1.1" xmlns="http://www.w3.org/2000/svg" xmlns:xlink="http://www.w3.org/1999/xlink">
    <!-- Generator: Sketch 3.8.3 (29802) - http://www.bohemiancoding.com/sketch -->
    <title>Group 6</title>
    <desc>Created with Sketch.</desc>
    <defs></defs>
    <g id="All-pages" stroke="none" stroke-width="1" fill="none" fill-rule="evenodd">
        <g id="colored-icons" transform="translate(-876.000000, -170.000000)">
            <g id="Group-25" transform="translate(224.000000, 168.000000)">
                <g id="Group-6" transform="translate(652.000000, 2.000000)">
                    <path d="M49.3823636,69 L46.2206362,49.7113272 L51.5396955,32.1409356 C52.3516857,29.7568015 52.7569331,27.3004665 52.7569331,24.8025157 C52.7569331,12.370422 42.7025104,2.25627834 30.3442088,2.25627834 C17.9839134,2.25627834 7.92799529,12.370422 7.92799529,24.8025157 L7.91403843,27.8324468 L3.13730288,41.8895623 L8.7374932,41.8895623 L9.91186333,56.7584365 L20.6790828,55.6714118 L22.2736542,68.6781043 L20.0475349,68.954373 L18.7211347,58.1367719 L7.85721407,59.2338246 L6.66589632,44.1458406 L0,44.1458406 L5.67097154,27.4574032 L5.67097154,23.6743765 L5.70985137,23.6743765 C6.29853181,10.5197724 17.1230741,0 30.3442088,0 C43.9396864,0 55,11.1264606 55,24.8025157 C55,27.5501613 54.5538789,30.2526814 53.6731013,32.835368 L48.5190321,49.8642527 L51.5955229,68.6329787 L49.3823636,69 Z" id="Fill-24" fill="#374D6B"></path>
                    <path d="M26.5643574,43 L35.4356426,43 C35.7216319,39.9876961 37.1158296,37.1594203 39.3588026,35.1058104 C39.5007759,34.9767851 39.6407063,34.8534143 39.7801261,34.736212 C42.4622969,32.2554306 44,28.7398766 44,25.0865586 C44,17.8719365 38.1678616,12.0015421 30.9997447,12 C23.8321384,12.0015421 18,17.8719365 18,25.0865586 C18,28.7434749 19.5382137,32.259029 22.2208953,34.736726 C22.3557188,34.85033 22.491053,34.9690744 22.6304728,35.0929592 C24.8841704,37.1625046 26.2783681,39.9912944 26.5643574,43 L26.5643574,43 Z M37.5489643,45 L24.4510357,45 L24.4510357,43.8637347 C24.4510357,41.129123 23.2993273,38.5005627 21.2898466,36.6517329 C21.1771795,36.5522466 21.0529953,36.4426601 20.9293118,36.3386287 L20.8902539,36.3037832 C17.7826443,33.4393848 16,29.3665051 16,25.1289932 C16,16.7883012 22.7289813,10.001515 30.9997496,10 C39.2710187,10.001515 46,16.7883012 46,25.1289932 C46,29.36297 44.2178565,33.4363547 41.1112484,36.3032782 L41.0686852,36.3406487 C40.9495084,36.4401351 40.8298309,36.5456815 40.7106541,36.6547629 C38.7016741,38.4975327 37.5489643,41.125588 37.5489643,43.8637347 L37.5489643,45 Z" id="Fill-25" fill="#00B4D5"></path>
                    <polygon id="Fill-26" fill="#00B4D5" points="31.5480328 34 29.4544262 33.279684 31.9021311 26.1100963 26 26.1100963 29.4544262 16 31.5480328 16.720316 29.0988525 23.8884226 35 23.8884226"></polygon>
                    <polygon id="Fill-28" fill="#00B4D5" points="24 48 37 48 37 46 24 46"></polygon>
                    <polygon id="Fill-29" fill="#00B4D5" points="28 52 34 52 34 50 28 50"></polygon>
                    <polygon id="Fill-30" fill="#00B4D5" points="30 69 32 69 32 54 30 54"></polygon>
                    <path d="M31.8697286,7 C31.5311065,6.97556719 31.1757829,6.96247818 30.8467641,6.96335079 C30.5966597,6.96335079 30.3461378,6.96989529 30.0939457,6.98298429 L30,5.02225131 C30.2860125,5.0069808 30.5691023,5.0004363 30.8551148,5 C31.2359081,5 31.6212944,5.01396161 32,5.04144852 L31.8697286,7 Z M25.7135225,8 L25,5.60721554 C25.8417465,5.35411656 26.7100221,5.14986124 27.5799558,5 L28,7.46216466 C27.2289978,7.59481961 26.459101,7.77576318 25.7135225,8 L25.7135225,8 Z M36.2452247,8 C35.5111879,7.76223521 34.7558668,7.56720234 34,7.42092768 L34.4644351,5 C35.3185374,5.16544923 36.1715481,5.38513514 37,5.6541271 L36.2452247,8 Z M22.1310504,10 L21,8.08249464 C21.679618,7.68008579 22.3883767,7.31578947 23.1080013,7 L24,9.04025738 C23.3623642,9.32040917 22.7336187,9.6431282 22.1310504,10 L22.1310504,10 Z M39.8361434,10 C39.2458668,9.63348639 38.6280897,9.30042637 38,9.00918334 L38.9276477,7 C39.6362743,7.32863234 40.3336062,7.70449328 41,8.11774352 L39.8361434,10 Z M18.4856109,12 L17,10.4832468 C17.5368769,9.95658329 18.1110237,9.4577631 18.7068721,9 L20,10.6838131 C19.471615,11.0901369 18.962101,11.5327985 18.4856109,12 L18.4856109,12 Z M43.4868049,12 C43.0207352,11.5248272 42.5202639,11.072753 42,10.6569767 L43.3237512,9 C43.9104618,9.46904463 44.4745523,9.97815839 45,10.514142 L43.4868049,12 Z M15.8273335,16 L14,14.8677804 C14.4014017,14.221957 14.8458108,13.5933174 15.3217585,13 L17,14.3436754 C16.5775725,14.8696897 16.1833386,15.4272076 15.8273335,16 L15.8273335,16 Z M46.1441816,16 C45.798913,15.4189685 45.4143223,14.8513492 45,14.3143861 L46.7105179,13 C47.17711,13.6054606 47.6110934,14.2449305 48,14.9006866 L46.1441816,16 Z M14.2021605,20 L12,19.2888661 C12.2520576,18.5125705 12.5545267,17.7429451 12.9002058,17 L15,17.9722935 C14.69393,18.6300667 14.4254115,19.3124679 14.2021605,20 L14.2021605,20 Z M47.7622015,20 C47.5508827,19.2994136 47.2943925,18.6055536 47,17.9360124 L49.1396677,17 C49.4719626,17.7554329 49.7616822,18.5398413 50,19.3299414 L47.7622015,20 Z M13.6704343,24 L11,23.8135727 C11.066627,22.8707832 11.1915526,21.9244427 11.3718025,21 L14,21.5072006 C13.8399762,22.3262971 13.7293278,23.164924 13.6704343,24 L13.6704343,24 Z M48.284879,25 L48.28125,24.9269607 C48.2370968,24.1121533 48.1421371,23.2745959 48,22.4579924 L50.6818548,22 C50.8427419,22.9207743 50.9491935,23.8636999 51,24.8030333 L48.284879,25 Z M11.3301205,29 C11.1656627,28.0869819 11.0560241,27.1517805 11.0054217,26.2212493 L11,26.1284297 L13.7072289,26 L13.7114458,26.0735552 C13.7572289,26.9083479 13.8542169,27.7378867 14,28.5475773 L11.3301205,29 Z M50.6329692,29 L48,28.4967398 C48.1584906,27.6763485 48.2675273,26.8358032 48.3247269,26 L51,26.1813871 C50.9350546,27.1244813 50.811718,28.0735033 50.6329692,29 L50.6329692,29 Z M12.8646266,33 C12.5306017,32.245735 12.2396266,31.4630364 12,30.6736171 L14.2339212,30 C14.4465768,30.6994658 14.7038382,31.3927279 15,32.0606583 L12.8646266,33 Z M49.1036554,34 L47,33.0318439 C47.3047881,32.3728814 47.5719924,31.6892655 47.7944054,31 L50,31.7077555 C49.7492706,32.4858757 49.4475716,33.2568053 49.1036554,34 L49.1036554,34 Z M15.2933845,37 C14.8259827,36.3959796 14.3906999,35.7574984 14,35.1022655 L15.8533078,34 C16.1999041,34.5810466 16.5858102,35.1472559 17,35.6823548 L15.2933845,37 Z M46.6816444,37 L45,35.6595033 C45.4220841,35.1313276 45.8154876,34.5730659 46.1696941,34 L48,35.1284623 C47.6008604,35.7750716 47.1572658,36.404489 46.6816444,37 L46.6816444,37 Z M18.6790763,41 C18.0914232,40.5318246 17.5263902,40.0235738 17,39.4893918 L18.5098963,38 C18.9773798,38.4738331 19.4787936,38.9250354 20,39.3404055 L18.6790763,41 Z M43.2964943,41 L42,39.3186036 C42.5272756,38.9119358 43.0361578,38.4679981 43.5120264,38 L45,39.5134455 C44.4637636,40.0408869 43.8907404,40.5409656 43.2964943,41 L43.2964943,41 Z" id="Fill-31" fill="#374D6B"></path>
                </g>
            </g>
        </g>
    </g>
</svg>