<?xml version="1.0" encoding="UTF-8" standalone="no"?>
<svg width="58px" height="83px" viewBox="0 0 58 83" version="1.1" xmlns="http://www.w3.org/2000/svg" xmlns:xlink="http://www.w3.org/1999/xlink">
    <!-- Generator: Sketch 3.7 (28169) - http://www.bohemiancoding.com/sketch -->
    <title>Group 54</title>
    <desc>Created with Sketch.</desc>
    <defs></defs>
    <g id="Page-1" stroke="none" stroke-width="1" fill="none" fill-rule="evenodd">
        <g id="epay-web-services-salary-projects" transform="translate(-331.000000, -4444.000000)">
            <g id="Group-54" transform="translate(331.000000, 4445.000000)">
                <path d="M40.207,69.6238 L6.9595,69.6238 L6.9595,67.3738 L40.207,67.3738 C41.475,67.3738 42.666,66.8808 43.561,65.9853 C44.456,65.0913 44.9485,63.9003 44.9485,62.6313 C44.9485,61.3658 44.4555,60.1748 43.5605,59.2773 C42.6655,58.3818 41.475,57.8883 40.207,57.8883 L6.9595,57.8883 L6.9595,55.6383 L40.207,55.6383 C42.076,55.6383 43.8325,56.3663 45.1525,57.6873 C46.472,59.0098 47.1985,60.7658 47.1985,62.6313 C47.1985,64.5018 46.4715,66.2583 45.1515,67.5763 C43.832,68.8963 42.076,69.6238 40.207,69.6238" id="Fill-1" fill="#374D6B"></path>
                <polygon id="Fill-3" fill="#374D6B" points="41.0791 57.88845 6.0876 57.88845 9.99999993e-05 34.25645 2.1786 33.69545 7.8311 55.63845 39.3351 55.63845 48.6396 19.49995 57.6821 19.49995 57.6821 21.74995 50.3836 21.74995"></polygon>
                <path d="M10.14965,75.3689 C9.01115,75.3689 8.08465,76.2949 8.08465,77.4329 C8.08465,78.5724 9.01115,79.4999 10.14965,79.4999 C11.28865,79.4999 12.21515,78.5724 12.21515,77.4329 C12.21515,76.2949 11.28865,75.3689 10.14965,75.3689 M10.14965,81.7499 C7.77015,81.7499 5.83465,79.8134 5.83465,77.4329 C5.83465,75.0539 7.77015,73.1189 10.14965,73.1189 C12.52915,73.1189 14.46515,75.0539 14.46515,77.4329 C14.46515,79.8134 12.52915,81.7499 10.14965,81.7499" id="Fill-6" fill="#374D6B"></path>
                <path d="M42.885,75.3689 C41.7455,75.3689 40.8185,76.2949 40.8185,77.4329 C40.8185,78.5724 41.7455,79.4999 42.885,79.4999 C44.023,79.4999 44.9485,78.5724 44.9485,77.4329 C44.9485,76.2949 44.023,75.3689 42.885,75.3689 M42.885,81.7499 C40.505,81.7499 38.5685,79.8134 38.5685,77.4329 C38.5685,75.0539 40.505,73.1189 42.885,73.1189 C45.2635,73.1189 47.1985,75.0539 47.1985,77.4329 C47.1985,79.8134 45.2635,81.7499 42.885,81.7499" id="Fill-8" fill="#374D6B"></path>
                <g id="Group-50" transform="translate(9.000000, 0.000000)" stroke="#00B2D4" stroke-width="2" stroke-linecap="round" stroke-linejoin="round">
                    <g id="Group-37" transform="translate(29.000000, 4.000000)">
                        <path d="M11.1022074,9.17922353 C11.1022074,8.06698824 10.4164667,7.16542941 9.57057778,7.16542941 C8.72468889,7.16542941 8.0380963,8.06698824 8.0380963,9.17922353 C8.0380963,10.2914588 8.72468889,11.1930176 9.57057778,11.1930176 C10.4164667,11.1930176 11.1022074,10.2914588 11.1022074,9.17922353 L11.1022074,9.17922353 Z" id="Stroke-11"></path>
                        <path d="M3.89358148,2.39382059 C3.89358148,1.28158529 3.20784074,0.380026471 2.36195185,0.380026471 C1.51606296,0.380026471 0.830322222,1.28158529 0.830322222,2.39382059 C0.830322222,3.50605588 1.51606296,4.40761471 2.36195185,4.40761471 C3.20784074,4.40761471 3.89358148,3.50605588 3.89358148,2.39382059 L3.89358148,2.39382059 Z" id="Stroke-13"></path>
                        <path d="M9.80841481,0.380367647 L1.73115556,11.19225" id="Stroke-15"></path>
                    </g>
                    <g id="Group-33" transform="translate(6.000000, 0.000000)">
                        <path d="M8.40740741,6.27705 L8.40740741,0.306461765" id="Stroke-23"></path>
                        <path d="M13.9193148,7.42527941 L16.5694259,3.53160294" id="Stroke-25"></path>
                        <path d="M3.19024074,7.42527941 L0.54012963,3.53160294" id="Stroke-27"></path>
                    </g>
                    <path d="M14.4257294,50.25 C23.3924072,50.25 28.8267573,43.0618369 28.8267573,31.5508952 C28.8267573,20.0399536 23.343004,13 14.4257294,13 C5.50845491,13 3.41060513e-13,20.0646552 3.41060513e-13,31.5755968 C3.41060513e-13,43.1112401 5.45905172,50.25 14.4257294,50.25 L14.4257294,50.25 Z M14.4257294,44.2722149 C10.1770557,44.2722149 7.58338859,39.6777188 7.58338859,31.5755968 C7.58338859,23.5475796 10.2264589,18.9777851 14.4257294,18.9777851 C18.6497016,18.9777851 21.2433687,23.522878 21.2433687,31.5755968 C21.2433687,39.7024204 18.6744032,44.2722149 14.4257294,44.2722149 L14.4257294,44.2722149 Z" id="0"></path>
                </g>
            </g>
        </g>
    </g>
</svg>