<?xml version="1.0" encoding="UTF-8" standalone="no"?>
<svg width="62px" height="59px" viewBox="0 0 62 59" version="1.1" xmlns="http://www.w3.org/2000/svg" xmlns:xlink="http://www.w3.org/1999/xlink">
    <!-- Generator: Sketch 3.8.3 (29802) - http://www.bohemiancoding.com/sketch -->
    <title>Group 2</title>
    <desc>Created with Sketch.</desc>
    <defs></defs>
    <g id="All-pages" stroke="none" stroke-width="1" fill="none" fill-rule="evenodd">
        <g id="colored-icons" transform="translate(-553.000000, -175.000000)">
            <g id="Group-25" transform="translate(224.000000, 168.000000)">
                <g id="Group-2" transform="translate(329.000000, 7.000000)">
                    <polygon id="Fill-89" fill="#374D6B" points="41 59 21 59 21 52 23 52 23 57 39 57 39 52 41 52"></polygon>
                    <polygon id="Fill-90" fill="#374D6B" points="17 59 45 59 45 57 17 57"></polygon>
                    <path d="M2,40 L60,40 L60,2.98180729 C60,2.71804555 59.8970563,2.47259373 59.7107532,2.28998945 C59.5209351,2.10095196 59.2708571,2 59.001697,2 L2.9972987,2 C2.72864069,2 2.48057143,2.1004571 2.29728139,2.28256651 C2.10344589,2.47358346 2,2.71953014 2,2.98180729 L2,40 Z M62,42 L0,42 L0,3.17439299 C0,2.32547296 0.33664257,1.52795813 0.947678715,0.928720465 C1.54726104,0.331930667 2.35998394,0 3.2299759,0 L58.7690281,0 C59.6385221,0 60.451743,0.331441094 61.0582972,0.933616198 C61.6633574,1.52453112 62,2.32253552 62,3.17439299 L62,42 Z" id="Fill-91" fill="#374D6B"></path>
                    <path d="M6,36 L56,36 L56,6 L6,6 L6,36 Z M4,38 L58,38 L58,4 L4,4 L4,38 Z" id="Fill-92" fill="#00B4D5"></path>
                    <polygon id="Fill-93" fill="#00B4D5" points="9 25 11 25 11 20 9 20"></polygon>
                    <polygon id="Fill-94" fill="#00B4D5" points="12 22 14 22 14 15 12 15"></polygon>
                    <polygon id="Fill-95" fill="#00B4D5" points="16 25 18 25 18 23 16 23"></polygon>
                    <polygon id="Fill-96" fill="#00B4D5" points="20 31 22 31 22 25 20 25"></polygon>
                    <polygon id="Fill-97" fill="#00B4D5" points="24 33 26 33 26 30 24 30"></polygon>
                    <polygon id="Fill-98" fill="#00B4D5" points="27 27 29 27 29 12 27 12"></polygon>
                    <polygon id="Fill-99" fill="#00B4D5" points="31 15 33 15 33 9 31 9"></polygon>
                    <polygon id="Fill-100" fill="#00B4D5" points="35 24 37 24 37 14 35 14"></polygon>
                    <polygon id="Fill-101" fill="#00B4D5" points="39 23 41 23 41 20 39 20"></polygon>
                    <polygon id="Fill-102" fill="#00B4D5" points="43 29 45 29 45 22 43 22"></polygon>
                    <polygon id="Fill-103" fill="#00B4D5" points="47 24 49 24 49 14 47 14"></polygon>
                    <polygon id="Fill-104" fill="#00B4D5" points="51 16 53 16 53 12 51 12"></polygon>
                    <path d="M2,42 L2,45.9678493 C2,46.2440953 2.10394805,46.5042139 2.29225974,46.6993029 C2.4795671,46.8943918 2.72813853,47 2.99579221,47 L59.001697,47 C59.2708571,47 59.5214372,46.8933514 59.7082424,46.7003434 C59.8970563,46.5052544 60,46.245656 60,45.9678493 L60,42 L2,42 Z M58.7690281,49 L3.22848193,49 C2.3619759,49 1.55074699,48.6740637 0.944192771,48.0811885 C0.336144578,47.4916985 0,46.7029714 0,45.864435 L0,40 L62,40 L62,45.864435 C62,46.7053893 61.6638554,47.4941164 61.0533173,48.0850572 C60.4467631,48.6745473 59.6350361,49 58.7690281,49 L58.7690281,49 Z" id="Fill-105" fill="#374D6B"></path>
                </g>
            </g>
        </g>
    </g>
</svg>