<svg xmlns="http://www.w3.org/2000/svg" width="95" height="74" viewBox="0 0 95 74">
  <g fill="none" fill-rule="evenodd" stroke-width="2" transform="translate(1 1)" stroke-linecap="round" stroke-linejoin="round">
    <path stroke="#FFFFFF" d="M29.4874219,54.490063 C24.9333992,56.1211424 15.8253538,59.3833012 15.8253538,59.3833012 C14.506684,59.8556024 13.0564104,59.1669398 12.5852689,57.8459036 L0.148712264,22.9510241 C-0.322429245,21.629988 0.364542453,20.1761446 1.68233491,19.7038434 L1.68233491,19.7038434 L56.2785991,0.148638554 C57.5963915,-0.323662651 59.0466651,0.365 59.5178066,1.68603614 L69.7092213,30.279409"/>
    <path stroke="#00B4D8" d="M60.6846333,30.2703711 C61.4376661,29.5281341 62.3597422,28.9341743 63.419683,28.5545217 L57.988834,13.3177506 C54.0845887,14.7161843 49.7890415,12.6774614 48.3949189,8.76360602 L13.2268811,21.3600639 C14.6218811,25.2730398 12.5881642,29.5791602 8.68391887,30.977594 L8.68391887,30.977594 L14.1147679,46.2143651 C18.0190132,44.8159313 22.3145604,46.8555337 23.7095604,50.7693892 C23.7095604,50.7693892 27.4938457,49.4139033 29.3859883,48.7361603"/>
    <path stroke="#FFFFFF" d="M44.5892439,30.1342879 C44.6356796,29.0603659 44.4798729,27.959687 44.0969151,26.8850205 C42.5088962,22.431141 37.6202547,20.1100928 33.1773113,21.701141 C28.7343679,23.2930687 26.4198962,28.1937434 28.0070377,32.6476229 L28.0070377,32.6476229 C28.2961194,33.4588517 28.6947281,34.199324 29.1802267,34.8582834"/>
    <path stroke="#FFFFFF" d="M32.5328704 72L90.4680063 72C91.8663893 72 93 70.9204534 93 69.5879271L93 34.4120729C93 33.0803816 91.8663893 32 90.4680063 32L32.5328704 32C31.1344875 32 30 33.0803816 30 34.4120729L30 69.5879271C30 70.9204534 31.1344875 72 32.5328704 72zM87.0171132 55L80 55M73.0171132 55L66 55M58.0171132 55L51 55M43.0171132 55L36 55"/>
    <polygon stroke="#00B4D8" points="75 67 88 67 88 61 75 61"/>
    <path stroke="#00B4D8" d="M46,39 L38,39 C36.9249276,39 36,39.8629326 36,41 L36,45 C36,46.1370674 36.9249276,47 38,47 L46,47 C47.0750724,47 48,46.1370674 48,45 L48,41 C48,39.8629326 47.0750724,39 46,39 Z"/>
  </g>
</svg>
