<?xml version="1.0" encoding="UTF-8" standalone="no"?>
<svg width="67px" height="67px" viewBox="0 0 67 67" version="1.1" xmlns="http://www.w3.org/2000/svg" xmlns:xlink="http://www.w3.org/1999/xlink">
    <!-- Generator: Sketch 3.7 (28169) - http://www.bohemiancoding.com/sketch -->
    <title>Group 27</title>
    <desc>Created with Sketch.</desc>
    <defs></defs>
    <g id="Page-1" stroke="none" stroke-width="1" fill="none" fill-rule="evenodd">
        <g id="epay-web-services-cash-out" transform="translate(-152.000000, -2568.000000)">
            <g id="Group-27" transform="translate(152.000000, 2568.000000)">
                <polygon id="Fill-1" fill="#374D6B" points="27 1 27 3 56 3 65 12 65 65 27 65 27 67 67 67 67 11 57 1"></polygon>
                <polygon id="Fill-2" fill="#374D6B" points="66 13 55 13 55 2 57 2 57 11 66 11"></polygon>
                <path d="M33,57 L36,57 L36,54 L33,54 L33,57 Z M31,59 L38,59 L38,52 L31,52 L31,59 Z" id="Fill-3" fill="#00B4D5"></path>
                <polygon id="Fill-4" fill="#00B4D5" points="41 54 51 54 51 52 41 52"></polygon>
                <polygon id="Fill-5" fill="#00B4D5" points="41 59 61 59 61 57 41 57"></polygon>
                <path d="M33,47 L36,47 L36,44 L33,44 L33,47 Z M31,49 L38,49 L38,42 L31,42 L31,49 Z" id="Fill-6" fill="#00B4D5"></path>
                <polygon id="Fill-7" fill="#00B4D5" points="41 44 51 44 51 42 41 42"></polygon>
                <polygon id="Fill-8" fill="#00B4D5" points="41 49 61 49 61 47 41 47"></polygon>
                <polygon id="Fill-9" fill="#00B4D5" points="41 34 51 34 51 32 41 32"></polygon>
                <polygon id="Fill-10" fill="#00B4D5" points="41 39 61 39 61 37 41 37"></polygon>
                <polygon id="Fill-11" fill="#00B4D5" points="34.3273637 39 31 35.8015823 32.5715433 34.2916139 34.3273637 35.9791139 37.4279627 33 39 34.5109177"></polygon>
                <polygon id="Fill-12" fill="#00B4D5" points="41 24 51 24 51 22 41 22"></polygon>
                <polygon id="Fill-13" fill="#00B4D5" points="41 29 61 29 61 27 41 27"></polygon>
                <polygon id="Fill-14" fill="#00B4D5" points="34.3273637 29 31 25.8015823 32.5715433 24.2916139 34.3273637 25.9791139 37.4279627 23 39 24.5109177"></polygon>
                <polygon id="Fill-15" fill="#00B4D5" points="41 14 51 14 51 12 41 12"></polygon>
                <polygon id="Fill-16" fill="#00B4D5" points="41 19 61 19 61 17 41 17"></polygon>
                <polygon id="Fill-17" fill="#00B4D5" points="34.3273637 19 31 15.8015823 32.5715433 14.2916139 34.3273637 15.9791139 37.4279627 13 39 14.5109177"></polygon>
                <polygon id="Fill-18" fill="#374D6B" points="31 9 34 9 34 7 31 7"></polygon>
                <polygon id="Fill-19" fill="#374D6B" points="36 9 39 9 39 7 36 7"></polygon>
                <polygon id="Fill-20" fill="#374D6B" points="41 9 44 9 44 7 41 7"></polygon>
                <path d="M14,2 C10.6920194,2 8,4.69159391 8,7.99972574 C8,11.3084061 10.6920194,14 14,14 C17.3079806,14 20,11.3084061 20,7.99972574 C20,4.69159391 17.3079806,2 14,2 L14,2 Z M6,7.99974091 C6,3.5889497 9.58883347,0 14,0 C18.4111665,0 22,3.5889497 22,7.99974091 C22,12.4110503 18.4111665,16 14,16 C9.58883347,16 6,12.4110503 6,7.99974091 Z" id="Fill-21" fill="#374D6B"></path>
                <polygon id="Fill-23" fill="#374D6B" points="13 67 15 67 15 47 13 47"></polygon>
                <polygon id="Fill-25" fill="#374D6B" points="6 67 8 67 8 39 6 39"></polygon>
                <polygon id="Fill-26" fill="#374D6B" points="20 67 22 67 22 39 20 39"></polygon>
                <path d="M28,44 L21,44 L21,42 L26,42 L26,26 C25.7243584,24.6549359 25.0993155,23.1514282 24,22 C22.8297423,20.8901205 21.3212447,20.267354 20,20 L19,20 C19,20 16.5,21.6529949 14,21.6529949 C11.5,21.6529949 9,20 9,20 L8,20 C6.67875526,20.267354 5.16975203,20.8901205 4,22 C2.9006845,23.1514282 2.2756416,24.6549359 2,26 L2,42 L7,42 L7,44 L0,44 L0,26 C0,24.0498043 0.861709621,22.5426983 2,20.5657594 C3.99046398,19.4243308 6.0709061,18 8,18 L10,18 C10,18 12,19.3385417 14,19.3385417 C16.0534794,19.231583 18,18 18,18 L20,18 C21.9290939,18 24.0090303,19.4243308 26,20.5657594 C27.1382904,22.5426983 28,24.0498043 28,26 L28,44 Z" id="Fill-27" fill="#374D6B"></path>
            </g>
        </g>
    </g>
</svg>