<svg xmlns="http://www.w3.org/2000/svg" width="66" height="60" viewBox="0 0 66 60">
  <g fill="none" fill-rule="evenodd" transform="translate(1 1)">
    <polyline stroke="#264C6D" stroke-linecap="round" stroke-linejoin="round" stroke-width="2" points="64 15 64 58 0 58 0 15"/>
    <polyline stroke="#264C6D" stroke-linecap="round" stroke-linejoin="round" stroke-width="2" points="26 6 0 6 0 15 19.984 15"/>
    <polyline stroke="#264C6D" stroke-linecap="round" stroke-linejoin="round" stroke-width="2" points="44.016 15 64 15 64 6 38 6"/>
    <path fill="#264C6D" d="M7 10.4994307C7 9.67058824 6.32852807 9 5.50113809 9 4.67261002 9 4 9.67058824 4 10.4994307 4 11.3282732 4.67261002 12 5.50113809 12 6.32852807 12 7 11.3282732 7 10.4994307M12 10.4994307C12 9.67058824 11.3285281 9 10.5011381 9 9.67147193 9 9 9.67058824 9 10.4994307 9 11.3282732 9.67147193 12 10.5011381 12 11.3285281 12 12 11.3282732 12 10.4994307M18 10.4994307C18 9.67058824 17.3285281 9 16.5 9 15.6714719 9 15 9.67058824 15 10.4994307 15 11.3282732 15.6714719 12 16.5 12 17.3285281 12 18 11.3282732 18 10.4994307"/>
    <path stroke="#264C6D" stroke-width="2" d="M4 20L15 20M9 24L20 24M50 50L61 50M47 53L58 53"/>
    <path stroke="#00B6D7" stroke-linecap="round" stroke-linejoin="round" stroke-width="2" d="M17.2035258,46.7964465 L17.2035258,46.7964465 C14.2654914,43.8583752 14.2654914,39.0946673 17.2035258,36.1575991 L22.1557539,31.2043058 C25.0947915,28.2652314 29.8574366,28.2652314 32.7964742,31.2043058 C35.7345086,34.141374 35.7345086,38.9050819 32.7964742,41.8431532 L27.8422399,46.7964465 C24.9052085,49.7345178 20.1415603,49.7345178 17.2035258,46.7964465 Z"/>
    <path stroke="#00B6D7" stroke-linecap="round" stroke-linejoin="round" stroke-width="2" d="M32.2035258 42.7964742L32.2035258 42.7964742C29.2654914 39.8584397 29.2654914 35.0947915 32.2035258 32.156757L37.1557539 27.2035258C40.0947915 24.2654914 44.8574366 24.2654914 47.7964742 27.2035258 50.7345086 30.1415603 50.7345086 34.9052085 47.7964742 37.843243L42.8422399 42.7964742C39.9052085 45.7345086 35.1415603 45.7345086 32.2035258 42.7964742zM32 0L32 21"/>
    <polyline stroke="#00B6D7" stroke-linecap="round" stroke-linejoin="round" stroke-width="2" points="26 15 32 21 38 15"/>
  </g>
</svg>
