<svg xmlns="http://www.w3.org/2000/svg" width="21" height="21" viewBox="0 0 21 21">
  <path fill="#324662" fill-rule="evenodd" d="M13.8460644,8.46379088 C13.7635989,8.38366204 13.7635989,8.25358276 13.8460644,8.17345391 L14.8260116,7.22127354 C14.9084771,7.1411447 15.0423496,7.1411447 15.1248151,7.22127354 L16.1047623,8.17345391 C16.1872278,8.25358276 16.1872278,8.38366204 16.1047623,8.46379088 L15.1248151,9.41597126 C15.0423496,9.4961001 14.9084771,9.4961001 14.8260116,9.41597126 L13.8460644,8.46379088 Z M16.3899644,13.4726759 L15.1347752,12.2520119 C15.0287482,12.1500297 15.0287482,11.9835282 15.1347752,11.8794648 L16.3899644,10.6588008 C16.4959915,10.5568186 16.6673484,10.5568186 16.7744464,10.6588008 L18.0296356,11.8794648 C18.1356626,11.9835282 18.1356626,12.1500297 18.0296356,12.2520119 L16.7744464,13.4726759 C16.6673484,13.5756987 16.4959915,13.5756987 16.3899644,13.4726759 Z M18.0697973,16.5294351 L17.2911945,15.772894 C17.2247937,15.7083746 17.2247937,15.6053518 17.2911945,15.5418731 L18.0697973,14.7842914 C18.1351271,14.7208127 18.2422252,14.7208127 18.307555,14.7842914 L19.0861578,15.5418731 C19.1514876,15.6053518 19.1514876,15.7083746 19.0861578,15.772894 L18.307555,16.5294351 C18.2422252,16.5929138 18.1351271,16.5929138 18.0697973,16.5294351 Z M16.6108006,4.9094004 L15.7518742,4.07377106 C15.6790475,4.00404856 15.6790475,3.88957879 15.7518742,3.81881566 L16.6108006,2.98422696 C16.6825563,2.91346383 16.8003641,2.91346383 16.8721198,2.98422696 L17.7321172,3.81881566 C17.8049439,3.88957879 17.8049439,4.00404856 17.7321172,4.07377106 L16.8721198,4.9094004 C16.8003641,4.97912289 16.6825563,4.97912289 16.6108006,4.9094004 Z M18.218021,8.49990089 L17.3590947,7.66427156 C17.286268,7.59454906 17.286268,7.48007929 17.3590947,7.41035679 L18.218021,6.57472745 C18.2897767,6.50500496 18.4075846,6.50500496 18.4793403,6.57472745 L19.3393376,7.41035679 C19.4110933,7.48007929 19.4110933,7.59454906 19.3393376,7.66427156 L18.4793403,8.49990089 C18.4075846,8.56962339 18.2897767,8.56962339 18.218021,8.49990089 Z M19.8240634,11.9351388 L18.966208,11.1015907 C18.8923104,11.0297869 18.8923104,10.9163578 18.966208,10.8455946 L19.8240634,10.0099653 C19.8968901,9.94024281 20.013627,9.94024281 20.0864536,10.0099653 L20.94538,10.8455946 C21.0182067,10.9163578 21.0182067,11.0297869 20.94538,11.1015907 L20.0864536,11.9351388 C20.013627,12.0059019 19.8968901,12.0059019 19.8240634,11.9351388 Z M13.404392,1.82215064 L11.3995165,3.7660555 C11.2228047,3.93671952 10.9379239,3.93671952 10.7612121,3.7660555 L9.4342673,2.47462834 C9.39464102,2.43716551 9.32824023,2.43716551 9.28861395,2.47566898 L5.78972063,5.8691774 C5.74902337,5.90976214 5.75116533,5.9722002 5.78972063,6.0086224 L8.31616365,8.46139742 C8.49180445,8.63310208 8.49180445,8.90887017 8.31509267,9.08057483 L7.41011414,9.95887017 C7.37155884,9.99737364 7.37155884,10.0598117 7.41011414,10.0983152 L9.93548617,12.5490089 C10.112198,12.7186323 10.112198,12.9964817 9.93655715,13.1681863 L9.19436766,13.8903865 C9.1536704,13.9299306 9.15474138,13.9902874 9.19329668,14.0277502 L12.693261,17.4243806 C12.7328873,17.462884 12.7950041,17.462884 12.8346304,17.4243806 L14.5535541,15.7562438 C14.7291949,15.5866204 15.0130048,15.5866204 15.1897165,15.7562438 L17.5780031,18.0768583 C17.7675666,18.2620912 17.74936,18.566997 17.5383768,18.729336 C15.6941484,20.1508424 13.3583399,21 10.8190451,21 C4.84725778,21 0,16.296333 0,10.5 C0,4.703667 4.84725778,0 10.8190451,0 C12.7553779,0 14.5739028,0.494301288 16.1471731,1.36010902 C16.4063504,1.50163528 16.4545445,1.84608523 16.2446323,2.05004955 L13.404392,1.82215064 Z M16.5691394,18.3359762 L14.8705644,16.6855302 L13.4718638,18.0414767 C13.0820269,18.4233895 12.4458645,18.4233895 12.0560276,18.0414767 L8.55820524,14.6469277 C8.16408441,14.2670961 8.16515539,13.6510406 8.55713426,13.2712091 L8.98124254,12.8591179 L6.77288073,10.7154113 C6.38411481,10.3355798 6.38411481,9.72160555 6.77288073,9.34177403 L7.36084903,8.77046581 L5.15248722,6.6277998 C4.76157934,6.24588702 4.7637213,5.63399405 5.15248722,5.25208127 L8.65352251,1.85441031 C9.04657235,1.47770069 9.67630889,1.47770069 10.0693587,1.85545094 L11.0814353,2.83780971 L12.7671586,1.19985134 L12.91067,1.10931615 L12.1288543,0.958424182 C11.7004621,0.903270565 11.263502,0.874132805 10.8190451,0.874132805 C5.34312176,0.874132805 0.899623627,5.18860258 0.899623627,10.5 C0.899623627,15.8124381 5.34312176,20.1248266 10.8190451,20.1248266 C12.85605,20.1248266 14.7495436,19.5306244 16.3238849,18.5087215 L16.5691394,18.3359762 Z M9.45450883,7.12355798 L8.50669108,6.201556 C8.42636754,6.12454906 8.42636754,5.99759167 8.50669108,5.92058474 L9.45450883,4.99858276 C9.53483237,4.92053518 9.66442101,4.92053518 9.74367357,4.99858276 L10.6925623,5.92058474 C10.7728858,5.99759167 10.7728858,6.12454906 10.6925623,6.201556 L9.74367357,7.12355798 C9.66442101,7.20056492 9.53483237,7.20056492 9.45450883,7.12355798 Z M11.0940729,11.0264569 L10.100203,10.0617889 C10.0177375,9.97957879 10.0177375,9.84845887 10.100203,9.7672894 L11.0940729,8.80262141 C11.1776094,8.7204113 11.3136239,8.7204113 11.3960894,8.80262141 L12.3899593,9.7672894 C12.4734958,9.84845887 12.4734958,9.97957879 12.3899593,10.0617889 L11.3960894,11.0264569 C11.3136239,11.1076264 11.1776094,11.1076264 11.0940729,11.0264569 Z M12.8639753,15.0635976 L11.890454,14.1176611 C11.8090595,14.0385728 11.8090595,13.9095342 11.890454,13.8294054 L12.8639753,12.8834688 C12.9453698,12.8043806 13.0792424,12.8043806 13.1606369,12.8834688 L14.1341582,13.8294054 C14.2155527,13.9095342 14.2155527,14.0385728 14.1341582,14.1176611 L13.1606369,15.0635976 C13.0792424,15.1437265 12.9453698,15.1437265 12.8639753,15.0635976 Z M13.2354984,5.85825074 L12.3658622,5.0132557 C12.2930356,4.94145193 12.2930356,4.82594153 12.3658622,4.75413776 L13.2354984,3.90914272 C13.3083251,3.83837958 13.4272039,3.83837958 13.5011016,3.90914272 L14.3707378,4.75413776 C14.4435644,4.82594153 14.4435644,4.94145193 14.3707378,5.0132557 L13.5011016,5.85825074 C13.4272039,5.92901388 13.3083251,5.92901388 13.2354984,5.85825074 Z"/>
</svg>
