<?xml version="1.0" encoding="UTF-8" standalone="no"?>
<svg width="65px" height="65px" viewBox="0 0 65 65" version="1.1" xmlns="http://www.w3.org/2000/svg" xmlns:xlink="http://www.w3.org/1999/xlink">
    <!-- Generator: Sketch 3.8.3 (29802) - http://www.bohemiancoding.com/sketch -->
    <title>Group 6</title>
    <desc>Created with Sketch.</desc>
    <defs></defs>
    <g id="Page-1" stroke="none" stroke-width="1" fill="none" fill-rule="evenodd">
        <g id="colored-icons-2" transform="translate(-934.000000, -386.000000)">
            <g id="Group-6" transform="translate(934.000000, 386.000000)">
                <path d="M4.05101984,24.0731707 C-0.930540868,28.7656942 3.2657037,41.5832319 13.2806091,51.7317073 C20.3631465,58.6492476 28.7315605,62.9994886 34.8163174,63 C37.8360589,63 39.920863,62.2590221 40.9693769,60.9512195 L44.0459067,57.8780488 C44.0459067,57.7267326 35.8418273,49.6829268 35.8418273,49.6829268 C36.0360585,49.6383626 32.7652976,52.7560976 32.7652976,52.7560976 C32.1338379,53.1294989 31.0099902,53.5447329 29.6887678,53.7804878 C26.3511957,53.5452442 22.2619972,50.2786859 17.814453,46.8242188 C15.7022916,43.7295455 13.2640555,41.1635366 12.2550992,38.9661465 C11.0599002,35.5057175 11.213059,33.5449764 12.2550992,32.2682927 L15.3316289,29.195122 C15.3114663,29.0392782 7.12754959,21 7.12754959,21 C6.93588099,21 4.05101984,24.0731707 4.05101984,24.0731707 Z M12,53 C0.718677667,41.9520476 -3.24558842,28.4052364 3,22 L5,20 C5.84881534,19.3003336 6.56972858,19 7,19 C8.1099302,19 8.83033895,19.3003336 9,20 L17,27 C17.4010842,27.8747312 17.7002456,28.595027 18,29 C17.7002456,30.1345521 17.4020932,30.8543432 17,31 L14,34 C13.6956205,34.5638415 13.7284122,36.1836238 15,38 C15.4179422,40.5311416 17.2124058,43.1180485 20,45 C22.9398571,48.84912 26.9646618,51.1245885 30,51 C30.2852013,51.1240837 30.8224809,50.949436 31,51 L34,48 C34.1561371,47.6139666 34.8760413,47.3181758 36,47 C36.4066577,47.3181758 37.1250485,47.6139666 38,48 L45,56 C45.7023521,56.194926 46,56.9152219 46,58 C46,58.4522231 45.7023521,59.172519 45,60 L43,62 C40.8577546,64.0182373 38.1920404,65 35,65 C28.0669679,64.9994952 19.2106824,60.4505772 12,53 Z" id="Fill-62" fill="#374D6B"></path>
                <path d="M28,33 L29,34 C32.4639442,37.6988721 37.6171569,40.77099 43,40.7714844 C53.4772269,40.7714844 62.833065,32.1791601 62.833065,21.7024784 C62.833065,11.2257967 53.4772269,2 43,2 C32.5237618,2.00098867 24,10.5238126 24,21 L24,37.7501297 L28,33 Z M22,43 L22,21 C22,9.63682692 31.6454167,0.00100060502 44,0 C55.3555848,0 65,9.63632662 65,21 C65,33.3251501 55.3555848,42.9614767 44,43 C37.8049425,42.9609764 32.337487,40.6876018 28,37 L22,43 Z" id="Fill-63" fill="#374D6B"></path>
                <path d="M43.52,9 C35.8322376,9.00102962 30,14.8322905 30,21.48 C30,29.1666799 35.8322376,34.9989704 43.52,35 C50.1687921,35 56,29.1682243 56,22.52 C56,14.8317757 50.1687921,9 43.52,9 M43,37 L43,37 C34.7290756,36.9989917 28,30.26936 28,22 C28,13.7296316 34.7290756,7.00100834 43,7 C51.2714286,7 58,13.7291275 58,22 C58,30.2708725 51.2714286,37 43,37" id="Fill-64" fill="#00B4D5"></path>
                <polygon id="Fill-65" fill="#00B4D5" points="38 22 40 22 40 20 38 20"></polygon>
                <polygon id="Fill-66" fill="#00B4D5" points="42 22 44 22 44 20 42 20"></polygon>
                <polygon id="Fill-67" fill="#00B4D5" points="46 22 48 22 48 20 46 20"></polygon>
            </g>
        </g>
    </g>
</svg>