<?xml version="1.0" encoding="UTF-8" standalone="no"?>
<svg width="48px" height="66px" viewBox="0 0 48 66" version="1.1" xmlns="http://www.w3.org/2000/svg" xmlns:xlink="http://www.w3.org/1999/xlink">
    <!-- Generator: Sketch 3.8.3 (29802) - http://www.bohemiancoding.com/sketch -->
    <title>Group</title>
    <desc>Created with Sketch.</desc>
    <defs></defs>
    <g id="Page-1" stroke="none" stroke-width="1" fill="none" fill-rule="evenodd">
        <g id="colored-icons-2" transform="translate(-752.000000, -169.000000)">
            <g id="Group" transform="translate(752.000000, 169.000000)">
                <path d="M16,21 L24,29 L33,21 L33,18 L16,18 L16,21 Z M24,32 L14,22 L14,16 L35,16 L35,22 L24,32 Z" id="Fill-47" fill="#00B4D5"></path>
                <polygon id="Fill-48" fill="#00B4D5" points="39 57 33 57 24 48 15 57 9 57 9 43 19 33 9 24 9 9 11 9 11 23 22 33 11 44 11 55 14 55 24 45 34 55 37 55 37 44 26 33 37 23 37 9 39 9 39 24 29 33 39 43"></polygon>
                <polygon id="Fill-49" fill="#374D6B" points="41 57 43 57 43 9 41 9"></polygon>
                <polygon id="Fill-50" fill="#374D6B" points="5 57 7 57 7 9 5 9"></polygon>
                <path d="M2,5 L46,5 L46,2 L2,2 L2,5 Z M0,7 L48,7 L48,0 L0,0 L0,7 Z" id="Fill-51" fill="#374D6B"></path>
                <path d="M2,64 L46,64 L46,61 L2,61 L2,64 Z M0,66 L48,66 L48,59 L0,59 L0,66 Z" id="Fill-52" fill="#374D6B"></path>
            </g>
        </g>
    </g>
</svg>