<svg xmlns="http://www.w3.org/2000/svg" xmlns:xlink="http://www.w3.org/1999/xlink" width="25" height="18" viewBox="0 0 25 18">
  <defs>
    <polygon id="ico-card-splash4-sm-a" points="4 0 16 0 20 5 0 5"/>
    <polygon id="ico-card-splash4-sm-b" points="0 4 20 4 10 15.116"/>
  </defs>
  <g fill="none" fill-rule="evenodd">
    <polygon fill="#374D6B" fill-rule="nonzero" points="1 8 20 8 20 7 1 7"/>
    <path fill="#374D6B" fill-rule="nonzero" d="M1.72942381,17 L19.2703762,17 C19.6676778,17 19.9999,16.6511667 19.9999,16.209 L19.9999,4.791 C19.9999,4.34883333 19.6676778,4 19.2703762,4 L1.72942381,4 C1.33212222,4 0.9999,4.34883333 0.9999,4.791 L0.9999,16.209 C0.9999,16.6511667 1.33212222,17 1.72942381,17 Z M1.72942381,18 C0.768630159,18 -0.0001,17.1928333 -0.0001,16.209 L-0.0001,4.791 C-0.0001,3.80716667 0.768630159,3 1.72942381,3 L19.2703762,3 C20.2311698,3 20.9999,3.80716667 20.9999,4.791 L20.9999,16.209 C20.9999,17.1928333 20.2311698,18 19.2703762,18 L1.72942381,18 Z"/>
    <g transform="translate(5)">
      <use fill="#FFF" xlink:href="#ico-card-splash4-sm-a"/>
      <path stroke="#374D6B" d="M4.24031242,0.5 L1.04031242,4.5 L18.9596876,4.5 L15.7596876,0.5 L4.24031242,0.5 Z"/>
      <use fill="#FFF" xlink:href="#ico-card-splash4-sm-b"/>
      <path stroke="#374D6B" d="M1.12234586,4.5 L10,14.3684667 L18.8776541,4.5 L1.12234586,4.5 Z"/>
      <path stroke="#374D6B" d="M7.06396661 4.5L10 13.5033563 12.9360334 4.5 7.06396661 4.5zM10.9603278.5L13.5 4.12810317 16.0396722.5 10.9603278.5zM4.96032778.5L7.5 4.12810317 10.0396722.5 4.96032778.5z"/>
    </g>
  </g>
</svg>
