<?xml version="1.0" encoding="UTF-8" standalone="no"?>
<svg width="67px" height="67px" viewBox="0 0 67 67" version="1.1" xmlns="http://www.w3.org/2000/svg" xmlns:xlink="http://www.w3.org/1999/xlink">
    <!-- Generator: Sketch 3.8.3 (29802) - http://www.bohemiancoding.com/sketch -->
    <title>Page 1</title>
    <desc>Created with Sketch.</desc>
    <defs>
        <polygon id="path-1" points="0 66.125 66.174 66.125 66.174 0 0 0"></polygon>
    </defs>
    <g id="Page-1" stroke="none" stroke-width="1" fill="none" fill-rule="evenodd">
        <g id="epay-service-index2" transform="translate(-980.000000, -983.000000)">
            <g id="Group-52" transform="translate(0.000000, 900.000000)">
                <g id="Page-1" transform="translate(980.000000, 83.000000)">
                    <path d="M11.37255,13.75 C9.06255,13.75 7.18355,15.629 7.18355,17.939 C7.18355,20.248 9.06255,22.127 11.37255,22.127 C13.68255,22.127 15.56155,20.248 15.56155,17.939 C15.56155,15.629 13.68255,13.75 11.37255,13.75 L11.37255,13.75 Z M11.37255,24.377 C7.82205,24.377 4.93355,21.4885 4.93355,17.939 C4.93355,14.3885 7.82205,11.5 11.37255,11.5 C14.92305,11.5 17.81155,14.3885 17.81155,17.939 C17.81155,21.4885 14.92305,24.377 11.37255,24.377 L11.37255,24.377 Z" id="Fill-1" fill="#202020"></path>
                    <mask id="mask-2" fill="white">
                        <use xlink:href="#path-1"></use>
                    </mask>
                    <g id="Clip-4"></g>
                    <polygon id="Fill-3" fill="#202020" mask="url(#mask-2)" points="10.2475 66.125 12.4975 66.125 12.4975 50.1845 10.2475 50.1845"></polygon>
                    <path d="M6.8042,66.125 L4.5542,66.125 L4.5542,48.2735 L0.0002,48.2735 L0.0002,33.8645 C0.0002,32.043 0.7092,30.331 1.9972,29.0435 C3.2852,27.7555 4.9972,27.046 6.8177,27.046 L16.6197,27.046 L16.6197,29.296 L6.8177,29.296 C5.5982,29.296 4.4512,29.771 3.5877,30.634 C2.7252,31.497 2.2502,32.644 2.2502,33.8645 L2.2502,46.0235 L6.8042,46.0235 L6.8042,66.125 Z" id="Fill-5" fill="#202020" mask="url(#mask-2)"></path>
                    <polygon id="Fill-6" fill="#202020" mask="url(#mask-2)" points="10.2475 34.172 12.4975 34.172 12.4975 31.671 10.2475 31.671"></polygon>
                    <polygon id="Fill-7" fill="#202020" mask="url(#mask-2)" points="18.19045 66.125 15.94045 66.125 15.94045 46.0235 21.61945 46.0235 21.61945 48.2735 18.19045 48.2735"></polygon>
                    <path d="M54.80125,13.75 C52.49175,13.75 50.61275,15.629 50.61275,17.939 C50.61275,20.248 52.49175,22.127 54.80125,22.127 C57.11075,22.127 58.99025,20.248 58.99025,17.939 C58.99025,15.629 57.11075,13.75 54.80125,13.75 M54.80125,24.377 C51.25075,24.377 48.36275,21.4885 48.36275,17.939 C48.36275,14.3885 51.25075,11.5 54.80125,11.5 C58.35175,11.5 61.24025,14.3885 61.24025,17.939 C61.24025,21.4885 58.35175,24.377 54.80125,24.377" id="Fill-8" fill="#202020" mask="url(#mask-2)"></path>
                    <polygon id="Fill-9" fill="#202020" mask="url(#mask-2)" points="53.6765 66.125 55.9265 66.125 55.9265 50.1845 53.6765 50.1845"></polygon>
                    <path d="M61.6196,66.125 L59.3696,66.125 L59.3696,46.0235 L63.9236,46.0235 L63.9236,33.8645 C63.9236,32.644 63.4486,31.497 62.5861,30.634 C61.7231,29.771 60.5761,29.296 59.3561,29.296 L49.5541,29.296 L49.5541,27.046 L59.3561,27.046 C61.1771,27.046 62.8891,27.7555 64.1771,29.0435 C65.4651,30.331 66.1736,32.043 66.1736,33.8645 L66.1736,48.2735 L61.6196,48.2735 L61.6196,66.125 Z" id="Fill-10" fill="#202020" mask="url(#mask-2)"></path>
                    <polygon id="Fill-11" fill="#202020" mask="url(#mask-2)" points="53.6765 34.172 55.9265 34.172 55.9265 31.671 53.6765 31.671"></polygon>
                    <polygon id="Fill-12" fill="#202020" mask="url(#mask-2)" points="50.2334 66.125 47.9834 66.125 47.9834 48.2735 44.5544 48.2735 44.5544 46.0235 50.2334 46.0235"></polygon>
                    <path d="M33.0869,2.25 C30.0709,2.25 27.6179,4.7035 27.6179,7.719 C27.6179,10.735 30.0709,13.1885 33.0869,13.1885 C36.1024,13.1885 38.5564,10.735 38.5564,7.719 C38.5564,4.7035 36.1024,2.25 33.0869,2.25 M33.0869,15.4385 C28.8304,15.4385 25.3679,11.9755 25.3679,7.719 C25.3679,3.463 28.8304,0 33.0869,0 C37.3434,0 40.8064,3.463 40.8064,7.719 C40.8064,11.9755 37.3434,15.4385 33.0869,15.4385" id="Fill-13" fill="#202020" mask="url(#mask-2)"></path>
                    <polygon id="Fill-14" fill="#202020" mask="url(#mask-2)" points="31.962 66.125 34.212 66.125 34.212 46.342 31.962 46.342"></polygon>
                    <polygon id="Fill-15" fill="#202020" mask="url(#mask-2)" points="24.8965 66.125 27.1465 66.125 27.1465 38.806 24.8965 38.806"></polygon>
                    <polygon id="Fill-16" fill="#202020" mask="url(#mask-2)" points="39.0275 66.125 41.2775 66.125 41.2775 38.806 39.0275 38.806"></polygon>
                    <path d="M46.9292,43.6992 L40.1522,43.6992 L40.1522,41.4492 L44.6792,41.4492 L44.6792,26.0887 C44.6792,24.5022 44.0612,23.0107 42.9397,21.8882 C41.8172,20.7662 40.3257,20.1482 38.7392,20.1482 L38.0527,20.1482 L33.0867,25.1147 L28.1207,20.1482 L27.4347,20.1482 C25.8482,20.1482 24.3567,20.7662 23.2342,21.8882 C22.1127,23.0107 21.4947,24.5022 21.4947,26.0887 L21.4947,41.4492 L26.0217,41.4492 L26.0217,43.6992 L19.2447,43.6992 L19.2447,26.0887 C19.2447,23.9017 20.0967,21.8447 21.6432,20.2972 C23.1907,18.7502 25.2472,17.8982 27.4347,17.8982 L29.0527,17.8982 L33.0867,21.9327 L37.1212,17.8982 L38.7392,17.8982 C40.9267,17.8982 42.9832,18.7502 44.5302,20.2972 C46.0772,21.8447 46.9292,23.9017 46.9292,26.0887 L46.9292,43.6992 Z" id="Fill-17" fill="#202020" mask="url(#mask-2)"></path>
                    <polygon id="Fill-18" fill="#202020" mask="url(#mask-2)" points="31.962 29.531 34.212 29.531 34.212 27.0305 31.962 27.0305"></polygon>
                    <polygon id="Fill-19" fill="#202020" mask="url(#mask-2)" points="31.962 34.5305 34.212 34.5305 34.212 32.0305 31.962 32.0305"></polygon>
                </g>
            </g>
        </g>
    </g>
</svg>