<?xml version="1.0" encoding="UTF-8" standalone="no"?>
<svg width="62px" height="62px" viewBox="0 0 62 62" version="1.1" xmlns="http://www.w3.org/2000/svg" xmlns:xlink="http://www.w3.org/1999/xlink">
    <!-- Generator: Sketch 3.7 (28169) - http://www.bohemiancoding.com/sketch -->
    <title>Group 80</title>
    <desc>Created with Sketch.</desc>
    <defs></defs>
    <g id="Page-1" stroke="none" stroke-width="1" fill="none" fill-rule="evenodd">
        <g id="epay-web-services-cards" transform="translate(-653.000000, -1599.000000)">
            <g id="Group-80" transform="translate(653.000000, 1599.000000)">
                <polygon id="Fill-1" fill="#374D6B" points="6 41 56 41 56 39 6 39"></polygon>
                <polygon id="Fill-2" fill="#374D6B" points="0 30 0 48 10 48 10 46 2 46 2 32 60 32 60 46 52 46 52 48 62 48 62 30"></polygon>
                <g id="Group-79" transform="translate(9.000000, 39.000000)" fill="#00B4D5">
                    <path d="M0,23 L44,23 L44,0 L0,0 L0,23 Z M2,21 L42,21 L42,2 L2,2 L2,21 Z" id="Fill-3"></path>
                    <path d="M21.5002572,7 C19.0186868,7 17,9.01857143 17,11.5 C17,13.9814286 19.0186868,16 21.5002572,16 C23.9818275,16 26,13.9814286 26,11.5 C26,9.01857143 23.9818275,7 21.5002572,7 L21.5002572,7 Z M21.5002453,18 C17.9160346,18 15,15.0840755 15,11.5 C15,7.91592453 17.9160346,5 21.5002453,5 C25.084456,5 28,7.91592453 28,11.5 C28,15.0840755 25.084456,18 21.5002453,18 L21.5002453,18 Z" id="Fill-4"></path>
                    <path d="M43,8 C39.1402264,8 36,4.85977358 36,1 L38.3773585,1 C38.3773585,3.5490566 40.4509434,5.62264151 43,5.62264151 L43,8 Z" id="Fill-6"></path>
                    <path d="M38.3773585,23 L36,23 C36,19.1402264 39.1402264,16 43,16 L43,18.3773585 C40.4509434,18.3773585 38.3773585,20.4509434 38.3773585,23" id="Fill-8"></path>
                    <path d="M0,8 L0,5.62264151 C2.5490566,5.62264151 4.62264151,3.5490566 4.62264151,1 L7,1 C7,4.85977358 3.85977358,8 0,8" id="Fill-10"></path>
                    <path d="M7,23 L4.62264151,23 C4.62264151,20.4509434 2.5490566,18.3773585 0,18.3773585 L0,16 C3.85977358,16 7,19.1402264 7,23" id="Fill-12"></path>
                    <polygon id="Fill-14" points="31 13 37 13 37 11 31 11"></polygon>
                    <polygon id="Fill-16" points="6 13 12 13 12 11 6 11"></polygon>
                </g>
                <path d="M6,25 L26,25 L26,10 L6,10 L6,25 Z M4,27 L28,27 L28,8 L4,8 L4,27 Z" id="Fill-17" fill="#374D6B"></path>
                <polygon id="Fill-18" fill="#374D6B" points="20 20 22 20 22 16 20 16"></polygon>
                <polygon id="Fill-19" fill="#374D6B" points="15 20 17 20 17 16 15 16"></polygon>
                <polygon id="Fill-20" fill="#374D6B" points="10 20 12 20 12 16 10 16"></polygon>
                <path d="M2,25 L31,25 L31,2 L2,2 L2,25 Z M0,27 L33,27 L33,0 L0,0 L0,27 Z" id="Fill-21" fill="#374D6B"></path>
                <path d="M37,5 L40,5 L40,2 L37,2 L37,5 Z M35,7 L42,7 L42,0 L35,0 L35,7 Z" id="Fill-22" fill="#374D6B"></path>
                <path d="M47,5 L50,5 L50,2 L47,2 L47,5 Z M45,7 L52,7 L52,0 L45,0 L45,7 Z" id="Fill-23" fill="#374D6B"></path>
                <path d="M57,5 L60,5 L60,2 L57,2 L57,5 Z M55,7 L62,7 L62,0 L55,0 L55,7 Z" id="Fill-24" fill="#374D6B"></path>
                <path d="M37,15 L40,15 L40,12 L37,12 L37,15 Z M35,17 L42,17 L42,10 L35,10 L35,17 Z" id="Fill-25" fill="#374D6B"></path>
                <path d="M47,15 L50,15 L50,12 L47,12 L47,15 Z M45,17 L52,17 L52,10 L45,10 L45,17 Z" id="Fill-26" fill="#374D6B"></path>
                <path d="M57,15 L60,15 L60,12 L57,12 L57,15 Z M55,17 L62,17 L62,10 L55,10 L55,17 Z" id="Fill-27" fill="#374D6B"></path>
                <path d="M37,25 L40,25 L40,22 L37,22 L37,25 Z M35,27 L42,27 L42,20 L35,20 L35,27 Z" id="Fill-28" fill="#374D6B"></path>
                <path d="M47,25 L60,25 L60,22 L47,22 L47,25 Z M45,27 L62,27 L62,20 L45,20 L45,27 Z" id="Fill-29" fill="#374D6B"></path>
            </g>
        </g>
    </g>
</svg>