<svg xmlns="http://www.w3.org/2000/svg" width="24" height="15" viewBox="0 0 24 15">
  <g fill="#374D6B">
    <path d="M16.7928932,1 L1.35,1 C1.15714237,1 1,1.15714237 1,1.35 L1,13.65 C1,13.8428576 1.15714237,14 1.35,14 L22.65,14 C22.8428576,14 23,13.8428576 23,13.65 L23,7.20710678 L16.7928932,1 Z M24,13.65 C24,14.3951424 23.3951424,15 22.65,15 L1.35,15 C0.604857625,15 0,14.3951424 0,13.65 L0,1.35 C0,0.604857625 0.604857625,0 1.35,0 L17.2071068,0 L24,6.79289322 L24,13.65 Z"/>
    <polygon points="7 8 7 9 3 9 3 10 8 10 8 7 4 7 4 6 8 6 8 5 3 5 3 8"/>
    <polygon points="5 4 5 11 6 11 6 4"/>
    <polygon points="15 5 10 5 10 6 15 6"/>
    <polygon points="23.987 7 16.987 7 16.987 8 23.987 8"/>
    <polygon points="16.987 0 16.987 7 17.987 7 17.987 0"/>
    <polygon points="10 8 14 8 14 7 10 7"/>
    <polygon points="10 10 13 10 13 9 10 9"/>
  </g>
</svg>
