<?xml version="1.0" encoding="UTF-8" standalone="no"?>
<svg width="56px" height="67px" viewBox="0 0 56 67" version="1.1" xmlns="http://www.w3.org/2000/svg" xmlns:xlink="http://www.w3.org/1999/xlink">
    <!-- Generator: Sketch 3.8.3 (29802) - http://www.bohemiancoding.com/sketch -->
    <title>Group 17</title>
    <desc>Created with Sketch.</desc>
    <defs></defs>
    <g id="All-pages" stroke="none" stroke-width="1" fill="none" fill-rule="evenodd">
        <g id="colored-icons" transform="translate(-719.000000, -660.000000)">
            <g id="Group-25" transform="translate(224.000000, 168.000000)">
                <g id="Group-17" transform="translate(495.000000, 492.000000)">
                    <path d="M2,65 L40,65 L40,17 L2,17 L2,65 Z M0,67 L42,67 L42,15 L0,15 L0,67 Z" id="Fill-54" fill="#374D6B"></path>
                    <polygon id="Fill-55" fill="#374D6B" points="53.4192747 67 48 61.3159266 42.5807253 67 41 65.3420367 48 58 55 65.3420367"></polygon>
                    <polygon id="Fill-56" fill="#374D6B" points="48 25 41 17.6579633 42.5807253 16 48 21.6840734 53.4192747 16 55 17.6579633"></polygon>
                    <path d="M42,65 L54,65 L54,17 L42,17 L42,65 Z M40,67 L56,67 L56,15 L40,15 L40,67 Z" id="Fill-57" fill="#374D6B"></path>
                    <path d="M42,16 L39.7752809,16 L39.7752809,11.0387597 C39.7752809,8.68663566 38.8621573,6.47541085 37.2054831,4.81190698 C35.5478202,3.1484031 33.3438652,2.23255814 31,2.23255814 C28.6561348,2.23255814 26.4521798,3.1484031 24.7945169,4.81190698 C23.1373483,6.47491473 22.2247191,8.68613953 22.2247191,11.0387597 L22.2247191,16 L20,16 L20,11.0387597 C20,8.09029457 21.144,5.31795349 23.2218876,3.23324031 C25.2992809,1.14803101 28.0618876,0 31,0 C33.9381124,0 36.7007191,1.14803101 38.7781124,3.23324031 C40.856,5.31844961 42,8.0907907 42,11.0387597 L42,16 Z" id="Fill-58" fill="#374D6B"></path>
                    <path d="M32,22 L29.7752809,22 L29.7752809,10.9385475 C29.7752809,8.60826816 28.8621573,6.41711732 27.2054831,4.76822346 C25.5478202,3.12031285 23.3438652,2.2122905 21,2.2122905 C18.6561348,2.2122905 16.4521798,3.12031285 14.7945169,4.76822346 C13.1378427,6.4166257 12.2247191,8.60777654 12.2247191,10.9385475 L12.2247191,22 L10,22 L10,10.9385475 C10,8.01734078 11.144,5.2701676 13.2218876,3.20437989 C15.2992809,1.13760894 18.0618876,0 21,0 C23.9381124,0 26.7007191,1.13760894 28.7781124,3.20437989 C30.856,5.27065922 32,8.0178324 32,10.9385475 L32,22 Z" id="Fill-59" fill="#374D6B"></path>
                    <polygon id="Fill-60" fill="#374D6B" points="7 23 14 23 14 21 7 21"></polygon>
                    <polygon id="Fill-61" fill="#374D6B" points="28 23 35 23 35 21 28 21"></polygon>
                    <path d="M22,32.1176471 C18.2052595,32.1176471 15.1176471,35.0971838 15.1176471,38.7592162 C15.1176471,41.401152 16.7564567,43.7726944 19.2065744,44.8235294 L22,39.0665998 L24.7934256,44.8235294 C27.2435433,43.7721734 28.8823529,41.401152 28.8823529,38.7592162 C28.8823529,35.0971838 25.7947405,32.1176471 22,32.1176471 L22,32.1176471 Z M23.4457391,48 L22,44.9008322 L20.5542609,48 L19.5984348,47.7349706 C15.7135652,46.656521 13,43.0786242 13,39.0340453 C13,34.0524355 17.0372174,30 22,30 C26.9627826,30 31,34.0524355 31,39.0340453 C31,43.0786242 28.2864348,46.656521 24.4015652,47.7349706 L23.4457391,48 Z" id="Fill-62" fill="#00B4D5"></path>
                    <polygon id="Fill-63" fill="#00B4D5" points="22.9995557 57 21 57 21.0004443 52 23 52"></polygon>
                    <path d="M19,51 L25,51 L22,42.5701855 L19,51 Z M28,53 L16,53 L22.0002431,40 L28,53 Z" id="Fill-64" fill="#00B4D5"></path>
                    <polygon id="Fill-65" fill="#374D6B" points="47 56 49 56 49 28 47 28"></polygon>
                </g>
            </g>
        </g>
    </g>
</svg>