<?xml version="1.0" encoding="UTF-8" standalone="no"?>
<svg width="48px" height="65px" viewBox="0 0 48 65" version="1.1" xmlns="http://www.w3.org/2000/svg" xmlns:xlink="http://www.w3.org/1999/xlink">
    <!-- Generator: Sketch 3.8.3 (29802) - http://www.bohemiancoding.com/sketch -->
    <title>Group 14</title>
    <desc>Created with Sketch.</desc>
    <defs></defs>
    <g id="All-pages" stroke="none" stroke-width="1" fill="none" fill-rule="evenodd">
        <g id="colored-icons" transform="translate(-880.000000, -495.000000)">
            <g id="Group-25" transform="translate(224.000000, 168.000000)">
                <g id="Group-14" transform="translate(656.000000, 327.000000)">
                    <polygon id="Fill-267" fill="#374D6B" points="23 6 26 6 26 4 23 4"></polygon>
                    <polygon id="Fill-268" fill="#374D6B" points="19 60 28 60 28 58 19 58"></polygon>
                    <path d="M6.75734374,2 C4.13446594,2 2,4.13879668 2,6.76761826 L2,58.2414938 C2,60.8652531 4.13446594,63 6.75734374,63 L41.2451817,63 C43.8675544,63 46,60.8652531 46,58.2414938 L46,6.76761826 C46,4.13879668 43.8675544,2 41.2451817,2 L6.75734374,2 Z M41.0513239,65 L6.95117307,65 C3.11826458,65 0,61.8704633 0,58.023166 L0,6.98586873 C0,3.13355212 3.11826458,0 6.95117307,0 L41.0513239,0 C44.8827342,0 48,3.13355212 48,6.98586873 L48,58.023166 C48,61.8704633 44.8827342,65 41.0513239,65 L41.0513239,65 Z" id="Fill-269" fill="#374D6B"></path>
                    <path d="M7,54 L41,54 L41,10 L7,10 L7,54 Z M5,56 L43,56 L43,8 L5,8 L5,56 Z" id="Fill-270" fill="#00B4D5"></path>
                    <path d="M24,23 C18.4862338,23 14,27.4862338 14,33 C14,38.5137662 18.4862338,43 24,43 C29.5137662,43 34,38.5137662 34,33 C34,27.4862338 29.5137662,23 24,23 M24,45 C17.3830737,45 12,39.6169263 12,33 C12,26.3830737 17.3830737,21 24,21 C30.6169263,21 36,26.3830737 36,33 C36,39.6169263 30.6169263,45 24,45" id="Fill-271" fill="#00B4D5"></path>
                    <polygon id="Fill-272" fill="#00B4D5" points="23.0999766 37 18 32.1732808 19.6118257 30.647792 23.0999766 33.9485431 28.3876676 29 30 30.5250093"></polygon>
                </g>
            </g>
        </g>
    </g>
</svg>