<?xml version="1.0" encoding="UTF-8" standalone="no"?>
<svg width="46px" height="45px" viewBox="0 0 46 45" version="1.1" xmlns="http://www.w3.org/2000/svg" xmlns:xlink="http://www.w3.org/1999/xlink">
    <!-- Generator: Sketch 3.7 (28169) - http://www.bohemiancoding.com/sketch -->
    <title>Group 61</title>
    <desc>Created with Sketch.</desc>
    <defs></defs>
    <g id="Page-1" stroke="none" stroke-width="1" fill="none" fill-rule="evenodd">
        <g id="epay-web-services-cards" transform="translate(-437.000000, -3190.000000)">
            <g id="Group-75" transform="translate(432.000000, 3190.000000)">
                <g id="Group-61" transform="translate(5.000000, 0.000000)">
                    <path d="M31,38 C29.1187845,38 28,36.8802289 28,36 C28,34.1187845 29.1187845,33 31,33 C31.8812155,33 33,34.1187845 33,36 C33,36.8802289 31.8812155,38 31,38 M23,25 C11.0735894,25 1,29.253334 1,35 C1,39.746666 11.0735894,44 23,44 C35.9264106,44 46,39.746666 46,35 C46,29.253334 35.9264106,25 23,25" id="Fill-13" fill="#D6EEF5"></path>
                    <path d="M30,34 C28.8967552,34 28,34.8967552 28,36 C28,37.1022616 28.8967552,38 30,38 C31.1032448,38 32,37.1022616 32,36 C32,34.8967552 31.1032448,34 30,34 M30,39 C28.3457482,39 27,37.6542518 27,36 C27,34.3457482 28.3457482,33 30,33 C31.6542518,33 33,34.3457482 33,36 C33,37.6542518 31.6542518,39 30,39 M23,26 C11.0749566,26 1,30.1209567 1,35 C1,39.8790433 11.0749566,44 23,44 C34.9250434,44 45,39.8790433 45,35 C45,30.1209567 34.9250434,26 23,26 M23,45 C10.1029383,45 0,40.6075181 0,35 C0,29.3924819 10.1029383,25 23,25 C35.8970617,25 46,29.3924819 46,35 C46,40.6075181 35.8970617,45 23,45" id="Fill-15" fill="#00B2D4"></path>
                    <path d="M15.4526,34.7619 L15.4526,0.4159" id="Fill-17" fill="#D1D7DD"></path>
                    <path d="M16,35 C15.224,35 15,34.7781927 15,35 L15,0 C15,0.221807277 15.224,0 16,0 C15.776,0 16,0.221807277 16,0 L16,35 C16,34.7781927 15.776,35 16,35" id="Fill-19" fill="#00B2D4"></path>
                    <polygon id="Fill-21" fill="#D6EEF5" points="15 8 15 0 30 0"></polygon>
                    <path d="M16,1 L16,8 L29,1 L16,1 Z M16,9 C15.425058,9 15.3357342,8.97788462 15,9 C15.0975375,8.84903846 15,8.69038462 15,9 L15,0 C15,0.215384615 15.2299831,0 16,0 L30,0 C30.7189325,0 30.9222211,0.146153846 31,0 C31.0423462,0.567307692 30.943782,0.789423077 31,1 L16,9 C15.6899492,8.97884615 15.6016522,9 16,9 L16,9 Z" id="Fill-23" fill="#00B2D4"></path>
                </g>
            </g>
        </g>
    </g>
</svg>