<?xml version="1.0" encoding="UTF-8" standalone="no"?>
<svg width="48px" height="70px" viewBox="0 0 48 70" version="1.1" xmlns="http://www.w3.org/2000/svg" xmlns:xlink="http://www.w3.org/1999/xlink">
    <!-- Generator: Sketch 3.8.3 (29802) - http://www.bohemiancoding.com/sketch -->
    <title>Group 18</title>
    <desc>Created with Sketch.</desc>
    <defs></defs>
    <g id="All-pages" stroke="none" stroke-width="1" fill="none" fill-rule="evenodd">
        <g id="colored-icons" transform="translate(-880.000000, -658.000000)">
            <g id="Group-25" transform="translate(224.000000, 168.000000)">
                <g id="Group-18" transform="translate(656.000000, 490.000000)">
                    <path d="M14,58 L35,58 L35,52 L14,52 L14,58 Z M12,60 L37,60 L37,50 L12,50 L12,60 Z" id="Fill-17" fill="#374D6B"></path>
                    <path d="M37.9647756,24 L37,22.0098498 C42.3515355,19.3538537 45.8095407,13.7468604 45.8095407,7.72420586 C45.8095407,7.32331938 45.6537747,6.94311746 45.3704753,6.65550357 C45.0905832,6.37281458 44.7162581,6.21620291 44.3200283,6.21620291 L40.8693247,6.21620291 L40.8693247,4 L44.3200283,4 C45.3008673,4 46.2242676,4.38660428 46.9198602,5.08938685 C47.6173998,5.7975868 48,6.73233194 48,7.72420586 C48,14.5855701 44.0605806,20.9741443 37.9647756,24" id="Fill-18" fill="#374D6B"></path>
                    <path d="M10.0352244,24 C3.93941942,20.9735773 0,14.5853382 0,7.72429757 C0,6.73239922 0.38260023,5.79763107 1.07819276,5.09138368 C1.77573237,4.3866138 2.69961944,4 3.67997168,4 L7.13067528,4 L7.13067528,6.21625748 L3.67997168,6.21625748 C3.28374192,6.21625748 2.90941676,6.37287301 2.62757766,6.65803147 C2.34622533,6.94318993 2.19045933,7.32340122 2.19045933,7.72429757 C2.19045933,13.7461154 5.64895123,19.3537393 11,22.0107858 L10.0352244,24 Z" id="Fill-19" fill="#374D6B"></path>
                    <path d="M6,68 L42,68 L42,65 L6,65 L6,68 Z M4,70 L45,70 L45,63 L4,63 L4,70 Z" id="Fill-20" fill="#374D6B"></path>
                    <path d="M9,63 L40,63 L40,47 L9,47 L9,63 Z M7,65 L42,65 L42,45 L7,45 L7,65 Z" id="Fill-21" fill="#374D6B"></path>
                    <path d="M16.1202476,45 L31.8802669,45 C31.8519733,44.7232466 31.7264529,44.466938 31.5206816,44.2669775 C31.2850735,44.0390922 30.9717868,43.9129326 30.6394663,43.9129326 C27.475219,43.9129326 24.9010208,41.4186613 24.9010208,38.3529316 C24.9010208,36.3628004 26.005498,34.5127911 27.7823326,33.5254546 L27.8790451,33.4780824 C28.0107387,33.4197398 28.1378024,33.354416 28.265895,33.2870976 C35.1792943,29.770584 40,18.3603651 40,5.53396651 L40,2 L8,2 L8,5.53396651 C8,18.3603651 12.8207057,29.770584 19.723302,33.2816124 C19.8621976,33.354416 19.9908046,33.4202384 20.1219838,33.478581 L20.2176674,33.5254546 C21.994502,34.5127911 23.0984648,36.3628004 23.0984648,38.3529316 C23.0984648,41.4186613 20.524781,43.9129326 17.3605337,43.9129326 C17.0282132,43.9129326 16.7149265,44.0390922 16.4782895,44.2674761 C16.2735471,44.4664394 16.1485411,44.7227479 16.1202476,45 L16.1202476,45 Z M34.0259532,47 L13.9740468,47 L13.9740468,44.9005166 C13.9740468,43.9874832 14.3385717,43.1287382 14.9998736,42.4836925 C15.6616811,41.8376596 16.540889,41.4823169 17.4746998,41.4823169 C19.3296819,41.4823169 20.8388456,40.0101121 20.8388456,38.2003318 C20.8388456,37.039052 20.2083842,35.9596984 19.1911523,35.3719023 C19.0354329,35.3008338 18.8817358,35.2228558 18.7290499,35.1424101 C11.1195281,31.2440041 6,19.4175067 6,5.71855049 L6,0 L42,0 L42,5.71855049 C42,19.4175067 36.8804719,31.2440041 29.2608384,35.1473454 C29.1162418,35.2233493 28.9645671,35.3008338 28.8088477,35.3719023 C27.7906046,35.960192 27.1606488,37.039052 27.1606488,38.2003318 C27.1606488,40.0101121 28.6703181,41.4823169 30.5253002,41.4823169 C31.459111,41.4823169 32.3383189,41.8376596 32.9996208,42.4831989 C33.6619339,43.1292318 34.0259532,43.9874832 34.0259532,44.9005166 L34.0259532,47 Z" id="Fill-22" fill="#374D6B"></path>
                    <path d="M14.8973203,23 C12.4064695,18.1124139 11.0223745,11.7219938 11,5.00650144 L13.3415142,5 C13.362848,11.380918 14.6621282,17.4222605 17,22.0102801 L14.8973203,23 Z" id="Fill-23" fill="#374D6B"></path>
                    <path d="M31,10.1329906 L33,11 L33,2 L29,2 L29,11 L31,10.1329906 Z M35,15 L31,13.021337 L27,15 L27,0 L35,0 L35,15 Z" id="Fill-16" fill="#00B4D5"></path>
                </g>
            </g>
        </g>
    </g>
</svg>