<?xml version="1.0" encoding="UTF-8" standalone="no"?>
<svg width="40px" height="72px" viewBox="0 0 40 72" version="1.1" xmlns="http://www.w3.org/2000/svg" xmlns:xlink="http://www.w3.org/1999/xlink">
    <!-- Generator: Sketch 3.7 (28169) - http://www.bohemiancoding.com/sketch -->
    <title>Group 13</title>
    <desc>Created with Sketch.</desc>
    <defs></defs>
    <g id="Page-1" stroke="none" stroke-width="1" fill="none" fill-rule="evenodd">
        <g id="epay-web-services-salary-projects" transform="translate(-650.000000, -4460.000000)">
            <g id="Group-13" transform="translate(650.000000, 4460.000000)">
                <path d="M10,45 L18,45 L18,0 L10,0 L10,45 Z M12,43 L16,43 L16,2 L12,2 L12,43 Z" id="Fill-1" fill="#00B4D5"></path>
                <path d="M22,19 L25,19 L25,8 L22,8 L22,19 Z M20,21 L27,21 L27,6 L20,6 L20,21 Z" id="Fill-2" fill="#00B4D5"></path>
                <path d="M22,39 L25,39 L25,34 L22,34 L22,39 Z M20,41 L27,41 L27,32 L20,32 L20,41 Z" id="Fill-3" fill="#00B4D5"></path>
                <path d="M37,28 L35,28 L35,3 C34.7183886,3.02100002 34.6200258,2.77646973 34,3 C34.2585172,2.41198118 34.0070329,2.30688954 34,2 L9,2 C9.07003484,2.30791483 8.80131172,2.35815376 9,3 C8.38352333,2.78005822 8.28211838,3.0256138 8,3 L8,25 L6,25 L6,3 C6.00152107,2.40788004 6.33919956,1.58508944 7,1 C7.57126969,0.342444937 8.38757953,0.00102528424 9,0 L34,0 C34.6063362,0 35.4454621,0.350647211 36,1 C36.6633356,1.57945037 37,2.4037789 37,3 L37,28 L37,28 Z" id="Fill-4" fill="#00B4D5"></path>
                <polygon id="Fill-6" fill="#374D6B" points="9 45 9 43.0017762 29 43 29 44.9982238"></polygon>
                <polygon id="Fill-8" fill="#00B4D5" points="29 13 31 13 31 6 29 6"></polygon>
                <polygon id="Fill-10" fill="#00B4D5" points="29 22 31 22 31 15 29 15"></polygon>
                <path d="M37,62 L35,62 L35,27 C34.7044476,26.2453626 33.7270524,25.2765599 33,25 C31.3243743,25.2765599 30.3474892,26.2453626 30,27 L30,45 L29,45 C25.9441097,45.0679595 23.2955524,47.6951096 23,51 L21,51 C21,46.8259696 24.0714491,43.425801 28,43 L28,27 C28.0519369,24.9902192 30.0587598,23 33,23 C34.992667,23 37,24.9902192 37,27 L37,62 Z" id="Fill-11" fill="#374D6B"></path>
                <path d="M15,62 L12.7895426,62 L12.7895426,58.9869817 C8.95710075,58.4341667 6,55.0477337 6,50.9663764 L6,44 L8.21045737,44 L8.21045737,50.9663764 C8.21045737,54.181976 10.7603428,56.7983986 13.8947713,56.7983986 L15,56.7983986 L15,62 Z" id="Fill-12" fill="#374D6B"></path>
                <path d="M6.39576581,26 L1.29418008,20.7572038 C0.458284323,19.8981707 -0.00150875766,18.7567654 3.71958179e-06,17.5428241 C3.71958179e-06,16.3299191 0.4597968,15.1890319 1.29418008,14.3315531 C2.12755504,13.4730381 3.23771333,13 4.41996637,13 C5.60272357,13 6.71338603,13.4730381 7.54776931,14.3315531 L7.99899168,14.7947471 L6.39677413,16.4454585 L5.94403927,15.9807102 C5.53667874,15.5620741 4.9962202,15.3315133 4.41996637,15.3315133 C3.84472086,15.3315133 3.30426233,15.5620741 2.89891843,15.9791559 C2.49206205,16.3972739 2.26871958,16.9526922 2.26871958,17.5438603 C2.26821542,18.1350285 2.49155789,18.6909649 2.89841427,19.1085648 L8,24.351361 L6.39576581,26 Z" id="Fill-13" fill="#374D6B"></path>
                <path d="M7.50029271,25 C6.12164852,25 5,26.1213257 5,27.5002928 C5,28.8786743 6.12164852,30 7.50029271,30 C8.87893689,30 10,28.8786743 10,27.5002928 C10,26.1213257 8.87893689,25 7.50029271,25 M7.50025654,32 C5.01847101,32 3,29.9812988 3,27.5002566 C3,25.0187012 5.01847101,23 7.50025654,23 C9.98152899,23 12,25.0187012 12,27.5002566 C12,29.9812988 9.98152899,32 7.50025654,32" id="Fill-14" fill="#374D6B"></path>
                <path d="M7.50029271,32 C6.12164852,32 5,33.1216485 5,34.5002927 C5,35.8789369 6.12164852,37 7.50029271,37 C8.87893689,37 10,35.8789369 10,34.5002927 C10,33.1216485 8.87893689,32 7.50029271,32 M7.50025654,39 C5.01847101,39 3,36.981529 3,34.5002565 C3,32.0189841 5.01847101,30 7.50025654,30 C9.98152899,30 12,32.0189841 12,34.5002565 C12,36.981529 9.98152899,39 7.50025654,39" id="Fill-15" fill="#374D6B"></path>
                <path d="M7.50029271,39 C6.12164852,39 5,40.1216485 5,41.5002927 C5,42.8789369 6.12164852,44 7.50029271,44 C8.87893689,44 10,42.8789369 10,41.5002927 C10,40.1216485 8.87893689,39 7.50029271,39 M7.50025654,46 C5.01847101,46 3,43.981529 3,41.5002565 C3,39.0189841 5.01847101,37 7.50025654,37 C9.98152899,37 12,39.0189841 12,41.5002565 C12,43.981529 9.98152899,46 7.50025654,46" id="Fill-16" fill="#374D6B"></path>
                <polygon id="Fill-17" fill="#374D6B" points="40 72 38 72 38 63 8 63 8 72 6 72 6 61 40 61"></polygon>
            </g>
        </g>
    </g>
</svg>