<?xml version="1.0" encoding="UTF-8" standalone="no"?>
<svg width="64px" height="60px" viewBox="0 0 64 60" version="1.1" xmlns="http://www.w3.org/2000/svg" xmlns:xlink="http://www.w3.org/1999/xlink">
    <!-- Generator: Sketch 3.8.3 (29802) - http://www.bohemiancoding.com/sketch -->
    <title>Group 16</title>
    <desc>Created with Sketch.</desc>
    <defs></defs>
    <g id="All-pages" stroke="none" stroke-width="1" fill="none" fill-rule="evenodd">
        <g id="colored-icons" transform="translate(-553.000000, -663.000000)">
            <g id="Group-25" transform="translate(224.000000, 168.000000)">
                <g id="Group-16" transform="translate(329.000000, 495.000000)">
                    <path d="M30,60 C13.4581927,60 0,46.5416946 0,30 C0,13.4578031 13.4581927,0 30,0 C46.5423096,0 60,13.4578031 60,30 L60,35 L58,35 L58,30 C57.7394697,14.7041192 45.2955015,2.26054923 30,2 C14.7044985,2.26054923 2.2605303,14.7041192 2,30 C2.2605303,45.2953784 14.7044985,57.7394508 30,58 L30,60 Z" id="Fill-66" fill="#374D6B"></path>
                    <polygon id="Fill-67" fill="#374D6B" points="59 37 54 32 55.7586938 30.519174 59 34 62.2881336 30.519174 64 32"></polygon>
                    <path d="M51.9596202,53 L58,53 L58,45.7515443 L51.9596202,53 Z M60,60 L58,60 L58,55 L50,55 C49.7023604,55.0724956 49.2945888,54.8211929 49,54 C48.9180268,54.0367341 48.9835159,53.575027 49,53 L58,43 C58.2844942,43.0360805 58.7930575,42.9079654 59,43 C59.6986481,43.2282532 60,43.6441346 60,44 L60,60 Z" id="Fill-68" fill="#00B4D5"></path>
                    <polygon id="Fill-69" fill="#00B4D5" points="58 55 62 55 62 53 58 53"></polygon>
                    <path d="M42,60 L38,60 C37.4939361,60 37,59.5037971 37,59 L37,55 C37,53.9105507 37.4963861,52.7028116 38,52 C39.3040549,50.8894783 40.5036139,50.3903188 42,50 L44,50 C44.9103271,50.3903188 45.5566581,50.1212754 46,50 C46.5273796,49.1446377 46.7949283,48.4942029 47,48 C46.7949283,47.1125217 46.5273796,46.4615942 46,46 C45.5576381,45.4854493 44.9117971,45.2173913 44,45 L42,45 C41.0882029,45.2173913 40.4413818,45.485942 40,46 C39.4716403,46.4591304 39.2050717,47.1090725 39,48 L37,48 C37,46.5172754 37.4963861,45.310029 38,44 C39.3011148,43.4981739 40.5011638,43 42,43 L44,43 C45.4998162,43 46.6988852,43.4981739 48,44 C48.5041039,45.3154493 49,46.5217101 49,48 C49,49.0855072 48.5041039,50.2917681 48,51 C46.6979052,52.1085507 45.4988362,51.6077101 44,52 L42,52 C41.0906529,51.6077101 40.4433419,52.8777391 40,53 C39.4716403,53.8524058 39.2050717,54.5028406 39,55 L39,58 L42,58 L42,60 Z" id="Fill-70" fill="#00B4D5"></path>
                    <polygon id="Fill-71" fill="#00B4D5" points="41 60 49 60 49 58 41 58"></polygon>
                    <path d="M30,28 C28.8976,28 28,28.8970667 28,30 C28,31.1029333 28.8976,32 30,32 C31.1024,32 32,31.1029333 32,30 C32,28.8970667 31.1024,28 30,28 M30,34 C27.7944242,34 26,32.2055758 26,30 C26,27.7944242 27.7944242,26 30,26 C32.2055758,26 34,27.7944242 34,30 C34,32.2055758 32.2055758,34 30,34" id="Fill-72" fill="#374D6B"></path>
                    <polygon id="Fill-73" fill="#374D6B" points="27.25 30 22 24.75 23.75 23 29 28.25"></polygon>
                    <polygon id="Fill-74" fill="#374D6B" points="33 31 42 31 42 29 33 29"></polygon>
                    <polygon id="Fill-75" fill="#374D6B" points="29 12 31 12 31 9 29 9"></polygon>
                    <polygon id="Fill-76" fill="#374D6B" points="9 31 12 31 12 29 9 29"></polygon>
                    <path d="M31,52 L30,52 C17.8689266,52 8,42.1307993 8,30 C8,17.8692007 17.8689266,8 30,8 C42.1305763,8 52,17.8692007 52,30 L52,31 L47,31 L47,29 L50,29 C49.1501921,18.5020903 40.5217175,10.2372376 30,10 C19.1024181,10.2372376 10.2372881,19.1026643 10,30 C10.2372881,40.5219769 18.5023277,49.1502565 29,50 L29,47 L31,47 L31,52 Z" id="Fill-77" fill="#374D6B"></path>
                </g>
            </g>
        </g>
    </g>
</svg>