<?xml version="1.0" encoding="UTF-8" standalone="no"?>
<svg width="22px" height="17px" viewBox="0 0 22 17" version="1.1" xmlns="http://www.w3.org/2000/svg" xmlns:xlink="http://www.w3.org/1999/xlink">
    <!-- Generator: Sketch 3.7 (28169) - http://www.bohemiancoding.com/sketch -->
    <title>“</title>
    <desc>Created with Sketch.</desc>
    <defs>
        <path d="M12,22 L20,22 L20,14 L17,14 L17,13 C16.8502994,10.4063604 18.5868263,8.72438163 22,8 L21,5 C15.1736527,5.48056537 12,8.30388693 12,15 L12,22 Z M0,22 L8,22 L8,14 L5,14 C4.91017964,13.4699647 4.8502994,13.2897527 5,13 C4.8502994,10.3462898 6.58682635,8.72438163 10,8 L9,5 C3.17365269,5.48056537 0,8.30388693 0,15 L0,22 Z" id="path-1"></path>
        <mask id="mask-2" maskContentUnits="userSpaceOnUse" maskUnits="objectBoundingBox" x="0" y="0" width="22" height="17" fill="white">
            <use xlink:href="#path-1"></use>
        </mask>
    </defs>
    <g id="Page-1" stroke="none" stroke-width="1" fill="none" fill-rule="evenodd">
        <g id="epay-web-pricing-1920" transform="translate(-1301.000000, -214.000000)" stroke="#00B4D5" stroke-width="2">
            <g id="Group-25" transform="translate(1301.000000, 209.000000)">
                <use id="“" mask="url(#mask-2)" xlink:href="#path-1"></use>
            </g>
        </g>
    </g>
</svg>