<?xml version="1.0" encoding="UTF-8" standalone="no"?>
<svg width="47px" height="70px" viewBox="0 0 47 70" version="1.1" xmlns="http://www.w3.org/2000/svg" xmlns:xlink="http://www.w3.org/1999/xlink">
    <!-- Generator: Sketch 3.8.3 (29802) - http://www.bohemiancoding.com/sketch -->
    <title>Group 7</title>
    <desc>Created with Sketch.</desc>
    <defs></defs>
    <g id="All-pages" stroke="none" stroke-width="1" fill="none" fill-rule="evenodd">
        <g id="colored-icons" transform="translate(-239.000000, -334.000000)">
            <g id="Group-25" transform="translate(224.000000, 168.000000)">
                <g id="Group-7" transform="translate(15.000000, 166.000000)">
                    <path d="M29,22.6451613 C32.5375329,22.4267751 35.2472883,25.1698209 35,28.8387097 C35.2472883,30.4460815 34.3129418,32.2055125 33,34 C32.5164688,33.6540074 32.5124566,33.7347898 33,34 C32.5124566,33.9004192 32.6137652,34 33,34 L44,34 C44.5140195,34 44.6775176,33.9319192 45,34 C44.9689053,33.6402896 45,33.4578941 45,32.9677419 L45,3.03225806 C45,2.54210593 44.9689053,2.3597104 45,2 C44.6353892,2.02489521 44.4407964,2 44,2 L33,2 C32.6157713,2 32.5124566,2.09958085 33,2 C32.5124566,2.28045218 32.5194779,2.34954909 33,2 C34.3129418,3.79245523 35.2472883,5.550362 35,7.16129032 C35.2472883,10.8286549 32.5375329,13.5742411 29,13.3548387 C25.8787469,13.5742411 23.1720007,10.8286549 23,7.16129032 C23.1720007,5.54578941 24.1038396,3.78788264 26,2 C25.8978049,2.34548457 25.898808,2.23929887 26,2 C25.898808,2.10161311 25.7964963,2 26,2 L14,2 C13.9032634,2 13.7347501,2.07163724 14,2 C13.4794723,2.32719421 13.4117661,2.49282357 13,3.03225806 L13,14.3870968 C13.4117661,15.8031246 12.3023863,16.9350946 11,16.4516129 C10.1643729,16.9350946 9.43715739,16.5804649 9,16.4516129 C8.49528797,15.2960752 7.43806713,14.1686778 6,14.3870968 C3.69666892,14.1686778 2,15.8874635 2,18.516129 C2,20.1125365 3.69666892,21.8313222 6,21.6129032 C7.43907019,21.8313222 8.4957895,20.7039248 9,19.5483871 C9.43665586,19.4200432 10.1638713,19.0659215 11,19.5483871 C12.3023863,19.0659215 13.4117661,20.1948431 13,21.6129032 L13,32.9677419 C13.4117661,33.5076845 13.4794723,33.6728058 14,34 C13.7347501,33.9288708 13.9032634,34 14,34 L26,34 C25.7990039,34 25.898808,33.8978788 26,34 C25.898808,33.7032897 25.8867713,33.6468944 26,34 C24.1033381,32.2100851 23.1720007,30.4506541 23,28.8387097 C23.1720007,25.1698209 25.8787469,22.4267751 29,22.6451613 M44,36 L33,36 C31.2883531,36 30.182535,34.8882529 30,34 C30.182535,32.7697822 30.4985539,32.080629 31,32 C32.2721295,30.6503112 32.8877958,29.5575683 33,28 C32.8877958,26.2988442 31.2084802,24.6079684 29,25 C27.084359,24.6079684 25.40802,26.2988442 25,28 C25.40802,29.5620693 26.0212059,30.6548122 27,32 C27.7932931,32.0726273 28.1053432,32.7467771 28,34 C28.1053432,34.8882529 27.0029977,36 26,36 L14,36 C13.4122,36 12.6863983,35.6969327 12,35 C11.5919905,34.60519 11.2883743,33.8730273 11,33 L11,22 C11.2883743,21.4017559 11.1921299,21.2997333 11,21 C10.9926956,21.2997333 10.9386202,21.3297399 11,21 C9.68496274,23.0641254 7.9213093,24.0218382 6,24 C2.67946336,24.0218382 0,21.3207379 0,18 C0,14.6792621 2.67946336,11.9781618 6,12 C7.92031709,11.9781618 9.68397053,12.9358746 11,15 C10.9401085,14.6747611 10.9406046,14.6747611 11,15 C10.9460618,14.6747611 10.9981528,14.7012669 11,15 C11.1921299,14.7012669 11.2883743,14.5967437 11,14 L11,3 C11.2883743,2.12697266 11.5919905,1.39480996 12,1 C12.6863983,0.303067348 13.4122,0 14,0 L26,0 C27.0029977,0 28.1053432,1.11024672 28,2 C28.1053432,3.24872194 27.7947814,3.92437208 27,4 C26.0207097,5.3441876 25.40802,6.4354301 25,8 C25.40802,9.69965548 27.084359,11.3930318 29,11 C31.2084802,11.3930318 32.8877958,9.69965548 33,8 C32.8877958,6.4399311 32.2721295,5.3486886 31,4 C30.4891279,3.90886864 30.182535,3.23671927 30,2 C30.182535,1.11024672 31.2883531,0 33,0 L44,0 C44.8920497,0 45.6188435,0.306568126 46,1 C46.6939032,1.38030673 47,2.11496999 47,3 L47,33 C47,33.88503 46.6939032,34.6201934 46,35 C45.6168591,35.693932 44.8905613,36 44,36" id="Fill-33" fill="#374D6B"></path>
                    <rect id="Rectangle-937" fill="#FFFFFF" x="20" y="20" width="19" height="16"></rect>
                    <path d="M13,56 C13.1036454,55.5144143 13,55.6192214 13,56 L13,67 C13,67.5145776 13.0680808,67.6765522 13,68 C13.3271942,67.9302958 13.4973962,68 14.0322581,68 L43.9677419,68 C44.5076845,68 44.6722977,67.9333046 45,68 C44.969008,67.6439567 45,67.4649321 45,67 L45,56 C45,55.6172156 44.9009272,55.5144143 45,56 C44.7058301,55.5144143 44.6463864,55.5264496 45,56 C43.2126254,57.3086719 41.4562429,58.2404021 39.8387097,58 C36.1774419,58.2404021 33.433888,55.5339716 33.6451613,52 C33.433888,48.8804753 36.1774419,46.1735434 39.8387097,46 C41.4557348,46.1735434 43.2121174,47.1052736 45,49 C44.6494348,48.8915077 44.7159914,48.9010356 45,49 C44.9009272,48.9010356 45,48.7987358 45,49 L45,37 C45,36.9500163 44.9684999,36.7704903 45,37 C44.6733139,36.4831483 44.5081926,36.4154499 43.9677419,36 L32.6129032,36 C31.1963673,36.4154499 30.0643973,35.3061996 30.5483871,34 C30.0643973,33.1468722 30.4307126,32.412721 30.5483871,32 C31.7090055,31.4990437 32.8379271,30.4389374 32.6129032,29 C32.8379271,26.6984769 31.116093,25 28.483871,25 C26.8874635,25 25.1686778,26.6984769 25.3870968,29 C25.1686778,30.4389374 26.2975994,31.4990437 27.4516129,32 C27.5713197,32.4087092 27.9350946,33.1433619 27.4516129,34 C27.9350946,35.3061996 26.8066811,36.4154499 25.3870968,36 L14.0322581,36 C13.4973962,36.4154499 13.3271942,36.4856556 13,37 C13.0680808,36.7393992 13,36.9013738 13,37 L13,49 C13,48.79673 13.1036454,48.9010356 13,49 C13.3114442,48.9010356 13.3546297,48.8844871 13,49 C14.8010923,47.1042707 16.5595072,46.1735434 18.1612903,46 C21.8306872,46.1735434 24.5742411,48.8809768 24.3548387,52 C24.5742411,55.5344731 21.8306872,58.2404021 18.1612903,58 C16.5595072,58.2404021 14.8010923,57.3096749 13,56 C13.3546297,55.5304614 13.3114442,55.5144143 13,56 M44,70 L14,70 C13.1404757,70 12.408313,69.6993921 12,69 C11.306068,68.6175012 11,67.89128 11,67 L11,56 C11,54.2905075 12.1122472,53.184806 13,53 C14.2572238,53.184806 14.9538786,53.5102166 15,54 C16.3511892,55.2672352 17.4449322,55.8813484 19,56 C20.7016559,55.8813484 22.3930318,54.2061785 22,52 C22.3930318,50.0859649 20.7016559,48.4093068 19,48 C17.4454323,48.4093068 16.3516893,49.02342 15,50 C14.9518782,50.7824228 14.2557235,51.1073374 13,51 C12.1122472,51.1073374 11,50.002628 11,49 L11,37 C11,36.4003673 11.3065681,35.6736501 12,35 C12.4073127,34.5932474 13.1394754,34.2921434 14,34 L25,34 C25.5997444,34.2921434 25.7012669,34.1964052 26,34 C25.7012669,33.9959999 25.6792621,33.949371 26,34 C23.9358746,32.6844366 22.9781618,30.9204733 23,29 C22.9781618,25.6816608 25.6792621,23 29,23 C32.3242387,23 35.0283396,25.6816608 35,29 C35.0283396,30.9204733 34.0706268,32.6844366 32,34 C32.3247388,33.9513552 32.2982329,33.996992 32,34 C32.2982329,34.1964052 32.4032563,34.2921434 33,34 L44,34 C44.8735275,34.2921434 45.6056902,34.5957276 46,35 C46.6909313,35.6592646 47,36.388462 47,37 L47,49 C47,50.002628 45.8907535,51.1073374 45,51 C43.7502778,51.1073374 43.0741276,50.7958163 43,50 C41.6558124,49.0219319 40.5660702,48.4093068 39,48 C37.3058457,48.4093068 35.61497,50.0854688 36,52 C35.61497,54.2056824 37.3058457,55.8813484 39,56 C40.5665703,55.8813484 41.6563125,55.2682273 43,54 C43.071627,53.4968232 43.7482774,53.184806 45,53 C45.8907535,53.184806 47,54.2905075 47,56 L47,67 C47,67.9036813 46.6904312,68.6328788 46,69 C45.6071905,69.6959197 44.8745277,70 44,70" id="Fill-32" fill="#00B4D5"></path>
                </g>
            </g>
        </g>
    </g>
</svg>