<?xml version="1.0" encoding="UTF-8" standalone="no"?>
<svg width="67px" height="62px" viewBox="0 0 67 62" version="1.1" xmlns="http://www.w3.org/2000/svg" xmlns:xlink="http://www.w3.org/1999/xlink">
    <!-- Generator: Sketch 3.7 (28169) - http://www.bohemiancoding.com/sketch -->
    <title>Group 21</title>
    <desc>Created with Sketch.</desc>
    <defs></defs>
    <g id="Page-1" stroke="none" stroke-width="1" fill="none" fill-rule="evenodd">
        <g id="epay-web-services-salary-projects" transform="translate(-500.000000, -2659.000000)">
            <g id="Group-21" transform="translate(500.000000, 2659.000000)">
                <polygon id="Fill-1" fill="#00B4D5" points="65 33 65 55 58 55 58 57 67 57 67 33"></polygon>
                <path d="M57,9.54383747 L57,61 L64,61 L64,9.54433409 L60.5009807,6 L57,9.54383747 Z M59,10.3200048 L60.5005686,9 L62,10.3195042 L62,59 L59,59 L59,10.3200048 Z" id="Fill-2" fill="#00B4D5"></path>
                <polygon id="Fill-3" fill="#00B4D5" points="58 34 63 34 63 32 58 32"></polygon>
                <polygon id="Fill-4" fill="#00B4D5" points="60 8 62 8 62 6 60 6"></polygon>
                <polygon id="Fill-5" fill="#374D6B" points="8 0 8 44 10 44 10 2 43 2 52 11 52 60 37 60 37 62 54 62 54 10 44 0"></polygon>
                <polygon id="Fill-6" fill="#374D6B" points="54 12 43 12 43 1 45 1 45 10 54 10"></polygon>
                <polygon id="Fill-7" fill="#374D6B" points="17 12 32 12 32 10 17 10"></polygon>
                <path d="M24,52 L21.6384151,52 C21.6384151,50.544968 20.4549987,49.3612131 19.0002624,49.3612131 C17.5455261,49.3612131 16.3615849,50.544968 16.3615849,52 L14,52 C14,49.2426278 16.2429808,47 19.0002624,47 C21.7570192,47 24,49.2426278 24,52" id="Fill-16" fill="#00B4D5"></path>
                <polygon id="Fill-18" fill="#00B4D5" points="35 56 38 56 38 54 35 54"></polygon>
                <polygon id="Fill-20" fill="#00B4D5" points="0 56 3 56 3 54 0 54"></polygon>
                <polygon id="Fill-8" fill="#374D6B" points="17 35 46 35 46 33 17 33"></polygon>
                <polygon id="Fill-9" fill="#374D6B" points="17 39 46 39 46 37 17 37"></polygon>
                <polygon id="Fill-10" fill="#374D6B" points="31 43 46 43 46 41 31 41"></polygon>
                <path d="M19,28 L44,28 L44,16 L19,16 L19,28 Z M17,30 L46,30 L46,14 L17,14 L17,30 Z" id="Fill-11" fill="#374D6B"></path>
                <path d="M9.5,49 C6.46711636,49 4,51.4674172 4,54.5 C4,57.5331283 6.46711636,60 9.5,60 C12.5328836,60 15,57.5331283 15,54.5 C15,51.4674172 12.5328836,49 9.5,49 L9.5,49 Z M9.5,62 C5.36448117,62 2,58.6357496 2,54.5 C2,50.3642504 5.36448117,47 9.5,47 C13.6355188,47 17,50.3642504 17,54.5 C17,58.6357496 13.6355188,62 9.5,62 L9.5,62 Z" id="Fill-12" fill="#00B4D5"></path>
                <path d="M28.4997272,49 C25.466994,49 23,51.4674172 23,54.5 C23,57.5331283 25.466994,60 28.4997272,60 C31.5324604,60 34,57.5331283 34,54.5 C34,51.4674172 31.5324604,49 28.4997272,49 M28.4997428,62 C24.3643658,62 21,58.6357496 21,54.5 C21,50.3642504 24.3643658,47 28.4997428,47 C32.6356342,47 36,50.3642504 36,54.5 C36,58.6357496 32.6356342,62 28.4997428,62" id="Fill-14" fill="#00B4D5"></path>
            </g>
        </g>
    </g>
</svg>