<svg xmlns="http://www.w3.org/2000/svg" width="58" height="63" viewBox="0 0 58 63">
  <g fill="none" fill-rule="evenodd">
    <path fill="#374D6B" d="M0,58 L58,58 L58,0 L0,0 L0,58 Z M2,56 L56,56 L56,2 L2,2 L2,56 Z"/>
    <path fill="#374D6B" d="M8 61L15 61 15 57 8 57 8 61zM6 63L17 63 17 56 6 56 6 63zM43 61L50 61 50 58 43 58 43 61zM41 63L52 63 52 56 41 56 41 63zM8 50L51 50 51 7 8 7 8 50zM6 52L53 52 53 5 6 5 6 52z"/>
    <polygon fill="#374D6B" points="1 15 7 15 7 13 1 13"/>
    <polygon fill="#374D6B" points="1 44 7 44 7 42 1 42"/>
    <g fill="#00B4D5" transform="translate(16 16)">
      <path d="M12.5,2 C6.71022222,2 2,6.71022222 2,12.5 C2,18.2897778 6.71022222,23 12.5,23 C18.2897778,23 23,18.2897778 23,12.5 C23,6.71022222 18.2897778,2 12.5,2 Z M12.5,25 C5.60757576,25 0,19.3924242 0,12.5 C0,5.60757576 5.60757576,0 12.5,0 C19.3924242,0 25,5.60757576 25,12.5 C25,19.3924242 19.3924242,25 12.5,25 Z"/>
      <path d="M13.7271175,18 L12.274346,18 C11.4006342,18 10.5786328,17.6570342 9.95957071,17.0340863 C9.34002073,16.4081861 9,15.578573 9,14.6963096 L11.1952558,14.6963096 C11.1952558,14.987609 11.3074578,15.2621785 11.5118605,15.4678595 C11.7143118,15.6725565 11.9860357,15.7857303 12.274346,15.7857303 L13.7271175,15.7857303 C14.0154278,15.7857303 14.2871517,15.6720644 14.49253,15.4658913 C14.6930301,15.2631626 14.8047442,14.9890852 14.8047442,14.6963096 C14.8047442,14.4035339 14.6935179,14.1309327 14.4920422,13.928204 C14.2866638,13.7210467 14.0159156,13.6073809 13.7271175,13.6073809 L12.274346,13.6073809 C11.3991707,13.6073809 10.5761937,13.263431 9.95761937,12.6380228 C9.3409964,12.0170432 9,11.1874301 9,10.3036904 C9,9.42044285 9.34050857,8.59082979 9.9581072,7.96689779 C10.5791207,7.34296578 11.4006342,7 12.274346,7 L13.7271175,7 C14.5998536,7 15.421855,7.34247372 16.041405,7.96443749 C16.6604671,8.59033773 17,9.41995079 17,10.3036904 L14.8047442,10.3036904 C14.8047442,10.0109148 14.6935179,9.7368374 14.4900909,9.53214046 C14.2871517,9.32793558 14.0154278,9.21426974 13.7271175,9.21426974 L12.274346,9.21426974 C11.9860357,9.21426974 11.7147997,9.32793558 11.5099091,9.53361664 C11.3074578,9.73831358 11.1952558,10.0118989 11.1952558,10.3036904 C11.1952558,10.5949899 11.3069699,10.8675911 11.5099091,11.071796 C11.7152875,11.2799374 11.9865236,11.3931112 12.274346,11.3931112 L13.7271175,11.3931112 C14.6022928,11.3931112 15.4252698,11.7370611 16.0438441,12.3614851 C16.6599793,12.9814807 17,13.8110937 17,14.6963096 C17,15.5795571 16.6609549,16.4091702 16.044332,17.0321181 C15.4223428,17.6575263 14.5998536,18 13.7271175,18"/>
      <polygon points="12 7 14 7 14 5 12 5"/>
      <polygon points="12 20 14 20 14 17 12 17"/>
    </g>
    <polygon fill="#374D6B" points="45 36 47 36 47 21 45 21"/>
  </g>
</svg>
