<?xml version="1.0" encoding="UTF-8" standalone="no"?>
<svg width="66px" height="68px" viewBox="0 0 66 68" version="1.1" xmlns="http://www.w3.org/2000/svg" xmlns:xlink="http://www.w3.org/1999/xlink">
    <!-- Generator: Sketch 3.7 (28169) - http://www.bohemiancoding.com/sketch -->
    <title>Page 1</title>
    <desc>Created with Sketch.</desc>
    <defs></defs>
    <g id="Page-1" stroke="none" stroke-width="1" fill="none" fill-rule="evenodd">
        <g id="epay-web-services-cards" transform="translate(-775.000000, -4260.000000)">
            <g id="Page-1" transform="translate(775.000000, 4260.000000)">
                <path d="M4,44 L0,44 L0,32 C0,25.2738013 2.704,18.6708609 8,14 C12.5203062,8.73650331 19.0504115,6 26,6 L26,8 C19.6485359,8.26490066 13.6812249,10.765351 9,15 C4.71035407,19.8445828 2.23923445,25.8787815 2,32 L2,42 L4,42 L4,44 L4,44 Z" id="Fill-1" fill="#374D6B"></path>
                <path d="M52,45 L48,45 L48,43 L50,43 L50,33 C49.8181818,31.2624212 49.6067879,29.3673896 49,28 L51,27 C51.7682424,29.009049 52,31.0832509 52,33 L52,45 Z" id="Fill-3" fill="#374D6B"></path>
                <path d="M12.560722,19 L11,17.3933371 C15.0072592,13.2709319 20.3349029,11 26,11 L26,13.2714367 C20.9244654,13.2714367 16.1510693,15.3056344 12.560722,19" id="Fill-5" fill="#374D6B"></path>
                <path d="M42,54 C40.2978919,54 39.1677838,53.5132048 38,53 C37.468,51.7451566 37,50.5696627 37,49 L37,38 C37,36.4298313 37.468,35.2543373 38,34 C39.1687568,33.4867952 40.2983784,33 42,33 C42.7016216,33 43.8312432,33.4867952 45,34 C45.532,35.2543373 46,36.4298313 46,38 L46,41 L44,41 L44,38 C43.8108108,37.0380723 43.5704865,36.4348916 43,36 C42.6972432,35.5275904 42.1173514,35.2771084 42,35 C40.8826486,35.2771084 40.3027568,35.5275904 40,36 C39.4295135,36.4348916 39.1891892,37.0380723 39,38 L39,49 C39.1891892,49.9619277 39.4295135,50.5656145 40,51 C40.3017838,51.4729157 40.8821622,51.7228916 42,52 C42.1178378,51.7228916 42.6982162,51.4729157 43,51 C43.5704865,50.5656145 43.8108108,49.9619277 44,49 L44,46 L46,46 L46,49 C46,50.5696627 45.532,51.7451566 45,53 C43.8322162,53.5132048 42.7021081,54 42,54" id="Fill-7" fill="#374D6B"></path>
                <path d="M45.5,42 C44.6725455,42 44,42.6725455 44,43.5 C44,44.3274545 44.6725455,45 45.5,45 C46.3274545,45 47,44.3274545 47,43.5 C47,42.6725455 46.3274545,42 45.5,42 M45.5,47 C43.569931,47 42,45.430069 42,43.5 C42,41.5704138 43.569931,40 45.5,40 C47.430069,40 49,41.5704138 49,43.5 C49,45.430069 47.430069,47 45.5,47" id="Fill-9" fill="#374D6B"></path>
                <path d="M10,54 C8.29789189,54 7.16778378,53.5132048 6,53 C5.468,51.7451566 5,50.5696627 5,49 L5,46 L7,46 L7,49 C7.18918919,49.9619277 7.42951351,50.5656145 8,51 C8.30178378,51.4729157 8.88216216,51.7228916 10,52 C10.1178378,51.7228916 10.6982162,51.4729157 11,51 C11.5704865,50.5656145 11.8108108,49.9619277 12,49 L12,38 C11.8108108,37.0380723 11.5704865,36.4348916 11,36 C10.6972432,35.5275904 10.1173514,35.2771084 10,35 C8.88313514,35.2771084 8.30275676,35.5275904 8,36 C7.42951351,36.4348916 7.18918919,37.0380723 7,38 L7,41 L5,41 L5,38 C5,36.4298313 5.468,35.2543373 6,34 C7.16875676,33.4867952 8.29837838,33 10,33 C10.7016216,33 11.8312432,33.4867952 13,34 C13.532,35.2543373 14,36.4298313 14,38 L14,49 C14,50.5696627 13.532,51.7451566 13,53 C11.8322162,53.5132048 10.7021081,54 10,54" id="Fill-11" fill="#374D6B"></path>
                <path d="M6.5,42 C5.67254545,42 5,42.6725455 5,43.5 C5,44.3274545 5.67254545,45 6.5,45 C7.32745455,45 8,44.3274545 8,43.5 C8,42.6725455 7.32745455,42 6.5,42 M6.5,47 C4.56993103,47 3,45.430069 3,43.5 C3,41.5704138 4.56993103,40 6.5,40 C8.43006897,40 10,41.5704138 10,43.5 C10,45.430069 8.43006897,47 6.5,47" id="Fill-13" fill="#374D6B"></path>
                <path d="M24.3095238,63 C23.5871429,63 23,63.6725455 23,64.5 C23,65.3274545 23.5871429,66 24.3095238,66 L29,66 L29,63 L24.3095238,63 Z M31,68 L24.7179487,68 C22.6676923,68 21,66.430069 21,64.5 C21,62.569931 22.6676923,61 24.7179487,61 L31,61 L31,68 Z" id="Fill-15" fill="#374D6B"></path>
                <path d="M30,66 L30,63.7333333 C38.124237,63.7333333 44.7333333,57.124237 44.7333333,49 L47,49 C47,58.3734222 39.3734222,66 30,66" id="Fill-17" fill="#374D6B"></path>
                <g id="Group-21" transform="translate(26.000000, 0.000000)" fill="#00B4D5">
                    <path d="M2,25 L6,25 L6,29 L10,25 L38,25 L38,2 L2,2 L2,25 Z M4,35 L4,27 L0,27 L0,0 L40,0 L40,27 L11,27 L4,35 Z" id="Fill-19"></path>
                </g>
                <polygon id="Fill-22" fill="#00B4D5" points="33 9 42 9 42 7 33 7"></polygon>
                <polygon id="Fill-24" fill="#00B4D5" points="33 14 56 14 56 12 33 12"></polygon>
                <polygon id="Fill-25" fill="#00B4D5" points="33 19 51 19 51 17 33 17"></polygon>
            </g>
        </g>
    </g>
</svg>