<?xml version="1.0" encoding="UTF-8" standalone="no"?>
<svg width="58px" height="62px" viewBox="0 0 58 62" version="1.1" xmlns="http://www.w3.org/2000/svg" xmlns:xlink="http://www.w3.org/1999/xlink">
    <!-- Generator: Sketch 3.7 (28169) - http://www.bohemiancoding.com/sketch -->
    <title>Group 11</title>
    <desc>Created with Sketch.</desc>
    <defs></defs>
    <g id="Page-1" stroke="none" stroke-width="1" fill="none" fill-rule="evenodd">
        <g id="epay-service-menu" transform="translate(-171.000000, -142.000000)">
            <g id="Group-11" transform="translate(171.000000, 142.000000)">
                <path d="M8,50 L51,50 L51,7 L8,7 L8,50 Z M6,52 L53,52 L53,5 L6,5 L6,52 Z" id="Fill-1" fill="#FFFFFF"></path>
                <path d="M0,57 L58,57 L58,0 L0,0 L0,57 Z M2,55 L56,55 L56,2 L2,2 L2,55 Z" id="Fill-2" fill="#FFFFFF"></path>
                <polygon id="Fill-3" fill="#FFFFFF" points="1 15 7 15 7 13 1 13"></polygon>
                <polygon id="Fill-4" fill="#FFFFFF" points="1 44 7 44 7 42 1 42"></polygon>
                <path d="M29,18.1 C23.265363,18.1 18.6,22.765363 18.6,28.5 C18.6,34.234637 23.265363,38.9 29,38.9 C34.734637,38.9 39.4,34.234637 39.4,28.5 C39.4,22.765363 34.734637,18.1 29,18.1 L29,18.1 Z M29,41.5 C21.8318788,41.5 16,35.6681212 16,28.5 C16,21.3318788 21.8318788,15.5 29,15.5 C36.1681212,15.5 42,21.3318788 42,28.5 C42,35.6681212 36.1681212,41.5 29,41.5 L29,41.5 Z" id="Fill-5" fill="#00B4D5"></path>
                <path d="M29.7271175,34 L28.274346,34 C27.4006342,34 26.5786328,33.6570342 25.9595707,33.0340863 C25.3400207,32.4081861 25,31.578573 25,30.6963096 L27.1952558,30.6963096 C27.1952558,30.987609 27.3074578,31.2621785 27.5118605,31.4678595 C27.7143118,31.6725565 27.9860357,31.7857303 28.274346,31.7857303 L29.7271175,31.7857303 C30.0154278,31.7857303 30.2871517,31.6720644 30.49253,31.4658913 C30.6930301,31.2631626 30.8047442,30.9890852 30.8047442,30.6963096 C30.8047442,30.4035339 30.6935179,30.1309327 30.4920422,29.928204 C30.2866638,29.7210467 30.0159156,29.6073809 29.7271175,29.6073809 L28.274346,29.6073809 C27.3991707,29.6073809 26.5761937,29.263431 25.9576194,28.6380228 C25.3409964,28.0170432 25,27.1874301 25,26.3036904 C25,25.4204429 25.3405086,24.5908298 25.9581072,23.9668978 C26.5791207,23.3429658 27.4006342,23 28.274346,23 L29.7271175,23 C30.5998536,23 31.421855,23.3424737 32.041405,23.9644375 C32.6604671,24.5903377 33,25.4199508 33,26.3036904 L30.8047442,26.3036904 C30.8047442,26.0109148 30.6935179,25.7368374 30.4900909,25.5321405 C30.2871517,25.3279356 30.0154278,25.2142697 29.7271175,25.2142697 L28.274346,25.2142697 C27.9860357,25.2142697 27.7147997,25.3279356 27.5099091,25.5336166 C27.3074578,25.7383136 27.1952558,26.0118989 27.1952558,26.3036904 C27.1952558,26.5949899 27.3069699,26.8675911 27.5099091,27.071796 C27.7152875,27.2799374 27.9865236,27.3931112 28.274346,27.3931112 L29.7271175,27.3931112 C30.6022928,27.3931112 31.4252698,27.7370611 32.0438441,28.3614851 C32.6599793,28.9814807 33,29.8110937 33,30.6963096 C33,31.5795571 32.6609549,32.4091702 32.044332,33.0321181 C31.4223428,33.6575263 30.5998536,34 29.7271175,34" id="Fill-7" fill="#00B4D5"></path>
                <polygon id="Fill-9" fill="#00B4D5" points="28 23 30 23 30 21 28 21"></polygon>
                <polygon id="Fill-11" fill="#00B4D5" points="28 36 30 36 30 34 28 34"></polygon>
                <path d="M8,60 L15,60 L15,57 L8,57 L8,60 Z M6,62 L17,62 L17,55 L6,55 L6,62 Z" id="Fill-12" fill="#FFFFFF"></path>
                <path d="M43,60 L50,60 L50,57 L43,57 L43,60 Z M41,62 L52,62 L52,55 L41,55 L41,62 Z" id="Fill-13" fill="#FFFFFF"></path>
                <polygon id="Fill-14" fill="#00B4D5" points="44 35 46 35 46 21 44 21"></polygon>
            </g>
        </g>
    </g>
</svg>