<svg xmlns="http://www.w3.org/2000/svg" width="63" height="54" viewBox="0 0 63 54">
  <g fill="none" fill-rule="evenodd">
    <polygon fill="#374D6B" points="0 39 63 39 63 37 0 37"/>
    <polygon fill="#374D6B" points="0 44 63 44 63 42 0 42"/>
    <polygon fill="#374D6B" points="0 49 63 49 63 47 0 47"/>
    <polygon fill="#374D6B" points="0 54 63 54 63 52 0 52"/>
    <path fill="#374D6B" d="M0,35 L63,35 L63,0 L0,0 L0,35 Z M2,33 L61,33 L61,2 L2,2 L2,33 Z"/>
    <path fill="#00B4D3" d="M12.316335,29 L51.6841773,29 C52.1826601,25.7303226 54.7544828,23.1393548 58,22.6366452 L58,11.3633548 C54.7544828,10.860129 52.1826601,8.26967742 51.6841773,5 L12.316335,5 C11.8173399,8.26967742 9.24551724,10.860129 6,11.3633548 L6,22.6366452 C9.24551724,23.1393548 11.8173399,25.7303226 12.316335,29 Z M53.6651584,31 L10.3348416,31 L10.3348416,29.8648649 C10.3348416,27.0134054 8.00463348,24.6936937 5.14027149,24.6936937 L4,24.6936937 L4,9.30630631 L5.14027149,9.30630631 C8.00463348,9.30630631 10.3348416,6.98659459 10.3348416,4.13513514 L10.3348416,3 L53.6651584,3 L53.6651584,4.13513514 C53.6651584,6.98659459 55.9958733,9.30630631 58.8597285,9.30630631 L60,9.30630631 L60,24.6936937 L58.8597285,24.6936937 C55.9958733,24.6936937 53.6651584,27.0134054 53.6651584,29.8648649 L53.6651584,31 Z"/>
    <path fill="#00B4D3" d="M31,9 C26.5885714,9 23,12.5885714 23,17 C23,21.4114286 26.5885714,25 31,25 C35.4114286,25 39,21.4114286 39,17 C39,12.5885714 35.4114286,9 31,9 M31,27 C25.4859259,27 21,22.5140741 21,17 C21,11.4859259 25.4859259,7 31,7 C36.5140741,7 41,11.4859259 41,17 C41,22.5140741 36.5140741,27 31,27"/>
    <path fill="#00B4D3" d="M30.8970345,22 C30.1236552,22 29.3966207,21.6806275 28.8486897,21.100323 C28.3007586,20.5159174 28,19.7433742 28,18.9221305 L30.1724138,18.9221305 C30.1724138,19.128723 30.2482069,19.3230123 30.3853103,19.4696263 C30.5204828,19.6131645 30.7029655,19.6931358 30.8970345,19.6931358 L32.1048966,19.6931358 C32.2984828,19.6931358 32.4814483,19.6126519 32.62,19.4665505 C32.7522759,19.3245502 32.8275862,19.1297483 32.8275862,18.9221305 C32.8275862,18.715538 32.7537241,18.5232993 32.6195172,18.3802737 C32.4809655,18.2341723 32.2984828,18.1536884 32.1048966,18.1536884 L30.8970345,18.1536884 C30.1231724,18.1536884 29.3956552,17.8332906 28.8477241,17.2514482 C28.3017241,16.6737069 28,15.9016763 28,15.0773568 C28,14.2561132 28.3007586,13.48357 28.8467586,12.9022402 C29.3971034,12.3193725 30.1241379,12 30.8970345,12 L32.1048966,12 C32.8768276,12 33.6038621,12.3193725 34.1527586,12.8991644 C34.7002069,13.4830574 35,14.2556006 35,15.0773568 L32.8275862,15.0773568 C32.8275862,14.8697391 32.7527586,14.6759625 32.6166207,14.5308863 C32.4814483,14.3873481 32.2984828,14.3068642 32.1048966,14.3068642 L30.8970345,14.3068642 C30.7034483,14.3068642 30.5209655,14.3873481 30.3828966,14.5334495 C30.2477241,14.6775004 30.1724138,14.871277 30.1724138,15.0773568 C30.1724138,15.2829241 30.2467586,15.4751628 30.3824138,15.6192136 C30.5214483,15.7663403 30.7034483,15.8468242 30.8970345,15.8468242 L32.1048966,15.8468242 C32.8777931,15.8468242 33.6053103,16.1667094 34.1537241,16.7475265 C34.6992414,17.3257805 35,18.0983237 35,18.9221305 C35,19.7443994 34.7002069,20.51643 34.1561379,21.0972471 C33.6043448,21.6811401 32.8773103,22 32.1048966,22 L30.8970345,22 Z"/>
    <polygon fill="#00B4D3" points="46 17 53 17 53 15 46 15"/>
    <polygon fill="#00B4D3" points="10 17 17 17 17 15 10 15"/>
  </g>
</svg>
