<?xml version="1.0" encoding="UTF-8" standalone="no"?>
<svg width="58px" height="72px" viewBox="0 0 58 72" version="1.1" xmlns="http://www.w3.org/2000/svg" xmlns:xlink="http://www.w3.org/1999/xlink">
    <!-- Generator: Sketch 3.8.3 (29802) - http://www.bohemiancoding.com/sketch -->
    <title>Group 10</title>
    <desc>Created with Sketch.</desc>
    <defs></defs>
    <g id="All-pages" stroke="none" stroke-width="1" fill="none" fill-rule="evenodd">
        <g id="colored-icons" transform="translate(-556.000000, -491.000000)">
            <g id="Group-25" transform="translate(224.000000, 168.000000)">
                <g id="Group-10" transform="translate(332.000000, 323.000000)">
                    <path d="M2,70 L56,70 L56,37 L2,37 L2,70 Z M0,72 L58,72 L58,35 L0,35 L0,72 Z" id="Fill-1" fill="#374D6B"></path>
                    <polygon id="Fill-2" fill="#00B4D5" points="11 70 13 70 13 37 11 37"></polygon>
                    <polygon id="Fill-3" fill="#00B4D5" points="45 70 47 70 47 37 45 37"></polygon>
                    <path d="M15,35 L15,31 C15,29.6725334 15.4016754,28.7591809 16,28 C16.8596284,27.3797597 17.827838,27 19,27 L20,27 L20,29 L19,29 C18.4738481,29.2846505 18.1124476,29.4268066 18,30 C17.5668564,29.9431376 17.4164966,30.282789 17,31 L17,35 L15,35 Z" id="Fill-4" fill="#00B4D5"></path>
                    <path d="M42,35 L40,35 L40,31 C39.5884244,30.282789 39.4383708,29.9431376 39,30 C38.8938907,29.4268066 38.5353698,29.2846505 38,29 L37,29 L37,27 L38,27 C39.1800643,27 40.1441586,27.3797597 41,28 C41.5991426,28.7591809 42,29.6725334 42,31 L42,35 Z" id="Fill-6" fill="#00B4D5"></path>
                    <polygon id="Fill-8" fill="#374D6B" points="15 13 15 0 17 0 17 11 40 11 40 0 42 0 42 13"></polygon>
                    <path d="M35,34 C34.0080607,34 33.2731222,33.7180794 33,33 C32.108558,33.7180794 31.374614,34 31,34 C29.8241822,34 29.0887464,33.719099 29,33 C27.9236849,33.7180794 27.1877519,34 26,34 C25.6263805,33.9984706 24.8909448,33.7180794 24,33 C23.7303585,33.7180794 22.99542,33.9989804 22,34 L22,34 C21.3500131,33.9989804 20.5444648,33.6569032 20,33 C19.3411149,32.4211429 19.0054698,31.5952635 19,31 L19,23 L21,23 L21,31 C21.2391259,30.9727951 21.3410625,31.2271864 22,31 C21.7075373,31.6029105 21.949699,31.7048709 22,32 L22,32 C22.4787752,31.7048709 22.7229259,31.6013811 23,31 C23.0913897,31.2231079 23.1928291,30.9722853 23,31 L25,31 C25.4304632,30.9733049 25.5319026,31.2261668 26,31 C26.0758964,31.7833805 26.726302,31.7940863 27,31 C27.2802408,31.2261668 27.3821774,30.9722853 27,31 L30,31 C29.6198116,30.9733049 29.721251,31.2225981 30,31 C30.2727035,31.7844001 30.9146558,31.7930667 31,31 C31.4695891,31.2231079 31.5715258,30.9722853 32,31 L34,31 C33.8091599,30.9722853 33.9101021,31.2205589 34,31 C34.4739859,31.7986745 35.109474,31.7889883 35,31 C35.659932,31.2210687 35.7603769,30.9733049 36,31 L36,12 L38,12 L38,31 C38.001989,31.5753812 37.6693274,32.4043194 37,33 C36.4565297,33.654864 35.6475007,34 35,34" id="Fill-11" fill="#374D6B"></path>
                    <polygon id="Fill-13" fill="#374D6B" points="19 8 21 8 21 6 19 6"></polygon>
                    <path d="M19.9055533,27 C17.2005675,27 15,24.7885681 15,22.0697386 C15,20.7753373 15.5287394,19.5014665 16.4505067,18.5751483 C16.5813539,18.4387669 16.8556952,18.1630711 17.0935549,17.970964 C18.1359546,17.1228573 18.8111066,15.5547155 18.8111066,13.9772861 L18.8111066,12 L21,12 L21,13.9772861 C21,16.2263573 20.030077,18.4128593 18.46818,19.6823307 C18.3626267,19.7683634 18.1875152,19.934563 18.0094852,20.118849 C17.4836644,20.6472659 17.1888934,21.3541028 17.1888934,22.0697386 C17.1888934,23.5753112 18.4078638,24.8002998 19.9055533,24.8002998 L19.9055533,27 Z" id="Fill-15" fill="#374D6B"></path>
                </g>
            </g>
        </g>
    </g>
</svg>