<?xml version="1.0" encoding="UTF-8" standalone="no"?>
<svg width="68px" height="69px" viewBox="0 0 68 69" version="1.1" xmlns="http://www.w3.org/2000/svg" xmlns:xlink="http://www.w3.org/1999/xlink">
    <!-- Generator: Sketch 3.8.3 (29802) - http://www.bohemiancoding.com/sketch -->
    <title>Group 5</title>
    <desc>Created with Sketch.</desc>
    <defs></defs>
    <g id="Page-1" stroke="none" stroke-width="1" fill="none" fill-rule="evenodd">
        <g id="colored-icons-2" transform="translate(-742.000000, -384.000000)">
            <g id="Group-5" transform="translate(742.000000, 384.000000)">
                <path d="M34,9 C28.4852269,9 24,13.4842822 24,19 C24,24.5121629 28.4852269,29 34,29 C39.5132501,29 44,24.5121629 44,19 C44,13.4842822 39.5132501,9 34,9 M34,31 C27.3825936,31 22,25.6148568 22,19 C22,12.3811748 27.3825936,7 34,7 C40.6159187,7 46,12.3811748 46,19 C46,25.6148568 40.6159187,31 34,31" id="Fill-53" fill="#00B4D5"></path>
                <path d="M17,19 C17,22.0403328 18.1927673,25.4430423 20.0909091,29 L34,47.5139961 L47.9090909,29 C49.8072327,25.4455286 51,22.0438136 51,19 C51,9.41952772 43.3732395,2 33.4848485,2 C24.6252273,2 17,9.41952772 17,19 Z M34,51 L19,30 C16.3156188,26.5458713 15,22.7128299 15,19 C15,8.4086662 23.5225934,0 34,0 C44.4758973,0 53,8.4086662 53,19 C53,22.6612065 51.6476546,26.5999766 49,30 L34,51 Z" id="Fill-54" fill="#00B4D5"></path>
                <polygon id="Fill-55" fill="#00B4D5" points="25 58 42 58 42 56 25 56"></polygon>
                <path d="M50,50.3809524 C50,51.7974361 50.5304317,53.4673997 52,54.5714286 L58,64 L63.4042969,56.078125 C64.8738652,54.9762086 65.7344341,51.7995491 65.7344341,50.3809528 C65.7344341,45.6267049 61.6352119,42 58,42 C53.3647881,42 50,45.6267044 50,50.3809524 Z M58,67 L50,56 C48.6879669,54.0484751 48,52.0243767 48,50 C48,44.4514136 52.4856653,40 58,40 C63.5143347,40 68,44.4514136 68,50 C68,51.9978295 67.2923481,54.0780276 66,56 L58,67 Z" id="Fill-59" fill="#374D6B"></path>
                <path d="M58,47 C56.3454578,47 55,48.3449921 55,50 C55,51.6534181 56.3454578,53 58,53 C59.6540125,53 61,51.6534181 61,50 C61,48.3449921 59.6540125,47 58,47 M58,55 C55.2423378,55 53,52.7566184 53,50 C53,47.2423974 55.2423378,45 58,45 C60.7566783,45 63,47.2423974 63,50 C63,52.7566184 60.7566783,55 58,55" id="Fill-60" fill="#374D6B"></path>
                <polygon id="Fill-61" fill="#374D6B" points="54 69 62 69 62 67 54 67"></polygon>
                <path d="M2,50.3809524 C2,51.7974361 2.53043166,53.4673997 4,54.5714286 L10,64 L15.4042969,56.078125 C16.8738652,54.9762086 17.7344341,51.7995491 17.7344341,50.3809528 C17.7344341,45.6267049 13.6352119,42 10,42 C5.36478809,42 2,45.6267044 2,50.3809524 Z M10,67 L2,56 C0.687966889,54.0484751 0,52.0243767 0,50 C0,44.4514136 4.48566525,40 10,40 C15.5143347,40 20,44.4514136 20,50 C20,51.9978295 19.2923481,54.0780276 18,56 L10,67 Z" id="Fill-59" fill="#374D6B"></path>
                <path d="M10,47 C8.34545776,47 7,48.3449921 7,50 C7,51.6534181 8.34545776,53 10,53 C11.6540125,53 13,51.6534181 13,50 C13,48.3449921 11.6540125,47 10,47 M10,55 C7.24233778,55 5,52.7566184 5,50 C5,47.2423974 7.24233778,45 10,45 C12.7566783,45 15,47.2423974 15,50 C15,52.7566184 12.7566783,55 10,55" id="Fill-60" fill="#374D6B"></path>
                <polygon id="Fill-61" fill="#374D6B" points="6 69 14 69 14 67 6 67"></polygon>
            </g>
        </g>
    </g>
</svg>