<?xml version="1.0" encoding="UTF-8" standalone="no"?>
<svg width="67px" height="49px" viewBox="0 0 67 49" version="1.1" xmlns="http://www.w3.org/2000/svg" xmlns:xlink="http://www.w3.org/1999/xlink">
    <!-- Generator: Sketch 3.7 (28169) - http://www.bohemiancoding.com/sketch -->
    <title>Group 11</title>
    <desc>Created with Sketch.</desc>
    <defs></defs>
    <g id="Page-1" stroke="none" stroke-width="1" fill="none" fill-rule="evenodd">
        <g id="epay-web-services-busines-solutions" transform="translate(-350.000000, -1905.000000)">
            <g id="Group-11" transform="translate(350.000000, 1905.000000)">
                <path d="M63,10 L60,10 L60,12 L63,12 C63.6223909,12.2430982 64.0150095,12.4080905 64,13 C64.6071556,13.0037577 64.7720257,13.4035276 65,14 L65,45 C64.7710355,45.5989647 64.6041849,46.0052147 64,46 C64.0199606,46.5953988 63.6268469,46.7569018 63,47 L14,47 C13.3706776,46.7569018 12.978059,46.5953988 13,46 C12.3963102,46.0072086 12.2279743,45.5979678 12,45 L12,42 L10,42 L10,45 C10,46.1866564 10.4045011,47.1731212 11,48 C11.822483,48.6047163 12.7745707,49 14,49 L63,49 C64.2244391,49 65.1785072,48.6032209 66,48 C66.595994,47.1721242 67.0009902,46.1846626 67,45 L67,14 C67,12.8093558 66.6063912,11.8493098 66,11 C65.1616736,10.3947853 64.2130517,10 63,10 Z" id="Fill-1" fill="#00B4D5"></path>
                <path d="M9,24 L25,24 L25,20 L9,20 L9,24 Z M7,26 L27,26 L27,18 L7,18 L7,26 Z" id="Fill-4" fill="#00B4D5"></path>
                <path d="M44,24 L48,24 L48,20 L44,20 L44,24 Z M42,26 L50,26 L50,18 L42,18 L42,26 Z" id="Fill-6" fill="#00B4D5"></path>
                <path d="M2.46544673,36.5450628 C2.16979816,36.2461184 2,35.8338159 2,35.4139896 L2.00099881,15 L55,15 L54.9980024,35.4185039 C55,35.8348191 54.8317001,36.2426073 54.5315568,36.5430565 C54.2409023,36.8374866 53.8458719,37 53.41838,37 L3.57912293,37 C3.1531293,37 2.75710005,36.8374866 2.46544673,36.5450628 L2.46544673,36.5450628 Z M2.46145148,2.5290764 C2.76159471,2.18871152 3.15912218,2.00057013 3.57812412,2 L53.4258711,2 C53.8348849,2 54.2399035,2.19270239 54.530558,2.52223489 C54.8331983,2.87058153 55,3.32839225 55,3.80957811 L55,5 L2,5 L2,3.80957811 C2,3.32611174 2.16580291,2.86944128 2.46145148,2.5290764 L2.46145148,2.5290764 Z M54.9995006,13 L2,13 L2,7 L55,7 L54.9995006,13 Z M55.8840421,37.8864406 C56.5959975,37.1731445 57.0014853,36.1846986 56.9970294,35.1808003 L56.9990098,14.8939814 L57,14.8939814 L57,4.86596541 L57,4.86596541 L57,3.82518117 C57,2.80882146 56.6054044,1.84878772 55.8825568,1.11405785 C55.1631749,0.39527869 54.2145612,0 53.2030696,0 L3.79148426,0 C2.78197311,0.00199383955 1.83187409,0.39777099 1.11001668,1.12053783 C0.395090682,1.84679388 0.00099020221,2.80682762 0.00099020221,3.82518117 L0,35.1808003 C0,36.1861939 0.404497603,37.1721476 1.11150198,37.8884345 C1.82395247,38.6052198 2.776527,39 3.79346467,39 L53.2030696,39 C54.2259485,39 55.1795132,38.6027275 55.8840421,37.8864406 L55.8840421,37.8864406 Z" id="Fill-7" fill="#374D6B"></path>
                <polygon id="Fill-8" fill="#00B4D5" points="7 32 15 32 15 30 7 30"></polygon>
                <polygon id="Fill-9" fill="#00B4D5" points="19 32 27 32 27 30 19 30"></polygon>
                <polygon id="Fill-10" fill="#00B4D5" points="31 32 38 32 38 30 31 30"></polygon>
                <polygon id="Fill-11" fill="#00B4D5" points="42 32 50 32 50 30 42 30"></polygon>
            </g>
        </g>
    </g>
</svg>