<?xml version="1.0" encoding="UTF-8" standalone="no"?>
<svg width="72px" height="52px" viewBox="0 0 72 52" version="1.1" xmlns="http://www.w3.org/2000/svg" xmlns:xlink="http://www.w3.org/1999/xlink">
    <!-- Generator: Sketch 3.8.3 (29802) - http://www.bohemiancoding.com/sketch -->
    <title>Group 22</title>
    <desc>Created with Sketch.</desc>
    <defs></defs>
    <g id="All-pages" stroke="none" stroke-width="1" fill="none" fill-rule="evenodd">
        <g id="colored-icons" transform="translate(-548.000000, -829.000000)">
            <g id="Group-25" transform="translate(224.000000, 168.000000)">
                <g id="Group-22" transform="translate(324.000000, 661.000000)">
                    <polygon id="Fill-191" fill="#374D6B" points="72 38 0 38 0 31 8 31 8 33 2 33 2 36 70 36 70 33 64 33 64 31 72 31"></polygon>
                    <polygon id="Fill-192" fill="#374D6B" points="65 52 63 52 63 38 60 38 60 52 58 52 58 36 65 36"></polygon>
                    <polygon id="Fill-193" fill="#374D6B" points="14 52 12 52 12 38 9 38 9 52 7 52 7 36 14 36"></polygon>
                    <path d="M16,27 L56,27 L56,2 C56,2.19513953 55.9684494,2.12048193 56,2 C55.8575136,2.00978272 55.7852527,2 56,2 L16,2 C16.2300137,2 16.1465574,2.0077232 16,2 C16.0076332,2.14828545 16,2.23272577 16,2 L16,27 Z M58,29 L14,29 L14,3 C14,1.86430371 14.2682069,1.21330901 15,1 C15.2029131,0.270575971 15.85334,0 17,0 L55,0 C56.1381215,0 56.766449,0.257475458 57,1 C57.7373179,1.22691339 58,1.8733733 58,3 L58,29 Z" id="Fill-194" fill="#374D6B"></path>
                    <path d="M20,22 L52,22 L52,6 L20,6 L20,22 Z M18,24 L54,24 L54,4 L18,4 L18,24 Z" id="Fill-195" fill="#00B4D5"></path>
                    <path d="M12,29 L12,30 C12,30.454359 12.0769005,30.6435897 12,31 C12.3493194,30.9194872 12.5372984,31 13,31 L59,31 C59.464712,31 59.6486702,30.9210256 60,31 C59.9733613,30.5953846 60,30.3753846 60,30 L60,29 L12,29 Z M59,33 L13,33 C12.1735502,33 11.4321148,32.7134884 11,32 C10.3169761,31.6790698 10,30.9655814 10,30 L10,27 L62,27 L62,30 C62,30.9832558 61.6889952,31.68 61,32 C60.5639043,32.7139535 59.8229665,33 59,33 L59,33 Z" id="Fill-196" fill="#374D6B"></path>
                    <polygon id="Fill-197" fill="#00B4D5" points="31 15 33 15 33 13 31 13"></polygon>
                    <polygon id="Fill-198" fill="#00B4D5" points="35 15 37 15 37 13 35 13"></polygon>
                    <polygon id="Fill-199" fill="#00B4D5" points="40 15 42 15 42 13 40 13"></polygon>
                </g>
            </g>
        </g>
    </g>
</svg>