<svg xmlns="http://www.w3.org/2000/svg" width="55" height="65" viewBox="0 0 55 65">
  <g fill="none">
    <path fill="#FFF" d="M8.194867,45 L46.805133,45 C47.2950345,41.7384158 49.817399,39.1543762 53,38.652396 L53,25.347604 C49.817399,24.8461386 47.2950345,22.2615842 46.805133,19 L8.194867,19 C7.705468,22.2615842 5.18310345,24.8461386 2,25.347604 L2,38.652396 C5.18310345,39.1543762 7.705468,41.7384158 8.194867,45 L8.194867,45 Z M48.7782805,47 L6.2217195,47 L6.2217195,45.8655462 C6.2217195,43.0157983 3.93312217,40.697479 1.1199095,40.697479 L0,40.697479 L0,23.302521 L1.1199095,23.302521 C3.93312217,23.302521 6.2217195,20.9842017 6.2217195,18.1344538 L6.2217195,17 L48.7782805,17 L48.7782805,18.1344538 C48.7782805,20.9842017 51.0668778,23.302521 53.8800905,23.302521 L55,23.302521 L55,40.697479 L53.8800905,40.697479 C51.0668778,40.697479 48.7782805,43.0157983 48.7782805,45.8655462 L48.7782805,47 L48.7782805,47 Z"/>
    <path fill="#00B4D5" d="M27,23 C22.0370704,23 18,27.0375775 18,32 C18,36.9624225 22.0370704,41 27,41 C31.9624225,41 36,36.9624225 36,32 C36,27.0375775 31.9624225,23 27,23 M27,43 C20.9349213,43 16,38.065573 16,32 C16,25.934427 20.9349213,21 27,21 C33.065573,21 38,25.934427 38,32 C38,38.065573 33.065573,43 27,43"/>
    <path fill="#00B4D5" d="M27.7194786,37 L26.2825269,37 C25.4071196,37 24.5828528,36.6865059 23.9616445,36.1176064 C23.3404362,35.5445577 23,34.7857176 23,33.9798534 L25.2562046,33.9798534 C25.2562046,34.2334148 25.3629982,34.4717625 25.5575332,34.6506385 C25.7495613,34.8267484 26.0082728,34.9254069 26.2825269,34.9254069 L27.7194786,34.9254069 C27.9937328,34.9254069 28.2529456,34.8267484 28.4484833,34.6478724 C28.6375031,34.4731455 28.7437954,34.2343368 28.7437954,33.9798534 C28.7437954,33.726292 28.6385059,33.4902494 28.4474806,33.3150615 C28.2524442,33.1357245 27.9937328,33.0370661 27.7194786,33.0370661 L26.2825269,33.0370661 C25.4061168,33.0370661 24.5818501,32.723572 23.9611431,32.1528284 C23.341439,31.5857729 23,30.8269328 23,30.0187635 C23,29.2133604 23.3404362,28.4554423 23.9591376,27.8851597 C24.5828528,27.3130331 25.4071196,27 26.2825269,27 L27.7194786,27 C28.5943846,27 29.4186513,27.3130331 30.0398596,27.8819326 C30.6600652,28.4549813 31,29.2124383 31,30.0187635 L28.7437954,30.0187635 C28.7437954,29.7652022 28.6375031,29.5268545 28.4444723,29.3484394 C28.2529456,29.1732516 27.9937328,29.0745931 27.7194786,29.0745931 L26.2825269,29.0745931 C26.0082728,29.0745931 25.7495613,29.1732516 25.5545249,29.3516666 C25.3629982,29.5282375 25.2562046,29.7665852 25.2562046,30.0187635 C25.2562046,30.2718639 25.3619955,30.5079065 25.5545249,30.6844774 C25.7500627,30.8638145 26.0082728,30.9624729 26.2825269,30.9624729 L27.7194786,30.9624729 C28.5953873,30.9624729 29.4201554,31.276428 30.0408624,31.8462496 C30.6590624,32.4137661 31,33.1712231 31,33.9798534 C31,34.7866396 30.6600652,35.5450187 30.0438706,36.1143792 C29.4186513,36.6865059 28.5943846,37 27.7194786,37"/>
    <polygon fill="#00B4D5" points="26 28 28 28 28 25 26 25"/>
    <polygon fill="#00B4D5" points="26 39 28 39 28 36 26 36"/>
    <polygon fill="#00B4D5" points="42 33 49 33 49 31 42 31"/>
    <polygon fill="#00B4D5" points="5 33 12 33 12 31 5 31"/>
    <path fill="#00B4D5" d="M10.6087836,9 L9,7.43840995 C13.9421306,2.6417471 20.5122571,0 27.5,0 C34.4887541,0 41.058375,2.6417471 46,7.43840995 L44.3912164,9 C39.8793419,4.62048094 33.8805307,2.20840831 27.5,2.20840831 C21.1199749,2.20840831 15.1211637,4.62048094 10.6087836,9"/>
    <polygon fill="#00B4D5" points="46 9 39 9 39 6.789 43.789 6.789 43.789 2 46 2"/>
    <path fill="#00B4D5" d="M27.5,65 C20.5112459,65 13.9411194,62.3584556 9,57.5617604 L10.6087836,56 C15.1201525,60.3795059 21.1189637,62.7913508 27.5,62.7913508 C33.8810363,62.7913508 39.8798475,60.3795059 44.3912164,56 L46,57.5617604 C41.0588806,62.3584556 34.4887541,65 27.5,65"/>
    <polygon fill="#00B4D5" points="11.211 62 9 62 9 55 16 55 16 57.211 11.211 57.211"/>
    <polygon fill="#00B4D5" points="31 57 34 57 34 55 31 55"/>
    <polygon fill="#00B4D5" points="26 57 29 57 29 55 26 55"/>
    <polygon fill="#00B4D5" points="21 57 24 57 24 55 21 55"/>
    <polygon fill="#00B4D5" points="31 9 34 9 34 7 31 7"/>
    <polygon fill="#00B4D5" points="26 9 29 9 29 7 26 7"/>
    <polygon fill="#00B4D5" points="21 9 24 9 24 7 21 7"/>
  </g>
</svg>
