<?xml version="1.0" encoding="UTF-8" standalone="no"?>
<svg width="64px" height="64px" viewBox="0 0 64 64" version="1.1" xmlns="http://www.w3.org/2000/svg" xmlns:xlink="http://www.w3.org/1999/xlink">
    <!-- Generator: Sketch 3.8.3 (29802) - http://www.bohemiancoding.com/sketch -->
    <title>Group 15</title>
    <desc>Created with Sketch.</desc>
    <defs></defs>
    <g id="All-pages" stroke="none" stroke-width="1" fill="none" fill-rule="evenodd">
        <g id="colored-icons" transform="translate(-231.000000, -661.000000)">
            <g id="Group-25" transform="translate(224.000000, 168.000000)">
                <g id="Group-15" transform="translate(7.000000, 493.000000)">
                    <path d="M29,37 C24.5889964,37 21,33.4099472 21,29 C21,24.5880432 24.5889964,21 29,21 C33.4110036,21 37,24.5880432 37,29 L35,29 C34.7389775,25.8344637 32.1644266,23.2607385 29,23 C25.8355734,23.2607385 23.2610225,25.8344637 23,29 C23.2610225,32.1635268 25.8355734,34.7392615 29,35 L29,37 Z" id="Fill-273" fill="#00B4D5"></path>
                    <path d="M29,44 C20.7292325,44 14,37.2691431 14,29 C14,20.7273096 20.7292325,14 29,14 C37.2707675,14 44,20.7273096 44,29 L42,29 C41.7192479,21.9845943 36.0133128,16.2804439 29,16 C21.9866872,16.2804439 16.2807521,21.9845943 16,29 C16.2807521,36.0113515 21.9866872,41.7195561 29,42 L29,44 Z" id="Fill-274" fill="#374D6B"></path>
                    <path d="M29,50 C16.6452731,50 7,40.3520896 7,28 C7,16.6419485 16.6452731,7 29,7 C40.3547269,7 50,16.6419485 50,28 L48,28 C47.7639622,17.8745797 39.1224216,9.23572774 29,9 C17.8780753,9.23572774 9.23603776,17.8745797 9,28 C9.23603776,39.1194583 17.8780753,47.7642723 29,48 L29,50 Z" id="Fill-275" fill="#374D6B"></path>
                    <path d="M28,57 C12.7852338,57 0,44.2107814 0,28 C0,12.7812116 12.7852338,0 28,0 C44.2147662,0 57,12.7812116 57,28 L55,28 C54.7476686,14.0233011 42.9729808,2.25197542 28,2 C14.0270192,2.25197542 2.25233136,14.0233011 2,28 C2.25233136,42.9691923 14.0270192,54.7480246 28,55 L28,57 Z" id="Fill-276" fill="#374D6B"></path>
                    <path d="M33,33 L43.0861647,58 L47.6240086,47.6209051 L58,43.089291 L33,33 Z M43.120492,64 L29,29 L64,43.1255295 L49.4717727,49.4707004 L43.120492,64 Z" id="Fill-277" fill="#00B4D5"></path>
                    <polygon id="Fill-278" fill="#00B4D5" points="56.4816529 58 48 49.5183471 49.5178699 48 58 56.4816529"></polygon>
                </g>
            </g>
        </g>
    </g>
</svg>