<?xml version="1.0" encoding="UTF-8" standalone="no"?>
<svg width="78px" height="73px" viewBox="0 0 78 73" version="1.1" xmlns="http://www.w3.org/2000/svg" xmlns:xlink="http://www.w3.org/1999/xlink">
    <!-- Generator: Sketch 3.8.3 (29802) - http://www.bohemiancoding.com/sketch -->
    <title>Page 1</title>
    <desc>Created with Sketch.</desc>
    <defs>
        <polygon id="path-1" points="30.75 30.99995 30.75 0.43945 0.18925 0.43945 0.18925 30.99995"></polygon>
        <polygon id="path-3" points="0 72.662 77.25 72.662 77.25 0 0 0"></polygon>
    </defs>
    <g id="Page-1" stroke="none" stroke-width="1" fill="none" fill-rule="evenodd">
        <g id="epay-service-index2" transform="translate(-1220.000000, -977.000000)">
            <g id="Group-52" transform="translate(0.000000, 900.000000)">
                <g id="Page-1" transform="translate(1220.000000, 77.000000)">
                    <g id="Group-3" transform="translate(46.500000, 41.662000)">
                        <mask id="mask-2" fill="white">
                            <use xlink:href="#path-1"></use>
                        </mask>
                        <g id="Clip-2"></g>
                        <path d="M15.46975,2.68945 C8.28475,2.68945 2.43925,8.53445 2.43925,15.71995 C2.43925,22.90495 8.28475,28.74995 15.46975,28.74995 C22.65475,28.74995 28.50025,22.90495 28.50025,15.71995 C28.50025,8.53445 22.65475,2.68945 15.46975,2.68945 M15.46975,30.99995 C7.04425,30.99995 0.18925,24.14545 0.18925,15.71995 C0.18925,7.29395 7.04425,0.43945 15.46975,0.43945 C23.89525,0.43945 30.75025,7.29395 30.75025,15.71995 C30.75025,24.14545 23.89525,30.99995 15.46975,30.99995" id="Fill-1" fill="#202020" mask="url(#mask-2)"></path>
                    </g>
                    <polygon id="Fill-4" fill="#202020" points="56.9475 62.2084 52.1215 57.3819 56.948 52.5559 58.5385 54.1469 55.3035 57.3819 58.539 60.6174"></polygon>
                    <polygon id="Fill-6" fill="#202020" points="66.99145 62.2084 65.39995 60.6174 68.63545 57.3819 65.40045 54.1469 66.99095 52.5559 71.81745 57.3819"></polygon>
                    <polygon id="Fill-8" fill="#202020" points="61.2102 64.183 59.0457 63.5685 62.7292 50.5815 64.8937 51.1955"></polygon>
                    <mask id="mask-4" fill="white">
                        <use xlink:href="#path-3"></use>
                    </mask>
                    <g id="Clip-11"></g>
                    <polygon id="Fill-10" fill="#202020" mask="url(#mask-4)" points="30.356 27.75 37.097 27.75 37.097 25.5 30.356 25.5"></polygon>
                    <polygon id="Fill-12" fill="#202020" mask="url(#mask-4)" points="37.097 36.323 44.346 36.323 44.346 34.073 37.097 34.073"></polygon>
                    <polygon id="Fill-13" fill="#202020" mask="url(#mask-4)" points="37.097 40.6085 44.346 40.6085 44.346 38.3585 37.097 38.3585"></polygon>
                    <polygon id="Fill-14" fill="#202020" mask="url(#mask-4)" points="37.097 53.4675 44.346 53.4675 44.346 51.2175 37.097 51.2175"></polygon>
                    <polygon id="Fill-15" fill="#202020" mask="url(#mask-4)" points="37.097 57.753 44.346 57.753 44.346 55.503 37.097 55.503"></polygon>
                    <polygon id="Fill-16" fill="#202020" mask="url(#mask-4)" points="30.356 32.035 44.346 32.035 44.346 29.785 30.356 29.785"></polygon>
                    <polygon id="Fill-17" fill="#202020" mask="url(#mask-4)" points="30.356 44.8955 37.097 44.8955 37.097 42.6455 30.356 42.6455"></polygon>
                    <polygon id="Fill-18" fill="#202020" mask="url(#mask-4)" points="30.356 49.1805 44.346 49.1805 44.346 46.9305 30.356 46.9305"></polygon>
                    <polygon id="Fill-19" fill="#202020" mask="url(#mask-4)" points="47.182 36.323 54.433 36.323 54.433 34.073 47.182 34.073"></polygon>
                    <polygon id="Fill-20" fill="#202020" mask="url(#mask-4)" points="47.1825 40.6085 61.1745 40.6085 61.1745 38.3585 47.1825 38.3585"></polygon>
                    <polygon id="Fill-21" fill="#202020" mask="url(#mask-4)" points="47.182 32.035 54.433 32.035 54.433 29.785 47.182 29.785"></polygon>
                    <path d="M25.6375,19.3325 L65.893,19.3325 L65.893,14.0825 L25.6375,14.0825 L25.6375,19.3325 Z M23.3875,21.5825 L68.143,21.5825 L68.143,11.8325 L23.3875,11.8325 L23.3875,21.5825 Z" id="Fill-22" fill="#202020" mask="url(#mask-4)"></path>
                    <polygon id="Fill-23" fill="#202020" mask="url(#mask-4)" points="30.356 17.833 32.6065 17.833 32.6065 15.583 30.356 15.583"></polygon>
                    <polygon id="Fill-24" fill="#202020" mask="url(#mask-4)" points="34.856 17.833 37.1065 17.833 37.1065 15.583 34.856 15.583"></polygon>
                    <polygon id="Fill-25" fill="#202020" mask="url(#mask-4)" points="39.3555 17.833 41.6065 17.833 41.6065 15.583 39.3555 15.583"></polygon>
                    <polygon id="Fill-26" fill="#202020" mask="url(#mask-4)" points="44.3462 63.9198 23.3877 63.9198 23.3877 19.3323 68.1432 19.3323 68.1432 40.6628 65.8932 40.6628 65.8932 21.5823 25.6377 21.5823 25.6377 61.6698 44.3462 61.6698"></polygon>
                    <path d="M12.27835,63.58485 C11.07785,63.58485 10.10085,64.56185 10.10085,65.76235 C10.10085,66.96385 11.07785,67.94135 12.27835,67.94135 C13.47885,67.94135 14.45585,66.96385 14.45585,65.76235 C14.45585,64.56185 13.47885,63.58485 12.27835,63.58485 M12.27835,70.19135 C9.83685,70.19135 7.85085,68.20435 7.85085,65.76235 C7.85085,63.32135 9.83685,61.33485 12.27835,61.33485 C14.71985,61.33485 16.70585,63.32135 16.70585,65.76235 C16.70585,68.20435 14.71985,70.19135 12.27835,70.19135" id="Fill-27" fill="#202020" mask="url(#mask-4)"></path>
                    <polygon id="Fill-28" fill="#202020" mask="url(#mask-4)" points="18.2215 70.1915 20.4715 70.1915 20.4715 61.335 18.2215 61.335"></polygon>
                    <path d="M58.7024,2.2499 C57.5019,2.2499 56.5249,3.2269 56.5249,4.4279 C56.5249,5.6289 57.5019,6.6059 58.7024,6.6059 C59.9029,6.6059 60.8799,5.6289 60.8799,4.4279 C60.8799,3.2269 59.9029,2.2499 58.7024,2.2499 M58.7024,8.8559 C56.2609,8.8559 54.2749,6.8694 54.2749,4.4279 C54.2749,1.9864 56.2609,-0.0001 58.7024,-0.0001 C61.1439,-0.0001 63.1299,1.9864 63.1299,4.4279 C63.1299,6.8694 61.1439,8.8559 58.7024,8.8559" id="Fill-29" fill="#202020" mask="url(#mask-4)"></path>
                    <polygon id="Fill-30" fill="#202020" mask="url(#mask-4)" points="50.5095 8.856 52.7595 8.856 52.7595 0 50.5095 0"></polygon>
                    <polygon id="Fill-31" fill="#202020" mask="url(#mask-4)" points="46.7445 8.856 48.9945 8.856 48.9945 0 46.7445 0"></polygon>
                    <path d="M16.22365,47.90125 L15.09865,47.90125 L15.09865,45.65125 L16.22365,45.65125 C16.55315,45.65125 16.86265,45.52275 17.09565,45.28975 C17.32965,45.05625 17.45815,44.74625 17.45815,44.41675 L17.45815,34.98025 C17.45815,34.65075 17.32965,34.34025 17.09615,34.10675 C16.86315,33.87425 16.55315,33.74575 16.22365,33.74575 L15.09865,33.74575 L15.09865,31.49575 L16.22365,31.49575 C17.15365,31.49575 18.02865,31.85825 18.68665,32.51575 C19.34565,33.17425 19.70815,34.04925 19.70815,34.98025 L19.70815,44.41675 C19.70815,45.34725 19.34565,46.22225 18.68715,46.88025 C18.02965,47.53825 17.15465,47.90125 16.22365,47.90125" id="Fill-32" fill="#202020" mask="url(#mask-4)"></path>
                    <path d="M4.6089,47.90125 L3.4839,47.90125 C2.5534,47.90125 1.6784,47.53875 1.0199,46.88025 C0.3619,46.22075 -0.0001,45.34625 -0.0001,44.41675 L-0.0001,34.98025 C-0.0001,34.05025 0.3619,33.17525 1.0189,32.51675 C1.6794,31.85775 2.5544,31.49575 3.4839,31.49575 L4.6089,31.49575 L4.6089,33.74575 L3.4839,33.74575 C3.1544,33.74575 2.8439,33.87425 2.6099,34.10775 C2.3784,34.33975 2.2499,34.65025 2.2499,34.98025 L2.2499,44.41675 C2.2499,44.74625 2.3784,45.05675 2.6119,45.29025 C2.8444,45.52275 3.1544,45.65125 3.4839,45.65125 L4.6089,45.65125 L4.6089,47.90125 Z" id="Fill-33" fill="#202020" mask="url(#mask-4)"></path>
                    <polygon id="Fill-34" fill="#202020" mask="url(#mask-4)" points="4.4425 40.824 6.693 40.824 6.693 38.574 4.4425 38.574"></polygon>
                    <polygon id="Fill-35" fill="#202020" mask="url(#mask-4)" points="8.4925 40.824 10.743 40.824 10.743 38.574 8.4925 38.574"></polygon>
                    <polygon id="Fill-36" fill="#202020" mask="url(#mask-4)" points="12.542 40.824 14.793 40.824 14.793 38.574 12.542 38.574"></polygon>
                </g>
            </g>
        </g>
    </g>
</svg>