<?xml version="1.0" encoding="UTF-8" standalone="no"?>
<svg width="62px" height="58px" viewBox="0 0 62 58" version="1.1" xmlns="http://www.w3.org/2000/svg" xmlns:xlink="http://www.w3.org/1999/xlink">
    <!-- Generator: Sketch 3.8.3 (29802) - http://www.bohemiancoding.com/sketch -->
    <title>Group 4</title>
    <desc>Created with Sketch.</desc>
    <defs></defs>
    <g id="Page-1" stroke="none" stroke-width="1" fill="none" fill-rule="evenodd">
        <g id="colored-icons-2" transform="translate(-547.000000, -390.000000)">
            <g id="Group-4" transform="translate(547.000000, 390.000000)">
                <path d="M2,56 L60,56 L60,10 L2,10 L2,56 Z M0,58 L62,58 L62,8 L0,8 L0,58 Z" id="Fill-95" fill="#374D6B"></path>
                <path d="M2,8 L60,8 L60,2 L2,2 L2,8 Z M0,10 L62,10 L62,0 L0,0 L0,10 Z" id="Fill-96" fill="#374D6B"></path>
                <polygon id="Fill-97" fill="#374D6B" points="5 6 7 6 7 4 5 4"></polygon>
                <polygon id="Fill-98" fill="#374D6B" points="9 6 11 6 11 4 9 4"></polygon>
                <polygon id="Fill-99" fill="#374D6B" points="13 6 15 6 15 4 13 4"></polygon>
                <path d="M47,53 L58,53 L58,42 L47,42 L47,53 Z M49,51 L56,51 L56,44 L49,44 L49,51 Z" id="Fill-100" fill="#374D6B"></path>
                <path d="M47,38 L58,38 L58,27 L47,27 L47,38 Z M49,36 L56,36 L56,29 L49,29 L49,36 Z" id="Fill-101" fill="#374D6B"></path>
                <path d="M47,24 L58,24 L58,13 L47,13 L47,24 Z M49,22 L56,22 L56,15 L49,15 L49,22 Z" id="Fill-102" fill="#374D6B"></path>
                <path d="M5,38 L39,38 L39,13 L5,13 L5,38 Z M7,36 L37,36 L37,15 L7,15 L7,36 Z" id="Fill-103" fill="#00B4D5"></path>
                <polygon id="Fill-104" fill="#00B4D5" points="30 22 27 30 18 30 15 20 11 20 11 18 16 18 20 28 26 28 28 22"></polygon>
                <polygon id="Fill-105" fill="#00B4D5" points="21 25 26 25 26 23 21 23"></polygon>
                <path d="M22,32 C22,33.3282597 21.3277095,34 20,34 C19.6717403,34 19,33.3282597 19,32 C19,31.6717403 19.6717403,31 20,31 C21.3277095,31 22,31.6717403 22,32" id="Fill-106" fill="#00B4D5"></path>
                <path d="M27,32 C27,33.3282597 26.3282597,34 25,34 C24.6722905,34 24,33.3282597 24,32 C24,31.6717403 24.6722905,31 25,31 C26.3282597,31 27,31.6717403 27,32" id="Fill-107" fill="#00B4D5"></path>
                <polygon id="Fill-108" fill="#00B4D5" points="5 52 39 52 39 50 5 50"></polygon>
                <polygon id="Fill-109" fill="#00B4D5" points="5 48 39 48 39 46 5 46"></polygon>
                <polygon id="Fill-110" fill="#00B4D5" points="5 44 22 44 22 42 5 42"></polygon>
            </g>
        </g>
    </g>
</svg>