<?xml version="1.0" encoding="UTF-8" standalone="no"?>
<svg width="71px" height="63px" viewBox="0 0 71 63" version="1.1" xmlns="http://www.w3.org/2000/svg" xmlns:xlink="http://www.w3.org/1999/xlink">
    <!-- Generator: Sketch 3.8.3 (29802) - http://www.bohemiancoding.com/sketch -->
    <title>Group 8</title>
    <desc>Created with Sketch.</desc>
    <defs></defs>
    <g id="All-pages" stroke="none" stroke-width="1" fill="none" fill-rule="evenodd">
        <g id="colored-icons" transform="translate(-549.000000, -337.000000)">
            <g id="Group-25" transform="translate(224.000000, 168.000000)">
                <g id="Group-8" transform="translate(325.000000, 169.000000)">
                    <path d="M54.0949237,61 L55.9015692,61 L57.1871634,57.6314622 L57.7467926,57.4836533 C58.6977115,57.2326289 59.6130585,56.8533364 60.4677832,56.3547948 L60.9672911,56.0636866 L64.2599352,57.5372654 L65.5355092,56.2610991 L64.0605329,52.9667162 L64.3531233,52.4661704 C64.8571403,51.6038688 65.2379086,50.6899594 65.483404,49.7504966 L65.6302002,49.1893241 L68.999499,47.903638 L69,46.0983662 L65.6302002,44.8126801 L65.483404,44.2510066 C65.2379086,43.3110427 64.8576413,42.3966322 64.3526223,41.5323265 L64.0605329,41.0317807 L65.5355092,37.739903 L64.2599352,36.4622336 L60.9672911,37.9388186 L60.4667812,37.6467083 C59.6115555,37.1471646 58.6957074,36.7668701 57.7452896,36.5163467 L57.1856604,36.3690389 L55.9010682,33 L54.0949237,33 L52.8123356,36.3685378 L52.2527064,36.5163467 C51.2967774,36.7683732 50.3824324,37.1481667 49.5347218,37.6457062 L49.0332099,37.9393196 L45.7410668,36.4622336 L44.4634888,37.7404041 L45.9394671,41.0327828 L45.6453737,41.5338296 C45.1473688,42.3841061 44.7671015,43.2995186 44.515594,44.2545139 L44.3677957,44.8146843 L41,46.0978652 L41,47.903638 L44.3677957,49.1888231 L44.515093,49.7479913 C44.7676025,50.7024856 45.1478698,51.616395 45.6453737,52.4646673 L45.9394671,52.9657141 L44.4634888,56.2610991 L45.7410668,57.5372654 L49.0332099,56.0631856 L49.5337198,56.356298 C50.3804284,56.8523343 51.2952744,57.2316268 52.2527064,57.4836533 L52.8123356,57.6314622 L54.0949237,61 Z M57.4154851,63 L52.5790901,63 L51.1730983,59.3054729 C50.4225126,59.0712051 49.6975712,58.7708491 49.0056713,58.407364 L45.3977315,60.0220859 L41.9781778,56.6042415 L43.5947479,52.994544 C43.2293182,52.3020976 42.927999,51.5766071 42.6942424,50.8274432 L39,49.4183839 L39,44.5821093 L42.6937492,43.1755159 C42.9275059,42.4253657 43.2293182,41.699382 43.5947479,41.0049628 L41.9781778,37.3982245 L45.3977315,33.9764345 L49.0056713,35.5946088 C49.6980644,35.2296441 50.423499,34.9287949 51.1726051,34.6945271 L52.5790901,31 L57.4159783,31 L58.824436,34.6945271 C59.5710763,34.9278085 60.2970041,35.2291509 60.9923561,35.595102 L64.6032548,33.9764345 L68.0198496,37.3987177 L66.4037727,41.005456 C66.7726544,41.7053003 67.0744668,42.4317772 67.3062508,43.1750227 L71,44.5835889 L70.9985205,49.4183839 L67.3057576,50.82695 C67.0744668,51.5697024 66.7721613,52.2951929 66.4037727,52.9940508 L68.0198496,56.6042415 L64.6032548,60.0220859 L60.9923561,58.4068708 C60.2974972,58.7713423 59.5725558,59.0721915 58.8254223,59.3054729 L57.4154851,63 Z" id="Fill-125" fill="#374D6B"></path>
                    <path d="M55.0010739,42 C52.2433419,42 50,44.2438134 50,47.0008052 C50,49.7572602 52.2433419,52 55.0010739,52 C57.757195,52 60,49.7572602 60,47.0008052 C60,44.2438134 57.757195,42 55.0010739,42 M55.0010136,54 C51.1406748,54 48,50.8604003 48,47.0007601 C48,43.1406131 51.1406748,40 55.0010136,40 C58.8603388,40 62,43.1406131 62,47.0007601 C62,50.8604003 58.8603388,54 55.0010136,54" id="Fill-126" fill="#374D6B"></path>
                    <polygon id="Fill-127" fill="#00B4D5" points="0 32 6 32 6 30 0 30"></polygon>
                    <polygon id="Fill-128" fill="#00B4D5" points="7 41 14 41 14 39 7 39"></polygon>
                    <polygon id="Fill-129" fill="#00B4D5" points="7 45 14 45 14 43 7 43"></polygon>
                    <polygon id="Fill-130" fill="#00B4D5" points="7 58 14 58 14 56 7 56"></polygon>
                    <polygon id="Fill-131" fill="#00B4D5" points="7 62 14 62 14 60 7 60"></polygon>
                    <polygon id="Fill-132" fill="#00B4D5" points="0 36 13 36 13 34 0 34"></polygon>
                    <polygon id="Fill-133" fill="#00B4D5" points="0 49 6 49 6 47 0 47"></polygon>
                    <polygon id="Fill-134" fill="#00B4D5" points="7 24 14 24 14 22 7 22"></polygon>
                    <polygon id="Fill-135" fill="#00B4D5" points="7 28 14 28 14 26 7 26"></polygon>
                    <polygon id="Fill-136" fill="#00B4D5" points="0 19 13 19 13 17 0 17"></polygon>
                    <polygon id="Fill-137" fill="#00B4D5" points="0 54 13 54 13 52 0 52"></polygon>
                    <polygon id="Fill-138" fill="#00B4D5" points="16 58 23 58 23 56 16 56"></polygon>
                    <polygon id="Fill-139" fill="#00B4D5" points="16 62 29 62 29 60 16 60"></polygon>
                    <path d="M18,8 L59,8 L59,2 L18,2 L18,8 Z M16,10 L61,10 L61,0 L16,0 L16,10 Z" id="Fill-140" fill="#374D6B"></path>
                    <polygon id="Fill-141" fill="#374D6B" points="22 6 24 6 24 4 22 4"></polygon>
                    <polygon id="Fill-142" fill="#374D6B" points="26 6 28 6 28 4 26 4"></polygon>
                    <polygon id="Fill-143" fill="#374D6B" points="31 6 33 6 33 4 31 4"></polygon>
                    <polygon id="Fill-144" fill="#374D6B" points="37 54 16 54 16 8 61 8 61 31 59 31 59 10 18 10 18 52 37 52"></polygon>
                    <path d="M38,22 L41,22 C41.098396,22 41.4077089,21.8436102 42,22 C41.8721571,21.2775725 42,20.900603 42,21 C42,20.099397 41.8721571,19.7230111 42,19 C41.4077089,19.1563898 41.098396,19 41,19 L38,19 L38,22 Z M38,29 L36,29 L36,18 C36,17.50862 36.5222427,17 37,17 L41.4678955,17.0335083 C42.7799273,17.0335083 42.700983,17.4048816 43.4678955,18.0335083 C44.087234,18.7536328 44.4678955,19.6487635 44.4678955,21.0335083 C44.4678955,21.5535655 44.087234,22.4492008 43.4678955,23.0335083 C42.700983,23.797952 42.7799273,24.1688207 41.4678955,24.0335083 L38,24 L38,29 Z" id="Fill-145" fill="#00B4D5"></path>
                    <path d="M34,29 L32,29 L32,21 C31.6663786,20.2213952 31.5273984,19.8954207 31,20 C31.0243734,19.4054497 30.6893691,19.2707203 30,19 L29,19 C28.3111495,19.2707203 27.9761452,19.4054497 28,20 C27.4726016,19.8954207 27.3336214,20.2213952 27,21 L27,29 L25,29 L25,21 C25,19.614356 25.3816768,18.718683 26,18 C26.7668107,17.3708843 27.6878133,17 29,17 L30,17 C31.3121867,17 32.2331893,17.3708843 33,18 C33.6188418,18.7196922 34,19.6148606 34,21 L34,29 Z" id="Fill-146" fill="#00B4D5"></path>
                    <polygon id="Fill-147" fill="#00B4D5" points="25 24 34 24 34 22 25 22"></polygon>
                    <polygon id="Fill-148" fill="#00B4D5" points="49 28 51 28 51 18 49 18"></polygon>
                    <polygon id="Fill-149" fill="#00B4D5" points="47 19 53 19 53 17 47 17"></polygon>
                    <polygon id="Fill-150" fill="#00B4D5" points="47 28 53 28 53 26 47 26"></polygon>
                </g>
            </g>
        </g>
    </g>
</svg>