<?xml version="1.0" encoding="UTF-8" standalone="no"?>
<svg width="58px" height="69px" viewBox="0 0 58 69" version="1.1" xmlns="http://www.w3.org/2000/svg" xmlns:xlink="http://www.w3.org/1999/xlink">
    <!-- Generator: Sketch 3.8.3 (29802) - http://www.bohemiancoding.com/sketch -->
    <title>Group 24</title>
    <desc>Created with Sketch.</desc>
    <defs></defs>
    <g id="All-pages" stroke="none" stroke-width="1" fill="none" fill-rule="evenodd">
        <g id="colored-icons" transform="translate(-396.000000, -820.000000)">
            <g id="Group-25" transform="translate(224.000000, 168.000000)">
                <g id="Group-24" transform="translate(172.000000, 652.000000)">
                    <path d="M26.031333,43 L32.041996,43 L32.041996,34 L32.6296296,34 C34.8082611,33.6966385 37.0811373,32.4549568 38.8518519,31 C41.5433586,28.1278236 43,24.7183246 43,21 L43,2 L15,2 L15,21 C15,24.7178246 16.4561258,28.1268234 19.1481481,31 C20.9188627,32.4539567 23.1917389,33.6961385 25.3703704,34 L26.031333,34 L26.031333,43 Z M34,45 L24,45 L24,36 C21.8331991,35.337572 19.5503373,33.9982745 18,32 C14.6646288,29.2182486 13,25.2878951 13,21 L13,0 L45,0 L45,21 C45,25.2883897 43.3353712,29.2192377 40,32 C38.4496627,33.9982745 36.1668009,35.3380666 34,36 L34,45 Z" id="Fill-78" fill="#00B4D5"></path>
                    <path d="M20,49 L38,49 L38,48.4839598 C38,47.5537657 37.6546435,46.6791959 37.0274384,46.0210657 C36.3997084,45.3623847 35.5657093,45 34.6797492,45 L23.3197259,45 C22.4348156,45 21.6008164,45.3629354 20.9720367,46.0216164 C20.3453565,46.6786452 20,47.5532149 20,48.4839598 L20,49 Z M40,51 L18,51 L18,48.3254627 C18,46.902355 18.5721677,45.5653323 19.6113177,44.5598598 C20.6519921,43.5538953 22.0336297,43 23.5006352,43 L34.4988567,43 C35.9673865,43 37.3490241,43.5538953 38.3886823,44.5603517 C39.4278323,45.5663162 40,46.9033389 40,48.3254627 L40,51 Z" id="Fill-79" fill="#00B4D5"></path>
                    <path d="M44,22 L44,20 C45.5684701,19.7434294 47.0444274,19.0940385 48,18 C49.2647354,16.7346686 49.8759809,15.1671042 50,13 L50,7 L44,7 L44,5 L52,5 L52,13 C52,15.7693578 51.1683285,17.9035722 50,20 C48.1446693,21.1159258 46.1353472,22 44,22" id="Fill-80" fill="#00B4D5"></path>
                    <path d="M14,22 C11.8638348,22 9.85463127,21.1159258 8,20 C6.83256637,17.905578 6,15.7708622 6,13 L6,5 L14,5 L14,7 L8,7 L8,13 C8.12389381,15.1676057 8.73510324,16.7356715 10,18 C10.9552802,19.0940385 12.4306785,19.7434294 14,20 L14,22 Z" id="Fill-81" fill="#00B4D5"></path>
                    <path d="M26,16.6741746 L27.7496337,18.4680851 L27.3364036,21 L29.4997558,19.8038885 L31.6626195,21 L31.2493894,18.4680851 L33,16.6741746 L30.5816761,16.3049156 L29.4997558,14 L28.4183239,16.3049156 L26,16.6741746 Z M34.7533933,25 L29.4997475,22.2665501 L24.2455968,25 L25.2493689,19.2118411 L21,15.1114164 L26.8726722,14.2675493 L29.4992426,9 L32.1273278,14.2675493 L38,15.1114164 L33.7501262,19.2118411 L34.7533933,25 Z" id="Fill-82" fill="#00B4D5"></path>
                    <polygon id="Fill-83" fill="#374D6B" points="44 68 42 68 42 51 16 51 16 68 14 68 14 49 44 49"></polygon>
                    <polygon id="Fill-84" fill="#374D6B" points="58 69 56 69 56 61 44 61 44 69 42 69 42 59 58 59"></polygon>
                    <polygon id="Fill-85" fill="#374D6B" points="16 69 14 69 14 61 2 61 2 69 0 69 0 59 16 59"></polygon>
                    <polygon id="Fill-86" fill="#374D6B" points="28 68 30 68 30 57 28 57"></polygon>
                    <polygon id="Fill-87" fill="#374D6B" points="26 69 32 69 32 67 26 67"></polygon>
                    <path d="M26,61 L26,58.6744186 C26.9228383,58.6744186 27.6735169,57.9235142 27.6735169,57 L30,57 C30,59.205168 28.206023,61 26,61" id="Fill-88" fill="#374D6B"></path>
                </g>
            </g>
        </g>
    </g>
</svg>