<?xml version="1.0" encoding="UTF-8" standalone="no"?>
<svg width="69px" height="68px" viewBox="0 0 69 68" version="1.1" xmlns="http://www.w3.org/2000/svg" xmlns:xlink="http://www.w3.org/1999/xlink">
    <!-- Generator: Sketch 3.7 (28169) - http://www.bohemiancoding.com/sketch -->
    <title>Group 64</title>
    <desc>Created with Sketch.</desc>
    <defs></defs>
    <g id="Page-1" stroke="none" stroke-width="1" fill="none" fill-rule="evenodd">
        <g id="epay-web-services-salary-projects" transform="translate(-806.000000, -3602.000000)">
            <g id="Group-64" transform="translate(806.000000, 3602.000000)">
                <path d="M34.50108,29.8 C33.01176,29.8 31.8,31.0104379 31.8,32.4983803 C31.8,33.9879424 33.01176,35.2 34.50108,35.2 C35.98932,35.2 37.2,33.9879424 37.2,32.4983803 C37.2,31.0104379 35.98932,29.8 34.50108,29.8 L34.50108,29.8 Z M34.5009474,37 C32.0193158,37 30,34.9808967 30,32.4985791 C30,30.018156 32.0193158,28 34.5009474,28 C36.9816316,28 39,30.018156 39,32.4985791 C39,34.9808967 36.9816316,37 34.5009474,37 L34.5009474,37 Z" id="Fill-1" fill="#00B4D5"></path>
                <path d="M38.9388454,43 C38.2490215,41.2587503 36.464775,40.0889425 34.5,40.0889425 C32.5347358,40.0889425 30.7509785,41.2587503 30.0611546,43 L28,42.2651564 C29.0107632,39.7138613 31.6227984,38 34.5,38 C37.3772016,38 39.9887476,39.7138613 41,42.2651564 L38.9388454,43 Z" id="Fill-3" fill="#00B4D5"></path>
                <path d="M20,54 L48,54 L48,13 L20,13 L20,54 Z M18,56 L50,56 L50,11 L18,11 L18,56 Z" id="Fill-5" fill="#374D6B"></path>
                <polygon id="Fill-8" fill="#374D6B" points="33 8 36 8 36 6 33 6"></polygon>
                <polygon id="Fill-9" fill="#374D6B" points="29 61 40 61 40 59 29 59"></polygon>
                <path d="M49,68 L19,68 C15.5981505,68 13,65.3876877 13,62 L13,58 L15,58 L15,62 C15.261009,64.1333532 16.8447201,65.7249071 19,66 L49,66 C51.1567872,65.7249071 52.738991,64.1333532 53,62 L53,6 C52.738991,3.8696803 51.1567872,2.27509294 49,2 L19,2 C16.8447201,2.27509294 15.261009,3.8696803 15,6 L15,45 L13,45 L13,6 C13,2.61484015 15.5981505,0 19,0 L49,0 C52.4028544,0 55,2.61484015 55,6 L55,62 C55,65.3876877 52.4028544,68 49,68" id="Fill-10" fill="#374D6B"></path>
                <path d="M2,57 L18,57 L18,46 L2,46 L2,57 Z M0,59 L20,59 L20,44 L0,44 L0,59 Z" id="Fill-11" fill="#00B4D5"></path>
                <polygon id="Fill-12" fill="#00B4D5" points="4 55 8 55 8 53 4 53"></polygon>
                <polygon id="Fill-13" fill="#00B4D5" points="4 50 13 50 13 48 4 48"></polygon>
                <polygon id="Fill-14" fill="#00B4D5" points="67 46 69 46 69 44 67 44"></polygon>
                <path d="M58,46 L60,46 L60,44 L58,44 L58,46 Z M63,46 L65,46 L65,44 L63,44 L63,46 Z" id="Fill-15" fill="#00B4D5"></path>
                <path d="M58,13 L60,13 L60,11 L58,11 L58,13 Z M63,13 L65,13 L65,11 L63,11 L63,13 Z" id="Fill-16" fill="#00B4D5"></path>
                <polygon id="Fill-17" fill="#00B4D5" points="67 13 69 13 69 11 67 11"></polygon>
                <path d="M67,18 L69,18 L69,16 L67,16 L67,18 Z M67,23 L69,23 L69,21 L67,21 L67,23 Z M67,27 L69,27 L69,25 L67,25 L67,27 Z M67,32 L69,32 L69,30 L67,30 L67,32 Z M67,37 L69,37 L69,35 L67,35 L67,37 Z M67,42 L69,42 L69,40 L67,40 L67,42 Z" id="Fill-18" fill="#00B4D5"></path>
                <path d="M34.5,24 C29.2615733,24 25,28.2612939 25,33.4989866 C25,38.7376927 29.2615733,43 34.5,43 C39.7384267,43 44,38.7376927 44,33.4989866 C44,28.2612939 39.7384267,24 34.5,24 M34.5,45 C28.1589247,45 23,39.8408534 23,33.4990107 C23,27.158652 28.1589247,22 34.5,22 C40.8410753,22 46,27.158652 46,33.4990107 C46,39.8408534 40.8410753,45 34.5,45" id="Fill-7" fill="#00B4D5"></path>
            </g>
        </g>
    </g>
</svg>