<?xml version="1.0" encoding="UTF-8" standalone="no"?>
<svg width="74px" height="64px" viewBox="0 0 74 64" version="1.1" xmlns="http://www.w3.org/2000/svg" xmlns:xlink="http://www.w3.org/1999/xlink">
    <!-- Generator: Sketch 3.8.3 (29802) - http://www.bohemiancoding.com/sketch -->
    <title>Group 98</title>
    <desc>Created with Sketch.</desc>
    <defs></defs>
    <g id="All-pages" stroke="none" stroke-width="1" fill="none" fill-rule="evenodd">
        <g id="colored-icons" transform="translate(-710.000000, -495.000000)">
            <g id="Group-25" transform="translate(224.000000, 168.000000)">
                <g id="Group-98" transform="translate(486.000000, 327.000000)">
                    <path d="M12,62 L69,62 L46.9805523,40 L31.4036695,55.5657349 L24.9213325,49.0886733 L12,62 Z M74,64 L7,64 L25.1677564,45.9125729 L31.5473467,52.2637802 L46.8773321,37 L74,64 Z" id="Fill-106" fill="#374D6B"></path>
                    <polygon id="Fill-107" fill="#374D6B" points="68.3900428 54 50 35.6104054 51.6099572 34 70 52.3895946"></polygon>
                    <polygon id="Fill-108" fill="#374D6B" points="13.580067 44 12 42.4024647 36.1280495 18 43 24.9491028 41.419933 26.5471403 36.1280495 21.196075"></polygon>
                    <polygon id="Fill-109" fill="#00B4D5" points="1.59161744 64 0 62.4182969 24.8646458 37.7075412 31.224613 44.0278916 56.4088828 19 58 20.581206 31.224613 47.1912978 24.8646458 40.8704504"></polygon>
                    <polygon id="Fill-110" fill="#00B4D5" points="59 27 56.6961147 27 56.6961147 20.3037543 50 20.3037543 50 18 59 18"></polygon>
                    <path d="M37,9 L47,9 L44.9812834,5.49899266 L47,2 L37,2 L37,9 Z M51,11 L35,11 L35,0 L51,0 L47.7306611,5.49903922 L51,11 Z" id="Fill-111" fill="#00B4D5"></path>
                    <polygon id="Fill-112" fill="#00B4D5" points="35 19 37 19 37 1 35 1"></polygon>
                </g>
            </g>
        </g>
    </g>
</svg>