<svg xmlns="http://www.w3.org/2000/svg" width="99" height="82" viewBox="0 0 99 82">
  <g fill="none" fill-rule="evenodd" stroke-width="2" transform="translate(1 1)" stroke-linecap="round" stroke-linejoin="round">
    <g transform="translate(0 27)">
      <path stroke="#FFFFFF" d="M20.1538498,0.436097248 C18.9378525,0.150929437 17.6693575,0 16.3652344,0 C7.326965,0 0,7.24948725 0,16.192183 C0,25.1348787 11.9041742,41.5375246 11.9041742,41.5375246 L11.9041742,41.5375246 C14.3679497,45.2069559 18.3922379,45.2269398 20.8449433,41.5553632 C20.8449433,41.5553632 26.0225849,34.3776066 29.548902,26.9396791"/>
      <g stroke="#00B4D5" transform="translate(10.336 9.775)">
        <path d="M9.84037424 18.2747472C9.00050442 18.9339401 7.94055902 19.3880282 6.78900076 19.3880282L6.7245135 19.3880282C3.99762356 19.3880282 1.72265625 17.061975 1.72265625 14.3435694L1.72265625 4.93476338C1.72265625 2.21635775 3.99762356 0 6.7245135 0L6.75675713 0C7.90831539 0 8.9841267.430108099 9.82399652 1.08879085M0 6.9L7.16525136 6.9M0 10.925L7.16525136 10.925"/>
      </g>
    </g>
    <g transform="translate(64 27)">
      <path stroke="#FFFFFF" d="M3.53676275,27.6766789 C7.04599392,34.8434852 11.8911263,41.5667381 11.8911263,41.5667381 L11.8911263,41.5667381 C14.362108,45.2200352 18.3883471,45.2376528 20.8262945,41.5375246 C20.8262945,41.5375246 32.7304688,25.1348787 32.7304688,16.192183 C32.7304688,7.24948725 25.4035037,0 16.3652344,0 C15.2001283,0 14.0634594,0.12046689 12.9672571,0.34949854"/>
      <g stroke="#00B4D5" transform="translate(12.059 9.775)">
        <path d="M8.36745321 19.3722116L.57421875 19.3722116 1.99140311 16.6624796C2.88705953 14.9884764 3.32055724 13.0496736 3.07437967 10.6231088 2.91572053 9.05931127 2.49348251 6.93989366 2.28415481 5.49548556 1.89518402 2.80463134 2.99351469.00408169014 5.55253303.00408169014L5.55253303 0C6.57614037 0 7.64581004.452557394 8.48567986 1.11175035M0 9.2L7.67705503 9.2"/>
      </g>
    </g>
    <g transform="translate(20)">
      <path stroke="#FFFFFF" d="M23.9840903,77.1943707 C26.4781583,80.8393103 30.5382123,80.8595873 33.0159097,77.1943707 C33.0159097,77.1943707 57,43.7128325 57,28.1603182 C57,12.6078039 44.2401154,0 28.5,0 C12.7598846,0 0,12.6078039 0,28.1603182 C0,43.7128325 23.9840903,77.1943707 23.9840903,77.1943707 Z"/>
      <g stroke="#00B4D5" transform="translate(20 12)">
        <path d="M16.10325 13.116508L16.1323533 13.1908476C16.1323533 8.85464554 12.5834185 5.41378591 8.16886957 5.41378591L8.10983152 5.41378591C3.69528261 5.41378591 0 8.93878812 0 13.2758071L0 13.1794107C0 17.5156127 3.69528261 20.9352325 8.10983152 20.9352325L8.16886957 20.9352325C12.5834185 20.9352325 15.798913 24.6530274 15.798913 28.9900464L15.798913 29.0480476C15.798913 33.3850665 12.5834185 37.2735973 8.16886957 37.2735973L8.10983152 37.2735973C3.69528261 37.2735973 0 33.3850665 0 29.0480476L0 28.6959558M7.89962283 37.7857104L7.89962283 41.8703016M7.89962283 0L7.89962283 4.90150945"/>
      </g>
    </g>
  </g>
</svg>
