<?xml version="1.0" encoding="UTF-8" standalone="no"?>
<svg width="70px" height="62px" viewBox="0 0 70 62" version="1.1" xmlns="http://www.w3.org/2000/svg" xmlns:xlink="http://www.w3.org/1999/xlink">
    <!-- Generator: Sketch 3.7 (28169) - http://www.bohemiancoding.com/sketch -->
    <title>Group 51</title>
    <desc>Created with Sketch.</desc>
    <defs></defs>
    <g id="Page-1" stroke="none" stroke-width="1" fill="none" fill-rule="evenodd">
        <g id="epay-web-services-account-manage" transform="translate(-646.000000, -1935.000000)">
            <g id="Group-51" transform="translate(646.000000, 1935.000000)">
                <path d="M23,42 L70,42 L70,35 L23,35 L23,42 Z M25,40 L68,40 L68,37 L25,37 L25,40 Z" id="Fill-1" fill="#374D6B"></path>
                <path d="M66.9187008,32 L26.0833109,32 C25.795635,32.0005046 25.5220412,32.1145452 25.3168458,32.3194147 C25.114668,32.5237795 25.0005029,32.7992936 25.0005029,33.090955 L25,58.9130819 C25,59.2017157 25.1166797,59.4847988 25.3198634,59.6896682 C25.5185207,59.8894916 25.7901028,60 26.0833109,60 L66.9131686,60 C67.1208786,60 67.4216307,59.9460073 67.6746044,59.6896682 C67.8838232,59.4817712 67.9979883,59.2042387 67.9964795,58.9201463 L68,33.090955 C68,32.8003028 67.885332,32.5247887 67.6781249,32.3158824 C67.4749412,32.1140406 67.203862,32 66.9187008,32 L66.9187008,32 Z M66.6870866,62 L26.3094318,62 C25.4211473,62 24.5900592,61.6586084 23.9693542,61.0383476 C23.3526281,60.4205678 23,59.5680814 23,58.6982276 L23.0004974,33.3057421 C23.0004974,32.4254679 23.344173,31.595807 23.9678621,30.9690955 C24.5965248,30.344865 25.4251262,30.0019848 26.3064477,30 L66.6870866,30 C67.5689055,30 68.3975069,30.3418878 69.0246775,30.9636372 C69.6553297,31.5948146 70,32.4249717 70,33.3057421 L69.9965185,58.6987238 C70.0014921,59.567089 69.6473719,60.4230489 69.0236828,61.0398363 C68.4119303,61.6566236 67.5798474,62 66.6870866,62 L66.6870866,62 Z" id="Fill-2" fill="#374D6B"></path>
                <polygon id="Fill-4" fill="#374D6B" points="46 51 64 51 64 49 46 49"></polygon>
                <polygon id="Fill-6" fill="#374D6B" points="46 55 56 55 56 53 46 53"></polygon>
                <path d="M35,53.4172033 L35,53.4172033 C35.3821914,53.4172033 35.7385317,53.5906164 35.9499028,53.8794848 C36.4633775,54.5809568 37.3205204,55 38.2425446,55 C39.7626932,55 41,53.8785649 41,52.5 C41,51.1214351 39.7626932,50 38.2425446,50 C37.3205204,50 36.4633775,50.4185833 35.9504097,51.1205152 C35.7390386,51.4093836 35.3821914,51.5832567 35,51.5832567 C34.6178086,51.5832567 34.2609614,51.4098436 34.0495903,51.1209752 C33.5361156,50.4190432 32.6769452,50 31.7513728,50 C30.2342654,50 29,51.1214351 29,52.5 C29,53.8785649 30.2342654,55 31.7513728,55 C32.6769452,55 33.5361156,54.5809568 34.0500972,53.8794848 C34.2614683,53.5906164 34.6178086,53.4172033 35,53.4172033 M38.1325213,57 C36.9690274,57 35.8652751,56.6168093 34.9995103,55.9396578 C34.1327661,56.6168093 33.0270552,57 31.8616025,57 C29.1810614,57 27,54.981228 27,52.5 C27,50.018772 29.1810614,48 31.8616025,48 C33.0270552,48 34.1327661,48.3831907 34.9995103,49.0603422 C35.8652751,48.3831907 36.9690274,48 38.1325213,48 C40.8164902,48 43,50.018772 43,52.5 C43,54.981228 40.8164902,57 38.1325213,57" id="Fill-7" fill="#374D6B"></path>
                <path d="M2,25 L45,25 L45,2 L2,2 L2,25 Z M0,27 L47,27 L47,0 L0,0 L0,27 Z" id="Fill-8" fill="#00B4D5"></path>
                <path d="M23.5005143,9 C21.0190857,9 19,11.0185714 19,13.5 C19,15.9814286 21.0190857,18 23.5005143,18 C25.9819429,18 28,15.9814286 28,13.5 C28,11.0185714 25.9819429,9 23.5005143,9 M23.5004906,20 C19.9164151,20 17,17.0840755 17,13.5 C17,9.91592453 19.9164151,7 23.5004906,7 C27.084566,7 30,9.91592453 30,13.5 C30,17.0840755 27.084566,20 23.5004906,20" id="Fill-9" fill="#00B4D5"></path>
                <path d="M46,10 C41.5891945,10 38,6.41107692 38,2 L40.2152483,2 C40.2152483,5.18966154 42.8105347,7.78461538 46,7.78461538 L46,10 Z" id="Fill-10" fill="#00B4D5"></path>
                <path d="M1,10 L1,7.78461538 C4.18946526,7.78461538 6.78475171,5.18966154 6.78475171,2 L9,2 C9,6.41107692 5.41080549,10 1,10" id="Fill-11" fill="#00B4D5"></path>
                <path d="M40.2152483,26 L38,26 C38,21.5884308 41.5887022,18 46,18 L46,20.2153846 C42.8100425,20.2153846 40.2152483,22.8103385 40.2152483,26" id="Fill-12" fill="#00B4D5"></path>
                <path d="M9,26 L6.78475171,26 C6.78475171,22.8103385 4.18995754,20.2153846 1,20.2153846 L1,18 C5.41129777,18 9,21.5884308 9,26" id="Fill-13" fill="#00B4D5"></path>
                <polygon id="Fill-14" fill="#00B4D5" points="35 15 40 15 40 13 35 13"></polygon>
                <polygon id="Fill-15" fill="#00B4D5" points="7 15 12 15 12 13 7 13"></polygon>
                <polygon id="Fill-16" fill="#374D6B" points="63 15 65 15 65 13 63 13"></polygon>
                <path d="M54,15 L56,15 L56,13 L54,13 L54,15 Z M59,15 L61,15 L61,13 L59,13 L59,15 Z" id="Fill-17" fill="#374D6B"></path>
                <path d="M4,36 L6,36 L6,34 L4,34 L4,36 Z M4,40 L6,40 L6,38 L4,38 L4,40 Z" id="Fill-18" fill="#374D6B"></path>
                <polygon id="Fill-19" fill="#374D6B" points="4 45 6 45 6 43 4 43"></polygon>
                <path d="M9,45 L11,45 L11,43 L9,43 L9,45 Z M14,45 L16,45 L16,43 L14,43 L14,45 Z" id="Fill-20" fill="#374D6B"></path>
                <path d="M63,18.000157 L65,18.000157 L65,17 L63,17 L63,18.000157 Z M63,23 L65,23 L65,21.999843 L63,21.999843 L63,23 Z" id="Fill-21" fill="#374D6B"></path>
            </g>
        </g>
    </g>
</svg>