<?xml version="1.0" encoding="UTF-8" standalone="no"?>
<svg width="27px" height="27px" viewBox="0 0 27 27" version="1.1" xmlns="http://www.w3.org/2000/svg" xmlns:xlink="http://www.w3.org/1999/xlink">
    <!-- Generator: Sketch 3.7 (28169) - http://www.bohemiancoding.com/sketch -->
    <title>Group 3</title>
    <desc>Created with Sketch.</desc>
    <defs></defs>
    <g id="Page-1" stroke="none" stroke-width="1" fill="none" fill-rule="evenodd">
        <g id="epay-web-pricing-320" transform="translate(-279.000000, -21.000000)">
            <g id="Group-3" transform="translate(280.000000, 22.000000)">
                <path d="M25,12.5 C25,19.4034722 19.4034722,25 12.5,25 C5.59652778,25 0,19.4034722 0,12.5 C0,5.59652778 5.59652778,0 12.5,0 C19.4034722,0 25,5.59652778 25,12.5" id="Fill-1" stroke="#FFFFFF"></path>
                <path d="M15.7539062,5.6596875 C13.7171875,4.4065625 12.1929687,4.6925 12.1929687,4.6925 C12.1929687,4.6925 10.9757812,4.4065625 8.9390625,5.6596875 C6.90234375,6.9128125 8.50546875,12.2667188 8.50546875,12.2667188 C7.721875,14.6159375 9.415625,16.08 9.415625,16.08 C10.0421875,16.5503125 9.6703125,20.8870313 9.35703125,20.8870313 C9.171875,20.8870313 6.8734375,21.6167188 5.021875,22.214375 C7.0953125,23.814375 9.684375,24.776875 12.5,24.776875 C15.315625,24.776875 17.9046875,23.814375 19.978125,22.214375 C18.1265625,21.6167188 15.828125,20.8870313 15.6429687,20.8870313 C15.3296875,20.8870313 14.9570312,16.5503125 15.584375,16.08 C15.584375,16.08 17.278125,14.6159375 16.4945312,12.2667188 C16.4945312,12.2667188 17.790625,6.9128125 15.7539062,5.6596875" id="Fill-3" fill="#FFFFFF"></path>
            </g>
        </g>
    </g>
</svg>