<?xml version="1.0" encoding="UTF-8" standalone="no"?>
<svg width="70px" height="61px" viewBox="0 0 70 61" version="1.1" xmlns="http://www.w3.org/2000/svg" xmlns:xlink="http://www.w3.org/1999/xlink">
    <!-- Generator: Sketch 3.7 (28169) - http://www.bohemiancoding.com/sketch -->
    <title>Group 65</title>
    <desc>Created with Sketch.</desc>
    <defs></defs>
    <g id="Page-1" stroke="none" stroke-width="1" fill="none" fill-rule="evenodd">
        <g id="epay-web-services-salary-projects" transform="translate(-565.000000, -3612.000000)">
            <g id="Group-65" transform="translate(565.000000, 3612.000000)">
                <path d="M49.4077956,36 C44.5023993,36 39.9797142,33.7707313 37.0004851,29.8831334 L38.7369944,28.5676575 C41.2995583,31.912284 45.1892421,33.8300434 49.4077956,33.8300434 C56.8015418,33.8300434 62.8172369,27.8506074 62.8172369,20.5002411 C62.8172369,13.1498748 56.8015418,7.1699566 49.4077956,7.1699566 C45.1892421,7.1699566 41.2995583,9.08771602 38.7355392,12.4323425 L37,11.1168666 C39.9797142,7.22926875 44.5023993,5 49.4077956,5 C58.0054569,5 65,11.9535054 65,20.5002411 C65,29.0469768 58.0054569,36 49.4077956,36 L49.4077956,36 Z" id="Fill-1" fill="#00B4D5"></path>
                <path d="M49.9707579,28 L48.0292421,28 C46.9550428,28 45.9430078,27.5782951 45.1811219,26.812106 C44.4187388,26.0404011 44,25.0199857 44,23.9348854 L46.2379153,23.9348854 C46.2379153,24.4182665 46.4244082,24.8735673 46.7635767,25.2165473 C47.1007559,25.5555158 47.5513229,25.743553 48.0292421,25.743553 L49.9707579,25.743553 C50.4486771,25.743553 50.8992441,25.5555158 51.2394072,25.2135387 C51.5755918,24.8735673 51.7620847,24.4182665 51.7620847,23.9348854 C51.7620847,23.4525072 51.5760891,22.9997135 51.2384126,22.6597421 C50.8992441,22.3162607 50.4501691,22.1287249 49.9707579,22.1287249 L48.0292421,22.1287249 C46.9505669,22.1287249 45.9380346,21.7055158 45.1781381,20.9368195 C44.4187388,20.1696275 44,19.1497135 44,18.065616 C44,16.9795129 44.4187388,15.958596 45.1786354,15.1909026 C45.9440024,14.4222063 46.9555401,14 48.0292421,14 L49.9707579,14 C51.0444599,14 52.0555003,14.4222063 52.8188781,15.1888968 C53.5812612,15.958596 54,16.9795129 54,18.065616 L51.7620847,18.065616 C51.7620847,17.5817335 51.5755918,17.1269341 51.2369206,16.7854585 C50.8982495,16.4449857 50.4481798,16.256447 49.9707579,16.256447 L48.0292421,16.256447 C47.5518202,16.256447 47.1017505,16.4449857 46.7605928,16.7874642 C46.4244082,17.1269341 46.2379153,17.5817335 46.2379153,18.065616 C46.2379153,18.5474928 46.4244082,19.0017908 46.7630794,19.3432665 C47.1002586,19.6847421 47.5498309,19.8722779 48.0292421,19.8722779 L49.9707579,19.8722779 C51.0504277,19.8722779 52.06296,20.2959885 52.8218619,21.0656877 C53.5807639,21.8288682 54,22.8487822 54,23.9348854 C54,25.0199857 53.5812612,26.0404011 52.8218619,26.8095989 C52.0564949,27.5782951 51.0449572,28 49.9707579,28" id="Fill-3" fill="#00B4D5"></path>
                <polygon id="Fill-5" fill="#00B4D5" points="48 14 50 14 50 12 48 12"></polygon>
                <polygon id="Fill-5" fill="#00B4D5" points="48 30 50 30 50 28 48 28"></polygon>
                <path d="M49.4271315,41 C43.5254095,41 37.902394,38.4693838 34,34.0563706 L35.701974,32.5626041 C39.1734565,36.4890761 44.1760605,38.7405212 49.4271315,38.7405212 C59.5205376,38.7405212 67.7320454,30.556689 67.7320454,20.4969874 C67.7320454,10.4408004 59.5205376,2.25947879 49.4271315,2.25947879 C44.1760605,2.25947879 39.1734565,4.51092388 35.701974,8.4373959 L34,6.94362937 C37.902394,2.53061624 43.5254095,0 49.4271315,0 C60.7714406,0 70,9.19507446 70,20.4969874 C70,31.802415 60.7714406,41 49.4271315,41" id="Fill-8" fill="#374D6B"></path>
                <path d="M20.5,2 C10.2993558,2 2,10.2993558 2,20.5005093 C2,30.7016629 10.2993558,39 20.5,39 C30.7011535,39 39,30.7016629 39,20.5005093 C39,10.2993558 30.7011535,2 20.5,2 M20.5,41 C9.19620067,41 0,31.8037993 0,20.5005022 C0,9.19670284 9.19620067,0 20.5,0 C31.8037993,0 41,9.19670284 41,20.5005022 C41,31.8037993 31.8037993,41 20.5,41" id="Fill-9" fill="#374D6B"></path>
                <path d="M21,41 C14.8319714,41 10,31.9956275 10,20.5005022 C10,9.0048747 14.8319714,0 21,0 L21,2.25975553 C16.2834525,2.25975553 12.2982635,10.6128163 12.2982635,20.5005022 C12.2982635,30.3871837 16.2834525,38.7402445 21,38.7402445 L21,41 Z" id="Fill-10" fill="#374D6B"></path>
                <path d="M20,41 L20,38.7402445 C24.7166938,38.7402445 28.7014163,30.3871837 28.7014163,20.5005022 C28.7014163,10.6128163 24.7166938,2.25975553 20,2.25975553 L20,0 C26.1683771,0 31,9.0048747 31,20.5005022 C31,31.9956275 26.1683771,41 20,41" id="Fill-11" fill="#374D6B"></path>
                <polygon id="Fill-12" fill="#374D6B" points="19 40 21 40 21 1 19 1"></polygon>
                <polygon id="Fill-13" fill="#374D6B" points="1 21 40 21 40 19 1 19"></polygon>
                <path d="M20.4982391,12 C15.2140968,12 9.99988639,11.1003046 5,9.32539164 L5.7063635,7 C10.4778389,8.69332028 15.4545823,9.55221932 20.4982391,9.55221932 C25.5479332,9.55221932 30.526186,8.69332028 35.2936365,7 L36,9.32539164 C31.0041385,11.1003046 25.7884188,12 20.4982391,12" id="Fill-14" fill="#374D6B"></path>
                <path d="M5.70635204,34 L5,31.6756198 C10.0008115,29.9003915 15.2149372,29 20.4979876,29 C25.7870752,29 31.0027102,29.9003915 36,31.6756198 L35.2931449,34 C30.5242624,32.3057851 25.5465935,31.446716 20.4979876,31.446716 C15.4554189,31.446716 10.4787562,32.3057851 5.70635204,34" id="Fill-15" fill="#374D6B"></path>
                <polygon id="Fill-16" fill="#00B4D5" points="44.3748723 61 40 56.6248511 41.624617 55 46 59.3751489"></polygon>
                <path d="M37,52 L38.8100228,57 L42,53.811515 L37,52 Z M37.7058625,61 L33,48 L46,52.7090145 L37.7058625,61 Z" id="Fill-17" fill="#00B4D5"></path>
                <polygon id="Fill-18" fill="#00B4D5" points="29.5263402 46 27 43.4736598 28.4736598 42 31 44.5263402"></polygon>
                <polygon id="Fill-19" fill="#00B4D5" points="34.0004443 44 34 40.0005185 35.9991113 40 36 43.9994815"></polygon>
                <polygon id="Fill-20" fill="#00B4D5" points="39.4736598 46 38 44.5263402 40.5263402 42 42 43.4736598"></polygon>
                <polygon id="Fill-21" fill="#00B4D5" points="25 50 29 50 29 48 25 48"></polygon>
                <polygon id="Fill-22" fill="#00B4D5" points="28.4739523 57 27 55.5266813 29.5265108 53 31 54.4733187"></polygon>
            </g>
        </g>
    </g>
</svg>