<?xml version="1.0" encoding="UTF-8" standalone="no"?>
<svg width="59px" height="66px" viewBox="0 0 59 66" version="1.1" xmlns="http://www.w3.org/2000/svg" xmlns:xlink="http://www.w3.org/1999/xlink">
    <!-- Generator: Sketch 3.8.3 (29802) - http://www.bohemiancoding.com/sketch -->
    <title>Group 12</title>
    <desc>Created with Sketch.</desc>
    <defs></defs>
    <g id="Page-1" stroke="none" stroke-width="1" fill="none" fill-rule="evenodd">
        <g id="colored-icons-2" transform="translate(-549.000000, -168.000000)">
            <g id="Group-12" transform="translate(549.000000, 168.000000)">
                <path d="M2,17.2459016 C2.38384389,36.1796434 12.8299902,54.106761 29.5,64 C46.1710266,54.1087914 56.6161561,36.1816738 57,17.2459016 C49.0557024,16.2941822 42.690503,9.93438784 41.7222222,2 L17.2777778,2 C16.3130558,9.93438784 9.94633118,16.2941822 2,17.2459016 L2,17.2459016 Z M30,66 L29,66 C11.0869105,55.4064619 0,36.3037543 0,16 L0,15 L1,15 C8.65542039,14.6946985 14.7761721,8.60778157 15,1 L15,0 L44,0 L44,1 C44.2273511,8.60778157 50.3465928,14.6946985 58,15 L59,15 L59,16 C59,36.3062571 47.9140961,55.4089647 30,66 L30,66 L30,66 Z" id="Fill-1" fill="#374D6B"></path>
                <path d="M7,21.2745098 C8.46713852,36.3417885 16.8109201,50.4223866 29.5,59 C42.1890799,50.4239133 50.5328615,36.3428063 52,21.2745098 C45.3321537,19.0059108 40.1602629,13.7385356 38.7045455,7 L20.2954545,7 C18.8427705,13.7395534 13.6688574,19.0069285 7,21.2745098 L7,21.2745098 Z M30,61 L29,61 C15.239518,51.6745786 6.3358486,36.6065925 5,20 L5,19 L6,19 C12.3933853,17.467042 17.4053023,12.3865812 19,6 L19,5 L40,5 L40,6 C41.5981764,12.3855818 46.6081056,17.4660426 53,19 L54,19 L54,20 C52.6641514,36.6075919 43.7609789,51.6760777 30,61 L30,61 Z" id="Fill-3" fill="#374D6B"></path>
                <path d="M31,36 L29,36 C28.4009169,36 27.5800205,35.6593329 27,35 C26.3368523,34.4045505 26,33.5783963 26,33 L28,33 C28.1716837,33.0015463 28.2870242,33.2824387 28,33 C28.6967485,33.6964877 28.9761718,33.8131213 29,34 L31,34 C31.0243108,33.8131213 31.3124208,33.691628 32,33 C31.7173192,33.2882704 31.8283163,33.0083499 32,33 C31.8283163,32.5267506 31.7882608,32.1889993 32,32 C31.3114556,31.7142037 31.0238282,31.5927104 31,32 L29,32 C28.4004343,31.5927104 27.5790553,31.2515573 27,31 C26.3378175,30.0026066 26,29.1749945 26,28 C26,27.4240336 26.3358871,26.5993373 27,26 C27.5795379,25.3401811 28.4004343,25 29,25 L31,25 C31.5870182,25 32.4281836,25.3474707 33,26 C33.6655607,26.586216 34,27.4123702 34,28 L32,28 C31.8283163,28.0796112 31.7733004,27.7695604 32,28 C31.313386,27.307886 31.025276,27.1868787 31,27 L29,27 C28.9756892,27.1868787 28.6962659,27.3030263 28,28 C28.2879894,27.7170753 28.1716837,27.9984537 28,28 C28.1716837,28.5937707 28.2855764,28.8746631 28,29 C28.6977137,29.2891981 28.9766544,29.4058317 29,29 L31,29 C31.5870182,29.4058317 32.4286662,29.7552463 33,30 C33.6631477,30.9833002 34,31.8118843 34,33 C34,33.5905456 33.6645955,34.4176717 33,35 C32.427701,35.6520433 31.5865356,36 31,36" id="Fill-5" fill="#00B4D5"></path>
                <polygon id="Fill-7" fill="#00B4D5" points="29 25 31 25 31 23 29 23"></polygon>
                <polygon id="Fill-9" fill="#00B4D5" points="29 38 31 38 31 36 29 36"></polygon>
                <path d="M30,20 C23.7105946,20 19,24.7103661 19,30 C19,36.2896339 23.7105946,41 30,41 C35.2899148,41 40,36.2896339 40,30 C40,24.7103661 35.2899148,20 30,20 M30,43 C22.6074394,43 17,37.3922861 17,30 C17,23.6077139 22.6074394,18 30,18 C36.3930584,18 42,23.6077139 42,30 C42,37.3922861 36.3930584,43 30,43" id="Fill-10" fill="#00B4D5"></path>
            </g>
        </g>
    </g>
</svg>