<svg xmlns="http://www.w3.org/2000/svg" width="21" height="21" viewBox="0 0 21 21">
  <path fill="#00B4D5" fill-rule="evenodd" d="M8.48523601,13 L9.52456708,14.3792389 L8.79288511,14.9306008 L7,12.5513619 L7.11420747,12.4653004 L7,12.3792389 L8.79288511,10 L9.52456708,10.5513619 L8.43293998,12 L12,12 L12,13 L8.48523601,13 Z M12.0393311,9 L9,9 L9,8 L12.0916271,8 L11,6.55136191 L11.731682,6 L13.5245671,8.37923891 L13.4103596,8.46530041 L13.5245671,8.55136191 L11.731682,10.9306008 L11,10.3792389 L12.0393311,9 Z M14.875,4.375 L16.625,2.625 L18.375,4.375 L16.625,6.125 L14.875,4.375 Z M8.75,1.75 L10.5,0 L12.25,1.75 L10.5,3.5 L8.75,1.75 Z M2.625,4.375 L4.375,2.625 L6.125,4.375 L4.375,6.125 L2.625,4.375 Z M0,10.5 L1.75,8.75 L3.5,10.5 L1.75,12.25 L0,10.5 Z M2.625,16.625 L4.375,14.875 L6.125,16.625 L4.375,18.375 L2.625,16.625 Z M8.75,19.25 L10.5,17.5 L12.25,19.25 L10.5,21 L8.75,19.25 Z M14.875,16.625 L16.625,14.875 L18.375,16.625 L16.625,18.375 L14.875,16.625 Z M17.5,10.5 L19.25,8.75 L21,10.5 L19.25,12.25 L17.5,10.5 Z"/>
</svg>
