<?xml version="1.0" encoding="UTF-8" standalone="no"?>
<svg width="64px" height="65px" viewBox="0 0 64 65" version="1.1" xmlns="http://www.w3.org/2000/svg" xmlns:xlink="http://www.w3.org/1999/xlink">
    <!-- Generator: Sketch 3.8.3 (29802) - http://www.bohemiancoding.com/sketch -->
    <title>Group 5</title>
    <desc>Created with Sketch.</desc>
    <defs></defs>
    <g id="All-pages" stroke="none" stroke-width="1" fill="none" fill-rule="evenodd">
        <g id="colored-icons" transform="translate(-715.000000, -172.000000)">
            <g id="Group-25" transform="translate(224.000000, 168.000000)">
                <g id="Group-5" transform="translate(491.000000, 4.000000)">
                    <g id="Group-4" fill="#374D6B">
                        <path d="M59,59 L59,60.7490529 C59,61.086098 59.156,61.4029388 59.4390909,61.6417174 C60.0058182,62.1197337 60.9958182,62.1188153 61.5592727,61.6426357 C61.844,61.4029388 62,61.086098 62,60.7490529 L62,59 L59,59 Z M60.5,65 C59.563931,65 58.6843448,64.6118002 58.023931,63.9073848 C57.364,63.2034835 57,62.2676907 57,61.272254 L57,57 L64,57 L64,61.272254 C64,62.2682049 63.636,63.2039977 62.9741379,63.9084131 C62.3161379,64.6118002 61.4365517,65 60.5,65 L60.5,65 Z" id="Fill-41"></path>
                        <polygon id="Fill-42" points="61.9641869 17 60.4997518 13.6344148 59.0358131 17 57 16.043563 60.4997518 8 64 16.043563"></polygon>
                        <path d="M59,58 L62,58 L62,18 L59,18 L59,58 Z M62.9137931,60 L58.0862069,60 C57.4861379,60 57,59.4963034 57,58.8756771 L57,17.1243229 C57,16.5036966 57.4861379,16 58.0862069,16 L62.9137931,16 C63.5133793,16 64,16.5036966 64,17.1243229 L64,58.8756771 C64,59.4963034 63.5133793,60 62.9137931,60 L62.9137931,60 Z" id="Fill-43"></path>
                        <polygon id="Fill-44" points="10 57 8 57 8 3 24 3 24 5 10 5"></polygon>
                        <path d="M45,65 L45,63 C48.9126363,62.7590361 51.6908275,60.0609157 52,57 L52,5 L38,5 L38,3 L54,3 L54,57 C54,61.2964337 50.1857601,65 45,65" id="Fill-45"></path>
                        <path d="M2,58.0020346 C2.52705559,60.844354 4.97701722,63 7.91119249,63 L39,63 C37.6529695,61.707528 36.7298749,59.9603255 36.4683398,58 L2,58.0020346 Z M45,65 L8.25858557,65 C3.70557757,65 0.000498195425,61.4463622 0,57.0773234 L0,56.0019118 L38.9842902,56 L38.9842902,57.0754116 C38.9842902,60.2591078 41.6825167,62.8491768 45,62.8491768 L45,65 Z" id="Fill-46"></path>
                        <path d="M30.9993846,2 C29.8966154,2 29,2.89647747 29,3.99907707 C29,5.10229196 29.8966154,6 30.9993846,6 C32.1027692,6 33,5.10229196 33,3.99907707 C33,2.89647747 32.1027692,2 30.9993846,2 M30.9994839,8 C28.7940645,8 27,6.20501903 27,3.99922586 C27,1.79446487 28.7940645,0 30.9994839,0 C33.2049032,0 35,1.79446487 35,3.99922586 C35,6.20501903 33.2049032,8 30.9994839,8" id="Fill-47"></path>
                    </g>
                    <g id="Group-3" transform="translate(13.000000, 14.000000)" fill="#00B4D5">
                        <path d="M31,24 L29,24 L29,21 C28.7649418,20.4851877 28.5682567,20.0279181 28,20 C27.8520447,19.3393857 27.3777156,19.1501706 27,19 L8,19 C7.62327772,19.1501706 7.14795534,19.3393857 7,20 C6.43224003,20.0283959 6.23505822,20.4861433 6,21 L6,24 L4,24 L4,21 C4,19.9103754 4.43012454,18.9131741 5,18 C5.98820846,17.4137884 7.02527547,17 8,17 L27,17 C27.9757179,17 29.0127849,17.4137884 30,18 C30.5698755,18.9112628 31,19.908942 31,21 L31,24 Z" id="Fill-48"></path>
                        <polygon id="Fill-49" points="17 24 19 24 19 12 17 12"></polygon>
                        <path d="M15,34 L21,34 L21,28 L15,28 L15,34 Z M13,36 L23,36 L23,26 L13,26 L13,36 Z" id="Fill-50"></path>
                        <path d="M11,8 L25,8 L25,2 L11,2 L11,8 Z M9,10 L27,10 L27,0 L9,0 L9,10 Z" id="Fill-51"></path>
                        <path d="M27,34 L33,34 L33,28 L27,28 L27,34 Z M25,36 L35,36 L35,26 L25,26 L25,36 Z" id="Fill-52"></path>
                        <path d="M2,34 L8,34 L8,28 L2,28 L2,34 Z M0,36 L10,36 L10,26 L0,26 L0,36 Z" id="Fill-53"></path>
                    </g>
                </g>
            </g>
        </g>
    </g>
</svg>