<?xml version="1.0" encoding="UTF-8" standalone="no"?>
<svg width="200px" height="50px" viewBox="0 0 200 50" version="1.1" xmlns="http://www.w3.org/2000/svg" xmlns:xlink="http://www.w3.org/1999/xlink">
    <!-- Generator: Sketch 3.7 (28169) - http://www.bohemiancoding.com/sketch -->
    <title>Group 7</title>
    <desc>Created with Sketch.</desc>
    <defs></defs>
    <g id="Page-1" stroke="none" stroke-width="1" fill="none" fill-rule="evenodd">
        <g id="epay-web-services-cards" transform="translate(-95.000000, -6338.000000)">
            <g id="Group-33" transform="translate(95.000000, 6278.000000)">
                <g id="Group-7" transform="translate(0.000000, 60.000000)">
                    <rect id="Rectangle-41" fill-opacity="0.699999988" fill="#000000" opacity="0.5" x="0" y="0" width="200" height="50" rx="2"></rect>
                    <g id="Group-8" transform="translate(47.000000, 11.000000)" fill="#FFFFFF">
                        <path d="M15.873,6.232 C18.732,6.232 20.561,8.974 20.561,8.974 C20.561,8.974 17.772,10.474 17.772,13.732 C17.772,17.599 21.276,18.724 21.276,18.724 C21.276,18.724 18.51,25.228 15.405,25.228 C13.659,25.228 13.542,24.232 11.221,24.232 C9.205,24.232 8.526,25.228 6.991,25.228 C4.061,25.228 0.276,18.888 0.276,13.732 C0.276,8.377 4.108,6.232 6.51,6.232 C8.619,6.232 9.498,7.462 11.198,7.462 C12.627,7.463 13.752,6.232 15.873,6.232 L15.873,6.232 Z M15.381,0.771 C15.803,3.396 13.401,6.642 10.529,6.537 C10.107,3.197 13.201,0.947 15.381,0.771 L15.381,0.771 Z" id="Shape"></path>
                        <path d="M31.3398438,8.21142578 C31.6521826,8.21142578 31.9088532,8.1789554 32.1098633,8.11401367 C32.468589,7.9934076 32.7623686,7.76147633 32.9912109,7.41821289 C33.1736663,7.14298365 33.305094,6.79044811 33.385498,6.3605957 C33.431885,6.10392124 33.4550781,5.86580513 33.4550781,5.64624023 C33.4550781,4.80199773 33.2873145,4.14640533 32.9517822,3.67944336 C32.6162499,3.21248139 32.0758501,2.97900391 31.3305664,2.97900391 L29.6931152,2.97900391 L29.6931152,8.21142578 L31.3398438,8.21142578 Z M28.7653809,2.18579102 L31.5253906,2.18579102 C32.462407,2.18579102 33.189125,2.51822584 33.7055664,3.18310547 C34.1663434,3.78304336 34.3967285,4.55150899 34.3967285,5.48852539 C34.3967285,6.21216182 34.2606622,6.86620802 33.9885254,7.45068359 C33.5091936,8.48356636 32.6850644,9 31.5161133,9 L28.7653809,9 L28.7653809,2.18579102 Z M39.0831299,7.83337402 C39.2887787,7.41434524 39.3916016,6.94816337 39.3916016,6.43481445 C39.3916016,5.97094495 39.3173836,5.59367007 39.1689453,5.30297852 C38.9339181,4.84529394 38.5288115,4.61645508 37.9536133,4.61645508 C37.4433568,4.61645508 37.0722668,4.81127735 36.840332,5.20092773 C36.6083973,5.59057812 36.4924316,6.0606255 36.4924316,6.61108398 C36.4924316,7.13989522 36.6083973,7.58056464 36.840332,7.93310547 C37.0722668,8.28564629 37.4402644,8.46191406 37.9443359,8.46191406 C38.4978869,8.46191406 38.8774811,8.25240281 39.0831299,7.83337402 L39.0831299,7.83337402 Z M39.6003418,4.52832031 C40.0425641,4.95508026 40.2636719,5.58284091 40.2636719,6.41162109 C40.2636719,7.21256911 40.0688496,7.87434635 39.6791992,8.39697266 C39.2895488,8.91959897 38.6849813,9.1809082 37.8654785,9.1809082 C37.1820441,9.1809082 36.6393249,8.94975003 36.2373047,8.48742676 C35.8352844,8.02510348 35.6342773,7.40430077 35.6342773,6.625 C35.6342773,5.79003489 35.8461079,5.12516523 36.2697754,4.63037109 C36.6934429,4.13557695 37.2624476,3.88818359 37.9768066,3.88818359 C38.6169466,3.88818359 39.1581195,4.10156037 39.6003418,4.52832031 L39.6003418,4.52832031 Z M42.1413574,4.03198242 L43.0969238,7.94702148 L44.0664062,4.03198242 L45.003418,4.03198242 L45.9775391,7.92382812 L46.9934082,4.03198242 L47.8283691,4.03198242 L46.3857422,9 L45.5183105,9 L44.5070801,5.15454102 L43.5283203,9 L42.6608887,9 L41.2275391,4.03198242 L42.1413574,4.03198242 Z M49.1169434,4.03198242 L49.9101562,4.03198242 L49.9101562,4.73706055 C50.1451835,4.44636899 50.394123,4.23763084 50.6569824,4.11083984 C50.9198418,3.98404885 51.2120752,3.9206543 51.5336914,3.9206543 C52.2387731,3.9206543 52.7150053,4.16650145 52.9624023,4.65820312 C53.0984707,4.92724744 53.1665039,5.31225335 53.1665039,5.81323242 L53.1665039,9 L52.317627,9 L52.317627,5.86889648 C52.317627,5.56583507 52.2727869,5.32153413 52.1831055,5.13598633 C52.0346672,4.82673999 51.7656269,4.67211914 51.3759766,4.67211914 C51.1780589,4.67211914 51.015707,4.69221985 50.888916,4.73242188 C50.6600737,4.80045607 50.4590666,4.93652242 50.2858887,5.140625 C50.1467278,5.30452556 50.0562746,5.47383539 50.0145264,5.64855957 C49.9727781,5.82328375 49.9519043,6.07299642 49.9519043,6.39770508 L49.9519043,9 L49.1169434,9 L49.1169434,4.03198242 Z M54.923584,2.18579102 L55.7585449,2.18579102 L55.7585449,9 L54.923584,9 L54.923584,2.18579102 Z M60.6212158,7.83337402 C60.8268646,7.41434524 60.9296875,6.94816337 60.9296875,6.43481445 C60.9296875,5.97094495 60.8554695,5.59367007 60.7070312,5.30297852 C60.472004,4.84529394 60.0668974,4.61645508 59.4916992,4.61645508 C58.9814428,4.61645508 58.6103527,4.81127735 58.378418,5.20092773 C58.1464832,5.59057812 58.0305176,6.0606255 58.0305176,6.61108398 C58.0305176,7.13989522 58.1464832,7.58056464 58.378418,7.93310547 C58.6103527,8.28564629 58.9783503,8.46191406 59.4824219,8.46191406 C60.0359728,8.46191406 60.415567,8.25240281 60.6212158,7.83337402 L60.6212158,7.83337402 Z M61.1384277,4.52832031 C61.58065,4.95508026 61.8017578,5.58284091 61.8017578,6.41162109 C61.8017578,7.21256911 61.6069355,7.87434635 61.2172852,8.39697266 C60.8276348,8.91959897 60.2230672,9.1809082 59.4035645,9.1809082 C58.72013,9.1809082 58.1774109,8.94975003 57.7753906,8.48742676 C57.3733704,8.02510348 57.1723633,7.40430077 57.1723633,6.625 C57.1723633,5.79003489 57.3841938,5.12516523 57.8078613,4.63037109 C58.2315288,4.13557695 58.8005335,3.88818359 59.5148926,3.88818359 C60.1550325,3.88818359 60.6962055,4.10156037 61.1384277,4.52832031 L61.1384277,4.52832031 Z M64.1989746,8.24853516 C64.375245,8.38769601 64.5839832,8.45727539 64.8251953,8.45727539 C65.1189793,8.45727539 65.4034817,8.38924222 65.6787109,8.25317383 C66.1425804,8.027424 66.3745117,7.65788017 66.3745117,7.14453125 L66.3745117,6.47192383 C66.2724604,6.53686556 66.1410327,6.59098286 65.9802246,6.63427734 C65.8194165,6.67757183 65.6617032,6.708496 65.5070801,6.72705078 L65.0014648,6.79199219 C64.6984034,6.83219421 64.4711108,6.89558876 64.3195801,6.98217773 C64.0629056,7.12752351 63.9345703,7.35945479 63.9345703,7.67797852 C63.9345703,7.91919066 64.0227042,8.1093743 64.1989746,8.24853516 L64.1989746,8.24853516 Z M65.9570312,5.98950195 C66.148764,5.96476225 66.2770993,5.8843594 66.342041,5.74829102 C66.3791506,5.67407189 66.3977051,5.56738351 66.3977051,5.42822266 C66.3977051,5.14371603 66.2964284,4.93729719 66.0938721,4.80895996 C65.8913157,4.68062273 65.6014016,4.61645508 65.2241211,4.61645508 C64.7880838,4.61645508 64.4788421,4.73396692 64.2963867,4.96899414 C64.1943354,5.0988776 64.1278485,5.29215366 64.0969238,5.54882812 L63.317627,5.54882812 C63.3330893,4.93652038 63.5317771,4.51053994 63.9136963,4.27087402 C64.2956155,4.03120811 64.7386043,3.91137695 65.2426758,3.91137695 C65.8271514,3.91137695 66.3018374,4.02270396 66.666748,4.24536133 C67.0285663,4.46801869 67.2094727,4.81436939 67.2094727,5.28442383 L67.2094727,8.14648438 C67.2094727,8.23307335 67.2272541,8.30265273 67.2628174,8.35522461 C67.2983807,8.40779649 67.3733718,8.43408203 67.487793,8.43408203 C67.5249025,8.43408203 67.5666502,8.43176272 67.6130371,8.42712402 C67.6594241,8.42248533 67.7089027,8.41552739 67.7614746,8.40625 L67.7614746,9.02319336 C67.6315911,9.06030292 67.5326338,9.08349605 67.4645996,9.09277344 C67.3965654,9.10205083 67.3037929,9.10668945 67.1862793,9.10668945 C66.8986802,9.10668945 66.6899421,9.00463969 66.5600586,8.80053711 C66.4920244,8.69230089 66.4440919,8.53922625 66.4162598,8.34130859 C66.2461743,8.56396596 66.0018733,8.75724202 65.6833496,8.92114258 C65.3648259,9.08504314 65.0138366,9.16699219 64.6303711,9.16699219 C64.1695941,9.16699219 63.7930923,9.02706032 63.5008545,8.74719238 C63.2086167,8.46732445 63.0625,8.11710822 63.0625,7.6965332 C63.0625,7.23575616 63.2062974,6.878582 63.4938965,6.625 C63.7814956,6.371418 64.1587705,6.21525094 64.6257324,6.15649414 L65.9570312,5.98950195 Z M69.9453125,7.90991211 C70.1710623,8.26863786 70.5328751,8.44799805 71.0307617,8.44799805 C71.4173196,8.44799805 71.7350655,8.28178063 71.9840088,7.94934082 C72.2329521,7.61690101 72.3574219,7.13989569 72.3574219,6.51831055 C72.3574219,5.89054048 72.2290866,5.42590483 71.9724121,5.12438965 C71.7157376,4.82287447 71.3987649,4.67211914 71.0214844,4.67211914 C70.6009094,4.67211914 70.2599704,4.83292482 69.9986572,5.15454102 C69.7373441,5.47615721 69.6066895,5.94929701 69.6066895,6.57397461 C69.6066895,7.10587831 69.7195627,7.55118636 69.9453125,7.90991211 L69.9453125,7.90991211 Z M71.8193359,4.18505859 C71.9677742,4.2778325 72.1363109,4.44018439 72.3249512,4.67211914 L72.3249512,2.16259766 L73.1274414,2.16259766 L73.1274414,9 L72.3759766,9 L72.3759766,8.30883789 C72.1811514,8.61499177 71.9507663,8.83609958 71.6848145,8.97216797 C71.4188626,9.10823636 71.1142595,9.17626953 70.7709961,9.17626953 C70.2174451,9.17626953 69.7381205,8.94356515 69.3330078,8.47814941 C68.9278951,8.01273368 68.7253418,7.39347717 68.7253418,6.62036133 C68.7253418,5.8967249 68.9101137,5.26973735 69.2796631,4.73937988 C69.6492125,4.20902241 70.1772427,3.94384766 70.8637695,3.94384766 C71.2441425,3.94384766 71.5626615,4.0242505 71.8193359,4.18505859 L71.8193359,4.18505859 Z M81.1109619,7.83337402 C81.3166107,7.41434524 81.4194336,6.94816337 81.4194336,6.43481445 C81.4194336,5.97094495 81.3452156,5.59367007 81.1967773,5.30297852 C80.9617501,4.84529394 80.5566435,4.61645508 79.9814453,4.61645508 C79.4711889,4.61645508 79.1000988,4.81127735 78.8681641,5.20092773 C78.6362293,5.59057812 78.5202637,6.0606255 78.5202637,6.61108398 C78.5202637,7.13989522 78.6362293,7.58056464 78.8681641,7.93310547 C79.1000988,8.28564629 79.4680964,8.46191406 79.972168,8.46191406 C80.5257189,8.46191406 80.9053131,8.25240281 81.1109619,7.83337402 L81.1109619,7.83337402 Z M81.6281738,4.52832031 C82.0703961,4.95508026 82.2915039,5.58284091 82.2915039,6.41162109 C82.2915039,7.21256911 82.0966816,7.87434635 81.7070312,8.39697266 C81.3173809,8.91959897 80.7128133,9.1809082 79.8933105,9.1809082 C79.2098761,9.1809082 78.667157,8.94975003 78.2651367,8.48742676 C77.8631165,8.02510348 77.6621094,7.40430077 77.6621094,6.625 C77.6621094,5.79003489 77.8739399,5.12516523 78.2976074,4.63037109 C78.7212749,4.13557695 79.2902796,3.88818359 80.0046387,3.88818359 C80.6447786,3.88818359 81.1859516,4.10156037 81.6281738,4.52832031 L81.6281738,4.52832031 Z M83.7841797,4.03198242 L84.5773926,4.03198242 L84.5773926,4.73706055 C84.8124198,4.44636899 85.0613594,4.23763084 85.3242188,4.11083984 C85.5870781,3.98404885 85.8793115,3.9206543 86.2009277,3.9206543 C86.9060094,3.9206543 87.3822416,4.16650145 87.6296387,4.65820312 C87.7657071,4.92724744 87.8337402,5.31225335 87.8337402,5.81323242 L87.8337402,9 L86.9848633,9 L86.9848633,5.86889648 C86.9848633,5.56583507 86.9400232,5.32153413 86.8503418,5.13598633 C86.7019036,4.82673999 86.4328633,4.67211914 86.0432129,4.67211914 C85.8452952,4.67211914 85.6829433,4.69221985 85.5561523,4.73242188 C85.3273101,4.80045607 85.1263029,4.93652242 84.953125,5.140625 C84.8139641,5.30452556 84.723511,5.47383539 84.6817627,5.64855957 C84.6400144,5.82328375 84.6191406,6.07299642 84.6191406,6.39770508 L84.6191406,9 L83.7841797,9 L83.7841797,4.03198242 Z M92.8740234,2.64501953 L93.7182617,2.64501953 L93.7182617,4.03198242 L94.5114746,4.03198242 L94.5114746,4.71386719 L93.7182617,4.71386719 L93.7182617,7.95629883 C93.7182617,8.12947678 93.7770176,8.24544241 93.8945312,8.30419922 C93.959473,8.33821632 94.0677076,8.35522461 94.2192383,8.35522461 C94.2594403,8.35522461 94.3027341,8.35445151 94.3491211,8.35290527 C94.395508,8.35135904 94.4496253,8.34749352 94.5114746,8.34130859 L94.5114746,9 C94.4156082,9.02783217 94.3158778,9.04793288 94.2122803,9.06030273 C94.1086828,9.07267259 93.9965826,9.07885742 93.8759766,9.07885742 C93.4863262,9.07885742 93.2219245,8.97912697 93.0827637,8.77966309 C92.9436028,8.5801992 92.8740234,8.32120927 92.8740234,8.00268555 L92.8740234,4.71386719 L92.201416,4.71386719 L92.201416,4.03198242 L92.8740234,4.03198242 L92.8740234,2.64501953 Z M95.8464355,2.16259766 L96.6813965,2.16259766 L96.6813965,4.70458984 C96.8793141,4.45410031 97.0571281,4.27783254 97.2148438,4.17578125 C97.4838881,3.99951084 97.8194153,3.91137695 98.2214355,3.91137695 C98.9419795,3.91137695 99.4305814,4.16340894 99.6872559,4.66748047 C99.8264167,4.94270971 99.8959961,5.32462321 99.8959961,5.81323242 L99.8959961,9 L99.0378418,9 L99.0378418,5.86889648 C99.0378418,5.50398581 98.9914555,5.23649174 98.8986816,5.06640625 C98.7471509,4.79426947 98.4626486,4.65820312 98.045166,4.65820312 C97.6988101,4.65820312 97.3849298,4.77726118 97.1035156,5.01538086 C96.8221015,5.25350054 96.6813965,5.70344721 96.6813965,6.36523438 L96.6813965,9 L95.8464355,9 L95.8464355,2.16259766 Z M104.723877,4.16882324 C105.054771,4.33427003 105.306803,4.54841991 105.47998,4.8112793 C105.646973,5.06176883 105.758301,5.35400224 105.813965,5.68798828 C105.863444,5.91683057 105.888184,6.28173578 105.888184,6.78271484 L102.246826,6.78271484 C102.262288,7.28678637 102.381347,7.6911199 102.604004,7.99572754 C102.826661,8.30033518 103.171466,8.45263672 103.638428,8.45263672 C104.074465,8.45263672 104.422362,8.30883933 104.682129,8.02124023 C104.830567,7.85424721 104.935709,7.66097115 104.997559,7.44140625 L105.818604,7.44140625 C105.796956,7.62386159 105.725058,7.82718801 105.602905,8.0513916 C105.480753,8.2755952 105.343914,8.4588209 105.192383,8.60107422 C104.938801,8.84847129 104.62492,9.01546181 104.250732,9.10205078 C104.049722,9.1515302 103.82243,9.17626953 103.568848,9.17626953 C102.950355,9.17626953 102.42619,8.9512962 101.996338,8.50134277 C101.566485,8.05138935 101.351562,7.42130939 101.351562,6.61108398 C101.351562,5.81322843 101.568032,5.16536707 102.000977,4.66748047 C102.433921,4.16959386 102.999834,3.9206543 103.69873,3.9206543 C104.051271,3.9206543 104.392983,4.00337645 104.723877,4.16882324 L104.723877,4.16882324 Z M105.030029,6.11938477 C104.996012,5.75756655 104.917156,5.46842556 104.793457,5.25195312 C104.564615,4.84993289 104.182701,4.64892578 103.647705,4.64892578 C103.26424,4.64892578 102.942628,4.78731144 102.682861,5.06408691 C102.423094,5.34086239 102.285482,5.69262482 102.27002,6.11938477 L105.030029,6.11938477 Z" id="Download-on-the"></path>
                        <path d="M32.9805094,20.7212321 L35.6436768,20.7212321 L34.3334554,16.5911865 L32.9805094,20.7212321 Z M33.115804,14.1914876 L35.5938314,14.1914876 L39.3108724,24.6875 L36.9325358,24.6875 L36.2560628,22.5299072 L32.3894857,22.5299072 L31.6631673,24.6875 L29.3702799,24.6875 L33.115804,14.1914876 Z M45.4169312,19.21875 C45.143967,18.7582714 44.701297,18.5280355 44.0889079,18.5280355 C43.3530915,18.5280355 42.847522,18.8769496 42.5721842,19.5747884 C42.4297682,19.9450702 42.3585612,20.4150362 42.3585612,20.9847005 C42.3585612,21.886669 42.5982913,22.520411 43.0777588,22.8859456 C43.3625909,23.0995698 43.6996373,23.2063802 44.0889079,23.2063802 C44.653825,23.2063802 45.0846272,22.9880122 45.3813273,22.5512695 C45.6780275,22.1145269 45.8263753,21.5330033 45.8263753,20.8066813 C45.8263753,20.2085338 45.6898953,19.6792286 45.4169312,19.21875 L45.4169312,19.21875 Z M46.9763794,17.7589925 C47.6053837,18.4283481 47.9198812,19.4110043 47.9198812,20.7069906 C47.9198812,22.0741849 47.6125044,23.1161802 46.9977417,23.8330078 C46.382979,24.5498354 45.5913948,24.9082438 44.6229655,24.9082438 C44.0058292,24.9082438 43.493139,24.753962 43.0848796,24.4453939 C42.861761,24.2744946 42.643393,24.0252702 42.4297689,23.6977132 L42.4297689,27.7423096 L40.4217122,27.7423096 L40.4217122,16.9258626 L42.365682,16.9258626 L42.365682,18.0723063 C42.5840533,17.7352549 42.8166627,17.4694156 43.0635173,17.2747803 C43.5145015,16.9282345 44.0509273,16.7549642 44.6728109,16.7549642 C45.5795266,16.7549642 46.3473751,17.089637 46.9763794,17.7589925 L46.9763794,17.7589925 Z M54.3250122,19.21875 C54.0520481,18.7582714 53.6093781,18.5280355 52.9969889,18.5280355 C52.2611725,18.5280355 51.755603,18.8769496 51.4802653,19.5747884 C51.3378492,19.9450702 51.2666423,20.4150362 51.2666423,20.9847005 C51.2666423,21.886669 51.5063724,22.520411 51.9858398,22.8859456 C52.270672,23.0995698 52.6077183,23.2063802 52.9969889,23.2063802 C53.561906,23.2063802 53.9927082,22.9880122 54.2894084,22.5512695 C54.5861085,22.1145269 54.7344564,21.5330033 54.7344564,20.8066813 C54.7344564,20.2085338 54.5979764,19.6792286 54.3250122,19.21875 L54.3250122,19.21875 Z M55.8844604,17.7589925 C56.5134648,18.4283481 56.8279622,19.4110043 56.8279622,20.7069906 C56.8279622,22.0741849 56.5205855,23.1161802 55.9058228,23.8330078 C55.29106,24.5498354 54.4994759,24.9082438 53.5310465,24.9082438 C52.9139102,24.9082438 52.40122,24.753962 51.9929606,24.4453939 C51.7698421,24.2744946 51.551474,24.0252702 51.3378499,23.6977132 L51.3378499,27.7423096 L49.3297933,27.7423096 L49.3297933,16.9258626 L51.273763,16.9258626 L51.273763,18.0723063 C51.4921343,17.7352549 51.7247438,17.4694156 51.9715983,17.2747803 C52.4225826,16.9282345 52.9590084,16.7549642 53.5808919,16.7549642 C54.4876076,16.7549642 55.2554561,17.089637 55.8844604,17.7589925 L55.8844604,17.7589925 Z M64.0982666,21.4475505 C64.1647274,21.9270179 64.2952735,22.2854263 64.4899089,22.5227865 C64.845949,22.9547819 65.4559554,23.1707764 66.3199463,23.1707764 C66.8373914,23.1707764 67.2575125,23.1138108 67.5803223,22.9998779 C68.1927114,22.7815066 68.4989014,22.3756269 68.4989014,21.7822266 C68.4989014,21.4356808 68.3469932,21.1674679 68.0431722,20.9775798 C67.7393512,20.7924389 67.2622645,20.6286628 66.6118978,20.4862467 L65.5010579,20.2370199 C64.4092014,19.9901653 63.6544075,19.7219524 63.2366536,19.432373 C62.5293205,18.9481584 62.1756592,18.1909909 62.1756592,17.160848 C62.1756592,16.2209019 62.5174526,15.4399988 63.2010498,14.8181152 C63.884647,14.1962317 64.8886653,13.8852946 66.2131348,13.8852946 C67.319233,13.8852946 68.2627253,14.17843 69.0436401,14.7647095 C69.824555,15.350989 70.233995,16.2019123 70.2719727,17.3175049 L68.1642253,17.3175049 C68.1262476,16.6861269 67.850914,16.237523 67.3382161,15.9716797 C66.9964176,15.7960332 66.5715493,15.7082113 66.0635986,15.7082113 C65.4986815,15.7082113 65.0477041,15.8221424 64.7106527,16.0500081 C64.3736013,16.2778739 64.2050781,16.5959317 64.2050781,17.0041911 C64.2050781,17.3792201 64.3712277,17.6593008 64.7035319,17.8444417 C64.917156,17.967869 65.3728806,18.1126565 66.0707194,18.2788086 L67.8793945,18.7131755 C68.6721774,18.9030636 69.2703159,19.1570351 69.6738281,19.4750977 C70.3004589,19.9688067 70.6137695,20.68325 70.6137695,21.6184489 C70.6137695,22.5773838 70.2470536,23.3737151 69.5136108,24.0074666 C68.780168,24.6412182 67.7441066,24.9580892 66.4053955,24.9580892 C65.0382012,24.9580892 63.9629759,24.6459653 63.1796875,24.0217082 C62.3963991,23.397451 62.0047607,22.539407 62.0047607,21.4475505 L64.0982666,21.4475505 Z M71.276001,18.4425863 L71.276001,16.9970703 L72.3583577,16.9970703 L72.3583577,14.8323568 L74.3664144,14.8323568 L74.3664144,16.9970703 L75.6267904,16.9970703 L75.6267904,18.4425863 L74.3664144,18.4425863 L74.3664144,22.5441488 C74.3664144,22.8622113 74.406765,23.0604041 74.4874674,23.1387329 C74.5681699,23.2170618 74.8150207,23.2562256 75.2280273,23.2562256 C75.289741,23.2562256 75.355014,23.2550388 75.4238485,23.2526652 C75.4926829,23.2502916 75.5603295,23.2467313 75.6267904,23.241984 L75.6267904,24.7587077 L74.6654867,24.7943115 C73.7065517,24.8275419 73.0514476,24.6613923 72.7001546,24.2958577 C72.4722889,24.0632448 72.3583577,23.7048364 72.3583577,23.2206217 L72.3583577,18.4425863 L71.276001,18.4425863 Z M81.7791341,22.6224772 C82.0971967,22.1999762 82.2562256,21.5994641 82.2562256,20.8209229 C82.2562256,20.0423816 82.0971967,19.4430563 81.7791341,19.0229289 C81.4610715,18.6028014 81.0053469,18.3927409 80.4119466,18.3927409 C79.8185463,18.3927409 79.3616349,18.6028014 79.0411987,19.0229289 C78.7207626,19.4430563 78.5605469,20.0423816 78.5605469,20.8209229 C78.5605469,21.5994641 78.7207626,22.1999762 79.0411987,22.6224772 C79.3616349,23.0449782 79.8185463,23.2562256 80.4119466,23.2562256 C81.0053469,23.2562256 81.4610715,23.0449782 81.7791341,22.6224772 L81.7791341,22.6224772 Z M83.4026693,23.7439982 C82.7475553,24.5533962 81.7530313,24.9580892 80.4190674,24.9580892 C79.0851035,24.9580892 78.0905794,24.5533962 77.4354655,23.7439982 C76.7803515,22.9346002 76.4527995,21.9602515 76.4527995,20.8209229 C76.4527995,19.700583 76.7803515,18.7297947 77.4354655,17.9085286 C78.0905794,17.0872626 79.0851035,16.6766357 80.4190674,16.6766357 C81.7530313,16.6766357 82.7475553,17.0872626 83.4026693,17.9085286 C84.0577832,18.7297947 84.3853353,19.700583 84.3853353,20.8209229 C84.3853353,21.9602515 84.0577832,22.9346002 83.4026693,23.7439982 L83.4026693,23.7439982 Z M90.1495972,16.744283 C90.1757068,16.7466566 90.2338591,16.750217 90.324056,16.7549642 L90.324056,18.8342285 C90.1958815,18.8199869 90.0819504,18.8104926 89.9822591,18.8057454 C89.8825679,18.8009982 89.8018666,18.7986247 89.740153,18.7986247 C88.9236342,18.7986247 88.3753405,19.064464 88.0952555,19.5961507 C87.9385978,19.8952245 87.8602702,20.3556962 87.8602702,20.9775798 L87.8602702,24.6875 L85.8166097,24.6875 L85.8166097,16.9258626 L87.7534587,16.9258626 L87.7534587,18.2788086 C88.066774,17.7613635 88.3397341,17.4077022 88.572347,17.2178141 C88.9521232,16.8997516 89.4458249,16.7407227 90.0534668,16.7407227 C90.0914444,16.7407227 90.1234876,16.7419094 90.1495972,16.744283 L90.1495972,16.744283 Z M93.4821167,18.8342285 C93.2233942,19.1285551 93.0608049,19.5273141 92.9943441,20.0305176 L96.1488444,20.0305176 C96.115614,19.4940837 95.9530247,19.0870172 95.6610718,18.8093058 C95.3691188,18.5315945 95.0071501,18.3927409 94.5751546,18.3927409 C94.1051816,18.3927409 93.7408392,18.539902 93.4821167,18.8342285 L93.4821167,18.8342285 Z M96.3197428,17.0825195 C96.8371879,17.3246269 97.2644297,17.7067709 97.6014811,18.2289632 C97.9053021,18.6894419 98.102308,19.2234941 98.1925049,19.8311361 C98.2447241,20.1871763 98.2660862,20.6998664 98.2565918,21.369222 L92.9444987,21.369222 C92.9729819,22.1477632 93.2174592,22.6936833 93.6779378,23.0069987 C93.9580228,23.201634 94.2950691,23.2989502 94.6890869,23.2989502 C95.1068407,23.2989502 95.4462606,23.1802719 95.7073568,22.9429118 C95.8497728,22.8147373 95.9755718,22.6367199 96.0847575,22.4088542 L98.156901,22.4088542 C98.1046818,22.8693328 97.8649517,23.3369253 97.4377035,23.8116455 C96.7730951,24.5664507 95.8426573,24.9438477 94.6463623,24.9438477 C93.6589442,24.9438477 92.7878456,24.6257899 92.0330404,23.9896647 C91.2782352,23.3535396 90.9008382,22.3186649 90.9008382,20.8850098 C90.9008382,19.5415514 91.2414449,18.5114239 91.9226685,17.7945964 C92.603892,17.0777688 93.4880452,16.7193604 94.5751546,16.7193604 C95.2207742,16.7193604 95.8022978,16.8404122 96.3197428,17.0825195 L96.3197428,17.0825195 Z" id="App-Store"></path>
                    </g>
                </g>
            </g>
        </g>
    </g>
</svg>