<?xml version="1.0" encoding="UTF-8" standalone="no"?>
<svg width="77px" height="48px" viewBox="0 0 77 48" version="1.1" xmlns="http://www.w3.org/2000/svg" xmlns:xlink="http://www.w3.org/1999/xlink">
    <!-- Generator: Sketch 3.8.3 (29802) - http://www.bohemiancoding.com/sketch -->
    <title>Group 8</title>
    <desc>Created with Sketch.</desc>
    <defs></defs>
    <g id="Page-1" stroke="none" stroke-width="1" fill="none" fill-rule="evenodd">
        <g id="colored-icons-2" transform="translate(-540.000000, -606.000000)">
            <g id="Group-8" transform="translate(540.000000, 606.000000)">
                <path d="M8,41 L6,41 L6,3 C6,2.35158847 6.3366598,1.54601662 7,1 C7.54591766,0.336656891 8.35712184,0 9,0 L68,0 C68.63382,0 69.444521,0.335153959 70,1 C70.6638434,1.54952346 71,2.35409335 71,3 L71,6 L69,6 L69,3 C68.7354722,2.95626833 68.6353297,2.71780303 68,3 C68.2699859,2.35459433 68.0284363,2.25439883 68,2 L9,2 C8.96703467,2.25439883 8.72951086,2.35259042 9,3 C8.36416704,2.71780303 8.26452782,2.95576735 8,3 L8,41 Z" id="Fill-148" fill="#374D6B"></path>
                <polygon id="Fill-149" fill="#374D6B" points="13 41 11 41 11 5 45 5 45 7 13 7"></polygon>
                <path d="M54,48 L4,48 C2.86310169,48 1.8835405,47.5853752 1,47 C0.405939768,46.0762027 0,45.0709429 0,44 L0,40 L51,40 L51,42 L2,42 L2,44 C2.25244014,44.4536241 2.42362559,44.8785119 3,45 C3.04630016,45.514304 3.46175023,45.6908275 4,46 L54,46 L54,48 Z" id="Fill-150" fill="#374D6B"></path>
                <polygon id="Fill-151" fill="#00B4D5" points="60 42 68 42 68 40 60 40"></polygon>
                <path d="M73,48 L54,48 C51.7741628,48 50,46.1882249 50,44 L50,36 L52,36 L52,44 C52.2245006,44.935783 53.0006042,45.72834 54,46 L73,46 C73.9974185,45.72834 74.7754994,44.935783 75,44 L75,9 C74.7754994,8.06674102 73.9974185,7.27166001 73,7 L54,7 C53.0006042,7.27166001 52.2245006,8.06674102 52,9 L52,17 L50,17 L50,9 C50,6.81429913 51.7741628,5 54,5 L73,5 C75.2238598,5 77,6.81429913 77,9 L77,44 C77,46.1882249 75.2238598,48 73,48" id="Fill-152" fill="#00B4D5"></path>
                <path d="M57,34 L45,34 C43.196292,34 41.4156018,33.2324322 40,32 C38.7378496,30.4457937 38,28.5939005 38,27 L38,21 L40,21 L40,27 C40.2389232,27.9717721 40.7439248,29.2388024 42,30 C42.5763591,31.1460764 43.7943333,31.6709002 45,32 L57,32 L57,34 Z" id="Fill-153" fill="#00B4D5"></path>
                <polygon id="Fill-154" fill="#00B4D5" points="42.1945343 24.5876999 39 22 36.013124 24.5876999 34.0897247 22.4939024 39 19 43.9413109 22.4939024"></polygon>
                <polygon id="Fill-154" fill="#00B4D5" transform="translate(63.925793, 31.793850) rotate(-180.000000) translate(-63.925793, -31.793850) " points="67.1048096 34.5876999 63.9102753 32 60.9233993 34.5876999 59 32.4939024 63.9102753 29 68.8515862 32.4939024"></polygon>
                <path d="M65,32 L63,32 L63,26 C62.7610768,25.0276727 62.2560752,23.7605415 61,23 C60.424636,21.8536333 59.2061642,21.3292853 58,21 L46,21 L46,19 L58,19 C59.8042055,19 61.5848958,19.7671113 63,21 C64.262648,22.5534541 65,24.4060123 65,26 L65,32 Z" id="Fill-155" fill="#00B4D5"></path>
            </g>
        </g>
    </g>
</svg>