<?xml version="1.0" encoding="UTF-8" standalone="no"?>
<svg width="70px" height="66px" viewBox="0 0 70 66" version="1.1" xmlns="http://www.w3.org/2000/svg" xmlns:xlink="http://www.w3.org/1999/xlink">
    <!-- Generator: Sketch 3.8.3 (29802) - http://www.bohemiancoding.com/sketch -->
    <title>Group 12</title>
    <desc>Created with Sketch.</desc>
    <defs></defs>
    <g id="All-pages" stroke="none" stroke-width="1" fill="none" fill-rule="evenodd">
        <g id="colored-icons" transform="translate(-228.000000, -494.000000)">
            <g id="Group-25" transform="translate(224.000000, 168.000000)">
                <g id="Group-12" transform="translate(4.000000, 326.000000)">
                    <path d="M21,64 L34,64 L34,31 L21,31 L21,64 Z M19,66 L36,66 L36,29 L19,29 L19,66 Z" id="Fill-172" fill="#374D6B"></path>
                    <path d="M65,41 L60,41 L60,39 L65,39 C66.0345253,38.7704671 66.6313194,38.5217503 67,38 C67.5319359,37.6170554 67.7805179,37.015577 68,36 C67.7805179,35.7417705 67.5319359,35.1422739 67,35 C66.6308261,34.2365881 66.0340321,33.9878713 65,34 L48,34 L49,32 C50.058693,30.8630571 50.6727497,29.2468935 51,28 C51.4480888,26.0814523 51.6458693,24.4385343 52,23 L52,21 C51.6458693,19.9829366 51.3982737,19.3844309 51,19 C50.4951911,18.4787451 49.8993835,18.2295329 49,18 C48.6263872,18.2295329 48.0325524,18.4772588 48,19 C47.1304562,19.3849264 46.8823674,19.9829366 47,21 C46.8823674,22.4121366 46.5642417,23.9069145 46,26 C45.0500617,27.5365941 44.0049322,29.0952853 43,30 C41.5270037,31.5492578 40.1859433,32.4390892 39,33 C37.1856967,33.6747458 35.6088779,33.9873759 34,34 L34,32 C35.3193588,31.757843 36.6140567,31.5007035 38,31 C39.0742293,30.4875047 40.1755857,29.7572088 41,29 C42.2525277,27.7005886 43.1082614,26.4228185 44,25 C44.4029593,23.3178224 44.6628853,22.1133792 45,21 C44.6628853,19.3824491 45.1452528,18.2211102 46,17 C46.8710234,16.4840564 48.027127,16 49,16 C50.4946979,16 51.649815,16.48257 53,17 C53.3844636,18.223092 53.8653514,19.3839355 54,21 L54,23 C53.8653514,24.6168969 53.6463625,26.4371866 53,28 C52.9228113,29.3935472 52.5178792,30.5935314 52,32 L65,32 C66.6268804,31.7583385 67.7810111,32.2389267 69,33 C69.5210851,33.986385 70,35.1462375 70,36 C70,37.6106146 69.5210851,38.771458 69,40 C67.7815043,40.5194118 66.6273736,41 65,41" id="Fill-173" fill="#374D6B"></path>
                    <path d="M64,48 L60,48 L60,46 L64,46 C64.7895871,45.8294657 65.4258925,45.5873305 66,45 C66.3793023,44.7099523 66.6413721,44.1243904 67,44 C66.6413721,42.876092 66.3793023,42.2910124 66,42 C65.4253684,41.4126695 64.7895871,41.1705343 64,41 L60,41 L60,39 L64,39 C65.420127,39 66.6481859,39.4678707 68,40 C68.4931571,41.1661933 69,42.2968005 69,44 C69,44.7041642 68.4931571,45.8342891 68,47 C66.6481859,47.5321293 65.4196028,48 64,48" id="Fill-174" fill="#374D6B"></path>
                    <path d="M62.071434,55 L60,55 L60,52.8290003 L62.071434,52.8290003 C62.7520555,52.8290003 63.3920193,52.5863307 63.8741042,52.1463415 C64.3577733,51.7044224 64.6238968,51.1201823 64.6238968,50.5007237 C64.6238968,49.8798177 64.3577733,49.2946127 63.8741042,48.8536585 C63.3925473,48.4127044 62.7525835,48.1709997 62.071434,48.1709997 L60,48.1709997 L60,46 L62.071434,46 C63.3877951,46 64.6244248,46.4679711 65.5548012,47.3185205 C66.4862337,48.16907 67,49.2994371 67,50.5007237 C67,51.699598 66.4862337,52.8294827 65.5542732,53.6814795 C64.6233688,54.5315465 63.3867391,55 62.071434,55" id="Fill-175" fill="#374D6B"></path>
                    <path d="M60,62 L34,62 L34,60 L60,60 C60.9271109,59.8291166 61.5422024,59.587425 62,59 C62.464586,58.7094232 62.7181274,58.1242496 63,57 C62.7181274,56.8771977 62.464586,56.2925064 62,56 C61.5411882,55.4135399 60.9260968,55.1708834 60,55 L60,53 C61.5366245,53 62.7247195,53.4684284 64,54 C64.5091438,55.1675064 65,56.2968482 65,57 C65,58.7045991 64.5086368,59.8349057 64,61 C62.7252266,61.532054 61.5371315,62 60,62" id="Fill-176" fill="#374D6B"></path>
                    <polygon id="Fill-177" fill="#374D6B" points="29 60 31 60 31 58 29 58"></polygon>
                    <polygon id="Fill-178" fill="#00B4D5" points="7 11 24 11 24 9 7 9"></polygon>
                    <polygon id="Fill-179" fill="#00B4D5" points="7 16 15 16 15 14 7 14"></polygon>
                    <path d="M1.98953857,23.9851379 L7.15620524,23.9851379 L7.16666667,28 L11.2895386,23.9851379 L32.9895386,23.9851379 L33,4 L2,4 L1.98953857,23.9851379 Z M5,33 L5,26 L0,26 L0,2 L35,2 L35,26 L12,26 L5,33 Z" id="Fill-180" fill="#00B4D5"></path>
                    <polygon id="Fill-181" fill="#374D6B" points="60 17 58 17 58 0 67 0 67 2 60 2"></polygon>
                    <polygon id="Fill-182" fill="#374D6B" points="56 10 64 10 64 8 56 8"></polygon>
                    <path d="M9,56 C7.29493799,56 6.16532709,55.498055 5,55 C4.46947357,53.680367 4,52.4678899 4,51 L4,42 L6,42 L6,51 C6.15574599,51.8477798 6.39910576,52.4781651 7,53 C7.2853569,53.4275963 7.87315697,53.6880734 9,54 C9.12828019,53.6880734 9.71655932,53.4270826 10,53 C10.6013733,52.4797064 10.844254,51.8493211 11,51 L13,51 C13,52.4689174 12.5314845,53.6813945 12,55 C10.8346729,55.498055 9.70458296,56 9,56" id="Fill-183" fill="#374D6B"></path>
                    <polygon id="Fill-184" fill="#374D6B" points="2 48 8 48 8 46 2 46"></polygon>
                </g>
            </g>
        </g>
    </g>
</svg>