<?xml version="1.0" encoding="UTF-8" standalone="no"?>
<svg width="44px" height="81px" viewBox="0 0 44 81" version="1.1" xmlns="http://www.w3.org/2000/svg" xmlns:xlink="http://www.w3.org/1999/xlink">
    <!-- Generator: Sketch 3.8.3 (29802) - http://www.bohemiancoding.com/sketch -->
    <title>Group 9</title>
    <desc>Created with Sketch.</desc>
    <defs></defs>
    <g id="Page-1" stroke="none" stroke-width="1" fill="none" fill-rule="evenodd">
        <g id="colored-icons-2" transform="translate(-754.000000, -588.000000)">
            <g id="Group-9" transform="translate(754.000000, 588.000000)">
                <path d="M18,24 L18,39.6940794 L17,39.6940794 C8.29702418,42.2842039 2,49.6127077 2,59 C2,69.9949558 10.9718394,79 23,79 C33.0281606,79 42,69.9949558 42,59 C42,49.6121986 35.7029758,42.2836948 27,39.6940794 L26,39.6940794 L26,24 L18,24 Z M22,81 C9.86919164,81 0,71.0650946 0,59 C0,48.8795421 6.52821814,40.2461703 16,38 L16,22 L28,22 L28,38 C37.4717819,40.2461703 44,48.879038 44,59 C44,71.0650946 34.1308084,81 22,81 L22,81 Z" id="Fill-157" fill="#374D6B"></path>
                <path d="M16,22 L28,22 L28,19 L16,19 L16,22 Z M14,24 L30,24 L30,17 L14,17 L14,24 Z" id="Fill-158" fill="#374D6B"></path>
                <polygon id="Fill-159" fill="#374D6B" points="17 34 20 34 20 32 17 32"></polygon>
                <polygon id="Fill-160" fill="#374D6B" points="17 31 20 31 20 29 17 29"></polygon>
                <polygon id="Fill-161" fill="#374D6B" points="17 28 20 28 20 26 17 26"></polygon>
                <path d="M7,59 C7.59033029,66.798031 14.3168273,73.4648438 22.5,73.4648438 C30.6831727,73.4648438 37.4096697,66.798031 38,59 L18.3666667,59 L17.3333333,58 C17.5095132,56.8492777 16.4856272,56 15.2666667,56 C14.0533234,56 13.0273948,56.8492777 13.2,58 L12.1666667,59 L7,59 Z M23,76 C12.850692,76 5,68.0057502 5,58 L5,57 L11,57 C11.7315977,55.2283151 13.4372898,54 15,54 C17.3776639,54 19.0808513,55.2283151 20,57 L40,57 L40,58 C40,68.0057502 32.149308,76 23,76 L23,76 Z" id="Fill-162" fill="#00B4D5"></path>
                <path d="M27,64 C26.4485714,64 26,64.4484433 26,65 C26,65.5515567 26.4485714,66 27,66 C27.552,66 28,65.5515567 28,65 C28,64.4484433 27.552,64 27,64 M27,68 C25.34592,68 24,66.6541877 24,65 C24,63.3458123 25.34592,62 27,62 C28.65408,62 30,63.3458123 30,65 C30,66.6541877 28.65408,68 27,68" id="Fill-163" fill="#00B4D5"></path>
                <path d="M21,50 C21,50.5512108 20.5524444,51 20,51 C19.448,51 19,50.5512108 19,50 C19,49.4483448 19.448,49 20,49 C20.5524444,49 21,49.4483448 21,50" id="Fill-164" fill="#00B4D5"></path>
                <path d="M11,13 C9.44860711,13 9,13.4495677 9,15 C9,14.5523535 9.44860711,15 11,15 C10.5513929,15 11,14.5523535 11,15 C11,13.4495677 10.5513929,13 11,13 M10,17 C8.34542501,17 7,15.6551164 7,14 C7,12.3459664 8.34542501,11 10,11 C11.654575,11 13,12.3459664 13,14 C13,15.6551164 11.654575,17 10,17" id="Fill-165" fill="#00B4D5"></path>
                <path d="M32.5,10 C31.6718973,10 31,10.6732572 31,11.5 C31,12.3273543 31.6718973,13 32.5,13 C33.32688,13 34,12.3273543 34,11.5 C34,10.6732572 33.32688,10 32.5,10 M32,15 C30.5699288,15 29,13.4299583 29,12 C29,9.57004171 30.5699288,8 32,8 C34.4295678,8 36,9.57004171 36,12 C36,13.4299583 34.4295678,15 32,15" id="Fill-166" fill="#00B4D5"></path>
                <path d="M23,2 C21.1217112,2 20,3.12081952 20,4 C20,5.87817616 21.1217112,7 23,7 C23.8787909,7 25,5.87817616 25,4 C25,3.12081952 23.8787909,2 23,2 M23,9 C20.0185674,9 18,6.9808514 18,4 C18,2.01819908 20.0185674,0 23,0 C24.9814326,0 27,2.01819908 27,4 C27,6.9808514 24.9814326,9 23,9" id="Fill-167" fill="#00B4D5"></path>
                <path d="M36,54 C34.5974409,50.0655581 31.7170276,46.8021412 28,45 L29,43 C33.1973425,45.0155809 36.5024606,48.7620957 38,53 L36,54 Z" id="Fill-168" fill="#374D6B"></path>
                <path d="M25,44 C24.3600591,43.6450612 23.1895826,43.464853 22,43 L22,41 C23.3651768,41 24.7112476,41.2075954 26,42 L25,44 Z" id="Fill-169" fill="#374D6B"></path>
            </g>
        </g>
    </g>
</svg>