<?xml version="1.0" encoding="UTF-8" standalone="no"?>
<svg width="84px" height="65px" viewBox="0 0 84 65" version="1.1" xmlns="http://www.w3.org/2000/svg" xmlns:xlink="http://www.w3.org/1999/xlink">
    <!-- Generator: Sketch 3.7 (28169) - http://www.bohemiancoding.com/sketch -->
    <title>Group 46</title>
    <desc>Created with Sketch.</desc>
    <defs></defs>
    <g id="Page-1" stroke="none" stroke-width="1" fill="none" fill-rule="evenodd" stroke-linecap="round" stroke-linejoin="round">
        <g id="epay-web-services-cards" transform="translate(-454.000000, -3048.000000)" stroke-width="2">
            <g id="Group-46" transform="translate(455.000000, 3049.000000)">
                <path d="M17.7064739,22.4059056 L17.7376696,22.4866521 C17.7376696,17.7767366 13.9335826,14.0393282 9.20164783,14.0393282 L9.13836522,14.0393282 C4.40643043,14.0393282 0.445473913,17.868131 0.445473913,22.5789338 L0.445473913,22.4742296 C0.445473913,27.1841451 4.40643043,30.8984831 9.13836522,30.8984831 L9.20164783,30.8984831 C13.9335826,30.8984831 17.3802565,34.9366944 17.3802565,39.6474972 L17.3802565,39.7104972 C17.3802565,44.4213 13.9335826,48.644962 9.20164783,48.644962 L9.13836522,48.644962 C4.40643043,48.644962 0.445473913,44.4213 0.445473913,39.7104972 L0.445473913,39.3280606" id="Stroke-1" stroke="#374D6B"></path>
                <path d="M8.91304348,48.2012113 L8.91304348,52.637831" id="Stroke-3" stroke="#374D6B"></path>
                <path d="M8.91304348,9.15895775 L8.91304348,14.4829014" id="Stroke-5" stroke="#374D6B"></path>
                <path d="M32.644913,0 L19.6086957,62.4560704" id="Stroke-7" stroke="#00B2D4"></path>
                <path d="M64.7318696,0 L51.6956522,62.4560704" id="Stroke-9" stroke="#00B2D4"></path>
                <path d="M50.2347152,46.7083775 C48.7720848,47.8548 46.9261935,48.6445183 44.9207587,48.6445183 L44.8084543,48.6445183 C40.0595848,48.6445183 36.097737,44.5992085 36.097737,39.8715465 L36.097737,23.5084056 C36.097737,18.7807437 40.0595848,14.9262085 44.8084543,14.9262085 L44.8646065,14.9262085 C46.8700413,14.9262085 48.743563,15.6742225 50.2061935,16.8197577" id="Stroke-11" stroke="#374D6B"></path>
                <path d="M32.9782609,27.5070423 L45.4565217,27.5070423" id="Stroke-13" stroke="#374D6B"></path>
                <path d="M32.9782609,34.6056338 L45.4565217,34.6056338" id="Stroke-15" stroke="#374D6B"></path>
                <path d="M81.1086957,48.6448732 L67.5368043,48.6448732 L70.0048261,43.9322958 C71.5646087,41.0209859 72.3195435,37.6491549 71.8908261,33.4290423 C71.6145217,30.7093944 70.8791957,27.0234507 70.5146522,24.5114366 C69.8372609,19.8316901 71.75,14.961169 76.2065217,14.961169 L76.2065217,14.9540704 C77.9891304,14.9540704 79.8519565,15.7411268 81.314587,16.8875493" id="Stroke-17" stroke="#374D6B"></path>
                <path d="M66.8478261,31.056338 L80.2173913,31.056338" id="Stroke-19" stroke="#374D6B"></path>
            </g>
        </g>
    </g>
</svg>