<?xml version="1.0" encoding="UTF-8" standalone="no"?>
<svg width="66px" height="103px" viewBox="0 0 66 103" version="1.1" xmlns="http://www.w3.org/2000/svg" xmlns:xlink="http://www.w3.org/1999/xlink">
    <!-- Generator: Sketch 3.7 (28169) - http://www.bohemiancoding.com/sketch -->
    <title>Group 64</title>
    <desc>Created with Sketch.</desc>
    <defs></defs>
    <g id="Page-1" stroke="none" stroke-width="1" fill="none" fill-rule="evenodd">
        <g id="epay-web-services-cards" transform="translate(-712.000000, -6233.000000)">
            <g id="Group-64" transform="translate(712.000000, 6234.000000)">
                <g id="Group-40" transform="translate(14.000000, 12.000000)" stroke="#00B2D4" stroke-width="2" stroke-linecap="round" stroke-linejoin="round">
                    <path d="M5.66778571,10.775 C3.17583929,10.775 1,12.699 1,15.332 L1,16.332 L13.8085032,48.0275101 L27.5,16.332 L27.5,15.332 C27.5,12.699 25.9156786,10.775 23.4237321,10.775 C21.7078571,10.775 20.5655179,11.5 19.8623214,13.5 L18.7928571,13.5 C18.0309821,11.5 16.5583393,10.985 14.8415179,10.985 C13.1265893,10.985 11.653,11.5 10.891125,13.5 L9.79421429,13.5 C9.056,11.5 7.38366071,10.775 5.66778571,10.775 Z" id="Stroke-11"></path>
                    <path d="M0.583404896,15 C0.583404896,7.12971486 6.74835427,0.6467 14.3568278,0.6467 C21.9672506,0.6467 28.1322,6.79248905 28.1322,14.6627742" id="Stroke-12"></path>
                    <path d="M9.3616,13.0799 L13.4188486,46.7444737" id="Stroke-13"></path>
                    <path d="M18.8896,13.0799 L14.5855688,46.3637898" id="Stroke-14"></path>
                </g>
                <path d="M51,38 L51,31" id="Stroke-15" stroke="#00B2D4" stroke-width="2" stroke-linecap="square" stroke-linejoin="round"></path>
                <path d="M7,46 L7,43" id="Stroke-16" stroke="#00B2D4" stroke-width="2" stroke-linecap="square" stroke-linejoin="round"></path>
                <path d="M65,73 L65,61" id="Stroke-17" stroke="#00B2D4" stroke-width="2" stroke-linecap="square" stroke-linejoin="round"></path>
                <path d="M23,5 L23,0" id="Stroke-18" stroke="#00B2D4" stroke-width="2" stroke-linecap="square" stroke-linejoin="round"></path>
                <g id="Group-49" transform="translate(0.000000, 63.000000)">
                    <path d="M9,24 L25,24 L25,20 L9,20 L9,24 Z M7,26 L27,26 L27,18 L7,18 L7,26 Z" id="Fill-4" fill="#00B4D5"></path>
                    <path d="M44,24 L48,24 L48,20 L44,20 L44,24 Z M42,26 L50,26 L50,18 L42,18 L42,26 Z" id="Fill-6" fill="#00B4D5"></path>
                    <path d="M2.46544673,36.5450628 C2.16979816,36.2461184 2,35.8338159 2,35.4139896 L2.00099881,15 L55,15 L54.9980024,35.4185039 C55,35.8348191 54.8317001,36.2426073 54.5315568,36.5430565 C54.2409023,36.8374866 53.8458719,37 53.41838,37 L3.57912293,37 C3.1531293,37 2.75710005,36.8374866 2.46544673,36.5450628 L2.46544673,36.5450628 Z M2.46145148,2.5290764 C2.76159471,2.18871152 3.15912218,2.00057013 3.57812412,2 L53.4258711,2 C53.8348849,2 54.2399035,2.19270239 54.530558,2.52223489 C54.8331983,2.87058153 55,3.32839225 55,3.80957811 L55,5 L2,5 L2,3.80957811 C2,3.32611174 2.16580291,2.86944128 2.46145148,2.5290764 L2.46145148,2.5290764 Z M54.9995006,13 L2,13 L2,7 L55,7 L54.9995006,13 Z M55.8840421,37.8864406 C56.5959975,37.1731445 57.0014853,36.1846986 56.9970294,35.1808003 L56.9990098,14.8939814 L57,14.8939814 L57,4.86596541 L57,4.86596541 L57,3.82518117 C57,2.80882146 56.6054044,1.84878772 55.8825568,1.11405785 C55.1631749,0.39527869 54.2145612,0 53.2030696,0 L3.79148426,0 C2.78197311,0.00199383955 1.83187409,0.39777099 1.11001668,1.12053783 C0.395090682,1.84679388 0.00099020221,2.80682762 0.00099020221,3.82518117 L0,35.1808003 C0,36.1861939 0.404497603,37.1721476 1.11150198,37.8884345 C1.82395247,38.6052198 2.776527,39 3.79346467,39 L53.2030696,39 C54.2259485,39 55.1795132,38.6027275 55.8840421,37.8864406 L55.8840421,37.8864406 Z" id="Fill-7" fill="#374D6B"></path>
                    <polygon id="Fill-8" fill="#00B4D5" points="7 32 15 32 15 30 7 30"></polygon>
                    <polygon id="Fill-9" fill="#00B4D5" points="19 32 27 32 27 30 19 30"></polygon>
                    <polygon id="Fill-10" fill="#00B4D5" points="31 32 38 32 38 30 31 30"></polygon>
                    <polygon id="Fill-11" fill="#00B4D5" points="42 32 50 32 50 30 42 30"></polygon>
                </g>
            </g>
        </g>
    </g>
</svg>