<?xml version="1.0" encoding="UTF-8" standalone="no"?>
<svg width="78px" height="51px" viewBox="0 0 78 51" version="1.1" xmlns="http://www.w3.org/2000/svg" xmlns:xlink="http://www.w3.org/1999/xlink">
    <!-- Generator: Sketch 3.8.3 (29802) - http://www.bohemiancoding.com/sketch -->
    <title>Group 23</title>
    <desc>Created with Sketch.</desc>
    <defs></defs>
    <g id="All-pages" stroke="none" stroke-width="1" fill="none" fill-rule="evenodd">
        <g id="colored-icons" transform="translate(-224.000000, -829.000000)">
            <g id="Group-25" transform="translate(224.000000, 168.000000)">
                <g id="Group-23" transform="translate(0.000000, 661.000000)">
                    <path d="M64,46 L10,46 L10,29 L12,29 L12,44 L62,44 L62,14 C61.7372406,13.7281663 61.7075733,13.5676272 62,13 C61.4440875,13.3073745 61.2942425,13.2435578 61,13 L13,13 C12.7057575,13.2435578 12.5559125,13.3073745 12,13 C12.2924267,13.5676272 12.2627594,13.7281663 12,14 L12,16 L10,16 L10,14 C10,13.0765374 10.3006956,12.3635846 11,12 C11.3667067,11.3076167 12.1038635,11 13,11 L61,11 C61.8961365,11 62.6332933,11.3076167 63,12 C63.6993044,12.3635846 64,13.0765374 64,14 L64,46 Z" id="Fill-151" fill="#374D6B"></path>
                    <polygon id="Fill-152" fill="#374D6B" points="59 46 14 46 14 29 16 29 16 44 57 44 57 17 22 17 22 15 59 15"></polygon>
                    <path d="M36.4971363,21 C31.2601737,21 27,25.2617455 27,30.4994792 C27,35.7382545 31.2601737,40 36.4971363,40 C41.7367022,40 46,35.7382545 46,30.4994792 C46,25.2617455 41.7367022,21 36.4971363,21 M36.4972192,42 C30.1575696,42 25,36.8409041 25,30.4994943 C25,24.1585902 30.1575696,19 36.4972192,19 C42.8399024,19 48,24.1585902 48,30.4994943 C48,36.8409041 42.8399024,42 36.4972192,42" id="Fill-153" fill="#00B4D5"></path>
                    <path d="M36.4983639,28 C35.1207461,28 34,29.1193541 34,30.4950906 C34,31.8762819 35.1207461,33 36.4983639,33 C37.8776178,33 39,31.8762819 39,30.4950906 C39,29.1193541 37.8776178,28 36.4983639,28 M36.4985139,35 C34.0181638,35 32,32.9796323 32,30.4955411 C32,28.0164043 34.0181638,26 36.4985139,26 C38.9808454,26 41,28.0164043 41,30.4955411 C41,32.9796323 38.9808454,35 36.4985139,35" id="Fill-154" fill="#00B4D5"></path>
                    <path d="M33.0857502,39 L31,38.3370993 C31.8377074,35.7429509 34.2476372,34 36.9978096,34 C39.7436012,34 42.1559648,35.7395713 43,38.3293743 L40.9161968,38.9980688 C40.3647021,37.3077443 38.7905326,36.1726535 36.9978096,36.1726535 C35.2041131,36.1726535 33.6318906,37.3087099 33.0857502,39" id="Fill-155" fill="#00B4D5"></path>
                    <path d="M7,46 L7,47.496134 C7,47.9001289 7.1211979,48.2777062 7.34146628,48.5599227 C7.56424913,48.8421392 7.86045479,49 8.17174731,49 L65.826744,49 C66.1390423,49 66.4342422,48.8427835 66.6580308,48.5573454 C66.8777963,48.2764175 67,47.8988402 67,47.496134 L67,46 L7,46 Z M65.5917278,51 L8.40677583,51 C7.50245891,51 6.64802157,50.6370826 6.00058453,49.9783978 C5.35414507,49.3150996 5,48.4349736 5,47.4969244 L5,44 L69,44 L69,47.4969244 C69,48.434461 68.6448573,49.314587 68.0004131,49.9753222 C67.3534748,50.63657 66.4985387,51 65.5917278,51 L65.5917278,51 Z" id="Fill-156" fill="#374D6B"></path>
                    <polygon id="Fill-157" fill="#374D6B" points="18 2 28 2 28 0 18 0"></polygon>
                    <polygon id="Fill-158" fill="#374D6B" points="23 6 42 6 42 4 23 4"></polygon>
                    <polygon id="Fill-159" fill="#374D6B" points="5 26 11 26 11 24 5 24"></polygon>
                    <polygon id="Fill-160" fill="#374D6B" points="5 22 18 22 18 20 5 20"></polygon>
                    <path d="M2,28 L21,28 L21,17 L2,17 L2,28 Z M0,30 L23,30 L23,15 L0,15 L0,30 Z" id="Fill-161" fill="#374D6B"></path>
                    <polygon id="Fill-162" fill="#00B4D5" points="76.342875 41 73 37.6555637 74.657125 36 78 39.3439159"></polygon>
                    <path d="M71,34 L72.0879911,37 L74,35.0876437 L71,34 Z M70.9903877,41 L67,30 L78,33.9854274 L70.9903877,41 Z" id="Fill-163" fill="#00B4D5"></path>
                    <polygon id="Fill-164" fill="#00B4D5" points="49 26 51 26 51 24 49 24"></polygon>
                    <path d="M53,26 L55,26 L55,24 L53,24 L53,26 Z M66,26 L68,26 L68,24 L66,24 L66,26 Z" id="Fill-165" fill="#00B4D5"></path>
                    <polygon id="Fill-166" fill="#00B4D5" points="70 26 72 26 72 24 70 24"></polygon>
                    <path d="M70,9 L72,9 L72,7 L70,7 L70,9 Z M70,13 L72,13 L72,11 L70,11 L70,13 Z M70,18 L72,18 L72,16 L70,16 L70,18 Z M70,22 L72,22 L72,20 L70,20 L70,22 Z" id="Fill-167" fill="#00B4D5"></path>
                    <polygon id="Fill-168" fill="#00B4D5" points="70 4 72 4 72 2 70 2"></polygon>
                    <path d="M53,4 L55,4 L55,2 L53,2 L53,4 Z M57,4 L59,4 L59,2 L57,2 L57,4 Z M62,4 L64,4 L64,2 L62,2 L62,4 Z M66,4 L68,4 L68,2 L66,2 L66,4 Z" id="Fill-169" fill="#00B4D5"></path>
                    <polygon id="Fill-170" fill="#00B4D5" points="49 4 51 4 51 2 49 2"></polygon>
                    <path d="M49,9 L51,9 L51,7 L49,7 L49,9 Z M49,22 L51,22 L51,20 L49,20 L49,22 Z" id="Fill-171" fill="#00B4D5"></path>
                </g>
            </g>
        </g>
    </g>
</svg>