<?xml version="1.0" encoding="UTF-8" standalone="no"?>
<svg width="63px" height="65px" viewBox="0 0 63 65" version="1.1" xmlns="http://www.w3.org/2000/svg" xmlns:xlink="http://www.w3.org/1999/xlink">
    <!-- Generator: Sketch 3.7 (28169) - http://www.bohemiancoding.com/sketch -->
    <title>Group 33</title>
    <desc>Created with Sketch.</desc>
    <defs></defs>
    <g id="Page-1" stroke="none" stroke-width="1" fill="none" fill-rule="evenodd">
        <g id="epay-web-services-salary-projects" transform="translate(-603.000000, -929.000000)">
            <g id="Group-33" transform="translate(603.000000, 929.000000)">
                <path d="M0,51 L63,51 L63,13 L0,13 L0,51 Z M2,49 L61,49 L61,15 L2,15 L2,49 Z" id="Fill-1" fill="#374D6B"></path>
                <path d="M12.194867,45 L50.805133,45 C51.2950345,41.7384158 53.817399,39.1543762 57,38.652396 L57,25.347604 C53.817399,24.8461386 51.2950345,22.2615842 50.805133,19 L12.194867,19 C11.705468,22.2615842 9.18310345,24.8461386 6,25.347604 L6,38.652396 C9.18310345,39.1543762 11.705468,41.7384158 12.194867,45 L12.194867,45 Z M52.7782805,47 L10.2217195,47 L10.2217195,45.8655462 C10.2217195,43.0157983 7.93312217,40.697479 5.1199095,40.697479 L4,40.697479 L4,23.302521 L5.1199095,23.302521 C7.93312217,23.302521 10.2217195,20.9842017 10.2217195,18.1344538 L10.2217195,17 L52.7782805,17 L52.7782805,18.1344538 C52.7782805,20.9842017 55.0668778,23.302521 57.8800905,23.302521 L59,23.302521 L59,40.697479 L57.8800905,40.697479 C55.0668778,40.697479 52.7782805,43.0157983 52.7782805,45.8655462 L52.7782805,47 L52.7782805,47 Z" id="Fill-2" fill="#374D6B"></path>
                <path d="M31,23 C26.0370704,23 22,27.0375775 22,32 C22,36.9624225 26.0370704,41 31,41 C35.9624225,41 40,36.9624225 40,32 C40,27.0375775 35.9624225,23 31,23 M31,43 C24.9349213,43 20,38.065573 20,32 C20,25.934427 24.9349213,21 31,21 C37.065573,21 42,25.934427 42,32 C42,38.065573 37.065573,43 31,43" id="Fill-4" fill="#00B4D5"></path>
                <path d="M31.7194786,37 L30.2825269,37 C29.4071196,37 28.5828528,36.6865059 27.9616445,36.1176064 C27.3404362,35.5445577 27,34.7857176 27,33.9798534 L29.2562046,33.9798534 C29.2562046,34.2334148 29.3629982,34.4717625 29.5575332,34.6506385 C29.7495613,34.8267484 30.0082728,34.9254069 30.2825269,34.9254069 L31.7194786,34.9254069 C31.9937328,34.9254069 32.2529456,34.8267484 32.4484833,34.6478724 C32.6375031,34.4731455 32.7437954,34.2343368 32.7437954,33.9798534 C32.7437954,33.726292 32.6385059,33.4902494 32.4474806,33.3150615 C32.2524442,33.1357245 31.9937328,33.0370661 31.7194786,33.0370661 L30.2825269,33.0370661 C29.4061168,33.0370661 28.5818501,32.723572 27.9611431,32.1528284 C27.341439,31.5857729 27,30.8269328 27,30.0187635 C27,29.2133604 27.3404362,28.4554423 27.9591376,27.8851597 C28.5828528,27.3130331 29.4071196,27 30.2825269,27 L31.7194786,27 C32.5943846,27 33.4186513,27.3130331 34.0398596,27.8819326 C34.6600652,28.4549813 35,29.2124383 35,30.0187635 L32.7437954,30.0187635 C32.7437954,29.7652022 32.6375031,29.5268545 32.4444723,29.3484394 C32.2529456,29.1732516 31.9937328,29.0745931 31.7194786,29.0745931 L30.2825269,29.0745931 C30.0082728,29.0745931 29.7495613,29.1732516 29.5545249,29.3516666 C29.3629982,29.5282375 29.2562046,29.7665852 29.2562046,30.0187635 C29.2562046,30.2718639 29.3619955,30.5079065 29.5545249,30.6844774 C29.7500627,30.8638145 30.0082728,30.9624729 30.2825269,30.9624729 L31.7194786,30.9624729 C32.5953873,30.9624729 33.4201554,31.276428 34.0408624,31.8462496 C34.6590624,32.4137661 35,33.1712231 35,33.9798534 C35,34.7866396 34.6600652,35.5450187 34.0438706,36.1143792 C33.4186513,36.6865059 32.5943846,37 31.7194786,37" id="Fill-6" fill="#00B4D5"></path>
                <polygon id="Fill-8" fill="#00B4D5" points="30 28 32 28 32 25 30 25"></polygon>
                <polygon id="Fill-10" fill="#00B4D5" points="30 39 32 39 32 36 30 36"></polygon>
                <polygon id="Fill-11" fill="#00B4D5" points="46 33 53 33 53 31 46 31"></polygon>
                <polygon id="Fill-12" fill="#00B4D5" points="9 33 16 33 16 31 9 31"></polygon>
                <path d="M14.6087836,9 L13,7.43840995 C17.9421306,2.6417471 24.5122571,0 31.5,0 C38.4887541,0 45.058375,2.6417471 50,7.43840995 L48.3912164,9 C43.8793419,4.62048094 37.8805307,2.20840831 31.5,2.20840831 C25.1199749,2.20840831 19.1211637,4.62048094 14.6087836,9" id="Fill-13" fill="#00B4D5"></path>
                <polygon id="Fill-14" fill="#00B4D5" points="50 9 43 9 43 6.78947368 47.7894737 6.78947368 47.7894737 2 50 2"></polygon>
                <path d="M31.5,65 C24.5112459,65 17.9411194,62.3584556 13,57.5617604 L14.6087836,56 C19.1201525,60.3795059 25.1189637,62.7913508 31.5,62.7913508 C37.8810363,62.7913508 43.8798475,60.3795059 48.3912164,56 L50,57.5617604 C45.0588806,62.3584556 38.4887541,65 31.5,65" id="Fill-15" fill="#00B4D5"></path>
                <polygon id="Fill-16" fill="#00B4D5" points="15.2105263 62 13 62 13 55 20 55 20 57.2105263 15.2105263 57.2105263"></polygon>
                <polygon id="Fill-17" fill="#00B4D5" points="35 57 38 57 38 55 35 55"></polygon>
                <polygon id="Fill-18" fill="#00B4D5" points="30 57 33 57 33 55 30 55"></polygon>
                <polygon id="Fill-19" fill="#00B4D5" points="25 57 28 57 28 55 25 55"></polygon>
                <polygon id="Fill-20" fill="#00B4D5" points="35 9 38 9 38 7 35 7"></polygon>
                <polygon id="Fill-21" fill="#00B4D5" points="30 9 33 9 33 7 30 7"></polygon>
                <polygon id="Fill-22" fill="#00B4D5" points="25 9 28 9 28 7 25 7"></polygon>
            </g>
        </g>
    </g>
</svg>