<?xml version="1.0" encoding="UTF-8" standalone="no"?>
<svg width="200px" height="50px" viewBox="0 0 200 50" version="1.1" xmlns="http://www.w3.org/2000/svg" xmlns:xlink="http://www.w3.org/1999/xlink">
    <!-- Generator: Sketch 3.7 (28169) - http://www.bohemiancoding.com/sketch -->
    <title>Group 27</title>
    <desc>Created with Sketch.</desc>
    <defs>
        <linearGradient x1="63.8004024%" y1="83.584392%" x2="32.3203123%" y2="4.17876588%" id="linearGradient-1">
            <stop stop-color="#FCD08F" offset="0%"></stop>
            <stop stop-color="#F79673" offset="100%"></stop>
        </linearGradient>
        <linearGradient x1="87.2575977%" y1="13.4685111%" x2="13.5571635%" y2="116.392888%" id="linearGradient-2">
            <stop stop-color="#E74047" offset="0%"></stop>
            <stop stop-color="#7F50A0" offset="100%"></stop>
        </linearGradient>
        <linearGradient x1="87.6705491%" y1="85.4850038%" x2="12.8199378%" y2="-15.9873781%" id="linearGradient-3">
            <stop stop-color="#E6FFAB" offset="0%"></stop>
            <stop stop-color="#47BEBC" offset="100%"></stop>
        </linearGradient>
        <linearGradient x1="50.000883%" y1="100.005203%" x2="50.000883%" y2="0.00236518448%" id="linearGradient-4">
            <stop stop-color="#84E9DB" offset="0%"></stop>
            <stop stop-color="#197491" offset="100%"></stop>
        </linearGradient>
    </defs>
    <g id="Page-1" stroke="none" stroke-width="1" fill="none" fill-rule="evenodd">
        <g id="epay-web-services-cards" transform="translate(-95.000000, -6278.000000)">
            <g id="Group-33" transform="translate(95.000000, 6278.000000)">
                <g id="Group-27">
                    <rect id="Rectangle-41" fill-opacity="0.699999988" fill="#000000" opacity="0.5" x="0" y="0" width="200" height="50" rx="2"></rect>
                    <g id="Group-4" transform="translate(47.000000, 13.000000)">
                        <g id="Group-3" transform="translate(0.000000, 1.000000)">
                            <path d="M15.013,14.269 C17.519,12.898 19.433,11.85 19.607,11.755 C20.127,11.47 20.669,10.745 19.607,10.165 C19.265,9.977 17.403,8.963 15.009,7.657 L11.719,10.973 L15.013,14.269 L15.013,14.269 Z" id="Shape" fill="url(#linearGradient-1)"></path>
                            <path d="M11.719,10.974 L1.193,21.579 C1.43,21.609 1.716,21.546 2.046,21.366 C2.727,20.993 10.037,16.991 15.013,14.268 L11.719,10.974 L11.719,10.974 Z" id="Shape" fill="url(#linearGradient-2)"></path>
                            <path d="M11.719,10.974 L15.009,7.658 C15.009,7.658 2.779,0.984 2.046,0.586 C1.765,0.432 1.457,0.379 1.186,0.44 L11.719,10.974 L11.719,10.974 Z" id="Shape" fill="url(#linearGradient-3)"></path>
                            <path d="M11.719,10.974 L1.186,0.438 C0.751,0.535 0.394,0.911 0.394,1.668 L0.394,20.314 C0.394,21.026 0.675,21.528 1.194,21.578 L11.719,10.974 L11.719,10.974 Z" id="Shape" fill="url(#linearGradient-4)"></path>
                        </g>
                        <path d="M32.783,19.786 C33.437,19.62 35.174,19.641 35.174,19.641 L35.174,22.053 C35.174,22.053 34.405,22.487 33.238,22.487 C29.863,22.487 27.676,19.536 27.676,16.841 C27.676,13.552 30.033,12.161 32.084,12.161 C34.133,12.161 35.287,13.673 35.287,13.673 L34.914,14.284 L35.516,14.124 L36.817,12.901 C36.817,12.901 35.516,11.581 32.263,11.581 C28.302,11.581 26,14.614 26,17.485 C26,19.995 27.74,23.163 32.067,23.163 C34.303,23.163 36.816,22.343 36.816,22.343 L36.816,20.398 C36.816,19.441 38.007,19.015 38.007,19.015 L34.007,19.015 L32.783,19.786 L32.783,19.786 Z M42.323,14.995 C40.002,14.995 38.109,16.675 38.109,19.126 C38.109,20.892 39.537,23.017 42.065,23.017 C44.593,23.017 46.365,21.337 46.365,18.972 C46.365,16.607 44.645,14.995 42.323,14.995 L42.323,14.995 Z M42.495,22.503 C40.58,22.503 39.675,19.554 39.675,18.064 C39.675,16.572 40.69,15.509 41.86,15.509 C43.528,15.509 44.68,17.47 44.68,19.761 C44.679,20.548 44.412,22.503 42.495,22.503 L42.495,22.503 Z M51.357,14.999 C49.037,14.999 47.146,16.677 47.146,19.128 C47.146,20.892 48.573,23.017 51.099,23.017 C53.626,23.017 55.397,21.339 55.397,18.974 C55.397,16.609 53.678,14.999 51.357,14.999 L51.357,14.999 Z M51.529,22.503 C49.615,22.503 48.711,19.556 48.711,18.065 C48.711,16.574 49.725,15.512 50.895,15.512 C52.562,15.512 53.713,17.473 53.713,19.76 C53.713,20.55 53.445,22.503 51.529,22.503 L51.529,22.503 Z M63.755,15.262 L59.826,15.262 C57.809,15.262 56.289,16.811 56.289,18.481 C56.289,19.655 57.289,21.061 59.262,21.061 C59.467,21.061 59.604,21.018 59.604,21.018 C59.604,21.018 59.485,21.278 59.485,21.622 C59.485,22.184 59.971,22.686 59.971,22.686 C59.971,22.686 55.418,22.692 55.418,25.598 C55.418,27.356 57.408,28.016 59.04,28.016 C60.672,28.016 63.465,27.139 63.465,24.901 C63.465,23.833 62.893,23.018 62.064,22.448 C61.235,21.878 61.073,21.606 61.073,21.358 C61.073,21.112 61.082,20.911 61.672,20.354 C62.261,19.795 62.8,19.213 62.8,18.157 C62.8,16.591 61.74,15.891 61.74,15.891 L62.748,15.858 L63.755,15.262 L63.755,15.262 Z M62.273,25.493 C62.273,27.139 60.364,27.294 59.814,27.294 C59.262,27.294 56.918,27.075 56.918,25.224 C56.918,23.373 59.621,23.201 59.936,23.201 C60.251,23.201 60.519,23.246 60.519,23.246 C61.351,23.979 62.273,24.343 62.273,25.493 L62.273,25.493 Z M59.903,20.55 C58.712,20.55 57.763,18.775 57.763,17.702 C57.763,16.629 58.301,15.862 59.249,15.862 C60.197,15.862 61.324,16.948 61.324,18.928 C61.325,19.618 61.095,20.55 59.903,20.55 L59.903,20.55 Z M66.007,21.014 C66.007,21.014 65.992,14.44 66.007,13.014 C66.022,11.588 66.433,11.319 67.007,11.014 L64.678,11 L64.007,12.014 L65.007,12.014 L65.007,22.014 C65.002,22.395 64.007,23.014 64.007,23.014 L67.007,23.014 L67.718,22.43 C67.718,22.43 67.54,22.354 67.151,22.354 C66.724,22.354 66.007,21.557 66.007,21.014 L66.007,21.014 Z M69.231,18.715 L70.539,18.646 L74.458,17.08 C74.458,17.08 74.044,14.965 71.523,14.965 C69.002,14.965 67.689,16.944 67.689,18.889 C67.689,20.832 68.846,23.018 71.729,23.018 C73.75,23.018 74.665,21.522 74.665,21.522 C74.665,21.522 73.698,22.09 72.628,22.09 C71.201,22.089 69.577,20.751 69.231,18.715 L69.231,18.715 Z M69.157,17.923 C69.157,16.253 70.325,15.583 71.056,15.583 C72.524,15.583 72.791,16.899 72.662,17.132 C72.537,17.357 69.453,18.616 69.229,18.707 C69.188,18.454 69.157,18.195 69.157,17.923 L69.157,17.923 Z" id="Shape" fill="#FFFFFF"></path>
                        <path d="M30.760498,2.79150391 C30.6636551,2.37369583 30.4270852,2.08178794 30.0507812,1.91577148 C29.8404937,1.82446243 29.6066907,1.77880859 29.3493652,1.77880859 C28.8568498,1.77880859 28.4521907,1.96488258 28.135376,2.33703613 C27.8185612,2.70918969 27.6601562,3.26879509 27.6601562,4.01586914 C27.6601562,4.76847707 27.831704,5.30110521 28.1748047,5.61376953 C28.5179054,5.92643385 28.9080382,6.08276367 29.3452148,6.08276367 C29.7740907,6.08276367 30.1254869,5.95894492 30.3994141,5.71130371 C30.6733412,5.4636625 30.8421221,5.13924354 30.9057617,4.73803711 L29.4904785,4.73803711 L29.4904785,3.71704102 L32.0388184,3.71704102 L32.0388184,7 L31.1921387,7 L31.0634766,6.23632812 C30.8172188,6.52685692 30.5958669,6.73160748 30.3994141,6.85058594 C30.0618473,7.05810651 29.6468124,7.16186523 29.1542969,7.16186523 C28.3435832,7.16186523 27.6795273,6.88102494 27.1621094,6.31933594 C26.6225559,5.75487999 26.3527832,4.98291505 26.3527832,4.00341797 C26.3527832,3.01285312 26.6253228,2.21875299 27.1704102,1.62109375 C27.7154975,1.02343451 28.4362748,0.724609375 29.3327637,0.724609375 C30.1102741,0.724609375 30.7349016,0.921750958 31.206665,1.31604004 C31.6784285,1.71032912 31.9488929,2.20214549 32.0180664,2.79150391 L30.760498,2.79150391 Z M38.9162923,1.96557617 L35.6789876,1.96557617 L35.6789876,3.26464844 L38.6506673,3.26464844 L38.6506673,4.32714844 L35.6789876,4.32714844 L35.6789876,5.90014648 L39.0657064,5.90014648 L39.0657064,7 L34.42972,7 L34.42972,0.882324219 L38.9162923,0.882324219 L38.9162923,1.96557617 Z M45.6402018,0.882324219 L45.6402018,1.96557617 L43.8098795,1.96557617 L43.8098795,7 L42.5232584,7 L42.5232584,1.96557617 L40.6846354,1.96557617 L40.6846354,0.882324219 L45.6402018,0.882324219 Z M52.1859212,7 L50.9159017,7 L50.9159017,0.882324219 L52.1859212,0.882324219 L52.1859212,7 Z M58.955485,0.882324219 L58.955485,1.96557617 L57.1251627,1.96557617 L57.1251627,7 L55.8385416,7 L55.8385416,1.96557617 L53.9999186,1.96557617 L53.9999186,0.882324219 L58.955485,0.882324219 Z M68.2425374,5.52661133 C68.5399835,5.1530743 68.6887044,4.62182962 68.6887044,3.93286133 C68.6887044,3.24665998 68.5399835,2.71610702 68.2425374,2.34118652 C67.9450912,1.96626603 67.5431991,1.77880859 67.0368489,1.77880859 C66.5304987,1.77880859 66.1265314,1.9655743 65.8249348,2.33911133 C65.5233383,2.71264835 65.3725423,3.24389304 65.3725423,3.93286133 C65.3725423,4.62182962 65.5233383,5.1530743 65.8249348,5.52661133 C66.1265314,5.90014835 66.5304987,6.08691406 67.0368489,6.08691406 C67.5431991,6.08691406 67.9450912,5.90014835 68.2425374,5.52661133 L68.2425374,5.52661133 Z M69.0414876,6.45629883 C68.5794084,6.93221267 67.9112022,7.17016602 67.0368489,7.17016602 C66.1624956,7.17016602 65.4942894,6.93221267 65.0322102,6.45629883 C64.4124155,5.87247429 64.1025227,5.03133687 64.1025227,3.93286133 C64.1025227,2.81225026 64.4124155,1.97111283 65.0322102,1.40942383 C65.4942894,0.93350999 66.1624956,0.695556641 67.0368489,0.695556641 C67.9112022,0.695556641 68.5794084,0.93350999 69.0414876,1.40942383 C69.6585154,1.97111283 69.9670247,2.81225026 69.9670247,3.93286133 C69.9670247,5.03133687 69.6585154,5.87247429 69.0414876,6.45629883 L69.0414876,6.45629883 Z M72.0549479,0.882324219 L73.395524,0.882324219 L75.8318033,5.15307617 L75.8318033,0.882324219 L77.0229654,0.882324219 L77.0229654,7 L75.7446451,7 L73.24611,2.65454102 L73.24611,7 L72.0549479,7 L72.0549479,0.882324219 Z" id="GET-IT-ON" fill="#FFFFFF"></path>
                        <path d="M83.6503296,21.387146 C84.046721,20.8863161 84.2449137,20.1374562 84.2449137,19.1405436 C84.2449137,18.5329017 84.1570918,18.0107172 83.9814453,17.5739746 C83.6491411,16.7337198 83.0415083,16.3135986 82.1585286,16.3135986 C81.2708018,16.3135986 80.663169,16.7574554 80.335612,17.6451823 C80.1599655,18.1199025 80.0721436,18.7227882 80.0721436,19.4538574 C80.0721436,20.0425105 80.1599655,20.5433329 80.335612,20.9563395 C80.6679162,21.7443751 81.275549,22.138387 82.1585286,22.138387 C82.7566762,22.138387 83.2539382,21.8879759 83.6503296,21.387146 L83.6503296,21.387146 Z M78.8402507,15.4092611 L80.0863851,15.4092611 L80.0863851,16.4204102 C80.342734,16.0738644 80.6228148,15.8056514 80.9266357,15.6157633 C81.3586312,15.3309312 81.8665742,15.1885173 82.4504801,15.1885173 C83.314471,15.1885173 84.0479028,15.5196297 84.6507975,16.1818644 C85.2536923,16.8440992 85.5551351,17.7899651 85.5551351,19.0194906 C85.5551351,20.6810115 85.1207726,21.8677943 84.2520345,22.5798747 C83.701359,23.0308589 83.0604963,23.2563477 82.3294271,23.2563477 C81.7550156,23.2563477 81.2731817,23.1305487 80.8839111,22.8789469 C80.6560454,22.7365309 80.4020739,22.4920536 80.1219889,22.1455078 L80.1219889,26.040568 L78.8402507,26.040568 L78.8402507,15.4092611 Z M87.0861003,12.5395915 L88.3678385,12.5395915 L88.3678385,23 L87.0861003,23 L87.0861003,12.5395915 Z M91.6789958,21.8464355 C91.9495863,22.0600597 92.2700177,22.1668701 92.6402995,22.1668701 C93.0912837,22.1668701 93.5280198,22.0624332 93.9505208,21.8535563 C94.6626012,21.5070105 95.0186361,20.9397283 95.0186361,20.1516927 L95.0186361,19.1191813 C94.8619784,19.2188726 94.6602253,19.3019474 94.4133708,19.3684082 C94.1665162,19.434869 93.9244125,19.4823404 93.6870524,19.5108236 L92.9108887,19.6105143 C92.4456628,19.672228 92.0967487,19.7695441 91.8641357,19.9024658 C91.4701179,20.1255843 91.273112,20.4816192 91.273112,20.9705811 C91.273112,21.3408629 91.4084052,21.6328114 91.6789958,21.8464355 L91.6789958,21.8464355 Z M94.3777669,18.3786214 C94.6720935,18.3406438 94.8690994,18.2172184 94.9687907,18.0083415 C95.0257571,17.8944086 95.0542399,17.7306326 95.0542399,17.5170085 C95.0542399,17.0802658 94.8987714,16.7633948 94.5878296,16.5663859 C94.2768878,16.369377 93.8318443,16.270874 93.2526855,16.270874 C92.58333,16.270874 92.1086169,16.451265 91.8285319,16.8120524 C91.6718742,17.0114349 91.5698109,17.3081306 91.5223389,17.7021484 L90.3260498,17.7021484 C90.3497858,16.7622023 90.654789,16.108285 91.2410685,15.7403768 C91.827348,15.3724686 92.5073746,15.1885173 93.2811686,15.1885173 C94.1783899,15.1885173 94.9070746,15.359414 95.4672445,15.7012126 C96.0226672,16.0430111 96.3003743,16.5746899 96.3003743,17.2962646 L96.3003743,21.6897786 C96.3003743,21.8227003 96.3276704,21.9295108 96.3822632,22.0102132 C96.436856,22.0909157 96.5519739,22.1312663 96.7276204,22.1312663 C96.7845869,22.1312663 96.8486731,22.1277059 96.9198812,22.1205851 C96.9910892,22.1134643 97.0670433,22.1027833 97.1477458,22.0885417 L97.1477458,23.0356038 C96.9483633,23.0925703 96.7964551,23.1281738 96.6920166,23.1424154 C96.5875781,23.156657 96.4451642,23.1637777 96.2647705,23.1637777 C95.8232807,23.1637777 95.5028493,23.0071223 95.3034668,22.693807 C95.1990283,22.5276549 95.1254478,22.2926719 95.082723,21.9888509 C94.8216268,22.3306495 94.4466035,22.6273452 93.9576416,22.8789469 C93.4686797,23.1305487 92.9298803,23.2563477 92.3412272,23.2563477 C91.633894,23.2563477 91.0559308,23.04154 90.6073201,22.6119181 C90.1587095,22.1822963 89.9344076,21.6446837 89.9344076,20.9990641 C89.9344076,20.2917309 90.1551492,19.7434373 90.596639,19.3541667 C91.0381288,18.9648961 91.6172789,18.7251659 92.3341064,18.6349691 L94.3777669,18.3786214 Z M103.164795,15.3736572 L104.581828,15.3736572 C104.401434,15.8626191 104.000302,16.978195 103.378418,18.7204183 C102.913192,20.0306462 102.523927,21.0987508 102.210612,21.924764 C101.470048,23.871117 100.947864,25.0578999 100.644043,25.4851481 C100.340222,25.9123963 99.8180376,26.1260173 99.077474,26.1260173 C98.8970803,26.1260173 98.7582267,26.1188966 98.660909,26.1046549 C98.5635914,26.0904133 98.4437263,26.0643041 98.3013102,26.0263265 L98.3013102,24.8585205 C98.5244287,24.9202341 98.6858312,24.9582112 98.7855225,24.9724528 C98.8852137,24.9866944 98.9730356,24.9938151 99.0489909,24.9938151 C99.286351,24.9938151 99.4608081,24.9546513 99.5723674,24.8763224 C99.6839266,24.7979936 99.7776825,24.7018642 99.8536377,24.5879313 C99.8773737,24.5499537 99.9628221,24.3553213 100.109985,24.0040283 C100.257149,23.6527353 100.363959,23.3916431 100.43042,23.2207438 L97.6105957,15.3736572 L99.0632324,15.3736572 L101.106893,21.5829671 L103.164795,15.3736572 Z" id="play" fill="#FFFFFF"></path>
                    </g>
                </g>
            </g>
        </g>
    </g>
</svg>