<?xml version="1.0" encoding="UTF-8" standalone="no"?>
<svg width="109px" height="35px" viewBox="0 0 109 35" version="1.1" xmlns="http://www.w3.org/2000/svg" xmlns:xlink="http://www.w3.org/1999/xlink">
    <!-- Generator: Sketch 3.7 (28169) - http://www.bohemiancoding.com/sketch -->
    <title>amazon-logo-rgb</title>
    <desc>Created with Sketch.</desc>
    <defs>
        <polyline id="path-1" points="0 0 109 0 109 35 0 35"></polyline>
    </defs>
    <g id="Page-1" stroke="none" stroke-width="1" fill="none" fill-rule="evenodd">
        <g id="epay-web-services-cash-out" transform="translate(-437.000000, -347.000000)">
            <g id="Group-6" transform="translate(0.000000, 195.000000)">
                <g id="Group-42" transform="translate(100.000000, 142.000000)">
                    <g id="amazon-logo-rgb" transform="translate(337.000000, 10.000000)">
                        <g id="Group-3">
                            <mask id="mask-2" fill="white">
                                <use xlink:href="#path-1"></use>
                            </mask>
                            <g id="Clip-2"></g>
                            <path d="M67.5315953,27.1714707 C61.1685503,32.2821639 51.9442726,35 44.0008121,35 C32.868476,35 22.8432173,30.521024 15.2571544,23.0651223 C14.6617198,22.4795647 15.1928571,21.6803325 15.9090202,22.1333672 C24.0935959,27.3173948 34.2153006,30.4395001 44.6694363,30.4395001 C51.7212839,30.4395001 59.4732204,28.8466196 66.6064657,25.5532768 C67.6820785,25.0566882 68.5839516,26.3245898 67.5315953,27.1714707" id="Fill-1" fill="#EC912D" mask="url(#mask-2)"></path>
                        </g>
                        <path d="M70.0342176,23.9451447 C69.2123873,22.8772389 64.6028863,23.4392392 62.5317358,23.6909649 C61.9046586,23.7673941 61.8076273,23.2106527 62.3725493,22.8078215 C66.0504126,20.1853871 72.0756717,20.942317 72.7756087,21.8205521 C73.4810706,22.7061496 72.5901789,28.8397713 69.1447072,31.7665204 C68.6143159,32.2166816 68.1098226,31.9765255 68.3453219,31.3822706 C69.120881,29.4157954 70.8570839,25.0141023 70.0342176,23.9451447" id="Fill-4" fill="#EC912D"></path>
                        <path d="M62.6171811,4.25380149 L62.6171811,1.65818858 C62.6195063,1.26284688 62.8958759,1 63.2293796,1.00107139 L74.0499796,1 C74.3961059,1 74.6738042,1.27034658 74.6738042,1.65497442 L74.6738042,3.88095891 C74.6704824,4.25451575 74.3778363,4.74128245 73.8593111,5.51482367 L68.2541905,14.1187734 C70.3342702,14.0662754 72.5352617,14.4019766 74.4260016,15.5440748 C74.8521821,15.8015648 74.9664503,16.1826213 75,16.5568924 L75,19.3267842 C75,19.7078408 74.6110231,20.1499664 74.20278,19.9196182 C70.8727259,18.0439772 66.4531378,17.8393423 62.7699816,19.9428316 C62.3936274,20.1581803 62,19.7228402 62,19.3407123 L62,16.7083151 C62,16.2865458 62.00764,15.566574 62.4029283,14.9244562 L68.8966169,4.90806165 L63.2426666,4.9073474 C62.8968724,4.9073474 62.6195063,4.64271487 62.6171811,4.25380149" id="Fill-5" fill="#292929"></path>
                        <path d="M23.0253274,20 L19.6108795,20 C19.2859729,19.977995 19.02653,19.722593 19,19.3957649 L19.0027564,1.04758126 C19.0027564,0.680350637 19.2973429,0.387431911 19.6618723,0.387431911 L22.8416846,0.386349699 C23.1741712,0.404025829 23.4411941,0.66772483 23.4618668,1.00284983 L23.4618668,3.39814581 L23.5262969,3.39814581 C24.3549293,1.08149057 25.9167549,1.8189894e-12 28.0198619,1.8189894e-12 C30.1553561,1.8189894e-12 31.4942607,1.08149057 32.4503751,3.39814581 C33.279352,1.08149057 35.1598824,1.8189894e-12 37.1678948,1.8189894e-12 C38.6022385,1.8189894e-12 40.1637197,0.617943076 41.119834,2.00786407 C42.2034302,3.55290213 41.9811982,5.79163811 41.9811982,7.76090329 L41.9777528,19.3398507 C41.9777528,19.7059991 41.6835107,20 41.3189814,20 L37.9090126,20 C37.5658451,19.9772735 37.2964103,19.6933733 37.2964103,19.3412936 L37.2953767,9.6136503 C37.2953767,8.84275459 37.3591177,6.91172757 37.1992485,6.17834854 C36.9446292,4.94210166 36.1797377,4.59435085 35.1919252,4.59435085 C34.3629482,4.59435085 33.5022731,5.17369503 33.151181,6.10006854 C32.8011226,7.02716352 32.8328208,8.57111937 32.8328208,9.6136503 L32.8328208,19.3398507 C32.8328208,19.7059991 32.5382342,20 32.174394,20 L28.7640806,20 C28.4209131,19.9772735 28.1507893,19.6933733 28.1507893,19.3412936 L28.1473438,9.6136503 C28.1473438,7.56754807 28.4660486,4.55683417 26.0442368,4.55683417 C23.5893487,4.55683417 23.685477,7.49035028 23.685477,9.6136503 L23.6840988,19.3398507 C23.6840988,19.7059991 23.3891677,20 23.0253274,20" id="Fill-6" fill="#292929"></path>
                        <path d="M84.469964,4 C82.1468963,4 82.0000156,7.62981565 82.0000156,9.89466596 C82.0000156,12.1591515 81.9707667,17 84.4413509,17 C86.8830041,17 87,13.0958781 87,10.7153961 C87,9.15382025 86.9411841,7.27927271 86.5288372,5.79575746 C86.17626,4.50666405 85.4698337,4 84.469964,4 L84.469964,4 Z M84.4386094,1.8189894e-12 C89.3461898,1.8189894e-12 92,4.47031761 92,10.1516412 C92,15.6429267 89.0685974,20 84.4386094,20 C79.6234486,20 77,15.5293285 77,9.961957 C77,4.35601168 79.6541439,1.8189894e-12 84.4386094,1.8189894e-12 L84.4386094,1.8189894e-12 Z" id="Fill-7" fill="#292929"></path>
                        <path d="M99.0136108,20 L95.6173992,20 C95.2761959,19.9772735 95.0058472,19.6933733 95.0058472,19.3412936 L95,0.986255907 C95.0288922,0.650409437 95.3116232,0.387431911 95.6548903,0.387431911 L98.8165246,0.386349699 C99.1143896,0.402943617 99.3599735,0.615417914 99.4225733,0.900039681 L99.4225733,3.70657624 L99.4865489,3.70657624 C100.441712,1.19620504 101.776945,1.8189894e-12 104.131661,1.8189894e-12 C105.658821,1.8189894e-12 107.154681,0.578983442 108.109157,2.1626204 C109,3.62937845 109,6.10006854 109,7.87669997 L109,19.4228202 C108.962165,19.7474839 108.683561,20 108.346829,20 L104.929981,20 C104.61423,19.9790772 104.359703,19.7355795 104.323244,19.4228202 L104.323244,9.46069767 C104.323244,7.45247285 104.546127,4.5175138 102.191411,4.5175138 C101.363855,4.5175138 100.600275,5.09685798 100.218485,5.98463259 C99.7410756,7.10472205 99.6771,8.2237293 99.6771,9.46069767 L99.6771,19.3398507 C99.6712527,19.7059991 99.3768273,20 99.0136108,20" id="Fill-8" fill="#292929"></path>
                        <path d="M57.2366262,19.7065523 C57.0157456,19.9145435 56.6962455,19.9283154 56.4466571,19.7881244 C55.3351615,18.8223246 55.1358961,18.3759733 54.52763,17.4560799 C52.6906732,19.4127514 51.3897066,20 49.0096672,20 C46.1919194,20 44,18.1814009 44,14.5456151 C44,11.704716 45.471862,9.77311651 47.5692148,8.82603245 C49.3848941,7.99265498 51.9216439,7.8411639 53.8632994,7.61304448 L53.8632994,7.15892438 C53.8632994,6.32519378 53.925781,5.34138461 53.4559874,4.62136059 C53.0483377,3.97690556 52.2661366,3.71206102 51.5771512,3.71206102 C50.3005017,3.71206102 49.1660399,4.39571305 48.8867306,5.81316101 C48.8286396,6.12850257 48.6087722,6.44101912 48.3058213,6.45726292 L45.0615104,6.0896587 C44.7872672,6.02468351 44.483303,5.79515158 44.5616582,5.35762841 C45.3080591,1.24265056 48.8620757,1.8189894e-12 52.0466069,1.8189894e-12 C53.6755171,1.8189894e-12 55.8039418,0.453766972 57.0876837,1.74232392 C58.7162562,3.33315677 58.559208,5.45473807 58.559208,7.76594806 L58.559208,13.2168017 C58.559208,14.8577785 59.2110423,15.5767431 59.8226858,16.4599114 C60.0368116,16.7791373 60.0844327,17.1573353 59.8115404,17.3903985 C59.1282965,17.9896534 57.9134531,19.0924661 57.2454074,19.7146742 L57.2366262,19.7065523 L57.2366262,19.7065523 Z M53.9997744,10.7495193 C53.9997744,12.1003321 54.0306393,13.2242615 53.3702662,14.4251005 C52.836066,15.3994057 51.9864333,16 51.0435276,16 C49.7546637,16 49,14.9868904 49,13.486803 C49,10.5362699 51.5678918,10 53.9997744,10 L53.9997744,10.7495193 L53.9997744,10.7495193 Z" id="Fill-9" fill="#292929"></path>
                        <path d="M13.2373584,19.7065523 C13.0164712,19.9145435 12.696286,19.9283154 12.4466903,19.7881244 C11.334486,18.8223246 11.1352147,18.3759733 10.5282815,17.4560799 C8.69025671,19.4127514 7.38925131,20 5.00981647,20 C2.19164694,20 0,18.1814009 0,14.5456151 C0,11.704716 1.4712304,9.77311651 3.56932114,8.82603245 C5.38505453,7.99265498 7.92187995,7.8411639 9.86258011,7.61304448 L9.86258011,7.15892438 C9.86258011,6.32519378 9.92573899,5.34138461 9.45626923,4.62136059 C9.04860736,3.97690556 8.26570744,3.71206102 7.57737696,3.71206102 C6.30068942,3.71206102 5.16518056,4.39571305 4.88721394,5.81316101 C4.82912128,6.12850257 4.60890956,6.44101912 4.30561184,6.45726292 L1.06154205,6.0896587 C0.787290649,6.02468351 0.482641929,5.79515158 0.561674967,5.35762841 C1.30708486,1.24265056 4.86120734,1.8189894e-12 8.04684672,1.8189894e-12 C9.67512995,1.8189894e-12 11.8042935,0.453766972 13.0880738,1.74232392 C14.7160192,3.33315677 14.5599797,5.45473807 14.5599797,7.76594806 L14.5599797,13.2168017 C14.5599797,14.8577785 15.2111578,15.5767431 15.8228195,16.4599114 C16.0359385,16.7791373 16.084912,17.1573353 15.8123493,17.3903985 C15.1284096,17.9896534 13.9131922,19.0924661 13.2451266,19.7146742 L13.2373584,19.7065523 L13.2373584,19.7065523 Z M9.9997599,10.7495193 C9.9997599,12.1003321 10.0313052,13.2242615 9.37122835,14.4251005 C8.83699349,15.3994057 7.98764486,16 7.04399954,16 C5.75539113,16 5,14.9868904 5,13.486803 C5,10.5362699 7.56873689,10 9.9997599,10 L9.9997599,10.7495193 L9.9997599,10.7495193 Z" id="Fill-11" fill="#292929"></path>
                    </g>
                </g>
            </g>
        </g>
    </g>
</svg>