<?xml version="1.0" encoding="UTF-8" standalone="no"?>
<svg width="921px" height="223px" viewBox="0 0 921 223" version="1.1" xmlns="http://www.w3.org/2000/svg" xmlns:xlink="http://www.w3.org/1999/xlink">
    <!-- Generator: Sketch 3.7 (28169) - http://www.bohemiancoding.com/sketch -->
    <title>Group 61</title>
    <desc>Created with Sketch.</desc>
    <defs>
        <circle id="path-1" cx="104.5" cy="5.5" r="3.5"></circle>
        <mask id="mask-2" maskContentUnits="userSpaceOnUse" maskUnits="objectBoundingBox" x="0" y="0" width="7" height="7" fill="white">
            <use xlink:href="#path-1"></use>
        </mask>
    </defs>
    <g id="Page-1" stroke="none" stroke-width="1" fill="none" fill-rule="evenodd">
        <g id="epay-web-services-cash-out" transform="translate(-98.000000, -3175.000000)">
            <g id="Group-61" transform="translate(100.000000, 3176.000000)">
                <g id="Group-57" transform="translate(328.000000, 79.000000)">
                    <rect id="Rectangle-1133" stroke="#374D6B" stroke-width="2" x="0" y="20" width="206" height="73" rx="2"></rect>
                    <rect id="Rectangle-1133" stroke="#374D6B" stroke-width="2" x="0" y="0" width="206" height="20" rx="2"></rect>
                    <g id="Group-55" transform="translate(9.636364, 30.000000)" fill="#00B4D5">
                        <polygon id="Fill-9" points="125.363636 2 0.363636364 2 0.363636364 0 125.363636 0"></polygon>
                        <polygon id="Fill-11" points="83.3636364 16 0.363636364 16 0.363636364 14 83.3636364 14"></polygon>
                        <polygon id="Fill-12" points="97.3636364 9 0.363636364 9 0.363636364 7 97.3636364 7"></polygon>
                        <polygon id="Fill-13" points="97.3636364 23 0.363636364 23 0.363636364 21 97.3636364 21"></polygon>
                    </g>
                    <g id="Group-51" transform="translate(131.000000, 30.000000)">
                        <path d="M25.245651,44.6751394 C24.8092173,45.5515065 24.4803221,46.5501307 24.2746644,47.6001716 C24.7825289,46.7797915 25.1514567,45.7491747 25.245651,44.6751394 M11.0442305,34.8825346 C10.5885195,35.2590747 10.1764306,35.7449662 9.82374186,36.3257663 C8.8195071,37.9866691 8.48074029,40.1448111 8.9410919,41.9604564 C9.78011983,45.2801988 12.466123,47.4734157 15.0221882,48.5751823 C15.4203552,48.1996739 15.8036721,47.7921853 16.1693547,47.3537482 C18.5249442,44.5281502 19.6897451,40.9381243 19.3667565,37.5049041 C19.3184938,36.9952855 19.2349623,36.4206751 18.9769426,36.022471 C18.6548821,35.5242002 18.0293237,35.2425689 17.3053836,34.9485581 C15.976304,34.4121175 14.4699519,33.8003688 13.0527,33.9829649 C12.6062703,34.0386722 12.1737626,34.1779405 11.7663143,34.3966432 C11.6985609,34.4884571 11.6131731,34.5647967 11.5120071,34.6225673 C11.3560816,34.7071598 11.2010842,34.7958788 11.0442305,34.8825346 M3.1511853,41.3018364 C2.10131188,43.0238723 1.69524671,45.313131 2.09085119,47.2785534 C2.29435926,48.285705 2.66333674,48.9895055 3.95000226,49.8683446 C4.80682829,50.4528795 5.94133824,50.7716241 7.32310099,50.8133766 C9.40763226,50.880588 11.2636873,50.6434032 13.1589751,49.3796265 C10.4544099,48.0201245 8.23793611,45.8813723 7.32310076,42.3986032 C6.8618792,40.6429617 7.01593671,38.6398603 7.70729357,36.8750536 C5.93182829,38.0410684 4.28569525,39.4413045 3.1511853,41.3018364 Z M7.18293849,52.470239 C5.48272891,52.4193799 4.05270019,52.020485 2.93241453,51.2815321 C1.5236143,50.3541013 0.574121548,48.8781901 0.185254088,47.0133562 C-0.304931195,44.6658595 0.193938473,41.9364208 1.48887676,39.8870981 C3.54321627,36.635107 7.01986504,34.6904942 9.97738059,33.1467708 C10.8072218,32.5364615 11.7451354,32.1575113 12.7419098,32.0408345 C14.6003682,31.828423 16.3526841,32.4856024 17.9004345,33.0669918 C18.6810642,33.3591823 19.7482786,33.761069 20.4034672,34.7014638 C20.8946174,35.4055134 21.0345325,36.2302287 21.1059374,36.9422561 C21.4919101,40.7427277 20.1246019,44.6927849 17.3571779,47.7802317 C17.1680513,47.9916461 16.9741001,48.1970769 16.7762891,48.3945299 C18.3385134,48.7734801 20.3166233,48.9440077 22.1046417,48.1910935 C22.3140319,45.7229311 23.4381773,43.3415283 25.2763721,41.7180258 C25.4770779,41.5385231 25.7501535,41.4737027 26.0126149,41.5435093 C26.2702517,41.6143132 26.4786769,41.8117662 26.5693805,42.0710479 C27.5574705,44.899213 25.9228763,47.8590135 23.7044984,49.2411845 C23.7141477,49.6520462 23.7546748,50.0609136 23.8280096,50.4608057 C25.3091797,50.697151 26.9167559,50.3152091 28.3139769,49.373817 C29.513387,48.567052 30.4136682,47.44516 30.8884146,46.1966188 C30.911573,45.7179449 31.0428037,45.2492433 31.2869314,44.8074672 C31.4818476,44.4524507 31.8977331,44.2998734 32.267302,44.4335032 C32.6397656,44.5711219 32.8616999,44.9650307 32.7941546,45.3669173 C32.7314341,45.7448703 32.6397656,46.1158426 32.5191491,46.4798342 C32.5538867,46.8557927 32.7275744,47.1958506 32.9089815,47.4551324 C33.5921531,48.4354167 34.8851616,49.0128171 35.9195683,48.8033973 C37.9961012,48.3745852 39.467622,46.4229917 40.9159844,44.2889037 C41.1099357,43.9997049 41.4621358,43.8720585 41.7882827,43.9588182 C42.1182893,44.0485695 42.3585573,44.3407601 42.3904,44.6907904 L42.6364576,47.3454362 C45.2601068,47.5847732 48.0342853,46.4080331 49.6881782,44.2869093 C49.8927437,44.0246358 50.2323996,43.9059646 50.5440725,44.0066856 C50.8586403,44.0984314 51.088294,44.3756634 51.1288211,44.7107351 L51.2986491,46.1188343 C52.7421869,46.3043204 54.3015164,45.411793 54.8428431,44.0206469 C54.9557401,43.7324453 55.2143418,43.5300061 55.5134706,43.4990918 C55.8029501,43.4542161 56.1049737,43.6087879 56.2738368,43.8670723 C57.7897444,46.2055939 60.5397996,47.7094279 63.2541524,47.6196765 C63.7568818,47.6077097 64.0753092,47.978682 64.0849585,48.4414001 C64.0936429,48.9061127 63.7375832,49.2900491 63.2888899,49.3000215 C60.4384818,49.398748 57.5774594,48.0285438 55.6861934,45.823652 C54.4472211,47.4302014 52.2471769,48.2269941 50.3221383,47.6156876 C50.0162549,47.5189555 49.7952856,47.2447153 49.7557234,46.9166242 L49.7229157,46.6463729 C47.5508545,48.5530907 44.5807949,49.4386375 41.7477555,48.9160851 C41.387836,48.8502674 41.1147604,48.5451128 41.0790579,48.1691543 L40.9729154,47.0263203 C39.6963108,48.663784 38.2025966,50.0509412 36.2264166,50.457814 C34.5879626,50.8058499 32.5201141,50.0190296 31.5667616,48.4523697 C31.7780816,48.7994083 30.1473471,50.1456787 29.1920648,50.7898941 C27.2670261,52.0863026 24.9926822,52.5230926 22.9508868,51.995554 C22.6633371,51.9217585 22.4414029,51.6903994 22.3651733,51.3952171 C22.2435919,50.9285101 22.1625376,50.4518306 22.1152559,49.9741539 C19.8032797,50.7340488 17.3803363,50.3451262 15.6357398,49.8245683 C15.5170533,49.7886678 15.3974017,49.75177 15.2777502,49.7128777 C12.9522649,51.4949409 10.2379121,52.4752252 7.51391005,52.4752252 C7.40294291,52.4752252 7.29390564,52.4732307 7.18293849,52.470239 Z" id="Fill-7" fill="#374D6B"></path>
                        <g id="Group-41" transform="translate(30.000000, 0.000000)">
                            <path d="M34,30.9977147 C34,32.1035463 33.1080589,33 32.0000796,33 L1.9999204,33 C0.895394863,33 0,32.1002151 0,30.9977147 L0,2.00228533 C0,0.896453677 0.891941149,0 1.9999204,0 L32.0000796,0 C33.1046051,0 34,0.899784928 34,2.00228533 L34,30.9977147 Z" id="Fill-14" stroke="#00B4D5" stroke-width="2"></path>
                            <path d="M18,17.4545455 L18,22.2272727 C19.2707046,22.0342205 20,21.1310422 20,19.7983866 C20,18.3781345 19.0210136,17.7972769 18,17.4545455 L18,17.4545455 Z M16,14.5909091 L16,9.81818182 C14.8506521,9.97202797 14,10.8784965 14,12.4702797 C14,13.6416084 15.0416491,14.2604895 16,14.5909091 L16,14.5909091 Z M16.0401067,24.3745323 C14.2480913,24.2791288 12.3811977,23.6646179 11,22.4823624 C11.408794,22.0100214 11.8438966,21.3955104 12.2526906,20.9212988 C13.2503909,21.7724479 14.5820072,22.3888295 16.0401067,22.5300641 L16.0401067,16.9489578 C13.6085917,16.3101283 11.408794,15.1746392 11.408794,12.5501069 C11.408794,10.0200428 13.2261062,8.1278728 16.0401067,7.9389364 L16.0401067,6 L17.9752007,6 L17.9752007,7.96138429 C19.4080035,8.08017103 20.924386,9.07349022 22,9.8058526 C21.6660841,10.3034475 21.3088952,10.9404063 20.9759912,11.4380012 C20.105786,10.8945752 19.0498028,9.94895778 17.9752007,9.80585249 L17.9752007,15.1980224 C20.7892012,15.9079369 22,16.8778728 22,19.8091929 C22,22.4589792 20.737596,24.1378942 17.9752007,24.3745323 L17.9752007,27 L16.0401067,27 L16.0401067,24.3745323 Z" id="Fill-15" fill="#00B4D5"></path>
                        </g>
                    </g>
                </g>
                <g id="Group-52" transform="translate(0.000000, 39.000000)" stroke-width="2">
                    <path d="M172,12 L0,12 L0,12 C0,5.32459797 6.22305556,0 12.9248555,0 L160.069364,0 C166.300111,0 172,5.32459797 172,12 L172,12 Z" id="Fill-1" stroke="#374D6B"></path>
                    <path d="M1,137 L171,137 L171,137 C171,156.266333 155.419028,172 137,172 L36,172 C17.0980556,172 1,156.266333 1,137 L1,137 Z" id="Fill-5" stroke="#374D6B"></path>
                    <polygon id="Fill-7" stroke="#374D6B" points="141 74 31 74 0 12 172 12"></polygon>
                    <polygon id="Fill-9" stroke="#374D6B" points="31 74 141 74 170.571342 137 1.49332334 137"></polygon>
                    <polygon id="Fill-11" stroke="#00B4D5" points="40 82 20 127 152 127 132 82"></polygon>
                    <path d="M55,137 C61.1433055,150.086428 72.2632627,156 86,156 C97.7390339,156 108.856694,150.086428 115,137 L55,137 Z" id="Fill-13" stroke="#374D6B"></path>
                    <path d="M151,152 C151,148.462434 148.538107,146 146,146 C142.464309,146 140,148.462434 140,152 C140,154.537566 142.464309,157 146,157 C148.538107,157 151,154.537566 151,152" id="Fill-15" stroke="#00B4D5"></path>
                </g>
                <g id="Group-60" transform="translate(708.000000, 39.000000)">
                    <g id="Group-58">
                        <path d="M0,162 L209,162 L209,167 C209,170.374143 205.571443,173 203,173 L7,173 C3.87846565,173 0,169.931 0,166 L0,162 Z" id="Fill-1" stroke="#374D6B" stroke-width="2"></path>
                        <path d="M21,5 L21,105 L188,105 L188,5 C188,2.66376923 185.353692,0 183.059172,0 L25.9408284,0 C23.6463077,0 21,2.66376923 21,5" id="Fill-3" stroke="#374D6B" stroke-width="2"></path>
                        <polygon id="Fill-6" stroke="#374D6B" stroke-width="2" points="28 99 181 99 181 11 28 11"></polygon>
                        <polygon id="Fill-8" stroke="#374D6B" stroke-width="2" points="21 105 188 105 209 162 0 162"></polygon>
                        <polygon id="Fill-9" stroke="#374D6B" stroke-width="2" points="28 113 15 152 194 152 181 113"></polygon>
                        <path d="M76,167 C73.5112195,167 71,165.241667 71,162 L71,162 L137,162 L137,162 C137,165.241667 134.475902,167 132,167 L76,167 Z" id="Fill-10" stroke="#374D6B" stroke-width="2"></path>
                        <use id="Oval-153" stroke="#00B4D5" mask="url(#mask-2)" stroke-width="4" xlink:href="#path-1"></use>
                    </g>
                    <path d="M57,66 L59,66 L59,51 L57,51 L57,66 Z M59,49 C59.3296089,49 60,48.3128492 60,48 C60,46.6703911 59.3296089,46 59,46 C57.6871508,46 57,46.6703911 57,48 C57,48.3128492 57.6871508,49 59,49 L59,49 Z M73,67 C78.0130293,67 81.252443,64.6165212 82,61 L80,61 C79.3615635,63.4741437 76.8110749,65.208865 73,65 C68.9397394,65.208865 66.0521173,61.8099396 66,56 C66.0521173,51.1618536 68.9397394,47.791135 73,48 C76.7084691,47.791135 79.4055375,49.8502351 80,53 L82,53 C81.4283388,48.8065816 77.8957655,46 73,46 C67.6791531,46 64,50.0758899 64,56 C64,62.8959033 67.6644951,67 73,67 L73,67 Z M86,67 L88,67 L88,58 C87.9589041,54.8313413 89.8436073,52.815405 93,53 C95.4680365,52.815405 97.0410959,54.4807437 97,57 L97,67 L99,67 L99,57 C99,53.3997344 96.7888128,51.0916335 93,51 C90.7191781,51.0916335 88.8938356,52.2456839 88,54 L88,54 L88,45 L86,45 L86,67 Z M115,58 L105,58 C105.179104,55.0111732 107.208955,53 110,53 C113,53 114.970149,55.0111732 115,58 Z M115,62 C114.377778,64.1080836 112.674074,65.2997275 110,65 C107.103704,65.2997275 105.02963,63.119891 105,60 L105,59 L117,59 C117,53.9791099 114.303704,51 110,51 C105.814815,51 103,54.1825613 103,59 C103,63.9627611 105.814815,67 110,67 C113.696296,67 116.318519,65.0672116 117,62 L115,62 Z M135,56 C134.592672,53.3396912 132.103448,51 128,51 C123.896552,51 121,54.1534968 121,59 C121,63.9336966 123.911638,67 128,67 C131.922414,67 134.532328,64.9509537 135,62 L133,62 C132.556034,64.0499546 130.821121,65.270663 128,65 C125.148707,65.270663 123.036638,62.8728429 123,59 C123.036638,55.1852861 125.133621,52.7148047 128,53 C130.911638,52.7148047 132.616379,54.1825613 133,56 L135,56 Z M141,58.5700231 L141,59 L141,45 L139,45 L139,67 L141,67 L141,61 L143,59 L149,67 L151.530526,67 L144.507812,57.8708048 L151.081452,51.0357351 L149,50.5700231 L141,58.5700231 Z M105,57 L115,57 L115,58 L105,58 L105,57 Z" id="iCheck" fill="#00B4D5"></path>
                </g>
                <path d="M322,190 L329,190" id="Stroke-2" stroke="#264C6D" stroke-width="2" stroke-linecap="round" stroke-linejoin="round" stroke-dasharray="0,4"></path>
                <path d="M554,49 L554,57" id="Stroke-3" stroke="#264C6D" stroke-width="2" stroke-linecap="round" stroke-linejoin="round"></path>
                <path d="M550,53 L558,53" id="Stroke-4" stroke="#264C6D" stroke-width="2" stroke-linecap="round" stroke-linejoin="round"></path>
                <path d="M396,2.5 C396,1.11875 394.88125,0 393.5,0 C392.11875,0 391,1.11875 391,2.5 C391,3.88125 392.11875,5 393.5,5 C394.88125,5 396,3.88125 396,2.5 L396,2.5 Z" id="Stroke-5" stroke="#00B4D5" stroke-width="2" stroke-linecap="round" stroke-linejoin="round"></path>
                <path d="M657,100.5 C657,99.11875 655.88125,98 654.5,98 C653.11875,98 652,99.11875 652,100.5 C652,101.88125 653.11875,103 654.5,103 C655.88125,103 657,101.88125 657,100.5 L657,100.5 Z" id="Stroke-7" stroke="#00B4D5" stroke-width="2" stroke-linecap="round" stroke-linejoin="round"></path>
                <path d="M196,100.5 C196,99.11875 194.88125,98 193.5,98 C192.11875,98 191,99.11875 191,100.5 C191,101.88125 192.11875,103 193.5,103 C194.88125,103 196,101.88125 196,100.5 L196,100.5 Z" id="Stroke-9" stroke="#00B4D5" stroke-width="2" stroke-linecap="round" stroke-linejoin="round"></path>
                <path d="M261,149 L288,149" id="Stroke-11" stroke="#00B4D5" stroke-width="2" stroke-linecap="round" stroke-linejoin="round" stroke-dasharray="0,4"></path>
                <path d="M665,163 L674,163" id="Stroke-13" stroke="#264C6D" stroke-width="2" stroke-linecap="round" stroke-linejoin="round"></path>
                <path d="M440,52 L449,52" id="Stroke-13" stroke="#264C6D" stroke-width="2" stroke-linecap="round" stroke-linejoin="round"></path>
                <path d="M289,57 L298,57" id="Stroke-17" stroke="#264C6D" stroke-width="2" stroke-linecap="round" stroke-linejoin="round" stroke-dasharray="0,4"></path>
                <path d="M564,121 L607,121" id="Stroke-103" stroke="#264C6C" stroke-width="2" stroke-linecap="round" stroke-linejoin="round" stroke-dasharray="0,4"></path>
                <polygon id="Stroke-51" stroke="#00B4D5" stroke-width="2" stroke-linecap="round" stroke-linejoin="round" points="454 211 449 216 454 221 459 216"></polygon>
            </g>
        </g>
    </g>
</svg>