<svg xmlns="http://www.w3.org/2000/svg" width="767" height="233" viewBox="0 0 767 233">
  <g fill="none" fill-rule="evenodd">
    <path fill="#00B6D7" fill-rule="nonzero" d="M609.070046,67.3427217 L607.070046,67.3427217 C606.517761,67.3427217 606.070046,67.7904369 606.070046,68.3427217 C606.070046,68.8950064 606.517761,69.3427217 607.070046,69.3427217 L609.070046,69.3427217 C609.622331,69.3427217 610.070046,68.8950064 610.070046,68.3427217 C610.070046,67.7904369 609.622331,67.3427217 609.070046,67.3427217 Z M601.070046,67.3427217 L599.070046,67.3427217 C598.517761,67.3427217 598.070046,67.7904369 598.070046,68.3427217 C598.070046,68.8950064 598.517761,69.3427217 599.070046,69.3427217 L601.070046,69.3427217 C601.622331,69.3427217 602.070046,68.8950064 602.070046,68.3427217 C602.070046,67.7904369 601.622331,67.3427217 601.070046,67.3427217 Z M593.070046,67.3427217 L591.070046,67.3427217 C590.517761,67.3427217 590.070046,67.7904369 590.070046,68.3427217 C590.070046,68.8950064 590.517761,69.3427217 591.070046,69.3427217 L593.070046,69.3427217 C593.622331,69.3427217 594.070046,68.8950064 594.070046,68.3427217 C594.070046,67.7904369 593.622331,67.3427217 593.070046,67.3427217 Z M585.070046,67.3427217 L583.070046,67.3427217 C582.517761,67.3427217 582.070046,67.7904369 582.070046,68.3427217 C582.070046,68.8950064 582.517761,69.3427217 583.070046,69.3427217 L585.070046,69.3427217 C585.622331,69.3427217 586.070046,68.8950064 586.070046,68.3427217 C586.070046,67.7904369 585.622331,67.3427217 585.070046,67.3427217 Z"/>
    <path fill="#FFF" d="M694,53 L686,49 C685.363422,48.7254136 685.020369,48.1960871 685,48 C685.020369,47.213518 685.177959,46.8352723 685,47 C687.111921,44.9179582 688.217196,42.0235095 688,39 C688.217196,34.5988084 685.657161,32 682,32 C679.342839,32 676.782804,34.5988084 677,39 C676.782804,42.0235095 677.888079,44.9179582 680,47 C679.822041,46.8352723 679.980703,47.213518 680,48 C679.980703,48.1960871 679.636578,48.7254136 679,49 L671,53 C670.292667,52.8143795 670,53.2676221 670,54 L670,58 C670,58.4380661 670.554245,59 671,59 L682,59 L694,59 C694.446827,59 695,58.4380661 695,58 L695,54 C695,53.2676221 694.707333,52.8143795 694,53"/>
    <path fill="#264C6D" fill-rule="nonzero" d="M696 54L696 58C696 58.9919159 694.99757 60 694 60L671 60C670.003314 60 669 58.9917226 669 58L669 54C669 52.7649179 669.688115 51.8653184 670.842597 51.9607314L678.603928 48.0817804C678.753863 48.0171062 678.884652 47.9192932 678.980357 47.8104006 678.98399 47.7103014 678.97577 47.6215865 678.965386 47.5290025 678.95968 47.4781279 678.95347 47.4271675 678.943419 47.34644 676.858578 45.0961787 675.791682 42.094878 675.998391 38.9887456 675.796402 34.3919946 678.483296 31 682 31 686.347093 31 689.213048 34.1933576 689.001611 38.9887861 689.208292 42.0946466 688.14159 45.0956908 686.057099 47.3458803 686.046793 47.4288703 686.040465 47.4808959 686.034658 47.5328081 686.024453 47.6240417 686.016326 47.7115071 686.010323 47.7993028 686.115931 47.9195856 686.246378 48.0172102 686.447214 48.1055728L694.157513 51.9607223C695.311929 51.8653755 696 52.7649571 696 54zM679.320701 47.7338615C679.350635 47.7622972 679.350635 47.7622972 679.464367 47.837272 679.669582 47.9550716 679.669582 47.9550716 680.232741 47.9173063 680.775876 47.5714126 680.775876 47.5714126 680.881238 47.2586689 680.917461 47.0798373 680.917461 47.0798373 680.916439 47.0200723 680.916385 47.0014037 680.948356 47.2653527 680.952924 47.3060866 680.953602 47.31213 680.954273 47.3181658 680.954938 47.3241945 680.731201 47.9210491 679.944297 48.3110938 679.320701 47.7338615zM684.047055 47.3104759C684.051399 47.2716364 684.083878 47.0027358 684.08382 47.0205141 684.082793 47.0794306 684.082793 47.0794306 684.118272 47.256384 684.220865 47.5658943 684.220865 47.5658943 684.759578 47.9148453 685.325967 47.956755 685.325967 47.956755 685.534028 47.8381998 685.649031 47.7626206 685.649031 47.7626206 685.679299 47.7338615 685.056038 48.3107834 684.269646 47.9214685 684.045424 47.3251574 684.045963 47.3202685 684.046507 47.3153748 684.047055 47.3104759zM693.552786 53.8944272L685.603928 49.9182196C684.758324 49.5534704 684.075184 48.7755826 684.005352 48.1033203L684.000335 47.9741101C684.006181 47.7483725 684.021563 47.5414506 684.045424 47.3251574 683.923126 46.9999109 683.968071 46.6130841 684.297949 46.2878736 686.213058 44.3998587 687.197631 41.7870307 687.00257 39.0716509L687.001215 38.9507107C687.184582 35.2350137 685.19144 33 682 33 679.704594 33 677.823017 35.3889967 677.998785 38.9507107L677.99743 39.0716509C677.802369 41.7870307 678.786942 44.3998587 680.702051 46.2878736 681.031603 46.6127632 681.076785 46.9991476 680.954938 47.3241945 680.97884 47.5410317 680.994136 47.7487198 680.999699 47.9754719L680.995193 48.0979359C680.928781 48.7727904 680.243231 49.5527996 679.447214 49.8944272L671.447214 53.8944272C671.307315 53.9643764 671.1541 53.9999983 671 54.0000012L671 58 694 58 694 54.0000012C693.845901 53.9999983 693.692685 53.9643764 693.552786 53.8944272zM695 40L714 40C714.552285 40 715 39.5522847 715 39 715 38.4477153 714.552285 38 714 38L695 38C694.447715 38 694 38.4477153 694 39 694 39.5522847 694.447715 40 695 40z"/>
    <path fill="#264C6D" fill-rule="nonzero" d="M693,46 L702,46 C702.552285,46 703,45.5522847 703,45 C703,44.4477153 702.552285,44 702,44 L693,44 C692.447715,44 692,44.4477153 692,45 C692,45.5522847 692.447715,46 693,46 Z"/>
    <path fill="#FFF" d="M580,149 L575,146 C574.446885,146.150244 574.212269,145.797219 574,145 C574.212269,145.142518 574.320967,144.890051 575,145 C575.635034,143.612742 576.387313,141.681802 576,140 C576.387313,136.733032 574.645986,135 572,135 C570.351861,135 568.611611,136.733032 569,140 C568.611611,141.681802 569.36389,143.612742 570,145 C570.679033,144.890051 570.785579,145.142518 571,145 C570.785579,145.797219 570.553115,146.150244 570,146 L565,149 C564.199101,148.877095 564,149.178771 564,150 L564,152 C564,152.625579 564.375601,153 565,153 L572,153 L580,153 C580.623322,153 581,152.625579 581,152 L581,150 C581,149.178771 580.799823,148.877095 580,149"/>
    <path fill="#264C6D" fill-rule="nonzero" d="M582 150L582 152C582 153.177412 581.176061 154 580 154L565 154C563.823079 154 563 153.177627 563 152L563 150C563 148.707185 563.588928 147.945359 564.763522 147.975696L569.0775 145.387309C568.104491 143.258674 567.667569 141.576223 567.988522 139.948441 567.650902 136.533916 569.475798 134 572 134 575.334828 134 577.371 136.328299 577.011457 139.948769 577.331434 141.575946 576.895049 143.256194 575.922483 145.387299L580.236458 147.975685C581.410346 147.945457 582 148.707582 582 150zM580 150.000002C579.819702 150.000002 579.641727 149.951226 579.485504 149.857493L574.796179 147.043898C573.866401 147.094702 573.339981 146.407719 573.033668 145.257297 572.83205 144.50008 573.51841 143.874006 574.199269 144.016768 574.249702 144.006986 574.30017 143.998665 574.351067 143.9919 575.004024 142.438862 575.256709 141.228348 575.025508 140.224422 574.999684 140.112288 574.993407 139.996539 575.006954 139.88227 575.308765 137.336515 574.169104 136 572 136 570.749399 136 569.707452 137.479978 569.993007 139.881948 570.006628 139.996523 570.000318 140.112591 569.974355 140.225014 569.742519 141.228913 569.995403 142.440536 570.648534 143.991913 570.699497 143.998696 570.750027 144.007043 570.800523 144.016859 571.482839 143.873523 572.169413 144.502256 571.965681 145.259731 571.656065 146.410883 571.13236 147.095437 570.203582 147.044041L565.514496 149.857493C565.358274 149.951226 565.180299 150.000002 565 150.000002L565 152 580 152 580 150.000002zM581 141L594 141C594.552285 141 595 140.552285 595 140 595 139.447715 594.552285 139 594 139L581 139C580.447715 139 580 139.447715 580 140 580 140.552285 580.447715 141 581 141zM584 145L590 145C590.552285 145 591 144.552285 591 144 591 143.447715 590.552285 143 590 143L584 143C583.447715 143 583 143.447715 583 144 583 144.552285 583.447715 145 584 145z"/>
    <path fill="#FFF" d="M751,200 L746,197 C745.446885,197.150651 745.212269,196.796577 745,196 C745.212269,196.142984 745.320967,195.889463 746,196 C746.635034,194.61223 747.387313,192.682475 747,191 C747.387313,187.732929 745.645986,186 743,186 C741.351861,186 739.611611,187.732929 740,191 C739.611611,192.682475 740.36389,194.61223 741,196 C741.679033,195.889463 741.785579,196.142984 742,196 C741.785579,196.796577 741.553115,197.150651 741,197 L736,200 C735.198025,199.87627 735,200.177928 735,201 L735,203 C735,203.624532 735.375601,204 736,204 L743,204 L751,204 C751.622246,204 752,203.624532 752,203 L752,201 C752,200.177928 751.799823,199.87627 751,200"/>
    <path fill="#264C6D" fill-rule="nonzero" d="M753 201L753 203C753 204.176359 752.17499 205 751 205L736 205C734.82329 205 734 204.17679 734 203L734 201C734 199.705989 734.588362 198.94409 735.763925 198.975455L740.077504 196.387307C739.104054 194.256973 738.667559 192.576519 738.988525 190.948467 738.650893 187.533857 740.475768 185 743 185 746.334866 185 748.371008 187.32824 748.011454 190.948795 748.331444 192.576242 747.895488 194.254486 746.922479 196.387297L751.236035 198.975431C752.410185 198.944285 753 199.706785 753 201zM751 203L751 201.000002C750.819708 201.000002 750.641732 200.95123 750.485504 200.857493L745.796454 198.044063C744.866614 198.095278 744.340291 197.407956 744.033719 196.257491 743.831901 195.500131 744.518358 194.87414 745.199076 195.016705 745.249571 195.006883 745.300103 194.99853 745.351068 194.991743 746.004334 193.437754 746.256698 192.228701 746.025488 191.224337 745.999681 191.112231 745.993411 190.996512 746.006954 190.882274 746.308763 188.33645 745.169141 187 743 187 741.749368 187 740.707453 188.479909 740.993008 190.881951 741.006625 190.996496 741.000321 191.112533 740.974375 191.224929 740.74253 192.229266 740.995094 193.439433 741.648533 194.991756 741.699564 194.998562 741.750159 195.00694 741.800716 195.016796 742.482891 194.873657 743.169563 195.502309 742.965628 196.259926 742.655749 197.411132 742.132146 198.096017 741.203306 198.044207L736.514496 200.857493C736.35827 200.951228 736.180294 201.000002 736 201.000002L736 203 751 203zM753 189L766 189C766.552285 189 767 188.552285 767 188 767 187.447715 766.552285 187 766 187L753 187C752.447715 187 752 187.447715 752 188 752 188.552285 752.447715 189 753 189zM753 195L759 195C759.552285 195 760 194.552285 760 194 760 193.447715 759.552285 193 759 193L753 193C752.447715 193 752 193.447715 752 194 752 194.552285 752.447715 195 753 195z"/>
    <g opacity=".1" transform="translate(652 73)">
      <path fill="#D9F6FA" d="M1,5.44047099 L1,45.4722828 C1,46.6410356 1.94738925,47.587836 3.11613112,47.587836 L53.6007628,47.587836 C54.7702425,47.587836 55.7176317,46.6410356 55.7176317,45.4722828 L55.7176317,5.44047099"/>
      <path fill="#264C6D" fill-rule="nonzero" d="M0,5.44047099 L0,45.4722828 C0,47.1932916 1.39507569,48.587836 3.11613112,48.587836 L53.6007628,48.587836 C55.3223881,48.587836 56.7176317,47.1934596 56.7176317,45.4722828 L56.7176317,5.44047099 C56.7176317,4.88818624 56.2699165,4.44047099 55.7176317,4.44047099 C55.165347,4.44047099 54.7176317,4.88818624 54.7176317,5.44047099 L54.7176317,45.4722828 C54.7176317,46.0886116 54.2180969,46.587836 53.6007628,46.587836 L3.11613112,46.587836 C2.49947468,46.587836 2,46.0885515 2,45.4722828 L2,5.44047099 C2,4.88818624 1.55228475,4.44047099 1,4.44047099 C0.44771525,4.44047099 0,4.88818624 0,5.44047099 Z"/>
      <path fill="#D9F6FA" d="M1,5.44047099 L47.6803178,5.44047099 L55.7176317,5.44047099 L55.7176317,2.22475551 C55.7176317,1.55044494 55.1716286,1.00390625 54.4979788,1.00390625 L2.21891514,1.00390625 C1.54526531,1.00390625 1,1.55044494 1,2.22475551 L1,5.44047099 Z"/>
      <path fill="#264C6D" fill-rule="nonzero" d="M1,6.44047099 C0.44771525,6.44047099 0,5.99275574 0,5.44047099 L0,2.22475551 C0,0.998425402 0.992714271,0.00390625 2.21891514,0.00390625 L54.4979788,0.00390625 C55.7241329,0.00390625 56.7176317,0.998379531 56.7176317,2.22475551 L56.7176317,5.44047099 C56.7176317,5.99275574 56.2699165,6.44047099 55.7176317,6.44047099 L1,6.44047099 Z M54.7176317,4.44047099 L54.7176317,2.22475551 C54.7176317,2.10251035 54.6191243,2.00390625 54.4979788,2.00390625 L2.21891514,2.00390625 C2.09809785,2.00390625 2,2.10218246 2,2.22475551 L2,4.44047099 L54.7176317,4.44047099 Z"/>
      <path fill="#264C6D" fill-rule="nonzero" d="M3.95770982 4.22218862L4.67199675 4.22218862C5.2242815 4.22218862 5.67199675 3.77447337 5.67199675 3.22218862 5.67199675 2.66990387 5.2242815 2.22218862 4.67199675 2.22218862L3.95770982 2.22218862C3.40542507 2.22218862 2.95770982 2.66990387 2.95770982 3.22218862 2.95770982 3.77447337 3.40542507 4.22218862 3.95770982 4.22218862zM7.6548471 4.22218862L8.36913403 4.22218862C8.92141878 4.22218862 9.36913403 3.77447337 9.36913403 3.22218862 9.36913403 2.66990387 8.92141878 2.22218862 8.36913403 2.22218862L7.6548471 2.22218862C7.10256235 2.22218862 6.6548471 2.66990387 6.6548471 3.22218862 6.6548471 3.77447337 7.10256235 4.22218862 7.6548471 4.22218862zM11.3519844 4.22218862L12.0655319 4.22218862C12.6178166 4.22218862 13.0655319 3.77447337 13.0655319 3.22218862 13.0655319 2.66990387 12.6178166 2.22218862 12.0655319 2.22218862L11.3519844 2.22218862C10.7996996 2.22218862 10.3519844 2.66990387 10.3519844 3.22218862 10.3519844 3.77447337 10.7996996 4.22218862 11.3519844 4.22218862z"/>
    </g>
    <g opacity=".1" transform="translate(590 103)">
      <path fill="#D9F6FA" d="M1,7 L1,61.1389307 C1,62.7195493 2.28124705,64 3.86185089,64 L72.1371513,64 C73.7187529,64 75,62.7195493 75,61.1389307 L75,7"/>
      <path fill="#264C6D" fill-rule="nonzero" d="M0,7 L0,61.1389307 C0,63.2717652 1.7288933,65 3.86185089,65 L72.1371513,65 C74.2708986,65 76,63.2719733 76,61.1389307 L76,7 C76,6.44771525 75.5522847,6 75,6 C74.4477153,6 74,6.44771525 74,7 L74,61.1389307 C74,62.1671253 73.1666073,63 72.1371513,63 L3.86185089,63 C2.83329229,63 2,62.1670251 2,61.1389307 L2,7 C2,6.44771525 1.55228475,6 1,6 C0.44771525,6 0,6.44771525 0,7 Z"/>
      <path fill="#D9F6FA" d="M1,7 L64.130355,7 L75,7 L75,2.65107375 C75,1.73913767 74.2615866,1 73.3505441,1 L2.64845804,1 C1.73741555,1 1,1.73913767 1,2.65107375 L1,7 Z"/>
      <path fill="#264C6D" fill-rule="nonzero" d="M1,8 C0.44771525,8 0,7.55228475 0,7 L0,2.65107375 C0,1.18706844 1.18491412,0 2.64845804,0 L73.3505441,0 C74.8140909,0 76,1.18707226 76,2.65107375 L76,7 C76,7.55228475 75.5522847,8 75,8 L1,8 Z M74,6 L74,2.65107375 C74,2.29120308 73.7090823,2 73.3505441,2 L2.64845804,2 C2.2902977,2 2,2.2908255 2,2.65107375 L2,6 L74,6 Z"/>
      <path fill="#264C6D" fill-rule="nonzero" d="M5 5L5.966 5C6.51828475 5 6.966 4.55228475 6.966 4 6.966 3.44771525 6.51828475 3 5.966 3L5 3C4.44771525 3 4 3.44771525 4 4 4 4.55228475 4.44771525 5 5 5zM10 5L10.966 5C11.5182847 5 11.966 4.55228475 11.966 4 11.966 3.44771525 11.5182847 3 10.966 3L10 3C9.44771525 3 9 3.44771525 9 4 9 4.55228475 9.44771525 5 10 5zM15 5L15.965 5C16.5172847 5 16.965 4.55228475 16.965 4 16.965 3.44771525 16.5172847 3 15.965 3L15 3C14.4477153 3 14 3.44771525 14 4 14 4.55228475 14.4477153 5 15 5z"/>
    </g>
    <g opacity=".1" transform="translate(675 127)">
      <path fill="#D9F6FA" d="M1,7.5 L1,61.6389307 C1,63.2195493 2.28124705,64.5 3.86185089,64.5 L72.1371513,64.5 C73.7187529,64.5 75,63.2195493 75,61.6389307 L75,7.5"/>
      <path fill="#264C6D" fill-rule="nonzero" d="M0,7.5 L0,61.6389307 C0,63.7717652 1.7288933,65.5 3.86185089,65.5 L72.1371513,65.5 C74.2708986,65.5 76,63.7719733 76,61.6389307 L76,7.5 C76,6.94771525 75.5522847,6.5 75,6.5 C74.4477153,6.5 74,6.94771525 74,7.5 L74,61.6389307 C74,62.6671253 73.1666073,63.5 72.1371513,63.5 L3.86185089,63.5 C2.83329229,63.5 2,62.6670251 2,61.6389307 L2,7.5 C2,6.94771525 1.55228475,6.5 1,6.5 C0.44771525,6.5 0,6.94771525 0,7.5 Z"/>
      <path fill="#D9F6FA" d="M1,7.5 L64.130355,7.5 L75,7.5 L75,3.15107375 C75,2.23913767 74.2615866,1.5 73.3505441,1.5 L2.64845804,1.5 C1.73741555,1.5 1,2.23913767 1,3.15107375 L1,7.5 Z"/>
      <path fill="#264C6D" fill-rule="nonzero" d="M1,8.5 C0.44771525,8.5 0,8.05228475 0,7.5 L0,3.15107375 C0,1.68706844 1.18491412,0.5 2.64845804,0.5 L73.3505441,0.5 C74.8140909,0.5 76,1.68707226 76,3.15107375 L76,7.5 C76,8.05228475 75.5522847,8.5 75,8.5 L1,8.5 Z M74,6.5 L74,3.15107375 C74,2.79120308 73.7090823,2.5 73.3505441,2.5 L2.64845804,2.5 C2.2902977,2.5 2,2.7908255 2,3.15107375 L2,6.5 L74,6.5 Z"/>
      <path fill="#264C6D" fill-rule="nonzero" d="M5 5.5L5.966 5.5C6.51828475 5.5 6.966 5.05228475 6.966 4.5 6.966 3.94771525 6.51828475 3.5 5.966 3.5L5 3.5C4.44771525 3.5 4 3.94771525 4 4.5 4 5.05228475 4.44771525 5.5 5 5.5zM10 5.5L10.966 5.5C11.5182847 5.5 11.966 5.05228475 11.966 4.5 11.966 3.94771525 11.5182847 3.5 10.966 3.5L10 3.5C9.44771525 3.5 9 3.94771525 9 4.5 9 5.05228475 9.44771525 5.5 10 5.5zM15 5.5L15.965 5.5C16.5172847 5.5 16.965 5.05228475 16.965 4.5 16.965 3.94771525 16.5172847 3.5 15.965 3.5L15 3.5C14.4477153 3.5 14 3.94771525 14 4.5 14 5.05228475 14.4477153 5.5 15 5.5z"/>
    </g>
    <path fill="#FFF" d="M15,199 L20,196 C20.5531147,196.150651 20.7866548,195.796577 21,195 C20.7866548,195.141915 20.6790327,194.889463 20,195 C19.3649658,193.61223 18.6126868,191.682475 19,190 C18.6126868,186.732929 20.3529375,185 22,185 C24.6470625,185 26.3883895,186.732929 26,190 C26.3883895,191.682475 25.6361104,193.61223 25,195 C24.3209673,194.889463 24.2133452,195.141915 24,195 C24.2133452,195.796577 24.4468853,196.150651 25,196 L30,199 C30.800899,198.87627 31,199.177928 31,200 L31,202 C31,202.624532 30.6233224,203 30,203 L22,203 L15,203 C14.3766776,203 14,202.624532 14,202 L14,200 C14,199.177928 14.199101,198.87627 15,199"/>
    <path fill="#264C6D" fill-rule="nonzero" d="M30 200.000002C29.819707 200.000002 29.6417309 199.951229 29.4855042 199.857493L24.7965737 197.044135C23.8672338 197.095647 23.3422687 196.40954 23.0340448 195.258709 22.8313608 194.501938 23.5167495 193.874401 24.1982312 194.016601 24.2491803 194.006694 24.3001636 193.998283 24.3515899 193.991465 25.0049374 192.439282 25.2574557 191.229203 25.0256248 190.224929 24.9996789 190.112533 24.9933751 189.996496 25.0069922 189.881951 25.3096242 187.336259 24.1701649 186 22 186 20.7503999 186 19.708279 187.480202 19.9930461 189.882274 20.0065891 189.996512 20.000319 190.112231 19.9745116 190.224337 19.7433134 191.228654 19.9956426 192.43764 20.6488394 193.991522 20.7001202 193.99833 20.7509615 194.006721 20.8017688 194.016601 21.4832505 193.874401 22.1686392 194.501938 21.9659552 195.258709 21.6577313 196.40954 21.1327662 197.095647 20.2034263 197.044135L15.5144958 199.857493C15.3582691 199.951229 15.180293 200.000002 15 200.000002L15 202 30 202 30 200.000002zM24.3198527 194.066395C24.3218343 194.061745 24.3238124 194.057098 24.3257869 194.052455 24.40293 194.07989 24.4792994 194.117824 24.5535784 194.167203 24.4876565 194.123398 24.4082959 194.087842 24.3198527 194.066395 24.3218343 194.061745 24.3238124 194.057098 24.3257869 194.052455L24.3198527 194.066395zM20.6745348 194.05234C20.5973359 194.079766 20.5209099 194.117703 20.4465763 194.1671 20.5125564 194.123285 20.5919737 194.087737 20.6804756 194.066315 20.6784918 194.061654 20.6765115 194.056996 20.6745348 194.05234 20.5973359 194.079766 20.5209099 194.117703 20.4465763 194.1671 20.5125564 194.123285 20.5919737 194.087737 20.6804756 194.066315 20.6784918 194.061654 20.6765115 194.056996 20.6745348 194.05234zM20.6804756 194.066315C20.7521621 194.234764 20.8284778 194.407234 20.9093195 194.583901L20 195 19.8393294 194.012992C20.1487013 193.962631 20.4037885 193.95899 20.6488394 193.991522 20.6573367 194.011736 20.665902 194.032009 20.6745348 194.05234 20.7167867 194.03733 20.7592701 194.025468 20.8017688 194.016601L20.6804756 194.066315zM19.077521 195.387297C18.1044711 193.254396 17.668519 191.576101 17.9885859 189.94859 17.6518866 186.534033 19.4767635 184 22 184 25.3358434 184 27.3720549 186.328149 27.0115157 189.948672 27.3324042 191.576661 26.8959052 193.257062 25.922496 195.387307L30.2360551 197.975443C31.4109115 197.944188 32 198.706387 32 200L32 202C32 203.176574 31.1758501 204 30 204L15 204C13.8241499 204 13 203.176574 13 202L13 200C13 198.706387 13.5890885 197.944188 14.7639449 197.975443L19.077521 195.387297zM14 189L3 189C2.44771525 189 2 189.447715 2 190 2 190.552285 2.44771525 191 3 191L14 191C14.5522847 191 15 190.552285 15 190 15 189.447715 14.5522847 189 14 189zM12 194L8 194C7.44771525 194 7 194.447715 7 195 7 195.552285 7.44771525 196 8 196L12 196C12.5522847 196 13 195.552285 13 195 13 194.447715 12.5522847 194 12 194z"/>
    <g opacity=".1" transform="translate(103 137)">
      <path fill="#D9F6FA" d="M1,6.9421875 L1,56.0478895 C1,57.48156 2.16213111,58.6429687 3.59578819,58.6429687 L65.5236192,58.6429687 C66.9581814,58.6429687 68.1203125,57.48156 68.1203125,56.0478895 L68.1203125,6.9421875"/>
      <path fill="#264C6D" fill-rule="nonzero" d="M-5.68434189e-14,6.9421875 L-5.68434189e-14,56.0478895 C-5.68434189e-14,58.0337901 1.60979171,59.6429687 3.59578819,59.6429687 L65.5236192,59.6429687 C67.510327,59.6429687 69.1203125,58.033984 69.1203125,56.0478895 L69.1203125,6.9421875 C69.1203125,6.38990275 68.6725972,5.9421875 68.1203125,5.9421875 C67.5680278,5.9421875 67.1203125,6.38990275 67.1203125,6.9421875 L67.1203125,56.0478895 C67.1203125,56.929136 66.4060358,57.6429687 65.5236192,57.6429687 L3.59578819,57.6429687 C2.71419069,57.6429687 2,56.9290501 2,56.0478895 L2,6.9421875 C2,6.38990275 1.55228475,5.9421875 1,5.9421875 C0.44771525,5.9421875 -5.68434189e-14,6.38990275 -5.68434189e-14,6.9421875 Z"/>
      <path fill="#D9F6FA" d="M1,6.9421875 L58.2612049,6.9421875 L68.1203125,6.9421875 L68.1203125,2.99757548 C68.1203125,2.17042097 67.4505485,1.5 66.6242045,1.5 L2.49520296,1.5 C1.66885895,1.5 1,2.17042097 1,2.99757548 L1,6.9421875 Z"/>
      <path fill="#264C6D" fill-rule="nonzero" d="M1,7.9421875 C0.44771525,7.9421875 -5.68434189e-14,7.49447225 -5.68434189e-14,6.9421875 L-5.68434189e-14,2.99757548 C-5.68434189e-14,1.61836947 1.11633982,0.5 2.49520296,0.5 L66.6242045,0.5 C68.0030528,0.5 69.1203125,1.61835556 69.1203125,2.99757548 L69.1203125,6.9421875 C69.1203125,7.49447225 68.6725972,7.9421875 68.1203125,7.9421875 L1,7.9421875 Z M67.1203125,5.9421875 L67.1203125,2.99757548 C67.1203125,2.72248638 66.8980441,2.5 66.6242045,2.5 L2.49520296,2.5 C2.2217234,2.5 2,2.72212652 2,2.99757548 L2,5.9421875 L67.1203125,5.9421875 Z"/>
      <path fill="#264C6D" fill-rule="nonzero" d="M4.628125 5.22109375L5.50431719 5.22109375C6.05660194 5.22109375 6.50431719 4.7733785 6.50431719 4.22109375 6.50431719 3.668809 6.05660194 3.22109375 5.50431719 3.22109375L4.628125 3.22109375C4.07584025 3.22109375 3.628125 3.668809 3.628125 4.22109375 3.628125 4.7733785 4.07584025 5.22109375 4.628125 5.22109375zM9.16328125 5.22109375L10.0394734 5.22109375C10.5917582 5.22109375 11.0394734 4.7733785 11.0394734 4.22109375 11.0394734 3.668809 10.5917582 3.22109375 10.0394734 3.22109375L9.16328125 3.22109375C8.6109965 3.22109375 8.16328125 3.668809 8.16328125 4.22109375 8.16328125 4.7733785 8.6109965 5.22109375 9.16328125 5.22109375zM13.6984375 5.22109375L14.5737227 5.22109375C15.1260074 5.22109375 15.5737227 4.7733785 15.5737227 4.22109375 15.5737227 3.668809 15.1260074 3.22109375 14.5737227 3.22109375L13.6984375 3.22109375C13.1461528 3.22109375 12.6984375 3.668809 12.6984375 4.22109375 12.6984375 4.7733785 13.1461528 5.22109375 13.6984375 5.22109375z"/>
    </g>
    <g opacity=".1" transform="translate(0 99)">
      <path fill="#D9F6FA" d="M1,6.50821148 L1,50.6712885 C1,51.9606561 2.0451594,53.0051658 3.33451491,53.0051658 L59.0291381,53.0051658 C60.3193076,53.0051658 61.364467,51.9606561 61.364467,50.6712885 L61.364467,6.50821148"/>
      <path fill="#264C6D" fill-rule="nonzero" d="M-5.68434189e-14,6.50821148 L-5.68434189e-14,50.6712885 C-5.68434189e-14,52.5129003 1.49283407,54.0051658 3.33451491,54.0051658 L59.0291381,54.0051658 C60.8714533,54.0051658 62.364467,52.51308 62.364467,50.6712885 L62.364467,6.50821148 C62.364467,5.95592673 61.9167518,5.50821148 61.364467,5.50821148 C60.8121823,5.50821148 60.364467,5.95592673 60.364467,6.50821148 L60.364467,50.6712885 C60.364467,51.4082321 59.767162,52.0051658 59.0291381,52.0051658 L3.33451491,52.0051658 C2.59723306,52.0051658 2,51.4081602 2,50.6712885 L2,6.50821148 C2,5.95592673 1.55228475,5.50821148 1,5.50821148 C0.44771525,5.50821148 -5.68434189e-14,5.95592673 -5.68434189e-14,6.50821148 Z"/>
      <path fill="#D9F6FA" d="M1,6.50821148 L52.4977059,6.50821148 L61.364467,6.50821148 L61.364467,2.96063559 C61.364467,2.21673647 60.7621166,1.61379523 60.0189464,1.61379523 L2.34470664,1.61379523 C1.60153644,1.61379523 1,2.21673647 1,2.96063559 L1,6.50821148 Z"/>
      <path fill="#264C6D" fill-rule="nonzero" d="M1,7.50821148 C0.44771525,7.50821148 -5.68434189e-14,7.06049623 -5.68434189e-14,6.50821148 L-5.68434189e-14,2.96063559 C-5.68434189e-14,1.66470238 1.04899993,0.61379523 2.34470664,0.61379523 L60.0189464,0.61379523 C61.3146209,0.61379523 62.364467,1.66467106 62.364467,2.96063559 L62.364467,6.50821148 C62.364467,7.06049623 61.9167518,7.50821148 61.364467,7.50821148 L1,7.50821148 Z M60.364467,5.50821148 L60.364467,2.96063559 C60.364467,2.76880188 60.2096123,2.61379523 60.0189464,2.61379523 L2.34470664,2.61379523 C2.15438351,2.61379523 2,2.76845943 2,2.96063559 L2,5.50821148 L60.364467,5.50821148 Z"/>
      <path fill="#264C6D" fill-rule="nonzero" d="M4.26294416 5.06100335L5.05094518 5.06100335C5.60322993 5.06100335 6.05094518 4.6132881 6.05094518 4.06100335 6.05094518 3.5087186 5.60322993 3.06100335 5.05094518 3.06100335L4.26294416 3.06100335C3.71065941 3.06100335 3.26294416 3.5087186 3.26294416 4.06100335 3.26294416 4.6132881 3.71065941 5.06100335 4.26294416 5.06100335zM8.34162437 5.06100335L9.12962539 5.06100335C9.68191014 5.06100335 10.1296254 4.6132881 10.1296254 4.06100335 10.1296254 3.5087186 9.68191014 3.06100335 9.12962539 3.06100335L8.34162437 3.06100335C7.78933962 3.06100335 7.34162437 3.5087186 7.34162437 4.06100335 7.34162437 4.6132881 7.78933962 5.06100335 8.34162437 5.06100335zM12.4203046 5.06100335L13.2074899 5.06100335C13.7597746 5.06100335 14.2074899 4.6132881 14.2074899 4.06100335 14.2074899 3.5087186 13.7597746 3.06100335 13.2074899 3.06100335L12.4203046 3.06100335C11.8680198 3.06100335 11.4203046 3.5087186 11.4203046 4.06100335 11.4203046 4.6132881 11.8680198 5.06100335 12.4203046 5.06100335z"/>
    </g>
    <g opacity=".1" transform="translate(46 42)">
      <path fill="#D9F6FA" d="M1.87904331,8.74892605 L1.87904331,78.6686877 C1.87904331,80.7100372 3.53375808,82.3637235 5.57508846,82.3637235 L93.7517974,82.3637235 C95.7944164,82.3637235 97.4491312,80.7100372 97.4491312,78.6686877 L97.4491312,8.74892605"/>
      <path fill="#264C6D" fill-rule="nonzero" d="M0.879043311,8.74892605 L0.879043311,78.6686877 C0.879043311,81.2622081 2.98135937,83.3637235 5.57508846,83.3637235 L93.7517974,83.3637235 C96.3465621,83.3637235 98.4491312,81.2624612 98.4491312,78.6686877 L98.4491312,8.74892605 C98.4491312,8.1966413 98.001416,7.74892605 97.4491312,7.74892605 C96.8968465,7.74892605 96.4491312,8.1966413 96.4491312,8.74892605 L96.4491312,78.6686877 C96.4491312,80.1576132 95.2422708,81.3637235 93.7517974,81.3637235 L5.57508846,81.3637235 C4.08575836,81.3637235 2.87904331,80.157468 2.87904331,78.6686877 L2.87904331,8.74892605 C2.87904331,8.1966413 2.43132806,7.74892605 1.87904331,7.74892605 C1.32675856,7.74892605 0.879043311,8.1966413 0.879043311,8.74892605 Z"/>
      <path fill="#D9F6FA" d="M1.87904331,8.74892605 L83.4111187,8.74892605 L97.4491312,8.74892605 L97.4491312,3.13234139 C97.4491312,1.95458719 96.4954794,1 95.3188793,1 L4.00800656,1 C2.83140641,1 1.87904331,1.95458719 1.87904331,3.13234139 L1.87904331,8.74892605 Z"/>
      <path fill="#264C6D" fill-rule="nonzero" d="M1.87904331,9.74892605 C1.32675856,9.74892605 0.879043311,9.3012108 0.879043311,8.74892605 L0.879043311,3.13234139 C0.879043311,1.40246238 2.27896046,0 4.00800656,0 L95.3188793,0 C97.0479837,0 98.4491312,1.40252179 98.4491312,3.13234139 L98.4491312,8.74892605 C98.4491312,9.3012108 98.001416,9.74892605 97.4491312,9.74892605 L1.87904331,9.74892605 Z M96.4491312,7.74892605 L96.4491312,3.13234139 C96.4491312,2.5066526 95.9429751,2 95.3188793,2 L4.00800656,2 C3.38434404,2 2.87904331,2.50621943 2.87904331,3.13234139 L2.87904331,7.74892605 L96.4491312,7.74892605 Z"/>
      <path fill="#264C6D" fill-rule="nonzero" d="M7.04499401 5.87446302L8.2925711 5.87446302C8.84485585 5.87446302 9.2925711 5.42674777 9.2925711 4.87446302 9.2925711 4.32217827 8.84485585 3.87446302 8.2925711 3.87446302L7.04499401 3.87446302C6.49270926 3.87446302 6.04499401 4.32217827 6.04499401 4.87446302 6.04499401 5.42674777 6.49270926 5.87446302 7.04499401 5.87446302zM13.5024324 5.87446302L14.7500095 5.87446302C15.3022942 5.87446302 15.7500095 5.42674777 15.7500095 4.87446302 15.7500095 4.32217827 15.3022942 3.87446302 14.7500095 3.87446302L13.5024324 3.87446302C12.9501476 3.87446302 12.5024324 4.32217827 12.5024324 4.87446302 12.5024324 5.42674777 12.9501476 5.87446302 13.5024324 5.87446302zM19.9598708 5.87446302L21.2061564 5.87446302C21.7584411 5.87446302 22.2061564 5.42674777 22.2061564 4.87446302 22.2061564 4.32217827 21.7584411 3.87446302 21.2061564 3.87446302L19.9598708 3.87446302C19.407586 3.87446302 18.9598708 4.32217827 18.9598708 4.87446302 18.9598708 5.42674777 19.407586 5.87446302 19.9598708 5.87446302z"/>
    </g>
    <path fill="#00B6D7" fill-rule="nonzero" d="M158.12659,105.923435 L156.12659,105.923435 C155.574305,105.923435 155.12659,106.37115 155.12659,106.923435 C155.12659,107.47572 155.574305,107.923435 156.12659,107.923435 L158.12659,107.923435 C158.678875,107.923435 159.12659,107.47572 159.12659,106.923435 C159.12659,106.37115 158.678875,105.923435 158.12659,105.923435 Z M150.12659,105.923435 L148.12659,105.923435 C147.574305,105.923435 147.12659,106.37115 147.12659,106.923435 C147.12659,107.47572 147.574305,107.923435 148.12659,107.923435 L150.12659,107.923435 C150.678875,107.923435 151.12659,107.47572 151.12659,106.923435 C151.12659,106.37115 150.678875,105.923435 150.12659,105.923435 Z M142.12659,105.923435 L140.12659,105.923435 C139.574305,105.923435 139.12659,106.37115 139.12659,106.923435 C139.12659,107.47572 139.574305,107.923435 140.12659,107.923435 L142.12659,107.923435 C142.678875,107.923435 143.12659,107.47572 143.12659,106.923435 C143.12659,106.37115 142.678875,105.923435 142.12659,105.923435 Z M134.12659,105.923435 L132.12659,105.923435 C131.574305,105.923435 131.12659,106.37115 131.12659,106.923435 C131.12659,107.47572 131.574305,107.923435 132.12659,107.923435 L134.12659,107.923435 C134.678875,107.923435 135.12659,107.47572 135.12659,106.923435 C135.12659,106.37115 134.678875,105.923435 134.12659,105.923435 Z"/>
    <path fill="#FFF" d="M92,81 L100,77 C100.637237,76.7254136 100.980275,76.1960871 101,76 C100.980275,75.213518 100.822692,74.8352723 101,75 C98.8888127,72.9190451 97.7835856,70.0235095 98,67 C97.7835856,62.5988084 100.342438,60 104,60 C106.657562,60 109.216414,62.5988084 109,67 C109.216414,70.0235095 108.111187,72.9190451 106,75 C106.177308,74.8352723 106.019725,75.213518 106,76 C106.019725,76.1960871 106.363835,76.7254136 107,77 L115,81 C115.706273,80.8154664 116,81.2676221 116,82 L116,86 C116,86.4380661 115.445778,87 115,87 L104,87 L92,87 C91.5542215,87 91,86.4380661 91,86 L91,82 C91,81.2676221 91.2937267,80.8154664 92,81"/>
    <path fill="#264C6D" fill-rule="nonzero" d="M100.319361 75.7326193C100.349457 75.7613193 100.349457 75.7613193 100.463888 75.8369215 100.670846 75.9557892 100.670846 75.9557892 101.237565 75.9158494 101.778881 75.5671748 101.778881 75.5671748 101.882026 75.2566698 101.917646 75.0793426 101.917646 75.0793426 101.916624 75.02029 101.91657 75.0022844 101.948735 75.2691685 101.953128 75.3085293 101.953721 75.3138462 101.954309 75.3191571 101.954893 75.3244625 101.730763 75.9216915 100.94261 76.3116471 100.319361 75.7326193zM105.046872 75.3085293C105.051265 75.2691685 105.08343 75.0022844 105.083376 75.02029 105.082354 75.0793426 105.082354 75.0793426 105.117974 75.2566698 105.221119 75.5671748 105.221119 75.5671748 105.762435 75.9158494 106.329154 75.9557892 106.329154 75.9557892 106.536112 75.8369215 106.650543 75.7613193 106.650543 75.7613193 106.680639 75.7326193 106.05739 76.3116471 105.269237 75.9216915 105.045107 75.3244625 105.045691 75.3191571 105.046279 75.3138462 105.046872 75.3085293zM101.999686 75.9749282L101.994979 76.1000865C101.927173 76.7741528 101.242927 77.5533083 100.447214 77.8944272L92.4472136 81.8944272C92.3073196 81.9643742 92.1541042 81.9999983 92.0000002 82.0000012L92 86 115 86 115 82.0000012C114.845896 81.9999983 114.69268 81.9643742 114.552786 81.8944272L106.603711 77.918126C105.757591 77.552917 105.072786 76.7737468 105.005021 76.1000865L105.000314 75.9749282C105.005992 75.7485598 105.021286 75.5411609 105.045107 75.3244625 104.923108 74.9993764 104.968223 74.6128776 105.298011 74.2878123 107.212088 72.4011451 108.196946 69.7872675 108.002552 67.0713946L108.001207 66.9508876C108.176368 63.3886484 106.29536 61 104 61 100.808596 61 98.8160589 63.2346434 98.9987933 66.9508876L98.9974482 67.0713946C98.8030535 69.7872675 99.787912 72.4011451 101.701989 74.2878123 102.031777 74.6128776 102.076892 74.9993764 101.954893 75.3244625 101.978714 75.5411609 101.994008 75.7485598 101.999686 75.9749282zM99.6042736 76.0816316C99.7541958 76.0170298 99.8846938 75.9194318 99.9801792 75.8107019 99.9839192 75.7108826 99.9757562 75.6225419 99.9654688 75.5303666 99.9597528 75.479152 99.9535293 75.4278382 99.9434545 75.3465126 97.8594854 73.0972922 96.7924228 70.0951665 96.9984 66.9888264 96.7876913 62.1929961 99.6528652 59 104 59 107.516746 59 110.202892 62.3916459 110.001597 66.9887861 110.207586 70.0951405 109.140524 73.0972824 107.056546 75.3465126 107.046471 75.4278382 107.040247 75.479152 107.034531 75.5303666 107.02426 75.6223978 107.016106 75.7106064 107.010123 75.7991965 107.115753 75.9193962 107.246502 76.0172218 107.447214 76.1055728L115.158047 79.9609896C116.311437 79.866914 117 80.7657327 117 82L117 86C117 86.9917269 115.996705 88 115 88L92 88C91.0032945 88 90 86.9917269 90 86L90 82C90 80.765693 90.6886072 79.8668561 91.8420641 79.9609987L99.6042736 76.0816316zM91 66L73 66C72.4477153 66 72 66.4477153 72 67 72 67.5522847 72.4477153 68 73 68L91 68C91.5522847 68 92 67.5522847 92 67 92 66.4477153 91.5522847 66 91 66zM90 71L81 71C80.4477153 71 80 71.4477153 80 72 80 72.5522847 80.4477153 73 81 73L90 73C90.5522847 73 91 72.5522847 91 72 91 71.4477153 90.5522847 71 90 71z"/>
    <path fill="#FFF" d="M181,168 L186,165 C186.553115,165.150244 186.786655,164.797219 187,164 C186.786655,164.142518 186.679033,163.890051 186,164 C185.36389,162.612742 184.612687,160.681802 185,159 C184.612687,155.731962 186.352937,154 188,154 C190.647063,154 192.387313,155.731962 192,159 C192.387313,160.681802 191.635034,162.612742 191,164 C190.320967,163.890051 190.213345,164.142518 190,164 C190.213345,164.797219 190.446885,165.150244 191,165 L196,168 C196.800899,167.876025 197,168.177701 197,169 L197,171 C197,171.625579 196.623322,172 196,172 L188,172 L181,172 C180.376678,172 180,171.625579 180,171 L180,169 C180,168.177701 180.199101,167.876025 181,168"/>
    <path fill="#264C6D" fill-rule="nonzero" d="M196 169.000002C195.819709 169.000002 195.641732 168.95123 195.485504 168.857493L190.796298 166.043969C189.86702 166.095068 189.341956 165.409297 189.033993 164.258515 188.831318 163.501168 189.517785 162.873764 190.199373 163.016814 190.249767 163.007028 190.300194 162.998704 190.351052 162.991935 191.00402 161.43888 191.25671 160.228355 191.025508 159.224422 190.999687 159.112301 190.993409 158.996565 191.00695 158.882308 191.308798 156.335403 190.170119 155 188 155 186.750104 155 185.708287 156.479558 185.99305 158.882308 186.006591 158.996565 186.000313 159.112301 185.974492 159.224422 185.743173 160.228863 185.996233 161.441911 186.648563 162.991884 186.699551 162.998662 186.750106 163.007003 186.800627 163.016814 187.482215 162.873764 188.168682 163.501168 187.966007 164.258515 187.658044 165.409297 187.13298 166.095068 186.203702 166.043969L181.514496 168.857493C181.358268 168.95123 181.180291 169.000002 181 169.000002L181 171 196 171 196 169.000002zM190.319496 163.066524C190.321511 163.061791 190.323522 163.057061 190.325529 163.052334 190.403333 163.079981 190.480343 163.118309 190.555207 163.168288 190.488881 163.124027 190.408839 163.08809 190.319496 163.066524 190.321511 163.061791 190.323522 163.057061 190.325529 163.052334L190.319496 163.066524zM185.0775 164.387309C184.105565 162.260993 183.668452 160.576576 183.988587 158.948562 183.651902 155.53335 185.476548 153 188 153 191.335851 153 193.371048 155.32723 193.011455 158.948756 193.331436 160.575937 192.895052 162.256188 191.922483 164.387299L196.23593 166.975368C197.410862 166.943843 198 167.706166 198 169L198 171C198 172.177412 197.176061 173 196 173L181 173C179.823939 173 179 172.177412 179 171L179 169C179 167.706166 179.589138 166.943843 180.76407 166.975368L185.0775 164.387309zM180 158L167 158C166.447715 158 166 158.447715 166 159 166 159.552285 166.447715 160 167 160L180 160C180.552285 160 181 159.552285 181 159 181 158.447715 180.552285 158 180 158zM178 163L172 163C171.447715 163 171 163.447715 171 164 171 164.552285 171.447715 165 172 165L178 165C178.552285 165 179 164.552285 179 164 179 163.447715 178.552285 163 178 163z"/>
    <path fill="#00B6D7" fill-rule="nonzero" d="M403.294089,232.358743 L405.294089,232.358743 C405.846374,232.358743 406.294089,231.911027 406.294089,231.358743 C406.294089,230.806458 405.846374,230.358743 405.294089,230.358743 L403.294089,230.358743 C402.741805,230.358743 402.294089,230.806458 402.294089,231.358743 C402.294089,231.911027 402.741805,232.358743 403.294089,232.358743 Z M411.294089,232.358743 L413.294089,232.358743 C413.846374,232.358743 414.294089,231.911027 414.294089,231.358743 C414.294089,230.806458 413.846374,230.358743 413.294089,230.358743 L411.294089,230.358743 C410.741805,230.358743 410.294089,230.806458 410.294089,231.358743 C410.294089,231.911027 410.741805,232.358743 411.294089,232.358743 Z M419.294089,232.358743 L421.294089,232.358743 C421.846374,232.358743 422.294089,231.911027 422.294089,231.358743 C422.294089,230.806458 421.846374,230.358743 421.294089,230.358743 L419.294089,230.358743 C418.741805,230.358743 418.294089,230.806458 418.294089,231.358743 C418.294089,231.911027 418.741805,232.358743 419.294089,232.358743 Z M427.294089,232.358743 L429.294089,232.358743 C429.846374,232.358743 430.294089,231.911027 430.294089,231.358743 C430.294089,230.806458 429.846374,230.358743 429.294089,230.358743 L427.294089,230.358743 C426.741805,230.358743 426.294089,230.806458 426.294089,231.358743 C426.294089,231.911027 426.741805,232.358743 427.294089,232.358743 Z M435.294089,232.358743 L437.294089,232.358743 C437.846374,232.358743 438.294089,231.911027 438.294089,231.358743 C438.294089,230.806458 437.846374,230.358743 437.294089,230.358743 L435.294089,230.358743 C434.741805,230.358743 434.294089,230.806458 434.294089,231.358743 C434.294089,231.911027 434.741805,232.358743 435.294089,232.358743 Z"/>
    <path fill="#D9F6FA" d="M280.5,196 L280.5,73.5126204 C280.5,68.2595592 284.758429,64 290.012502,64 L485.987498,64 C491.240494,64 495.5,68.2595592 495.5,73.5126204 L495.5,196"/>
    <path fill="#264C6D" fill-rule="nonzero" d="M281.5,195 L281.5,73.5126204 C281.5,68.8114515 285.311106,65 290.012502,65 L485.987498,65 C490.688206,65 494.5,68.8118411 494.5,73.5126204 L494.5,195 C494.5,195.552285 494.947715,196 495.5,196 C496.052285,196 496.5,195.552285 496.5,195 L496.5,73.5126204 C496.5,67.7072772 491.792781,63 485.987498,63 L290.012502,63 C284.206496,63 279.5,67.7069226 279.5,73.5126204 L279.5,195 C279.5,195.552285 279.947715,196 280.5,196 C281.052285,196 281.5,195.552285 281.5,195 Z"/>
    <path fill="#FFF" d="M481.5,51 L294.5,51 L294.5,176 C294.5,178.135341 296.366634,180 298.5,180 L477.5,180 C479.634441,180 481.5,178.135341 481.5,176 L481.5,51 Z"/>
    <path fill="#264C6D" fill-rule="nonzero" d="M481.5,50 C482.052285,50 482.5,50.4477153 482.5,51 L482.5,176 C482.5,178.687353 480.186998,181 477.5,181 L298.5,181 C295.813751,181 293.5,178.687028 293.5,176 L293.5,51 C293.5,50.4477153 293.947715,50 294.5,50 L481.5,50 Z M295.5,52 L295.5,176 C295.5,177.582307 296.91817,179 298.5,179 L477.5,179 C479.082497,179 480.5,177.582715 480.5,176 L480.5,52 L295.5,52 Z"/>
    <path fill="#D9F6FA" d="M294.5,51 L454.5,51 L481.5,51 L481.5,40 C481.5,37.8473169 479.633366,36 477.5,36 L298.5,36 C296.365559,36 294.5,37.8473169 294.5,40 L294.5,51 Z"/>
    <path fill="#264C6D" fill-rule="nonzero" d="M294.5,52 C293.947715,52 293.5,51.5522847 293.5,51 L293.5,40 C293.5,37.3005538 295.807731,35 298.5,35 L477.5,35 C480.191521,35 482.5,37.300878 482.5,40 L482.5,51 C482.5,51.5522847 482.052285,52 481.5,52 L294.5,52 Z M480.5,50 L480.5,40 C480.5,38.4069269 479.088425,37 477.5,37 L298.5,37 C296.910908,37 295.5,38.4065203 295.5,40 L295.5,50 L480.5,50 Z"/>
    <path fill="#FFF" d="M306.5,44 C306.5,41.5669502 304.93305,40 302.5,40 C301.06695,40 299.5,41.5669502 299.5,44 C299.5,45.4330498 301.06695,47 302.5,47 C304.93305,47 306.5,45.4330498 306.5,44"/>
    <path fill="#264C6D" fill-rule="nonzero" d="M307.5,44 C307.5,46.1746191 305.274925,48 302.5,48 C300.514665,48 298.5,45.9853345 298.5,44 C298.5,41.2250746 300.325381,39 302.5,39 C305.485335,39 307.5,41.0146655 307.5,44 Z M305.5,44 C305.5,42.119235 304.380765,41 302.5,41 C301.527046,41 300.5,42.2519324 300.5,44 C300.5,44.880765 301.619235,46 302.5,46 C304.248068,46 305.5,44.9729542 305.5,44 Z"/>
    <path fill="#FFF" d="M319.5,44 C319.5,41.5669502 317.93305,40 316.5,40 C314.06695,40 312.5,41.5669502 312.5,44 C312.5,45.4330498 314.06695,47 316.5,47 C317.93305,47 319.5,45.4330498 319.5,44"/>
    <path fill="#264C6D" fill-rule="nonzero" d="M320.5,44 C320.5,45.9853345 318.485335,48 316.5,48 C313.725075,48 311.5,46.1746191 311.5,44 C311.5,41.0146655 313.514665,39 316.5,39 C318.674619,39 320.5,41.2250746 320.5,44 Z M318.5,44 C318.5,42.2519324 317.472954,41 316.5,41 C314.619235,41 313.5,42.119235 313.5,44 C313.5,44.9729542 314.751932,46 316.5,46 C317.380765,46 318.5,44.880765 318.5,44 Z"/>
    <path fill="#FFF" d="M331.5,44 C331.5,41.5669502 329.93305,40 328.5,40 C326.06695,40 324.5,41.5669502 324.5,44 C324.5,45.4330498 326.06695,47 328.5,47 C329.93305,47 331.5,45.4330498 331.5,44"/>
    <path fill="#264C6D" fill-rule="nonzero" d="M332.5 44C332.5 45.9853345 330.485335 48 328.5 48 325.725075 48 323.5 46.1746191 323.5 44 323.5 41.0146655 325.514665 39 328.5 39 330.674619 39 332.5 41.2250746 332.5 44zM330.5 44C330.5 42.2519324 329.472954 41 328.5 41 326.619235 41 325.5 42.119235 325.5 44 325.5 44.9729542 326.751932 46 328.5 46 329.380765 46 330.5 44.880765 330.5 44zM271.5 200C271.5 202.929091 273.570487 205 276.5 205L499.5 205C502.429513 205 504.5 202.929091 504.5 200L504.5 196 271.5 196 271.5 200zM499.5 207L276.5 207C272.465826 207 269.5 204.033569 269.5 200L269.5 195C269.5 194.447715 269.947715 194 270.5 194L505.5 194C506.052285 194 506.5 194.447715 506.5 195L506.5 200C506.5 204.033569 503.534174 207 499.5 207z"/>
    <path fill="#FFF" d="M404.5,1 C414.313413,1 420.5,7.18756766 420.5,17 L420.5,51 C420.5,60.8124323 414.313413,67 404.5,67 L370.5,67 C360.687669,67 354.5,60.8124323 354.5,51 L354.5,17 C354.5,7.18756766 360.687669,1 370.5,1 L404.5,1 Z"/>
    <path fill="#00B6D7" fill-rule="nonzero" d="M404.5,2 L370.5,2 C361.239916,2 355.5,7.73989002 355.5,17 L355.5,51 C355.5,60.26011 361.239916,66 370.5,66 L404.5,66 C413.760765,66 419.5,60.2605112 419.5,51 L419.5,17 C419.5,7.73948877 413.760765,2 404.5,2 Z M404.5,0 C414.865354,0 421.5,6.63493907 421.5,17 L421.5,51 C421.5,61.3650609 414.865354,68 404.5,68 L370.5,68 C360.135349,68 353.5,61.3646815 353.5,51 L353.5,17 C353.5,6.63531847 360.135349,0 370.5,0 L404.5,0 Z"/>
    <path fill="#00B6D7" d="M383.5,17 L383.5,15 L393.5,15 L393.5,17 L400.5,17 C403.462334,17.409144 405.5,19.4288439 405.5,22 L405.5,28 L399.5,28 L399.5,23 L377.5,23 L377.5,45 L399.5,45 L399.5,41 L405.5,41 L405.5,46 C405.5,48.7810231 403.370705,51.1263416 400.5,51 L393.5,51 L393.5,53 L383.5,53 L383.5,51 L376.5,51 C374.065626,51.1263416 371.5,48.581974 371.5,46 L371.5,22 C371.5,19.5186324 373.864914,17.409144 376.5,17 L383.5,17 Z"/>
    <path fill="#FFF" d="M370.5,109 L398.5,109"/>
    <path fill="#00B6D7" fill-rule="nonzero" d="M370.5,110 L398.5,110 C399.052285,110 399.5,109.552285 399.5,109 C399.5,108.447715 399.052285,108 398.5,108 L370.5,108 C369.947715,108 369.5,108.447715 369.5,109 C369.5,109.552285 369.947715,110 370.5,110 Z"/>
    <polyline fill="#FFF" points="399.5 114 405.5 108.5 399.5 103"/>
    <path fill="#00B6D7" fill-rule="nonzero" d="M398.824275,113.262846 C398.417156,113.636038 398.389653,114.268606 398.762846,114.675725 C399.136038,115.082844 399.768606,115.110347 400.175725,114.737154 L406.175725,109.237154 C406.608092,108.840818 406.608092,108.159182 406.175725,107.762846 L400.175725,102.262846 C399.768606,101.889653 399.136038,101.917156 398.762846,102.324275 C398.389653,102.731394 398.417156,103.363962 398.824275,103.737154 L404.020107,108.5 L398.824275,113.262846 Z"/>
    <path fill="#FFF" d="M404.5,123 L376.5,123"/>
    <path fill="#00B6D7" fill-rule="nonzero" d="M404.5,122 L376.5,122 C375.947715,122 375.5,122.447715 375.5,123 C375.5,123.552285 375.947715,124 376.5,124 L404.5,124 C405.052285,124 405.5,123.552285 405.5,123 C405.5,122.447715 405.052285,122 404.5,122 Z"/>
    <polyline fill="#FFF" points="376.5 117 370.5 122.5 376.5 128"/>
    <path fill="#00B6D7" fill-rule="nonzero" d="M377.175725,117.737154 C377.582844,117.363962 377.610347,116.731394 377.237154,116.324275 C376.863962,115.917156 376.231394,115.889653 375.824275,116.262846 L369.824275,121.762846 C369.391908,122.159182 369.391908,122.840818 369.824275,123.237154 L375.824275,128.737154 C376.231394,129.110347 376.863962,129.082844 377.237154,128.675725 C377.610347,128.268606 377.582844,127.636038 377.175725,127.262846 L371.979893,122.5 L377.175725,117.737154 Z"/>
    <path fill="#FFF" d="M405.5,184 C405.5,173.836367 397.664709,166 388.5,166 C378.335291,166 370.5,173.836367 370.5,184 C370.5,193.164709 378.335291,201 388.5,201 C397.664709,201 405.5,193.164709 405.5,184"/>
    <path fill="#00B6D7" fill-rule="nonzero" d="M407,184 C407,193.716994 398.716994,202 389,202 C378.44939,202 370,193.877658 370,184 C370,173.283717 378.283372,165 389,165 C398.877307,165 407,173.450107 407,184 Z M405,184 C405,174.537381 397.754669,167 389,167 C379.38796,167 372,174.388268 372,184 C372,192.755039 379.536682,200 389,200 C397.612424,200 405,192.612424 405,184 Z"/>
    <path fill="#00B6D7" fill-rule="nonzero" d="M392,188 C392,190.278783 390.251749,192 388,192 C385.747567,192 384,190.279193 384,188 C384,187.447715 383.552285,187 383,187 C382.447715,187 382,187.447715 382,188 C382,191.39073 384.649847,194 388,194 C391.349402,194 394,191.390389 394,188 C394,185.135807 391.42802,182.603225 388.177813,182.015936 C388.060246,181.994692 387.939824,181.994688 387.822255,182.015923 C385.789239,182.383128 384,180.868763 384,179 C384,176.720807 385.747567,175 388,175 C390.251749,175 392,176.721217 392,179 C392,179.552285 392.447715,180 393,180 C393.552285,180 394,179.552285 394,179 C394,175.609611 391.349402,173 388,173 C384.649847,173 382,175.60927 382,179 C382,182.047961 384.797423,184.476042 387.98397,184.015574 C390.271827,184.493542 392,186.23565 392,188 Z"/>
    <path fill="#00B6D7" fill-rule="nonzero" d="M389 173L389 170C389 169.447715 388.552285 169 388 169 387.447715 169 387 169.447715 387 170L387 173C387 173.552285 387.447715 174 388 174 388.552285 174 389 173.552285 389 173zM389 196L389 193C389 192.447715 388.552285 192 388 192 387.447715 192 387 192.447715 387 193L387 196C387 196.552285 387.447715 197 388 197 388.552285 197 389 196.552285 389 196z"/>
    <path fill="#FFF" d="M462.5,127 L448.5,121 C447.69527,120.637783 447.132793,119.793157 447.5,119 C447.132793,118.228996 447.392314,117.627067 447.5,117 C450.563033,114.574654 452.376424,109.963425 452.5,105 C452.376424,98.139735 448.178479,94 442.5,94 C437.821521,94 433.623576,98.139735 433.5,105 C433.623576,109.963425 435.438053,114.574654 438.5,117 C438.608772,117.627067 438.868293,118.228996 438.5,119 C438.868293,119.793157 438.30473,120.637783 437.5,121 L423.5,127 C422.981037,127.149954 422.5,127.870559 422.5,129 L422.5,135 C422.5,136.106194 423.407781,137 424.5,137 L442.5,137 L461.5,137 C462.592219,137 463.5,136.106194 463.5,135 L463.5,129 C463.5,127.870559 463.018963,127.149954 462.5,127"/>
    <path fill="#264C6D" fill-rule="nonzero" d="M464.5,129 L464.5,135 C464.5,136.654754 463.148257,138 461.5,138 L424.5,138 C422.851743,138 421.5,136.654754 421.5,135 L421.5,129 C421.5,127.583573 422.126843,126.400841 423.152397,126.061006 L437.089552,120.088116 C437.501481,119.902703 437.672304,119.591921 437.593009,119.42115 C437.467388,119.150613 437.469094,118.838121 437.597662,118.568971 C437.723483,118.30557 437.720534,118.133181 437.598021,117.578506 C434.501061,114.911867 432.629258,110.202957 432.500162,104.98199 C432.626781,97.9528572 436.944395,93 442.5,93 C448.900706,93 453.369846,97.7655908 453.49969,105.02489 C453.370721,110.204905 451.499685,114.911788 448.409483,117.54669 C448.280363,118.134131 448.277468,118.306787 448.402832,118.570007 C448.530748,118.838585 448.532446,119.150171 448.407465,119.420128 C448.328003,119.591763 448.498885,119.902868 448.893919,120.080855 L462.847609,126.061008 C463.87316,126.400846 464.5,127.583576 464.5,129 Z M437.893919,121.919145 L423.893919,127.919145 L423.777593,127.960699 C423.701309,127.982741 423.5,128.352537 423.5,129 L423.5,135 C423.5,135.548022 423.954161,136 424.5,136 L461.5,136 C462.045839,136 462.5,135.548022 462.5,135 L462.5,129 C462.5,128.352537 462.298691,127.982741 462.222407,127.960699 L462.106081,127.919145 L448.089552,121.911884 C446.9133,121.382442 446.168575,120.211678 446.436095,119.036127 C446.23945,118.449263 446.276354,117.935162 446.448762,117.15077 C446.492166,116.950566 446.5046,116.887971 446.514427,116.830748 C446.556133,116.587888 446.68604,116.368978 446.879227,116.21601 C449.627678,114.039753 451.381055,109.764974 451.500162,105.01801 C451.389184,98.8571442 447.77198,95 442.5,95 C438.109484,95 434.607941,99.0167188 434.49969,104.97511 C434.61892,109.763967 436.372842,114.039393 439.120908,116.216117 C439.313568,116.368721 439.443282,116.586931 439.485287,116.829091 C439.495227,116.886393 439.507762,116.949021 439.525579,117.031503 C439.724539,117.93307 439.761797,118.448234 439.564219,119.036311 C439.832025,120.211856 439.085033,121.383171 437.893919,121.919145 Z"/>
    <path fill="#FFF" d="M352.5,127 L338.5,121 C337.69527,120.637783 337.131707,119.793157 337.5,119 C337.131707,118.228996 337.391228,117.627067 337.5,117 C340.561947,114.574654 342.375338,109.963425 342.5,105 C342.375338,98.139735 338.178479,94 333.5,94 C327.821521,94 323.623576,98.139735 323.5,105 C323.623576,109.963425 325.436967,114.574654 328.5,117 C328.608772,117.627067 328.868293,118.228996 328.5,119 C328.868293,119.793157 328.303644,120.637783 327.5,121 L313.5,127 C312.981037,127.149954 312.5,127.870559 312.5,129 L312.5,135 C312.5,136.106194 313.407781,137 314.5,137 L333.5,137 L351.5,137 C352.592219,137 353.5,136.106194 353.5,135 L353.5,129 C353.5,127.870559 353.018963,127.149954 352.5,127"/>
    <path fill="#264C6D" fill-rule="nonzero" d="M354.5,129 L354.5,135 C354.5,136.654754 353.148257,138 351.5,138 L314.5,138 C312.851743,138 311.5,136.654754 311.5,135 L311.5,129 C311.5,127.583573 312.126843,126.400841 313.152398,126.061006 L327.089091,120.088324 C327.500894,119.902717 327.672093,119.591466 327.593009,119.42115 C327.467388,119.150613 327.469094,118.838121 327.597662,118.568971 C327.723483,118.30557 327.720534,118.133181 327.598021,117.578506 C324.50055,114.912344 322.629283,110.203954 322.500162,104.98199 C322.630154,97.7655908 327.099294,93 333.5,93 C339.055209,93 343.372099,97.9524338 343.499685,105.025108 C343.369576,110.205376 341.498348,114.912352 338.408919,117.547094 C338.279466,118.133181 338.276517,118.30557 338.402338,118.568971 C338.530906,118.838121 338.532612,119.150613 338.406991,119.42115 C338.327696,119.591921 338.498519,119.902703 338.893919,120.080855 L352.847609,126.061008 C353.87316,126.400846 354.5,127.583576 354.5,129 Z M327.893919,121.919145 L313.893919,127.919145 L313.777593,127.960699 C313.701309,127.982741 313.5,128.352537 313.5,129 L313.5,135 C313.5,135.548022 313.954161,136 314.5,136 L351.5,136 C352.045839,136 352.5,135.548022 352.5,135 L352.5,129 C352.5,128.352537 352.298691,127.982741 352.222407,127.960699 L352.106081,127.919145 L338.089552,121.911884 C336.913052,121.38233 336.16774,120.211735 336.435765,119.036262 C336.238205,118.448205 336.275466,117.933048 336.449049,117.147155 C336.492238,116.949021 336.504773,116.886393 336.514713,116.829091 C336.556718,116.586931 336.686432,116.368721 336.879092,116.216117 C339.626582,114.03985 341.380007,109.764952 341.500165,105.018169 C341.391103,99.0164038 337.890123,95 333.5,95 C328.22802,95 324.610816,98.8571442 324.49969,104.97511 C324.618945,109.764974 326.372322,114.039753 329.120773,116.21601 C329.313506,116.368618 329.443271,116.586873 329.485287,116.829091 C329.495227,116.886393 329.507762,116.949021 329.525579,117.031503 C329.724544,117.933093 329.761799,118.448264 329.564202,119.036363 C329.831772,120.211626 329.08456,121.382669 327.893919,121.919145 Z"/>
    <path fill="#00B6D7" fill-rule="nonzero" d="M263.690903,10 L265.690903,10 C266.243188,10 266.690903,9.55228475 266.690903,9 C266.690903,8.44771525 266.243188,8 265.690903,8 L263.690903,8 C263.138618,8 262.690903,8.44771525 262.690903,9 C262.690903,9.55228475 263.138618,10 263.690903,10 Z M271.690903,10 L273.690903,10 C274.243188,10 274.690903,9.55228475 274.690903,9 C274.690903,8.44771525 274.243188,8 273.690903,8 L271.690903,8 C271.138618,8 270.690903,8.44771525 270.690903,9 C270.690903,9.55228475 271.138618,10 271.690903,10 Z M279.690903,10 L281.690903,10 C282.243188,10 282.690903,9.55228475 282.690903,9 C282.690903,8.44771525 282.243188,8 281.690903,8 L279.690903,8 C279.138618,8 278.690903,8.44771525 278.690903,9 C278.690903,9.55228475 279.138618,10 279.690903,10 Z"/>
    <path fill="#00B1D3" fill-rule="nonzero" d="M500.050781,2.12890625 L500.050781,14.1289062 C500.050781,14.681191 500.498497,15.1289062 501.050781,15.1289062 C501.603066,15.1289062 502.050781,14.681191 502.050781,14.1289062 L502.050781,2.12890625 C502.050781,1.5766215 501.603066,1.12890625 501.050781,1.12890625 C500.498497,1.12890625 500.050781,1.5766215 500.050781,2.12890625 Z"/>
    <path fill="#00B1D3" fill-rule="nonzero" d="M495.050781,9.12890625 L507.050781,9.12890625 C507.603066,9.12890625 508.050781,8.681191 508.050781,8.12890625 C508.050781,7.5766215 507.603066,7.12890625 507.050781,7.12890625 L495.050781,7.12890625 C494.498497,7.12890625 494.050781,7.5766215 494.050781,8.12890625 C494.050781,8.681191 494.498497,9.12890625 495.050781,9.12890625 Z"/>
    <path fill="#374D6B" fill-rule="nonzero" d="M246.881047,69.8894137 L246.881047,77.5913368 C246.881047,78.1436215 247.328762,78.5913368 247.881047,78.5913368 C248.433332,78.5913368 248.881047,78.1436215 248.881047,77.5913368 L248.881047,69.8894137 C248.881047,69.3371289 248.433332,68.8894137 247.881047,68.8894137 C247.328762,68.8894137 246.881047,69.3371289 246.881047,69.8894137 Z"/>
    <path fill="#374D6B" fill-rule="nonzero" d="M244.030086,74.7403752 L251.732009,74.7403752 C252.284293,74.7403752 252.732009,74.29266 252.732009,73.7403752 C252.732009,73.1880905 252.284293,72.7403752 251.732009,72.7403752 L244.030086,72.7403752 C243.477801,72.7403752 243.030086,73.1880905 243.030086,73.7403752 C243.030086,74.29266 243.477801,74.7403752 244.030086,74.7403752 Z"/>
  </g>
</svg>
