<svg xmlns="http://www.w3.org/2000/svg" width="850" height="233" viewBox="0 0 850 233">
  <g fill="none" fill-rule="evenodd" transform="translate(1 1)">
    <g transform="translate(750 76)">
      <g transform="translate(12.903 .355)">
        <path fill="#264C6C" d="M77.0910968,46.4012811 C77.8265806,41.5582015 78.2459355,34.6256975 75.7104516,30.3372182 C73.0846452,25.8939668 68.9491613,22.9597441 62.2910968,22.1020483 C62.2910968,22.1020483 53.620129,15.0599139 42.8717419,13.8991225 C15.0910968,9.73317123 9.94916129,23.9593145 10.3491613,32.94255 C10.4588387,35.3479677 10.2846452,37.1471943 9.99432258,38.8561372 L9.87819355,38.862586 C9.8523871,38.8432395 9.82658065,38.823893 9.80077419,38.8109953 C9.27174194,38.5272463 8.3556129,38.1403158 7.23948387,38.1983554 L7.23948387,38.0887251 C3.56206452,16.4915566 20.787871,1.65277346 41.6523871,0.369454101 C62.7685161,-0.933211781 69.7556129,14.2086669 69.7556129,14.2086669 C69.7556129,14.2086669 75.4588387,13.5508851 80.9620645,19.7804655 C88.4781935,28.2929356 83.704,39.997582 78.9427097,47.7232935 L77.187871,46.9429838 L77.0136774,46.9171884 C77.0394839,46.7495185 77.0652903,46.5818487 77.0910968,46.40773 L77.0910968,46.4012811 Z"/>
        <path fill="#00B5D6" d="M62.2910968,47.4782376 L62.2910968,52.6373104 C62.2910968,53.8819367 61.2781935,54.8944047 60.0330323,54.8944047 C59.4136774,54.8944047 58.8459355,54.6428999 58.4394839,54.2301741 C58.0265806,53.8238971 57.7749677,53.2563991 57.7749677,52.6373104 L57.7749677,47.4782376 C57.7749677,46.2336113 58.787871,45.2211432 60.0330323,45.2211432 C60.6523871,45.2211432 61.220129,45.472648 61.6265806,45.8853739 C62.0394839,46.2916508 62.2910968,46.8591488 62.2910968,47.4782376"/>
        <path fill="#264C6C" d="M42.8717419 13.8991225C40.620129 13.6476177 38.2846452 13.6605154 35.9169032 14.0538947L35.8975484 14.0538947C13.6652903 14.0538947 13.7298065 30.1115088 13.2265806 36.9343826 13.0975484 38.6433254 12.7814194 41.0422943 11.5233548 42.7383394L11.0007742 42.3772044C11.0007742 42.3772044 10.6459355 39.4494305 9.87819355 38.862586L9.99432258 38.8561372C10.2846452 37.1471943 10.4588387 35.3479677 10.3491613 32.94255 9.94916129 23.9593145 15.0910968 9.73317123 42.8717419 13.8991225M25.6523871 104.756843L25.6136774 104.556929C25.704 104.544032 25.8007742 104.518236 25.8910968 104.485992 27.7298065 103.912045 31.5685161 102.280488 32.9169032 101.680746 33.1169032 102.035432 33.3427097 102.38367 33.587871 102.744805 33.8265806 103.10594 34.0459355 103.486422 34.3169032 103.879801 34.587871 104.266731 34.8781935 104.679457 35.1814194 105.117978 35.4717419 105.575846 35.7685161 106.059509 36.0910968 106.568968 36.4072258 107.104221 36.7491613 107.691066 37.0846452 108.342399 38.0523871 110.212563 39.020129 112.611532 39.5233548 115.835952 40.187871 120.156676 39.9169032 124.258138 38.7427097 127.837245 37.5620645 131.422801 35.4265806 134.473103 32.1169032 136.730197 28.7943226 138.974394 25.7362581 139.393568 23.2717419 139.277489 20.787871 139.148512 18.8588387 138.445589 17.4652903 138.1038 14.6975484 137.387979 14.6588387 136.38196 14.904 135.550059 15.0265806 135.124436 15.3943226 135.150231 16.1362581 135.09864 16.8717419 135.040601 18.0072258 134.911624 19.587871 134.09907 21.1685161 133.280067 22.4781935 132.035441 23.5298065 129.939567 24.0588387 128.901304 24.4975484 127.637331 24.820129 126.134751 24.987871 125.393134 25.0910968 124.561234 25.1814194 123.709987 25.2265806 122.826496 25.2910968 121.917209 25.2136774 120.936985 24.987871 117.048334 24.5104516 114.875075 24.3427097 113.269313 24.1685161 111.67645 24.2136774 110.593044 24.1685161 109.341969 24.1814194 108.722881 24.187871 108.161831 24.3556129 107.633026 24.4717419 107.220301 24.5749677 106.839819 24.7233548 106.485133 24.7620645 106.381951 24.8072258 106.285219 24.8588387 106.188486 25.0846452 105.756414 25.2588387 105.395279 25.4007742 105.143774 25.5298065 104.924513 25.6330323 104.789088 25.6523871 104.756843M31.5556129 92.1687057C31.6394839 93.0328504 31.6394839 93.7615694 31.6265806 94.2710279 31.620129 94.5225326 31.6072258 94.7224467 31.587871 94.8707701 31.5685161 95.0126446 31.5620645 95.0900307 31.5620645 95.0900307L31.5491613 95.2061098C30.0459355 95.077133 28.1104516 95.8703404 25.6588387 97.8243392 25.4072258 98.0178045 25.0330323 98.3660419 24.6265806 98.7981142L24.5104516 98.6884839C23.6523871 98.1919232 23.2007742 97.3664715 22.7749677 96.4378384 22.5749677 95.9606242 22.4265806 95.4511658 22.3104516 94.915912 22.220129 94.4000047 22.0588387 93.7615694 21.9814194 93.1940714 21.6330323 90.8918352 21.8781935 88.9700806 21.8781935 88.9700806 22.0652903 87.3965633 22.3362581 85.9649206 22.5233548 84.7460897 22.7169032 83.5143611 22.8459355 82.6695629 22.9943226 81.7086856L23.0910968 81.611953C25.1749677 83.7529682 27.5491613 85.6166832 30.1169032 87.0934678L30.104 87.1192632C30.2136774 87.3449726 30.3427097 87.6029263 30.4459355 87.8479822 30.6652903 88.344543 30.8459355 88.8475526 31.0007742 89.3376645 31.1556129 89.8342252 31.2781935 90.3178883 31.3749677 90.7822049 31.4588387 91.2723168 31.5169032 91.7366333 31.5556129 92.1687057"/>
        <path fill="#264C6C" d="M35.8975484,14.0538947 C33.7362581,14.408581 31.5556129,15.0792604 29.387871,16.1433192 C16.6910968,22.4051438 17.304,31.8720424 15.5233548,39.713833 C15.0459355,41.8355017 14.6910968,45.8660273 10.6846452,46.9429838 C10.504,47.013921 10.3362581,47.1042048 10.1749677,47.2009374 C9.84593548,47.4008515 9.54916129,47.6459074 9.29754839,47.9296564 L9.18787097,47.8329238 C8.51045161,47.987696 7.89754839,48.2263031 7.3556129,48.516501 C7.3556129,48.516501 7.34916129,48.516501 7.34270968,48.5229498 C7.25883871,48.5680917 7.18141935,48.6067848 7.104,48.6583755 L6.27819355,48.516501 C6.27819355,48.516501 6.17496774,48.3423823 6.02012903,48.0650821 L6.27819355,47.9683495 C6.94916129,46.3496904 8.06529032,44.988985 9.56851613,44.3247543 C10.3943226,43.9571704 11.0330323,43.4025701 11.5233548,42.7383394 C12.7814194,41.0422943 13.0975484,38.6433254 13.2265806,36.9343826 C13.7298065,30.1115088 13.6652903,14.0538947 35.8975484,14.0538947"/>
        <path fill="#00B5D6" d="M29.387871,47.4782376 L29.387871,52.6373104 C29.387871,53.8819367 28.3749677,54.8944047 27.1298065,54.8944047 C26.5104516,54.8944047 25.9427097,54.6428999 25.5362581,54.2301741 C25.1233548,53.8238971 24.8717419,53.2563991 24.8717419,52.6373104 L24.8717419,47.4782376 C24.8717419,46.2336113 25.8846452,45.2211432 27.1298065,45.2211432 C27.7491613,45.2211432 28.3169032,45.472648 28.7233548,45.8853739 C29.1362581,46.2916508 29.387871,46.8591488 29.387871,47.4782376"/>
        <path fill="#264C6C" d="M24.5104516,98.6884839 L24.6265806,98.7981142 C24.3620645,99.0689656 24.0910968,99.3720611 23.8330323,99.6945031 C23.6846452,99.8815195 23.5298065,100.074985 23.387871,100.26845 L23.3104516,100.203962 C23.3104516,100.203962 22.7814194,100.184615 21.9814194,100.126575 C21.5814194,100.094331 21.1233548,100.049189 20.6265806,99.9975987 C20.3814194,99.9653545 20.1298065,99.9331102 19.8652903,99.900866 C19.5943226,99.8686218 19.3104516,99.8299288 19.0265806,99.7976846 C18.4588387,99.7138497 17.8910968,99.6042194 17.3491613,99.4623449 L16.9491613,99.3527146 C16.8072258,99.3011238 16.6072258,99.1850447 16.4394839,99.0947609 C16.0975484,98.9012957 15.7491613,98.6949328 15.4136774,98.4692233 C14.7491613,98.0178045 14.1104516,97.4954483 13.5491613,96.902155 C13.2652903,96.6055083 13.0007742,96.2959639 12.7556129,95.967073 C12.5169032,95.6381821 12.3233548,95.2448028 12.1427097,94.8643212 C11.4459355,93.3101505 11.1620645,91.833366 11.1556129,90.5178024 C11.1685161,90.0921789 11.2072258,89.6859019 11.2652903,89.2989714 C11.387871,88.4283779 11.6136774,87.6480681 11.8781935,86.9773887 C12.6459355,85.0233899 13.7169032,83.9206381 13.7169032,83.9206381 L13.7298065,83.9206381 C13.8007742,84.6493571 13.9556129,85.2942412 14.1685161,85.8423927 C14.4975484,86.7581281 14.904,87.5126425 15.4394839,88.0349986 C15.9685161,88.5573547 16.5556129,88.9184898 17.1362581,89.1506481 C18.3104516,89.6149647 19.4910968,89.5762716 20.3749677,89.4214994 C20.8136774,89.3441133 21.1943226,89.2215854 21.4588387,89.1313016 C21.7233548,89.0410178 21.8781935,88.9700806 21.8781935,88.9700806 C21.8781935,88.9700806 21.6330323,90.8918352 21.9814194,93.1940714 C22.0588387,93.7615694 22.220129,94.4000047 22.3104516,94.915912 C22.4265806,95.4511658 22.5749677,95.9606242 22.7749677,96.4378384 C23.2007742,97.3664715 23.6523871,98.1919232 24.5104516,98.6884839"/>
        <path fill="#264C6C" d="M23.0910968,81.611953 L22.9943226,81.7086856 C22.8459355,82.6695629 22.7169032,83.5143611 22.5233548,84.7460897 C22.3362581,85.9649206 22.0652903,87.3965633 21.8781935,88.9700806 C21.8781935,88.9700806 21.7233548,89.0410178 21.4588387,89.1313016 C21.1943226,89.2215854 20.8136774,89.3441133 20.3749677,89.4214994 C19.4910968,89.5762716 18.3104516,89.6149647 17.1362581,89.1506481 C16.5556129,88.9184898 15.9685161,88.5573547 15.4394839,88.0349986 C14.904,87.5126425 14.4975484,86.7581281 14.1685161,85.8423927 C13.9556129,85.2942412 13.8007742,84.6493571 13.7298065,83.9206381 C13.5491613,82.2826324 13.7491613,80.231901 14.5427097,77.8587275 C14.5427097,77.8587275 15.5233548,75.8015472 16.6136774,73.4928622 L17.187871,73.3122946 C18.704,76.3496987 20.7104516,79.1613934 23.0910968,81.611953"/>
        <path fill="#264C6C" d="M17.187871,73.3122946 L16.6136774,73.4928622 C15.5233548,75.8015472 14.5427097,77.8587275 14.5427097,77.8587275 C13.2781935,77.961909 12.220129,77.7684437 11.3491613,77.3428202 C10.4846452,76.9107479 9.74270968,76.2787615 9.31690323,75.4533098 C8.86529032,74.634307 8.58141935,73.6863274 8.43948387,72.6996547 C8.3556129,71.8290612 8.42658065,70.9197746 8.57496774,70.0491811 C8.59432258,69.9202042 8.61367742,69.7976763 8.63948387,69.6686994 C8.79432258,68.6884756 9.36851613,67.5276842 10.0523871,66.4313813 C10.3685161,65.9283717 10.704,65.4382598 11.0523871,64.9739432 C11.0846452,64.9223525 11.1169032,64.8772106 11.1556129,64.8256199 C11.5814194,64.3161614 11.7814194,64.0840031 12.2072258,63.645482 L12.2781935,63.5487493 C12.8523871,63.967924 13.5427097,64.2258776 14.2652903,64.2710195 C14.3943226,64.8836594 14.5233548,65.5027482 14.6523871,66.1282857 C15.1814194,68.6046407 16.0394839,71.0229561 17.187871,73.3122946"/>
        <path fill="#264C6C" d="M11.3491613 77.3428202C12.220129 77.7684437 13.2781935 77.961909 14.5427097 77.8587275 13.7491613 80.231901 13.5491613 82.2826324 13.7298065 83.9206381L13.7169032 83.9206381C13.7169032 83.9206381 12.6459355 85.0233899 11.8781935 86.9773887 11.6136774 87.6480681 11.387871 88.4283779 11.2652903 89.2989714L11.0717419 89.2667272C10.1620645 88.8411037 8.67819355 88.060794 7.21367742 86.6936397 6.52335484 85.9842672 5.82658065 85.1265713 5.20722581 84.1463475 4.904 83.6433379 4.58141935 83.1467771 4.36206452 82.5534838 4.13625806 81.9730881 3.94270968 81.3539993 3.78787097 80.7155641 3.58141935 79.8578682 3.49109677 79.0388654 3.48464516 78.2650045 3.52980645 77.4717971 3.66529032 76.7301803 3.85883871 76.0466032 3.97496774 75.6532239 4.104 75.28564 4.24593548 74.9374025 4.61367742 74.0539113 5.05883871 73.3058458 5.58787097 72.6609617 6.31690323 71.7645728 7.06529032 71.1132398 7.62658065 70.6876163 8.18787097 70.2619928 8.56851613 70.0491811 8.56851613 70.0491811L8.57496774 70.0491811C8.42658065 70.9197746 8.3556129 71.8290612 8.43948387 72.6996547 8.58141935 73.6863274 8.86529032 74.634307 9.31690323 75.4533098 9.74270968 76.2787615 10.4846452 76.9107479 11.3491613 77.3428202M12.2781935 63.5487493L12.2072258 63.645482C11.7814194 64.0840031 11.5814194 64.3161614 11.1556129 64.8256199 11.1169032 64.8772106 11.0846452 64.9223525 11.0523871 64.9739432L11.0136774 64.9481478C9.88464516 64.8127222 9.05883871 64.3806498 8.46529032 63.7615611 8.45883871 63.5680959 8.4523871 63.3552841 8.43948387 63.1295747 8.32335484 60.6145267 8.08464516 56.4614731 9.02658065 54.0367089L9.06529032 54.0238112 9.07174194 54.0238112 10.8072258 61.3496946C11.0265806 62.2718788 11.5685161 63.0328421 12.2781935 63.5487493"/>
        <path fill="#264C6C" d="M11.0136774,64.9481478 L11.0523871,64.9739432 C10.704,65.4382598 10.3685161,65.9283717 10.0523871,66.4313813 C9.36851613,67.5276842 8.79432258,68.6884756 8.63948387,69.6686994 C8.61367742,69.7976763 8.59432258,69.9202042 8.57496774,70.0491811 L8.56851613,70.0491811 C8.56851613,70.0491811 8.18787097,70.2619928 7.62658065,70.6876163 C7.06529032,71.1132398 6.31690323,71.7645728 5.58787097,72.6609617 C5.05883871,73.3058458 4.61367742,74.0539113 4.24593548,74.9374025 L4.14270968,74.8922607 C3.80722581,74.5569209 3.34270968,74.1055021 2.89754839,73.5057598 C2.46529032,72.8995688 2.00722581,72.1644009 1.56851613,71.3002562 C1.34916129,70.8681839 1.13625806,70.4038673 0.936258065,69.9137554 C0.736258065,69.4236435 0.620129032,68.8948385 0.484645161,68.346687 C0.252387097,67.2439352 0.039483871,66.0315531 0.0975483871,64.7675803 C0.14916129,63.9227821 0.304,63.1295747 0.536258065,62.4008556 L0.381419355,62.2525323 C1.38141935,61.2078201 2.83303226,59.9696426 2.83303226,59.9696426 C2.5556129,62.0590671 3.12335484,62.1300043 4.23948387,63.9550263 C5.43948387,65.915474 7.6523871,66.321751 8.40722581,65.2189992 C8.49754839,65.0900223 8.49754839,64.5483197 8.46529032,63.7615611 C9.05883871,64.3806498 9.88464516,64.8127222 11.0136774,64.9481478"/>
      </g>
      <path stroke="#264C6C" stroke-width="2" d="M92 137L92 116C92 110.893576 89.5704597 106.643089 86 104 84.8224064 103.6061 83.816629 103.119403 83 103L66 97M22 137L22 115C22 110.724964 24.5128205 106.447025 28 104 29.3722697 103.390421 30.3960114 102.900581 31 103L36 101M37.420129 106.749535C34.2717419 105.995021 31.3104516 105.066388 28.5814194 103.982982" stroke-linecap="round" stroke-linejoin="round"/>
      <path stroke="#264C6C" stroke-width="2" d="M85 104C77.1835909 107.139842 67.4742458 109 57 109 54.6100074 109 52.2921266 108.907652 50 109L50 109M48.8007742 14.408581C46.6394839 14.7632672 44.4588387 15.4339467 42.2910968 16.4980054 29.5943226 22.75983 30.2072258 32.2267286 28.4265806 40.0685193 27.9491613 42.190188 27.5943226 46.2207136 23.587871 47.29767M75.1943226 22.4567345C75.1943226 22.4567345 66.5233548 15.4146001 55.7749677 14.2538088 53.5233548 14.002304 51.187871 14.0152016 48.820129 14.408581" stroke-linecap="round" stroke-linejoin="round"/>
      <path stroke="#264C6C" stroke-width="2" d="M20.1427097 38.4434113C16.4652903 16.8462428 33.6910968 2.00745971 54.5556129.724140355 75.6717419-.578525526 82.6588387 14.5633531 82.6588387 14.5633531 82.6588387 14.5633531 88.3620645 13.9055714 93.8652903 20.1351518 101.381419 28.6476219 96.6072258 40.3522683 91.8459355 48.0779798L90.0910968 47.29767M21.3685161 64.1162474C21.9620645 64.7353361 22.787871 65.1674084 23.9169032 65.3028341M29.5169032 73.8475484C28.4265806 76.1562335 27.4459355 78.2134138 27.4459355 78.2134138 26.1814194 78.3165952 25.1233548 78.12313 24.2523871 77.6975065 23.387871 77.2654341 22.6459355 76.6334477 22.220129 75.8079961 21.7685161 74.9889933 21.4846452 74.0410136 21.3427097 73.054341 21.2588387 72.1837474 21.3298065 71.2744609 21.4781935 70.4038673 21.4975484 70.2748905 21.5169032 70.1523625 21.5427097 70.0233857 21.6975484 69.0431619 22.2717419 67.8823705 22.9556129 66.7860675 23.2717419 66.2830579 23.6072258 65.792946 23.9556129 65.3286295 23.987871 65.2770387 24.020129 65.2318968 24.0588387 65.1803061 24.4846452 64.6708477 24.6846452 64.4386894 25.1104516 64.0001682M13.4394839 62.7555419C13.2072258 63.4842609 13.0523871 64.2774684 13.0007742 65.1222665 12.9427097 66.3862394 13.1556129 67.5986215 13.387871 68.7013733 13.5233548 69.2495248 13.6394839 69.7783297 13.8394839 70.2684417 14.0394839 70.7585536 14.2523871 71.2228701 14.4717419 71.6549425 14.9104516 72.5190872 15.3685161 73.254255 15.8007742 73.8604461 16.2459355 74.4601883 16.7104516 74.9116072 17.0459355 75.2469469" stroke-linecap="round" stroke-linejoin="round"/>
      <path stroke="#264C6C" stroke-width="2" d="M21.4717419 70.4038673C21.4717419 70.4038673 21.0910968 70.6166791 20.5298065 71.0423026 19.9685161 71.4679261 19.220129 72.119259 18.4910968 73.0156479 17.9620645 73.660532 17.5169032 74.4085976 17.1491613 75.2920888 17.0072258 75.6403262 16.8781935 76.0079101 16.7620645 76.4012894 16.5685161 77.0848666 16.4330323 77.8264833 16.387871 78.6196908 16.3943226 79.3935517 16.4846452 80.2125545 16.6910968 81.0702503 16.8459355 81.7086856 17.0394839 82.3277743 17.2652903 82.90817 17.4846452 83.5014634 17.8072258 83.9980241 18.1104516 84.5010337 18.7298065 85.4812576 19.4265806 86.3389534 20.1169032 87.0483259 21.5814194 88.4154802 23.0652903 89.19579 23.9749677 89.6214135M35.8975484 82.0633718C35.7491613 83.0242492 35.620129 83.8690473 35.4265806 85.100776 35.2394839 86.3196069 34.9685161 87.7512496 34.7814194 89.3247668 34.7814194 89.3247668 34.6265806 89.3957041 34.3620645 89.4859878 34.0975484 89.5762716 33.7169032 89.6987996 33.2781935 89.7761857 32.3943226 89.9309579 31.2136774 89.9696509 30.0394839 89.5053344 29.4588387 89.2731761 28.8717419 88.912041 28.3427097 88.3896849 27.8072258 87.8673287 27.4007742 87.1128143 27.0717419 86.1970789 26.8588387 85.6489274 26.704 85.0040433 26.6330323 84.2753243 26.4523871 82.6373187 26.6523871 80.5865873 27.4459355 78.2134138" stroke-linecap="round" stroke-linejoin="round"/>
      <path stroke="#264C6C" stroke-width="2" d="M26.620129 84.2753243C26.620129 84.2753243 25.5491613 85.3780761 24.7814194 87.3320749 24.5169032 88.0027544 24.2910968 88.7830642 24.1685161 89.6536577 24.1104516 90.0405882 24.0717419 90.4468651 24.0588387 90.8724886 24.0652903 92.1880522 24.3491613 93.6648368 25.0459355 95.2190075 25.2265806 95.5994891 25.420129 95.9928684 25.6588387 96.3217593 25.904 96.6506502 26.1685161 96.9601945 26.4523871 97.2568412 27.0136774 97.8501346 27.6523871 98.3724907 28.3169032 98.8239096 28.6523871 99.049619 29.0007742 99.2559819 29.3427097 99.4494472 29.5104516 99.5397309 29.7104516 99.6558101 29.8523871 99.7074008L30.2523871 99.8170311C30.7943226 99.9589056 31.3620645 100.068536 31.9298065 100.152371 32.2136774 100.184615 32.4975484 100.223308 32.7685161 100.255552 33.0330323 100.287797 33.2846452 100.320041 33.5298065 100.352285 34.0265806 100.403876 34.4846452 100.449018 34.8846452 100.481262 35.6846452 100.539301 36.2136774 100.558648 36.2136774 100.558648M34.7814194 89.3247668C34.7814194 89.3247668 34.5362581 91.2465214 34.8846452 93.5487577 34.9620645 94.1162557 35.1233548 94.7546909 35.2136774 95.2705982 35.3298065 95.805852 35.4781935 96.3153104 35.6781935 96.7925247 36.104 97.7211578 36.5556129 98.5466094 37.4136774 99.0431702M43.0072258 87.4739494C43.1169032 87.6996589 43.2459355 87.9576125 43.3491613 88.2026685 43.5685161 88.6992292 43.7491613 89.2022388 43.904 89.6923507 44.0588387 90.1889115 44.1814194 90.6725746 44.2781935 91.1368911 44.3620645 91.627003 44.420129 92.0913196 44.4588387 92.5233919 44.5427097 93.3875366 44.5427097 94.1162557 44.5298065 94.6257141 44.5233548 94.8772189 44.5104516 95.077133 44.4910968 95.2254563 44.4717419 95.3673308 44.4652903 95.4447169 44.4652903 95.4447169M44.4523871 95.5607961C42.9491613 95.4318192 41.0136774 96.2250267 38.5620645 98.1790255 38.3104516 98.3724907 37.9362581 98.7207281 37.5298065 99.1528005 37.2652903 99.4236518 36.9943226 99.7267473 36.7362581 100.049189 36.587871 100.236206 36.4330323 100.429671 36.2910968 100.623136 36.187871 100.758562 36.0910968 100.900436 36.0007742 101.035862 35.6523871 101.558218 35.3814194 102.074125 35.3233548 102.519095 35.2652903 102.880231 35.3685161 103.241366 35.5298065 103.570257 35.6652903 103.899147 35.9104516 104.195794 36.2330323 104.434401 36.3943226 104.55048 36.5814194 104.653662 36.7814194 104.737497 36.9685161 104.821332 37.1556129 104.88582 37.3685161 104.930962 37.7169032 105.001899 38.104 105.008348 38.5169032 104.911615 38.6072258 104.898718 38.704 104.872922 38.7943226 104.840678 40.6330323 104.266731 44.4717419 102.635175 45.820129 102.035432 45.9749677 101.964495 46.0975484 101.912904 46.1814194 101.874211 46.587871 101.693644 47.2910968 101.364753 47.7620645 100.739215 47.9943226 100.43612 48.1814194 100.042741 48.2072258 99.578424 48.220129 99.3398169 48.187871 99.0689656 48.1104516 98.7787677 48.0459355 98.5272629 47.9427097 98.2564116 47.7943226 97.9726626 47.6330323 97.6631182 47.4523871 97.3600227 47.2459355 97.0827225 47.0330323 96.8054224 46.7749677 96.5797129 46.504 96.3669012 45.9556129 95.9477265 45.304 95.6510798 44.5556129 95.5672449 44.5233548 95.5672449 44.4846452 95.5607961 44.4523871 95.5607961z" stroke-linecap="round" stroke-linejoin="round"/>
      <path stroke="#264C6C" stroke-width="2" d="M38.5620645,105.105081 L38.5556129,105.11153 C38.5362581,105.143774 38.4330323,105.279199 38.304,105.49846 C38.1620645,105.749965 37.987871,106.1111 37.7620645,106.543172 C37.7104516,106.639905 37.6652903,106.736637 37.6265806,106.839819 C37.4781935,107.194505 37.3749677,107.574987 37.2588387,107.987713 C37.0910968,108.516518 37.0846452,109.077567 37.0717419,109.696656 C37.1169032,110.947731 37.0717419,112.031136 37.2459355,113.624 C37.4136774,115.229761 37.8910968,117.403021 38.1169032,121.291672 C38.1943226,122.271895 38.1298065,123.181182 38.0846452,124.064673 C37.9943226,124.91592 37.8910968,125.747821 37.7233548,126.489437 C37.4007742,127.992017 36.9620645,129.25599 36.4330323,130.294254 C35.3814194,132.390127 34.0717419,133.634753 32.4910968,134.453756 C30.9104516,135.26631 29.7749677,135.395287 29.0394839,135.453326 C28.2975484,135.504917 27.9298065,135.479122 27.8072258,135.904745 C27.5620645,136.736646 27.6007742,137.742665 30.3685161,138.458486 C31.7620645,138.800275 33.6910968,139.503199 36.1749677,139.632175 C38.6394839,139.748255 41.6975484,139.32908 45.020129,137.084883 C48.3298065,134.827789 50.4652903,131.777487 51.6459355,128.191931 C52.820129,124.612825 53.0910968,120.511362 52.4265806,116.190638 C51.9233548,112.966218 50.9556129,110.567249 49.987871,108.697085 C49.6523871,108.045752 49.3104516,107.458908 48.9943226,106.923654 C48.6717419,106.414195 48.3749677,105.930532 48.0846452,105.472665 C47.7814194,105.034143 47.4910968,104.621418 47.220129,104.234487 C46.9491613,103.841108 46.7298065,103.460626 46.4910968,103.099491 C46.2459355,102.738356 46.020129,102.390119 45.820129,102.035432" stroke-linecap="round" stroke-linejoin="round"/>
      <path stroke="#264C6C" stroke-width="4" d="M66.4 37.5838453C69.8647039 34.3875334 74.9393108 34.3829078 78.4 37.5838453M34.4 37.5838453C37.8606892 34.3875334 42.9352961 34.3829078 46.4 37.5838453" stroke-linecap="round" stroke-linejoin="round"/>
      <path stroke="#264C6C" stroke-width="2" d="M89.9943226 46.7559674C90.7298065 41.9128878 91.1491613 34.9803837 88.6136774 30.6919045 85.987871 26.248653 81.8523871 23.3144304 75.1943226 22.4567345M24 47.8834912C25.2258065 53.8035273 26.316129 59.0722303 27.5096774 64.8632896 27.6387097 65.4759295 27.7677419 66.0950182 27.8967742 66.7205558 28.4258065 69.1969107 29.283871 71.6152261 30.4322581 73.9045646 31.9483871 76.9419687 33.9548387 79.7536634 36.3354839 82.204223 38.4193548 84.3452382 40.7935484 86.2089533 43.3612903 87.6857378 45.0322581 88.6466152 46.7870968 89.4462714 48.6064516 90.0524625 51.2516129 90.9424026 54.0258065 91.4325145 56.8709677 91.4454121L57.1677419 91.4454121C60.083871 91.4389633 62.9419355 90.923056 65.6516129 89.9879741 72.5032258 87.6341471 78.4451613 82.6105 82.2387097 76.3744707 84.8709677 72.0537473 85.9935484 68.6552081 86.8129032 64.8568407 87.5548387 61.4067108 88.0580645 57.6147923 89.2193548 52.5073102 89.2193548 52.5073102 89.7806452 50.4501299 90.2580645 47.5094584 90.283871 47.3417886 90.3096774 47.1741187 90.3354839 47" stroke-linecap="round" stroke-linejoin="round"/>
      <path stroke="#264C6C" stroke-width="2" d="M60.354088,63.5171972 C59.3746275,62.7199394 58.147055,62.2065004 56.8072258,62.2065004 C55.4390957,62.2065004 54.1880147,62.741859 53.1986302,63.5680959" stroke-linecap="round" stroke-linejoin="round" transform="matrix(1 0 0 -1 0 125.775)"/>
      <path stroke="#00B5D6" stroke-width="2" d="M64.987871,73.7766112 C63.8781935,73.7766112 60.7169032,72.4610476 59.2330323,72.4610476 C57.6330323,72.4610476 57.1298065,73.7895088 57.1298065,73.7895088 C57.1298065,73.7895088 56.4781935,72.4610476 54.8781935,72.4610476 C53.3620645,72.4610476 50.0265806,73.8346507 48.9749677,73.7701623 C48.9169032,73.7701623 48.8652903,73.7637135 48.820129,73.7508158 C48.820129,73.7508158 49.9104516,75.9498706 50.8781935,76.9429921 C51.8459355,77.9296648 53.2588387,80.0126404 57.1298065,80.1738614 C60.6136774,80.0126404 62.304,77.9296648 63.2717419,76.9429921 C64.2394839,75.9498706 65.2136774,73.7508158 65.2136774,73.7508158 C65.1556129,73.7701623 65.0781935,73.7766112 64.987871,73.7766112 Z" stroke-linecap="round" stroke-linejoin="round"/>
      <path stroke="#00B5D6" stroke-width="2" d="M48.9749677,73.78306 C53.1556129,76.420636 56.8330323,76.5302663 56.8330323,76.5302663 L57.1233548,76.5302663 C57.1233548,76.5302663 60.8072258,76.4786755 64.987871,73.8475484" stroke-linecap="round" stroke-linejoin="round"/>
      <polyline stroke="#264C6C" stroke-width="2" points="48.11 99.746 48.11 98.779 48.11 90.266" stroke-linecap="round" stroke-linejoin="round"/>
      <polyline stroke="#264C6C" stroke-width="2" points="65.498 90.266 65.498 96.754 65.498 99.746" stroke-linecap="round" stroke-linejoin="round"/>
      <path stroke="#264C6C" stroke-width="2" d="M19.1814194,48.3230358 C19.8523871,46.7043767 20.9685161,45.3436712 22.4717419,44.6794406 C23.2975484,44.3118567 23.9362581,43.7572563 24.4265806,43.0930257 C25.6846452,41.3969805 26.0007742,38.9980117 26.1298065,37.2890688 C26.6330323,30.466195 26.5685161,14.408581 48.8007742,14.408581 L48.820129,14.408581" stroke-linecap="round" stroke-linejoin="round"/>
      <path stroke="#264C6C" stroke-width="2" d="M22.8975484 39.2108234C23.187871 37.5018806 23.3620645 35.7026539 23.2523871 33.2972362 22.8523871 24.3140007 27.9943226 10.0878575 55.7749677 14.2538088 56.5749677 14.3698879 57.3943226 14.5053136 58.2330323 14.6536369M89.9943226 46.7624162L89.9943226 46.7559674C93.1233548 39.6493446 93.3749677 34.4967207 93.1169032 30.8789209" stroke-linecap="round" stroke-linejoin="round"/>
      <path stroke="#00B5D6" stroke-width="2" d="M15.7362581 60.3243288C15.4588387 62.4137533 16.0265806 62.4846906 17.1427097 64.3097126 18.3427097 66.2701602 20.5556129 66.6764372 21.3104516 65.5736854 21.4007742 65.4447086 21.4007742 64.903006 21.3685161 64.1162474 21.3620645 63.9227821 21.3556129 63.7099704 21.3427097 63.4842609 21.2265806 60.9692129 20.987871 56.8161593 21.9298065 54.3913951M18.8910968 49.812718C17.2136774 51.2637072 16.4910968 53.1532177 16.5749677 53.7594087 16.6975484 54.7073883 16.2588387 57.235334 15.8136774 59.8277681 15.787871 60.0018868 15.7620645 60.1631078 15.7362581 60.31788M20.2459355 48.8776361C20.1620645 48.922778 20.0846452 48.961471 20.0072258 49.0130617 19.6846452 49.2000781 19.3814194 49.406441 19.104 49.6321505 19.0330323 49.6837412 18.9685161 49.7417808 18.8975484 49.8062692M22.0910968 48.1876101C21.4136774 48.3423823 20.8007742 48.5809894 20.2588387 48.8711872" stroke-linecap="round" stroke-linejoin="round"/>
      <path stroke="#00B5D6" stroke-width="2" d="M21.2523871 63.4907098C21.2523871 63.4907098 20.1104516 61.3432457 20.2588387 60.3307777 20.4072258 59.3183096 20.4265806 57.9318088 19.5427097 54.0109135 18.8330323 50.8638791 19.7298065 49.4515829 20.104 49.0259594 20.1749677 48.9421245 20.2265806 48.8969826 20.2459355 48.8776361 20.2523871 48.8711872 20.2588387 48.8711872 20.2588387 48.8711872M15.7362581 60.31788L15.7362581 60.3243288C15.7362581 60.3243288 14.2846452 61.5625063 13.2846452 62.6072186 12.9685161 62.9361094 12.6910968 63.2456538 12.5298065 63.4907098 11.8330323 64.5031778 9.23948387 65.5736854 7.78787097 64.5612174 6.33625806 63.5551982 5.89109677 57.0483176 9.0523871 54.3913951M18.9104516 49.7998203C18.9104516 49.7998203 18.904 49.7998203 18.8975484 49.8062692 18.8910968 49.8062692 18.8910968 49.812718 18.8910968 49.812718 18.5298065 49.9803879 13.3620645 52.3987033 11.8975484 53.1919107 11.2072258 53.5659435 10.1685161 54.0560554 9.0523871 54.3913951 7.72335484 54.7783256 6.27174194 54.9395466 5.13625806 54.3913951 3.04593548 53.3789271-.237935484 49.9094506.0136774194 47.1300002.0136774194 47.1300002 2.41367742 45.3565689 2.92335484 44.0345565 3.42658065 42.7060952 5.6523871 41.0616408 8.0523871 41.0616408" stroke-linecap="round" stroke-linejoin="round"/>
      <path stroke="#00B5D6" stroke-width="2" d="M18.9104516,49.2774642 C18.9104516,49.2774642 15.5620645,48.6454778 14.5491613,47.5685214 C13.5362581,46.4980137 12.2846452,45.8660273 11.2072258,45.2985293 C10.3298065,44.8342128 8.43303226,43.7959494 8.11045161,41.0551919 C8.02658065,40.403859 8.03303226,39.6557935 8.16851613,38.7916488 C8.86529032,34.3032554 9.4523871,34.238767 9.4523871,34.238767 C9.4523871,34.238767 13.4136774,33.3552758 16.1298065,35.2512351 C18.8459355,37.1471943 19.6072258,38.4111671 19.6072258,38.4111671" stroke-linecap="round" stroke-linejoin="round"/>
      <path stroke="#00B5D6" stroke-width="2" d="M19.1814194,48.8711872 C19.1814194,48.8711872 19.0781935,48.6970685 18.9233548,48.4197684 C18.4523871,47.5878679 17.4523871,45.8015389 17.0781935,44.8535593 C16.5749677,43.5895865 16.1491613,40.3071264 18.1298065,39.1656815 C18.6523871,38.862586 19.1620645,38.6949161 19.6394839,38.6110812 C19.8136774,38.578837 19.9814194,38.5594905 20.1427097,38.5530416 C21.2588387,38.4950021 22.1749677,38.8819325 22.704,39.1656815 C22.7298065,39.1785792 22.7556129,39.1979257 22.7814194,39.2172723 C23.5491613,39.8041168 23.904,42.7318906 23.904,42.7318906" stroke-linecap="round" stroke-linejoin="round"/>
      <path stroke="#264C6C" stroke-width="2" d="M23.587871 47.29767C23.4072258 47.3686073 23.2394839 47.4588911 23.0781935 47.5556237 22.7491613 47.7555377 22.4523871 48.0005937 22.2007742 48.2843427 21.4007742 49.1807316 21.0394839 50.4382556 21.3362581 51.7022284L21.9685161 54.3784974 21.9749677 54.3784974 23.7104516 61.7043808C23.9298065 62.6265651 24.4717419 63.3875283 25.1814194 63.9034356 25.7556129 64.3226103 26.4459355 64.5805639 27.1685161 64.6257058L27.1749677 64.6257058M90.0910968 47.29767C91.7943226 48.0005937 92.7814194 49.8514111 92.3427097 51.7022284L89.9685161 61.7043808C89.5685161 63.3746306 88.1298065 64.5225243 86.504 64.6257058" stroke-linecap="round" stroke-linejoin="round"/>
    </g>
    <g transform="translate(790 29)">
      <path fill="#FFFFFF" d="M33,16.5 C33,7.38718918 25.6128108,0 16.5,0 C7.38718918,0 0,7.38718918 0,16.5 C0,25.6128108 7.38718918,33 16.5,33 C25.6128108,33 33,25.6128108 33,16.5"/>
      <path stroke="#00B5D6" stroke-width="2" d="M33,16.5 C33,7.38718918 25.6128108,0 16.5,0 C7.38718918,0 0,7.38718918 0,16.5 C0,25.6128108 7.38718918,33 16.5,33 C25.6128108,33 33,25.6128108 33,16.5 Z" stroke-linecap="round" stroke-linejoin="round"/>
      <path stroke="#004A6E" stroke-width="2" d="M11 8L20 8M11 12L20 12M11 8L11.381629 8C13.9493175 8 16.0306556 10.0419296 16.0306556 12.561001L16.0306556 12.561001C16.0306556 15.0790846 13.9493175 17.1210142 11.381629 17.1210142L11 17.1210142 20 26" stroke-linecap="round" stroke-linejoin="round"/>
    </g>
    <path stroke="#00B5D6" stroke-width="2" d="M204,126 L204,22.0015545 C204,9.85043149 213.852751,0 225.990606,0 L783.009394,0 C795.15447,0 805,9.84175563 805,21.9959927 L805,22" stroke-linecap="round" stroke-linejoin="round" stroke-dasharray="2 5"/>
    <g transform="translate(551 76)">
      <path stroke="#004A6E" stroke-width="2" d="M77 140L77 125.275004C77 119.668726 73.4087688 114.70162 68.1056244 112.971448L59 110M27 110L17.2247191 113.021539C11.7344229 114.719653 8 119.712807 8 125.359158L8 140" stroke-linecap="round" stroke-linejoin="round"/>
      <polyline stroke="#004A6E" stroke-width="2" points="38 117 43 128.543 43 138" stroke-linecap="round" stroke-linejoin="round"/>
      <path stroke="#004A6E" stroke-width="2" d="M43,128 L48,117" stroke-linecap="round" stroke-linejoin="round"/>
      <polygon stroke="#00B5D6" stroke-width="2" points="36.246 105 26 107.09 30 118 38 115.83" stroke-linecap="round" stroke-linejoin="round"/>
      <polygon stroke="#00B5D6" stroke-width="2" points="48 115.936 55.601 118 60 107.224 50.099 105" stroke-linecap="round" stroke-linejoin="round"/>
      <path stroke="#004A6E" stroke-width="2" d="M45.7197161 104L39.2812807 104C22.5576963 104 9 90.4113505 9 73.6483526L9 42.8280965C9 29.668089 19.6440027 19 32.7730681 19L52.2279287 19C65.3569941 19 76 29.668089 76 42.8280965L76 73.6483526C76 90.4113505 62.4433005 104 45.7197161 104zM76.1808658 54C81.1027258 54.3243842 85 58.6753639 85 63.9944593 85 69.3800433 81.0065206 73.7723266 76 74M9 74C3.97999783 73.6915789 0 69.3313511 0 63.9984881 0 58.6857834 3.94771171 54.3396664 8.93934123 54" stroke-linecap="round" stroke-linejoin="round"/>
      <path stroke="#004A6E" stroke-width="4" d="M30 43.7684448C25.4252 42.7144448 22.2062556 42.7144448 18 43.9564448M67 43.7684448C62.4252 42.7144448 59.2062556 42.7144448 55 43.9564448" stroke-linecap="round" stroke-linejoin="round"/>
      <path fill="#004A6E" d="M26 52C26 50.3430962 24.6564171 49 23 49 21.3425802 49 20 50.3430962 20 52 20 53.6569038 21.3425802 55 23 55 24.6564171 55 26 53.6569038 26 52M65 52C65 50.3430962 63.6564171 49 62 49 60.3425802 49 59 50.3430962 59 52 59 53.6569038 60.3425802 55 62 55 63.6564171 55 65 53.6569038 65 52"/>
      <path stroke="#004A6E" stroke-width="2" d="M35 79C37.0593253 80.2357055 39.8824952 81 43 81 46.1175048 81 48.9406747 80.2357055 51 79M38 87L47 87" stroke-linecap="round" stroke-linejoin="round"/>
      <path fill="#004A6E" d="M72.2947333,22.4734643 C72.2947333,22.4734643 77.8949435,12.8861166 70.6146703,6.24994421 C63.3343971,-0.3872212 33.4672799,-8.31527754 11.9994725,20.814173 C11.9994725,20.814173 0.799052227,21.3672701 2.10610307,30.5852244 C3.41315391,39.8031787 7.1462922,53.6306066 7.1462922,53.6306066 L9.38235457,53.6425225 L9.38235457,44.6172089 C9.38235457,30.1473144 21.259425,18.4170878 35.9104596,18.4170878 L50.4338053,18.4170878 C65.0848398,18.4170878 76.9619103,30.1473144 76.9619103,44.6172089 L76.9619103,53.9900701 L78.8279767,54 C78.8279767,54 83.1221414,36.485589 83.8681658,32.060812 C84.6151956,27.6360351 82.3751116,21.3672701 72.2947333,22.4734643"/>
      <path stroke="#FFFFFF" stroke-width="2" d="M29 14C29 14 39.2823138 3.62809089 55 5.15307163M39 15C39 15 49.4760475 9.4217891 61 13.4782586" stroke-linecap="round" stroke-linejoin="round"/>
      <path stroke="#004A6E" stroke-width="2" d="M42.6950284,59 L46.6115373,59 C48.4826143,59 50,60.5673331 50,62.5 L50,62.5 C50,64.4326669 48.4826143,66 46.6115373,66 L40,66" stroke-linecap="round" stroke-linejoin="round"/>
    </g>
    <g transform="translate(579 29)">
      <path fill="#FFFFFF" d="M33,16.5 C33,7.38718918 25.6128108,0 16.5,0 C7.38718918,0 0,7.38718918 0,16.5 C0,25.6128108 7.38718918,33 16.5,33 C25.6128108,33 33,25.6128108 33,16.5"/>
      <path stroke="#00B5D6" stroke-width="2" d="M33,16.5 C33,7.38718918 25.6128108,0 16.5,0 C7.38718918,0 0,7.38718918 0,16.5 C0,25.6128108 7.38718918,33 16.5,33 C25.6128108,33 33,25.6128108 33,16.5 Z" stroke-linecap="round" stroke-linejoin="round"/>
      <path stroke="#004A6E" stroke-width="2" d="M13 23L13 9 17.2888199 9C19.3385093 9 21 10.5685864 21 12.5036649L21 12.5036649C21 14.4387435 19.3385093 16.0073298 17.2888199 16.0073298L13 16.0073298M11 20L16 20" stroke-linecap="round" stroke-linejoin="round"/>
    </g>
    <path stroke="#00B5D6" stroke-width="2" d="M574,0 C585.041645,0 593.992667,8.95345469 593.992667,19.9924802" stroke-linecap="round" stroke-linejoin="round" stroke-dasharray="2 5"/>
    <g transform="translate(372 29)">
      <path fill="#FFFFFF" d="M33,16.5 C33,7.38718918 25.6128108,0 16.5,0 C7.38718918,0 0,7.38718918 0,16.5 C0,25.6128108 7.38718918,33 16.5,33 C25.6128108,33 33,25.6128108 33,16.5"/>
      <path stroke="#00B5D6" stroke-width="2" d="M33,16.5 C33,7.38718918 25.6128108,0 16.5,0 C7.38718918,0 0,7.38718918 0,16.5 C0,25.6128108 7.38718918,33 16.5,33 C25.6128108,33 33,25.6128108 33,16.5 Z" stroke-linecap="round" stroke-linejoin="round"/>
      <g transform="translate(12 16)">
        <path fill="#FFFFFF" d="M0,2.27373675e-13 L8,2.27373675e-13"/>
        <path stroke="#004A6E" stroke-width="2" d="M0,2.27373675e-13 L8,2.27373675e-13" stroke-linecap="round" stroke-linejoin="round"/>
      </g>
      <g transform="translate(12 20)">
        <path fill="#FFFFFF" d="M0,0 L8,0"/>
        <path stroke="#004A6E" stroke-width="2" d="M0,0 L8,0" stroke-linecap="round" stroke-linejoin="round"/>
      </g>
      <g transform="translate(11 9)">
        <polyline fill="#FFFFFF" points="0 0 5.501 5 11 0"/>
        <polyline stroke="#004A6E" stroke-width="2" points="0 0 5.501 5 11 0" stroke-linecap="round" stroke-linejoin="round"/>
      </g>
      <g transform="translate(16 14)">
        <path fill="#FFFFFF" d="M0,0 L0,10"/>
        <path stroke="#004A6E" stroke-width="2" d="M0,0 L0,10" stroke-linecap="round" stroke-linejoin="round"/>
      </g>
    </g>
    <g transform="translate(337 77)">
      <path stroke="#004A6E" stroke-width="2" d="M80,30 L80,69.2919186 C80,86.2519515 66.1202562,100 49,100 L49,100 C31.8787408,100 18,86.2519515 18,69.2919186 L18,30" stroke-linecap="round" stroke-linejoin="round"/>
      <g transform="translate(30 46)">
        <g fill="#004A6E" transform="translate(1 6)">
          <path d="M6 3C6 1.34309623 4.65641711 0 3 0 1.34258021 0 0 1.34309623 0 3 0 4.65690377 1.34258021 6 3 6 4.65641711 6 6 4.65690377 6 3M36 3C36 1.34309623 34.6564171 0 33 0 31.3425802 0 30 1.34309623 30 3 30 4.65690377 31.3425802 6 33 6 34.6564171 6 36 4.65690377 36 3"/>
        </g>
        <g stroke="#004A6E" stroke-width="4" stroke-linecap="round" stroke-linejoin="round">
          <path d="M39 3C36.9420854.872498686 34.029217-.303074816 31 .0677565003M0 3C2.05791456.872498686 4.97078302-.303074816 8 .0677565003"/>
        </g>
      </g>
      <path stroke="#004A6E" stroke-width="2" d="M36 82C39.0906601 85.6643426 43.7663263 88 48.9994913 88 54.2326564 88 58.9093399 85.6643426 62 82M80.108851 59.7848726C81.2024006 60.5548152 82.4965182 61 83.8823529 61 87.8130841 61 91 57.4177926 91 52.9995064 91 48.5812203 87.8130841 45 83.8823529 45 82.4501558 45 81.1167308 45.474798 80 46.2931088M84 49C81.7912385 49 80 50.7911855 80 53M17.891149 59.7848726C16.7975994 60.5548152 15.5034818 61 14.1176471 61 10.1869159 61 7 57.4187797 7 53.0004936 7 48.5822074 10.1869159 45 14.1176471 45 15.5498442 45 16.8832692 45.4757851 18 46.2940959M14 49C16.2087615 49 18 50.7911855 18 53M49.1211548 65L51.5168008 65C53.4401325 65 55 66.5669655 55 68.5L55 68.5C55 70.4330345 53.4401325 72 51.5168008 72L47 72" stroke-linecap="round" stroke-linejoin="round"/>
      <path fill="#004B6E" d="M2.16074683,32.2713404 C0.0984123215,31.5029766 -0.0471114293,29.9559148 1.85200538,28.8060147 L49.4265599,0 L97.0011144,28.8060147 C98.8929357,29.9514974 98.768545,31.5377026 96.6786382,32.2759562 C96.6786382,32.2759562 82.1095743,39 49.4265599,39 C16.7435454,39 2.16074683,32.2713404 2.16074683,32.2713404 Z"/>
      <path stroke="#004A6E" stroke-width="2" d="M58,140.467762 L58,125.343448 C58,119.510198 61.7584625,114.351935 67.2845629,112.598565 L79.9895794,109 L79.9895794,99.1758911" stroke-linecap="round" stroke-linejoin="round" transform="matrix(-1 0 0 1 137.99 0)"/>
      <path stroke="#004A6E" stroke-width="2" d="M18,140.29187 L18,125.167557 C18,119.334307 21.7584625,114.176044 27.2845629,112.422674 L39.9895794,108.824109 L39.9895794,99" stroke-linecap="round" stroke-linejoin="round"/>
      <path stroke="#004B6E" stroke-width="2" d="M40,104 C42.6787962,104.721734 45.7437373,105.131307 49,105.131307 L49,105.131307 C52.2562627,105.131307 55.3212038,104.721734 58,104"/>
      <g stroke="#00B4D5" stroke-width="2" transform="translate(43 118)">
        <path d="M0 0C1.90650387.324923583 3.94959791.501129415 6 1 8.144253.501129415 10.1362367.3339783 12 0M0 7C1.90650387 7.32492358 3.94959791 7.50112941 6 8 8.144253 7.50112941 10.1362367 7.3339783 12 7M0 14C1.90650387 14.3249236 3.94959791 14.5011294 6 15 8.144253 14.5011294 10.1362367 14.3339783 12 14M0 21C1.90650387 21.3249236 3.94959791 21.5011294 6 22 8.144253 21.5011294 10.1362367 21.3339783 12 21"/>
      </g>
    </g>
    <path stroke="#00B5D6" stroke-width="2" d="M368,0 C379.041645,0 387.992667,8.95345469 387.992667,19.9924802" stroke-linecap="round" stroke-linejoin="round" stroke-dasharray="2 5"/>
    <path fill="#374D6B" d="M65.2421875,8.40625 C64.4869754,8.40625 63.8658879,8.66275785 63.3789062,9.17578125 C62.8919246,9.68880465 62.6250002,10.3645791 62.578125,11.203125 L67.8125,11.203125 C67.8020833,10.3645791 67.5612003,9.68880465 67.0898438,9.17578125 C66.6184872,8.66275785 66.002608,8.40625 65.2421875,8.40625 Z M67.7578125,13.6171875 L68.78125,13.6171875 C68.6562494,14.3411495 68.2747428,14.9348935 67.6367188,15.3984375 C66.9986947,15.8619815 66.226567,16.09375 65.3203125,16.09375 C64.15364,16.09375 63.2265659,15.7096393 62.5390625,14.9414062 C61.8515591,14.1731732 61.5078125,13.1302149 61.5078125,11.8125 C61.5078125,10.5052018 61.850257,9.45833727 62.5351562,8.671875 C63.2200555,7.88541273 64.1275985,7.4921875 65.2578125,7.4921875 C66.3619847,7.4921875 67.2434863,7.86327754 67.9023438,8.60546875 C68.5612012,9.34765996 68.890625,10.3437438 68.890625,11.59375 L68.890625,12.046875 L62.578125,12.046875 L62.578125,12.1015625 C62.578125,13.0494839 62.8294246,13.7994764 63.3320312,14.3515625 C63.8346379,14.9036486 64.5052041,15.1796875 65.34375,15.1796875 C65.9635448,15.1796875 66.4895812,15.0364598 66.921875,14.75 C67.3541688,14.4635402 67.6328119,14.0859398 67.7578125,13.6171875 Z M71.453125,4.7265625 L75.453125,4.7265625 C76.526047,4.7265625 77.3971321,5.04947594 78.0664062,5.6953125 C78.7356804,6.34114906 79.0703125,7.18749477 79.0703125,8.234375 C79.0703125,9.28125523 78.7343784,10.128903 78.0625,10.7773438 C77.3906216,11.4257845 76.5182345,11.75 75.4453125,11.75 L72.515625,11.75 L72.515625,16 L71.453125,16 L71.453125,4.7265625 Z M72.515625,5.6796875 L72.515625,10.796875 L75.203125,10.796875 C76.0677127,10.796875 76.7460913,10.5703148 77.2382812,10.1171875 C77.7304712,9.66406023 77.9765625,9.03646234 77.9765625,8.234375 C77.9765625,7.43228766 77.7317733,6.80599184 77.2421875,6.35546875 C76.7526017,5.90494566 76.072921,5.6796875 75.203125,5.6796875 L72.515625,5.6796875 Z M83.53125,15.1875 C84.2864621,15.1875 84.9179662,14.9622418 85.4257812,14.5117188 C85.9335963,14.0611957 86.1875,13.5026075 86.1875,12.8359375 L86.1875,11.90625 L83.7265625,12.078125 C83.0182256,12.1250002 82.4804706,12.2825507 82.1132812,12.5507812 C81.7460919,12.8190118 81.5625,13.1901018 81.5625,13.6640625 C81.5625,14.1171898 81.7447898,14.4843736 82.109375,14.765625 C82.4739602,15.0468764 82.9479137,15.1875 83.53125,15.1875 Z M83.328125,16.09375 C82.4895791,16.09375 81.8098984,15.8684918 81.2890625,15.4179688 C80.7682266,14.9674457 80.5078125,14.380212 80.5078125,13.65625 C80.5078125,12.9374964 80.7708307,12.3737 81.296875,11.9648438 C81.8229193,11.5559875 82.5911408,11.3151045 83.6015625,11.2421875 L86.1875,11.0703125 L86.1875,10.3515625 C86.1875,9.73697609 86.0013039,9.26041836 85.6289062,8.921875 C85.2565086,8.58333164 84.7317742,8.4140625 84.0546875,8.4140625 C83.4661429,8.4140625 82.9791686,8.55598816 82.59375,8.83984375 C82.2083314,9.12369934 81.9687505,9.5156225 81.875,10.015625 L80.8828125,10.015625 C80.9244794,9.27603797 81.2434866,8.67057527 81.8398438,8.19921875 C82.4362009,7.72786223 83.1770789,7.4921875 84.0625,7.4921875 C85.0260465,7.4921875 85.7929659,7.742185 86.3632812,8.2421875 C86.9335966,8.74219 87.21875,9.41666242 87.21875,10.265625 L87.21875,16 L86.234375,16 L86.234375,14.390625 L86.2109375,14.390625 C85.9817697,14.9010442 85.6054714,15.3124984 85.0820312,15.625 C84.5585911,15.9375016 83.9739616,16.09375 83.328125,16.09375 Z M90.65625,18.9296875 C90.4791658,18.9296875 90.3072925,18.9088544 90.140625,18.8671875 L90.140625,17.984375 C90.2968758,18.0208335 90.4661449,18.0390625 90.6484375,18.0390625 C91.0286477,18.0390625 91.3372384,17.9283865 91.5742188,17.7070312 C91.8111991,17.485676 92.0234366,17.1093777 92.2109375,16.578125 L92.3984375,16.0546875 L89.234375,7.5859375 L90.34375,7.5859375 L92.921875,14.953125 L92.9453125,14.953125 L95.53125,7.5859375 L96.625,7.5859375 L93.34375,16.40625 C92.9791648,17.3958383 92.6106789,18.0638004 92.2382812,18.4101562 C91.8658836,18.7565121 91.3385451,18.9296875 90.65625,18.9296875 Z M98.4140625,12.9375 L99.484375,12.9375 C99.541667,13.6145867 99.8619762,14.1627583 100.445312,14.5820312 C101.028649,15.0013042 101.760412,15.2109375 102.640625,15.2109375 C103.484379,15.2109375 104.178383,15.0052104 104.722656,14.59375 C105.26693,14.1822896 105.539062,13.6588573 105.539062,13.0234375 C105.539062,12.4973932 105.34896,12.0690121 104.96875,11.7382812 C104.58854,11.4075504 103.979171,11.1354177 103.140625,10.921875 L101.742188,10.5625 C100.695307,10.2968737 99.930992,9.93229398 99.4492188,9.46875 C98.9674455,9.00520602 98.7265625,8.40364953 98.7265625,7.6640625 C98.7265625,6.75780797 99.0911422,6.01172168 99.8203125,5.42578125 C100.549483,4.83984082 101.471349,4.546875 102.585938,4.546875 C103.679693,4.546875 104.58984,4.83723668 105.316406,5.41796875 C106.042972,5.99870082 106.421875,6.73697469 106.453125,7.6328125 L105.382812,7.6328125 C105.330729,6.99739266 105.046878,6.48567902 104.53125,6.09765625 C104.015622,5.70963348 103.356775,5.515625 102.554688,5.515625 C101.768225,5.515625 101.118492,5.71223762 100.605469,6.10546875 C100.092445,6.49869988 99.8359375,7.00520523 99.8359375,7.625 C99.8359375,8.10937742 100.020831,8.50390473 100.390625,8.80859375 C100.760419,9.11328277 101.361975,9.37239477 102.195312,9.5859375 L103.414062,9.8984375 C104.549485,10.1848973 105.369789,10.5624977 105.875,11.03125 C106.380211,11.5000023 106.632812,12.1249961 106.632812,12.90625 C106.632812,13.8958383 106.263025,14.6887991 105.523438,15.2851562 C104.78385,15.8815134 103.791673,16.1796875 102.546875,16.1796875 C101.369786,16.1796875 100.401045,15.8815134 99.640625,15.2851562 C98.8802045,14.6887991 98.4713545,13.9062548 98.4140625,12.9375 Z M112.507812,8.40625 C111.7526,8.40625 111.131513,8.66275785 110.644531,9.17578125 C110.15755,9.68880465 109.890625,10.3645791 109.84375,11.203125 L115.078125,11.203125 C115.067708,10.3645791 114.826825,9.68880465 114.355469,9.17578125 C113.884112,8.66275785 113.268233,8.40625 112.507812,8.40625 Z M115.023438,13.6171875 L116.046875,13.6171875 C115.921874,14.3411495 115.540368,14.9348935 114.902344,15.3984375 C114.26432,15.8619815 113.492192,16.09375 112.585938,16.09375 C111.419265,16.09375 110.492191,15.7096393 109.804688,14.9414062 C109.117184,14.1731732 108.773438,13.1302149 108.773438,11.8125 C108.773438,10.5052018 109.115882,9.45833727 109.800781,8.671875 C110.485681,7.88541273 111.393224,7.4921875 112.523438,7.4921875 C113.62761,7.4921875 114.509111,7.86327754 115.167969,8.60546875 C115.826826,9.34765996 116.15625,10.3437438 116.15625,11.59375 L116.15625,12.046875 L109.84375,12.046875 L109.84375,12.1015625 C109.84375,13.0494839 110.09505,13.7994764 110.597656,14.3515625 C111.100263,14.9036486 111.770829,15.1796875 112.609375,15.1796875 C113.22917,15.1796875 113.755206,15.0364598 114.1875,14.75 C114.619794,14.4635402 114.898437,14.0859398 115.023438,13.6171875 Z M118.59375,16 L118.59375,7.5859375 L119.5625,7.5859375 L119.5625,9.078125 L119.59375,9.078125 C119.739584,8.5781225 119.999998,8.18880348 120.375,7.91015625 C120.750002,7.63150902 121.200518,7.4921875 121.726562,7.4921875 C121.950522,7.4921875 122.158853,7.52083305 122.351562,7.578125 L122.351562,8.609375 C122.174478,8.52604125 121.919273,8.484375 121.585938,8.484375 C120.992185,8.484375 120.516929,8.69661246 120.160156,9.12109375 C119.803384,9.54557504 119.625,10.0989549 119.625,10.78125 L119.625,16 L118.59375,16 Z M131.117188,7.5859375 L127.984375,16 L126.890625,16 L123.75,7.5859375 L124.835938,7.5859375 L127.421875,14.8984375 L127.445312,14.8984375 L130.039062,7.5859375 L131.117188,7.5859375 Z M133.257812,16 L133.257812,7.5859375 L134.289062,7.5859375 L134.289062,16 L133.257812,16 Z M133.773438,5.921875 C133.580728,5.921875 133.415365,5.85286527 133.277344,5.71484375 C133.139322,5.57682223 133.070312,5.41406344 133.070312,5.2265625 C133.070312,5.0338532 133.139322,4.86849027 133.277344,4.73046875 C133.415365,4.59244723 133.580728,4.5234375 133.773438,4.5234375 C133.966147,4.5234375 134.130208,4.59244723 134.265625,4.73046875 C134.401042,4.86849027 134.46875,5.0338532 134.46875,5.2265625 C134.46875,5.41406344 134.401042,5.57682223 134.265625,5.71484375 C134.130208,5.85286527 133.966147,5.921875 133.773438,5.921875 Z M144.046875,10.234375 L143.023438,10.234375 C142.91927,9.69791398 142.651044,9.26041836 142.21875,8.921875 C141.786456,8.58333164 141.244795,8.4140625 140.59375,8.4140625 C139.770829,8.4140625 139.109377,8.72135109 138.609375,9.3359375 C138.109373,9.95052391 137.859375,10.7682241 137.859375,11.7890625 C137.859375,12.825526 138.109373,13.6471324 138.609375,14.2539062 C139.109377,14.8606801 139.773433,15.1640625 140.601562,15.1640625 C141.247399,15.1640625 141.783852,15.0091161 142.210938,14.6992188 C142.638023,14.3893214 142.911458,13.9583361 143.03125,13.40625 L144.054688,13.40625 C143.934895,14.2083373 143.559899,14.8567684 142.929688,15.3515625 C142.299476,15.8463566 141.523442,16.09375 140.601562,16.09375 C139.450515,16.09375 138.529951,15.7070351 137.839844,14.9335938 C137.149736,14.1601524 136.804688,13.1119858 136.804688,11.7890625 C136.804688,10.4869727 137.149736,9.44531641 137.839844,8.6640625 C138.529951,7.88280859 139.445307,7.4921875 140.585938,7.4921875 C141.533859,7.4921875 142.321611,7.7552057 142.949219,8.28125 C143.576826,8.8072943 143.942708,9.45832945 144.046875,10.234375 Z M149.710938,8.40625 C148.955725,8.40625 148.334638,8.66275785 147.847656,9.17578125 C147.360675,9.68880465 147.09375,10.3645791 147.046875,11.203125 L152.28125,11.203125 C152.270833,10.3645791 152.02995,9.68880465 151.558594,9.17578125 C151.087237,8.66275785 150.471358,8.40625 149.710938,8.40625 Z M152.226562,13.6171875 L153.25,13.6171875 C153.124999,14.3411495 152.743493,14.9348935 152.105469,15.3984375 C151.467445,15.8619815 150.695317,16.09375 149.789062,16.09375 C148.62239,16.09375 147.695316,15.7096393 147.007812,14.9414062 C146.320309,14.1731732 145.976562,13.1302149 145.976562,11.8125 C145.976562,10.5052018 146.319007,9.45833727 147.003906,8.671875 C147.688806,7.88541273 148.596349,7.4921875 149.726562,7.4921875 C150.830735,7.4921875 151.712236,7.86327754 152.371094,8.60546875 C153.029951,9.34765996 153.359375,10.3437438 153.359375,11.59375 L153.359375,12.046875 L147.046875,12.046875 L147.046875,12.1015625 C147.046875,13.0494839 147.298175,13.7994764 147.800781,14.3515625 C148.303388,14.9036486 148.973954,15.1796875 149.8125,15.1796875 C150.432295,15.1796875 150.958331,15.0364598 151.390625,14.75 C151.822919,14.4635402 152.101562,14.0859398 152.226562,13.6171875 Z M68.765625,40.03125 L68.765625,41 L62.0546875,41 L62.0546875,29.7265625 L63.1171875,29.7265625 L63.1171875,40.03125 L68.765625,40.03125 Z M74.140625,41.09375 C72.9843692,41.09375 72.0585972,40.704431 71.3632812,39.9257812 C70.6679653,39.1471315 70.3203125,38.1015691 70.3203125,36.7890625 C70.3203125,35.4817643 70.6679653,34.438806 71.3632812,33.6601562 C72.0585972,32.8815065 72.9843692,32.4921875 74.140625,32.4921875 C75.3020891,32.4921875 76.2304653,32.8815065 76.9257812,33.6601562 C77.6210972,34.438806 77.96875,35.4817643 77.96875,36.7890625 C77.96875,38.0963607 77.6210972,39.1406211 76.9257812,39.921875 C76.2304653,40.7031289 75.3020891,41.09375 74.140625,41.09375 Z M74.140625,40.1640625 C75.0000043,40.1640625 75.6770809,39.8632843 76.171875,39.2617188 C76.6666691,38.6601532 76.9140625,37.8359427 76.9140625,36.7890625 C76.9140625,35.7421823 76.6666691,34.9179718 76.171875,34.3164062 C75.6770809,33.7148407 75.0000043,33.4140625 74.140625,33.4140625 C73.2864541,33.4140625 72.6119816,33.7148407 72.1171875,34.3164062 C71.6223934,34.9179718 71.375,35.7421823 71.375,36.7890625 C71.375,37.8359427 71.6223934,38.6601532 72.1171875,39.2617188 C72.6119816,39.8632843 73.2864541,40.1640625 74.140625,40.1640625 Z M87.2265625,35.234375 L86.203125,35.234375 C86.0989578,34.697914 85.8307313,34.2604184 85.3984375,33.921875 C84.9661437,33.5833316 84.4244824,33.4140625 83.7734375,33.4140625 C82.9505167,33.4140625 82.289065,33.7213511 81.7890625,34.3359375 C81.28906,34.9505239 81.0390625,35.7682241 81.0390625,36.7890625 C81.0390625,37.825526 81.28906,38.6471324 81.7890625,39.2539062 C82.289065,39.8606801 82.9531209,40.1640625 83.78125,40.1640625 C84.4270866,40.1640625 84.9635395,40.0091161 85.390625,39.6992188 C85.8177105,39.3893214 86.0911452,38.9583361 86.2109375,38.40625 L87.234375,38.40625 C87.1145827,39.2083373 86.7395865,39.8567684 86.109375,40.3515625 C85.4791635,40.8463566 84.7031296,41.09375 83.78125,41.09375 C82.6302026,41.09375 81.7096389,40.7070351 81.0195312,39.9335938 C80.3294236,39.1601524 79.984375,38.1119858 79.984375,36.7890625 C79.984375,35.4869727 80.3294236,34.4453164 81.0195312,33.6640625 C81.7096389,32.8828086 82.6249943,32.4921875 83.765625,32.4921875 C84.7135464,32.4921875 85.5012989,32.7552057 86.1289062,33.28125 C86.7565136,33.8072943 87.1223953,34.4583295 87.2265625,35.234375 Z M92.265625,40.1875 C93.0208371,40.1875 93.6523412,39.9622418 94.1601562,39.5117188 C94.6679713,39.0611957 94.921875,38.5026075 94.921875,37.8359375 L94.921875,36.90625 L92.4609375,37.078125 C91.7526006,37.1250002 91.2148456,37.2825507 90.8476562,37.5507812 C90.4804669,37.8190118 90.296875,38.1901018 90.296875,38.6640625 C90.296875,39.1171898 90.4791648,39.4843736 90.84375,39.765625 C91.2083352,40.0468764 91.6822887,40.1875 92.265625,40.1875 Z M92.0625,41.09375 C91.2239541,41.09375 90.5442734,40.8684918 90.0234375,40.4179688 C89.5026016,39.9674457 89.2421875,39.380212 89.2421875,38.65625 C89.2421875,37.9374964 89.5052057,37.3737 90.03125,36.9648438 C90.5572943,36.5559875 91.3255158,36.3151045 92.3359375,36.2421875 L94.921875,36.0703125 L94.921875,35.3515625 C94.921875,34.7369761 94.7356789,34.2604184 94.3632812,33.921875 C93.9908836,33.5833316 93.4661492,33.4140625 92.7890625,33.4140625 C92.2005179,33.4140625 91.7135436,33.5559882 91.328125,33.8398438 C90.9427064,34.1236993 90.7031255,34.5156225 90.609375,35.015625 L89.6171875,35.015625 C89.6588544,34.276038 89.9778616,33.6705753 90.5742188,33.1992188 C91.1705759,32.7278622 91.9114539,32.4921875 92.796875,32.4921875 C93.7604215,32.4921875 94.5273409,32.742185 95.0976562,33.2421875 C95.6679716,33.74219 95.953125,34.4166624 95.953125,35.265625 L95.953125,41 L94.96875,41 L94.96875,39.390625 L94.9453125,39.390625 C94.7161447,39.9010442 94.3398464,40.3124984 93.8164062,40.625 C93.2929661,40.9375016 92.7083366,41.09375 92.0625,41.09375 Z M98.84375,41 L98.84375,29.234375 L99.875,29.234375 L99.875,41 L98.84375,41 Z M107.484375,29.7265625 L111.484375,29.7265625 C112.557297,29.7265625 113.428382,30.0494759 114.097656,30.6953125 C114.76693,31.3411491 115.101562,32.1874948 115.101562,33.234375 C115.101562,34.2812552 114.765628,35.128903 114.09375,35.7773438 C113.421872,36.4257845 112.549485,36.75 111.476562,36.75 L108.546875,36.75 L108.546875,41 L107.484375,41 L107.484375,29.7265625 Z M108.546875,30.6796875 L108.546875,35.796875 L111.234375,35.796875 C112.098963,35.796875 112.777341,35.5703148 113.269531,35.1171875 C113.761721,34.6640602 114.007812,34.0364623 114.007812,33.234375 C114.007812,32.4322877 113.763023,31.8059918 113.273438,31.3554688 C112.783852,30.9049457 112.104171,30.6796875 111.234375,30.6796875 L108.546875,30.6796875 Z M119.5625,40.1875 C120.317712,40.1875 120.949216,39.9622418 121.457031,39.5117188 C121.964846,39.0611957 122.21875,38.5026075 122.21875,37.8359375 L122.21875,36.90625 L119.757812,37.078125 C119.049476,37.1250002 118.511721,37.2825507 118.144531,37.5507812 C117.777342,37.8190118 117.59375,38.1901018 117.59375,38.6640625 C117.59375,39.1171898 117.77604,39.4843736 118.140625,39.765625 C118.50521,40.0468764 118.979164,40.1875 119.5625,40.1875 Z M119.359375,41.09375 C118.520829,41.09375 117.841148,40.8684918 117.320312,40.4179688 C116.799477,39.9674457 116.539062,39.380212 116.539062,38.65625 C116.539062,37.9374964 116.802081,37.3737 117.328125,36.9648438 C117.854169,36.5559875 118.622391,36.3151045 119.632812,36.2421875 L122.21875,36.0703125 L122.21875,35.3515625 C122.21875,34.7369761 122.032554,34.2604184 121.660156,33.921875 C121.287759,33.5833316 120.763024,33.4140625 120.085938,33.4140625 C119.497393,33.4140625 119.010419,33.5559882 118.625,33.8398438 C118.239581,34.1236993 118,34.5156225 117.90625,35.015625 L116.914062,35.015625 C116.955729,34.276038 117.274737,33.6705753 117.871094,33.1992188 C118.467451,32.7278622 119.208329,32.4921875 120.09375,32.4921875 C121.057296,32.4921875 121.824216,32.742185 122.394531,33.2421875 C122.964847,33.74219 123.25,34.4166624 123.25,35.265625 L123.25,41 L122.265625,41 L122.265625,39.390625 L122.242188,39.390625 C122.01302,39.9010442 121.636721,40.3124984 121.113281,40.625 C120.589841,40.9375016 120.005212,41.09375 119.359375,41.09375 Z M126.6875,43.9296875 C126.510416,43.9296875 126.338543,43.9088544 126.171875,43.8671875 L126.171875,42.984375 C126.328126,43.0208335 126.497395,43.0390625 126.679688,43.0390625 C127.059898,43.0390625 127.368488,42.9283865 127.605469,42.7070312 C127.842449,42.485676 128.054687,42.1093777 128.242188,41.578125 L128.429688,41.0546875 L125.265625,32.5859375 L126.375,32.5859375 L128.953125,39.953125 L128.976562,39.953125 L131.5625,32.5859375 L132.65625,32.5859375 L129.375,41.40625 C129.010415,42.3958383 128.641929,43.0638004 128.269531,43.4101562 C127.897134,43.7565121 127.369795,43.9296875 126.6875,43.9296875 Z M134.71875,41 L134.71875,32.5859375 L135.6875,32.5859375 L135.6875,34.15625 L135.71875,34.15625 C135.901043,33.6510391 136.208331,33.2473973 136.640625,32.9453125 C137.072919,32.6432277 137.58333,32.4921875 138.171875,32.4921875 C138.770836,32.4921875 139.285154,32.6510401 139.714844,32.96875 C140.144533,33.2864599 140.440103,33.7161431 140.601562,34.2578125 L140.625,34.2578125 C140.828126,33.7265598 141.167966,33.2994808 141.644531,32.9765625 C142.121096,32.6536442 142.669268,32.4921875 143.289062,32.4921875 C144.111983,32.4921875 144.770831,32.7460912 145.265625,33.2539062 C145.760419,33.7617213 146.007812,34.4400999 146.007812,35.2890625 L146.007812,41 L144.96875,41 L144.96875,35.5234375 C144.96875,34.8671842 144.795575,34.3515644 144.449219,33.9765625 C144.102863,33.6015606 143.622399,33.4140625 143.007812,33.4140625 C142.382809,33.4140625 141.871096,33.6315082 141.472656,34.0664062 C141.074217,34.5013043 140.875,35.0598924 140.875,35.7421875 L140.875,41 L139.84375,41 L139.84375,35.421875 C139.84375,34.8229137 139.664064,34.3385435 139.304688,33.96875 C138.945311,33.5989565 138.476565,33.4140625 137.898438,33.4140625 C137.273434,33.4140625 136.759117,33.6432269 136.355469,34.1015625 C135.951821,34.5598981 135.75,35.1484339 135.75,35.8671875 L135.75,41 L134.71875,41 Z M152.132812,33.40625 C151.3776,33.40625 150.756513,33.6627579 150.269531,34.1757812 C149.78255,34.6888046 149.515625,35.3645791 149.46875,36.203125 L154.703125,36.203125 C154.692708,35.3645791 154.451825,34.6888046 153.980469,34.1757812 C153.509112,33.6627579 152.893233,33.40625 152.132812,33.40625 Z M154.648438,38.6171875 L155.671875,38.6171875 C155.546874,39.3411495 155.165368,39.9348935 154.527344,40.3984375 C153.88932,40.8619815 153.117192,41.09375 152.210938,41.09375 C151.044265,41.09375 150.117191,40.7096393 149.429688,39.9414062 C148.742184,39.1731732 148.398438,38.1302149 148.398438,36.8125 C148.398438,35.5052018 148.740882,34.4583373 149.425781,33.671875 C150.110681,32.8854127 151.018224,32.4921875 152.148438,32.4921875 C153.25261,32.4921875 154.134111,32.8632775 154.792969,33.6054688 C155.451826,34.34766 155.78125,35.3437438 155.78125,36.59375 L155.78125,37.046875 L149.46875,37.046875 L149.46875,37.1015625 C149.46875,38.0494839 149.72005,38.7994764 150.222656,39.3515625 C150.725263,39.9036486 151.395829,40.1796875 152.234375,40.1796875 C152.85417,40.1796875 153.380206,40.0364598 153.8125,39.75 C154.244794,39.4635402 154.523437,39.0859398 154.648438,38.6171875 Z M158.21875,41 L158.21875,32.5859375 L159.1875,32.5859375 L159.1875,34.15625 L159.21875,34.15625 C159.453126,33.6302057 159.815102,33.2213556 160.304688,32.9296875 C160.794273,32.6380194 161.374997,32.4921875 162.046875,32.4921875 C162.973963,32.4921875 163.712237,32.7695285 164.261719,33.3242188 C164.811201,33.878909 165.085938,34.6328077 165.085938,35.5859375 L165.085938,41 L164.054688,41 L164.054688,35.75 C164.054688,35.010413 163.851565,34.4362 163.445312,34.0273438 C163.03906,33.6184875 162.476566,33.4140625 161.757812,33.4140625 C161.007809,33.4140625 160.402346,33.6575496 159.941406,34.1445312 C159.480466,34.6315129 159.25,35.2682252 159.25,36.0546875 L159.25,41 L158.21875,41 Z M168.351562,30.5703125 L169.382812,30.5703125 L169.382812,32.5859375 L171.070312,32.5859375 L171.070312,33.453125 L169.382812,33.453125 L169.382812,38.890625 C169.382812,39.3281272 169.472655,39.6458323 169.652344,39.84375 C169.832032,40.0416677 170.117186,40.140625 170.507812,40.140625 C170.742189,40.140625 170.942707,40.1302084 171.109375,40.109375 L171.109375,40.9921875 C170.984374,41.028646 170.716148,41.046875 170.304688,41.046875 C169.606767,41.046875 169.106772,40.8828141 168.804688,40.5546875 C168.502603,40.2265609 168.351562,39.6848996 168.351562,38.9296875 L168.351562,33.453125 L167.148438,33.453125 L167.148438,32.5859375 L168.351562,32.5859375 L168.351562,30.5703125 Z"/>
    <rect width="47" height="47" fill="#FFFFFF" stroke="#004A6E" stroke-width="2" stroke-linecap="round" stroke-linejoin="round" rx="20"/>
    <path fill="#00B5D6" d="M24.5217391,12.2189937 L24.5217391,9.88601812 C24.5217391,5.951662 21.3142199,2.75093323 17.3715169,2.75093323 L14.5991341,2.75093323 L14.5991341,0 L9.92260501,0 L9.92260501,2.75093323 L7.15022225,2.75093323 C3.20751924,2.75093323 0,5.951662 0,9.88601812 L0,20.0863512 C0,24.0200299 3.20751924,27.2207587 7.15022225,27.2207587 L9.92260501,27.2207587 L9.92260501,29.9710145 L14.5991341,29.9710145 L14.5991341,27.2207587 L17.3715169,27.2207587 C21.3142199,27.2207587 24.5217391,24.0200299 24.5217391,20.0863512 L24.5217391,17.7526981 L19.84521,17.7526981 L19.84521,20.0863512 C19.84521,21.4465762 18.7353065,22.55413 17.3715169,22.55413 L14.5991341,22.55413 L9.92260501,22.55413 L7.15022225,22.55413 C5.78643259,22.55413 4.67652911,21.4465762 4.67652911,20.0863512 L4.67652911,9.88601812 C4.67652911,8.52511566 5.78643259,7.4175619 7.15022225,7.4175619 L9.92260501,7.4175619 L14.5991341,7.4175619 L17.3715169,7.4175619 C18.7353065,7.4175619 19.84521,8.52511566 19.84521,9.88601812 L19.84521,12.2189937 L24.5217391,12.2189937 Z" transform="translate(11.58 8.855)"/>
    <g transform="translate(0 76)">
      <polygon stroke="#004A6E" stroke-width="2" points="48.467 104 28.534 104 27 106.017 27.091 106.017 38.5 118 49.91 106.017 50 106.017" stroke-linecap="round" stroke-linejoin="round"/>
      <polyline stroke="#264C6C" stroke-width="2" points="33.46 114 29 132.291 29.072 132.291 38 142 46.929 132.291 47 132.291 42.578 114.322" stroke-linecap="round" stroke-linejoin="round"/>
      <path stroke="#00B5D6" stroke-width="2" d="M39 135L45 129M39 130L43 125M39 124L43 120" stroke-linecap="round" stroke-linejoin="round"/>
      <path stroke="#004A6E" stroke-width="2" d="M32 101L32 104M44 100L44 104" stroke-linecap="round" stroke-linejoin="round"/>
      <path fill="#264C6C" d="M67.363,18.2380129 C67.46,17.7532088 67.611,17.2594267 67.611,16.7516792 C67.611,11.8697214 62.979,7.89352929 57.102,7.64514198 C55.67,4.45700605 51.967,2.17762852 47.582,2.17762852 C44.898,2.17762852 42.475,3.03650994 40.657,4.42907495 C37.298,1.69282437 32.679,0 27.57,0 C17.887,0 9.944,6.07701004 9.077,13.8338764 C6.435,15.3411585 4.705,17.8459799 4.705,20.6859746 C4.705,20.8156547 4.743,20.9423422 4.75,21.0710248 C4.262,21.9209284 4,22.9025071 4,23.9519186 L4,45 C4,45 10,42.4004123 10,39.1933231 L10,32.5676664 C11,33.0873845 12.696,33.3866463 14.265,33.3866463 C17.683,33.3866463 20.645,32.0000665 22.491,29.8792977 C24.125,30.2653455 25.818,30.4838066 27.603,30.4838066 C36.408,30.4838066 43.751,25.456208 45.669,18.7148367 C45.685,18.7168318 45.693,18.7178294 45.709,18.7198244 C46.807,22.8157212 51.247,25.8821573 56.571,25.8821573 C56.78,25.8821573 56.982,25.8651992 57.188,25.8562213 C57.778,28.6662898 60.989,30.8060118 64.584,30.8060118 C65.344,30.8060118 66,30.7092505 67,30.532686 L67,39.1933231 C67,42.4004123 69,45 72,45 L72,23.9519186 C72,21.087983 70.097,18.7148367 67.363,18.2380129"/>
      <path stroke="#FFFFFF" stroke-width="2" d="M41 15C41 20.5227294 35.179439 25 28 25M33.7083392 13C34.8976632 16.5371134 32.3421253 20.5670103 28 22" stroke-linecap="round" stroke-linejoin="round"/>
      <path stroke="#264C6C" stroke-width="2" d="M72 54L72 69C74.9638411 67.7815348 77 64.8839651 77 61.5 77 58.1170255 74.9638411 55.2194558 72 54zM5 69L5 54C2.03615886 55.2184652 0 58.1160349 0 61.5 0 64.8829745 2.03615886 67.7805442 5 69z" stroke-linecap="round" stroke-linejoin="round"/>
      <path stroke="#004A6E" stroke-width="2" d="M5,26 L5,68.971398 C5,73.6489813 5.296,78.3839026 7.602,82.0937794 C11.344,88.1152876 21.687,98.7178096 28.82,100.783994 C30.77,101.348321 32.851,100.786006 34.286,99.3414874 L34.277,99.3394755 C36.464,97.1395025 40.003,97.1395025 42.19,99.3394755 C43.626,100.783994 45.728,101.34631 47.679,100.77997 C54.809,98.7137859 65.379,88.1132758 69.122,82.0937794 C71.429,78.3839026 72,73.6489813 72,68.971398 L72,26" stroke-linecap="round" stroke-linejoin="round"/>
      <path stroke="#264C6C" stroke-width="2" d="M49 86C45.5360527 88.6648164 40.4629838 88.6685163 37 86M49 70C45.8247019 72.6646166 41.1743193 72.668716 38 70" stroke-linecap="round" stroke-linejoin="round"/>
      <path stroke="#264C6C" stroke-width="8" d="M54,81.9979977 C47.6129032,77.9973312 39.0967742,78.0033382 32,82" stroke-linecap="round" stroke-linejoin="round"/>
      <path stroke="#264C6C" stroke-width="4" d="M37,40.9993103 C33.8067511,39.6660921 29.5490858,39.6674715 26,41" stroke-linecap="round" stroke-linejoin="round"/>
      <path fill="#00B5D6" d="M34,59.387 C34,60.278 33.278,61 32.387,61 L31.613,61 C30.722,61 30,60.278 30,59.387 L30,55.613 C30,54.722 30.722,54 31.613,54 L32.387,54 C33.278,54 34,54.722 34,55.613 L34,59.387 Z"/>
      <path stroke="#264C6C" stroke-width="4" d="M62,40.9993103 C58.8067511,39.6660921 54.5490858,39.6674715 51,41" stroke-linecap="round" stroke-linejoin="round"/>
      <path fill="#00B5D6" d="M61,59.387 C61,60.278 60.278,61 59.387,61 L58.613,61 C57.722,61 57,60.278 57,59.387 L57,55.613 C57,54.722 57.722,54 58.613,54 L59.387,54 C60.278,54 61,54.722 61,55.613 L61,59.387 Z"/>
      <path stroke="#00B5D6" stroke-width="2" d="M40 52L45 52M70 52L74 52M3 52L14 52M40 57L45 57M58.128 67L58.05 67C50.786 67 45 60.943 45 53.679L45 53.856C45 50.911 47.518 49 50.463 49L66.105 49C69.05 49 71 50.911 71 53.856L71 53.767C71 61.032 65.392 67 58.128 67zM26.845 67L26.767 67C19.503 67 14 60.943 14 53.679L14 53.856C14 50.911 16.235 49 19.18 49L34.822 49C37.767 49 40 50.911 40 53.856L40 53.767C40 61.032 34.109 67 26.845 67z" stroke-linecap="round" stroke-linejoin="round"/>
      <g fill="#FFFFFF" stroke="#004A6E" stroke-width="2" transform="translate(44 69)" stroke-linecap="round" stroke-linejoin="round">
        <path d="M0 80L166 80 166 83C166 84.6568542 164.663792 86 162.994942 86L3.00505766 86C1.34541014 86 0 84.6534829 0 83L0 80zM57.7369372 7.06437277C58.4595488 3.16282742 62.1615544 0 65.9934262 0L173.236817 0C177.074139 0 179.599497 3.16073513 178.876498 7.06437277L166.139561 80 45 80 57.7369372 7.06437277z"/>
      </g>
      <path stroke="#004A6E" stroke-width="2" d="M49.7680664 106.913086C49.7680664 106.913086 62.6066081 110.896647 65.7583008 113.11084 68.9099935 115.325033 76.5050865 133.60635 78.8084719 135.045803 81.1118574 136.485256 88.7237661 144.304834 89.6860057 144.304834M82.4787552 148.987266C82.4787552 148.987266 72.2431176 139.504092 71.0530134 138.448103 69.8629092 137.392113 63.3938802 124.242982 62.5182292 123.056133 62.5182292 123.056133 60.8736979 142.701995 62.5182292 148.1976M27.0435268 106.234933C27.0435268 106.234933 18.1344866 109.543527 14.5039062 111.981027 10.8733259 114.418527 10.0565878 142.664297 10.0565878 147.58394 10.0565878 152.503583 32.4031025 154.187175 43.6715177 154.187175" stroke-linecap="round" stroke-linejoin="round"/>
      <path stroke="#004A6E" stroke-width="2" d="M19.5407366,123.616071 C19.5407366,123.616071 18.4536123,142.202482 18.4536123,144.348688 C18.4536123,146.494893 52.7359783,148.756612 53.6695721,148.756612" stroke-linecap="round" stroke-linejoin="round"/>
    </g>
    <g stroke="#004A6E" stroke-width="2" transform="translate(144 181)" stroke-linecap="round" stroke-linejoin="round">
      <polyline points="14.402 2.402 23.592 2.402 23.592 11.592" transform="rotate(45 18.997 6.997)"/>
      <path d="M18.8272727,7 L0.143961573,7"/>
    </g>
  </g>
</svg>
