<svg width="308" height="435" viewBox="0 0 308 435" fill="none" xmlns="http://www.w3.org/2000/svg">
<g clip-path="url(#clip0)">
<path d="M189.23 422.3C189.182 422.872 188.966 423.417 188.608 423.866C188.251 424.315 187.768 424.648 187.221 424.822C186.674 424.997 186.088 425.005 185.537 424.846C184.985 424.687 184.493 424.368 184.123 423.929C183.753 423.49 183.522 422.951 183.458 422.381C183.394 421.811 183.501 421.234 183.765 420.725C184.029 420.215 184.439 419.795 184.942 419.519C185.444 419.242 186.018 419.121 186.59 419.17C186.969 419.202 187.338 419.308 187.676 419.482C188.014 419.657 188.315 419.896 188.56 420.187C188.805 420.478 188.991 420.814 189.106 421.177C189.221 421.539 189.263 421.921 189.23 422.3V422.3Z" fill="#00B4D4"/>
<path d="M240.21 264.84C239.322 264.84 238.454 264.577 237.715 264.083C236.977 263.59 236.402 262.889 236.062 262.068C235.722 261.248 235.633 260.345 235.806 259.474C235.979 258.603 236.407 257.803 237.035 257.175C237.663 256.547 238.463 256.119 239.334 255.946C240.205 255.773 241.108 255.862 241.928 256.202C242.749 256.542 243.45 257.117 243.943 257.855C244.437 258.594 244.7 259.462 244.7 260.35C244.7 261.541 244.227 262.683 243.385 263.525C242.543 264.367 241.401 264.84 240.21 264.84ZM240.21 257.46C239.636 257.46 239.075 257.63 238.598 257.949C238.121 258.269 237.749 258.722 237.53 259.253C237.311 259.783 237.254 260.367 237.366 260.929C237.479 261.492 237.756 262.009 238.163 262.414C238.57 262.819 239.087 263.095 239.65 263.206C240.214 263.316 240.797 263.257 241.327 263.036C241.856 262.815 242.309 262.442 242.626 261.964C242.944 261.486 243.112 260.924 243.11 260.35C243.11 259.97 243.035 259.593 242.889 259.242C242.743 258.891 242.529 258.571 242.26 258.303C241.991 258.034 241.671 257.822 241.319 257.677C240.967 257.533 240.59 257.459 240.21 257.46V257.46Z" fill="#374D6B"/>
<path d="M266.59 290.44C266.168 290.44 265.764 290.272 265.466 289.974C265.168 289.676 265 289.272 265 288.85V248C265 247.578 265.168 247.174 265.466 246.876C265.764 246.577 266.168 246.41 266.59 246.41C267.012 246.41 267.416 246.577 267.714 246.876C268.012 247.174 268.18 247.578 268.18 248V288.85C268.18 289.059 268.139 289.265 268.059 289.458C267.979 289.651 267.862 289.827 267.714 289.974C267.567 290.122 267.391 290.239 267.198 290.319C267.006 290.399 266.799 290.44 266.59 290.44Z" fill="#00B4D4"/>
<path d="M297.88 227.28C297.722 227.281 297.566 227.251 297.42 227.191C297.274 227.131 297.141 227.042 297.03 226.93C296.81 226.706 296.687 226.404 296.687 226.09C296.687 225.776 296.81 225.474 297.03 225.25L305.58 216.67C305.806 216.45 306.109 216.326 306.425 216.326C306.741 216.326 307.044 216.45 307.27 216.67C307.382 216.781 307.47 216.912 307.531 217.057C307.591 217.202 307.622 217.358 307.622 217.515C307.622 217.672 307.591 217.828 307.531 217.973C307.47 218.118 307.382 218.249 307.27 218.36L298.72 226.93C298.611 227.042 298.48 227.131 298.336 227.191C298.191 227.251 298.036 227.281 297.88 227.28Z" fill="#374D6B"/>
<path d="M306.44 227.27C306.283 227.272 306.128 227.243 305.984 227.183C305.839 227.122 305.708 227.033 305.6 226.92L297.02 218.37C296.829 218.14 296.73 217.847 296.744 217.548C296.757 217.248 296.882 216.965 297.094 216.754C297.305 216.542 297.589 216.417 297.888 216.403C298.187 216.39 298.48 216.489 298.71 216.68L307.28 225.23C307.392 225.341 307.48 225.472 307.541 225.617C307.601 225.762 307.632 225.918 307.632 226.075C307.632 226.232 307.601 226.388 307.541 226.533C307.48 226.678 307.392 226.809 307.28 226.92C307.172 227.033 307.041 227.122 306.896 227.183C306.752 227.243 306.597 227.272 306.44 227.27V227.27Z" fill="#374D6B"/>
<path d="M47.87 140.74C47.6411 140.734 47.4187 140.662 47.2296 140.533C47.0406 140.403 46.8929 140.222 46.8042 140.011C46.7156 139.8 46.6897 139.568 46.7298 139.342C46.7698 139.117 46.8741 138.908 47.0301 138.74L55.58 130.16C55.8101 129.969 56.1034 129.87 56.4024 129.883C56.7014 129.897 56.9845 130.022 57.1962 130.234C57.4079 130.445 57.5328 130.728 57.5464 131.027C57.5601 131.327 57.4616 131.62 57.2701 131.85L48.72 140.42C48.6065 140.527 48.473 140.61 48.3271 140.665C48.1812 140.72 48.0258 140.745 47.87 140.74V140.74Z" fill="#374D6B"/>
<path d="M56.4399 140.73C56.2821 140.731 56.1255 140.701 55.9795 140.641C55.8335 140.581 55.701 140.492 55.59 140.38L47.02 131.83C46.7959 131.607 46.6694 131.304 46.6685 130.988C46.6675 130.672 46.7922 130.369 47.015 130.145C47.2378 129.921 47.5405 129.795 47.8565 129.794C48.1724 129.793 48.4758 129.917 48.7 130.14L57.28 138.69C57.4318 138.859 57.5322 139.068 57.57 139.292C57.6077 139.516 57.581 139.746 57.493 139.956C57.4051 140.165 57.2593 140.346 57.0729 140.475C56.8865 140.605 56.667 140.68 56.4399 140.69V140.73Z" fill="#374D6B"/>
<path d="M6.24998 292.34C5.01343 292.342 3.80407 291.977 2.77495 291.292C1.74583 290.606 0.943194 289.63 0.468612 288.489C-0.00596905 287.347 -0.131156 286.09 0.108871 284.877C0.348898 283.664 0.943322 282.549 1.817 281.674C2.69068 280.799 3.8043 280.203 5.01695 279.961C6.22961 279.719 7.48682 279.842 8.62944 280.315C9.77206 280.788 10.7488 281.589 11.436 282.617C12.1232 283.645 12.49 284.853 12.49 286.09C12.49 287.746 11.8329 289.334 10.6629 290.506C9.49301 291.678 7.90585 292.337 6.24998 292.34V292.34ZM6.24998 281.44C5.32748 281.438 4.42514 281.71 3.65727 282.221C2.88941 282.732 2.29057 283.46 1.93663 284.312C1.58269 285.164 1.48956 286.102 1.66905 287.007C1.84854 287.912 2.29256 288.743 2.94487 289.395C3.59718 290.047 4.42842 290.492 5.3333 290.671C6.23818 290.85 7.17597 290.757 8.02788 290.403C8.87979 290.049 9.60747 289.451 10.1188 288.683C10.63 287.915 10.9019 287.012 10.8999 286.09C10.8973 284.857 10.4066 283.676 9.53508 282.805C8.66361 281.933 7.48243 281.443 6.24998 281.44V281.44Z" fill="#374D6B"/>
<path d="M64.34 434.9C63.9183 434.9 63.5139 434.732 63.2157 434.434C62.9175 434.136 62.75 433.732 62.75 433.31V409.4C62.75 408.978 62.9175 408.574 63.2157 408.276C63.5139 407.978 63.9183 407.81 64.34 407.81C64.7617 407.81 65.1661 407.978 65.4642 408.276C65.7624 408.574 65.9299 408.978 65.9299 409.4V433.31C65.9299 433.519 65.8889 433.725 65.809 433.918C65.7291 434.111 65.6119 434.287 65.4642 434.434C65.3166 434.582 65.1414 434.699 64.9485 434.779C64.7556 434.859 64.5488 434.9 64.34 434.9Z" fill="#374D6B"/>
<path d="M79.28 201.77C78.8574 201.767 78.4529 201.598 78.155 201.298C77.8571 200.998 77.6899 200.593 77.6899 200.17V176.26C77.6899 175.838 77.8575 175.434 78.1556 175.136C78.4538 174.837 78.8583 174.67 79.28 174.67C79.7017 174.67 80.1061 174.837 80.4043 175.136C80.7025 175.434 80.87 175.838 80.87 176.26V200.17C80.87 200.593 80.7028 200.998 80.4049 201.298C80.107 201.598 79.7026 201.767 79.28 201.77V201.77Z" fill="#00B4D4"/>
<path d="M7.41998 413.47C7.10185 413.469 6.79687 413.343 6.57001 413.12C6.3495 412.894 6.22607 412.591 6.22607 412.275C6.22607 411.959 6.3495 411.656 6.57001 411.43L15.12 402.86C15.2306 402.748 15.3622 402.66 15.5073 402.599C15.6523 402.539 15.8078 402.508 15.965 402.508C16.1221 402.508 16.2776 402.539 16.4227 402.599C16.5677 402.66 16.6994 402.748 16.81 402.86C16.9213 402.97 17.0096 403.101 17.0699 403.245C17.1302 403.389 17.1613 403.544 17.1613 403.7C17.1613 403.856 17.1302 404.011 17.0699 404.155C17.0096 404.299 16.9213 404.43 16.81 404.54L8.26001 413.12C8.03682 413.342 7.73508 413.468 7.41998 413.47V413.47Z" fill="#374D6B"/>
<path d="M15.98 413.46C15.6649 413.458 15.3632 413.332 15.14 413.11L6.56 404.56C6.33949 404.334 6.21606 404.031 6.21606 403.715C6.21606 403.399 6.33949 403.096 6.56 402.87C6.67063 402.758 6.80223 402.67 6.94727 402.609C7.0923 402.549 7.24785 402.518 7.40497 402.518C7.56209 402.518 7.71764 402.549 7.86267 402.609C8.0077 402.67 8.13937 402.758 8.25 402.87L16.82 411.42C17.0429 411.645 17.168 411.948 17.168 412.265C17.168 412.582 17.0429 412.885 16.82 413.11C16.5956 413.331 16.2946 413.456 15.98 413.46V413.46Z" fill="#374D6B"/>
<path d="M208.5 199.7C208.237 199.701 207.978 199.632 207.75 199.5C207.565 199.402 207.402 199.269 207.269 199.108C207.137 198.946 207.038 198.76 206.978 198.56C206.919 198.359 206.899 198.149 206.922 197.942C206.945 197.734 207.009 197.533 207.11 197.35L230.53 154.3L237.9 111.7C237.9 111.7 238.9 105.7 239.14 101.7C239.248 100.793 239.248 99.8769 239.14 98.9701C239.079 98.7647 239.06 98.5489 239.084 98.3359C239.108 98.1229 239.175 97.9168 239.281 97.7304C239.387 97.544 239.529 97.3811 239.7 97.2512C239.87 97.1212 240.065 97.0269 240.273 96.9743C240.481 96.9217 240.697 96.9116 240.909 96.9448C241.121 96.9779 241.324 97.0536 241.506 97.1672C241.688 97.2807 241.845 97.4299 241.967 97.6056C242.09 97.7814 242.176 97.9803 242.22 98.1901C242.446 99.4104 242.486 100.658 242.34 101.89C242.08 106.04 241.1 112 241.06 112.25L233.64 155.12C233.612 155.292 233.554 155.458 233.47 155.61L209.92 198.89C209.779 199.141 209.572 199.349 209.322 199.491C209.072 199.634 208.788 199.706 208.5 199.7Z" fill="#374D6B"/>
<path d="M133.11 408.54C132.373 408.57 131.639 408.437 130.959 408.15C130.28 407.863 129.672 407.429 129.18 406.88C128.925 406.543 128.815 406.119 128.873 405.701C128.931 405.283 129.153 404.905 129.49 404.65C129.827 404.395 130.251 404.285 130.669 404.343C131.087 404.401 131.465 404.623 131.72 404.96C132.025 405.157 132.367 405.287 132.726 405.342C133.084 405.397 133.45 405.376 133.8 405.28C134.251 405.15 134.655 404.892 134.962 404.537C135.269 404.182 135.467 403.745 135.53 403.28C135.736 402.527 136 401.792 136.32 401.08C137.023 399.481 137.527 397.802 137.82 396.08L137.92 395.42L138.46 395.03C150.75 386.23 186.27 364.42 191.67 361.11L197.41 292.88L206.78 198.17C206.789 197.954 206.842 197.742 206.936 197.548C207.03 197.353 207.163 197.179 207.326 197.037C207.489 196.896 207.68 196.789 207.886 196.723C208.091 196.657 208.309 196.634 208.524 196.655C208.739 196.677 208.947 196.741 209.137 196.846C209.326 196.95 209.492 197.092 209.625 197.263C209.757 197.434 209.854 197.63 209.908 197.839C209.962 198.048 209.973 198.266 209.94 198.48L200.58 293.17L194.7 362.99L194.01 363.41C193.62 363.65 154.51 387.56 140.84 397.24C140.494 398.958 139.964 400.635 139.26 402.24C139.01 402.798 138.8 403.373 138.63 403.96C138.431 405.034 137.918 406.025 137.157 406.808C136.395 407.591 135.418 408.131 134.35 408.36C133.944 408.465 133.529 408.525 133.11 408.54V408.54Z" fill="#374D6B"/>
<path d="M167.01 353.62L164.9 351.25L169.56 347.1L170.76 320.9L173.94 321.05L172.68 348.58L167.01 353.62Z" fill="#374D6B"/>
<path d="M108.25 429.97L107.7 429.37C103 424.2 93.02 410.32 92.6 409.73L91.96 408.85L131.83 347.76L145.45 286.1C145.541 285.688 145.793 285.328 146.149 285.101C146.506 284.875 146.938 284.799 147.35 284.89C147.762 284.982 148.122 285.233 148.349 285.589C148.575 285.946 148.651 286.377 148.56 286.79L134.81 349.01L95.8099 408.76C98.0199 411.81 105.42 421.95 109.49 426.6C110.197 426.561 110.882 426.343 111.482 425.967C112.082 425.591 112.576 425.069 112.92 424.45C113.81 422.97 113.86 421.97 114.02 419C114.02 418.13 114.12 417.11 114.2 415.89V415.47L114.44 415.11C126.13 397.74 149.23 366.31 151.37 363.4L173.51 292.4C173.645 292.004 173.93 291.676 174.305 291.489C174.679 291.302 175.112 291.27 175.51 291.4C175.707 291.466 175.889 291.569 176.046 291.705C176.203 291.841 176.332 292.007 176.425 292.193C176.517 292.378 176.573 292.581 176.588 292.788C176.602 292.995 176.576 293.203 176.51 293.4L154.22 364.92L154.06 365.14C153.82 365.47 129.53 398.44 117.29 416.61C117.22 417.61 117.17 418.49 117.13 419.24C116.97 422.41 116.88 424 115.59 426.16C113.79 429.16 111.34 429.67 108.99 429.95L108.25 429.97Z" fill="#374D6B"/>
<path d="M183.82 190.88L183.38 187.73L188.61 186.99L188.91 180.21L189.82 179.81C191.34 179.13 194.58 177.18 194.9 175.46C196.332 167.565 195.956 159.449 193.8 151.72L196.8 150.72C199.145 158.948 199.56 167.606 198.01 176.02C197.45 179.1 193.77 181.35 192.01 182.28L191.67 189.78L183.82 190.88Z" fill="#374D6B"/>
<path d="M178.21 162.04C177.793 162.043 177.391 161.88 177.093 161.588C176.795 161.296 176.625 160.897 176.62 160.48C176.615 160.059 176.775 159.653 177.067 159.35C177.359 159.047 177.759 158.871 178.18 158.86C179.69 158.86 182.34 158.75 183.04 158.63C189.18 157.56 192.4 155.7 193.93 152.28C192.29 148.14 189.93 146.03 186.03 145.07C178.26 143.18 172.31 146.47 170.65 150.53C169.624 153.01 169.179 155.692 169.35 158.37C169.374 158.578 169.357 158.788 169.3 158.989C169.244 159.19 169.148 159.378 169.018 159.541C168.756 159.872 168.374 160.086 167.955 160.135C167.536 160.184 167.115 160.065 166.784 159.803C166.453 159.542 166.239 159.159 166.19 158.74C165.955 155.525 166.472 152.3 167.7 149.32C169.87 144.04 177.29 139.67 186.78 141.98C191.93 143.24 195.13 146.25 197.13 151.76L197.33 152.32L197.12 152.87C195.26 157.77 191.21 160.43 183.58 161.76C182.44 161.96 178.93 162.03 178.24 162.04H178.21Z" fill="#374D6B"/>
<path d="M170.03 294.22C169.626 294.231 169.234 294.088 168.932 293.819C168.63 293.551 168.441 293.178 168.404 292.776C168.368 292.374 168.485 291.973 168.733 291.654C168.981 291.335 169.341 291.123 169.74 291.06L181.44 288.91C181.855 288.835 182.283 288.927 182.63 289.167C182.977 289.407 183.214 289.775 183.29 290.19C183.366 290.605 183.273 291.033 183.033 291.38C182.793 291.727 182.425 291.964 182.01 292.04L170.32 294.19L170.03 294.22Z" fill="#374D6B"/>
<path d="M172.57 174.84H172.31C168.09 174.13 166.57 171.84 166.03 170.03C165.676 168.848 165.703 167.585 166.109 166.42C166.515 165.255 167.278 164.247 168.29 163.542C169.302 162.836 170.511 162.467 171.744 162.488C172.978 162.51 174.173 162.92 175.16 163.66C175.327 163.785 175.469 163.941 175.576 164.12C175.682 164.3 175.753 164.498 175.783 164.705C175.813 164.912 175.803 165.122 175.751 165.325C175.7 165.527 175.61 165.717 175.485 165.885C175.36 166.052 175.204 166.194 175.024 166.301C174.845 166.408 174.646 166.478 174.44 166.508C174.233 166.538 174.023 166.528 173.82 166.476C173.618 166.425 173.427 166.335 173.26 166.21C172.81 165.885 172.27 165.708 171.714 165.704C171.159 165.699 170.617 165.867 170.161 166.184C169.705 166.502 169.36 166.953 169.171 167.475C168.983 167.997 168.962 168.565 169.11 169.1C169.37 169.98 170.05 171.21 172.86 171.68C173.256 171.743 173.613 171.954 173.86 172.269C174.107 172.584 174.226 172.981 174.193 173.38C174.16 173.78 173.978 174.152 173.683 174.422C173.387 174.693 173.001 174.842 172.6 174.84H172.57Z" fill="#374D6B"/>
<path d="M174.21 273.19H174.11L149.79 271.73C149.385 271.684 149.013 271.485 148.751 271.174C148.489 270.862 148.356 270.461 148.381 270.055C148.405 269.648 148.584 269.266 148.882 268.988C149.18 268.71 149.573 268.557 149.98 268.56L174.3 270.01C174.509 270.017 174.714 270.064 174.905 270.15C175.095 270.236 175.267 270.359 175.41 270.511C175.553 270.663 175.664 270.842 175.738 271.038C175.812 271.233 175.847 271.441 175.84 271.65C175.833 271.859 175.786 272.064 175.7 272.255C175.614 272.445 175.491 272.617 175.339 272.76C175.187 272.903 175.008 273.014 174.812 273.088C174.617 273.162 174.409 273.197 174.2 273.19H174.21Z" fill="#374D6B"/>
<path d="M204.78 166.38C204.508 166.378 204.24 166.309 204 166.18C203.633 165.972 203.362 165.627 203.248 165.221C203.134 164.814 203.185 164.379 203.39 164.01L213.39 146.07L222.62 113.07L221.22 107.29C221.127 106.882 221.198 106.455 221.418 106.099C221.638 105.744 221.989 105.489 222.395 105.39C222.801 105.292 223.23 105.357 223.588 105.572C223.947 105.787 224.206 106.135 224.31 106.54L225.81 112.72C225.875 112.983 225.875 113.257 225.81 113.52L216.42 147.16C216.384 147.277 216.337 147.391 216.28 147.5L206.22 165.61C206.07 165.855 205.858 166.056 205.605 166.191C205.352 166.326 205.067 166.392 204.78 166.38V166.38Z" fill="#374D6B"/>
<path d="M196.35 192.28C196.088 192.28 195.83 192.215 195.6 192.09L189.91 189.09C189.537 188.891 189.259 188.552 189.136 188.148C189.013 187.744 189.056 187.308 189.255 186.935C189.454 186.562 189.793 186.284 190.197 186.161C190.601 186.038 191.037 186.081 191.41 186.28L197.1 189.28C197.409 189.451 197.652 189.719 197.793 190.042C197.934 190.365 197.963 190.726 197.878 191.068C197.792 191.41 197.596 191.715 197.32 191.934C197.044 192.153 196.703 192.275 196.35 192.28V192.28Z" fill="#374D6B"/>
<g opacity="0.2">
<path opacity="0.2" d="M222.76 68.0099C222.602 68.0112 222.445 67.9811 222.299 67.9213C222.153 67.8614 222.02 67.7732 221.908 67.6615C221.797 67.5498 221.708 67.4171 221.649 67.2709C221.589 67.1247 221.559 66.9679 221.56 66.8099V61.64C221.555 61.5935 221.555 61.5464 221.56 61.4999C221.56 61.3199 221.96 56.7299 216.26 52.2999C209.41 47.4299 205.26 38.9999 205.26 29.7799C205.19 26.0722 205.859 22.3879 207.23 18.942C208.6 15.4962 210.644 12.3579 213.241 9.71106C215.838 7.06417 218.937 4.96181 222.356 3.52649C225.775 2.09117 229.447 1.35168 233.155 1.35168C236.863 1.35168 240.534 2.09117 243.954 3.52649C247.373 4.96181 250.472 7.06417 253.069 9.71106C255.666 12.3579 257.71 15.4962 259.08 18.942C260.451 22.3879 261.12 26.0722 261.05 29.7799C261.05 40.8899 257.18 47.89 247.7 53.91C242.65 57.7 242.95 64.07 242.95 64.13C242.969 64.4266 242.877 64.7195 242.692 64.9523C242.508 65.185 242.243 65.3411 241.95 65.39L222.95 67.9999L222.76 68.0099Z" fill="#00B4D4"/>
</g>
<path d="M224.4 84.3699C224.006 84.3657 223.628 84.2157 223.339 83.949C223.05 83.6822 222.87 83.3177 222.834 82.9258C222.798 82.5339 222.908 82.1425 223.144 81.8274C223.38 81.5123 223.724 81.296 224.11 81.22L241.75 77.8799C241.96 77.8283 242.178 77.82 242.391 77.8555C242.604 77.891 242.808 77.9693 242.99 78.0862C243.172 78.203 243.327 78.3558 243.448 78.5349C243.569 78.7141 243.652 78.9161 243.692 79.1284C243.732 79.3407 243.729 79.5589 243.682 79.7698C243.635 79.9807 243.545 80.1798 243.419 80.355C243.292 80.5301 243.131 80.6777 242.946 80.7886C242.76 80.8995 242.554 80.9712 242.34 80.9998L224.7 84.3399C224.601 84.3597 224.501 84.3698 224.4 84.3699Z" fill="#00B4D4"/>
<path d="M224.4 92.8399C224.006 92.8357 223.628 92.6857 223.339 92.419C223.05 92.1522 222.87 91.7876 222.834 91.3958C222.798 91.0039 222.908 90.6125 223.144 90.2974C223.38 89.9823 223.724 89.7659 224.11 89.69L241.75 86.3499C241.96 86.2982 242.178 86.29 242.391 86.3254C242.604 86.3609 242.808 86.4396 242.99 86.5564C243.172 86.6732 243.327 86.8257 243.448 87.0049C243.569 87.1841 243.652 87.3861 243.692 87.5984C243.732 87.8107 243.729 88.0289 243.682 88.2398C243.635 88.4507 243.545 88.6498 243.419 88.825C243.292 89.0001 243.131 89.1477 242.946 89.2586C242.76 89.3694 242.554 89.4414 242.34 89.47L224.7 92.8098C224.601 92.8297 224.501 92.8398 224.4 92.8399Z" fill="#00B4D4"/>
<path d="M222.33 72.9799C221.961 72.9714 221.607 72.8334 221.33 72.59C221.161 72.4393 221.025 72.2545 220.932 72.0477C220.839 71.8409 220.79 71.6168 220.79 71.39V65.7299C220.785 65.67 220.785 65.6098 220.79 65.5499C220.79 65.3599 221.2 60.4701 215.1 55.7201C207.53 50.3401 202.98 41.03 202.98 30.84C202.98 22.666 206.227 14.8269 212.007 9.047C217.787 3.26713 225.626 0.0198975 233.8 0.0198975C241.974 0.0198975 249.813 3.26713 255.593 9.047C261.373 14.8269 264.62 22.666 264.62 30.84C264.62 43.12 260.35 50.8399 249.89 57.4999C244.52 61.4999 244.8 68.3801 244.81 68.4501C244.829 68.8491 244.698 69.2406 244.442 69.5477C244.187 69.8549 243.826 70.0555 243.43 70.11L222.58 72.9701L222.33 72.9799ZM223.92 65.7999V69.5699L241.62 67.14C241.739 64.7621 242.371 62.4382 243.472 60.3273C244.574 58.2164 246.118 56.3684 248 54.91L248.09 54.84C257.67 48.77 261.4 42.04 261.4 30.84C261.4 23.5094 258.488 16.479 253.304 11.2955C248.121 6.11203 241.091 3.20007 233.76 3.20007C226.429 3.20007 219.399 6.11203 214.216 11.2955C209.032 16.479 206.12 23.5094 206.12 30.84C206.12 40 210.12 48.35 216.96 53.17C224.11 58.76 223.99 64.8599 223.92 65.7999V65.7999Z" fill="#00B4D4"/>
<path d="M233.5 33.8199H230.68C226.17 33.8199 223.02 31.05 223.02 27.08C223.005 25.0072 223.795 23.0095 225.224 21.5079C226.653 20.0063 228.609 19.1179 230.68 19.0299H240.83C241.236 19.0299 241.625 19.1912 241.912 19.4781C242.199 19.7651 242.36 20.1542 242.36 20.5599C242.36 20.9657 242.199 21.355 241.912 21.642C241.625 21.9289 241.236 22.09 240.83 22.09H230.68C229.418 22.1744 228.237 22.7404 227.381 23.671C226.525 24.6016 226.059 25.8256 226.08 27.09C226.08 29.8 228.45 30.7699 230.68 30.7699H233.5C233.906 30.7699 234.295 30.9312 234.582 31.2181C234.869 31.5051 235.03 31.8941 235.03 32.2999C235.03 32.7057 234.869 33.095 234.582 33.382C234.295 33.6689 233.906 33.83 233.5 33.83V33.8199Z" fill="#00B4D4"/>
<path d="M236.2 45.5498H224.71C224.304 45.5498 223.915 45.3888 223.628 45.1018C223.341 44.8149 223.18 44.4256 223.18 44.0198C223.18 43.614 223.341 43.2249 223.628 42.938C223.915 42.6511 224.304 42.4898 224.71 42.4898H236.2C238.42 42.4898 240.8 41.4898 240.8 38.8198C240.795 38.7433 240.795 38.6664 240.8 38.5899C240.916 38.0282 240.906 37.4475 240.769 36.8904C240.633 36.3333 240.373 35.8139 240.01 35.3699C239.519 34.8535 238.923 34.448 238.263 34.1807C237.602 33.9134 236.892 33.7904 236.18 33.8198H232.02C231.614 33.8198 231.225 33.6588 230.938 33.3719C230.651 33.0849 230.49 32.6956 230.49 32.2898C230.49 31.884 230.651 31.495 230.938 31.208C231.225 30.9211 231.614 30.7598 232.02 30.7598H236.18C237.331 30.7369 238.474 30.9577 239.534 31.4075C240.594 31.8573 241.547 32.5261 242.33 33.3699C242.969 34.1321 243.435 35.0239 243.696 35.9839C243.957 36.9439 244.006 37.9491 243.84 38.93C243.8 42.83 240.66 45.5498 236.2 45.5498Z" fill="#00B4D4"/>
<path d="M232.77 21.35C232.364 21.35 231.975 21.1887 231.688 20.9017C231.401 20.6148 231.24 20.2257 231.24 19.8199V13.4701C231.24 13.0643 231.401 12.675 231.688 12.3881C231.975 12.1011 232.364 11.9401 232.77 11.9401C233.176 11.9401 233.565 12.1011 233.852 12.3881C234.139 12.675 234.3 13.0643 234.3 13.4701V19.8199C234.3 20.2257 234.139 20.6148 233.852 20.9017C233.565 21.1887 233.176 21.35 232.77 21.35Z" fill="#00B4D4"/>
<path d="M232.77 52.63C232.569 52.63 232.37 52.5904 232.184 52.5135C231.999 52.4367 231.83 52.3238 231.688 52.1818C231.546 52.0397 231.433 51.8711 231.356 51.6854C231.28 51.4998 231.24 51.3009 231.24 51.1V44.7499C231.24 44.3441 231.401 43.955 231.688 43.6681C231.975 43.3812 232.364 43.2201 232.77 43.2201C233.176 43.2201 233.565 43.3812 233.852 43.6681C234.139 43.955 234.3 44.3441 234.3 44.7499V51.1C234.3 51.3009 234.26 51.4998 234.183 51.6854C234.107 51.8711 233.994 52.0397 233.852 52.1818C233.71 52.3238 233.541 52.4367 233.355 52.5135C233.17 52.5904 232.971 52.63 232.77 52.63V52.63Z" fill="#00B4D4"/>
<path d="M110.74 284.1C110.46 284.1 103.9 283.87 102.22 278.71C102.142 278.482 102.118 278.239 102.15 278L103.82 266C103.82 265.9 103.82 265.79 103.9 265.69L114.9 234.8C114.951 234.652 115.025 234.514 115.12 234.39L140.95 199.57C141.045 199.44 141.16 199.325 141.29 199.23C142.61 198.28 154.29 189.92 158.15 189.12C161.519 188.564 164.919 188.207 168.33 188.05L169.89 173.05L173.05 173.38L171.36 189.7C171.318 190.078 171.143 190.43 170.867 190.692C170.59 190.953 170.23 191.109 169.85 191.13C166.146 191.289 162.454 191.649 158.79 192.21C156.38 192.71 148.14 198.21 143.35 201.65L117.85 236.1L106.95 266.61L105.36 278.02C106.54 280.73 110.78 280.9 110.82 280.9L110.74 284.1Z" fill="#374D6B"/>
<path d="M120.76 274L117.76 272.86L130.83 238.66C130.906 238.462 131.022 238.282 131.17 238.13L153.57 214.53C153.799 214.286 154.099 214.12 154.427 214.056C154.755 213.992 155.096 214.033 155.399 214.174C155.703 214.315 155.954 214.548 156.118 214.84C156.281 215.132 156.348 215.468 156.31 215.8L151.45 260.28L148.29 259.93L152.63 220.14L133.72 240.1L120.76 274Z" fill="#374D6B"/>
<path d="M122.37 341.46C121.723 341.457 121.079 341.38 120.45 341.23L67.5301 328.92C65.33 328.406 63.4235 327.04 62.2293 325.122C61.0351 323.204 60.6506 320.891 61.1601 318.69L67.87 289.86C68.3863 287.661 69.7526 285.757 71.6698 284.563C73.5871 283.369 75.8991 282.983 78.1 283.49L131.02 295.81C132.109 296.063 133.138 296.527 134.047 297.178C134.957 297.828 135.729 298.651 136.32 299.6C136.54 299.959 136.61 300.39 136.515 300.8C136.419 301.21 136.166 301.565 135.81 301.79C135.633 301.902 135.436 301.977 135.23 302.012C135.023 302.047 134.812 302.04 134.608 301.993C134.405 301.945 134.212 301.858 134.043 301.735C133.873 301.613 133.729 301.458 133.62 301.28C133.25 300.686 132.766 300.171 132.196 299.764C131.627 299.357 130.982 299.067 130.3 298.91L77.3801 286.59C75.9997 286.272 74.5498 286.515 73.3482 287.265C72.1466 288.015 71.2914 289.21 70.97 290.59L64.2601 319.42C63.9425 320.8 64.1853 322.25 64.9351 323.452C65.6849 324.653 66.8806 325.509 68.2601 325.83L121.18 338.15C122.559 338.465 124.006 338.22 125.205 337.471C126.405 336.721 127.259 335.527 127.58 334.15L132.27 314C132.366 313.589 132.62 313.233 132.979 313.009C133.337 312.786 133.769 312.714 134.18 312.81C134.591 312.905 134.947 313.16 135.171 313.518C135.394 313.877 135.466 314.309 135.37 314.72L130.68 334.87C130.239 336.743 129.178 338.413 127.67 339.609C126.162 340.805 124.295 341.457 122.37 341.46Z" fill="#374D6B"/>
<path d="M119.41 313.04C119.271 313.04 119.133 313.019 119 312.98L104.43 309.09L102.43 310.67L96.67 309.76L94.99 306.14L78.53 302.04C78.3173 301.999 78.1152 301.916 77.9359 301.795C77.7566 301.673 77.6039 301.517 77.4873 301.335C77.3706 301.152 77.2925 300.948 77.2575 300.734C77.2226 300.521 77.2316 300.302 77.2841 300.092C77.3366 299.882 77.4315 299.685 77.5628 299.513C77.6942 299.341 77.8593 299.198 78.0481 299.092C78.2368 298.986 78.4451 298.919 78.6604 298.897C78.8756 298.874 79.0932 298.896 79.2999 298.96L97.24 303.42L98.8399 306.88L101.57 307.31L103.77 305.61L119.86 309.91C120.236 310.007 120.564 310.237 120.782 310.559C120.999 310.881 121.092 311.271 121.041 311.657C120.991 312.042 120.801 312.395 120.508 312.65C120.215 312.905 119.838 313.043 119.45 313.04H119.41Z" fill="#374D6B"/>
<path d="M94.86 288.84C94.4501 288.84 94.056 288.683 93.7597 288.399C93.4635 288.116 93.288 287.729 93.27 287.32C93.17 284.73 94.4399 279.46 99.9399 278.03C101.25 277.707 102.591 277.522 103.94 277.48C104.362 277.463 104.773 277.614 105.083 277.9C105.394 278.186 105.578 278.583 105.595 279.005C105.612 279.427 105.461 279.838 105.175 280.148C104.889 280.459 104.492 280.643 104.07 280.66C102.941 280.694 101.818 280.845 100.72 281.11C96.3399 282.25 96.4299 287 96.4299 287.2C96.4366 287.409 96.402 287.617 96.3282 287.812C96.2544 288.008 96.1429 288.187 95.9999 288.339C95.8568 288.492 95.6852 288.614 95.4947 288.7C95.3043 288.786 95.0988 288.834 94.89 288.84H94.86Z" fill="#374D6B"/>
<path d="M112.63 268.95C112.471 268.951 112.314 268.916 112.17 268.85L105.07 265.85C104.803 265.71 104.598 265.474 104.497 265.19C104.396 264.905 104.406 264.594 104.524 264.316C104.643 264.039 104.861 263.816 105.137 263.693C105.412 263.569 105.724 263.554 106.01 263.65L113.1 266.65C113.352 266.76 113.559 266.953 113.685 267.197C113.812 267.441 113.851 267.721 113.796 267.99C113.741 268.26 113.595 268.502 113.383 268.677C113.171 268.851 112.905 268.948 112.63 268.95V268.95Z" fill="#374D6B"/>
<path d="M92.21 390.42C78.6851 380.774 63 374.593 46.5301 372.42C20.3701 369.01 9.98006 352.23 9.04006 338.9C9.01996 338.599 9.08534 338.298 9.22865 338.033C9.37197 337.768 9.58738 337.548 9.85005 337.4C31.3301 325.4 42.1301 315.66 52.6601 298.8L55.3601 300.49C44.6501 317.62 33.7101 327.6 12.3601 339.67C13.6501 351.67 23.3601 366.19 46.9901 369.27C63.9455 371.55 80.0979 377.897 94.07 387.77L92.21 390.42Z" fill="#374D6B"/>
<path d="M79.6601 272.6C79.3758 272.599 79.0969 272.522 78.8524 272.377C78.608 272.232 78.4069 272.024 78.27 271.775C78.1332 271.526 78.0657 271.245 78.0745 270.961C78.0833 270.677 78.168 270.4 78.32 270.16C79.23 268.72 80.2 267.16 81.23 265.5C94.5 244.22 116.7 208.62 148.77 193.5C148.96 193.398 149.169 193.335 149.383 193.317C149.598 193.298 149.814 193.323 150.019 193.39C150.224 193.457 150.413 193.566 150.575 193.708C150.736 193.851 150.867 194.025 150.96 194.22C151.052 194.414 151.104 194.626 151.112 194.841C151.12 195.057 151.084 195.272 151.006 195.473C150.929 195.674 150.811 195.857 150.66 196.011C150.51 196.166 150.329 196.288 150.13 196.37C118.9 211.07 97.01 246.17 83.93 267.15L81.01 271.83C80.869 272.062 80.6711 272.255 80.4348 272.39C80.1986 272.525 79.932 272.597 79.6601 272.6V272.6Z" fill="#374D6B"/>
<path d="M182.65 223.1H179.99C178.896 223.136 177.806 222.947 176.787 222.544C175.769 222.142 174.844 221.534 174.07 220.76C173.301 219.935 172.705 218.963 172.319 217.903C171.932 216.844 171.763 215.717 171.82 214.59C171.94 209.74 175.56 206.47 180.82 206.45C185.38 206.45 190.53 206.45 190.53 206.45C190.952 206.45 191.356 206.617 191.654 206.916C191.953 207.214 192.12 207.618 192.12 208.04C192.12 208.462 191.953 208.866 191.654 209.164C191.356 209.462 190.952 209.63 190.53 209.63V209.63C190.53 209.63 185.39 209.63 180.85 209.63C177.33 209.63 175.1 211.57 175.02 214.63C174.974 215.333 175.07 216.037 175.302 216.702C175.534 217.367 175.897 217.978 176.37 218.5C176.851 218.966 177.421 219.329 178.047 219.566C178.673 219.803 179.341 219.91 180.01 219.88H182.67C182.879 219.88 183.086 219.921 183.279 220.001C183.471 220.081 183.647 220.198 183.794 220.346C183.942 220.493 184.059 220.669 184.139 220.861C184.219 221.054 184.26 221.261 184.26 221.47C184.26 221.679 184.219 221.886 184.139 222.078C184.059 222.271 183.942 222.447 183.794 222.594C183.647 222.742 183.471 222.859 183.279 222.939C183.086 223.019 182.879 223.06 182.67 223.06L182.65 223.1Z" fill="#00B4D4"/>
<path d="M176.24 237.61H171.33V234.43H183.04C186.56 234.43 188.79 232.29 188.87 228.88C188.926 228.078 188.822 227.272 188.565 226.51C188.307 225.748 187.901 225.044 187.37 224.44C186.911 223.989 186.365 223.635 185.765 223.402C185.165 223.168 184.524 223.058 183.88 223.08H179.49C179.065 223.083 178.656 222.917 178.352 222.619C178.049 222.321 177.875 221.915 177.87 221.49C177.866 221.283 177.903 221.076 177.98 220.884C178.057 220.691 178.171 220.516 178.316 220.368C178.461 220.22 178.635 220.102 178.826 220.022C179.017 219.941 179.223 219.9 179.43 219.9H183.88C184.948 219.873 186.009 220.065 187 220.464C187.991 220.863 188.889 221.461 189.64 222.22C190.472 223.123 191.115 224.184 191.529 225.34C191.943 226.496 192.12 227.724 192.05 228.95C191.93 234.11 188.31 237.59 183.05 237.61H176.24Z" fill="#00B4D4"/>
</g>
<defs>
<clipPath id="clip0">
<rect width="307.63" height="434.9" fill="white"/>
</clipPath>
</defs>
</svg>
