<?xml version="1.0" encoding="UTF-8" standalone="no"?>
<svg width="96px" height="96px" viewBox="0 0 96 96" version="1.1" xmlns="http://www.w3.org/2000/svg" xmlns:xlink="http://www.w3.org/1999/xlink">
    <!-- Generator: Sketch 3.7 (28169) - http://www.bohemiancoding.com/sketch -->
    <title>Group 2</title>
    <desc>Created with Sketch.</desc>
    <defs>
        <linearGradient x1="50%" y1="0%" x2="50%" y2="100%" id="linearGradient-1">
            <stop stop-color="#384E6C" offset="0%"></stop>
            <stop stop-color="#2B3D55" offset="100%"></stop>
        </linearGradient>
    </defs>
    <g id="Page-1" stroke="none" stroke-width="1" fill="none" fill-rule="evenodd">
        <g id="epay-web-services-account-manage" transform="translate(-98.000000, -3870.000000)">
            <g id="Group-32" transform="translate(98.000000, 3870.000000)">
                <g id="Group-37">
                    <g id="Group-2">
                        <g id="Group">
                            <path d="M72.8398438,2 C86.28125,2 95,10.71875 95,24.1601563 L95,72.8398438 C95,86.28125 86.28125,95 72.8398438,95 L24.1601562,95 C10.71875,95 2,86.28125 2,72.8398438 L2,24.1601562 C2,10.71875 10.71875,2 24.1601562,2 L72.8398438,2 Z" id="Mask" fill="url(#linearGradient-1)"></path>
                            <path d="M22.2908761,4 C10.9434611,4 4,10.9434611 4,22.2908761 L4,73.7091239 C4,85.0565389 10.9434611,92 22.2908761,92 L73.7091239,92 C85.0565389,92 92,85.0565389 92,73.7091239 L92,22.2908761 C92,10.9434611 85.0565389,4 73.7091239,4 L22.2908761,4 Z M73.125,0 C87,0 96,9 96,22.875 L96,73.125 C96,87 87,96 73.125,96 L22.875,96 C9,96 0,87 0,73.125 L0,22.875 C0,9 9,6.90516062e-24 22.875,6.90516062e-24 L73.125,0 L73.125,0 Z" id="Shape" fill="#00B4D3"></path>
                        </g>
                        <path d="M54,25 L54,22 L40,22 L40,25 L32,25 C28.2683651,25 25,27.9408571 25,32 L25,64 C25,67.452619 28.5466349,71 32,71 L40,71 L40,74 L54,74 L54,71 L64,71 C68.0583968,71 71,67.7308889 71,64 L71,57 L63,57 L63,63 L33,63 L33,33 L63,33 L63,40 L71,40 L71,32 C71,27.8155238 68.1837302,25 64,25 L54,25 Z" id="Fill-1" fill="#FFFFFF"></path>
                    </g>
                </g>
            </g>
        </g>
    </g>
</svg>