<svg xmlns="http://www.w3.org/2000/svg" width="186" height="116" viewBox="0 0 186 116">
  <g fill="none" fill-rule="evenodd" transform="translate(1 1)">
    <path fill="#FFFFFF" stroke="#374D6B" stroke-width="2" d="M178,114 L6,114 C2.66594394,114 0,111.316785 0,108 L0,6 C0,2.68221123 2.66594394,0 6,0 L178,0 C181.334056,0 184,2.68221123 184,6 L184,108 C184,111.316785 181.334056,114 178,114 Z" stroke-linecap="round" stroke-linejoin="round"/>
    <path fill="#374D6B" d="M14.5432729,59.7060862 L14.5432729,56.2006029 C14.5432729,56.0469593 14.5857264,55.9074691 14.6706348,55.7821283 C14.7555431,55.6567874 14.9152492,55.5941179 15.1497579,55.5941179 C15.3842666,55.5941179 15.5439727,55.6567874 15.6288811,55.7821283 C15.7137894,55.9074691 15.7562429,56.0469593 15.7562429,56.2006029 L15.7562429,59.7060862 C15.917973,59.7060862 16.0594848,59.7525829 16.1807824,59.8455778 C16.30208,59.9385726 16.3627279,60.0942355 16.3627279,60.3125712 C16.3627279,60.5309069 16.30208,60.6865698 16.1807824,60.7795647 C16.0594848,60.8725595 15.917973,60.9190562 15.7562429,60.9190562 L15.7562429,63.393515 C15.7562429,63.5875912 15.7097462,63.7371893 15.6167514,63.8423139 C15.5237565,63.9474385 15.3680936,64 15.1497579,64 C14.9314222,64 14.7757593,63.9474385 14.6827645,63.8423139 C14.5897696,63.7371893 14.5432729,63.5875912 14.5432729,63.393515 L14.5432729,60.9190562 L10.9771411,60.9190562 L10.9771411,55.1695784 C10.9771411,55.0159348 11.0195946,54.8764446 11.104503,54.7511038 C11.1894113,54.6257629 11.3491174,54.5630934 11.5836261,54.5630934 C11.8181348,54.5630934 11.9778409,54.6257629 12.0627493,54.7511038 C12.1476576,54.8764446 12.1901111,55.0159348 12.1901111,55.1695784 L12.1901111,59.7060862 L14.5432729,59.7060862 Z M19.7105251,55.7760634 C19.548795,55.7760634 19.4072832,55.7295667 19.2859856,55.6365719 C19.164688,55.543577 19.1040401,55.3879141 19.1040401,55.1695784 C19.1040401,54.9512427 19.164688,54.7955798 19.2859856,54.702585 C19.4072832,54.6095901 19.548795,54.5630934 19.7105251,54.5630934 L23.8831419,54.5630934 C24.2308617,54.5630934 24.51995,54.6783244 24.7504155,54.9087899 C24.9808809,55.1392553 25.0961119,55.4283436 25.0961119,55.7760634 L25.0961119,58.1049658 C25.0961119,58.347561 25.0637664,58.5618502 24.9990743,58.7478399 C24.9343822,58.9338296 24.8090433,59.1117301 24.6230536,59.2815467 C24.8090433,59.4513633 24.9343822,59.6292638 24.9990743,59.8152535 C25.0637664,60.0012432 25.0961119,60.2155324 25.0961119,60.4581276 L25.0961119,62.78703 C25.0961119,63.1347498 24.9808809,63.4238381 24.7504155,63.6543036 C24.51995,63.884769 24.2308617,64 23.8831419,64 L19.7105251,64 C19.548795,64 19.4072832,63.9535033 19.2859856,63.8605085 C19.164688,63.7675136 19.1040401,63.6118507 19.1040401,63.393515 C19.1040401,63.1751793 19.164688,63.0195164 19.2859856,62.9265216 C19.4072832,62.8335267 19.548795,62.78703 19.7105251,62.78703 L23.8831419,62.78703 L23.8831419,60.7734998 C23.8831419,60.4338665 23.8245156,60.2013829 23.7072613,60.0760421 C23.5900069,59.9507012 23.4464735,59.8880317 23.2766569,59.8880317 L20.8992357,59.8880317 C20.7375056,59.8880317 20.5959938,59.841535 20.4746962,59.7485402 C20.3533986,59.6555453 20.2927507,59.4998824 20.2927507,59.2815467 C20.2927507,59.063211 20.3533986,58.9075481 20.4746962,58.8145533 C20.5959938,58.7215584 20.7375056,58.6750617 20.8992357,58.6750617 L23.2766569,58.6750617 C23.4464735,58.6750617 23.5900069,58.6123922 23.7072613,58.4870514 C23.8245156,58.3617105 23.8831419,58.1292269 23.8831419,57.7895936 L23.8831419,55.7760634 L19.7105251,55.7760634 Z M29.0503941,60.9190562 L29.0503941,62.78703 L32.6165259,62.78703 L32.6165259,60.9190562 L29.0503941,60.9190562 Z M29.0503941,59.7060862 L33.1017139,59.7060862 C33.4090012,59.7060862 33.6071176,59.7707773 33.6960692,59.9001614 C33.7850208,60.0295455 33.8294959,60.2357484 33.8294959,60.5187761 L33.8294959,63.2358289 C33.8294959,63.5188566 33.7668264,63.7169731 33.6414856,63.8301842 C33.5161447,63.9433953 33.3160066,64 33.0410654,64 L28.6258546,64 C28.3428269,64 28.1406672,63.9433953 28.0193696,63.8301842 C27.898072,63.7169731 27.8374241,63.5188566 27.8374241,63.2358289 L27.8374241,55.1695784 C27.8374241,55.0321078 27.8717912,54.8966608 27.9405266,54.7632335 C28.0092619,54.6298061 28.148752,54.5630934 28.3590012,54.5630934 L29.0867832,54.5630934 C29.2485133,54.5630934 29.3839603,54.6237413 29.4931282,54.7450389 C29.602296,54.8663365 29.6568791,55.0078483 29.6568791,55.1695784 C29.6568791,55.3555681 29.6002744,55.5031446 29.4870633,55.6123125 C29.3738522,55.7214803 29.2282973,55.7760634 29.0503941,55.7760634 L29.0503941,59.7060862 Z M37.7837781,62.78703 L41.9563949,62.78703 C42.118125,62.78703 42.2596368,62.8335267 42.3809344,62.9265216 C42.502232,63.0195164 42.5628799,63.1751793 42.5628799,63.393515 C42.5628799,63.6118507 42.502232,63.7675136 42.3809344,63.8605085 C42.2596368,63.9535033 42.118125,64 41.9563949,64 L36.5708081,64 L36.5708081,60.0457178 C36.5708081,59.1319425 37.0276889,58.6750617 37.9414642,58.6750617 L41.3499099,58.6750617 L41.3499099,55.7760634 L37.1772931,55.7760634 C37.015563,55.7760634 36.8740512,55.7295667 36.7527536,55.6365719 C36.631456,55.543577 36.5708081,55.3879141 36.5708081,55.1695784 C36.5708081,54.9512427 36.631456,54.7955798 36.7527536,54.702585 C36.8740512,54.6095901 37.015563,54.5630934 37.1772931,54.5630934 L41.2043535,54.5630934 C41.4065162,54.5630934 41.5823951,54.585331 41.7319955,54.6298068 C41.8815958,54.6742825 42.0332156,54.7652544 42.1868592,54.902725 C42.3566758,55.0644551 42.4617989,55.2302261 42.5022314,55.4000427 C42.5426639,55.5698593 42.5628799,55.7639326 42.5628799,55.9822683 L42.5628799,58.4688568 C42.5628799,58.6871925 42.5426639,58.8812658 42.5022314,59.0510824 C42.4617989,59.220899 42.3566758,59.38667 42.1868592,59.5484001 C42.0332156,59.6858707 41.8815958,59.7768426 41.7319955,59.8213184 C41.5823951,59.8657941 41.4065162,59.8880317 41.2043535,59.8880317 L37.7837781,59.8880317 L37.7837781,62.78703 Z M58.8166779,57.6682966 L58.8166779,55.7760634 L55.2505461,55.7760634 L55.2505461,57.6682966 L58.8166779,57.6682966 Z M58.8166779,58.8812666 L54.6440611,58.8812666 C54.4742445,58.8812666 54.3307111,58.8206187 54.2134568,58.6993211 C54.0962024,58.5780235 54.0375761,58.4365117 54.0375761,58.2747816 L54.0375761,55.1695784 C54.0375761,55.0078483 54.0962024,54.8663365 54.2134568,54.7450389 C54.3307111,54.6237413 54.4742445,54.5630934 54.6440611,54.5630934 L59.4231629,54.5630934 C59.5929795,54.5630934 59.7365129,54.6237413 59.8537673,54.7450389 C59.9710216,54.8663365 60.0296479,55.0078483 60.0296479,55.1695784 L60.0296479,63.393515 C60.0296479,63.5552451 59.9750648,63.6967569 59.865897,63.8180545 C59.7567291,63.9393521 59.6091526,64 59.4231629,64 L58.8166779,64 C58.6306882,64 58.4831117,63.9393521 58.3739439,63.8180545 C58.264776,63.6967569 58.2101929,63.5552451 58.2101929,63.393515 C58.2101929,63.2075253 58.2667976,63.0599488 58.3800087,62.950781 C58.4932198,62.8416131 58.6387747,62.78703 58.8166779,62.78703 L58.8166779,58.8812666 Z M67.5500619,62.78703 L67.5500619,59.8880317 L63.9839301,59.8880317 L63.9839301,62.78703 L67.5500619,62.78703 Z M66.9435769,54.5630934 C67.1538261,54.5630934 67.3074674,54.6237413 67.4045055,54.7450389 C67.5015436,54.8663365 67.5500619,55.0078483 67.5500619,55.1695784 L67.5500619,58.6750617 C67.7360516,58.6750617 67.9018225,58.7053856 68.0473796,58.7660345 C68.1929367,58.8266833 68.3223189,58.9095687 68.43553,59.0146933 C68.6538657,59.2249425 68.7630319,59.5200956 68.7630319,59.9001614 L68.7630319,62.78703 C68.7630319,63.1590093 68.6558873,63.4541624 68.4415949,63.6724981 C68.2273024,63.8908338 67.9301277,64 67.5500619,64 L63.9839301,64 C63.6038643,64 63.3066896,63.8908338 63.0923972,63.6724981 C62.8781047,63.4541624 62.7709601,63.1590093 62.7709601,62.78703 L62.7709601,59.9001614 C62.7709601,59.5200956 62.8801263,59.2249425 63.098462,59.0146933 C63.2116731,58.9095687 63.3410553,58.8266833 63.4866124,58.7660345 C63.6321695,58.7053856 63.7979404,58.6750617 63.9839301,58.6750617 L63.9839301,55.1695784 C63.9839301,55.0078483 64.0324484,54.8663365 64.1294865,54.7450389 C64.2265246,54.6237413 64.3801659,54.5630934 64.5904151,54.5630934 L66.9435769,54.5630934 Z M66.3370919,58.6750617 L66.3370919,55.7760634 L65.1969001,55.7760634 L65.1969001,58.6750617 L66.3370919,58.6750617 Z M75.6769609,59.7060862 L75.6769609,56.2006029 C75.6769609,56.0469593 75.7194144,55.9074691 75.8043228,55.7821283 C75.8892311,55.6567874 76.0489372,55.5941179 76.2834459,55.5941179 C76.5179546,55.5941179 76.6776607,55.6567874 76.7625691,55.7821283 C76.8474774,55.9074691 76.8899309,56.0469593 76.8899309,56.2006029 L76.8899309,59.7060862 C77.051661,59.7060862 77.1931728,59.7525829 77.3144704,59.8455778 C77.435768,59.9385726 77.4964159,60.0942355 77.4964159,60.3125712 C77.4964159,60.5309069 77.435768,60.6865698 77.3144704,60.7795647 C77.1931728,60.8725595 77.051661,60.9190562 76.8899309,60.9190562 L76.8899309,63.393515 C76.8899309,63.5875912 76.8434342,63.7371893 76.7504394,63.8423139 C76.6574445,63.9474385 76.5017816,64 76.2834459,64 C76.0651102,64 75.9094473,63.9474385 75.8164525,63.8423139 C75.7234576,63.7371893 75.6769609,63.5875912 75.6769609,63.393515 L75.6769609,60.9190562 L72.1108291,60.9190562 L72.1108291,55.1695784 C72.1108291,55.0159348 72.1532826,54.8764446 72.238191,54.7511038 C72.3230993,54.6257629 72.4828054,54.5630934 72.7173141,54.5630934 C72.9518228,54.5630934 73.1115289,54.6257629 73.1964373,54.7511038 C73.2813456,54.8764446 73.3237991,55.0159348 73.3237991,55.1695784 L73.3237991,59.7060862 L75.6769609,59.7060862 Z M82.6515384,58.6750617 L84.8834032,58.6750617 C85.0774794,58.6750617 85.2513367,58.6972993 85.4049803,58.7417751 C85.5586239,58.7862508 85.7082221,58.8772227 85.8537792,59.0146933 C86.0235958,59.1764234 86.1287189,59.3361296 86.1691514,59.4938165 C86.2095839,59.6515033 86.2297999,59.8354686 86.2297999,60.0457178 L86.2297999,62.6414736 C86.2297999,62.8274633 86.2136271,62.9932342 86.1812811,63.1387913 C86.1489351,63.2843484 86.0680712,63.4339466 85.9386871,63.5875902 C85.7850435,63.7735799 85.6253373,63.8888109 85.459564,63.9332867 C85.2937906,63.9777624 85.1017389,64 84.8834032,64 L82.1906098,64 C82.0288797,64 81.8934327,63.979784 81.7842649,63.9393515 C81.675097,63.898919 81.5436932,63.8463575 81.3900496,63.7816654 L80.929121,63.5754605 C80.8482559,63.5431145 80.7673921,63.5087473 80.686527,63.4723581 C80.6056619,63.4359688 80.5308629,63.3935152 80.4621276,63.3449962 C80.3933922,63.2964772 80.3388091,63.2358293 80.2983766,63.1630507 C80.2579441,63.0902721 80.2377281,63.0013219 80.2377281,62.8961973 C80.2377281,62.7344672 80.2943328,62.5929554 80.4075439,62.4716578 C80.520755,62.3503602 80.6582236,62.2897123 80.8199537,62.2897123 C80.8927323,62.2897123 80.9594449,62.2977987 81.0200938,62.3139717 C81.0807426,62.3301447 81.143412,62.3544039 81.2081041,62.3867499 L81.5719951,62.544436 C81.6609467,62.5848685 81.7660697,62.6354084 81.8873673,62.6960573 C82.0086649,62.7567061 82.1178311,62.78703 82.2148692,62.78703 L85.0168299,62.78703 L85.0168299,59.8880317 L81.4385684,59.8880317 L81.4385684,54.5630934 L85.6233149,54.5630934 C85.785045,54.5630934 85.9265568,54.6095901 86.0478544,54.702585 C86.169152,54.7955798 86.2297999,54.9512427 86.2297999,55.1695784 C86.2297999,55.3879141 86.169152,55.543577 86.0478544,55.6365719 C85.9265568,55.7295667 85.785045,55.7760634 85.6233149,55.7760634 L82.6515384,55.7760634 L82.6515384,58.6750617 Z M98.3109811,55.7760634 C98.149251,55.7760634 98.0077392,55.7295667 97.8864416,55.6365719 C97.765144,55.543577 97.7044961,55.3879141 97.7044961,55.1695784 C97.7044961,54.9512427 97.765144,54.7955798 97.8864416,54.702585 C98.0077392,54.6095901 98.149251,54.5630934 98.3109811,54.5630934 L102.483598,54.5630934 C102.831318,54.5630934 103.120406,54.6783244 103.350871,54.9087899 C103.581337,55.1392553 103.696568,55.4283436 103.696568,55.7760634 L103.696568,58.1049658 C103.696568,58.347561 103.664222,58.5618502 103.59953,58.7478399 C103.534838,58.9338296 103.409499,59.1117301 103.22351,59.2815467 C103.409499,59.4513633 103.534838,59.6292638 103.59953,59.8152535 C103.664222,60.0012432 103.696568,60.2155324 103.696568,60.4581276 L103.696568,62.78703 C103.696568,63.1347498 103.581337,63.4238381 103.350871,63.6543036 C103.120406,63.884769 102.831318,64 102.483598,64 L98.3109811,64 C98.149251,64 98.0077392,63.9535033 97.8864416,63.8605085 C97.765144,63.7675136 97.7044961,63.6118507 97.7044961,63.393515 C97.7044961,63.1751793 97.765144,63.0195164 97.8864416,62.9265216 C98.0077392,62.8335267 98.149251,62.78703 98.3109811,62.78703 L102.483598,62.78703 L102.483598,60.7734998 C102.483598,60.4338665 102.424972,60.2013829 102.307717,60.0760421 C102.190463,59.9507012 102.04693,59.8880317 101.877113,59.8880317 L99.4996917,59.8880317 C99.3379616,59.8880317 99.1964498,59.841535 99.0751522,59.7485402 C98.9538546,59.6555453 98.8932067,59.4998824 98.8932067,59.2815467 C98.8932067,59.063211 98.9538546,58.9075481 99.0751522,58.8145533 C99.1964498,58.7215584 99.3379616,58.6750617 99.4996917,58.6750617 L101.877113,58.6750617 C102.04693,58.6750617 102.190463,58.6123922 102.307717,58.4870514 C102.424972,58.3617105 102.483598,58.1292269 102.483598,57.7895936 L102.483598,55.7760634 L98.3109811,55.7760634 Z M107.65085,55.7760634 C107.65085,55.913534 107.598289,56.048981 107.493164,56.1824084 C107.388039,56.3158357 107.238441,56.3825484 107.044365,56.3825484 C106.850289,56.3825484 106.700691,56.3158357 106.595566,56.1824084 C106.490442,56.048981 106.43788,55.913534 106.43788,55.7760634 L106.43788,55.1695784 C106.43788,55.0321078 106.490442,54.8966608 106.595566,54.7632335 C106.700691,54.6298061 106.850289,54.5630934 107.044365,54.5630934 L112.429952,54.5630934 L112.429952,58.0807064 C112.429952,58.185831 112.42793,58.270738 112.423887,58.3354301 C112.419844,58.4001222 112.409736,58.4587485 112.393563,58.5113108 C112.37739,58.563873 112.345044,58.614413 112.296525,58.662932 C112.248006,58.711451 112.183315,58.7720989 112.10245,58.8448775 L110.404292,60.3125712 C110.323427,60.3853498 110.260757,60.4439761 110.216282,60.4884519 C110.171806,60.5329276 110.137439,60.5774028 110.113179,60.6218786 C110.08892,60.6663543 110.074769,60.7209374 110.070725,60.7856295 C110.066682,60.8503216 110.06466,60.9352286 110.06466,61.0403532 L110.06466,63.393515 C110.06466,63.5875912 110.018164,63.7371893 109.925169,63.8423139 C109.832174,63.9474385 109.676511,64 109.458175,64 C109.23984,64 109.084177,63.9474385 108.991182,63.8423139 C108.898187,63.7371893 108.85169,63.5875912 108.85169,63.393515 L108.85169,60.4702573 C108.85169,60.3732192 108.853712,60.294377 108.857755,60.2337282 C108.861799,60.1730793 108.873928,60.1184962 108.894144,60.0699772 C108.914361,60.0214582 108.946706,59.9749614 108.991182,59.9304857 C109.035658,59.8860099 109.094284,59.8314268 109.167063,59.7667347 L110.840961,58.3233004 C110.937999,58.2343488 111.012798,58.1635929 111.065361,58.1110307 C111.117923,58.0584684 111.156333,58.0059068 111.180593,57.9533446 C111.204852,57.9007823 111.216982,57.8381128 111.216982,57.7653342 L111.216982,55.7760634 L107.65085,55.7760634 Z M119.950366,62.78703 L119.950366,59.8880317 L116.384234,59.8880317 L116.384234,62.78703 L119.950366,62.78703 Z M119.343881,54.5630934 C119.55413,54.5630934 119.707771,54.6237413 119.80481,54.7450389 C119.901848,54.8663365 119.950366,55.0078483 119.950366,55.1695784 L119.950366,58.6750617 C120.136356,58.6750617 120.302126,58.7053856 120.447684,58.7660345 C120.593241,58.8266833 120.722623,58.9095687 120.835834,59.0146933 C121.05417,59.2249425 121.163336,59.5200956 121.163336,59.9001614 L121.163336,62.78703 C121.163336,63.1590093 121.056191,63.4541624 120.841899,63.6724981 C120.627606,63.8908338 120.330432,64 119.950366,64 L116.384234,64 C116.004168,64 115.706994,63.8908338 115.492701,63.6724981 C115.278409,63.4541624 115.171264,63.1590093 115.171264,62.78703 L115.171264,59.9001614 C115.171264,59.5200956 115.28043,59.2249425 115.498766,59.0146933 C115.611977,58.9095687 115.741359,58.8266833 115.886916,58.7660345 C116.032474,58.7053856 116.198244,58.6750617 116.384234,58.6750617 L116.384234,55.1695784 C116.384234,55.0078483 116.432752,54.8663365 116.529791,54.7450389 C116.626829,54.6237413 116.78047,54.5630934 116.990719,54.5630934 L119.343881,54.5630934 Z M118.737396,58.6750617 L118.737396,55.7760634 L117.597204,55.7760634 L117.597204,58.6750617 L118.737396,58.6750617 Z M126.318458,58.6750617 L128.550323,58.6750617 C128.744399,58.6750617 128.918257,58.6972993 129.0719,58.7417751 C129.225544,58.7862508 129.375142,58.8772227 129.520699,59.0146933 C129.690516,59.1764234 129.795639,59.3361296 129.836071,59.4938165 C129.876504,59.6515033 129.89672,59.8354686 129.89672,60.0457178 L129.89672,62.6414736 C129.89672,62.8274633 129.880547,62.9932342 129.848201,63.1387913 C129.815855,63.2843484 129.734991,63.4339466 129.605607,63.5875902 C129.451963,63.7735799 129.292257,63.8888109 129.126484,63.9332867 C128.960711,63.9777624 128.768659,64 128.550323,64 L125.85753,64 C125.6958,64 125.560353,63.979784 125.451185,63.9393515 C125.342017,63.898919 125.210613,63.8463575 125.05697,63.7816654 L124.596041,63.5754605 C124.515176,63.5431145 124.434312,63.5087473 124.353447,63.4723581 C124.272582,63.4359688 124.197783,63.3935152 124.129048,63.3449962 C124.060312,63.2964772 124.005729,63.2358293 123.965297,63.1630507 C123.924864,63.0902721 123.904648,63.0013219 123.904648,62.8961973 C123.904648,62.7344672 123.961253,62.5929554 124.074464,62.4716578 C124.187675,62.3503602 124.325144,62.2897123 124.486874,62.2897123 C124.559652,62.2897123 124.626365,62.2977987 124.687014,62.3139717 C124.747663,62.3301447 124.810332,62.3544039 124.875024,62.3867499 L125.238915,62.544436 C125.327867,62.5848685 125.43299,62.6354084 125.554287,62.6960573 C125.675585,62.7567061 125.784751,62.78703 125.881789,62.78703 L128.68375,62.78703 L128.68375,59.8880317 L125.105488,59.8880317 L125.105488,54.5630934 L129.290235,54.5630934 C129.451965,54.5630934 129.593477,54.6095901 129.714774,54.702585 C129.836072,54.7955798 129.89672,54.9512427 129.89672,55.1695784 C129.89672,55.3879141 129.836072,55.543577 129.714774,55.6365719 C129.593477,55.7295667 129.451965,55.7760634 129.290235,55.7760634 L126.318458,55.7760634 L126.318458,58.6750617 Z M142.584386,62.78703 L146.757003,62.78703 C146.918733,62.78703 147.060245,62.8335267 147.181542,62.9265216 C147.30284,63.0195164 147.363488,63.1751793 147.363488,63.393515 C147.363488,63.6118507 147.30284,63.7675136 147.181542,63.8605085 C147.060245,63.9535033 146.918733,64 146.757003,64 L141.371416,64 L141.371416,60.0457178 C141.371416,59.1319425 141.828297,58.6750617 142.742072,58.6750617 L146.150518,58.6750617 L146.150518,55.7760634 L141.977901,55.7760634 C141.816171,55.7760634 141.674659,55.7295667 141.553362,55.6365719 C141.432064,55.543577 141.371416,55.3879141 141.371416,55.1695784 C141.371416,54.9512427 141.432064,54.7955798 141.553362,54.702585 C141.674659,54.6095901 141.816171,54.5630934 141.977901,54.5630934 L146.004962,54.5630934 C146.207124,54.5630934 146.383003,54.585331 146.532603,54.6298068 C146.682204,54.6742825 146.833824,54.7652544 146.987467,54.902725 C147.157284,55.0644551 147.262407,55.2302261 147.302839,55.4000427 C147.343272,55.5698593 147.363488,55.7639326 147.363488,55.9822683 L147.363488,58.4688568 C147.363488,58.6871925 147.343272,58.8812658 147.302839,59.0510824 C147.262407,59.220899 147.157284,59.38667 146.987467,59.5484001 C146.833824,59.6858707 146.682204,59.7768426 146.532603,59.8213184 C146.383003,59.8657941 146.207124,59.8880317 146.004962,59.8880317 L142.584386,59.8880317 L142.584386,62.78703 Z M154.883902,57.6682966 L154.883902,55.7760634 L151.31777,55.7760634 L151.31777,57.6682966 L154.883902,57.6682966 Z M154.883902,58.8812666 L150.711285,58.8812666 C150.541468,58.8812666 150.397935,58.8206187 150.280681,58.6993211 C150.163426,58.5780235 150.1048,58.4365117 150.1048,58.2747816 L150.1048,55.1695784 C150.1048,55.0078483 150.163426,54.8663365 150.280681,54.7450389 C150.397935,54.6237413 150.541468,54.5630934 150.711285,54.5630934 L155.490387,54.5630934 C155.660204,54.5630934 155.803737,54.6237413 155.920991,54.7450389 C156.038246,54.8663365 156.096872,55.0078483 156.096872,55.1695784 L156.096872,63.393515 C156.096872,63.5552451 156.042289,63.6967569 155.933121,63.8180545 C155.823953,63.9393521 155.676377,64 155.490387,64 L154.883902,64 C154.697912,64 154.550336,63.9393521 154.441168,63.8180545 C154.332,63.6967569 154.277417,63.5552451 154.277417,63.393515 C154.277417,63.2075253 154.334022,63.0599488 154.447233,62.950781 C154.560444,62.8416131 154.705999,62.78703 154.883902,62.78703 L154.883902,58.8812666 Z M159.444669,55.7760634 C159.282939,55.7760634 159.141427,55.7295667 159.02013,55.6365719 C158.898832,55.543577 158.838184,55.3879141 158.838184,55.1695784 C158.838184,54.9512427 158.898832,54.7955798 159.02013,54.702585 C159.141427,54.6095901 159.282939,54.5630934 159.444669,54.5630934 L163.617286,54.5630934 C163.965006,54.5630934 164.254094,54.6783244 164.484559,54.9087899 C164.715025,55.1392553 164.830256,55.4283436 164.830256,55.7760634 L164.830256,58.1049658 C164.830256,58.347561 164.79791,58.5618502 164.733218,58.7478399 C164.668526,58.9338296 164.543187,59.1117301 164.357198,59.2815467 C164.543187,59.4513633 164.668526,59.6292638 164.733218,59.8152535 C164.79791,60.0012432 164.830256,60.2155324 164.830256,60.4581276 L164.830256,62.78703 C164.830256,63.1347498 164.715025,63.4238381 164.484559,63.6543036 C164.254094,63.884769 163.965006,64 163.617286,64 L159.444669,64 C159.282939,64 159.141427,63.9535033 159.02013,63.8605085 C158.898832,63.7675136 158.838184,63.6118507 158.838184,63.393515 C158.838184,63.1751793 158.898832,63.0195164 159.02013,62.9265216 C159.141427,62.8335267 159.282939,62.78703 159.444669,62.78703 L163.617286,62.78703 L163.617286,60.7734998 C163.617286,60.4338665 163.55866,60.2013829 163.441405,60.0760421 C163.324151,59.9507012 163.180618,59.8880317 163.010801,59.8880317 L160.63338,59.8880317 C160.47165,59.8880317 160.330138,59.841535 160.20884,59.7485402 C160.087543,59.6555453 160.026895,59.4998824 160.026895,59.2815467 C160.026895,59.063211 160.087543,58.9075481 160.20884,58.8145533 C160.330138,58.7215584 160.47165,58.6750617 160.63338,58.6750617 L163.010801,58.6750617 C163.180618,58.6750617 163.324151,58.6123922 163.441405,58.4870514 C163.55866,58.3617105 163.617286,58.1292269 163.617286,57.7895936 L163.617286,55.7760634 L159.444669,55.7760634 Z M169.985378,58.6750617 L172.217243,58.6750617 C172.411319,58.6750617 172.585177,58.6972993 172.73882,58.7417751 C172.892464,58.7862508 173.042062,58.8772227 173.187619,59.0146933 C173.357436,59.1764234 173.462559,59.3361296 173.502991,59.4938165 C173.543424,59.6515033 173.56364,59.8354686 173.56364,60.0457178 L173.56364,62.6414736 C173.56364,62.8274633 173.547467,62.9932342 173.515121,63.1387913 C173.482775,63.2843484 173.401911,63.4339466 173.272527,63.5875902 C173.118883,63.7735799 172.959177,63.8888109 172.793404,63.9332867 C172.627631,63.9777624 172.435579,64 172.217243,64 L169.52445,64 C169.36272,64 169.227273,63.979784 169.118105,63.9393515 C169.008937,63.898919 168.877533,63.8463575 168.72389,63.7816654 L168.262961,63.5754605 C168.182096,63.5431145 168.101232,63.5087473 168.020367,63.4723581 C167.939502,63.4359688 167.864703,63.3935152 167.795968,63.3449962 C167.727232,63.2964772 167.672649,63.2358293 167.632217,63.1630507 C167.591784,63.0902721 167.571568,63.0013219 167.571568,62.8961973 C167.571568,62.7344672 167.628173,62.5929554 167.741384,62.4716578 C167.854595,62.3503602 167.992064,62.2897123 168.153794,62.2897123 C168.226572,62.2897123 168.293285,62.2977987 168.353934,62.3139717 C168.414583,62.3301447 168.477252,62.3544039 168.541944,62.3867499 L168.905835,62.544436 C168.994787,62.5848685 169.09991,62.6354084 169.221207,62.6960573 C169.342505,62.7567061 169.451671,62.78703 169.548709,62.78703 L172.35067,62.78703 L172.35067,59.8880317 L168.772408,59.8880317 L168.772408,54.5630934 L172.957155,54.5630934 C173.118885,54.5630934 173.260397,54.6095901 173.381694,54.702585 C173.502992,54.7955798 173.56364,54.9512427 173.56364,55.1695784 C173.56364,55.3879141 173.502992,55.543577 173.381694,55.6365719 C173.260397,55.7295667 173.118885,55.7760634 172.957155,55.7760634 L169.985378,55.7760634 L169.985378,58.6750617 Z"/>
    <g stroke="#374D6B" stroke-width="2" transform="translate(11 16)" stroke-linecap="round" stroke-linejoin="round">
      <path d="M31 0L4 0C1.88436468 0 0 1.91122932 0 4L0 25C0 27.0887707 1.88436468 29 4 29L31 29C33.1156353 29 35 27.0887707 35 25L35 4C35 1.91122932 33.1156353 0 31 0zM13 28.121L13 7M22 28.121L22 7M23 11L33.59 11M23 16L33.59 16M23 21L33.59 21M0 11L12.59 11M0 16L12.59 16M0 21L12.59 21"/>
    </g>
    <g stroke="#374D6B" stroke-width="2" transform="translate(157 22)" stroke-linecap="round" stroke-linejoin="round">
      <path d="M0 12C.319 11.2336842.503 10.3905263.503 9.5.503 8.60947368.319 7.76631579 0 7M4 14C4.624 12.6213425 4.977 11.1013339 4.977 9.5 4.977 7.89866609 4.624 6.37768933 4 5M8 16C8.63875433 13.8580749 9 11.4934389 9 9.00051316 9 6.50758742 8.63875433 4.1429514 8 2M12 18C13.2772586 15.2450593 14 12.2045455 14 9 14 5.79545455 13.2772586 2.75494071 12 0"/>
    </g>
    <path fill="#374D6B" d="M16.0878703,103.747504 C14.2385772,103.747504 12.7712253,103.124382 11.6857707,101.878119 C10.6003161,100.631856 10.0575969,98.948035 10.0575969,96.8266051 C10.0575969,94.72373 10.6049547,93.0460938 11.6996867,91.7936461 C12.7944188,90.5411985 14.257132,89.914984 16.0878703,89.914984 C17.547513,89.914984 18.786026,90.3216369 19.8034465,91.1349547 C20.8208669,91.9482726 21.4347117,93.0228875 21.6449992,94.3588317 L19.9565227,94.3588317 C19.7400502,93.4805721 19.2792801,92.7770472 18.5741984,92.248236 C17.8691168,91.7194247 17.040349,91.4550231 16.0878703,91.4550231 C14.7828508,91.4550231 13.7376138,91.943625 12.9521281,92.9208434 C12.1666424,93.8980618 11.7739055,95.1999694 11.7739055,96.8266051 C11.7739055,98.4717956 12.16355,99.779888 12.9428508,100.750922 C13.7221516,101.721955 14.7735733,102.207464 16.0971477,102.207464 C17.080551,102.207464 17.9093188,101.981718 18.5834758,101.530218 C19.2576328,101.078719 19.7153105,100.444773 19.9565227,99.6283629 L21.6449992,99.6283629 C21.3357529,100.951937 20.7018074,101.969342 19.7431438,102.680609 C18.7844801,103.391876 17.5660678,103.747504 16.0878703,103.747504 Z M24.2337815,103.524847 L24.2337815,93.5238707 L25.7552659,93.5238707 L25.7552659,95.1474059 L25.7923753,95.1474059 C25.9408135,94.6216871 26.2345931,94.2042108 26.6737229,93.8949645 C27.1128527,93.5857181 27.626194,93.4310973 28.213762,93.4310973 C28.467344,93.4310973 28.6745359,93.4527442 28.835344,93.4960387 L28.835344,95.0917418 C28.6621661,95.0175227 28.3838486,94.9804137 28.0003831,94.9804137 C27.3509658,94.9804137 26.8298935,95.1968829 26.4371507,95.6298278 C26.0444078,96.0627726 25.8480393,96.6317774 25.8480393,97.336859 L25.8480393,103.524847 L24.2337815,103.524847 Z M34.6062552,94.8505309 C33.8207695,94.8505309 33.1698158,95.1102939 32.6533744,95.6298278 C32.136933,96.1493616 31.8508844,96.8327858 31.7952201,97.6801207 L37.2966849,97.6801207 C37.2781302,96.8327858 37.0230058,96.1493616 36.5313041,95.6298278 C36.0396024,95.1102939 35.3979259,94.8505309 34.6062552,94.8505309 Z M37.2595756,100.667425 L38.8552787,100.667425 C38.7192103,101.52713 38.2615326,102.233748 37.4822318,102.787298 C36.702931,103.340849 35.7782984,103.617621 34.708306,103.617621 C33.3043277,103.617621 32.1895113,103.163035 31.3638236,102.253851 C30.5381359,101.344667 30.1252982,100.113885 30.1252982,98.5614684 C30.1252982,97.0090518 30.5365897,95.7659001 31.3591849,94.8319762 C32.1817802,93.8980523 33.2734034,93.4310973 34.6340873,93.4310973 C35.9700315,93.4310973 37.0276381,93.8717667 37.8069388,94.7531188 C38.5862396,95.6344708 38.9758842,96.82969 38.9758842,98.3388121 L38.9758842,98.9696715 L31.7952201,98.9696715 L31.7952201,99.062445 C31.7952201,100.014924 32.0642604,100.775658 32.602349,101.344672 C33.1404376,101.913685 33.8547859,102.198187 34.7454154,102.198187 C35.370093,102.198187 35.9097198,102.060575 36.3643119,101.785345 C36.818904,101.510116 37.1173222,101.13748 37.2595756,100.667425 Z M45.2941587,103.617621 C44.0324336,103.617621 43.0026587,103.14912 42.2048032,102.212103 C41.4069476,101.275087 41.0080258,100.045851 41.0080258,98.524359 C41.0080258,97.009052 41.4038552,95.7813624 42.1955258,94.8412535 C42.9871965,93.9011447 44.0076941,93.4310973 45.2570493,93.4310973 C45.9683159,93.4310973 46.6007151,93.5795333 47.1542661,93.8764098 C47.707817,94.1732863 48.1392092,94.5969474 48.4484555,95.1474059 L48.4855649,95.1474059 L48.4855649,89.5531676 L50.0998227,89.5531676 L50.0998227,103.524847 L48.5597837,103.524847 L48.5597837,101.836371 L48.5319516,101.836371 C48.2041505,102.411569 47.7634811,102.852238 47.2099301,103.158392 C46.6563792,103.464546 46.0177951,103.617621 45.2941587,103.617621 Z M45.5817563,94.8690856 C44.7034967,94.8690856 43.9968794,95.2030666 43.4618833,95.8710387 C42.9268871,96.5390108 42.659393,97.4234421 42.659393,98.524359 C42.659393,99.6314609 42.9268871,100.517438 43.4618833,101.182318 C43.9968794,101.847198 44.7034967,102.179632 45.5817563,102.179632 C46.4476461,102.179632 47.1496247,101.842559 47.6877133,101.168402 C48.225802,100.494245 48.4948422,99.6129061 48.4948422,98.524359 C48.4948422,97.4358119 48.225802,96.5544731 47.6877133,95.880316 C47.1496247,95.206159 46.4476461,94.8690856 45.5817563,94.8690856 Z M53.3009097,103.524847 L53.3009097,93.5238707 L54.9151675,93.5238707 L54.9151675,103.524847 L53.3009097,103.524847 Z M54.1080386,91.9096129 C53.8297169,91.9096129 53.5900546,91.8091094 53.3890445,91.6080993 C53.1880344,91.4070891 53.0875308,91.1674268 53.0875308,90.8891051 C53.0875308,90.6045985 53.1880344,90.36339 53.3890445,90.1654723 C53.5900546,89.9675546 53.8297169,89.8685973 54.1080386,89.8685973 C54.3925452,89.8685973 54.6337538,89.9675546 54.8316714,90.1654723 C55.0295891,90.36339 55.1285464,90.6045985 55.1285464,90.8891051 C55.1285464,91.1674268 55.0295891,91.4070891 54.8316714,91.6080993 C54.6337538,91.8091094 54.3925452,91.9096129 54.1080386,91.9096129 Z M58.5522897,91.2694762 L60.1665475,91.2694762 L60.1665475,93.5238707 L62.1147897,93.5238707 L62.1147897,94.8598082 L60.1665475,94.8598082 L60.1665475,100.86225 C60.1665475,101.319934 60.267051,101.657008 60.4680612,101.87348 C60.6690713,102.089953 60.9829516,102.198187 61.4097116,102.198187 C61.6880333,102.198187 61.9199645,102.182725 62.1055123,102.1518 L62.1055123,103.51557 C61.8704851,103.571234 61.5241344,103.599066 61.0664498,103.599066 C60.1634505,103.599066 59.5186816,103.39342 59.1321237,102.982123 C58.7455657,102.570825 58.5522897,101.885855 58.5522897,100.927191 L58.5522897,94.8598082 L57.1606881,94.8598082 L57.1606881,93.5238707 L58.5522897,93.5238707 L58.5522897,91.2694762 Z"/>
    <path stroke="#00B4D6" stroke-width="2" d="M159.1948,92.9009 C159.1948,86.9989 154.4098,82.2139 148.5078,82.2139 C142.6058,82.2139 137.8208,86.9989 137.8208,92.9009 C137.8208,98.8029 142.6058,103.5879 148.5078,103.5879 C154.4098,103.5879 159.1948,98.8029 159.1948,92.9009 Z" stroke-linecap="round" stroke-linejoin="round"/>
    <path stroke="#00B4D6" stroke-width="2" d="M174.6144,92.9009 C174.6144,86.9989 169.8294,82.2139 163.9274,82.2139 C158.0254,82.2139 153.2404,86.9989 153.2404,92.9009 C153.2404,98.8029 158.0254,103.5879 163.9274,103.5879 C169.8294,103.5879 174.6144,98.8029 174.6144,92.9009 Z" stroke-linecap="round" stroke-linejoin="round"/>
  </g>
</svg>
