<?xml version="1.0" encoding="UTF-8" standalone="no"?>
<svg width="128px" height="211px" viewBox="0 0 128 211" version="1.1" xmlns="http://www.w3.org/2000/svg" xmlns:xlink="http://www.w3.org/1999/xlink">
    <!-- Generator: Sketch 3.8.3 (29802) - http://www.bohemiancoding.com/sketch -->
    <title>Group 29</title>
    <desc>Created with Sketch.</desc>
    <defs>
        <polygon id="path-1" points="8.5475 0.143 0.8455 0.143 0.8455 10.2334 8.5475 10.2334 8.5475 0.143"></polygon>
    </defs>
    <g id="Page-1" stroke="none" stroke-width="1" fill="none" fill-rule="evenodd">
        <g id="colored-icons-and-chars" transform="translate(-144.000000, -1224.000000)">
            <g id="Group-29" transform="translate(145.000000, 1225.000000)">
                <g id="Group-59" transform="translate(9.000000, 12.000000)">
                    <path d="M95.7866,49.549 C95.7866,27.782 78.1406,10.137 56.3746,10.137 C34.6076,10.137 16.9616,27.782 16.9616,49.549 C16.9616,71.316 34.6076,88.962 56.3746,88.962 C78.1406,88.962 95.7866,71.316 95.7866,49.549 L95.7866,49.549 Z" id="Fill-1" fill="#264C6C"></path>
                    <path d="M99.7559,70.6991 C101.5179,65.7521 99.5809,61.8891 95.9529,60.5971 C92.3259,59.3051 88.3819,61.0731 86.6199,66.0201 C84.8579,70.9661 85.9439,77.2181 89.5719,78.5101 C93.1989,79.8021 97.9939,75.6461 99.7559,70.6991 L99.7559,70.6991 Z" id="Stroke-3" stroke="#264C6C" stroke-width="2" stroke-linecap="round" stroke-linejoin="round"></path>
                    <path d="M12.9245,70.6991 C11.1625,65.7521 13.0995,61.8891 16.7275,60.5971 C20.3545,59.3051 24.2985,61.0731 26.0605,66.0201 C27.8225,70.9661 26.7365,77.2181 23.1085,78.5101 C19.4815,79.8021 14.6865,75.6461 12.9245,70.6991 L12.9245,70.6991 Z" id="Stroke-5" stroke="#264C6C" stroke-width="2" stroke-linecap="round" stroke-linejoin="round"></path>
                    <polygon id="Fill-7" fill="#FFFFFF" points="19.4648 89.4198 19.4648 47.5128 68.6618 34.1558 93.2838 47.3468 93.2838 89.4198"></polygon>
                    <path d="M68.7832,33.0866 L18.4652,46.7476 L18.4652,90.4196 L94.2832,90.4196 L94.2832,46.7476 L68.7832,33.0866 Z M68.5392,35.2246 L92.2832,47.9456 L92.2832,88.4196 L20.4652,88.4196 L20.4652,48.2766 L68.5392,35.2246 Z" id="Fill-9" fill="#264C6C"></path>
                    <path d="M0.8347,176.8475 L0.8347,161.8835 C0.8347,149.3555 8.8737,138.2425 20.7717,134.3215 L51.1487,124.3105 C55.1647,122.9875 59.5027,123.0095 63.5037,124.3755 L92.2637,134.1875 C104.0147,138.1965 111.9137,149.2375 111.9137,161.6535 L111.9137,176.8475" id="Stroke-11" stroke="#264C6C" stroke-width="2" stroke-linecap="round" stroke-linejoin="round"></path>
                    <path d="M56.3742,143.0658 L56.3742,143.0658 C47.6352,143.0658 40.5512,135.9818 40.5512,127.2428 L40.5512,109.0278 L72.1972,109.0278 L72.1972,127.2428 C72.1972,135.9818 65.1132,143.0658 56.3742,143.0658" id="Fill-13" fill="#FFFFFF"></path>
                    <path d="M56.3742,143.0658 L56.3742,143.0658 C47.6352,143.0658 40.5512,135.9818 40.5512,127.2428 L40.5512,109.0278 L72.1972,109.0278 L72.1972,127.2428 C72.1972,135.9818 65.1132,143.0658 56.3742,143.0658 L56.3742,143.0658 Z" id="Stroke-15" stroke="#264C6C" stroke-width="2" stroke-linecap="round" stroke-linejoin="round"></path>
                    <path d="M72.4744,90.0431 C68.3714,88.2911 62.6834,87.2001 56.3114,87.2001 C49.7764,87.2001 44.0484,88.3481 39.9284,90.1791 L18.4644,81.7391 L18.4644,101.3101 C18.4644,111.3401 26.5954,119.4711 36.6264,119.4711 L36.6264,119.4711 C38.9294,119.4711 47.8464,120.0121 49.9724,120.8981 L56.0424,124.2441 L64.3924,120.7061 C66.3314,119.9881 74.8944,119.6301 76.9624,119.6301 C86.5974,119.6301 94.2834,111.8301 94.2834,102.1951 L94.2834,81.4801 L72.4744,90.0431 Z" id="Fill-17" fill="#264C6C"></path>
                    <path d="M56.3742,106.9596 L56.3742,106.9596 C49.4102,106.9596 43.7652,101.3146 43.7652,94.3506 L68.9832,94.3506 C68.9832,101.3146 63.3382,106.9596 56.3742,106.9596" id="Fill-19" fill="#FFFFFF"></path>
                    <path d="M74.2059,63.4774 C72.9219,63.4774 71.8809,62.4364 71.8809,61.1524 C71.8809,60.8204 71.9519,60.5074 72.0769,60.2214 C71.9669,60.2124 71.8559,60.2044 71.7429,60.2044 C69.4409,60.2044 67.5749,62.0714 67.5749,64.3734 C67.5749,66.6754 69.4409,68.5414 71.7429,68.5414 C74.0449,68.5414 75.9109,66.6754 75.9109,64.3734 C75.9109,63.8744 75.8189,63.3984 75.6579,62.9554 C75.2599,63.2764 74.7589,63.4774 74.2059,63.4774" id="Fill-21" fill="#00B5D6"></path>
                    <path d="M43.4685,63.4774 C42.1845,63.4774 41.1435,62.4364 41.1435,61.1524 C41.1435,60.8204 41.2145,60.5074 41.3395,60.2214 C41.2295,60.2124 41.1185,60.2044 41.0055,60.2044 C38.7035,60.2044 36.8375,62.0714 36.8375,64.3734 C36.8375,66.6754 38.7035,68.5414 41.0055,68.5414 C43.3075,68.5414 45.1735,66.6754 45.1735,64.3734 C45.1735,63.8744 45.0815,63.3984 44.9205,62.9554 C44.5225,63.2764 44.0215,63.4774 43.4685,63.4774" id="Fill-23" fill="#00B5D6"></path>
                    <g id="Group-27" transform="translate(52.000000, 0.860000)">
                        <mask id="mask-2" fill="white">
                            <use xlink:href="#path-1"></use>
                        </mask>
                        <g id="Clip-26"></g>
                        <path d="M8.5475,10.2334 C5.1325,8.1334 2.8175,4.4174 2.6855,0.1424 C1.5255,2.0194 0.8455,4.2224 0.8455,6.5904 C0.8455,7.8584 1.0375,9.0824 1.3945,10.2334 L8.5475,10.2334 Z" id="Fill-25" fill="#264C6C" mask="url(#mask-2)"></path>
                    </g>
                    <path d="M49.6575,76.1142 C49.6575,79.3832 52.3075,82.0342 55.5775,82.0342 C58.8465,82.0342 61.4975,79.3832 61.4975,76.1142" id="Stroke-28" stroke="#264C6C" stroke-width="2" stroke-linecap="round" stroke-linejoin="round"></path>
                    <path d="M16.9617,52.9647 C16.9617,53.2167 16.9757,53.4647 16.9807,53.7167 C22.9067,57.2807 29.8457,59.3347 37.2647,59.3347 C59.0317,59.3347 76.6777,41.6887 76.6777,19.9217 C76.6777,19.6697 76.6637,19.4217 76.6587,19.1707 C70.7317,15.6057 63.7937,13.5527 56.3737,13.5527 C34.6077,13.5527 16.9617,31.1977 16.9617,52.9647" id="Fill-30" fill="#264C6C"></path>
                    <path d="M56.3742,13.5524 C55.8392,13.5524 55.3082,13.5714 54.7782,13.5924 C54.5242,15.4014 54.3832,17.2474 54.3832,19.1254 C54.3832,40.8924 72.0292,58.5384 93.7962,58.5384 C94.3312,58.5384 94.8622,58.5194 95.3922,58.4984 C95.6462,56.6894 95.7862,54.8444 95.7862,52.9644 C95.7862,31.1984 78.1412,13.5524 56.3742,13.5524" id="Fill-32" fill="#264C6C"></path>
                    <polygon id="Stroke-34" stroke="#264C6C" stroke-width="2" stroke-linecap="round" stroke-linejoin="round" points="84.0295 156.3895 28.7185 156.3895 24.4645 163.3895 24.7155 163.3895 56.3745 196.8955 88.0325 163.3895 88.2845 163.3895"></polygon>
                    <path d="M65.1551,176.0065 C65.1551,179.2545 62.5221,182.3895 59.2751,182.3895 L53.5431,182.3895 C50.2961,182.3895 48.0501,178.7515 48.0501,175.5035 L48.0501,168.5315 C48.0501,165.2835 50.2961,163.3895 53.5431,163.3895 L59.2751,163.3895 C62.3091,163.3895 64.8071,165.6075 65.1221,168.5255" id="Stroke-36" stroke="#00B5D6" stroke-width="2" stroke-linecap="round" stroke-linejoin="round"></path>
                    <path d="M56.0498,161.3895 L56.0498,162.3895" id="Stroke-38" stroke="#00B5D6" stroke-width="2" stroke-linecap="round" stroke-linejoin="round"></path>
                    <path d="M56.0498,182.3895 L56.0498,184.3895" id="Stroke-40" stroke="#00B5D6" stroke-width="2" stroke-linecap="round" stroke-linejoin="round"></path>
                </g>
                <path d="M121,28 L128,28" id="Stroke-2" stroke="#00B4D5" stroke-width="2" stroke-linecap="round" stroke-linejoin="round" stroke-dasharray="0,4"></path>
                <path d="M36,2.5 C36,1.11875 34.88125,0 33.5,0 C32.11875,0 31,1.11875 31,2.5 C31,3.88125 32.11875,5 33.5,5 C34.88125,5 36,3.88125 36,2.5 L36,2.5 Z" id="Stroke-5" stroke="#00B4D5" stroke-width="2" stroke-linecap="round" stroke-linejoin="round"></path>
                <path d="M0,131 L9,131" id="Stroke-17" stroke="#264C6D" stroke-width="2" stroke-linecap="round" stroke-linejoin="round" stroke-dasharray="0,4"></path>
            </g>
        </g>
    </g>
</svg>