<?xml version="1.0" encoding="UTF-8" standalone="no"?>
<svg width="140px" height="179px" viewBox="0 0 140 179" version="1.1" xmlns="http://www.w3.org/2000/svg" xmlns:xlink="http://www.w3.org/1999/xlink">
    <!-- Generator: Sketch 3.8.3 (29802) - http://www.bohemiancoding.com/sketch -->
    <title>Group 30</title>
    <desc>Created with Sketch.</desc>
    <defs></defs>
    <g id="Page-1" stroke="none" stroke-width="1" fill="none" fill-rule="evenodd">
        <g id="colored-icons-and-chars" transform="translate(-379.000000, -1246.000000)">
            <g id="Group-30" transform="translate(380.000000, 1246.000000)">
                <g id="Group-57" transform="translate(20.000000, 0.000000)">
                    <polygon id="Fill-42" fill="#00B5D6" points="54.3846 142.1439 40.2526 142.1439 43.2996 153.6259 51.3376 153.6259"></polygon>
                    <polygon id="Fill-44" fill="#00B5D6" points="40.2519 171.3717 47.2209 178.5877 54.3839 171.3717 51.3369 152.6267 43.2989 152.6267"></polygon>
                    <path d="M4.3828,175.8204 L10.0358,150.1924 C12.7868,137.7224 23.8398,128.8414 36.6098,128.8414 L59.2038,128.8414 C71.9748,128.8414 83.0278,137.7224 85.7778,150.1924 L91.4318,175.8204" id="Stroke-46" stroke="#264C6C" stroke-width="2" stroke-linecap="round" stroke-linejoin="round"></path>
                    <path d="M79.386,163.4839 L82.107,175.8209" id="Stroke-48" stroke="#264C6C" stroke-width="2" stroke-linecap="round" stroke-linejoin="round"></path>
                    <path d="M13.7069,175.8204 C14.6139,171.7084 15.5209,167.5964 16.4279,163.4834" id="Stroke-50" stroke="#264C6C" stroke-width="2" stroke-linecap="round" stroke-linejoin="round"></path>
                    <g id="Group-55" transform="translate(32.000000, 113.860000)">
                        <polyline id="Fill-52" fill="#FFFFFF" points="30.1302 19.2952 30.1302 0.8122 25.3802 0.8122 0.5062 0.8122 0.5062 19.2952"></polyline>
                        <polyline id="Stroke-54" stroke="#264C6C" stroke-width="2" stroke-linecap="round" stroke-linejoin="round" points="30.1302 19.2952 30.1302 0.8122 25.3802 0.8122 0.5062 0.8122 0.5062 19.2952"></polyline>
                    </g>
                    <path d="M70.0314,74.6803 L66.4024,74.8883 C54.4914,75.5693 44.9424,65.1703 46.6334,53.3613 L50.1084,29.0833 C51.5864,18.7603 61.1524,11.5903 71.4754,13.0683 L76.1734,13.7403 C86.8604,15.2703 94.0914,25.4333 92.0334,36.0313 L87.4884,59.4293 C85.8424,67.9073 78.6534,74.1873 70.0314,74.6803" id="Fill-56" fill="#264C6C"></path>
                    <path d="M24.1877,13.1143 L20.5587,12.9063 C8.6477,12.2253 -0.9013,22.6243 0.7897,34.4333 L4.2647,58.7113 C5.7427,69.0343 15.3087,76.2043 25.6317,74.7263 L30.3297,74.0543 C41.0167,72.5243 48.2477,62.3613 46.1897,51.7633 L41.6447,28.3653 C39.9987,19.8873 32.8097,13.6073 24.1877,13.1143" id="Fill-58" fill="#264C6C"></path>
                    <path d="M90.7941,74.5363 C92.5591,69.5833 90.6181,65.7143 86.9861,64.4203 C83.3531,63.1263 79.4041,64.8963 77.6401,69.8503 C75.8751,74.8033 76.9631,81.0643 80.5961,82.3583 C84.2281,83.6523 89.0291,79.4893 90.7941,74.5363" id="Fill-60" fill="#FFFFFF"></path>
                    <path d="M90.7941,74.5363 C92.5591,69.5833 90.6181,65.7143 86.9861,64.4203 C83.3531,63.1263 79.4041,64.8963 77.6401,69.8503 C75.8751,74.8033 76.9631,81.0643 80.5961,82.3583 C84.2281,83.6523 89.0291,79.4893 90.7941,74.5363 L90.7941,74.5363 Z" id="Stroke-62" stroke="#264C6C" stroke-width="2" stroke-linecap="round" stroke-linejoin="round"></path>
                    <path d="M3.8428,74.5363 C2.0778,69.5833 4.0188,65.7143 7.6508,64.4203 C11.2838,63.1263 15.2328,64.8963 16.9968,69.8503 C18.7618,74.8033 17.6738,81.0643 14.0408,82.3583 C10.4088,83.6523 5.6078,79.4893 3.8428,74.5363" id="Fill-64" fill="#FFFFFF"></path>
                    <path d="M3.8428,74.5363 C2.0778,69.5833 4.0188,65.7143 7.6508,64.4203 C11.2838,63.1263 15.2328,64.8963 16.9968,69.8503 C18.7618,74.8033 17.6738,81.0643 14.0408,82.3583 C10.4088,83.6523 5.6078,79.4893 3.8428,74.5363 L3.8428,74.5363 Z" id="Stroke-66" stroke="#264C6C" stroke-width="2" stroke-linecap="round" stroke-linejoin="round"></path>
                    <path d="M47.3185,122.9083 L47.3185,122.9083 C26.4975,122.9083 9.6195,106.0293 9.6195,85.2093 L9.6195,49.9973 C9.6195,29.1763 26.4975,12.2983 47.3185,12.2983 L47.3185,12.2983 C68.1395,12.2983 85.0175,29.1763 85.0175,49.9973 L85.0175,85.2093 C85.0175,106.0293 68.1395,122.9083 47.3185,122.9083" id="Fill-68" fill="#FFFFFF"></path>
                    <path d="M47.3185,122.9083 L47.3185,122.9083 C26.4975,122.9083 9.6195,106.0293 9.6195,85.2093 L9.6195,49.9973 C9.6195,29.1763 26.4975,12.2983 47.3185,12.2983 L47.3185,12.2983 C68.1395,12.2983 85.0175,29.1763 85.0175,49.9973 L85.0175,85.2093 C85.0175,106.0293 68.1395,122.9083 47.3185,122.9083 L47.3185,122.9083 Z" id="Stroke-70" stroke="#264C6C" stroke-width="2" stroke-linecap="round" stroke-linejoin="round"></path>
                    <path d="M51.2845,50.9393 L31.9325,54.6523 C17.2405,57.4703 3.5415,49.1663 1.3755,36.1273 L1.3755,36.1273 C-0.5165,24.7363 7.0535,13.2463 19.3545,8.8383 L37.7475,2.2463 C52.1955,-2.9317 67.7925,3.4643 72.0745,16.3223 L73.0335,19.2013 C77.5985,32.9103 67.3575,47.8563 51.2845,50.9393" id="Fill-72" fill="#264C6C"></path>
                    <path d="M65.1748,68.2025 C63.8888,68.2025 62.8458,67.1595 62.8458,65.8735 C62.8458,65.5415 62.9178,65.2275 63.0428,64.9425 C62.9328,64.9335 62.8208,64.9255 62.7088,64.9255 C60.4028,64.9255 58.5338,66.7945 58.5338,69.0995 C58.5338,71.4045 60.4028,73.2735 62.7088,73.2735 C65.0138,73.2735 66.8828,71.4045 66.8828,69.0995 C66.8828,68.5995 66.7898,68.1225 66.6288,67.6795 C66.2298,68.0015 65.7278,68.2025 65.1748,68.2025" id="Fill-74" fill="#00B5D6"></path>
                    <path d="M34.395,68.2025 C33.109,68.2025 32.066,67.1595 32.066,65.8735 C32.066,65.5415 32.138,65.2275 32.263,64.9425 C32.153,64.9335 32.041,64.9255 31.929,64.9255 C29.623,64.9255 27.754,66.7945 27.754,69.0995 C27.754,71.4045 29.623,73.2735 31.929,73.2735 C34.234,73.2735 36.103,71.4045 36.103,69.0995 C36.103,68.5995 36.01,68.1225 35.849,67.6795 C35.45,68.0015 34.948,68.2025 34.395,68.2025" id="Fill-76" fill="#00B5D6"></path>
                    <path d="M28.1299,96.1568 C33.3629,100.4318 40.0459,102.9978 47.3299,102.9978 C54.6139,102.9978 61.2959,100.4318 66.5299,96.1568" id="Stroke-78" stroke="#264C6C" stroke-width="2" stroke-linecap="round" stroke-linejoin="round"></path>
                    <path d="M41.7653,85.3882 C43.2823,86.6272 45.2183,87.3712 47.3293,87.3712 C49.4403,87.3712 51.3773,86.6272 52.8943,85.3882" id="Stroke-80" stroke="#264C6C" stroke-width="2" stroke-linecap="round" stroke-linejoin="round"></path>
                    <path d="M43.8519,112.4596 C44.7999,113.2336 46.0099,113.6986 47.3299,113.6986 C48.6489,113.6986 49.8599,113.2336 50.8069,112.4596" id="Stroke-82" stroke="#264C6C" stroke-width="2" stroke-linecap="round" stroke-linejoin="round"></path>
                    <path d="M59.8716,52.8298 L73.2686,54.5398" id="Stroke-84" stroke="#264C6C" stroke-width="2" stroke-linecap="round" stroke-linejoin="round"></path>
                    <polygon id="Fill-86" fill="#FFFFFF" points="66.6238 127.4271 47.3188 141.4671 56.9708 149.3651"></polygon>
                    <polygon id="Stroke-88" stroke="#264C6C" stroke-width="2" stroke-linecap="round" stroke-linejoin="round" points="66.6238 127.4271 47.3188 141.4671 56.9708 149.3651"></polygon>
                    <polygon id="Fill-90" fill="#FFFFFF" points="28.0131 127.4271 47.3181 141.4671 37.6661 149.3651"></polygon>
                    <polygon id="Stroke-92" stroke="#264C6C" stroke-width="2" stroke-linecap="round" stroke-linejoin="round" points="28.0131 127.4271 47.3181 141.4671 37.6661 149.3651"></polygon>
                </g>
                <path d="M5,53.5 C5,52.11875 3.88125,51 2.5,51 C1.11875,51 0,52.11875 0,53.5 C0,54.88125 1.11875,56 2.5,56 C3.88125,56 5,54.88125 5,53.5 L5,53.5 Z" id="Stroke-7" stroke="#264C6D" stroke-width="2" stroke-linecap="round" stroke-linejoin="round"></path>
                <path d="M113,123 L140,123" id="Stroke-11" stroke="#00B4D5" stroke-width="2" stroke-linecap="round" stroke-linejoin="round" stroke-dasharray="0,4"></path>
            </g>
        </g>
    </g>
</svg>