<?xml version="1.0" encoding="UTF-8" standalone="no"?>
<svg width="16px" height="11px" viewBox="0 0 16 11" version="1.1" xmlns="http://www.w3.org/2000/svg" xmlns:xlink="http://www.w3.org/1999/xlink" xmlns:sketch="http://www.bohemiancoding.com/sketch/ns">
    <!-- Generator: Sketch 3.5.1 (25234) - http://www.bohemiancoding.com/sketch -->
    <title>EN</title>
    <desc>Created with Sketch.</desc>
    <defs></defs>
    <g id="Page-1" stroke="none" stroke-width="1" fill="none" fill-rule="evenodd" sketch:type="MSPage">
        <g id="iCash-UI" sketch:type="MSArtboardGroup" transform="translate(-410.000000, -402.000000)">
            <g id="Group" sketch:type="MSLayerGroup" transform="translate(410.000000, 387.000000)">
                <g id="Rectangle-42-Copy-2-+-Language---select" transform="translate(0.000000, 15.000000)" sketch:type="MSShapeGroup">
                    <g id="Language---select">
                        <g id="EN">
                            <rect id="Rectangle-78" fill="#FFFFFF" x="0" y="0" width="16" height="11"></rect>
                            <rect id="Rectangle-78-Copy" fill="#322461" x="0" y="0" width="8" height="7"></rect>
                            <g id="Group" transform="translate(1.000000, 1.000000)" fill="#FFFFFF">
                                <rect id="Rectangle-80" x="0" y="0" width="1" height="1"></rect>
                                <rect id="Rectangle-80-Copy" x="2" y="0" width="1" height="1"></rect>
                                <rect id="Rectangle-80-Copy-2" x="4" y="0" width="1" height="1"></rect>
                                <rect id="Rectangle-80-Copy-5" x="1" y="2" width="1" height="1"></rect>
                                <rect id="Rectangle-80-Copy-4" x="3" y="2" width="1" height="1"></rect>
                                <rect id="Rectangle-80-Copy-3" x="5" y="2" width="1" height="1"></rect>
                                <rect id="Rectangle-80-Copy-8" x="0" y="4" width="1" height="1"></rect>
                                <rect id="Rectangle-80-Copy-7" x="2" y="4" width="1" height="1"></rect>
                                <rect id="Rectangle-80-Copy-6" x="4" y="4" width="1" height="1"></rect>
                            </g>
                            <rect id="Rectangle-89" fill="#9E130A" x="8" y="0" width="8" height="1"></rect>
                            <rect id="Rectangle-89-Copy" fill="#9E130A" x="8" y="2" width="8" height="1"></rect>
                            <rect id="Rectangle-89-Copy-2" fill="#9E130A" x="8" y="4" width="8" height="1"></rect>
                            <rect id="Rectangle-89-Copy-3" fill="#9E130A" x="8" y="6" width="8" height="1"></rect>
                            <rect id="Rectangle-89-Copy-4" fill="#9E130A" x="0" y="8" width="16" height="1"></rect>
                            <rect id="Rectangle-89-Copy-5" fill="#9E130A" x="0" y="10" width="16" height="1"></rect>
                        </g>
                    </g>
                </g>
            </g>
        </g>
    </g>
</svg>