<?xml version="1.0" encoding="UTF-8"?>
<svg width="20px" height="14px" viewBox="0 0 20 14" version="1.1" xmlns="http://www.w3.org/2000/svg" xmlns:xlink="http://www.w3.org/1999/xlink">
    <!-- Generator: Sketch 40.3 (33839) - http://www.bohemiancoding.com/sketch -->
    <title>flag-pt</title>
    <desc>Created with Sketch.</desc>
    <defs></defs>
    <g id="Page-1" stroke="none" stroke-width="1" fill="none" fill-rule="evenodd">
        <g id="flag-pt">
            <rect id="Rectangle-path" fill="#FF0000" x="0" y="0" width="20" height="13.3333333"></rect>
            <rect id="Rectangle-path" fill="#006600" x="0" y="0" width="8" height="13.3333333"></rect>
            <g id="Group" transform="translate(4.633333, 3.300000)" stroke="#000000" fill="#FFFF00">
                <path d="M5.97466667,5.43466667 C4.96766667,5.40433333 0.35,2.522 0.318333333,2.063 L0.57332,1.63776667 C1.03135333,2.3033 5.75198667,5.10643333 6.21565333,5.0071 L5.97465667,5.43453333" id="Shape" stroke-width="0.573"></path>
                <path d="M0.519666667,1.58 C0.42933,1.82312333 1.72463333,2.62393333 3.2831,3.5718 C4.8415,4.5196 6.18526667,5.10533333 6.28486667,5.02133333 C6.290952,5.01048533 6.33387,4.93663667 6.32993333,4.93722667 C6.31126633,4.96536067 6.26582,4.97424 6.19491333,4.953807 C5.77388,4.83236367 4.67574667,4.328307 3.31578,3.503607 C1.95584667,2.67884033 0.772646667,1.918807 0.588746667,1.59587367 C0.575959,1.57350167 0.566846,1.532667 0.568698,1.500917 L0.564229667,1.50085033 L0.525073,1.56929033 L0.519693333,1.58002067 L0.519664,1.58002067 L0.519666667,1.58 Z M5.99833333,5.448 C5.981254,5.47898567 5.94941667,5.48001467 5.88894667,5.47337067 C5.51228,5.431684 4.36931333,4.87587067 3.01688,4.06627067 C1.44321333,3.12427067 0.143546667,2.26593733 0.284546667,2.041604 L0.32291,1.973784 L0.330465,1.97613733 C0.203675,2.356304 2.89539833,3.895404 3.053865,3.99353733 C4.61133167,4.95843733 5.924365,5.521904 6.040565,5.37547067 L5.99829167,5.44817067 L5.99829167,5.448104 L5.99833333,5.448 Z" id="Shape" stroke-width="0.573"></path>
                <path d="M3.37233333,2.341 C4.38023333,2.333033 5.624,2.20327 6.33976667,1.918 L6.18555,1.66744 C5.76248333,1.90159667 4.51188333,2.05557333 3.36381667,2.07860667 C2.00595,2.06611233 1.04748333,1.93967 0.56725,1.61744 L0.421676667,1.88425667 C1.30447667,2.25782333 2.20911,2.33715667 3.37234333,2.34102333" id="Shape" stroke-width="0.573"></path>
                <path d="M6.38133333,1.92366667 C6.35669867,1.96306 5.8899,2.12404333 5.20223333,2.24284333 C4.73596667,2.31392667 4.12776667,2.37469333 3.36876667,2.37543 C2.64766667,2.37610667 2.0586,2.32477667 1.61263333,2.26433333 C0.890766667,2.15115 0.5182,1.99366333 0.380466667,1.93801333 C0.393636333,1.91181967 0.402102667,1.89344667 0.414803333,1.86898667 C0.811303333,2.02685333 1.18560333,2.12204667 1.62410333,2.18951333 C2.06713667,2.24951333 2.64910333,2.30158 3.36663667,2.30090333 C4.12210333,2.30014 4.72360333,2.23475667 5.18717,2.16579 C5.89233667,2.05205 6.27753667,1.90567667 6.33163667,1.83770667 L6.38143667,1.92366667 L6.38137,1.92366667 L6.38133333,1.92366667 Z M6.24599,1.66958 C6.16955667,1.73096333 5.78872333,1.86602 5.11869,1.97302667 C4.67152333,2.03711333 4.10295667,2.09447 3.37652333,2.09517667 C2.68639,2.09585333 2.12255667,2.04934333 1.69369,1.98687333 C1.01322333,1.89800333 0.651056667,1.73769333 0.52049,1.69095333 C0.533483333,1.668493 0.546712,1.64621 0.560293333,1.62383667 C0.66189,1.67499 1.01139333,1.81686667 1.70116,1.91458333 C2.12516,1.97470333 2.68986,2.01950667 3.37656,2.0188 C4.09956,2.01806333 4.66166,1.95959333 5.10599333,1.89585667 C5.77949333,1.80319333 6.14189333,1.63095 6.19692667,1.58782333 L6.24602,1.66952 L6.24602,1.66958667 L6.24599,1.66958 Z" id="Shape" stroke-width="0.573"></path>
                <path d="M0.0626666667,3.55533333 C0.6826,3.88876667 2.0595,4.0568 3.36246667,4.06836667 C4.54883333,4.07024667 6.0944,3.88498 6.67236667,3.5787 L6.65646267,3.24496667 C6.47564267,3.52754333 4.81936267,3.7986 3.349596,3.7875 C1.87982933,3.77641667 0.514996,3.54940333 0.0600293333,3.25553333 L0.062676,3.55524667" id="Shape" stroke-width="0.573"></path>
                <path d="M6.704,3.50733333 L6.70402933,3.58691333 C6.61716267,3.69077667 6.072496,3.84776333 5.38946267,3.95831333 C4.86962933,4.03801333 4.191896,4.09813 3.347396,4.09813 C2.545096,4.09813 1.905296,4.04092 1.40912933,3.96475 C0.624829333,3.85053667 0.123162667,3.65054333 0.0224626667,3.59085 L0.0229026667,3.49801 C0.325396,3.69912333 1.144936,3.84624333 1.420136,3.89127667 C1.91306933,3.96694667 2.54906933,4.02371667 3.34736933,4.02371667 C4.18790267,4.02371667 4.861836,3.96401 5.37840267,3.88484 C5.868436,3.81405 6.566536,3.62995667 6.70396933,3.50737333 L6.70399867,3.50737333 L6.704,3.50733333 Z M6.70433333,3.22426 L6.70436267,3.30384 C6.617496,3.40764667 6.07282933,3.56463 5.389796,3.67517333 C4.86996267,3.75487333 4.19222933,3.81499 3.34772933,3.81499 C2.54542933,3.81499 1.90562933,3.75784 1.40946267,3.68161 C0.625162667,3.56745667 0.123496,3.36746 0.022796,3.30774333 L0.023236,3.21490333 C0.325729333,3.41598667 1.14526933,3.56313667 1.42046933,3.60810333 C1.91340267,3.68383333 2.54940267,3.74063 3.34770267,3.74063 C4.188236,3.74063 4.86216933,3.68089333 5.378736,3.60166333 C5.86876933,3.53087333 6.56686933,3.34678 6.70430267,3.22419667 L6.704332,3.22426333 L6.70433333,3.22426 Z" id="Shape" stroke-width="0.573"></path>
                <path d="M3.35966667,5.37733333 C1.93393333,5.368837 0.7123,4.9887 0.454333333,4.92586667 L0.642443333,5.22034667 C1.09811,5.41202333 2.28991,5.69768 3.37334333,5.66604667 C4.45681,5.63444367 5.40367667,5.55051333 6.07094333,5.22568 L6.26381667,4.92049667 C5.80908333,5.13466333 4.26155,5.37513 3.35965,5.37733" id="Shape" stroke-width="0.573"></path>
                <path d="M6.14333333,5.15733333 C6.11499467,5.20063667 6.08609667,5.24341 6.05679,5.28498 C5.74206667,5.39595667 5.24615667,5.51246333 5.03689,5.54644667 C4.60942333,5.63452333 3.94805667,5.69958 3.36109,5.69987667 C2.09809,5.68138533 1.06425667,5.43414667 0.57789,5.22324333 L0.538646667,5.15577333 L0.545055,5.145631 L0.611608333,5.17144267 C1.47654167,5.48088933 2.447975,5.60434267 3.36820833,5.62650933 C3.95280833,5.628566 4.53804167,5.55950933 5.011275,5.47487267 C5.736975,5.32946933 6.03040833,5.21987267 6.12044167,5.17018933 L6.143342,5.15734233 L6.14331267,5.15734233 L6.14333333,5.15733333 Z M6.31057333,4.88149 C6.31130667,4.88234333 6.31204333,4.88316667 6.31275,4.88407667 C6.291555,4.91985333 6.26971333,4.95625 6.24734333,4.99282 C6.07948667,5.05282 5.62394333,5.18611333 4.95871,5.27913 C4.52041,5.33883667 4.24797667,5.39666333 3.37607667,5.41359667 C1.74224333,5.37202667 0.68441,5.05256333 0.43311,4.97376333 L0.395863333,4.90232667 C1.34273,5.14950667 2.30993,5.32206 3.37613,5.33969333 C4.17383,5.32270133 4.51319667,5.26396333 4.94786333,5.20469667 C5.72356333,5.08407667 6.11439667,4.95637 6.23169667,4.91950333 C6.23022667,4.91738667 6.22849333,4.91515233 6.22655233,4.91285933 L6.31065567,4.88143267 L6.310589,4.88149933 L6.31057333,4.88149 Z" id="Shape" stroke-width="0.55"></path>
                <path d="M6.32766667,3.292 C6.332291,4.2299 5.85233333,5.07153333 5.46573333,5.44283333 C4.9188,5.96813333 4.19363333,6.30603333 3.34676667,6.3216 C2.4011,6.33897233 1.50943333,5.72246667 1.27026667,5.45163333 C0.802666667,4.92213333 0.421966667,4.24973333 0.409766667,3.34353333 C0.467686667,2.3199 0.869533333,1.60686667 1.45203333,1.1179 C2.03453333,0.628933333 2.81013333,0.3908 3.45606667,0.407833333 C4.20133333,0.427501 5.0719,0.7931 5.67343333,1.5189 C6.06753333,1.99443333 6.2382,2.5105 6.32766667,3.292 L6.32766667,3.292 Z M3.3548,0.0806 C5.17096667,0.0806 6.66466667,1.55853333 6.66466667,3.3707 C6.66466667,5.18283333 5.17096667,6.66083333 3.3548,6.66083333 C1.53863333,6.66083333 0.0573333333,5.18286667 0.0573333333,3.3707 C0.0573333333,1.55853333 1.53863333,0.0806 3.3548,0.0806 L3.3548,0.0806 Z" id="Shape" stroke-width="0.573"></path>
                <path d="M3.36366667,0.0693333333 C5.18146667,0.0693333333 6.66403333,1.5521 6.66403333,3.37006667 C6.66403333,5.188 5.18143333,6.67073333 3.36366667,6.67073333 C1.54586667,6.67073333 0.0633,5.18803333 0.0633,3.37006667 C0.0633,1.5521 1.5459,0.0693333333 3.36366667,0.0693333333 L3.36366667,0.0693333333 Z M0.135933333,3.37008 C0.135933333,5.14541333 1.5938,6.59814667 3.36366667,6.59814667 C5.13356667,6.59814667 6.59143333,5.14541333 6.59143333,3.37008 C6.59143333,1.59468 5.13353333,0.141946667 3.36366667,0.141946667 C1.5938,0.141946667 0.135933333,1.59474667 0.135933333,3.37008 L0.135933333,3.37008 Z" id="Shape" stroke-width="0.573"></path>
                <path d="M3.36633333,0.343666667 C5.02403333,0.343666667 6.38943333,1.70436667 6.38943333,3.36713333 C6.38943333,5.02993333 5.024,6.39056667 3.36633333,6.39056667 C1.70866667,6.39056667 0.343233333,5.02993333 0.343233333,3.36713333 C0.343233333,1.70436667 1.7087,0.343666667 3.36633333,0.343666667 L3.36633333,0.343666667 Z M0.415833333,3.36711333 C0.415833333,4.98994667 1.74846667,6.31791333 3.36633333,6.31791333 C4.9842,6.31791333 6.31683333,4.98994667 6.31683333,3.36711333 C6.31683333,1.74424667 4.98423333,0.41628 3.36633333,0.41628 C1.74846667,0.41628 0.415833333,1.74424667 0.415833333,3.36711333 L0.415833333,3.36711333 Z" id="Shape" stroke-width="0.573"></path>
                <polygon id="Shape" stroke-width="0.573" points="3.71419162 0.056 3.216485 0.056 3.21707154 6.688 3.716485 6.688"></polygon>
                <path id="Shape" stroke-width="0.573"></path>
                <polygon id="Shape" stroke-width="0.573" points="6.66633333 3.49783333 6.66633333 3.25265333 6.46666667 3.06665333 5.33333333 2.76665333 3.7 2.59998667 1.73333333 2.69998667 0.333333333 3.03332 0.0506666667 3.24265333 0.0506666667 3.48789333 0.766666667 3.16666 2.46666667 2.89999333 4.1 2.89999333 5.3 3.03332667 6.13333333 3.23332667"></polygon>
                <path d="M3.365,2.859 C4.14443333,2.85756 4.90066667,2.93284667 5.5005,3.04964667 C6.11946667,3.17338333 6.55506667,3.32816667 6.704,3.50201333 L6.70383333,3.58809 C6.52422,3.37175 5.93806667,3.21315667 5.48656667,3.12249 C4.8913,3.00669 4.14013333,2.93193 3.365,2.93337 C2.54706667,2.9349 1.78543333,3.01236333 1.19886667,3.12681 C0.7282,3.22020667 0.1005,3.40574 0.0221333333,3.58874333 L0.0221333333,3.49911 C0.06517,3.37243333 0.532566667,3.18313667 1.18826667,3.05187667 C1.77923333,2.93663667 2.54226667,2.86049333 3.365,2.85899667 L3.365,2.859 Z M3.36533333,2.57592667 C4.14476667,2.57451667 4.901,2.64983333 5.50083333,2.76657333 C6.1198,2.89037 6.5554,3.04509333 6.70433333,3.21894 L6.70416667,3.30501667 C6.52455333,3.08873333 5.9384,2.93011667 5.4869,2.83948333 C4.89163333,2.72362667 4.14046667,2.64886667 3.36533333,2.65036333 C2.5474,2.65183333 1.78946667,2.72935667 1.20283333,2.84374333 C0.748633333,2.92985 0.0953,3.12273 0.0224333333,3.30574333 L0.0224333333,3.21605 C0.06547,3.09075667 0.542333333,2.89467 1.1886,2.76881667 C1.77956667,2.65357667 2.5426,2.57749333 3.36533333,2.57593667 L3.36533333,2.57592667 Z" id="Shape" stroke-width="0.573"></path>
                <path d="M3.34933333,1.132 C4.57763333,1.12585567 5.649,1.30374333 6.13916667,1.55483333 L6.31796,1.86413333 C5.89192667,1.63453333 4.73609333,1.3958 3.35112667,1.4315 C2.22266,1.438438 1.01689333,1.55573667 0.411926667,1.8785 L0.625376667,1.52153333 C1.12187667,1.26406333 2.29277667,1.13343333 3.34937667,1.13206667" id="Shape" stroke-width="0.573"></path>
                <path d="M3.36566667,1.38733333 C4.06623333,1.38548 4.74316667,1.42499333 5.28153333,1.52212333 C5.7829,1.61543333 6.26103333,1.75548667 6.3294,1.83080333 L6.38240333,1.92446667 C6.21613333,1.8159 5.80237,1.69501333 5.27110333,1.59426667 C4.73757,1.49399 4.06110333,1.46077 3.36443667,1.46259333 C2.57370333,1.45989 1.95937,1.50163333 1.43213667,1.59356333 C0.874536667,1.69789667 0.48767,1.84694667 0.392236667,1.91776667 L0.44418,1.81875333 C0.629616667,1.72415 0.923846667,1.61011333 1.41828,1.52109667 C1.96351333,1.42149667 2.58438,1.39162667 3.36571333,1.38733667 L3.365684,1.38733667 L3.36566667,1.38733333 Z M3.36536667,1.10452333 C4.0358,1.10276 4.69776667,1.14012333 5.21376667,1.23287667 C5.62073333,1.31210333 6.0232,1.43578333 6.17056667,1.54585 L6.24808667,1.66903 C6.1163,1.52254 5.62022,1.38372 5.18228667,1.30596333 C4.67025333,1.21765 4.03578667,1.18269667 3.36535333,1.17711 C2.66175333,1.17908 2.01152,1.22217667 1.50695333,1.31404667 C1.02558667,1.40565 0.714953333,1.5141 0.58352,1.59879667 L0.65169,1.49590333 C0.83307,1.40041667 1.12609,1.31272333 1.49512333,1.24102 C2.00342333,1.14847333 2.65765667,1.10649333 3.36539,1.10452333 L3.36536667,1.10452333 Z" id="Shape" stroke-width="0.573"></path>
                <path d="M5.005,4.742 C4.39773333,4.62864 3.78936667,4.61217667 3.36443333,4.61717667 C1.31753333,4.64116567 0.6563,5.03747667 0.5756,5.15747667 L0.42262,4.90809333 C0.943753333,4.53036 2.05838667,4.31852667 3.37552,4.34019333 C4.05945333,4.351394 4.64965333,4.39681333 5.14615333,4.49297667 L5.00496,4.74206667" id="Shape" stroke-width="0.573"></path>
                <path d="M3.35266667,4.582 C3.92206667,4.590496 4.48096667,4.61401467 5.02043333,4.71461333 L4.98136667,4.78358 C4.48033333,4.69109333 3.9462,4.65569667 3.3546,4.65858 C2.59916667,4.652671 1.8351,4.72322667 1.1699,4.91414 C0.960006667,4.97255333 0.612533333,5.10749333 0.5771,5.219 L0.538236667,5.15491333 C0.549437,5.08900333 0.759446667,4.95221333 1.15203667,4.84191 C1.91397,4.62371667 2.62667,4.58694 3.35267,4.58194333 L3.35267,4.58201 L3.35266667,4.582 Z M3.37850633,4.29545667 C3.96843967,4.306481 4.577673,4.33376333 5.16983967,4.45106 L5.129153,4.52285 C4.59441967,4.41669333 4.08351967,4.38129667 3.38198633,4.37051 C2.624153,4.37189 1.82028633,4.42592667 1.08938633,4.63841667 C0.853416333,4.70715 0.446153,4.85575667 0.432586333,4.97341667 L0.393723,4.90456667 C0.402571333,4.79770333 0.755123,4.6583 1.072323,4.56603333 C1.80885633,4.35189667 2.614823,4.29683333 3.378523,4.29545333 L3.37850633,4.29545667 Z" id="Shape" stroke-width="0.55"></path>
                <polygon id="Shape" stroke-width="0.573" points="6.286 4.946 6.04003333 5.32763333 5.33333333 4.7 3.5 3.46666667 1.43333333 2.33333333 0.360333333 1.96633333 0.589 1.54233333 0.666666667 1.5 1.33333333 1.66666667 3.53333333 2.8 4.8 3.6 5.86666667 4.36666667 6.3 4.86666667"></polygon>
                <path d="M0.321666667,1.97633333 C0.509866667,1.84868667 1.89296667,2.46483333 3.34016667,3.33746667 C4.78353333,4.2126 6.16273333,5.2015 6.03823333,5.38656667 L5.99728333,5.45097667 L5.97849867,5.46579333 C5.98252633,5.46291333 6.00328033,5.43754167 5.97646867,5.36892667 C5.914972,5.16658 4.93663533,4.38589333 3.31333533,3.40576 C1.73083533,2.46212667 0.411968667,1.89339333 0.280102,2.05596 L0.321668667,1.97632 L0.321639,1.97632 L0.321666667,1.97633333 Z M6.33633333,4.94056667 C6.45533333,4.7055 5.17246667,3.7391 3.58193333,2.79816667 C1.95483333,1.87596667 0.782133333,1.33313333 0.567933333,1.495 L0.52034,1.58163667 C0.519926667,1.586399 0.522073333,1.57572767 0.532128,1.56796667 C0.571078,1.53398333 0.635634667,1.53627533 0.664768,1.535746 C1.03360133,1.541273 2.08700133,2.026046 3.564968,2.873346 C4.212568,3.25051267 6.300668,4.58971267 6.29270133,4.96631267 C6.29326133,4.99868 6.295378,5.00535267 6.28320633,5.021376 L6.33632633,4.94058933 L6.33632633,4.94052267 L6.33633333,4.94056667 Z" id="Shape" stroke-width="0.573"></path>
            </g>
            <g id="Group" transform="translate(6.000000, 4.366667)">
                <path d="M0.02,2.667 C0.02,3.20936667 0.242093333,3.6999 0.6019,4.0584 C0.9624,4.41766667 1.4523,4.64436667 1.99553333,4.64436667 C2.54156667,4.64436667 3.0371,4.42261667 3.39606667,4.06473333 C3.75503333,3.7069 3.9775,3.213 3.9776,2.66873333 L3.97753333,2.66873333 L3.97753333,0.0291 L0.0195333333,0.0243963333 L0.0199433333,2.66699633 L0.02001,2.66699633 L0.02,2.667 Z" id="Shape" stroke="#000000" stroke-width="0.67037" fill="#FFFFFF"></path>
                <path d="M0.094,2.67066667 L0.094,2.67216667 C0.094,3.19073333 0.308713333,3.66296667 0.653166667,4.0058 C0.9983,4.3493 1.47363333,4.56286667 1.99363333,4.56286667 C2.51633333,4.56286667 2.9907,4.35084667 3.33436667,4.00866667 C3.67796667,3.6665 3.89093333,3.19423333 3.891,2.67386667 L3.89093333,2.67386667 L3.89093333,0.113 L0.0962666667,0.112383333 L0.0939433333,2.67065 L0.094,2.67066667 Z M3.12801,0.879083333 L3.12814333,2.50878333 L3.12676333,2.68117333 L3.12679267,2.68117333 C3.12679267,2.72653333 3.12405933,2.77824667 3.11876733,2.82228333 C3.08793,3.07993 2.96943067,3.30451667 2.79393067,3.47921667 C2.58847733,3.68374 2.30489733,3.81059333 1.992364,3.81059333 C1.681464,3.81059333 1.40439733,3.67933 1.198064,3.47392667 C0.986407333,3.26326 0.863730667,2.97439333 0.863730667,2.67569333 L0.863290667,0.874926667 L3.12795733,0.879013 L3.128024,0.879079667 L3.12801,0.879083333 Z" id="Shape" stroke="#000000" stroke-width="0.50734" fill="#FF0000"></path>
                <g id="castle3" transform="translate(0.166667, 0.133333)">
                    <g id="castle">
                        <path id="Shape" fill="#FFFF00"></path>
                        <path id="Shape" stroke="#000000" stroke-width="0.5" fill="#FFFF00"></path>
                        <path id="Shape" stroke="#000000" stroke-width="0.5" fill="#FFFF00"></path>
                        <path id="Shape" stroke="#000000" stroke-width="0.5" fill="#FFFF00"></path>
                        <path id="Shape" stroke="#000000" stroke-width="0.5" fill="#FFFF00"></path>
                        <path id="Shape" stroke="#000000" stroke-width="0.5" fill="#FFFF00"></path>
                        <path id="Shape" stroke="#000000" stroke-width="0.5" fill="#FFFF00"></path>
                        <polyline id="Shape" stroke="#000000" stroke-width="0.5" fill="#FFFF00" points="0.706625782 0.119738661 0.738803667 0.61844 0.238803667 0.61721091 0.271905368 0.11844 0.706622296 0.119738661"></polyline>
                        <polygon id="cp1" stroke="#000000" stroke-width="0.5" fill="#FFFF00" points="0.548934165 0.218666667 0.564860333 0.718379269 0.0648603333 0.718666667 0.0789685843 0.218695406 0.549033545 0.218695406 0.548925681 0.218695406"></polygon>
                        <g id="cp1-link" transform="translate(0.386967, 0.200000)" stroke-width="0.5" stroke="#000000" fill="#FFFF00">
                            <polygon id="cp1" points="0.562891332 0.056 0.5788175 0.555712602 0.0788175 0.556 0.0929257509 0.0560287398 0.562990711 0.0560287398 0.562882848 0.0560287398"></polygon>
                        </g>
                        <path id="cp2" stroke="#000000" stroke-width="0.5" fill="#FFFF00"></path>
                        <g id="cp2-link" transform="translate(0.386967, 0.133333)" stroke-width="0.5" stroke="#000000" fill="#FFFF00">
                            <path id="cp2"></path>
                        </g>
                        <path id="Shape" fill="#000000"></path>
                        <path id="cp3" fill="#000000"></path>
                        <g id="cp3-link" transform="translate(0.454700, 0.233333)" fill="#000000">
                            <path id="cp3"></path>
                        </g>
                    </g>
                    <g id="castle-link" transform="translate(0.000000, 1.543993)">
                        <g id="castle">
                            <path id="Shape" fill="#FFFF00"></path>
                            <path id="Shape" stroke="#000000" stroke-width="0.5" fill="#FFFF00"></path>
                            <path id="Shape" stroke="#000000" stroke-width="0.5" fill="#FFFF00"></path>
                            <path id="Shape" stroke="#000000" stroke-width="0.5" fill="#FFFF00"></path>
                            <path id="Shape" stroke="#000000" stroke-width="0.5" fill="#FFFF00"></path>
                            <path id="Shape" stroke="#000000" stroke-width="0.5" fill="#FFFF00"></path>
                            <path id="Shape" stroke="#000000" stroke-width="0.5" fill="#FFFF00"></path>
                            <polyline id="Shape" stroke="#000000" stroke-width="0.5" fill="#FFFF00" points="0.706625782 0.119738661 0.738803667 0.61844 0.238803667 0.61721091 0.271905368 0.11844 0.706622296 0.119738661"></polyline>
                            <polygon id="cp1" stroke="#000000" stroke-width="0.5" fill="#FFFF00" points="0.548934165 0.218666667 0.564860333 0.718379269 0.0648603333 0.718666667 0.0789685843 0.218695406 0.549033545 0.218695406 0.548925681 0.218695406"></polygon>
                            <g id="cp1-link" transform="translate(0.386967, 0.200000)" stroke-width="0.5" stroke="#000000" fill="#FFFF00">
                                <polygon id="cp1" points="0.562891332 0.056 0.5788175 0.555712602 0.0788175 0.556 0.0929257509 0.0560287398 0.562990711 0.0560287398 0.562882848 0.0560287398"></polygon>
                            </g>
                            <path id="cp2" stroke="#000000" stroke-width="0.5" fill="#FFFF00"></path>
                            <g id="cp2-link" transform="translate(0.386967, 0.133333)" stroke-width="0.5" stroke="#000000" fill="#FFFF00">
                                <path id="cp2"></path>
                            </g>
                            <path id="Shape" fill="#000000"></path>
                            <path id="cp3" fill="#000000"></path>
                            <g id="cp3-link" transform="translate(0.454700, 0.233333)" fill="#000000">
                                <path id="cp3"></path>
                            </g>
                        </g>
                    </g>
                    <g id="castle-link" transform="translate(0.665039, 3.487106) rotate(-45.202042) translate(-0.665039, -3.487106) translate(0.348372, 3.137106)">
                        <g id="castle">
                            <path id="Shape" fill="#FFFF00"></path>
                            <path id="Shape" stroke="#000000" stroke-width="0.5" fill="#FFFF00"></path>
                            <path id="Shape" stroke="#000000" stroke-width="0.5" fill="#FFFF00"></path>
                            <path id="Shape" stroke="#000000" stroke-width="0.5" fill="#FFFF00"></path>
                            <path id="Shape" stroke="#000000" stroke-width="0.5" fill="#FFFF00"></path>
                            <path id="Shape" stroke="#000000" stroke-width="0.5" fill="#FFFF00"></path>
                            <path id="Shape" stroke="#000000" stroke-width="0.5" fill="#FFFF00"></path>
                            <polyline id="Shape" stroke="#000000" stroke-width="0.5" fill="#FFFF00" points="0.706625783 0.119738661 0.738803667 0.61844 0.238803667 0.61721091 0.271905368 0.11844 0.706622296 0.119738661"></polyline>
                            <polygon id="cp1" stroke="#000000" stroke-width="0.5" fill="#FFFF00" points="0.548934165 0.218666667 0.564860333 0.718379269 0.0648603333 0.718666667 0.0789685843 0.218695406 0.549033545 0.218695406 0.548925681 0.218695406"></polygon>
                            <g id="cp1-link" transform="translate(0.386967, 0.200000)" stroke-width="0.5" stroke="#000000" fill="#FFFF00">
                                <polygon id="cp1" points="0.562891332 0.056 0.5788175 0.555712602 0.0788175 0.556 0.0929257509 0.0560287398 0.562990711 0.0560287398 0.562882848 0.0560287398"></polygon>
                            </g>
                            <path id="cp2" stroke="#000000" stroke-width="0.5" fill="#FFFF00"></path>
                            <g id="cp2-link" transform="translate(0.386967, 0.133333)" stroke-width="0.5" stroke="#000000" fill="#FFFF00">
                                <path id="cp2"></path>
                            </g>
                            <path id="Shape" fill="#000000"></path>
                            <path id="cp3" fill="#000000"></path>
                            <g id="cp3-link" transform="translate(0.454700, 0.233333)" fill="#000000">
                                <path id="cp3"></path>
                            </g>
                        </g>
                    </g>
                </g>
                <g id="castle-link" transform="translate(1.690460, 0.133333)">
                    <g id="castle">
                        <path id="Shape" fill="#FFFF00"></path>
                        <path id="Shape" stroke="#000000" stroke-width="0.5" fill="#FFFF00"></path>
                        <path id="Shape" stroke="#000000" stroke-width="0.5" fill="#FFFF00"></path>
                        <path id="Shape" stroke="#000000" stroke-width="0.5" fill="#FFFF00"></path>
                        <path id="Shape" stroke="#000000" stroke-width="0.5" fill="#FFFF00"></path>
                        <path id="Shape" stroke="#000000" stroke-width="0.5" fill="#FFFF00"></path>
                        <path id="Shape" stroke="#000000" stroke-width="0.5" fill="#FFFF00"></path>
                        <polyline id="Shape" stroke="#000000" stroke-width="0.5" fill="#FFFF00" points="0.706625782 0.119738661 0.738803667 0.61844 0.238803667 0.61721091 0.271905368 0.11844 0.706622296 0.119738661"></polyline>
                        <polygon id="cp1" stroke="#000000" stroke-width="0.5" fill="#FFFF00" points="0.548934165 0.218666667 0.564860333 0.718379269 0.0648603333 0.718666667 0.0789685843 0.218695406 0.549033545 0.218695406 0.548925681 0.218695406"></polygon>
                        <g id="cp1-link" transform="translate(0.386967, 0.200000)" stroke-width="0.5" stroke="#000000" fill="#FFFF00">
                            <polygon id="cp1" points="0.562891332 0.056 0.5788175 0.555712602 0.0788175 0.556 0.0929257509 0.0560287398 0.562990711 0.0560287398 0.562882848 0.0560287398"></polygon>
                        </g>
                        <path id="cp2" stroke="#000000" stroke-width="0.5" fill="#FFFF00"></path>
                        <g id="cp2-link" transform="translate(0.386967, 0.133333)" stroke-width="0.5" stroke="#000000" fill="#FFFF00">
                            <path id="cp2"></path>
                        </g>
                        <path id="Shape" fill="#000000"></path>
                        <path id="cp3" fill="#000000"></path>
                        <g id="cp3-link" transform="translate(0.454700, 0.233333)" fill="#000000">
                            <path id="cp3"></path>
                        </g>
                    </g>
                </g>
                <g id="castle3-link" transform="translate(3.243065, 2.116667) scale(-1, 1) translate(-3.243065, -2.116667) translate(2.659732, 0.133333)">
                    <g id="castle3">
                        <g id="castle">
                            <path id="Shape" fill="#FFFF00"></path>
                            <path id="Shape" stroke="#000000" stroke-width="0.5" fill="#FFFF00"></path>
                            <path id="Shape" stroke="#000000" stroke-width="0.5" fill="#FFFF00"></path>
                            <path id="Shape" stroke="#000000" stroke-width="0.5" fill="#FFFF00"></path>
                            <path id="Shape" stroke="#000000" stroke-width="0.5" fill="#FFFF00"></path>
                            <path id="Shape" stroke="#000000" stroke-width="0.5" fill="#FFFF00"></path>
                            <path id="Shape" stroke="#000000" stroke-width="0.5" fill="#FFFF00"></path>
                            <polyline id="Shape" stroke="#000000" stroke-width="0.5" fill="#FFFF00" points="0.706625782 0.119738661 0.738803667 0.61844 0.238803667 0.61721091 0.271905368 0.11844 0.706622296 0.119738661"></polyline>
                            <polygon id="cp1" stroke="#000000" stroke-width="0.5" fill="#FFFF00" points="0.548934165 0.218666667 0.564860333 0.718379269 0.0648603333 0.718666667 0.0789685843 0.218695406 0.549033545 0.218695406 0.548925681 0.218695406"></polygon>
                            <g id="cp1-link" transform="translate(0.386967, 0.200000)" stroke-width="0.5" stroke="#000000" fill="#FFFF00">
                                <polygon id="cp1" points="0.562891332 0.056 0.5788175 0.555712602 0.0788175 0.556 0.0929257509 0.0560287398 0.562990711 0.0560287398 0.562882848 0.0560287398"></polygon>
                            </g>
                            <path id="cp2" stroke="#000000" stroke-width="0.5" fill="#FFFF00"></path>
                            <g id="cp2-link" transform="translate(0.386967, 0.133333)" stroke-width="0.5" stroke="#000000" fill="#FFFF00">
                                <path id="cp2"></path>
                            </g>
                            <path id="Shape" fill="#000000"></path>
                            <path id="cp3" fill="#000000"></path>
                            <g id="cp3-link" transform="translate(0.454700, 0.233333)" fill="#000000">
                                <path id="cp3"></path>
                            </g>
                        </g>
                        <g id="castle-link" transform="translate(0.000000, 1.543993)">
                            <g id="castle">
                                <path id="Shape" fill="#FFFF00"></path>
                                <path id="Shape" stroke="#000000" stroke-width="0.5" fill="#FFFF00"></path>
                                <path id="Shape" stroke="#000000" stroke-width="0.5" fill="#FFFF00"></path>
                                <path id="Shape" stroke="#000000" stroke-width="0.5" fill="#FFFF00"></path>
                                <path id="Shape" stroke="#000000" stroke-width="0.5" fill="#FFFF00"></path>
                                <path id="Shape" stroke="#000000" stroke-width="0.5" fill="#FFFF00"></path>
                                <path id="Shape" stroke="#000000" stroke-width="0.5" fill="#FFFF00"></path>
                                <polyline id="Shape" stroke="#000000" stroke-width="0.5" fill="#FFFF00" points="0.706625782 0.119738661 0.738803667 0.61844 0.238803667 0.61721091 0.271905368 0.11844 0.706622296 0.119738661"></polyline>
                                <polygon id="cp1" stroke="#000000" stroke-width="0.5" fill="#FFFF00" points="0.548934165 0.218666667 0.564860333 0.718379269 0.0648603333 0.718666667 0.0789685843 0.218695406 0.549033545 0.218695406 0.548925681 0.218695406"></polygon>
                                <g id="cp1-link" transform="translate(0.386967, 0.200000)" stroke-width="0.5" stroke="#000000" fill="#FFFF00">
                                    <polygon id="cp1" points="0.562891332 0.056 0.5788175 0.555712602 0.0788175 0.556 0.0929257509 0.0560287398 0.562990711 0.0560287398 0.562882848 0.0560287398"></polygon>
                                </g>
                                <path id="cp2" stroke="#000000" stroke-width="0.5" fill="#FFFF00"></path>
                                <g id="cp2-link" transform="translate(0.386967, 0.133333)" stroke-width="0.5" stroke="#000000" fill="#FFFF00">
                                    <path id="cp2"></path>
                                </g>
                                <path id="Shape" fill="#000000"></path>
                                <path id="cp3" fill="#000000"></path>
                                <g id="cp3-link" transform="translate(0.454700, 0.233333)" fill="#000000">
                                    <path id="cp3"></path>
                                </g>
                            </g>
                        </g>
                        <g id="castle-link" transform="translate(0.665039, 3.487106) rotate(-45.202042) translate(-0.665039, -3.487106) translate(0.348372, 3.137106)">
                            <g id="castle">
                                <path id="Shape" fill="#FFFF00"></path>
                                <path id="Shape" stroke="#000000" stroke-width="0.5" fill="#FFFF00"></path>
                                <path id="Shape" stroke="#000000" stroke-width="0.5" fill="#FFFF00"></path>
                                <path id="Shape" stroke="#000000" stroke-width="0.5" fill="#FFFF00"></path>
                                <path id="Shape" stroke="#000000" stroke-width="0.5" fill="#FFFF00"></path>
                                <path id="Shape" stroke="#000000" stroke-width="0.5" fill="#FFFF00"></path>
                                <path id="Shape" stroke="#000000" stroke-width="0.5" fill="#FFFF00"></path>
                                <polyline id="Shape" stroke="#000000" stroke-width="0.5" fill="#FFFF00" points="0.706625783 0.119738661 0.738803667 0.61844 0.238803667 0.61721091 0.271905368 0.11844 0.706622296 0.119738661"></polyline>
                                <polygon id="cp1" stroke="#000000" stroke-width="0.5" fill="#FFFF00" points="0.548934165 0.218666667 0.564860333 0.718379269 0.0648603333 0.718666667 0.0789685843 0.218695406 0.549033545 0.218695406 0.548925681 0.218695406"></polygon>
                                <g id="cp1-link" transform="translate(0.386967, 0.200000)" stroke-width="0.5" stroke="#000000" fill="#FFFF00">
                                    <polygon id="cp1" points="0.562891332 0.056 0.5788175 0.555712602 0.0788175 0.556 0.0929257509 0.0560287398 0.562990711 0.0560287398 0.562882848 0.0560287398"></polygon>
                                </g>
                                <path id="cp2" stroke="#000000" stroke-width="0.5" fill="#FFFF00"></path>
                                <g id="cp2-link" transform="translate(0.386967, 0.133333)" stroke-width="0.5" stroke="#000000" fill="#FFFF00">
                                    <path id="cp2"></path>
                                </g>
                                <path id="Shape" fill="#000000"></path>
                                <path id="cp3" fill="#000000"></path>
                                <g id="cp3-link" transform="translate(0.454700, 0.233333)" fill="#000000">
                                    <path id="cp3"></path>
                                </g>
                            </g>
                        </g>
                    </g>
                </g>
                <g id="quina" transform="translate(1.733333, 2.000000)">
                    <path d="M0.0212,0.3802 L0.0212,0.380366667 C0.0212,0.454096667 0.049509,0.521273333 0.0949266667,0.570013333 C0.140433333,0.618903333 0.203106667,0.64927 0.27166,0.64927 C0.340566667,0.64927 0.403123333,0.619107667 0.448423333,0.570423333 C0.493693333,0.5218 0.521826667,0.454683667 0.521826667,0.380656667 L0.521826667,0.0217233333 L0.0220933333,0.0213133333 L0.0211833333,0.38018" id="Shape" fill="#003399"></path>
                    <circle id="Oval" fill="#FFFFFF" cx="0.336266667" cy="0.3583" r="0.25"></circle>
                    <ellipse id="Oval" fill="#FFFFFF" cx="0.613533333" cy="0.358533333" rx="0.25" ry="0.25"></ellipse>
                    <ellipse id="Oval" fill="#FFFFFF" cx="0.474633333" cy="0.491633333" rx="0.25" ry="0.25"></ellipse>
                    <circle id="Oval" fill="#FFFFFF" cx="0.336266667" cy="0.631" r="0.25"></circle>
                    <circle id="Oval" fill="#FFFFFF" cx="0.613233333" cy="0.630633333" r="0.25"></circle>
                </g>
                <g id="quina-link" transform="translate(1.733333, 1.132800)">
                    <g id="quina">
                        <path d="M0.0212,0.3802 L0.0212,0.380366667 C0.0212,0.454096667 0.049509,0.521273333 0.0949266667,0.570013333 C0.140433333,0.618903333 0.203106667,0.64927 0.27166,0.64927 C0.340566667,0.64927 0.403123333,0.619107667 0.448423333,0.570423333 C0.493693333,0.5218 0.521826667,0.454683667 0.521826667,0.380656667 L0.521826667,0.0217233333 L0.0220933333,0.0213133333 L0.0211833333,0.38018" id="Shape" fill="#003399"></path>
                        <circle id="Oval" fill="#FFFFFF" cx="0.336266667" cy="0.3583" r="0.25"></circle>
                        <ellipse id="Oval" fill="#FFFFFF" cx="0.613533333" cy="0.358533333" rx="0.25" ry="0.25"></ellipse>
                        <ellipse id="Oval" fill="#FFFFFF" cx="0.474633333" cy="0.491633333" rx="0.25" ry="0.25"></ellipse>
                        <circle id="Oval" fill="#FFFFFF" cx="0.336266667" cy="0.631" r="0.25"></circle>
                        <circle id="Oval" fill="#FFFFFF" cx="0.613233333" cy="0.630633333" r="0.25"></circle>
                    </g>
                </g>
                <g id="quina-link" transform="translate(1.040033, 2.000000)">
                    <g id="quina" transform="translate(0.000000, 0.000000)">
                        <path d="M0.0212,0.3802 L0.0212,0.380366667 C0.0212,0.454096667 0.049509,0.521273333 0.0949266667,0.570013333 C0.140433333,0.618903333 0.203106667,0.64927 0.27166,0.64927 C0.340566667,0.64927 0.403123333,0.619107667 0.448423333,0.570423333 C0.493693333,0.5218 0.521826667,0.454683667 0.521826667,0.380656667 L0.521826667,0.0217233333 L0.0220933333,0.0213133333 L0.0211833333,0.38018" id="Shape" fill="#003399"></path>
                        <circle id="Oval" fill="#FFFFFF" cx="0.336266667" cy="0.3583" r="0.25"></circle>
                        <ellipse id="Oval" fill="#FFFFFF" cx="0.613533333" cy="0.358533333" rx="0.25" ry="0.25"></ellipse>
                        <ellipse id="Oval" fill="#FFFFFF" cx="0.474633333" cy="0.491633333" rx="0.25" ry="0.25"></ellipse>
                        <circle id="Oval" fill="#FFFFFF" cx="0.336266667" cy="0.631" r="0.25"></circle>
                        <circle id="Oval" fill="#FFFFFF" cx="0.613233333" cy="0.630633333" r="0.25"></circle>
                    </g>
                </g>
                <g id="quina-link" transform="translate(2.424833, 2.000000)">
                    <g id="quina">
                        <path d="M0.0212,0.3802 L0.0212,0.380366667 C0.0212,0.454096667 0.049509,0.521273333 0.0949266667,0.570013333 C0.140433333,0.618903333 0.203106667,0.64927 0.27166,0.64927 C0.340566667,0.64927 0.403123333,0.619107667 0.448423333,0.570423333 C0.493693333,0.5218 0.521826667,0.454683667 0.521826667,0.380656667 L0.521826667,0.0217233333 L0.0220933333,0.0213133333 L0.0211833333,0.38018" id="Shape" fill="#003399"></path>
                        <circle id="Oval" fill="#FFFFFF" cx="0.336266667" cy="0.3583" r="0.25"></circle>
                        <ellipse id="Oval" fill="#FFFFFF" cx="0.613533333" cy="0.358533333" rx="0.25" ry="0.25"></ellipse>
                        <ellipse id="Oval" fill="#FFFFFF" cx="0.474633333" cy="0.491633333" rx="0.25" ry="0.25"></ellipse>
                        <circle id="Oval" fill="#FFFFFF" cx="0.336266667" cy="0.631" r="0.25"></circle>
                        <circle id="Oval" fill="#FFFFFF" cx="0.613233333" cy="0.630633333" r="0.25"></circle>
                    </g>
                </g>
                <g id="quina-link" transform="translate(1.733333, 2.859467)">
                    <g id="quina">
                        <path d="M0.0212,0.3802 L0.0212,0.380366667 C0.0212,0.454096667 0.049509,0.521273333 0.0949266667,0.570013333 C0.140433333,0.618903333 0.203106667,0.64927 0.27166,0.64927 C0.340566667,0.64927 0.403123333,0.619107667 0.448423333,0.570423333 C0.493693333,0.5218 0.521826667,0.454683667 0.521826667,0.380656667 L0.521826667,0.0217233333 L0.0220933333,0.0213133333 L0.0211833333,0.38018" id="Shape" fill="#003399"></path>
                        <circle id="Oval" fill="#FFFFFF" cx="0.336266667" cy="0.3583" r="0.25"></circle>
                        <ellipse id="Oval" fill="#FFFFFF" cx="0.613533333" cy="0.358533333" rx="0.25" ry="0.25"></ellipse>
                        <ellipse id="Oval" fill="#FFFFFF" cx="0.474633333" cy="0.491633333" rx="0.25" ry="0.25"></ellipse>
                        <circle id="Oval" fill="#FFFFFF" cx="0.336266667" cy="0.631" r="0.25"></circle>
                        <circle id="Oval" fill="#FFFFFF" cx="0.613233333" cy="0.630633333" r="0.25"></circle>
                    </g>
                </g>
            </g>
        </g>
    </g>
</svg>