<svg width="512" height="443" viewBox="0 0 512 443" fill="none" xmlns="http://www.w3.org/2000/svg">
<path d="M243.17 285.1L232.87 275.19L232.9 274.47C232.92 274 235.02 227.8 236.51 211.89L233.47 205.71C233.08 204.92 233.41 203.97 234.2 203.58C234.99 203.19 235.94 203.52 236.33 204.31L239.77 211.3L239.73 211.75C238.35 226.09 236.4 267.89 236.12 273.9L243.08 280.6L249.14 274.24L242.99 211.05L243.1 210.73C243.1 210.73 244.4 206.9 245.47 203.7C245.75 202.87 246.65 202.42 247.48 202.7C248.31 202.98 248.76 203.88 248.48 204.71C247.59 207.35 246.55 210.43 246.21 211.42L252.43 275.38L243.17 285.1Z" fill="#00B4D4"/>
<path d="M337.93 56.55C334.18 56.55 331.13 53.5 331.13 49.75C331.13 46 334.18 42.95 337.93 42.95C341.68 42.95 344.73 46 344.73 49.75C344.73 53.5 341.68 56.55 337.93 56.55ZM337.93 45.3401C335.5 45.3401 333.52 47.32 333.52 49.75C333.52 52.18 335.5 54.1599 337.93 54.1599C340.36 54.1599 342.34 52.18 342.34 49.75C342.34 47.32 340.36 45.3401 337.93 45.3401Z" fill="#374D6B"/>
<path d="M198.75 442.37C198.73 442.37 198.71 442.37 198.69 442.37C197.81 442.34 197.13 441.6 197.16 440.72L200.25 357.65L200.91 340.38C200.95 339.5 201.65 338.83 202.56 338.85C203.44 338.88 204.12 339.62 204.09 340.5L203.43 357.77L200.34 440.83C200.3 441.7 199.6 442.37 198.75 442.37Z" fill="#374D6B"/>
<path d="M116.19 349.51C114.71 349.51 113.46 348.79 112.4 348.19C110.99 347.38 110.06 346.9 108.83 347.19C107.98 347.39 107.12 346.86 106.92 346C106.72 345.14 107.25 344.29 108.11 344.09C110.62 343.5 112.49 344.56 113.99 345.42C115.2 346.11 115.92 346.5 116.67 346.25C116.72 346.23 116.78 346.22 116.83 346.21C124.19 344.58 132.49 340.63 142.21 334.13C142.94 333.64 143.93 333.84 144.42 334.57C144.91 335.3 144.71 336.29 143.98 336.78C133.95 343.47 125.32 347.57 117.6 349.3C117.1 349.44 116.63 349.51 116.19 349.51Z" fill="#374D6B"/>
<path d="M161.2 327.19C160.64 327.19 160.09 326.89 159.8 326.36C159.38 325.59 159.67 324.62 160.44 324.2C162.56 323.05 164.84 321.93 167.05 320.86C171.52 318.68 176.14 316.43 179.92 313.63C183.49 310.99 186.79 307.38 189.97 303.89C191.53 302.18 193.15 300.41 194.76 298.8C195.38 298.18 196.39 298.18 197.01 298.8C197.63 299.42 197.63 300.43 197.01 301.05C195.45 302.61 193.93 304.27 192.32 306.04C189.03 309.64 185.64 313.36 181.81 316.19C177.8 319.16 173.04 321.48 168.45 323.72C166.17 324.83 164.02 325.88 161.97 327C161.71 327.13 161.45 327.19 161.2 327.19Z" fill="#374D6B"/>
<path d="M251.75 198.29C251.73 198.29 251.71 198.29 251.69 198.29C250.81 198.26 250.13 197.52 250.16 196.64L250.71 182.08L251.59 181.67C253.67 180.7 259.67 177.16 259.88 173.81C261.27 151.02 257.02 137.33 256.98 137.19C256.71 136.35 257.18 135.46 258.01 135.19C258.85 134.92 259.74 135.38 260.01 136.22C260.19 136.79 264.49 150.55 263.06 174C262.76 178.99 256.32 182.81 253.82 184.11L253.34 196.76C253.31 197.61 252.6 198.29 251.75 198.29Z" fill="#374D6B"/>
<path d="M213.91 153.27C213.13 153.27 212.46 152.7 212.34 151.91C212.27 151.44 210.7 140.42 214.49 133.35C217.53 125.06 229.47 117.9 243.62 120.73C251.57 122.32 256.65 126.74 260.08 135.06L260.36 135.74L260.03 136.39C256.08 144.16 248.18 147.49 241.74 149.52C237.31 150.92 229.49 150.87 229.16 150.87C228.28 150.86 227.57 150.14 227.58 149.27C227.59 148.4 228.3 147.69 229.17 147.69C229.18 147.69 229.16 147.69 229.33 147.69C230.39 147.69 237.14 147.64 240.79 146.49C246.45 144.7 253.33 141.86 256.86 135.59C253.86 128.71 249.68 125.18 243.01 123.85C229.76 121.2 219.66 128.35 217.46 134.54L217.36 134.77C214.01 140.9 215.49 151.35 215.5 151.45C215.63 152.32 215.03 153.13 214.16 153.25C214.07 153.27 213.99 153.27 213.91 153.27Z" fill="#374D6B"/>
<path d="M215.88 202.19C215.19 202.19 214.55 201.73 214.35 201.03C214.11 200.19 214.6 199.31 215.44 199.06L221.54 197.32L220.8 171.43C220.77 170.55 221.47 169.82 222.34 169.79C222.35 169.79 222.37 169.79 222.38 169.79C223.24 169.79 223.94 170.47 223.97 171.33L224.78 199.7L216.3 202.11C216.17 202.17 216.03 202.19 215.88 202.19Z" fill="#374D6B"/>
<path d="M223.24 172.15C223.18 172.15 223.11 172.15 223.04 172.14C218 171.51 214.79 169.28 213.5 165.53C212.77 163.41 212.91 161.13 213.89 159.11C214.88 157.09 216.59 155.58 218.71 154.85C221.21 153.99 224.01 154.37 226.19 155.87C226.91 156.37 227.1 157.36 226.6 158.08C226.1 158.8 225.11 158.99 224.39 158.49C223.01 157.55 221.32 157.31 219.74 157.86C218.42 158.31 217.36 159.25 216.75 160.51C216.14 161.76 216.05 163.18 216.5 164.5C217.38 167.05 219.64 168.52 223.43 168.99C224.3 169.1 224.92 169.89 224.81 170.77C224.71 171.57 224.03 172.15 223.24 172.15Z" fill="#374D6B"/>
<path d="M281.56 349.35H225.77C224.89 349.35 224.18 348.64 224.18 347.76C224.18 346.88 224.89 346.17 225.77 346.17H281.56C282.44 346.17 283.15 346.88 283.15 347.76C283.15 348.64 282.43 349.35 281.56 349.35Z" fill="#374D6B"/>
<path d="M115.99 326.55C115.32 326.55 114.7 326.12 114.48 325.45C114.21 324.62 114.67 323.72 115.5 323.45L122.29 321.24L159.01 299.17L163.85 294.33C164.47 293.71 165.48 293.71 166.1 294.33C166.72 294.95 166.72 295.96 166.1 296.58L161.12 301.56C161.03 301.65 160.93 301.73 160.82 301.8L123.78 324.07C123.68 324.13 123.57 324.18 123.45 324.22L116.48 326.48C116.32 326.53 116.16 326.55 115.99 326.55Z" fill="#374D6B"/>
<path d="M379.55 405.28C379.25 405.28 378.94 405.16 378.71 404.93C378.24 404.47 378.24 403.71 378.71 403.24L386.83 395.1C387.29 394.64 388.05 394.63 388.52 395.1C388.99 395.56 388.99 396.32 388.52 396.79L380.4 404.93C380.16 405.16 379.85 405.28 379.55 405.28Z" fill="#374D6B"/>
<path d="M387.67 405.27C387.37 405.27 387.06 405.15 386.83 404.92L378.69 396.8C378.22 396.34 378.22 395.58 378.69 395.11C379.15 394.64 379.91 394.64 380.38 395.11L388.52 403.23C388.99 403.69 388.99 404.45 388.52 404.92C388.29 405.15 387.98 405.27 387.67 405.27Z" fill="#374D6B"/>
<path d="M34.29 132.9C33.99 132.9 33.68 132.78 33.45 132.55C32.98 132.08 32.98 131.33 33.45 130.86L41.57 122.72C42.04 122.25 42.79 122.25 43.26 122.72C43.73 123.19 43.73 123.94 43.26 124.41L35.14 132.55C34.9 132.78 34.59 132.9 34.29 132.9Z" fill="#374D6B"/>
<path d="M42.41 132.89C42.11 132.89 41.8 132.77 41.57 132.54L33.43 124.42C32.96 123.95 32.96 123.2 33.43 122.73C33.89 122.26 34.65 122.26 35.12 122.73L43.26 130.85C43.72 131.32 43.73 132.07 43.26 132.54C43.02 132.77 42.72 132.89 42.41 132.89Z" fill="#374D6B"/>
<path d="M318.87 207.52L273.51 201.39L261.73 199.87C260.86 199.76 260.24 198.96 260.36 198.09C260.47 197.22 261.27 196.6 262.14 196.72L273.93 198.24L316.96 204.06L340.68 152.27L339.37 144.33L342.46 134.1C342.71 133.26 343.6 132.78 344.44 133.04C345.28 133.29 345.76 134.18 345.5 135.02L342.62 144.54L343.96 152.71L318.87 207.52Z" fill="#374D6B"/>
<path d="M287.62 231.41C285.2 231.41 283.64 231.39 283.39 231.38C282.51 231.37 281.81 230.64 281.82 229.77C281.83 228.9 282.54 228.2 283.41 228.2C283.42 228.2 283.43 228.2 283.44 228.2C283.7 228.2 309.48 228.57 323.14 226.11C325.99 225.6 331.29 224.64 333.45 220.49C339.08 209.65 350.63 177.32 353.25 169.91L349.1 168.52C348.27 168.24 347.82 167.34 348.09 166.51C348.37 165.68 349.27 165.23 350.1 165.51L355.78 167.41C356.18 167.54 356.52 167.84 356.7 168.22C356.89 168.6 356.91 169.04 356.77 169.45C356.2 171.08 342.71 209.55 336.26 221.96C333.38 227.5 326.84 228.68 323.69 229.24C312.99 231.17 295.61 231.41 287.62 231.41Z" fill="#374D6B"/>
<path d="M350.17 140.92C349.97 140.92 349.75 140.88 349.55 140.79C348.74 140.45 348.36 139.52 348.7 138.71L353.81 126.62C354.15 125.81 355.09 125.43 355.89 125.77C356.7 126.11 357.08 127.04 356.74 127.85L351.63 139.94C351.38 140.56 350.79 140.92 350.17 140.92Z" fill="#374D6B"/>
<path d="M360.1 161.61C359.91 161.61 359.72 161.58 359.54 161.51C358.72 161.2 358.3 160.28 358.61 159.46L364.49 143.84L364.32 136.58C364.3 135.7 364.99 134.97 365.87 134.95C366.76 134.92 367.48 135.62 367.5 136.5L367.68 144.07C367.68 144.27 367.65 144.48 367.58 144.67L361.6 160.58C361.35 161.21 360.74 161.61 360.1 161.61Z" fill="#374D6B"/>
<path d="M282.88 243.74C282.02 243.74 281.32 243.06 281.29 242.2L280.77 225.08C280.74 224.2 281.43 223.47 282.31 223.44C283.18 223.41 283.92 224.1 283.95 224.98L284.47 242.1C284.5 242.98 283.81 243.71 282.93 243.74C282.91 243.74 282.9 243.74 282.88 243.74Z" fill="#374D6B"/>
<path d="M160.17 205.25L151.79 188.44L137.25 156.71L139.25 147.07L139.82 139.74C139.89 138.86 140.66 138.21 141.53 138.28C142.41 138.35 143.06 139.11 142.99 139.99L142.38 147.62L140.58 156.34L154.66 187.08L162.12 202.04L203.81 201.21C204.67 201.2 205.42 201.89 205.43 202.77C205.45 203.65 204.75 204.37 203.87 204.39L160.17 205.25Z" fill="#374D6B"/>
<path d="M200.4 233.17C200.36 233.17 200.32 233.17 200.29 233.17L155.39 230.02C154.27 230.06 145.52 230.13 142.81 223.63C137.74 211.48 124.24 173.66 124.11 173.28C123.97 172.88 123.99 172.43 124.18 172.05C124.37 171.67 124.7 171.37 125.11 171.24L130.73 169.37C131.56 169.09 132.46 169.55 132.74 170.38C133.02 171.21 132.56 172.11 131.73 172.39L127.65 173.74C130.24 180.97 141.29 211.72 145.74 222.4C147.73 227.16 155.26 226.84 155.33 226.83C155.39 226.83 155.46 226.83 155.52 226.83L200.5 229.99C201.38 230.05 202.04 230.81 201.97 231.69C201.93 232.53 201.23 233.17 200.4 233.17Z" fill="#374D6B"/>
<path d="M133.76 144.44C133.04 144.44 132.38 143.94 132.21 143.21L130.22 134.58C130.02 133.72 130.56 132.87 131.41 132.67C132.26 132.47 133.12 133.01 133.32 133.86L135.31 142.49C135.51 143.35 134.97 144.2 134.12 144.4C134 144.43 133.88 144.44 133.76 144.44Z" fill="#374D6B"/>
<path d="M121.39 164.47C120.77 164.47 120.17 164.1 119.92 163.49L113.7 148.44C113.65 148.33 113.62 148.21 113.6 148.09L112.27 140.12C112.13 139.25 112.71 138.43 113.58 138.29C114.45 138.15 115.27 138.73 115.41 139.6L116.71 147.39L122.86 162.27C123.2 163.08 122.81 164.01 122 164.35C121.8 164.43 121.6 164.47 121.39 164.47Z" fill="#374D6B"/>
<path d="M172.33 258.17L155.17 253.75C154.32 253.53 153.81 252.66 154.03 251.81C154.25 250.96 155.11 250.45 155.97 250.67L171.59 254.69L189.98 239.96C190.66 239.41 191.67 239.52 192.21 240.21C192.76 240.89 192.65 241.9 191.96 242.44L172.33 258.17Z" fill="#374D6B"/>
<path d="M202.36 343.79C201.48 343.79 200.77 343.08 200.77 342.2L200.85 297.27C200.85 296.39 201.56 295.68 202.44 295.68C203.32 295.68 204.03 296.39 204.03 297.27L203.95 342.2C203.95 343.08 203.24 343.79 202.36 343.79Z" fill="#374D6B"/>
<path d="M288.23 440.03C287.39 440.03 286.69 439.37 286.64 438.52C286.44 434.77 281.8 346.65 281.85 339.42C282.06 309.38 282.61 306.15 282.67 305.88C282.87 305.02 283.72 304.49 284.58 304.69C285.42 304.88 285.95 305.7 285.79 306.54C285.75 306.77 285.24 310.59 285.04 339.44C284.99 346.58 289.78 437.44 289.83 438.35C289.88 439.23 289.2 439.98 288.33 440.02C288.29 440.02 288.26 440.03 288.23 440.03Z" fill="#374D6B"/>
<path d="M223.65 98.11C222.9 98.11 222.23 97.58 222.09 96.82C221.93 95.96 222.49 95.1199 223.36 94.9599L244.66 90.9298C245.53 90.7698 246.36 91.3299 246.52 92.1999C246.68 93.0599 246.12 93.89 245.25 94.06L223.95 98.09C223.84 98.1 223.74 98.11 223.65 98.11Z" fill="#00B4D4"/>
<path d="M223.65 107.66C222.9 107.66 222.23 107.13 222.09 106.37C221.93 105.51 222.49 104.67 223.36 104.51L244.66 100.48C245.53 100.32 246.36 100.88 246.52 101.75C246.68 102.61 246.12 103.45 245.25 103.61L223.95 107.64C223.84 107.65 223.74 107.66 223.65 107.66Z" fill="#00B4D4"/>
<path d="M221.14 87.75C220.76 87.75 220.39 87.6101 220.1 87.3601C219.75 87.0601 219.56 86.6199 219.56 86.1599V79.3301C219.56 79.2701 219.56 79.2099 219.57 79.1499C219.59 78.9099 220.1 72.85 212.58 66.99C203.53 60.55 198.09 49.41 198.09 37.23C198.09 16.89 214.63 0.340088 234.96 0.340088C255.29 0.340088 271.82 16.89 271.82 37.23C271.82 51.92 266.71 61.1601 254.18 69.1201C247.5 74.1201 247.9 82.5401 247.9 82.6201C247.95 83.4501 247.35 84.17 246.53 84.29L221.37 87.74C221.29 87.74 221.22 87.75 221.14 87.75ZM222.74 79.3899V84.3301L244.74 81.3101C244.91 78.2601 246.01 71.22 252.33 66.52C252.36 66.5 252.39 66.47 252.43 66.45C264.1 59.05 268.64 50.85 268.64 37.21C268.64 18.62 253.53 3.5 234.96 3.5C216.38 3.5 201.27 18.62 201.27 37.21C201.27 48.37 206.21 58.5399 214.48 64.4199C223.06 71.1199 222.82 78.3699 222.74 79.3899Z" fill="#00B4D4"/>
<path d="M234.63 40.8101H231.22C225.78 40.8101 221.98 37.4699 221.98 32.6799C221.98 27.4099 226.22 22.96 231.22 22.96H243.48C244.5 22.96 245.33 23.79 245.33 24.8C245.33 25.82 244.5 26.6499 243.48 26.6499H231.22C228.26 26.6499 225.67 29.4699 225.67 32.6799C225.67 35.9499 228.54 37.1201 231.22 37.1201H234.63C235.65 37.1201 236.48 37.94 236.48 38.97C236.48 39.98 235.65 40.8101 234.63 40.8101Z" fill="#00B4D4"/>
<path d="M237.89 54.97H224.02C223 54.97 222.17 54.1401 222.17 53.1201C222.17 52.1001 223 51.28 224.02 51.28H237.89C240.58 51.28 243.44 50.1201 243.44 46.8501C243.44 46.7601 243.45 46.6601 243.46 46.5801C243.7 45.0001 243.38 43.6999 242.52 42.6899C241.51 41.5199 239.78 40.8201 237.89 40.8201H232.86C231.84 40.8201 231.02 39.99 231.02 38.98C231.02 37.96 231.85 37.1299 232.86 37.1299H237.89C240.84 37.1299 243.61 38.31 245.31 40.28C246.85 42.08 247.49 44.39 247.13 46.99C247.06 51.69 243.28 54.97 237.89 54.97Z" fill="#00B4D4"/>
<path d="M233.75 25.77C232.73 25.77 231.91 24.9399 231.91 23.9199V16.26C231.91 15.24 232.74 14.4099 233.75 14.4099C234.77 14.4099 235.6 15.24 235.6 16.26V23.9199C235.59 24.9399 234.77 25.77 233.75 25.77Z" fill="#00B4D4"/>
<path d="M233.75 63.52C232.73 63.52 231.91 62.6899 231.91 61.6699V54.01C231.91 52.99 232.74 52.1599 233.75 52.1599C234.77 52.1599 235.6 52.99 235.6 54.01V61.6699C235.59 62.6899 234.77 63.52 233.75 63.52Z" fill="#00B4D4"/>
<g opacity="0.2">
<path opacity="0.2" d="M221.15 88.4199C220.77 88.4199 220.4 88.28 220.11 88.03C219.76 87.73 219.56 87.2901 219.56 86.8301V80C219.56 79.94 219.56 79.8801 219.57 79.8201C219.59 79.5801 220.1 73.5199 212.58 67.6599C203.53 61.2199 198.09 50.0799 198.09 37.8999C198.09 17.5599 214.63 1.01001 234.96 1.01001C255.29 1.01001 271.82 17.5599 271.82 37.8999C271.82 52.5899 266.71 61.83 254.18 69.79C247.5 74.79 247.9 83.21 247.9 83.29C247.95 84.12 247.35 84.84 246.53 84.96L221.37 88.4099C221.29 88.4099 221.22 88.4199 221.15 88.4199Z" fill="#00B4D4"/>
</g>
<path d="M436.43 280.84C432.35 280.84 429.03 277.52 429.03 273.44C429.03 269.36 432.35 266.04 436.43 266.04C440.51 266.04 443.83 269.36 443.83 273.44C443.83 277.52 440.51 280.84 436.43 280.84ZM436.43 268.43C433.66 268.43 431.42 270.68 431.42 273.44C431.42 276.2 433.67 278.45 436.43 278.45C439.19 278.45 441.44 276.2 441.44 273.44C441.44 270.68 439.19 268.43 436.43 268.43Z" fill="#374D6B"/>
<path d="M242.23 441.01C242.18 441.01 242.14 441.01 242.09 441C241.21 440.92 240.56 440.15 240.64 439.28L245.42 384.09C245.47 383.48 245.87 382.95 246.45 382.73L254.18 379.86C255 379.55 255.92 379.97 256.22 380.8C256.53 381.62 256.11 382.54 255.28 382.84L248.49 385.36L243.8 439.55C243.74 440.38 243.04 441.01 242.23 441.01Z" fill="#374D6B"/>
<path d="M105.08 129.23C103.5 129.23 101.89 129.1 100.28 128.84C83.96 126.2 72.82 110.77 75.46 94.4498C76.02 91.0198 77.14 87.7499 78.8 84.7399C79.22 83.9699 80.19 83.69 80.96 84.12C81.73 84.54 82.01 85.5099 81.58 86.2799C80.1 88.9699 79.09 91.8899 78.59 94.9599C76.23 109.55 86.19 123.35 100.78 125.7C115.37 128.06 129.17 118.1 131.52 103.51C132.66 96.4399 130.98 89.3499 126.79 83.5399C122.6 77.7299 116.4 73.9099 109.33 72.7599C102.82 71.7099 96.17 73.0798 90.62 76.6398C89.88 77.1098 88.9 76.8998 88.42 76.1598C87.95 75.4198 88.16 74.4399 88.9 73.9599C95.11 69.9799 102.55 68.44 109.83 69.62C117.74 70.9 124.68 75.1798 129.37 81.6698C134.06 88.1698 135.94 96.0999 134.66 104.01C132.29 118.73 119.53 129.23 105.08 129.23Z" fill="#00B4D4"/>
<path d="M105.07 118.9C104.03 118.9 102.98 118.82 101.92 118.65C96.7301 117.81 92.1901 115 89.1101 110.74C86.0301 106.48 84.8001 101.28 85.6401 96.0902C85.9001 94.4502 86.3701 92.8402 87.0401 91.3202C87.3901 90.5202 88.3301 90.1501 89.1401 90.5001C89.9401 90.8501 90.3101 91.7902 89.9601 92.5902C89.4001 93.8702 89.0001 95.2102 88.7801 96.5902C88.0801 100.94 89.1101 105.3 91.6901 108.87C94.2701 112.44 98.0801 114.79 102.43 115.5C111.39 116.95 119.89 110.83 121.34 101.85C122.04 97.5002 121.01 93.1402 118.43 89.5702C115.85 86.0002 112.04 83.6501 107.69 82.9401C104.03 82.3401 100.37 82.9801 97.1201 84.7601C96.3501 85.1801 95.3801 84.9 94.9601 84.13C94.5401 83.36 94.8201 82.3901 95.5901 81.9701C99.4701 79.8401 103.83 79.0902 108.2 79.8002C113.39 80.6402 117.94 83.4501 121.01 87.7001C124.08 91.9601 125.32 97.1602 124.48 102.35C122.92 112.02 114.55 118.9 105.07 118.9Z" fill="#00B4D4"/>
<path d="M105 110.07C104.43 110.07 103.85 110.02 103.26 109.93C98.5701 109.17 94.9501 105.51 94.2601 100.8C94.1301 99.9301 94.7301 99.12 95.6001 99C96.4601 98.87 97.2801 99.4701 97.4001 100.34C97.8901 103.66 100.44 106.25 103.76 106.79C107.93 107.47 111.88 104.62 112.55 100.45C113.22 96.28 110.38 92.33 106.2 91.66C105.33 91.52 104.74 90.7001 104.88 89.8401C105.02 88.9701 105.84 88.3801 106.7 88.5201C112.6 89.4701 116.63 95.05 115.68 100.96C114.84 106.27 110.23 110.07 105 110.07Z" fill="#00B4D4"/>
<path d="M104.57 100.59C104.18 100.59 103.78 100.45 103.48 100.15L80.35 78.1899C79.71 77.5899 79.69 76.5799 80.29 75.9399C80.89 75.2999 81.9 75.2798 82.54 75.8798L105.67 97.84C106.31 98.44 106.33 99.45 105.73 100.09C105.41 100.43 104.99 100.59 104.57 100.59Z" fill="#00B4D4"/>
<path d="M82.03 78.88C81.63 78.88 81.25 78.73 80.95 78.46L69.31 67.66C68.84 67.22 68.68 66.54 68.9 65.93L71.86 58.0501C72.05 57.5501 72.47 57.1801 72.98 57.0601C73.5 56.9401 74.04 57.08 74.43 57.44L86.07 68.2401C86.54 68.6801 86.7 69.36 86.48 69.97L83.52 77.8502C83.33 78.3502 82.91 78.7202 82.4 78.8402C82.27 78.8602 82.15 78.88 82.03 78.88ZM72.25 66.0501L81.37 74.5101L83.12 69.8502L74 61.39L72.25 66.0501Z" fill="#00B4D4"/>
<path d="M74.3801 83.91C73.9901 83.91 73.6 83.7701 73.3 83.4901L61.66 72.6901C61.3 72.3601 61.12 71.88 61.16 71.39C61.2 70.9 61.46 70.4601 61.87 70.1901L69.3301 65.2501C69.9401 64.8401 70.75 64.91 71.29 65.41L82.93 76.2101C83.29 76.5401 83.47 77.0201 83.43 77.5101C83.39 78.0001 83.13 78.4401 82.72 78.7101L75.2601 83.65C74.9901 83.82 74.6901 83.91 74.3801 83.91ZM65.3 71.7301L74.54 80.3002L79.2701 77.17L70.0301 68.6002L65.3 71.7301Z" fill="#00B4D4"/>
<path d="M69.8901 67.59C69.5101 67.59 69.1201 67.4499 68.8201 67.1699L65.67 64.28C65.02 63.69 64.9801 62.68 65.5701 62.03C66.1601 61.38 67.1701 61.3399 67.8201 61.9299L70.97 64.82C71.62 65.41 71.6601 66.42 71.0701 67.07C70.7501 67.41 70.3201 67.59 69.8901 67.59Z" fill="#00B4D4"/>
<path d="M100.41 335.95C99.87 335.95 99.34 335.67 99.04 335.17C98.59 334.42 98.83 333.44 99.59 332.99L105.86 329.24C106.61 328.79 107.59 329.04 108.04 329.79C108.49 330.54 108.24 331.52 107.49 331.97L101.22 335.72C100.97 335.88 100.69 335.95 100.41 335.95Z" fill="#374D6B"/>
<path d="M95.1901 345.53C94.6301 345.53 94.09 345.24 93.8 344.71C93.37 343.94 93.65 342.97 94.42 342.55L104.87 336.73C105.64 336.3 106.61 336.58 107.03 337.35C107.46 338.12 107.18 339.09 106.41 339.51L95.9601 345.33C95.7201 345.46 95.4501 345.53 95.1901 345.53Z" fill="#374D6B"/>
<path d="M134.23 339.09C133.77 339.09 133.32 338.89 133 338.51L127.22 331.49C126.66 330.81 126.76 329.81 127.44 329.25C128.12 328.69 129.12 328.79 129.68 329.47L135.46 336.49C136.02 337.17 135.92 338.17 135.24 338.73C134.95 338.98 134.59 339.09 134.23 339.09Z" fill="#374D6B"/>
<path d="M376.2 347.35C376.16 347.35 376.13 347.35 376.09 347.35L368.62 346.85C368.42 346.84 368.23 346.79 368.05 346.7L359.58 342.71C359.54 342.69 359.51 342.67 359.47 342.65L345.04 334.42L296.74 308.3C295.97 307.88 295.68 306.92 296.1 306.14C296.52 305.37 297.48 305.08 298.25 305.5L346.59 331.64L361 339.86L369.14 343.69L376.31 344.17C377.19 344.23 377.85 344.99 377.79 345.86C377.73 346.71 377.03 347.35 376.2 347.35Z" fill="#374D6B"/>
<path d="M366.11 320.45C365.95 320.45 365.78 320.42 365.62 320.37L358.65 318.11C358.53 318.07 358.42 318.02 358.32 317.96L322.09 295.92C321.34 295.46 321.1 294.48 321.56 293.73C322.02 292.98 323 292.74 323.75 293.2L359.82 315.14L366.61 317.35C367.44 317.62 367.9 318.52 367.63 319.35C367.41 320.02 366.78 320.45 366.11 320.45Z" fill="#374D6B"/>
<path d="M313.43 257.32L293.07 241.51C292.38 240.97 292.25 239.97 292.79 239.28C293.33 238.59 294.33 238.46 295.02 239L314.12 253.83L326.37 250.46C327.22 250.23 328.09 250.72 328.33 251.57C328.56 252.42 328.07 253.29 327.22 253.52L313.43 257.32Z" fill="#374D6B"/>
<path d="M308.33 280.67C305.21 280.67 303.45 279.59 301.85 278.34C301.53 278.09 301.25 277.87 300.98 277.71C298.35 276.1 289.97 268.57 289.61 268.25C288.96 267.66 288.9 266.66 289.49 266C290.08 265.35 291.08 265.29 291.74 265.88C294.1 268 300.67 273.78 302.64 274.99C303.06 275.25 303.43 275.54 303.8 275.82C305.41 277.07 307.23 278.48 313.98 276.48C315.75 275.96 318.91 274.68 321.97 273.45C323.97 272.65 326.04 271.81 327.81 271.15C328.63 270.84 329.55 271.26 329.86 272.08C330.17 272.9 329.75 273.82 328.93 274.13C327.19 274.78 325.15 275.61 323.16 276.4C319.89 277.72 316.79 278.96 314.88 279.53C312.16 280.34 310.04 280.67 308.33 280.67Z" fill="#374D6B"/>
<path d="M381.69 329.85C381.41 329.85 381.13 329.78 380.88 329.62L374.61 325.88C373.86 325.43 373.61 324.45 374.06 323.7C374.51 322.95 375.49 322.7 376.24 323.15L382.51 326.89C383.26 327.34 383.51 328.32 383.06 329.07C382.76 329.57 382.23 329.85 381.69 329.85Z" fill="#374D6B"/>
<path d="M383.5 337.99C383.21 337.99 382.92 337.91 382.66 337.75L375.62 333.36C374.87 332.89 374.65 331.91 375.11 331.17C375.57 330.43 376.56 330.2 377.3 330.66L384.34 335.05C385.09 335.52 385.31 336.5 384.85 337.24C384.55 337.73 384.03 337.99 383.5 337.99Z" fill="#374D6B"/>
<path d="M348.87 334.98C348.6 334.98 348.33 334.91 348.08 334.77C347.32 334.33 347.05 333.36 347.49 332.6L352.57 323.72C353.01 322.96 353.98 322.69 354.74 323.13C355.5 323.57 355.77 324.54 355.33 325.3L350.25 334.18C349.96 334.7 349.42 334.98 348.87 334.98Z" fill="#374D6B"/>
<path d="M418.98 325.78C418.1 325.78 417.39 325.07 417.39 324.19C417.39 323.31 418.1 322.6 418.98 322.6L438.89 322.59C439.77 322.59 440.48 323.3 440.48 324.18C440.48 325.06 439.77 325.77 438.89 325.77L418.98 325.78Z" fill="#00B4D4"/>
<path d="M418.98 341.14C418.1 341.14 417.39 340.43 417.39 339.55C417.39 338.67 418.1 337.96 418.98 337.96L438.89 337.95C439.77 337.95 440.48 338.66 440.48 339.54C440.48 340.42 439.77 341.13 438.89 341.13L418.98 341.14Z" fill="#00B4D4"/>
<path d="M418.98 356.5C418.1 356.5 417.39 355.79 417.39 354.91C417.39 354.03 418.1 353.32 418.98 353.32L438.89 353.31C439.77 353.31 440.48 354.02 440.48 354.9C440.48 355.78 439.77 356.49 438.89 356.49L418.98 356.5Z" fill="#00B4D4"/>
<path d="M447.37 375.25H399.69C394.65 375.25 390.56 371.15 390.56 366.11V314.45C390.56 309.41 394.66 305.32 399.69 305.32H447.37C452.41 305.32 456.5 309.42 456.5 314.45V366.11C456.5 371.15 452.4 375.25 447.37 375.25ZM399.69 308.5C396.41 308.5 393.74 311.17 393.74 314.45V366.11C393.74 369.39 396.41 372.06 399.69 372.06H447.37C450.65 372.06 453.32 369.39 453.32 366.11V314.45C453.32 311.17 450.65 308.5 447.37 308.5H399.69Z" fill="#00B4D4"/>
<path d="M411.05 339.71C411.05 341.39 409.69 342.75 408.01 342.75C406.33 342.75 404.97 341.39 404.97 339.71C404.97 338.03 406.33 336.67 408.01 336.67C409.69 336.67 411.05 338.03 411.05 339.71Z" fill="#00B4D4"/>
<path d="M411.05 354.56C411.05 356.24 409.69 357.6 408.01 357.6C406.33 357.6 404.97 356.24 404.97 354.56C404.97 352.88 406.33 351.52 408.01 351.52C409.69 351.52 411.05 352.88 411.05 354.56Z" fill="#00B4D4"/>
<path d="M411.05 324.87C411.05 326.55 409.69 327.91 408.01 327.91C406.33 327.91 404.97 326.55 404.97 324.87C404.97 323.19 406.33 321.83 408.01 321.83C409.69 321.83 411.05 323.19 411.05 324.87Z" fill="#00B4D4"/>
<path d="M77.31 263.66H1.59003C0.710027 263.66 0 262.95 0 262.07V166.42C0 165.54 0.710027 164.83 1.59003 164.83H99.23C100.11 164.83 100.82 165.54 100.82 166.42C100.82 167.3 100.11 168.01 99.23 168.01H3.17999V260.48H77.31C78.19 260.48 78.9 261.19 78.9 262.07C78.9 262.95 78.19 263.66 77.31 263.66Z" fill="#374D6B"/>
<path d="M155.57 253.8C155.41 253.8 155.24 253.77 155.08 253.72L114.71 240.57C114.41 240.47 114.14 240.28 113.94 240.03L109.19 233.87C108.65 233.17 108.78 232.18 109.48 231.64C110.18 231.1 111.17 231.23 111.71 231.93L116.16 237.7L156.07 250.7C156.91 250.97 157.36 251.87 157.09 252.7C156.86 253.38 156.24 253.8 155.57 253.8Z" fill="#374D6B"/>
<path d="M174.48 280.8C172.45 280.8 170.15 280.42 167.56 279.43C163.6 277.9 111.9 258.91 108.48 257.65L98.63 256.45C98.55 256.44 98.47 256.42 98.39 256.4L89.95 254.04C89.1 253.8 88.61 252.92 88.85 252.08C89.09 251.23 89.97 250.74 90.81 250.98L99.13 253.31L109.05 254.52C109.17 254.53 109.29 254.56 109.41 254.61C111.66 255.44 164.61 274.89 168.71 276.47C175.7 279.17 180.07 276.46 182.17 275.16L182.42 275.01C184.37 273.82 192.73 267.39 196.89 264.15C197.58 263.61 198.58 263.73 199.12 264.43C199.66 265.12 199.54 266.12 198.84 266.66C198.34 267.05 186.66 276.14 184.08 277.72L183.85 277.87C182.22 278.86 179.08 280.8 174.48 280.8Z" fill="#374D6B"/>
<path d="M37.5001 238.56H24.8V218.93H37.5001V238.56ZM27.98 235.38H34.3201V222.11H27.98V235.38Z" fill="#00B4D4"/>
<path d="M52.65 238.56H39.95V203.35H52.65V238.56ZM43.1299 235.38H49.4699V206.53H43.1299V235.38Z" fill="#00B4D4"/>
<path d="M68.67 239H55.97V207.25H68.67V239ZM59.15 235.81H65.49V210.42H59.15V235.81Z" fill="#00B4D4"/>
<path d="M84.2501 239H71.54V196.86H84.2501V239ZM74.73 235.81H81.0701V200.03H74.73V235.81Z" fill="#00B4D4"/>
<path d="M26.46 208.51L24.23 206.25L40.03 190.67C40.46 190.24 41.1 190.1 41.67 190.3L60.29 196.79L83.97 178.64L85.91 181.16L61.55 199.83C61.12 200.16 60.57 200.25 60.06 200.07L41.56 193.63L26.46 208.51Z" fill="#00B4D4"/>
<path d="M89.15 235.81H19.03V238.99H89.15V235.81Z" fill="#00B4D4"/>
<path d="M87.67 180.05C87.58 181.48 86.35 182.57 84.92 182.49C83.49 182.4 82.4 181.17 82.48 179.74C82.57 178.31 83.8 177.22 85.23 177.3C86.67 177.39 87.76 178.62 87.67 180.05Z" fill="#00B4D4"/>
<path d="M63.32 198.46C63.23 199.89 62 200.98 60.57 200.9C59.14 200.81 58.05 199.58 58.14 198.15C58.22 196.72 59.46 195.63 60.89 195.71C62.31 195.8 63.4 197.03 63.32 198.46Z" fill="#00B4D4"/>
<path d="M43.93 192.55C43.84 193.98 42.61 195.07 41.18 194.99C39.75 194.9 38.66 193.67 38.74 192.24C38.83 190.81 40.06 189.72 41.49 189.8C42.93 189.88 44.02 191.12 43.93 192.55Z" fill="#00B4D4"/>
<path d="M27.98 207.14C27.89 208.57 26.66 209.66 25.23 209.57C23.8 209.48 22.71 208.25 22.8 206.82C22.89 205.39 24.12 204.3 25.55 204.39C26.98 204.48 28.07 205.71 27.98 207.14Z" fill="#00B4D4"/>
<path d="M326.79 253.58C326.1 253.58 325.47 253.13 325.26 252.43C325.02 251.59 325.5 250.7 326.34 250.46L374.47 236.49L376.97 234.06L380.57 229.25C381.1 228.55 382.09 228.4 382.8 228.93C383.5 229.46 383.65 230.45 383.12 231.16L379.44 236.08C379.39 236.15 379.33 236.21 379.28 236.27L376.41 239.07C376.22 239.25 376 239.39 375.75 239.46L327.24 253.55C327.08 253.56 326.93 253.58 326.79 253.58Z" fill="#374D6B"/>
<path d="M328.37 274.48C327.73 274.48 327.13 274.09 326.89 273.47C326.57 272.65 326.98 271.73 327.8 271.41L373.98 253.46C374.8 253.14 375.72 253.55 376.04 254.37C376.36 255.19 375.95 256.11 375.13 256.43L328.95 274.38C328.75 274.44 328.56 274.48 328.37 274.48Z" fill="#374D6B"/>
<path d="M396.63 256.19C396.61 256.19 396.6 256.19 396.58 256.19L379.81 255.69C378.93 255.66 378.24 254.93 378.27 254.05C378.3 253.17 379.04 252.49 379.91 252.51L396.26 253L402.36 249.71C403.13 249.29 404.1 249.58 404.51 250.36C404.93 251.13 404.64 252.1 403.86 252.51L397.38 256C397.15 256.13 396.89 256.19 396.63 256.19Z" fill="#374D6B"/>
<path d="M410.57 215.95C410.28 215.95 409.99 215.87 409.73 215.71L398.28 208.63C397.53 208.17 397.3 207.19 397.76 206.44C398.22 205.69 399.2 205.46 399.95 205.92L410.39 212.37L432.92 192.14C433.46 191.66 434.24 191.6 434.85 191.99L460.71 208.72L501.59 176.54C502.28 176 503.28 176.12 503.82 176.81C504.36 177.5 504.25 178.5 503.55 179.04L461.78 211.92C461.25 212.34 460.5 212.38 459.93 212L434.14 195.31L411.62 215.53C411.33 215.81 410.95 215.95 410.57 215.95Z" fill="#00B4D4"/>
<path d="M505.63 185.45L511.53 170.69L495.8 172.96L505.63 185.45Z" fill="#00B4D4"/>
<path d="M379.19 201.89C378.31 201.89 377.6 201.18 377.6 200.3V169.08C377.6 166.04 379.92 163.83 383.12 163.83H473.88C477.09 163.83 479.42 166.04 479.42 169.08V178.38C479.42 179.26 478.71 179.97 477.83 179.97C476.95 179.97 476.24 179.26 476.24 178.38V169.08C476.24 167.56 475.02 167.02 473.88 167.02H383.12C381.99 167.02 380.78 167.56 380.78 169.08V200.3C380.78 201.18 380.07 201.89 379.19 201.89Z" fill="#00B4D4"/>
<path d="M473.87 242.74H427.01C426.13 242.74 425.42 242.03 425.42 241.15C425.42 240.27 426.13 239.56 427.01 239.56H473.87C475.24 239.56 476.23 238.59 476.23 237.25V216.24C476.23 215.36 476.94 214.65 477.82 214.65C478.7 214.65 479.41 215.36 479.41 216.24V237.25C479.41 240.33 476.98 242.74 473.87 242.74Z" fill="#00B4D4"/>
<path d="M98.0101 372.26H54.92C52.2 372.26 49.8 369.95 49.8 367.31V301.31C49.8 298.66 52.19 296.34 54.92 296.34H98.0101C100.65 296.34 102.8 298.57 102.8 301.31V321.85C102.8 322.73 102.09 323.44 101.21 323.44C100.33 323.44 99.6201 322.73 99.6201 321.85V301.31C99.6201 300.32 98.9001 299.52 98.0001 299.52H54.91C53.94 299.52 52.98 300.4 52.98 301.31V367.31C52.98 368.2 53.94 369.08 54.91 369.08H98.0001C98.8901 369.08 99.6201 368.29 99.6201 367.31V360.7C99.6201 359.82 100.33 359.11 101.21 359.11C102.09 359.11 102.8 359.82 102.8 360.7V367.31C102.81 370.04 100.66 372.26 98.0101 372.26Z" fill="#00B4D4"/>
<path d="M81.29 314.48C80.41 314.48 79.7001 313.77 79.7001 312.89V309.9C79.7001 309.02 80.41 308.31 81.29 308.31C82.17 308.31 82.8801 309.02 82.8801 309.9V312.89C82.8801 313.76 82.17 314.48 81.29 314.48Z" fill="#00B4D4"/>
<path d="M74.32 314.48C73.44 314.48 72.73 313.77 72.73 312.89V309.9C72.73 309.02 73.44 308.31 74.32 308.31C75.2 308.31 75.91 309.02 75.91 309.9V312.89C75.91 313.76 75.2 314.48 74.32 314.48Z" fill="#00B4D4"/>
<path d="M88.2701 314.48C87.3901 314.48 86.6801 313.77 86.6801 312.89V309.9C86.6801 309.02 87.3901 308.31 88.2701 308.31C89.1501 308.31 89.86 309.02 89.86 309.9V312.89C89.86 313.76 89.1401 314.48 88.2701 314.48Z" fill="#00B4D4"/>
<path d="M95.8401 365.29H56.79V324.25H95.8401V327.83C95.8401 328.71 95.1301 329.42 94.2501 329.42C93.3701 329.42 92.66 328.71 92.66 327.83V327.43H59.97V362.11H92.66V352.74C92.66 351.86 93.3701 351.15 94.2501 351.15C95.1301 351.15 95.8401 351.86 95.8401 352.74V365.29V365.29Z" fill="#00B4D4"/>
<path d="M84.88 365.29H67.75V324.25H84.88V365.29ZM70.93 362.11H81.7V327.43H70.93V362.11Z" fill="#00B4D4"/>
<path d="M90.2601 338.39H58.3801C57.5001 338.39 56.79 337.68 56.79 336.8C56.79 335.92 57.5001 335.21 58.3801 335.21H90.2601C91.1401 335.21 91.85 335.92 91.85 336.8C91.85 337.67 91.1401 338.39 90.2601 338.39Z" fill="#00B4D4"/>
<path d="M83.29 352.33H58.3801C57.5001 352.33 56.79 351.62 56.79 350.74C56.79 349.86 57.5001 349.15 58.3801 349.15H83.29C84.17 349.15 84.8801 349.86 84.8801 350.74C84.8801 351.62 84.16 352.33 83.29 352.33Z" fill="#00B4D4"/>
<path d="M95.8401 320.45H56.79V303.32H95.8401V320.45ZM59.97 317.27H92.66V306.5H59.97V317.27Z" fill="#00B4D4"/>
<path d="M90.28 406.08L80.11 395.91L90.28 385.74L100.45 395.91L90.28 406.08ZM82.85 395.91L90.28 403.34L97.71 395.91L90.28 388.48L82.85 395.91Z" fill="#374D6B"/>
<path d="M384.41 121.28C369.18 121.28 356.79 108.89 356.79 93.6599C356.79 78.4299 369.18 66.04 384.41 66.04C399.64 66.04 412.03 78.4299 412.03 93.6599C412.03 108.88 399.64 121.28 384.41 121.28ZM384.41 69.21C370.93 69.21 359.97 80.1699 359.97 93.6499C359.97 107.13 370.93 118.09 384.41 118.09C397.89 118.09 408.85 107.13 408.85 93.6499C408.85 80.1799 397.89 69.21 384.41 69.21Z" fill="#00B4D4"/>
<path d="M382.9 101.4L370.62 91.4599C369.94 90.9099 369.83 89.9099 370.38 89.2199C370.93 88.5399 371.93 88.4299 372.62 88.9799L382.4 96.8898L395.66 80.08C396.2 79.39 397.2 79.27 397.89 79.82C398.58 80.36 398.7 81.36 398.15 82.05L382.9 101.4Z" fill="#00B4D4"/>
<path d="M387.16 60.4199H378.19C377.31 60.4199 376.6 59.7101 376.6 58.8301C376.6 57.9501 377.31 57.24 378.19 57.24H387.16C388.04 57.24 388.75 57.9501 388.75 58.8301C388.75 59.7001 388.04 60.4199 387.16 60.4199Z" fill="#00B4D4"/>
<path d="M375.21 256.36C374.56 256.36 373.95 255.96 373.71 255.31L371.05 248.01C370.75 247.18 371.18 246.27 372 245.97C372.82 245.67 373.74 246.09 374.04 246.92L376.7 254.22C377 255.05 376.57 255.96 375.75 256.26C375.57 256.33 375.39 256.36 375.21 256.36Z" fill="#374D6B"/>
<path d="M112.18 259.01C111.98 259.01 111.77 258.97 111.57 258.89C110.76 258.55 110.38 257.62 110.71 256.81L114.03 248.84C114.37 248.03 115.3 247.65 116.11 247.98C116.92 248.32 117.3 249.25 116.97 250.06L113.65 258.03C113.39 258.64 112.8 259.01 112.18 259.01Z" fill="#374D6B"/>
</svg>
