<?xml version="1.0" encoding="UTF-8" standalone="no"?>
<svg width="64px" height="63px" viewBox="0 0 64 63" version="1.1" xmlns="http://www.w3.org/2000/svg" xmlns:xlink="http://www.w3.org/1999/xlink">
    <!-- Generator: Sketch 3.8.3 (29802) - http://www.bohemiancoding.com/sketch -->
    <title>Page 1</title>
    <desc>Created with Sketch.</desc>
    <defs>
        <polygon id="path-1" points="6.8745 13 6.8745 0.24 0.49365 0.24 0.49365 13 6.8745 13"></polygon>
        <polygon id="path-3" points="0 62.5 63.3745 62.5 63.3745 0.25 0 0.25"></polygon>
    </defs>
    <g id="Page-1" stroke="none" stroke-width="1" fill="none" fill-rule="evenodd">
        <g id="epay-service-index2" transform="translate(-259.000000, -982.000000)">
            <g id="Group-52" transform="translate(0.000000, 900.000000)">
                <g id="Page-1" transform="translate(259.000000, 82.000000)">
                    <path d="M1.1245,62.75 L63.3745,62.75 L63.3745,45.5 L1.1245,45.5 L1.1245,62.75 Z M3.3745,60.5 L61.1245,60.5 L61.1245,47.75 L3.3745,47.75 L3.3745,60.5 Z" id="Fill-1" fill="#202020"></path>
                    <polygon id="Fill-2" fill="#202020" points="56.1245 51.625 58.3745 51.625 58.3745 46.625 56.1245 46.625"></polygon>
                    <polygon id="Fill-3" fill="#202020" points="51.1245 51.625 53.3745 51.625 53.3745 46.625 51.1245 46.625"></polygon>
                    <polygon id="Fill-4" fill="#202020" points="46.1245 51.625 48.3745 51.625 48.3745 46.625 46.1245 46.625"></polygon>
                    <polygon id="Fill-5" fill="#202020" points="41.1245 51.625 43.3745 51.625 43.3745 46.625 41.1245 46.625"></polygon>
                    <polygon id="Fill-6" fill="#202020" points="36.1245 51.625 38.3745 51.625 38.3745 46.625 36.1245 46.625"></polygon>
                    <polygon id="Fill-7" fill="#202020" points="31.125 51.625 33.3745 51.625 33.3745 46.625 31.125 46.625"></polygon>
                    <polygon id="Fill-8" fill="#202020" points="26.1245 51.625 28.3745 51.625 28.3745 46.625 26.1245 46.625"></polygon>
                    <polygon id="Fill-9" fill="#202020" points="21.1245 51.625 23.3745 51.625 23.3745 46.625 21.1245 46.625"></polygon>
                    <polygon id="Fill-10" fill="#202020" points="16.1245 51.625 18.3745 51.625 18.3745 46.625 16.1245 46.625"></polygon>
                    <polygon id="Fill-11" fill="#202020" points="11.1245 51.625 13.3745 51.625 13.3745 46.625 11.1245 46.625"></polygon>
                    <polygon id="Fill-12" fill="#202020" points="6.1245 51.625 8.3745 51.625 8.3745 46.625 6.1245 46.625"></polygon>
                    <polygon id="Fill-13" fill="#121111" points="6.80055 38.9971 6.80055 33.7411 2.24955 36.3701"></polygon>
                    <polygon id="Fill-14" fill="#202020" points="51.73975 37.49515 16.60675 37.49415 16.60675 35.24415 51.73975 35.24515"></polygon>
                    <polygon id="Fill-15" fill="#202020" points="0 36.3701 10.7885 42.5991 11.9135 40.6511 4.4995 36.3701 11.914 32.0876 10.7885 30.1391"></polygon>
                    <g id="Group-38" transform="translate(0.000000, 0.250000)">
                        <path d="M14.06715,40.25 L50.61465,40.25 L50.61465,31.9895 L14.06715,31.9885 L17.40215,35.3235 C17.84165,35.763 17.84165,36.475 17.40215,36.9145 L14.06715,40.25 L14.06715,40.25 Z M51.73965,42.5 L11.35115,42.5 C10.89615,42.5 10.48615,42.226 10.31215,41.8055 C10.13815,41.385 10.23415,40.9015 10.55565,40.5795 L15.01565,36.119 L10.55565,31.6585 C10.23415,31.337 10.13815,30.853 10.31215,30.4325 C10.48615,30.012 10.89615,29.7385 11.35115,29.7385 L51.73965,29.7395 C52.36115,29.7395 52.86465,30.243 52.86465,30.8645 L52.86465,41.375 C52.86465,41.996 52.36065,42.5 51.73965,42.5 L51.73965,42.5 Z" id="Fill-16" fill="#202020"></path>
                        <path d="M52.86475,40.25 L55.86975,40.25 L55.86975,31.99 L52.86475,31.9895 L52.86475,40.25 Z M56.99475,42.5 L51.73975,42.5 C51.11875,42.5 50.61475,41.996 50.61475,41.375 L50.61475,30.8645 C50.61475,30.566 50.73325,30.28 50.94425,30.069 C51.15525,29.858 51.44125,29.7395 51.73975,29.7395 L56.99475,29.74 C57.61625,29.74 58.11975,30.244 58.11975,30.865 L58.11975,41.375 C58.11975,41.996 57.61575,42.5 56.99475,42.5 L56.99475,42.5 Z" id="Fill-18" fill="#202020"></path>
                        <g id="Group-22" transform="translate(56.500000, 29.500000)">
                            <mask id="mask-2" fill="white">
                                <use xlink:href="#path-1"></use>
                            </mask>
                            <g id="Clip-21"></g>
                            <path d="M0.49465,13 L0.49465,10.75 C1.59765,10.75 2.63515,10.3205 3.41665,9.54 C4.19565,8.76 4.62565,7.7225 4.62465,6.621 C4.62465,5.516 4.19515,4.479 3.41615,3.6995 C2.63515,2.92 1.59915,2.49 0.49865,2.49 L0.49565,2.49 L0.49365,0.24 L0.49865,0.24 C2.19965,0.24 3.80065,0.904 5.00615,2.1085 C6.21115,3.313 6.87465,4.9155 6.87465,6.62 C6.87615,8.3225 6.21215,9.925 5.00715,11.131 C3.80065,12.3365 2.19815,13 0.49465,13" id="Fill-20" fill="#202020" mask="url(#mask-2)"></path>
                        </g>
                        <polygon id="Fill-23" fill="#202020" points="27.864 2.625 25.614 2.625 25.614 2.5 25.489 2.5 25.489 0.25 27.864 0.25"></polygon>
                        <mask id="mask-4" fill="white">
                            <use xlink:href="#path-3"></use>
                        </mask>
                        <g id="Clip-26"></g>
                        <path d="M5.943,2.5 L8.3865,2.5 L8.3865,0.25 L5.943,0.25 L5.943,2.5 Z M10.8295,2.5 L13.273,2.5 L13.273,0.25 L10.8295,0.25 L10.8295,2.5 Z M15.716,2.5 L18.1595,2.5 L18.1595,0.25 L15.716,0.25 L15.716,2.5 Z M20.6025,2.5 L23.046,2.5 L23.046,0.25 L20.6025,0.25 L20.6025,2.5 Z" id="Fill-25" fill="#202020" mask="url(#mask-4)"></path>
                        <polygon id="Fill-27" fill="#202020" mask="url(#mask-4)" points="3.37475 2.625 1.12475 2.625 1.12475 0.25 3.49975 0.25 3.49975 2.5 3.37475 2.5"></polygon>
                        <path d="M1.1245,7.5115 L3.3745,7.5115 L3.3745,5.068 L1.1245,5.068 L1.1245,7.5115 Z M1.1245,12.398 L3.3745,12.398 L3.3745,9.955 L1.1245,9.955 L1.1245,12.398 Z M1.1245,17.2845 L3.3745,17.2845 L3.3745,14.841 L1.1245,14.841 L1.1245,17.2845 Z M1.1245,22.171 L3.3745,22.171 L3.3745,19.728 L1.1245,19.728 L1.1245,22.171 Z" id="Fill-28" fill="#202020" mask="url(#mask-4)"></path>
                        <polygon id="Fill-29" fill="#202020" mask="url(#mask-4)" points="3.49975 26.98925 1.12475 26.98925 1.12475 24.61425 3.37475 24.61425 3.37475 24.73925 3.49975 24.73925"></polygon>
                        <path d="M5.943,26.9895 L8.3865,26.9895 L8.3865,24.7395 L5.943,24.7395 L5.943,26.9895 Z M10.829,26.9895 L13.2725,26.9895 L13.2725,24.7395 L10.829,24.7395 L10.829,26.9895 Z M15.7155,26.9895 L18.159,26.9895 L18.159,24.7395 L15.7155,24.7395 L15.7155,26.9895 Z M20.602,26.9895 L23.0455,26.9895 L23.0455,24.7395 L20.602,24.7395 L20.602,26.9895 Z" id="Fill-30" fill="#202020" mask="url(#mask-4)"></path>
                        <polygon id="Fill-31" fill="#202020" mask="url(#mask-4)" points="27.864 26.98925 25.489 26.98925 25.489 24.73925 25.614 24.73925 25.614 24.61425 27.864 24.61425"></polygon>
                        <path d="M25.614,7.511 L27.864,7.511 L27.864,5.068 L25.614,5.068 L25.614,7.511 Z M25.614,12.398 L27.864,12.398 L27.864,9.9545 L25.614,9.9545 L25.614,12.398 Z M25.614,17.284 L27.864,17.284 L27.864,14.841 L25.614,14.841 L25.614,17.284 Z M25.614,22.171 L27.864,22.171 L27.864,19.7275 L25.614,19.7275 L25.614,22.171 Z" id="Fill-32" fill="#202020" mask="url(#mask-4)"></path>
                        <path d="M9.8695,18.245 L19.1195,18.245 L19.1195,8.995 L9.8695,8.995 L9.8695,18.245 Z M7.6195,20.495 L21.3695,20.495 L21.3695,6.745 L7.6195,6.745 L7.6195,20.495 Z" id="Fill-33" fill="#202020" mask="url(#mask-4)"></path>
                        <polygon id="Fill-34" fill="#202020" mask="url(#mask-4)" points="34.1235 14.745 41.1235 14.745 41.1235 12.495 34.1235 12.495"></polygon>
                        <path d="M35.62355,7.24515 C35.42055,7.24515 35.24855,7.41715 35.24855,7.62015 L35.24855,19.62015 C35.24855,19.82315 35.42055,19.99515 35.62355,19.99515 L39.62355,19.99515 C39.82655,19.99515 39.99855,19.82315 39.99855,19.62015 L39.99855,7.62015 C39.99855,7.41715 39.82655,7.24515 39.62355,7.24515 L35.62355,7.24515 Z M39.62355,22.24515 L35.62355,22.24515 C34.17605,22.24515 32.99855,21.06765 32.99855,19.62015 L32.99855,7.62015 C32.99855,6.17265 34.17605,4.99515 35.62355,4.99515 L39.62355,4.99515 C41.07105,4.99515 42.24855,6.17265 42.24855,7.62015 L42.24855,19.62015 C42.24855,21.06765 41.07105,22.24515 39.62355,22.24515 L39.62355,22.24515 Z" id="Fill-35" fill="#202020" mask="url(#mask-4)"></path>
                        <path d="M53.5464,2.5 C51.3889,2.5 49.6334,4.2555 49.6334,6.413 L49.6334,20.825 C49.6334,22.9835 51.3889,24.7395 53.5464,24.7395 L57.2084,24.7395 C59.3679,24.7395 61.1244,22.9835 61.1244,20.825 L61.1244,6.413 C61.1244,4.2555 59.3679,2.5 57.2084,2.5 L53.5464,2.5 Z M57.2084,26.9895 L53.5464,26.9895 C50.1479,26.9895 47.3834,24.224 47.3834,20.825 L47.3834,6.413 C47.3834,3.0145 50.1479,0.25 53.5464,0.25 L57.2084,0.25 C60.6084,0.25 63.3744,3.0145 63.3744,6.413 L63.3744,20.825 C63.3744,24.224 60.6084,26.9895 57.2084,26.9895 L57.2084,26.9895 Z" id="Fill-36" fill="#202020" mask="url(#mask-4)"></path>
                        <path d="M56.50295,6.6426 C56.50295,7.2631 55.99945,7.7691 55.37695,7.7691 C54.75595,7.7691 54.25295,7.2631 54.25295,6.6426 C54.25295,6.0176 54.75595,5.5151 55.37695,5.5151 C55.99945,5.5151 56.50295,6.0176 56.50295,6.6426" id="Fill-37" fill="#121111" mask="url(#mask-4)"></path>
                    </g>
                </g>
            </g>
        </g>
    </g>
</svg>