<?xml version="1.0" encoding="UTF-8" standalone="no"?>
<svg width="57px" height="71px" viewBox="0 0 57 71" version="1.1" xmlns="http://www.w3.org/2000/svg" xmlns:xlink="http://www.w3.org/1999/xlink">
    <!-- Generator: Sketch 3.8.3 (29802) - http://www.bohemiancoding.com/sketch -->
    <title>Group 13</title>
    <desc>Created with Sketch.</desc>
    <defs></defs>
    <g id="All-pages" stroke="none" stroke-width="1" fill="none" fill-rule="evenodd">
        <g id="colored-icons" transform="translate(-396.000000, -492.000000)">
            <g id="Group-25" transform="translate(224.000000, 168.000000)">
                <g id="Group-13" transform="translate(172.000000, 324.000000)">
                    <path d="M17.4529556,69 L34.5465409,69 L34.5465409,67.7154538 L35.6794334,67.7154538 C37.1003323,67.7154538 38.4366419,67.1646476 39.4416434,66.1647765 C40.4461415,65.1644042 41,63.8342498 41,62.4198958 L41,34 L11,34 L11,62.4198958 C11,63.8342498 11.553355,65.1644042 12.557853,66.1647765 C13.5628546,67.1646476 14.8991642,67.7154538 16.3200631,67.7154538 L17.4529556,67.7154538 L17.4529556,69 Z M36.6458838,71 L15.3536205,71 L15.3536205,69.6499353 C13.7820711,69.4169267 12.3314864,68.6911865 11.1877752,67.5489002 C9.77685107,66.1414491 9,64.2699597 9,62.2787503 L9,32 L43,32 L43,62.2787503 C43,64.2699597 42.2226532,66.1414491 40.811729,67.5489002 C39.6680178,68.6911865 38.2174331,69.4169267 36.6458838,69.6499353 L36.6458838,71 Z" id="Fill-34" fill="#374D6B"></path>
                    <polygon id="Fill-35" fill="#374D6B" points="14 53 16 53 16 37 14 37"></polygon>
                    <polygon id="Fill-36" fill="#374D6B" points="14 59 16 59 16 55 14 55"></polygon>
                    <path d="M46,58 L45,58 L45,56 L46,56 C47.2252003,55.7085354 48.0532305,55.3755092 49,55 C49.2984203,54.1645975 49.641686,53.3590204 50,53 L50,42 C49.641686,41.639452 49.2989444,40.8348933 49,40 C48.0532305,39.6244908 47.2252003,39.2914646 46,39 L45,39 L45,37 L46,37 C47.8546081,37 49.2753612,37.5718477 50,39 C51.4114696,39.6474054 52,41.0278855 52,42 L52,53 C52,53.9705868 51.4119937,55.3510669 50,56 C49.2753612,57.4281523 47.8546081,58 46,58" id="Fill-37" fill="#374D6B"></path>
                    <polygon id="Fill-38" fill="#00B4D5" points="32 42 34 42 34 34 32 34"></polygon>
                    <path d="M29,52 L36,52 L36,43 L29,43 L29,52 Z M27,54 L38,54 L38,41 L27,41 L27,54 Z" id="Fill-39" fill="#00B4D5"></path>
                    <path d="M22,23 C21.0362856,22.785526 20.513613,23.0049666 20,23 C19.7278535,23.8006284 19.5117822,24.330225 20,25 C19.5117822,25.455301 19.7278535,25.9843908 20,26 C20.5141132,26.7810663 21.0367857,27 22,27 L34,27 C35.0424102,27 35.5645826,26.7810663 36,26 C36.3508423,25.9843908 36.5669136,25.455301 37,25 C36.5669136,24.330225 36.3508423,23.8006284 36,23 C35.5650828,23.0049666 35.0429104,22.785526 34,23 L31,23 C30.0237531,22.785526 29.3120181,22.4860126 29,22 C28.242665,21.4024934 27.9470674,20.6813298 28,20 C27.9470674,19.1447395 28.242665,18.4235759 29,18 C29.3120181,17.3400568 30.0237531,17.0405433 31,17 L52,17 C52.692238,17.0405433 53.4834993,16.7085952 54,16 C54.672892,15.5044598 55,14.7032232 55,14 C55,12.9983783 54.672892,12.1971417 54,12 C53.4834993,10.9930063 52.692238,10.6610582 52,11 L26,11 C25.2551786,10.6610582 24.5434436,10.3620515 24,10 C23.4730902,9.27954592 23.1779927,8.55787553 23,8 C23.1779927,7.02077843 23.47259,6.29910805 24,6 C24.5444439,5.21406852 25.2561789,4.91607541 26,5 L42,5 C41.91668,4.91607541 42.2772991,4.7645449 43,4 C42.8209786,4.21366309 42.970528,3.84826677 43,3 C42.970528,3.06882222 42.8204785,2.70291912 43,2 C42.2767989,2.1520373 41.9156797,2 42,2 L11,2 C10.4542915,2 10.0926721,2.1520373 10,2 C9.54899259,2.70291912 9.39894305,3.0698358 9,3 C9.39894305,3.84725319 9.54899259,4.21366309 10,4 C10.0926721,4.76403811 10.4537913,4.91607541 11,5 L13,5 C14.2205351,4.91607541 14.9322701,5.21406852 15,6 C16.0046242,6.30113521 16.2987213,7.0222988 16,8 C16.2987213,8.55584837 16.004124,9.27751875 15,10 C14.9327703,10.3620515 14.2210352,10.6610582 13,11 L5,11 C4.30726183,10.6610582 3.5170009,10.9924995 3,12 C2.32760817,12.1976485 2,12.9988851 2,14 C2,14.7027164 2.32760817,15.503953 3,16 C3.5170009,16.709102 4.30726183,17.0405433 5,17 L23,17 C23.4915963,17.0405433 24.2038315,17.33955 25,18 C25.274685,18.4245895 25.5692823,19.1457531 26,20 C25.5692823,20.6803162 25.274685,21.4019866 25,22 C24.2038315,22.4865194 23.4915963,22.785526 23,23 L22,23 Z M22,29 C20.506415,29 19.4285391,28.5525459 19,28 C17.8052799,26.9253043 17.3590571,25.844454 17,25 C17.3590571,23.5460312 17.8052799,22.4646837 19,22 C19.4270517,20.8384365 20.5049276,21.3909823 22,21 L23,20 C23.3637281,19.6551689 23.3037359,19.5094977 23,19 C23.0850868,19.2902452 5,19 5,19 C3.92279389,19.2295903 2.57867177,18.6712669 2,18 C0.556786848,16.6442997 0,15.2959712 0,14 C0,12.4297788 0.556786848,11.0819475 2,10 C2.57867177,9.05498028 3.92279389,9.54157883 5,9.04492188 L14,9.04492188 C13.8958727,8.44084164 13.7496108,7.33526487 14,7 L11,7 C10.015222,7.33526487 9.09699474,6.95393451 8,6 C7.71519158,5.56831819 7.33441482,4.64705983 7,4 C7.33441482,2.68969655 7.71469578,1.76893537 8,1 C9.09848215,0.381330362 10.0162136,0 11,0 L41,0 C42.3946331,0 43.3133562,0.381827533 44,1 C44.6951594,1.76744385 45.0754404,2.68870221 45,4 C45.0754404,4.64855135 44.6951594,5.5698097 44,6 C43.3148436,6.95393451 42.3961206,7.33526487 41,7 L26,7 C25.8789371,7.33526487 25.4555212,7.82597291 25,8 C25.4555212,8.00594891 25.8794329,9.54157883 26,9.04492188 L52,9.04492188 C53.0767103,9.54157883 54.4208324,9.05448311 55,10 C56.4432132,11.0814504 57,12.4292817 57,14 C57,15.2969655 56.4432132,16.6447968 55,18 C54.4208324,18.6717641 53.0767103,19.2295903 52,19 L31,19 C30.6723612,19.2295903 30.5008133,19.2514658 30,19 C30.2048189,19.548277 30.1830035,19.7202983 30,20 C30.5008133,20.3691068 30.6723612,21.3909823 31,21 L34,21 C35.5818032,21.3909823 36.6601748,20.8384365 37,22 C38.2814509,22.4646837 38.7276736,23.5460312 39,25 C38.7276736,25.844454 38.2814509,26.9253043 37,28 C36.6586874,28.5525459 35.5808116,29 34,29 L22,29 Z" id="Fill-40" fill="#00B4D5"></path>
                </g>
            </g>
        </g>
    </g>
</svg>