<svg xmlns="http://www.w3.org/2000/svg" width="45" height="45" viewBox="0 0 45 45">
  <g fill="none" fill-rule="evenodd" stroke="#FFFFFF" stroke-width="2" transform="translate(1 1)" stroke-linecap="round" stroke-linejoin="round">
    <path d="M43,21.5 C43,33.3736146 33.3743949,43 21.4994973,43 C9.62560505,43 0,33.3736146 0,21.5 C0,9.62638545 9.62560505,0 21.4994973,0 C33.3743949,0 43,9.62638545 43,21.5 Z"/>
    <path d="M16 26L16 26C16 28.7618764 18.2381236 31 21 31L21 31C23.7618764 31 26 28.7618764 26 26L26 26C26 23.2381236 23.7618764 21 21 21 18.2381236 21 16 18.7618764 16 16L16 16C16 13.2381236 18.2381236 11 21 11L21 11C23.7618764 11 26 13.2381236 26 16L26 16M21 31L21 34M21 8L21 11"/>
  </g>
</svg>
