<?xml version="1.0" encoding="UTF-8" standalone="no"?>
<svg width="70px" height="47px" viewBox="0 0 70 47" version="1.1" xmlns="http://www.w3.org/2000/svg" xmlns:xlink="http://www.w3.org/1999/xlink">
    <!-- Generator: Sketch 3.8.3 (29802) - http://www.bohemiancoding.com/sketch -->
    <title>Group 36</title>
    <desc>Created with Sketch.</desc>
    <defs>
        <polyline id="path-1" points="54 10 27 36.5 0 10"></polyline>
        <mask id="mask-2" maskContentUnits="userSpaceOnUse" maskUnits="objectBoundingBox" x="0" y="0" width="54" height="26.5" fill="white">
            <use xlink:href="#path-1"></use>
        </mask>
        <polyline id="path-3" points="41.2641509 10 27.254717 36.2028302 13.245283 10"></polyline>
        <mask id="mask-4" maskContentUnits="userSpaceOnUse" maskUnits="objectBoundingBox" x="0" y="0" width="28.0188679" height="26.2028302" fill="white">
            <use xlink:href="#path-3"></use>
        </mask>
        <polygon id="path-5" points="43.8113208 0 54 10 0 10 10.1886792 0"></polygon>
        <mask id="mask-6" maskContentUnits="userSpaceOnUse" maskUnits="objectBoundingBox" x="0" y="0" width="54" height="10" fill="white">
            <use xlink:href="#path-5"></use>
        </mask>
        <polyline id="path-7" points="17.5813953 0.522034611 8.79069767 8.47203461 0 0.522034611"></polyline>
        <mask id="mask-8" maskContentUnits="userSpaceOnUse" maskUnits="objectBoundingBox" x="0" y="0" width="17.5813953" height="7.95" fill="white">
            <use xlink:href="#path-7"></use>
        </mask>
        <polyline id="path-9" points="35.4945151 0.6 26.7038175 8.55 17.9131198 0.6"></polyline>
        <mask id="mask-10" maskContentUnits="userSpaceOnUse" maskUnits="objectBoundingBox" x="0" y="0" width="17.5813953" height="7.95" fill="white">
            <use xlink:href="#path-9"></use>
        </mask>
    </defs>
    <g id="All-pages" stroke="none" stroke-width="1" fill="none" fill-rule="evenodd">
        <g id="epay-web-pricing-tab2-1920" transform="translate(-261.000000, -1203.000000)">
            <g id="Group-36" transform="translate(261.000000, 1203.000000)">
                <g id="Group-11" transform="translate(0.000000, 6.000000)">
                    <g id="Group-4">
                        <g id="Group-34" fill="#374D6B">
                            <polygon id="Fill-1" points="1 9 59 9 59 7 1 7"></polygon>
                            <polygon id="Fill-2" points="1 15 59 15 59 13 1 13"></polygon>
                            <path d="M55.9636364,2 L4.03636364,2 C3.25632579,2.00102558 2.82504977,2.1815284 2,2 C2.18041629,2.8353383 2.00101357,3.27326274 2,4.05555556 L2,36.9444444 C2,37.72725 2.18345701,38.1769687 2,39 C2.82048869,38.8230867 3.24973756,39 4.03636364,39 L55.9636364,39 C56.7472217,39 57.1759638,38.8235995 56.9818182,39 C57.8170498,38.173892 57.9984796,37.729814 58,36.9444444 L58,4.05555556 C58,3.27428833 57.8200905,2.83636389 58,2 C57.1708959,2.18050281 56.7431674,2 55.9636364,2 L55.9636364,2 Z M56,41 L4,41 C2.89305439,41 1.89991632,40.5887572 1,40 C0.422259414,39.0968652 0,38.0687582 0,37 L0,4 C0.0010041841,2.92366365 0.411213389,1.92334327 1,1 C1.9074477,0.415789733 2.89807531,0.00303127387 4,0 L56,0 C57.0953975,0 58.085523,0.412758459 59,1 C59.5882845,1.92283806 60,2.92366365 60,4 L60,37 C60.0020084,38.068253 59.5782427,39.0993913 59,40 C58.1025941,40.5862311 57.1079498,41 56,41 L56,41 Z" id="Fill-3"></path>
                        </g>
                        <path d="M16,31 L16,31 C16.3829841,30.6766182 16.7405714,30.876354 17,31 C17.6685714,32.3299868 18.8647619,33 20,33 C22.2740317,33 24,31.2055482 24,29 C24,26.7944518 22.2740317,25 20,25 C18.8647619,25 17.6680635,25.6700132 17,27 C16.7405714,27.1247028 16.3829841,27.3239102 16,27 C15.6170159,27.3239102 15.2599365,27.1247028 15,27 C14.3314286,25.6700132 13.1321905,25 12,25 C9.72292063,25 8,26.7944518 8,29 C8,31.2055482 9.72292063,33 12,33 C13.1321905,33 14.3314286,32.3299868 15,31 C15.2599365,30.876354 15.6170159,30.6766182 16,31 M20,35 C18.5209877,35 17.0874074,34.4223695 16,33 C14.9106173,34.4223695 13.4745679,35 12,35 C8.67160494,35 6,32.3086993 6,29 C6,25.6913007 8.67160494,23 12,23 C13.4750617,23 14.9106173,23.5776305 16,25 C17.0874074,23.5776305 18.5209877,23 20,23 C23.3249383,23 26,25.6913007 26,29 C26,32.3086993 23.3249383,35 20,35" id="Fill-8" fill="#00B4D5"></path>
                    </g>
                </g>
                <g id="Group-37" transform="translate(16.000000, 0.000000)" stroke="#374D6B" stroke-width="4">
                    <use id="Rectangle-941" mask="url(#mask-2)" fill="#FFFFFF" xlink:href="#path-1"></use>
                    <use id="Rectangle-941" mask="url(#mask-4)" fill="#FFFFFF" xlink:href="#path-3"></use>
                    <use id="Rectangle-941" mask="url(#mask-6)" fill="#FFFFFF" xlink:href="#path-5"></use>
                    <g id="Group-48" transform="translate(9.169811, 1.000000)">
                        <use id="Rectangle-941" mask="url(#mask-8)" xlink:href="#path-7"></use>
                        <use id="Rectangle-941" mask="url(#mask-10)" xlink:href="#path-9"></use>
                    </g>
                </g>
            </g>
        </g>
    </g>
</svg>