<svg xmlns="http://www.w3.org/2000/svg" width="76" height="56" viewBox="0 0 76 56">
  <g fill="none" fill-rule="evenodd" stroke-linecap="round" stroke-linejoin="round" stroke-width="2" transform="translate(1 1)">
    <polyline stroke="#374D6B" points="41.583 28.685 46.117 34.665 43.694 36.529"/>
    <polyline stroke="#374D6B" points="16.181 36.592 0 15.251 19.833 0 23.761 5.18"/>
    <polyline stroke="#374D6B" points="39.819 28.175 46.518 42.616 23.909 53.251 5.58 13.734 28.188 3.098 36.266 20.514"/>
    <path stroke="#00B4D6" d="M33.5024961,20.3251339 L28.0437054,8.55624537 C26.8304496,9.1270122 25.3877364,8.59899511 24.8209767,7.37716126 L10.9990388,13.879166 C11.5657984,15.1009998 11.0414884,16.5539134 9.8288062,17.1246802 L24.0534419,47.7935763 C25.2666977,47.2228095 26.7094109,47.7508266 27.2761705,48.9726605 L41.0981085,42.4706557 C40.5313488,41.2488219 41.0556589,39.7959084 42.2689147,39.2251415 L36.9248527,27.704086"/>
    <path stroke="#00B4D6" d="M27.0596202,21.8817444 C25.8480853,21.6830159 24.5659922,21.8366839 23.3699457,22.3993629 C20.2022868,23.8892492 18.8341473,27.683 20.3135736,30.8730551 C21.793,34.0625324 25.5601163,35.4403451 28.7272016,33.9504588 C31.4680698,32.6616118 32.8614496,29.647755 32.2292946,26.7927655"/>
    <path stroke="#374D6B" d="M49.8446217 19.9793231C49.8446217 19.9793231 40.1035829 20.7020248 36.3100791 20.4957862 32.5160016 20.2889699 26.8765132 19.5662682 26.8765132 22.7672995 26.8765132 25.9683309 31.6956915 26.897849 38.3608543 27.9301975 45.0254434 28.9631237 46.6660636 32.164155 53.5360171 32.164155 60.4059705 32.164155 63.0946372 27.9301975 66.9282961 28.0336056M58.8677457 26.0716813C58.8677457 26.0716813 62.2740403 25.1421633 66.9280093 25.1421633M33.8174837 15.2356037C35.9491426 14.2488935 38.8873442 13.0189718 40.4115147 12.9577357 42.9745535 12.8543276 46.2557938 12.3378645 53.5359023 14.7127859 60.8160109 17.0882851 66.9281814 16.4684139 66.9281814 16.4684139"/>
    <polygon stroke="#374D6B" points="66.928 31.028 73.94 31.028 73.94 13.371 66.928 13.371"/>
    <path stroke="#374D6B" d="M71.6903969,27.3366693 C71.6903969,26.6382309 71.1282264,26.071508 70.4341178,26.071508 C69.7405829,26.071508 69.1784124,26.6382309 69.1784124,27.3366693 C69.1784124,28.0351076 69.7405829,28.6018306 70.4341178,28.6018306 C71.1282264,28.6018306 71.6903969,28.0351076 71.6903969,27.3366693 Z"/>
  </g>
</svg>
