<?xml version="1.0" encoding="UTF-8" standalone="no"?>
<svg width="71px" height="71px" viewBox="0 0 71 71" version="1.1" xmlns="http://www.w3.org/2000/svg" xmlns:xlink="http://www.w3.org/1999/xlink">
    <!-- Generator: Sketch 3.7 (28169) - http://www.bohemiancoding.com/sketch -->
    <title>Group 40</title>
    <desc>Created with Sketch.</desc>
    <defs></defs>
    <g id="Page-1" stroke="none" stroke-width="1" fill="none" fill-rule="evenodd">
        <g id="epay-web-services-busines-solutions" transform="translate(-653.000000, -3269.000000)">
            <g id="Group-40" transform="translate(653.000000, 3269.000000)">
                <path d="M48,31 L48,24 C47.714404,22.1775787 47.8356095,20.5638337 46.6712723,19.7160585 C45.829872,18.5604735 43.8288907,18.2910091 42,18 L31,18 C29.1639986,18.2910091 27.3367457,18.5594553 26.4999166,19.7160585 C25.3365952,20.5643428 25.285596,22.1780878 25,24 L25,31 L23,31 L23,24 C23,21.5651156 23.7898004,19.658996 25,18 C26.6503508,16.7911618 28.5524747,16 31,16 L42,16 C44.4363513,16 46.3384751,16.7896345 48,18 C49.2122312,19.6595051 50,21.5656247 50,24 L50,31 L48,31 Z" id="Fill-1" fill="#00B4D5"></path>
                <polygon id="Fill-3" fill="#00B4D5" points="29 31 31 31 31 24 29 24"></polygon>
                <polygon id="Fill-5" fill="#00B4D5" points="42 31 44 31 44 24 42 24"></polygon>
                <path d="M36.5,2 C33.4680401,2 31,4.46680109 31,7.5 C31,10.5326708 33.4680401,13 36.5,13 C39.5330164,13 42,10.5326708 42,7.5 C42,4.46680109 39.5330164,2 36.5,2 M37,15 C32.3653556,15 29,11.6353213 29,7 C29,3.3641758 32.3653556,0 37,0 C40.6361533,0 44,3.3641758 44,7 C44,11.6353213 40.6361533,15 37,15" id="Fill-6" fill="#00B4D5"></path>
                <path d="M60,46 C59.7706109,44.7184138 59.2702369,43.5185263 58,43 C57.4510554,41.7127891 56.243222,41.2147226 55,41 L18,41 C16.7592551,41.2147226 15.5504308,41.7127891 15,43 C13.7302585,43.520495 13.2293891,44.7213668 13,46 L11,46 C11,44.1288055 11.7337167,42.3713 13,41 C14.3931302,39.7288898 16.1627697,39 18,39 L55,39 C56.8402028,39 58.6088515,39.729382 60,41 C61.2662833,42.3668706 62,44.1248682 62,46 L60,46 Z" id="Fill-7" fill="#00B4D5"></path>
                <polygon id="Fill-8" fill="#00B4D5" points="35 46 37 46 37 34 35 34"></polygon>
                <path d="M60.6666667,58 C58.8973454,58 58,58.8974201 58,60.6666667 C58,61.1031941 58.8973454,62 60.6666667,62 C61.1026546,62 62,61.1031941 62,60.6666667 C62,58.8974201 61.1026546,58 60.6666667,58 M60,64 C57.7946768,64 56,62.2057762 56,60 C56,57.7947396 57.7946768,56 60,56 C62.2058388,56 64,57.7947396 64,60 C64,62.2057762 62.2058388,64 60,64" id="Fill-9" fill="#374D6B"></path>
                <path d="M36.6666667,58 C34.8973454,58 34,58.8974201 34,60.6666667 C34,61.1031941 34.8973454,62 36.6666667,62 C37.1026546,62 38,61.1031941 38,60.6666667 C38,58.8974201 37.1026546,58 36.6666667,58 M36,64 C33.7946768,64 32,62.2057762 32,60 C32,57.7947396 33.7946768,56 36,56 C38.2058388,56 40,57.7947396 40,60 C40,62.2057762 38.2058388,64 36,64" id="Fill-12" fill="#374D6B"></path>
                <path d="M43,65 C45.533089,61.3257702 45.4141576,56.3040601 42.3721262,53.5592605 C39.1347585,50.0136802 33.0606756,50.0136802 29.8234645,53.5592605 C26.7812765,56.3040601 26.4672659,61.3257702 29,65 L27,66 C23.9490611,61.6701116 24.5685098,55.8772847 28,52 C32.5072745,47.9251501 39.4930805,47.9246376 44,52 C47.4318451,55.8772847 48.0507823,61.6701116 45,66 L43,65 Z" id="Fill-13" fill="#374D6B"></path>
                <path d="M17.9686331,65.0563296 C20.5017221,61.3820998 20.3827907,56.3603897 17.3407593,53.6155901 C14.1033915,50.0700098 8.0293087,50.0700098 4.79209757,53.6155901 C1.74990953,56.3603897 1.43589894,61.3820998 3.96863307,65.0563296 L1.96863307,66.0563296 C-1.08230586,61.7264413 -0.46285715,55.9336143 2.96863307,52.0563296 C7.47590753,47.9814797 14.4617135,47.9809673 18.9686331,52.0563296 C22.4004782,55.9336143 23.0194154,61.7264413 19.9686331,66.0563296 L17.9686331,65.0563296 Z" id="Fill-13" fill="#374D6B"></path>
                <path d="M66.9686331,65.0563296 C69.5017221,61.3820998 69.3827907,56.3603897 66.3407593,53.6155901 C63.1033915,50.0700098 57.0293087,50.0700098 53.7920976,53.6155901 C50.7499095,56.3603897 50.4358989,61.3820998 52.9686331,65.0563296 L50.9686331,66.0563296 C47.9176941,61.7264413 48.5371429,55.9336143 51.9686331,52.0563296 C56.4759075,47.9814797 63.4617135,47.9809673 67.9686331,52.0563296 C71.4004782,55.9336143 72.0194154,61.7264413 68.9686331,66.0563296 L66.9686331,65.0563296 Z" id="Fill-13" fill="#374D6B"></path>
                <path d="M40,68 C39.1230856,67.2403756 38.5846626,66.6760671 37.7878876,66.6760671 L34.3593161,66.6760671 C33.561974,66.6760671 32.8763471,67.2403756 32,68 C34.4974475,69.268008 37.5031197,69.268008 40,68 Z M36,71 C34.1124478,71 32.2597594,70.5181176 31,70 L30,69 L30,69 C30.2469924,67.6536471 30.6707587,66.8498824 31,66 C32.1507488,65.4310588 33.235453,65 34,65 L38,65 C38.764056,65 39.8492512,65.4310588 41,66 C41.3287503,66.8498824 41.7525166,67.6536471 42,69 L42,69 L41,70 C39.7402406,70.5181176 37.8870611,71 36,71" id="Fill-14" fill="#374D6B"></path>
                <path d="M64,68 C63.1230856,67.2403756 62.5846626,66.6760671 61.7878876,66.6760671 L58.3593161,66.6760671 C57.561974,66.6760671 56.8763471,67.2403756 56,68 C58.4974475,69.268008 61.5031197,69.268008 64,68 Z M60,71 C58.1124478,71 56.2597594,70.5181176 55,70 L54,69 L54,69 C54.2469924,67.6536471 54.6707587,66.8498824 55,66 C56.1507488,65.4310588 57.235453,65 58,65 L62,65 C62.764056,65 63.8492512,65.4310588 65,66 C65.3287503,66.8498824 65.7525166,67.6536471 66,69 L66,69 L65,70 C63.7402406,70.5181176 61.8870611,71 60,71" id="Fill-14" fill="#374D6B"></path>
                <path d="M15,68 C14.1230856,67.2403756 13.5846626,66.6760671 12.7878876,66.6760671 L9.35931614,66.6760671 C8.56197395,66.6760671 7.87634714,67.2403756 7,68 C9.49744753,69.268008 12.5031197,69.268008 15,68 Z M11,71 C9.11244783,71 7.25975939,70.5181176 6,70 L5,69 L5,69 C5.24699239,67.6536471 5.67075865,66.8498824 6,66 C7.15074883,65.4310588 8.23545298,65 9,65 L13,65 C13.764056,65 14.8492512,65.4310588 16,66 C16.3287503,66.8498824 16.7525166,67.6536471 17,69 L17,69 L16,70 C14.7402406,70.5181176 12.8870611,71 11,71" id="Fill-14" fill="#374D6B"></path>
                <path d="M11.6666667,58 C9.8973454,58 9,58.8974201 9,60.6666667 C9,61.1031941 9.8973454,62 11.6666667,62 C12.1026546,62 13,61.1031941 13,60.6666667 C13,58.8974201 12.1026546,58 11.6666667,58 M11,64 C8.79467681,64 7,62.2057762 7,60 C7,57.7947396 8.79467681,56 11,56 C13.2058388,56 15,57.7947396 15,60 C15,62.2057762 13.2058388,64 11,64" id="Fill-15" fill="#374D6B"></path>
            </g>
        </g>
    </g>
</svg>