<svg xmlns="http://www.w3.org/2000/svg" width="62" height="61" viewBox="0 0 62 61">
  <g fill="none">
    <g fill="#FFF">
      <polygon points="30.931 0 29.931 3.047 26.699 3.047 29.314 4.93 28.315 7.977 30.931 6.094 33.546 7.977 32.547 4.93 35.163 3.047 31.93 3.047"/>
      <polygon points="29.931 55.963 26.699 55.963 29.314 57.846 28.315 60.893 30.931 59.01 33.546 60.893 32.547 57.846 35.162 55.963 31.93 55.963 30.931 52.916"/>
      <polygon points="3.233 29.505 0 29.505 2.615 31.388 1.616 34.435 4.232 32.552 6.847 34.435 5.848 31.388 8.464 29.505 5.231 29.505 4.232 26.458"/>
      <polygon points="15.965 8.475 14.966 11.522 17.581 9.639 20.197 11.522 19.198 8.475 21.813 6.592 18.58 6.592 17.581 3.545 16.582 6.592 13.349 6.592"/>
      <polygon points="7.809 13.229 6.81 16.276 3.577 16.276 6.192 18.159 5.193 21.206 7.809 19.323 10.424 21.206 9.425 18.159 12.041 16.276 8.808 16.276"/>
      <polygon points="8.808 42.734 7.809 39.687 6.81 42.734 3.577 42.734 6.192 44.617 5.193 47.664 7.809 45.781 10.424 47.664 9.425 44.617 12.041 42.734"/>
      <polygon points="18.58 52.418 17.581 49.371 16.582 52.418 13.349 52.418 15.965 54.301 14.966 57.348 17.581 55.465 20.197 57.348 19.198 54.301 21.813 52.418"/>
      <polygon points="56.63 29.505 53.397 29.505 56.013 31.388 55.014 34.435 57.629 32.552 60.245 34.435 59.246 31.388 61.861 29.505 58.628 29.505 57.629 26.458"/>
      <polygon points="44.28 3.545 43.281 6.592 40.048 6.592 42.663 8.475 41.664 11.522 44.28 9.639 46.895 11.522 45.896 8.475 48.512 6.592 45.279 6.592"/>
      <polygon points="52.436 18.159 51.437 21.206 54.052 19.323 56.668 21.206 55.669 18.159 58.284 16.276 55.051 16.276 54.052 13.229 53.053 16.276 49.82 16.276"/>
      <polygon points="55.051 42.734 54.052 39.687 53.053 42.734 49.82 42.734 52.436 44.617 51.437 47.664 54.052 45.781 56.668 47.664 55.669 44.617 58.284 42.734"/>
      <polygon points="45.279 52.418 44.28 49.371 43.281 52.418 40.048 52.418 42.663 54.301 41.664 57.348 44.28 55.465 46.895 57.348 45.896 54.301 48.512 52.418"/>
    </g>
    <g transform="translate(24 22)">
      <polygon fill="#00B4D5" points="9.494 5.494 10.506 6.506 14.506 2.506 13.494 1.494 10.506 4.483 7.517 1.494 6.506 2.506 10.506 6.506 11.517 5.494 10.506 4.483" transform="rotate(-90 10.506 4)"/>
      <rect width="10" height="2" x="1" y="3" fill="#0AB6D6"/>
      <polygon fill="#00B4D5" points="2.483 14.494 3.494 15.506 7.494 11.506 6.483 10.494 3.494 13.483 .506 10.494 -.506 11.506 3.494 15.506 4.506 14.494 3.494 13.483" transform="matrix(0 -1 -1 0 16.494 16.494)"/>
      <rect width="10" height="2" x="3" y="12" fill="#0AB6D6" transform="matrix(-1 0 0 1 16 0)"/>
    </g>
  </g>
</svg>
