<svg xmlns="http://www.w3.org/2000/svg" width="56" height="63" viewBox="0 0 56 63">
  <g fill="none" fill-rule="evenodd" stroke-linecap="round" stroke-linejoin="round" stroke-width="2" transform="translate(1 1)">
    <polygon stroke="#264C6D" points="0 61 10 61 10 43 0 43"/>
    <path stroke="#264C6D" d="M10,44.9981997 L25.1821851,44 C25.1821851,44 37.7825477,47.5767993 38.7177038,48.1072484 C39.6518703,48.6376974 38.0655685,52.5110705 36.8978603,52.9619025 C35.7301522,53.4127344 24.0639561,49.7135238 24.0639561,49.7135238"/>
    <path stroke="#264C6D" d="M39.1354907,49.093198 L51.1963954,44 C52.3709326,44 54.4004931,47.6287494 53.9306782,48.5731903 C53.4608633,49.5176312 36.7714857,60 32.5431517,60 C28.3138223,60 20.9878952,58.0484296 17.2283808,57.3208299 C13.4698617,56.5932301 10,58.5540497 10,58.5540497"/>
    <path stroke="#00B6D7" d="M48,26 C48,19.9254319 43.0755528,15 37,15 C30.9244472,15 26,19.9254319 26,26 C26,32.0755528 30.9244472,37 37,37 C43.0755528,37 48,32.0755528 48,26 Z"/>
    <path stroke="#00B6D7" d="M34 29.0002415L34 29.0002415C34 30.657113 35.343745 32 36.999517 32 38.656255 32 40 30.657113 40 29.0002415 40 27.3433701 38.656255 26.0004831 36.999517 26.0004831 35.343745 26.0004831 34 24.6566299 34 22.9997585 34 21.342887 35.343745 20 36.999517 20 38.656255 20 40 21.342887 40 22.9997585M37 20L37 18M37 34L37 32M35.1886134 15.1557087C35.7114851 13.8736965 36 12.4705724 36 10.9995077 36 4.92521148 31.0755528 0 25 0 18.9244472 0 14 4.92521148 14 10.9995077 14 17.0747885 18.9244472 22 25 22 25.5691523 22 26.1294423 21.9566755 26.674962 21.8729804"/>
    <path stroke="#00B6D7" d="M22 14.0002415L22 14.0002415C22 15.657113 23.343745 17 24.999517 17 26.656255 17 28 15.657113 28 14.0002415 28 12.3433701 26.656255 11.0004831 24.999517 11.0004831 23.343745 11.0004831 22 9.6566299 22 8.00072458 22 6.34288705 23.343745 5 24.999517 5 26.656255 5 28 6.34288705 28 8.00072458M25 5L25 3M25 19L25 17"/>
  </g>
</svg>
