<?xml version="1.0" encoding="UTF-8" standalone="no"?>
<svg width="64px" height="62px" viewBox="0 0 64 62" version="1.1" xmlns="http://www.w3.org/2000/svg" xmlns:xlink="http://www.w3.org/1999/xlink">
    <!-- Generator: Sketch 3.8.3 (29802) - http://www.bohemiancoding.com/sketch -->
    <title>Group 27</title>
    <desc>Created with Sketch.</desc>
    <defs></defs>
    <g id="Page-1" stroke="none" stroke-width="1" fill="none" fill-rule="evenodd">
        <g id="colored-icons-and-chars" transform="translate(-224.000000, -980.000000)">
            <g id="Group-27" transform="translate(224.000000, 980.000000)">
                <polygon id="Fill-23" fill="#00B4D5" points="28 2 26.1052632 2 26.1052632 1.89473684 26 1.89473684 26 0 28 0"></polygon>
                <path d="M6,2 L8,2 L8,0 L6,0 L6,2 Z M11,2 L13,2 L13,0 L11,0 L11,2 Z M16,2 L18,2 L18,0 L16,0 L16,2 Z M21,2 L23,2 L23,0 L21,0 L21,2 Z" id="Fill-25" fill="#00B4D5"></path>
                <polygon id="Fill-27" fill="#00B4D5" points="2.89473684 2 1 2 1 0 3 0 3 1.89473684 2.89473684 1.89473684"></polygon>
                <g id="Group-26">
                    <path d="M1,62 L63,62 L63,45 L1,45 L1,62 Z M3,60 L61,60 L61,47 L3,47 L3,60 Z" id="Fill-1" fill="#374D6B"></path>
                    <polygon id="Fill-2" fill="#374D6B" points="56 51 58 51 58 46 56 46"></polygon>
                    <polygon id="Fill-3" fill="#374D6B" points="51 51 53 51 53 46 51 46"></polygon>
                    <polygon id="Fill-4" fill="#374D6B" points="46 51 48 51 48 46 46 46"></polygon>
                    <polygon id="Fill-5" fill="#374D6B" points="41 51 43 51 43 46 41 46"></polygon>
                    <polygon id="Fill-6" fill="#374D6B" points="36 51 38 51 38 46 36 46"></polygon>
                    <polygon id="Fill-7" fill="#374D6B" points="31 51 33 51 33 46 31 46"></polygon>
                    <polygon id="Fill-8" fill="#374D6B" points="26 51 28 51 28 46 26 46"></polygon>
                    <polygon id="Fill-9" fill="#374D6B" points="21 51 23 51 23 46 21 46"></polygon>
                    <polygon id="Fill-10" fill="#374D6B" points="16 51 18 51 18 46 16 46"></polygon>
                    <polygon id="Fill-11" fill="#374D6B" points="11 51 13 51 13 46 11 46"></polygon>
                    <polygon id="Fill-12" fill="#374D6B" points="6 51 8 51 8 46 6 46"></polygon>
                    <polygon id="Fill-13" fill="#374D6B" points="7 39 7 34 2 37"></polygon>
                    <polygon id="Fill-14" fill="#374D6B" points="52 37 17 37 17 35 52 35"></polygon>
                    <polygon id="Fill-15" fill="#374D6B" points="0 36 11 42 12 40 5 36 12 32 11 30"></polygon>
                    <path d="M14,40 L51,40 L51,32.0009683 L14,32 L17.3762911,35.2294378 C17.8212326,35.6550263 17.8212326,36.3444895 17.3762911,36.7700781 L14,40 L14,40 Z M51.8654527,42 L11.1341958,42 C10.6753344,42 10.261855,41.74235 10.0863783,41.346942 C9.91090165,40.9515339 10.0077164,40.4968852 10.3319448,40.1940994 L14.8297945,35.9997649 L10.3319448,31.8054304 C10.0077164,31.5031148 9.91090165,31.0479959 10.0863783,30.6525879 C10.261855,30.2571798 10.6753344,30 11.1341958,30 L51.8654527,30.0009403 C52.492227,30.0009403 53,30.4743956 53,31.0588097 L53,40.9421306 C53,41.5260745 52.4917228,42 51.8654527,42 L51.8654527,42 Z" id="Fill-16" fill="#374D6B"></path>
                    <path d="M53,40 L57,40 L57,32.0004842 L53,32 L53,40 Z M57.8007995,42 L52.1992005,42 C51.5372418,42 51,41.5260374 51,40.9420477 L51,31.0579523 C51,30.7772423 51.1263158,30.5082873 51.3512325,30.3098625 C51.5761492,30.1114376 51.8810127,30 52.1992005,30 L57.8007995,30.0004702 C58.4632911,30.0004702 59,30.4744328 59,31.0584225 L59,40.9420477 C59,41.5260374 58.4627582,42 57.8007995,42 L57.8007995,42 Z" id="Fill-18" fill="#374D6B"></path>
                    <path d="M57.0009403,42 L57.0009403,39.8840125 C58.0380814,39.8840125 59.0136334,39.480094 59.7484709,38.7460815 C60.4809577,38.0125392 60.8852829,37.0368339 60.8843426,36.0009404 C60.8843426,34.9617555 60.4804876,33.9865204 59.7480008,33.2534483 C59.0136334,32.5203762 58.0394918,32.1159875 57.0047015,32.1159875 L57.0018806,32.1159875 L57,30 L57.0047015,30 C58.6041366,30 60.1095427,30.6244514 61.2430637,31.75721 C62.3761145,32.8899687 62.9999976,34.3970219 62.9999976,36 C63.0014081,37.6010972 62.3770548,39.1081505 61.244004,40.2423197 C60.1095427,41.3760188 58.6027262,42 57.0009403,42" id="Fill-20" fill="#374D6B"></path>
                    <path d="M1,7 L3,7 L3,5 L1,5 L1,7 Z M1,12 L3,12 L3,10 L1,10 L1,12 Z M1,17 L3,17 L3,15 L1,15 L1,17 Z M1,22 L3,22 L3,20 L1,20 L1,22 Z" id="Fill-28" fill="#00B4D5"></path>
                    <polygon id="Fill-29" fill="#00B4D5" points="3 27 1 27 1 25 2.89473684 25 2.89473684 25.1052632 3 25.1052632"></polygon>
                    <path d="M6,27 L8,27 L8,25 L6,25 L6,27 Z M11,27 L13,27 L13,25 L11,25 L11,27 Z M16,27 L18,27 L18,25 L16,25 L16,27 Z M21,27 L23,27 L23,25 L21,25 L21,27 Z" id="Fill-30" fill="#00B4D5"></path>
                    <polygon id="Fill-31" fill="#00B4D5" points="28 27 26 27 26 25.1052632 26.1052632 25.1052632 26.1052632 25 28 25"></polygon>
                    <path d="M26,7 L28,7 L28,5 L26,5 L26,7 Z M26,12 L28,12 L28,10 L26,10 L26,12 Z M26,17 L28,17 L28,15 L26,15 L26,17 Z M26,22 L28,22 L28,20 L26,20 L26,22 Z" id="Fill-32" fill="#00B4D5"></path>
                    <path d="M10,18 L19,18 L19,9 L10,9 L10,18 Z M8,20 L21,20 L21,7 L8,7 L8,20 Z" id="Fill-33" fill="#00B4D5"></path>
                    <polygon id="Fill-34" fill="#374D6B" points="34 15 41 15 41 13 34 13"></polygon>
                    <path d="M35.4736842,7 C35.2172632,7 35,7.17537255 35,7.38235294 L35,19.6176471 C35,19.8246275 35.2172632,20 35.4736842,20 L40.5263158,20 C40.7827368,20 41,19.8246275 41,19.6176471 L41,7.38235294 C41,7.17537255 40.7827368,7 40.5263158,7 L35.4736842,7 Z M40.1621622,22 L35.8378378,22 C34.272973,22 33,20.8395652 33,19.4130435 L33,7.58695652 C33,6.16043478 34.272973,5 35.8378378,5 L40.1621622,5 C41.727027,5 43,6.16043478 43,7.58695652 L43,19.4130435 C43,20.8395652 41.727027,22 40.1621622,22 L40.1621622,22 Z" id="Fill-35" fill="#374D6B"></path>
                    <path d="M54.0863284,2 C51.8332608,2 50,3.81553092 50,6.04680861 L50,20.9516401 C50,23.183952 51.8332608,25 54.0863284,25 L57.9105387,25 C60.1656949,25 62,23.183952 62,20.9516401 L62,6.04680861 C62,3.81553092 60.1656949,2 57.9105387,2 L54.0863284,2 Z M57.8305297,27 L54.1664686,27 C50.7660559,27 48,24.2075581 48,20.7754446 L48,6.22304082 C48,2.79143215 50.7660559,0 54.1664686,0 L57.8305297,0 C61.2324432,0 64,2.79143215 64,6.22304082 L64,20.7754446 C64,24.2075581 61.2324432,27 57.8305297,27 L57.8305297,27 Z" id="Fill-36" fill="#374D6B"></path>
                    <path d="M57,7.00044366 C57,7.55102041 56.5524444,8 55.9991111,8 C55.4471111,8 55,7.55102041 55,7.00044366 C55,6.445874 55.4471111,6 55.9991111,6 C56.5524444,6 57,6.445874 57,7.00044366" id="Fill-37" fill="#374D6B"></path>
                </g>
            </g>
        </g>
    </g>
</svg>