<?xml version="1.0" encoding="UTF-8" standalone="no"?>
<svg width="70px" height="64px" viewBox="0 0 70 64" version="1.1" xmlns="http://www.w3.org/2000/svg" xmlns:xlink="http://www.w3.org/1999/xlink">
    <!-- Generator: Sketch 3.7 (28169) - http://www.bohemiancoding.com/sketch -->
    <title>Group 72</title>
    <desc>Created with Sketch.</desc>
    <defs>
        <polygon id="path-1" points="0 63.8205 69.246 63.8205 69.246 0 0 0"></polygon>
    </defs>
    <g id="Page-1" stroke="none" stroke-width="1" fill="none" fill-rule="evenodd">
        <g id="epay-web-services-cards" transform="translate(-138.000000, -1218.000000)">
            <g id="Group-72" transform="translate(138.000000, 1218.000000)">
                <g id="Group-55" transform="translate(10.000000, 17.000000)" fill="#00B4D5">
                    <path d="M46.84525,19.61885 C46.49025,12.52085 42.70375,5.96285 36.71675,2.07685 L37.94125,0.18935 C44.53275,4.46735 48.70125,11.68935 49.09225,19.50635 L46.84525,19.61885 L46.84525,19.61885 Z" id="Fill-1"></path>
                    <path d="M24.62305,45.25215 C20.70255,45.25215 16.95005,44.34815 13.47055,42.56615 L14.49605,40.56315 C17.65505,42.18165 21.06255,43.00215 24.62305,43.00215 C28.18305,43.00215 31.59055,42.18115 34.74955,40.56265 L35.77605,42.56515 C32.29605,44.34765 28.54355,45.25215 24.62305,45.25215" id="Fill-3"></path>
                    <path d="M2.4009,19.6198 L0.1539,19.5073 C0.5449,11.6888 4.7134,4.4668 11.3049,0.1893 L12.5294,2.0768 C6.5424,5.9623 2.7559,12.5203 2.4009,19.6198" id="Fill-5"></path>
                    <polygon id="Fill-19" points="23.498 20.751 25.748 20.751 25.748 13.824 23.498 13.824"></polygon>
                    <polygon id="Fill-21" points="19.18555 25.1901 18.06055 23.2421 24.06055 19.7771 25.18555 21.7251"></polygon>
                    <polygon id="Fill-22" points="30.06055 25.1901 24.06055 21.7251 25.18555 19.7771 31.18555 23.2421"></polygon>
                </g>
                <g id="Group-45">
                    <path d="M40.2256,25.96305 C40.1156,25.23605 39.7841,24.57805 39.2676,24.06105 C38.6286,23.42255 37.7781,23.07055 36.8731,23.07055 L32.3681,23.07055 C31.4661,23.07055 30.6176,23.42255 29.9786,24.06105 C29.4621,24.57805 29.1306,25.23605 29.0206,25.96305 L26.7961,25.62705 C26.9781,24.42105 27.5281,23.32955 28.3876,22.47055 C29.4516,21.40655 30.8651,20.82055 32.3681,20.82055 L36.8731,20.82055 C38.3796,20.82055 39.7946,21.40655 40.8586,22.47055 C41.7176,23.32955 42.2681,24.42105 42.4501,25.62705 L40.2256,25.96305 Z" id="Fill-7" fill="#374D6B"></path>
                    <path d="M34.62305,11.715 C33.15605,11.715 31.96305,12.9085 31.96305,14.375 C31.96305,15.8415 33.15605,17.0345 34.62305,17.0345 C36.08955,17.0345 37.28205,15.8415 37.28205,14.375 C37.28205,12.9085 36.08955,11.715 34.62305,11.715 M34.62305,19.2845 C31.91555,19.2845 29.71305,17.082 29.71305,14.375 C29.71305,11.6675 31.91555,9.465 34.62305,9.465 C37.33005,9.465 39.53205,11.6675 39.53205,14.375 C39.53205,17.082 37.33005,19.2845 34.62305,19.2845" id="Fill-9" fill="#374D6B"></path>
                    <path d="M49.2705,61.0334 L47.046,60.6974 C47.228,59.4909 47.7785,58.3984 48.6375,57.5399 C49.7005,56.4764 51.115,55.8909 52.618,55.8909 L57.123,55.8909 C58.6265,55.8909 60.0405,56.4764 61.1035,57.5399 C61.9705,58.4074 62.5205,59.5024 62.6965,60.7084 L60.47,61.0324 C60.3645,60.3099 60.033,59.6519 59.512,59.1299 C58.8745,58.4924 58.026,58.1409 57.123,58.1409 L52.618,58.1409 C51.7155,58.1409 50.8665,58.4924 50.2285,59.1304 C49.712,59.6479 49.3805,60.3054 49.2705,61.0334" id="Fill-11" fill="#374D6B"></path>
                    <path d="M54.8711,46.78535 C53.4041,46.78535 52.2111,47.97885 52.2111,49.44535 C52.2111,50.91185 53.4041,52.10485 54.8711,52.10485 C56.3376,52.10485 57.5301,50.91185 57.5301,49.44535 C57.5301,47.97885 56.3376,46.78535 54.8711,46.78535 M54.8711,54.35485 C52.1636,54.35485 49.9611,52.15235 49.9611,49.44535 C49.9611,46.73785 52.1636,44.53535 54.8711,44.53535 C57.5781,44.53535 59.7801,46.73785 59.7801,49.44535 C59.7801,52.15235 57.5781,54.35485 54.8711,54.35485" id="Fill-13" fill="#374D6B"></path>
                    <path d="M19.9756,61.0334 C19.8656,60.3054 19.5341,59.6479 19.0176,59.1304 C18.3796,58.4924 17.5306,58.1409 16.6281,58.1409 L12.1231,58.1409 C11.2201,58.1409 10.3716,58.4924 9.7336,59.1304 C9.2131,59.6519 8.8821,60.3099 8.7766,61.0324 L6.5496,60.7084 C6.7256,59.5024 7.2761,58.4074 8.1421,57.5404 C9.2056,56.4764 10.6196,55.8909 12.1231,55.8909 L16.6281,55.8909 C18.1311,55.8909 19.5456,56.4764 20.6086,57.5399 C21.4676,58.3984 22.0181,59.4909 22.2001,60.6974 L19.9756,61.0334 Z" id="Fill-15" fill="#374D6B"></path>
                    <path d="M14.375,46.78535 C12.9085,46.78535 11.716,47.97885 11.716,49.44535 C11.716,50.91185 12.9085,52.10485 14.375,52.10485 C15.842,52.10485 17.035,50.91185 17.035,49.44535 C17.035,47.97885 15.842,46.78535 14.375,46.78535 M14.375,54.35485 C11.668,54.35485 9.466,52.15235 9.466,49.44535 C9.466,46.73785 11.668,44.53535 14.375,44.53535 C17.0825,44.53535 19.285,46.73785 19.285,49.44535 C19.285,52.15235 17.0825,54.35485 14.375,54.35485" id="Fill-17" fill="#374D6B"></path>
                    <mask id="mask-2" fill="white">
                        <use xlink:href="#path-1"></use>
                    </mask>
                    <g id="Clip-20"></g>
                    <path d="M34.62305,2.25015 C27.93755,2.25015 22.49805,7.68965 22.49805,14.37515 C22.49805,21.06065 27.93755,26.50015 34.62305,26.50015 C41.30855,26.50015 46.74805,21.06065 46.74805,14.37515 C46.74805,7.68965 41.30855,2.25015 34.62305,2.25015 M34.62305,28.75015 C26.69655,28.75015 20.24805,22.30165 20.24805,14.37515 C20.24805,6.44865 26.69655,0.00015 34.62305,0.00015 C42.54955,0.00015 48.99805,6.44865 48.99805,14.37515 C48.99805,22.30165 42.54955,28.75015 34.62305,28.75015" id="Fill-23" fill="#374D6B" mask="url(#mask-2)"></path>
                    <path d="M54.8711,37.3205 C48.1856,37.3205 42.7461,42.76 42.7461,49.4455 C42.7461,56.131 48.1856,61.5705 54.8711,61.5705 C61.5566,61.5705 66.9961,56.131 66.9961,49.4455 C66.9961,42.76 61.5566,37.3205 54.8711,37.3205 M54.8711,63.8205 C46.9446,63.8205 40.4961,57.3715 40.4961,49.4455 C40.4961,41.519 46.9446,35.0705 54.8711,35.0705 C62.7976,35.0705 69.2461,41.519 69.2461,49.4455 C69.2461,57.3715 62.7976,63.8205 54.8711,63.8205" id="Fill-24" fill="#374D6B" mask="url(#mask-2)"></path>
                    <path d="M14.375,37.3205 C7.6895,37.3205 2.25,42.76 2.25,49.4455 C2.25,56.1305 7.6895,61.5695 14.375,61.5695 C21.0605,61.5695 26.5,56.1305 26.5,49.4455 C26.5,42.76 21.0605,37.3205 14.375,37.3205 M14.375,63.8195 C6.449,63.8195 0,57.3715 0,49.4455 C0,41.519 6.449,35.0705 14.375,35.0705 C22.3015,35.0705 28.75,41.519 28.75,49.4455 C28.75,57.3715 22.3015,63.8195 14.375,63.8195" id="Fill-25" fill="#374D6B" mask="url(#mask-2)"></path>
                </g>
            </g>
        </g>
    </g>
</svg>