<?xml version="1.0" encoding="UTF-8" standalone="no"?>
<svg width="62px" height="59px" viewBox="0 0 62 59" version="1.1" xmlns="http://www.w3.org/2000/svg" xmlns:xlink="http://www.w3.org/1999/xlink">
    <!-- Generator: Sketch 3.8.3 (29802) - http://www.bohemiancoding.com/sketch -->
    <title>Group 11</title>
    <desc>Created with Sketch.</desc>
    <defs></defs>
    <g id="All-pages" stroke="none" stroke-width="1" fill="none" fill-rule="evenodd">
        <g id="colored-icons" transform="translate(-873.000000, -339.000000)">
            <g id="Group-25" transform="translate(224.000000, 168.000000)">
                <g id="Group-11" transform="translate(649.000000, 171.000000)">
                    <path d="M2,44 L60,44 L60,11 L2,11 L2,44 Z M0,46 L62,46 L62,9 L0,9 L0,46 Z" id="Fill-281" fill="#374D6B"></path>
                    <polygon id="Fill-279" fill="#00B4D5" points="40 40 32 40 32 36 30 36 30 40 22 40 22 26 24 26 24 38 28 38 28 34 34 34 34 38 38 38 38 26 40 26"></polygon>
                    <polygon id="Fill-280" fill="#00B4D5" points="41 30 31 19 21 30 19 28 31 16 43 28"></polygon>
                    <path d="M6,9 L57,9 L57,5 L24,5 L24,2 L6,2 L6,9 Z M59,11 L4,11 L4,0 L26,0 L26,3 L59,3 L59,11 Z" id="Fill-282" fill="#374D6B"></path>
                    <path d="M31,51.1111111 C29.4071579,51.1111111 28.1111111,52.4071579 28.1111111,54 C28.1111111,55.5928421 29.4071579,56.8888889 31,56.8888889 C32.5928421,56.8888889 33.8888889,55.5928421 33.8888889,54 C33.8888889,52.4071579 32.5928421,51.1111111 31,51.1111111 M31,59 C28.2427027,59 26,56.7572973 26,54 C26,51.2427027 28.2427027,49 31,49 C33.7572973,49 36,51.2427027 36,54 C36,56.7572973 33.7572973,59 31,59" id="Fill-283" fill="#00B4D5"></path>
                    <polygon id="Fill-284" fill="#00B4D5" points="35 55 57 55 57 53 35 53"></polygon>
                    <polygon id="Fill-285" fill="#00B4D5" points="5 55 28 55 28 53 5 53"></polygon>
                    <polygon id="Fill-286" fill="#00B4D5" points="30 51 32 51 32 46 30 46"></polygon>
                </g>
            </g>
        </g>
    </g>
</svg>