<?xml version="1.0" encoding="UTF-8" standalone="no"?>
<svg width="63px" height="58px" viewBox="0 0 63 58" version="1.1" xmlns="http://www.w3.org/2000/svg" xmlns:xlink="http://www.w3.org/1999/xlink">
    <!-- Generator: Sketch 3.8.3 (29802) - http://www.bohemiancoding.com/sketch -->
    <title>Page 1</title>
    <desc>Created with Sketch.</desc>
    <defs>
        <polygon id="path-1" points="0 57.5 62.2495 57.5 62.2495 0.417 0 0.417"></polygon>
    </defs>
    <g id="Page-1" stroke="none" stroke-width="1" fill="none" fill-rule="evenodd">
        <g id="epay-service-index2" transform="translate(-740.000000, -987.000000)">
            <g id="Group-52" transform="translate(0.000000, 900.000000)">
                <g id="Page-1" transform="translate(740.000000, 87.000000)">
                    <path d="M0,57.583 L62.25,57.583 L62.25,8 L0,8 L0,57.583 Z M2.25,55.333 L60,55.333 L60,10.25 L2.25,10.25 L2.25,55.333 Z" id="Fill-1" fill="#202020"></path>
                    <path d="M0,10.25 L62.25,10.25 L62.25,0.5 L0,0.5 L0,10.25 Z M2.25,8 L60,8 L60,2.75 L2.25,2.75 L2.25,8 Z" id="Fill-2" fill="#202020"></path>
                    <polygon id="Fill-3" fill="#202020" points="5.125 6.5 7.375 6.5 7.375 4.25 5.125 4.25"></polygon>
                    <polygon id="Fill-4" fill="#202020" points="9.625 6.5 11.875 6.5 11.875 4.25 9.625 4.25"></polygon>
                    <polygon id="Fill-5" fill="#202020" points="14.125 6.5 16.375 6.5 16.375 4.25 14.125 4.25"></polygon>
                    <path d="M46.347,52.458 L57.1245,52.458 L57.1245,41.6795 L46.347,41.6795 L46.347,52.458 Z M48.597,50.208 L54.8745,50.208 L54.8745,43.9295 L48.597,43.9295 L48.597,50.208 Z" id="Fill-6" fill="#202020"></path>
                    <path d="M46.347,38.18 L57.1245,38.18 L57.1245,27.4025 L46.347,27.4025 L46.347,38.18 Z M48.597,35.9295 L54.8745,35.9295 L54.8745,29.652 L48.597,29.652 L48.597,35.9295 Z" id="Fill-7" fill="#202020"></path>
                    <path d="M46.347,23.9025 L57.1245,23.9025 L57.1245,13.125 L46.347,13.125 L46.347,23.9025 Z M48.597,21.6525 L54.8745,21.6525 L54.8745,15.375 L48.597,15.375 L48.597,21.6525 Z" id="Fill-8" fill="#202020"></path>
                    <path d="M5.125,38.1795 L39.3475,38.1795 L39.3475,13.125 L5.125,13.125 L5.125,38.1795 Z M7.375,35.9295 L37.0975,35.9295 L37.0975,15.375 L7.375,15.375 L7.375,35.9295 Z" id="Fill-9" fill="#202020"></path>
                    <polygon id="Fill-10" fill="#202020" points="30.43455 22.0239 27.51305 29.5389 18.40705 29.5389 14.76755 20.1744 11.20055 20.1744 11.20055 17.9024 16.32155 17.9024 19.96105 27.2674 25.95905 27.2674 27.99505 22.0239"></polygon>
                    <polygon id="Fill-11" fill="#202020" points="20.6945 25.3885 25.225 25.3885 25.225 23.1165 20.6945 23.1165"></polygon>
                    <g id="Group-20" transform="translate(0.000000, 0.083000)">
                        <path d="M21.00245,31.95605 C21.00245,32.70905 20.39145,33.31955 19.63895,33.31955 C18.88645,33.31955 18.27595,32.70905 18.27595,31.95605 C18.27595,31.20355 18.88645,30.59255 19.63895,30.59255 C20.39145,30.59255 21.00245,31.20355 21.00245,31.95605 L21.00245,31.95605 Z" id="Fill-12" fill="#202020"></path>
                        <path d="M27.6438,31.95605 C27.6438,32.70905 27.0333,33.31955 26.2803,33.31955 C25.5283,33.31955 24.9173,32.70905 24.9173,31.95605 C24.9173,31.20355 25.5283,30.59255 26.2803,30.59255 C27.0333,30.59255 27.6438,31.20355 27.6438,31.95605" id="Fill-14" fill="#202020"></path>
                        <mask id="mask-2" fill="white">
                            <use xlink:href="#path-1"></use>
                        </mask>
                        <g id="Clip-17"></g>
                        <polygon id="Fill-16" fill="#202020" mask="url(#mask-2)" points="5.125 52.25 39.3475 52.25 39.3475 50 5.125 50"></polygon>
                        <polygon id="Fill-18" fill="#202020" mask="url(#mask-2)" points="5.125 48.1115 39.3475 48.1115 39.3475 45.8615 5.125 45.8615"></polygon>
                        <polygon id="Fill-19" fill="#202020" mask="url(#mask-2)" points="5.125 43.9725 22.236 43.9725 22.236 41.7225 5.125 41.7225"></polygon>
                    </g>
                </g>
            </g>
        </g>
    </g>
</svg>