<?xml version="1.0" encoding="UTF-8" standalone="no"?>
<svg width="69px" height="47px" viewBox="0 0 69 47" version="1.1" xmlns="http://www.w3.org/2000/svg" xmlns:xlink="http://www.w3.org/1999/xlink">
    <!-- Generator: Sketch 3.7 (28169) - http://www.bohemiancoding.com/sketch -->
    <title>Group 22</title>
    <desc>Created with Sketch.</desc>
    <defs></defs>
    <g id="Page-1" stroke="none" stroke-width="1" fill="none" fill-rule="evenodd">
        <g id="epay-web-services-busines-solutions" transform="translate(-654.000000, -2927.000000)">
            <g id="Group-22" transform="translate(654.000000, 2927.000000)">
                <path d="M0,47 L69,47 L69,15 L0,15 L0,47 Z M2,45 L67,45 L67,17 L2,17 L2,45 Z" id="Fill-1" fill="#374D6B"></path>
                <polygon id="Fill-2" fill="#374D6B" points="30 23 46 23 46 21 30 21"></polygon>
                <polygon id="Fill-3" fill="#374D6B" points="30 29 63 29 63 27 30 27"></polygon>
                <polygon id="Fill-4" fill="#374D6B" points="30 34 63 34 63 32 30 32"></polygon>
                <polygon id="Fill-5" fill="#374D6B" points="55 40 63 40 63 38 55 38"></polygon>
                <path d="M6,41 L26,41 L26,21 L6,21 L6,41 Z M8,39 L24,39 L24,23 L8,23 L8,39 Z" id="Fill-6" fill="#00B4D5"></path>
                <path d="M16.7031976,36 L15.2973332,36 C14.4179382,36 13.5905533,35.6828981 12.9664323,35.1071078 C12.342842,34.5303358 12,33.7635971 12,32.9467897 L14.3882181,32.9467897 C14.3882181,33.1735716 14.4821547,33.3856273 14.6541064,33.5441783 C14.8260581,33.7027292 15.0553271,33.7910858 15.2973332,33.7910858 L16.7031976,33.7910858 C16.9467958,33.7910858 17.1771262,33.7027292 17.3512007,33.5422148 C17.5178453,33.3870999 17.6117819,33.1750442 17.6117819,32.9467897 C17.6117819,32.719517 17.5189067,32.508443 17.3501393,32.3528372 C17.1765955,32.1923228 16.9467958,32.1044571 16.7031976,32.1044571 L15.2973332,32.1044571 C14.4152846,32.1044571 13.587369,31.7863735 12.9643094,31.2086197 C12.3433727,30.6372472 12,29.8705085 12,29.0527194 C12,28.2344394 12.342842,27.4677008 12.9664323,26.8924013 C13.5905533,26.316611 14.4179382,26 15.2973332,26 L16.7031976,26 C17.5820618,26 18.4105082,26.316611 19.0356906,26.8914196 C19.6582195,27.4672099 20,28.2344394 20,29.0527194 L17.6117819,29.0527194 C17.6117819,28.8239741 17.518376,28.6119183 17.3490779,28.4553308 C17.1771262,28.2967799 16.9467958,28.2089142 16.7031976,28.2089142 L15.2973332,28.2089142 C15.0553271,28.2089142 14.8260581,28.2967799 14.653045,28.4563126 C14.4821547,28.6138818 14.3882181,28.8254467 14.3882181,29.0527194 C14.3882181,29.2785195 14.481624,29.4891027 14.6519835,29.6456902 C14.8265888,29.8076772 15.0547963,29.8955429 15.2973332,29.8955429 L16.7031976,29.8955429 C17.5847154,29.8955429 18.4142232,30.2131357 19.0372827,30.7899077 C19.6576887,31.3622619 20,32.1285097 20,32.9467897 C20,33.7635971 19.6582195,34.5303358 19.0383442,35.1051443 C18.4105082,35.683389 17.5820618,36 16.7031976,36 L16.7031976,36 Z" id="Fill-7" fill="#00B4D5"></path>
                <polygon id="Fill-9" fill="#00B4D5" points="15 27 17 27 17 25 15 25"></polygon>
                <polygon id="Fill-11" fill="#00B4D5" points="15 37 17 37 17 35 15 35"></polygon>
                <g id="Group-28" transform="translate(9.000000, 0.000000)" fill="#00B4D5">
                    <polygon id="Fill-12" points="55 10 53 10 53 2 30 2 30 0 55 0"></polygon>
                    <path d="M6.39382985,10 L58,10 L58,6 L6.39382985,6 L4.76701389,8 L6.39382985,10 Z M60,12 L5.6428689,12 L2.01875,8 L5.6428689,4 L60,4 L60,12 Z" id="Fill-13"></path>
                    <polygon id="Fill-14" points="29 11 31 11 31 6 29 6"></polygon>
                    <polygon id="Fill-15" points="0 9 3 9 3 7 0 7"></polygon>
                </g>
            </g>
        </g>
    </g>
</svg>