<svg xmlns="http://www.w3.org/2000/svg" width="23" height="19" viewBox="0 0 23 19">
  <g fill="#00B4D5">
    <path d="M5,16 L6,16 L6,9 L5,9 L5,16 Z M4,8 L7,8 L7,17 L4,17 L4,8 Z M17,16 L18,16 L18,9 L17,9 L17,16 Z M16,8 L19,8 L19,17 L16,17 L16,8 Z M11,16 L12,16 L12,9 L11,9 L11,16 Z M10,8 L13,8 L13,17 L10,17 L10,8 Z"/>
    <path d="M2 18L21 18 21 17 2 17 2 18zM1 16.9989566C1 16.4472481 1.43861485 16 1.99874609 16L21.0012539 16C21.5528461 16 22 16.4426603 22 16.9989566L22 18.0010434C22 18.5527519 21.5613852 19 21.0012539 19L1.99874609 19C1.44715386 19 1 18.5573397 1 18.0010434L1 16.9989566zM20.885895 8L11.5 1.23281546 2.11410498 8 20.885895 8zM2.01626565 9C.359956479 9 .103177936 8.21705313 1.45368489 7.2433442L11.5 0 21.5463151 7.2433442C22.8919195 8.21351841 22.640494 9 20.9837344 9L2.01626565 9z"/>
  </g>
</svg>
