<svg xmlns="http://www.w3.org/2000/svg" width="70" height="60" viewBox="0 0 70 60" xmlns:xlink="http://www.w3.org/1999/xlink">
  <defs>
    <path id="a" d="M14.5440153,19.8911705 C13.6664915,19.6844238 12.7510828,19.575 11.809963,19.575 C5.28750052,19.575 0,24.8308783 0,31.3143327 C0,37.7977871 8.59064119,49.6897053 8.59064119,49.6897053 L8.59064119,49.6897053 C10.3686235,52.350043 13.272749,52.3645314 15.0427426,49.7026383 C15.0427426,49.7026383 18.779185,44.4987648 21.3239499,39.1062674"/>
    <mask id="d" width="21.324" height="32.117" x="0" y="0" fill="white">
      <use xlink:href="#a"/>
    </mask>
    <path id="b" d="M48.73787,39.6405922 C51.2703049,44.8365268 54.7667922,49.7108851 54.7667922,49.7108851 L54.7667922,49.7108851 C56.5499748,52.3595255 59.4555082,52.3722983 61.2148517,49.6897053 C61.2148517,49.6897053 69.8054929,37.7977871 69.8054929,31.3143327 C69.8054929,24.8308783 64.5179924,19.575 57.99553,19.575 C57.1547317,19.575 56.3344552,19.6623385 55.5433814,19.8283864"/>
    <mask id="e" width="21.068" height="32.125" x="0" y="0" fill="white">
      <use xlink:href="#b"/>
    </mask>
    <path id="c" d="M30.5272912,56.4024462 C32.9975001,60.058296 37.0264672,60.0779957 39.4792093,56.3925158 C39.4792093,56.3925158 56.3359237,32.8766258 56.3359237,21.1795071 C56.3359237,9.48238831 46.7835053,0 35,0 C23.2164947,0 13.6640763,9.48238831 13.6640763,21.1795071 C13.6640763,32.8766258 30.5272912,56.4024462 30.5272912,56.4024462 Z"/>
    <mask id="f" width="42.672" height="59.15" x="0" y="0" fill="white">
      <use xlink:href="#c"/>
    </mask>
  </defs>
  <g fill="none" fill-rule="evenodd">
    <use stroke="#374D6B" stroke-width="4" mask="url(#d)" xlink:href="#a"/>
    <g stroke="#00B4D5" stroke-width="2" transform="translate(7.459 26.662)" stroke-linecap="round" stroke-linejoin="round">
      <path d="M7.10130099 13.2491917C6.49520937 13.7271066 5.73030032 14.0563204 4.8992789 14.0563204L4.8527417 14.0563204C2.88488298 14.0563204 1.24315399 12.3699319 1.24315399 10.3990878L1.24315399 3.57770345C1.24315399 1.60685937 2.88488298 0 4.8527417 0L4.8760103 0C5.70703172 0 6.4833904.311828371 7.08948202.789373363M0 5.0025L5.17079995 5.0025M0 7.920625L5.17079995 7.920625"/>
    </g>
    <use stroke="#374D6B" stroke-width="4" mask="url(#e)" xlink:href="#b"/>
    <g stroke="#00B4D5" stroke-width="2" transform="translate(54.888 26.662)" stroke-linecap="round" stroke-linejoin="round">
      <path d="M6.0383683 14.0448534L.414384665 14.0448534 1.43709503 12.0802977C2.08344502 10.8666454 2.39627842 9.46101335 2.2186245 7.70175388 2.10412822 6.56800067 1.79942037 5.0314229 1.64835914 3.98422703 1.36765857 2.03335772 2.16026833.00295922535 4.0069826.00295922535L4.0069826 0C4.74566831 0 5.51759487.328104111 6.12368649.806019005M0 6.67L5.5401428 6.67"/>
    </g>
    <use stroke="#374D6B" stroke-width="4" mask="url(#f)" xlink:href="#c"/>
    <g stroke="#00B4D5" stroke-width="2" transform="translate(28.866 8.7)" stroke-linecap="round" stroke-linejoin="round">
      <path d="M11.6209021 9.50946831L11.6419044 9.56336449C11.6419044 6.41961802 9.08081746 3.92499479 5.89506051 3.92499479L5.85245574 3.92499479C2.66669879 3.92499479 0 6.48062139 0 9.62496012L0 9.55507277C0 12.6988192 2.66669879 15.1780436 5.85245574 15.1780436L5.89506051 15.1780436C9.08081746 15.1780436 11.4012775 17.8734449 11.4012775 21.0177836L11.4012775 21.0598345C11.4012775 24.2041732 9.08081746 27.0233581 5.89506051 27.0233581L5.85245574 27.0233581C2.66669879 27.0233581 0 24.2041732 0 21.0598345L0 20.8045679M5.70075874 27.39464L5.70075874 30.3559687M5.70075874 0L5.70075874 3.55359435"/>
    </g>
  </g>
</svg>
