<svg xmlns="http://www.w3.org/2000/svg" width="63" height="63" viewBox="0 0 63 63">
  <g fill="none" fill-rule="evenodd">
    <path fill="#374D6B" d="M31.5,6.03703704 C17.4598779,6.03703704 6.03703704,17.4597085 6.03703704,31.4997411 C6.03703704,45.5402915 17.4598779,56.962963 31.5,56.962963 C45.5401221,56.962963 56.962963,45.5402915 56.962963,31.4997411 C56.962963,17.4597085 45.5401221,6.03703704 31.5,6.03703704 Z M31.5,59 C16.3362954,59 4,46.6633599 4,31.4997438 C4,16.3361278 16.3362954,4 31.5,4 C46.6637046,4 59,16.3361278 59,31.4997438 C59,46.6633599 46.6637046,59 31.5,59 Z"/>
    <path fill="#374D6B" d="M2,31.4994892 C2,47.7664029 15.2338788,61 31.5,61 C47.7661212,61 61,47.7664029 61,31.4994892 C61,15.2330863 47.7661212,2 31.5,2 C15.2338788,2 2,15.2330863 2,31.4994892 Z M0,31.499494 C0,14.1309499 14.1307229,0 31.5,0 C48.8692771,0 63,14.1309499 63,31.499494 C63,48.8690501 48.8692771,63 31.5,63 C14.1307229,63 0,48.8690501 0,31.499494 Z"/>
    <polygon fill="#374D6B" points="20.759 16 19 13.192 21.241 12 23 14.808"/>
    <polygon fill="#374D6B" points="14.807 23 12 21.68 13.193 20 16 21.32"/>
    <polygon fill="#374D6B" points="9 33 12 33 12 31 9 31"/>
    <polygon fill="#374D6B" points="13.192 43 12 41.32 14.808 40 16 41.681"/>
    <polygon fill="#374D6B" points="21.241 51 19 49.808 20.759 47 23 48.192"/>
    <polygon fill="#374D6B" points="30 53 32 53 32 50 30 50"/>
    <polygon fill="#374D6B" points="41.759 51 40 48.192 42.241 47 44 49.808"/>
    <polygon fill="#374D6B" points="49.807 43 47 41.68 48.193 40 51 41.32"/>
    <path fill="#00B4D5" d="M53,33 L34,33 L34,31 L51,31 C50.1333697,20.4496173 41.5124778,12.2380314 31,12 L31,10 C43.1310514,10 53,19.8155084 53,32 L53,33 Z"/>
    <path fill="#00B4D5" d="M28.7777778,32.0002579 C28.7777778,33.2255111 29.7748891,34.2222222 31,34.2222222 C32.2251109,34.2222222 33.2222222,33.2255111 33.2222222,32.0002579 C33.2222222,30.7750048 32.2251109,29.7777778 31,29.7777778 C29.7748891,29.7777778 28.7777778,30.7750048 28.7777778,32.0002579 Z M27,32.0002271 C27,29.7943798 28.7947321,28 31,28 C33.2057221,28 35,29.7943798 35,32.0002271 C35,34.2056202 33.2057221,36 31,36 C28.7947321,36 27,34.2056202 27,32.0002271 Z"/>
    <polygon fill="#00B4D5" points="30 28 32 28 32 20 30 20"/>
  </g>
</svg>
