<?xml version="1.0" encoding="UTF-8" standalone="no"?>
<svg width="25px" height="20px" viewBox="0 0 25 20" version="1.1" xmlns="http://www.w3.org/2000/svg" xmlns:xlink="http://www.w3.org/1999/xlink">
    <!-- Generator: Sketch 3.8.3 (29802) - http://www.bohemiancoding.com/sketch -->
    <title>Fill 1</title>
    <desc>Created with Sketch.</desc>
    <defs></defs>
    <g id="Page-1" stroke="none" stroke-width="1" fill="none" fill-rule="evenodd">
        <g id="epay-service-index2" transform="translate(-1171.000000, -1408.000000)" fill="#374D6B">
            <g id="Group-52" transform="translate(0.000000, 900.000000)">
                <g id="Group-19" transform="translate(1171.000000, 508.000000)">
                    <path d="M24.6975546,14.9072344 C24.6975546,16.0806628 24.2218771,17.108586 23.270522,17.9863105 C22.3238766,18.8687286 21.2029731,19.305244 19.9125211,19.305244 C17.8826497,19.305244 16.323746,18.6387367 15.2358103,17.3010283 C14.1478745,15.9633199 13.6062615,14.1093031 13.6062615,11.7436714 C13.6062615,9.54231973 14.5387778,7.32688692 16.4132299,5.08798553 C18.2829723,2.85377786 20.5389084,1.15465354 23.1763284,0 L24.3961352,1.95258485 C22.3050379,2.96173328 20.6754891,4.13516167 19.4933597,5.47287005 C18.3065207,6.81057842 17.6236173,8.43460332 17.4399399,10.340251 L18.9941338,10.340251 C20.133876,10.340251 21.0663924,10.471675 21.7869732,10.7251356 C22.507554,10.9832898 23.0915542,11.340012 23.534264,11.799996 C23.9581351,12.241205 24.2595545,12.7246575 24.4338126,13.2550472 C24.6080707,13.7901305 24.6975546,14.339295 24.6975546,14.9072344 M11.0912931,14.9072344 C11.0912931,16.0806628 10.6156156,17.108586 9.66897017,17.9863105 C8.71761509,18.8687286 7.59671159,19.305244 6.30625965,19.305244 C4.28109785,19.305244 2.71748455,18.6387367 1.63425848,17.3010283 C0.541613039,15.9633199 -2.27373675e-13,14.1093031 -2.27373675e-13,11.7436714 C-2.27373675e-13,9.54231973 0.937226042,7.32688692 2.80696845,5.08798553 C4.68142053,2.85377786 6.93735658,1.15465354 9.5747766,0 L10.7898737,1.95258485 C8.70348606,2.96173328 7.06922758,4.13516167 5.88709825,5.47287005 C4.70025925,6.81057842 4.01735585,8.43460332 3.83367838,10.340251 L5.38787232,10.340251 C6.53232422,10.340251 7.46484059,10.471675 8.18542141,10.7251356 C8.90129256,10.9832898 9.48529271,11.340012 9.9280025,11.799996 C10.3565832,12.241205 10.653293,12.7246575 10.8275511,13.2550472 C11.0065189,13.7901305 11.0912931,14.339295 11.0912931,14.9072344" id="Fill-1"></path>
                </g>
            </g>
        </g>
    </g>
</svg>