<?xml version="1.0" encoding="UTF-8" standalone="no"?>
<svg width="72px" height="50px" viewBox="0 0 72 50" version="1.1" xmlns="http://www.w3.org/2000/svg" xmlns:xlink="http://www.w3.org/1999/xlink">
    <!-- Generator: Sketch 3.7 (28169) - http://www.bohemiancoding.com/sketch -->
    <title>Page 1</title>
    <desc>Created with Sketch.</desc>
    <defs></defs>
    <g id="Page-1" stroke="none" stroke-width="1" fill="none" fill-rule="evenodd">
        <g id="epay-web-services-salary-projects" transform="translate(-939.000000, -4466.000000)">
            <g id="Page-1" transform="translate(939.000000, 4466.000000)">
                <polygon id="Fill-1" fill="#202020" points="1 18 40 18 40 16 1 16"></polygon>
                <polygon id="Fill-2" fill="#202020" points="1 24 39 24 39 22 1 22"></polygon>
                <g id="Group-15">
                    <g id="Group-5" transform="translate(0.000000, 10.000000)" fill="#202020">
                        <path d="M42,40 L4,40 C2.85739955,40 1.87662869,39.596846 1,39 C0.417028597,38.1356633 0,37.1282797 0,36 L0,4 C0.00100488818,2.86369733 0.406979715,1.88339121 1,1 C1.8836629,0.407165511 2.86292644,0.00250717679 4,0 L55,0 L55,0 C56.1305418,0 57.1077955,0.403655464 58,1 C58.5930203,1.88238834 59,2.8631959 59,4 L59,7 L57,7 L57,4 C56.7390016,3.46491833 56.5661608,3.04972985 56,3 C55.9411204,2.42795001 55.5296187,2.25645911 55,2 L55,2 L4,2 C3.46937646,2.25746198 3.05486008,2.42845144 3,3 C2.43434163,3.04872698 2.2620033,3.46391546 2,4 L2,36 C2.26099842,36.5360845 2.43785874,36.9623046 3,37 C3.05084053,37.57556 3.46284469,37.7435409 4,38 L42,38 L42,40 Z" id="Fill-3"></path>
                    </g>
                    <polygon id="Fill-6" fill="#202020" points="29 35 35 35 35 33 29 33"></polygon>
                    <polygon id="Fill-8" fill="#202020" points="29 40 35 40 35 38 29 38"></polygon>
                    <path d="M16,37.664119 C16.3910281,37.664119 16.7556074,37.8686507 16.9718657,38.2079134 C17.6865033,39.3301319 18.8798133,40 20.162842,40 C22.2782316,40 24,38.2057491 24,36.0002705 C24,33.794792 22.2782316,32 20.162842,32 C18.8792947,32 17.6865033,32.6704092 16.9723843,33.7926277 C16.756126,34.1329726 16.3910281,34.3369631 16,34.3369631 C15.6089719,34.3369631 15.243874,34.1329726 15.0276157,33.7926277 C14.3134967,32.6704092 13.1175937,32 11.829379,32 C9.71813821,32 8,33.794792 8,36.0002705 C8,38.2057491 9.71813821,40 11.829379,40 C13.1175937,40 14.3134967,39.3301319 15.0281343,38.2079134 C15.2443926,37.8686507 15.6089719,37.664119 16,37.664119 M20.0284051,42 C18.5178159,42 17.0875238,41.4273702 16,40.4218625 C14.9109706,41.4273702 13.4791729,42 11.964067,42 C8.67539898,42 6,39.3083876 6,36.0002523 C6,32.6916124 8.67539898,30 11.964067,30 C13.4791729,30 14.9109706,30.5726298 16,31.5781375 C17.0875238,30.5726298 18.5173141,30 20.0284051,30 C23.321088,30 26,32.6916124 26,36.0002523 C26,39.3083876 23.321088,42 20.0284051,42" id="Fill-9" fill="#202020"></path>
                    <polygon id="Fill-10" fill="#00B4D5" points="40 44 70 44 70 42 40 42"></polygon>
                    <path d="M41.3856231,17 C41.0157877,17 40.6676184,17.1489033 40.4061135,17.4191159 C40.1441048,17.6898492 40,18.0490914 40,18.4317625 L40,46.5682375 C40,46.950388 40.1441048,47.3096302 40.4061135,47.5803634 C40.6676184,47.8510967 41.0157877,48 41.3856231,48 L68.6143769,48 C68.9842123,48 69.3323816,47.8510967 69.5933826,47.5808841 C69.8558952,47.3096302 70,46.950388 70,46.5682375 L70,18.4317625 C70,18.0490914 69.8558952,17.6898492 69.5938865,17.4191159 C69.3323816,17.1489033 68.9842123,17 68.6143769,17 L41.3856231,17 Z M68.40356,50 L41.59644,50 C40.6355705,50 39.7322439,49.6149806 39.0531369,48.9148989 C38.3740298,48.2158385 38,47.2864813 38,46.2978903 L38,18.7021097 C38,17.7130081 38.3740298,16.7836509 39.0536329,16.0840798 C39.73274,15.3850194 40.6355705,15 41.59644,15 L68.40356,15 C69.3644295,15 70.26726,15.3850194 70.9463671,16.0840798 C71.6259702,16.7836509 72,17.7130081 72,18.7021097 L72,46.2978903 C72,47.2864813 71.6259702,48.2158385 70.9463671,48.9154095 C70.2677561,49.6149806 69.3649256,50 68.40356,50 L68.40356,50 Z" id="Fill-11" fill="#00B4D5"></path>
                    <path d="M66,16 L63.7752809,16 L63.7752809,11.0387597 C63.7752809,8.68663566 62.8626517,6.47541085 61.2054831,4.81190698 C59.5478202,3.14889922 57.3443596,2.23255814 55,2.23255814 C52.6556404,2.23255814 50.4521798,3.14889922 48.7945169,4.81190698 C47.1373483,6.47541085 46.2247191,8.68663566 46.2247191,11.0387597 L46.2247191,16 L44,16 L44,11.0387597 C44,8.09029457 45.144,5.31844961 47.2218876,3.23373643 C49.2987865,1.14803101 52.0613933,0 55,0 C57.9386067,0 60.7012135,1.14803101 62.7781124,3.23373643 C64.856,5.31844961 66,8.09029457 66,11.0387597 L66,16 Z" id="Fill-12" fill="#00B4D5"></path>
                    <path d="M55,27 C53.8976,27 53,27.8970667 53,29 C53,30.1029333 53.8976,31 55,31 C56.1024,31 57,30.1029333 57,29 C57,27.8970667 56.1024,27 55,27 M55,33 C52.7944242,33 51,31.2055758 51,29 C51,26.7944242 52.7944242,25 55,25 C57.2055758,25 59,26.7944242 59,29 C59,31.2055758 57.2055758,33 55,33" id="Fill-13" fill="#00B4D5"></path>
                    <polygon id="Fill-14" fill="#00B4D5" points="54 38 56 38 56 32 54 32"></polygon>
                </g>
            </g>
        </g>
    </g>
</svg>