<?xml version="1.0" encoding="UTF-8" standalone="no"?>
<svg width="62px" height="61px" viewBox="0 0 62 61" version="1.1" xmlns="http://www.w3.org/2000/svg" xmlns:xlink="http://www.w3.org/1999/xlink">
    <!-- Generator: Sketch 3.7 (28169) - http://www.bohemiancoding.com/sketch -->
    <title>Group 55</title>
    <desc>Created with Sketch.</desc>
    <defs></defs>
    <g id="Page-1" stroke="none" stroke-width="1" fill="none" fill-rule="evenodd">
        <g id="epay-web-pricing-1920" transform="translate(-260.000000, -1232.000000)">
            <g id="Group-55" transform="translate(260.000000, 1232.000000)">
                <g id="Group-22" fill="#374D6B">
                    <polygon id="Fill-1" points="30.9305541 1.46987952e-05 29.9314344 3.04707494 26.6985349 3.04707494 29.3141043 4.93013759 28.3149847 7.97719783 30.9305541 6.09398819 33.5461234 7.97719783 32.5470038 4.93013759 35.1625732 3.04707494 31.9296737 3.04707494"></polygon>
                    <polygon id="Fill-2" points="29.9314938 55.9626935 26.6985943 55.9626935 29.3140153 57.8457561 28.315044 60.8928164 30.9306134 59.0097537 33.5460344 60.8928164 32.5470632 57.8457561 35.1624842 55.9626935 31.9295847 55.9626935 30.9306134 52.9156333"></polygon>
                    <polygon id="Fill-3" points="3.23292919 29.5048622 2.96650718e-05 29.5048622 2.61545072 31.3880718 1.61647943 34.4349851 4.2320488 32.5519224 6.84746986 34.4349851 5.84849856 31.3880718 8.46391962 29.5048622 5.2310201 29.5048622 4.2320488 26.4578019"></polygon>
                    <polygon id="Fill-4" points="15.9647775 8.47486964 14.9658062 11.5217829 17.5812273 9.63872024 20.1967967 11.5217829 19.197677 8.47486964 21.8132464 6.59166 18.5803469 6.59166 17.5812273 3.54474675 16.582256 6.59166 13.3492081 6.59166"></polygon>
                    <polygon id="Fill-5" points="7.8089 13.2289892 6.80992871 16.2759024 3.57688086 16.2759024 6.19245024 18.159112 5.19333062 21.2061723 7.8089 19.3229627 10.4244694 21.2061723 9.42534976 18.159112 12.0409191 16.2759024 8.80787129 16.2759024"></polygon>
                    <polygon id="Fill-6" points="8.80793062 42.7338072 7.80895933 39.686894 6.80983971 42.7338072 3.57694019 42.7338072 6.19236124 44.6170169 5.19338995 47.6639301 7.80895933 45.7807205 10.4243804 47.6639301 9.42540909 44.6170169 12.0408301 42.7338072"></polygon>
                    <polygon id="Fill-7" points="18.5802876 52.4180496 17.5813163 49.3711364 16.5821967 52.4180496 13.3492971 52.4180496 15.9647182 54.3012593 14.9657469 57.3481725 17.5813163 55.4649629 20.1967373 57.3481725 19.197766 54.3012593 21.8131871 52.4180496"></polygon>
                    <polygon id="Fill-8" points="56.6300584 29.5048622 53.3971589 29.5048622 56.0125799 31.3880718 55.0136086 34.4349851 57.629178 32.5519224 60.244599 34.4349851 59.2456278 31.3880718 61.8610488 29.5048622 58.6281493 29.5048622 57.629178 26.4578019"></polygon>
                    <polygon id="Fill-9" points="44.2798215 3.54474675 43.2808502 6.59166 40.0478024 6.59166 42.6633718 8.47486964 41.6642522 11.5219299 44.2798215 9.63872024 46.8953909 11.5219299 45.8962713 8.47486964 48.5118407 6.59166 45.2787928 6.59166"></polygon>
                    <polygon id="Fill-10" points="52.435699 18.159112 51.4367278 21.2060253 54.0521488 19.3229627 56.6677182 21.2060253 55.6685986 18.159112 58.2841679 16.2759024 55.0512684 16.2759024 54.0521488 13.2289892 53.0531775 16.2759024 49.8201297 16.2759024"></polygon>
                    <polygon id="Fill-11" points="55.0512091 42.7338072 54.0522378 39.686894 53.0531182 42.7338072 49.8202187 42.7338072 52.4356397 44.6170169 51.4366684 47.6639301 54.0522378 45.7807205 56.6676589 47.6639301 55.6686876 44.6170169 58.2841086 42.7338072"></polygon>
                    <polygon id="Fill-12" points="45.2788522 52.4180496 44.2798809 49.3711364 43.2807612 52.4180496 40.0478617 52.4180496 42.6632828 54.3012593 41.6643115 57.3481725 44.2798809 55.4649629 46.8953019 57.3481725 45.8963306 54.3012593 48.5117517 52.4180496"></polygon>
                </g>
                <g id="Group-52" transform="translate(24.000000, 22.000000)">
                    <polygon id="Rectangle-42" fill="#00B4D5" transform="translate(10.505556, 4.000000) rotate(-90.000000) translate(-10.505556, -4.000000) " points="9.49444444 5.49444444 10.5055556 6.50555556 14.5055556 2.50555556 13.4944444 1.49444444 10.5055556 4.48333333 7.51666667 1.49444444 6.50555556 2.50555556 10.5055556 6.50555556 11.5166667 5.49444444 10.5055556 4.48333333"></polygon>
                    <rect id="Rectangle-57" fill="#0AB6D6" x="1" y="3" width="10" height="2"></rect>
                    <polygon id="Rectangle-42" fill="#00B4D5" transform="translate(3.494444, 13.000000) scale(-1, 1) rotate(-90.000000) translate(-3.494444, -13.000000) " points="2.48333333 14.4944444 3.49444444 15.5055556 7.49444444 11.5055556 6.48333333 10.4944444 3.49444444 13.4833333 0.505555556 10.4944444 -0.505555556 11.5055556 3.49444444 15.5055556 4.50555556 14.4944444 3.49444444 13.4833333"></polygon>
                    <rect id="Rectangle-57" fill="#0AB6D6" transform="translate(8.000000, 13.000000) scale(-1, 1) translate(-8.000000, -13.000000) " x="3" y="12" width="10" height="2"></rect>
                </g>
            </g>
        </g>
    </g>
</svg>