<?xml version="1.0" encoding="UTF-8" standalone="no"?>
<svg width="70px" height="63px" viewBox="0 0 70 63" version="1.1" xmlns="http://www.w3.org/2000/svg" xmlns:xlink="http://www.w3.org/1999/xlink">
    <!-- Generator: Sketch 3.8.3 (29802) - http://www.bohemiancoding.com/sketch -->
    <title>Group 86</title>
    <desc>Created with Sketch.</desc>
    <defs></defs>
    <g id="All-pages" stroke="none" stroke-width="1" fill="none" fill-rule="evenodd">
        <g id="activate-help-tab2" transform="translate(-768.000000, -319.000000)">
            <g id="Group-87" transform="translate(125.000000, 102.000000)">
                <g id="Group-86" transform="translate(643.000000, 217.000000)">
                    <g id="Page-1">
                        <path d="M23,42 L70,42 L70,35 L23,35 L23,42 Z M25,40 L68,40 L68,37 L25,37 L25,40 Z" id="Fill-1" fill="#374D6B"></path>
                        <g id="Group-22">
                            <path d="M66.9187008,32 L26.0833109,32 C25.795635,32.0005226 25.5220412,32.1186361 25.3168458,32.3308223 C25.114668,32.5424859 25.0005029,32.8278398 25.0005029,33.1299176 L25,59.8742634 C25,60.1732055 25.1166797,60.4663987 25.3198634,60.6785849 C25.5185207,60.8855449 25.7901028,61 26.0833109,61 L66.9131686,61 C67.1208786,61 67.4216307,60.944079 67.6746044,60.6785849 C67.8838232,60.463263 67.9979883,60.1758186 67.9964795,59.8815801 L68,33.1299176 C68,32.828885 67.885332,32.5435312 67.6781249,32.3271639 C67.4749412,32.1181135 67.203862,32 66.9187008,32 L66.9187008,32 Z M66.6870866,63 L26.3094318,63 C25.4211473,63 24.5900592,62.64794 23.9693542,62.008296 C23.3526281,61.3712106 23,60.4920839 23,59.5950472 L23.0004974,33.4090465 C23.0004974,32.5012638 23.344173,31.645676 23.9678621,30.9993797 C24.5965248,30.355642 25.4251262,30.0020469 26.3064477,30 L66.6870866,30 C67.5689055,30 68.3975069,30.3525718 69.0246775,30.9937509 C69.6553297,31.6446526 70,32.5007521 70,33.4090465 L69.9965185,59.5955589 C70.0014921,60.4910605 69.6473719,61.3737692 69.0236828,62.0098311 C68.4119303,62.6458931 67.5798474,63 66.6870866,63 L66.6870866,63 Z" id="Fill-2" fill="#374D6B"></path>
                            <polygon id="Fill-4" fill="#00B4D5" points="46 51 64 51 64 49 46 49"></polygon>
                            <polygon id="Fill-6" fill="#00B4D5" points="46 55 56 55 56 53 46 53"></polygon>
                            <path d="M35,53.100644 L35,53.100644 C35.3821914,53.100644 35.7385317,53.3087397 35.9499028,53.6553818 C36.4633775,54.4971481 37.3205204,55 38.2425446,55 C39.7626932,55 41,53.6542778 41,52 C41,50.3457222 39.7626932,49 38.2425446,49 C37.3205204,49 36.4633775,49.5022999 35.9504097,50.3446182 C35.7390386,50.6912603 35.3821914,50.899908 35,50.899908 C34.6178086,50.899908 34.2609614,50.6918123 34.0495903,50.3451702 C33.5361156,49.5028519 32.6769452,49 31.7513728,49 C30.2342654,49 29,50.3457222 29,52 C29,53.6542778 30.2342654,55 31.7513728,55 C32.6769452,55 33.5361156,54.4971481 34.0500972,53.6553818 C34.2614683,53.3087397 34.6178086,53.100644 35,53.100644 M38.1325213,57 C36.9690274,57 35.8652751,56.5742325 34.9995103,55.821842 C34.1327661,56.5742325 33.0270552,57 31.8616025,57 C29.1810614,57 27,54.75692 27,52 C27,49.24308 29.1810614,47 31.8616025,47 C33.0270552,47 34.1327661,47.4257675 34.9995103,48.178158 C35.8652751,47.4257675 36.9690274,47 38.1325213,47 C40.8164902,47 43,49.24308 43,52 C43,54.75692 40.8164902,57 38.1325213,57" id="Fill-7" fill="#00B4D5"></path>
                            <path d="M2,25 L45,25 L45,2 L2,2 L2,25 Z M0,27 L47,27 L47,-5.54223334e-13 L0,-5.54223334e-13 L0,27 Z" id="Fill-8" fill="#374D6B"></path>
                            <path d="M23.5005143,9 C21.0190857,9 19,11.0185714 19,13.5 C19,15.9814286 21.0190857,18 23.5005143,18 C25.9819429,18 28,15.9814286 28,13.5 C28,11.0185714 25.9819429,9 23.5005143,9 M23.5004906,20 C19.9164151,20 17,17.0840755 17,13.5 C17,9.91592453 19.9164151,7 23.5004906,7 C27.084566,7 30,9.91592453 30,13.5 C30,17.0840755 27.084566,20 23.5004906,20" id="Fill-9" fill="#00B4D5"></path>
                            <path d="M46,10 C41.5891945,10 38,6.41107692 38,2 L40.2152483,2 C40.2152483,5.18966154 42.8105347,7.78461538 46,7.78461538 L46,10 Z" id="Fill-10" fill="#374D6B"></path>
                            <path d="M1,10 L1,7.78461538 C4.18946526,7.78461538 6.78475171,5.18966154 6.78475171,2 L9,2 C9,6.41107692 5.41080549,10 1,10" id="Fill-11" fill="#374D6B"></path>
                            <path d="M40.2152483,26 L38,26 C38,21.5884308 41.5887022,18 46,18 L46,20.2153846 C42.8100425,20.2153846 40.2152483,22.8103385 40.2152483,26" id="Fill-12" fill="#374D6B"></path>
                            <path d="M9,26 L6.78475171,26 C6.78475171,22.8103385 4.18995754,20.2153846 1,20.2153846 L1,18 C5.41129777,18 9,21.5884308 9,26" id="Fill-13" fill="#374D6B"></path>
                            <polygon id="Fill-14" fill="#00B4D5" points="35 15 40 15 40 13 35 13"></polygon>
                            <polygon id="Fill-15" fill="#00B4D5" points="7 15 12 15 12 13 7 13"></polygon>
                            <polygon id="Fill-16" fill="#374D6B" points="63 15 65 15 65 13 63 13"></polygon>
                            <polygon id="Fill-16" fill="#00B4D5" points="63 23 65 23 65 13 63 13"></polygon>
                            <polygon id="Fill-17" fill="#00B4D5" points="54 15 65 15 65 13 54 13"></polygon>
                            <polygon id="Fill-18" fill="#00B4D5" points="4 45 6 45 6 34 4 34"></polygon>
                            <polygon id="Fill-19" fill="#374D6B" points="4 45 6 45 6 43 4 43"></polygon>
                            <polygon id="Fill-20" fill="#00B4D5" points="4 45 17 45 17 43 4 43"></polygon>
                        </g>
                    </g>
                    <g id="Group-85" transform="translate(15.500000, 44.000000) rotate(-90.000000) translate(-15.500000, -44.000000) translate(11.000000, 41.000000)" fill="#00B4D5">
                        <rect id="Rectangle-934" transform="translate(6.000000, 3.000000) rotate(-315.000000) translate(-6.000000, -3.000000) " x="5" y="-1.77635684e-15" width="2" height="6"></rect>
                        <rect id="Rectangle-934" transform="translate(3.000000, 3.000000) scale(-1, 1) rotate(-315.000000) translate(-3.000000, -3.000000) " x="2" y="0" width="2" height="6"></rect>
                    </g>
                    <g id="Group-85" transform="translate(59.500000, 19.500000)" fill="#00B4D5">
                        <rect id="Rectangle-934" transform="translate(6.000000, 3.000000) rotate(-315.000000) translate(-6.000000, -3.000000) " x="5" y="0" width="2" height="6"></rect>
                        <rect id="Rectangle-934" transform="translate(3.000000, 3.000000) scale(-1, 1) rotate(-315.000000) translate(-3.000000, -3.000000) " x="2" y="0" width="2" height="6"></rect>
                    </g>
                </g>
            </g>
        </g>
    </g>
</svg>