<?xml version="1.0" encoding="UTF-8" standalone="no"?>
<svg width="63px" height="57px" viewBox="0 0 63 57" version="1.1" xmlns="http://www.w3.org/2000/svg" xmlns:xlink="http://www.w3.org/1999/xlink">
    <!-- Generator: Sketch 3.8.3 (29802) - http://www.bohemiancoding.com/sketch -->
    <title>Group 109</title>
    <desc>Created with Sketch.</desc>
    <defs></defs>
    <g id="All-pages" stroke="none" stroke-width="1" fill="none" fill-rule="evenodd">
        <g id="colored-icons" transform="translate(-394.000000, -665.000000)">
            <g id="Group-25" transform="translate(224.000000, 168.000000)">
                <g id="Group-109" transform="translate(170.000000, 497.000000)">
                    <path d="M2,45 L11.9984522,45.0525093 L11.9984522,51.8833466 L18.3333333,45 L51,45 L51,12 L2,12 L2,45 Z M10,57 L10,47 L-3.46944695e-18,47 L-3.46944695e-18,10 L53,10 L53,47 L19,47 L10,57 Z" id="Fill-295" fill="#374D6B"></path>
                    <path d="M12,35 L61,35 L61,2 L12,2 L12,35 Z M10,37 L63,37 L63,0 L10,0 L10,37 Z" id="Fill-296" fill="#374D6B"></path>
                    <path d="M16,31 L47,31 L47,16 L16,16 L16,31 Z M14,33 L49,33 L49,14 L14,14 L14,33 Z" id="Fill-297" fill="#00B4D5"></path>
                    <polygon id="Fill-298" fill="#00B4D5" points="26 24 28 24 28 22 26 22"></polygon>
                    <polygon id="Fill-299" fill="#00B4D5" points="30 24 32 24 32 22 30 22"></polygon>
                    <polygon id="Fill-300" fill="#00B4D5" points="35 24 37 24 37 22 35 22"></polygon>
                </g>
            </g>
        </g>
    </g>
</svg>