<?xml version="1.0" encoding="UTF-8" standalone="no"?>
<svg width="68px" height="58px" viewBox="0 0 68 58" version="1.1" xmlns="http://www.w3.org/2000/svg" xmlns:xlink="http://www.w3.org/1999/xlink">
    <!-- Generator: Sketch 3.7 (28169) - http://www.bohemiancoding.com/sketch -->
    <title>Group 4</title>
    <desc>Created with Sketch.</desc>
    <defs></defs>
    <g id="Page-1" stroke="none" stroke-width="1" fill="none" fill-rule="evenodd">
        <g id="epay-web-services-cash-out" transform="translate(-961.000000, -825.000000)">
            <g id="Group-6" transform="translate(0.000000, 195.000000)">
                <g id="Group-4" transform="translate(962.000000, 631.000000)">
                    <path d="M7.08074692,34.6411342 C2.67963609,36.0594356 0,37.938585 0,40 C0,44.4187356 12.3123511,48 27.5,48 C42.6876489,48 55,44.4187356 55,40" id="Stroke-52" stroke="#374D6B" stroke-width="2" stroke-linecap="round" stroke-linejoin="round"></path>
                    <path d="M0,40 L0,48 C0,52.4187356 12.536212,56 28,56 C43.463788,56 56,52.4187356 56,48 L56,40" id="Stroke-54" stroke="#374D6B" stroke-width="2" stroke-linecap="round" stroke-linejoin="round"></path>
                    <path d="M4,45 L4,52" id="Stroke-56" stroke="#374D6B" stroke-width="2" stroke-linecap="round" stroke-linejoin="round"></path>
                    <path d="M8,46 L8,53" id="Stroke-58" stroke="#374D6B" stroke-width="2" stroke-linecap="round" stroke-linejoin="round"></path>
                    <path d="M13,47 L13,54" id="Stroke-60" stroke="#374D6B" stroke-width="2" stroke-linecap="round" stroke-linejoin="round"></path>
                    <path d="M18,48 L18,55" id="Stroke-62" stroke="#374D6B" stroke-width="2" stroke-linecap="round" stroke-linejoin="round"></path>
                    <path d="M23,55 L23,48" id="Stroke-64" stroke="#374D6B" stroke-width="2" stroke-linecap="round" stroke-linejoin="round"></path>
                    <path d="M52,45 L52,51" id="Stroke-68" stroke="#374D6B" stroke-width="2" stroke-linecap="round" stroke-linejoin="round"></path>
                    <path d="M48,46 L48,53" id="Stroke-70" stroke="#374D6B" stroke-width="2" stroke-linecap="round" stroke-linejoin="round"></path>
                    <path d="M43,47 L43,54" id="Stroke-72" stroke="#374D6B" stroke-width="2" stroke-linecap="round" stroke-linejoin="round"></path>
                    <path d="M33,55 L33,48" id="Stroke-74" stroke="#374D6B" stroke-width="2" stroke-linecap="round" stroke-linejoin="round"></path>
                    <path d="M38,55 L38,48" id="Stroke-74" stroke="#374D6B" stroke-width="2" stroke-linecap="round" stroke-linejoin="round"></path>
                    <path d="M28,48 L28,55" id="Stroke-76" stroke="#374D6B" stroke-width="2" stroke-linecap="round" stroke-linejoin="round"></path>
                    <path d="M7,26 L7,34 C7,38.4187356 19.3123511,42 34.5,42 C49.6876489,42 62,38.4187356 62,34 L62,26" id="Fill-78"></path>
                    <path d="M7,26 L7,34 C7,38.4187356 19.3123511,42 34.5,42 C49.6876489,42 62,38.4187356 62,34 L62,26" id="Stroke-80" stroke="#374D6B" stroke-width="2" stroke-linecap="round" stroke-linejoin="round"></path>
                    <path d="M11,30 L11,37" id="Stroke-82" stroke="#374D6B" stroke-width="2" stroke-linecap="round" stroke-linejoin="round"></path>
                    <path d="M15,32 L15,39" id="Stroke-84" stroke="#374D6B" stroke-width="2" stroke-linecap="round" stroke-linejoin="round"></path>
                    <path d="M20,33 L20,40" id="Stroke-86" stroke="#374D6B" stroke-width="2" stroke-linecap="round" stroke-linejoin="round"></path>
                    <path d="M25,34 L25,41" id="Stroke-88" stroke="#374D6B" stroke-width="2" stroke-linecap="round" stroke-linejoin="round"></path>
                    <path d="M30,41 L30,34" id="Stroke-90" stroke="#374D6B" stroke-width="2" stroke-linecap="round" stroke-linejoin="round"></path>
                    <path d="M59,30 L59,37" id="Stroke-92" stroke="#374D6B" stroke-width="2" stroke-linecap="round" stroke-linejoin="round"></path>
                    <path d="M55,32 L55,39" id="Stroke-94" stroke="#374D6B" stroke-width="2" stroke-linecap="round" stroke-linejoin="round"></path>
                    <path d="M50,33 L50,40" id="Stroke-96" stroke="#374D6B" stroke-width="2" stroke-linecap="round" stroke-linejoin="round"></path>
                    <path d="M45,34 L45,41" id="Stroke-98" stroke="#374D6B" stroke-width="2" stroke-linecap="round" stroke-linejoin="round"></path>
                    <path d="M40,41 L40,34" id="Stroke-100" stroke="#374D6B" stroke-width="2" stroke-linecap="round" stroke-linejoin="round"></path>
                    <path d="M35,34 L35,41" id="Stroke-102" stroke="#374D6B" stroke-width="2" stroke-linecap="round" stroke-linejoin="round"></path>
                    <path d="M7,26 C7,30.4187356 19.3123511,34 34.5,34 C49.6876489,34 62,30.4187356 62,26 C62,24.6839217 60.9074962,23.4421317 58.9719421,22.3471165 L58.9719421,22.3471165" id="Stroke-106" stroke="#374D6B" stroke-width="2" stroke-linecap="round" stroke-linejoin="round"></path>
                    <path d="M0,12 L0,20 C0,24.4187356 12.3123511,28 27.5,28 C38.8248725,28 48.5510398,26.0087677 52.7659085,23.1638772" id="Stroke-110" stroke="#374D6B" stroke-width="2" stroke-linecap="round" stroke-linejoin="round"></path>
                    <path d="M4,16 L4,23" id="Stroke-112" stroke="#374D6B" stroke-width="2" stroke-linecap="round" stroke-linejoin="round"></path>
                    <path d="M8,18 L8,25" id="Stroke-114" stroke="#374D6B" stroke-width="2" stroke-linecap="round" stroke-linejoin="round"></path>
                    <path d="M13,19 L13,26" id="Stroke-116" stroke="#374D6B" stroke-width="2" stroke-linecap="round" stroke-linejoin="round"></path>
                    <path d="M18,20 L18,27" id="Stroke-118" stroke="#374D6B" stroke-width="2" stroke-linecap="round" stroke-linejoin="round"></path>
                    <path d="M23,27 L23,21" id="Stroke-120" stroke="#374D6B" stroke-width="2" stroke-linecap="round" stroke-linejoin="round"></path>
                    <path d="M47,20 L47,25" id="Stroke-124" stroke="#374D6B" stroke-width="2" stroke-linecap="round" stroke-linejoin="round"></path>
                    <path d="M43,20 L43,26" id="Stroke-126" stroke="#374D6B" stroke-width="2" stroke-linecap="round" stroke-linejoin="round"></path>
                    <path d="M38,20 L38,27" id="Stroke-128" stroke="#374D6B" stroke-width="2" stroke-linecap="round" stroke-linejoin="round"></path>
                    <path d="M33,27 L33,20" id="Stroke-130" stroke="#374D6B" stroke-width="2" stroke-linecap="round" stroke-linejoin="round"></path>
                    <path d="M28,20 L28,27" id="Stroke-132" stroke="#374D6B" stroke-width="2" stroke-linecap="round" stroke-linejoin="round"></path>
                    <path d="M55,12 C55,7.5812644 42.6876489,4 27.5,4 C12.3123511,4 0,7.5812644 0,12 C0,16.4187356 12.3123511,20 27.5,20 C42.6876489,20 55,16.4187356 55,12" id="Fill-134"></path>
                    <path d="M44.6755588,5.75171993 C39.9693795,4.65553192 33.997844,4 27.5,4 C12.3123511,4 0,7.5812644 0,12 C0,16.4187356 12.3123511,20 27.5,20 C34.1641137,20 40.2746395,19.3104908 45.0343323,18.1632688" id="Stroke-136" stroke="#374D6B" stroke-width="2" stroke-linecap="round" stroke-linejoin="round"></path>
                    <path d="M66,11.5 C66,5.14817525 60.8510565,0 54.5004949,0 C48.1489435,0 43,5.14817525 43,11.5 C43,17.8518248 48.1489435,23 54.5004949,23 C60.8510565,23 66,17.8518248 66,11.5 L66,11.5 Z" id="Stroke-140" stroke="#00B4D5" stroke-width="2" stroke-linecap="round" stroke-linejoin="round"></path>
                    <polyline id="Stroke-142" stroke="#00B4D5" stroke-width="2" stroke-linecap="round" stroke-linejoin="round" points="55 7 55 12 60 12"></polyline>
                </g>
            </g>
        </g>
    </g>
</svg>