<?xml version="1.0" encoding="UTF-8" standalone="no"?>
<svg width="18px" height="18px" viewBox="0 0 18 18" version="1.1" xmlns="http://www.w3.org/2000/svg" xmlns:xlink="http://www.w3.org/1999/xlink">
    <!-- Generator: Sketch 3.7 (28169) - http://www.bohemiancoding.com/sketch -->
    <title>Fill 1</title>
    <desc>Created with Sketch.</desc>
    <defs></defs>
    <g id="Page-1" stroke="none" stroke-width="1" fill="none" fill-rule="evenodd">
        <g id="epay-web-faq" transform="translate(-520.000000, -246.000000)" fill="#374D6B">
            <g id="Group-25" transform="translate(520.000000, 246.000000)">
                <path d="M0.969604709,16.4973599 C-0.32320157,15.201184 -0.32320157,13.092371 0.969604709,11.7961951 L11.0481023,1.09375839 C12.6200244,-0.481533362 15.0287326,-0.340009825 16.7871064,1.42004877 C17.5744714,2.20909864 18.0164517,3.34690295 18.0001653,4.5425522 C17.9838788,5.72528462 17.5205577,6.85747291 16.7309462,7.6487692 L9.1145089,15.7577309 C8.9022236,15.9846178 8.54672995,15.9952883 8.32040461,15.7818798 C8.09464087,15.5690329 8.08397045,15.212416 8.29681736,14.9860907 L15.9250483,6.86533533 C16.5214689,6.26722991 16.8634842,5.41921189 16.8769626,4.52626576 C16.8887562,3.63331964 16.566397,2.79147923 15.9930021,2.21583786 C14.9147275,1.13531689 13.1586001,0.569784341 11.8534386,1.87775386 L1.77550263,12.5801905 C0.908951764,13.4495494 0.908951764,14.8445671 1.7642706,15.7015708 C2.16525396,16.1031157 2.64093029,16.298553 3.1480563,16.2676649 C3.64956629,16.2373384 4.16511632,15.980125 4.59979575,15.5437608 L12.6189012,7.00910527 C12.9092491,6.71763418 13.4933145,6.00383888 12.8985787,5.40797986 C12.5616179,5.07101906 12.3257453,5.09179831 12.2482444,5.09797592 C12.0252886,5.11763197 11.7663904,5.27151074 11.4968218,5.54164098 L5.4618538,11.9607443 C5.2484453,12.1876312 4.89295165,12.1983016 4.66774951,11.9843315 C4.44198578,11.7714846 4.43131535,11.4154294 4.64416226,11.189104 L10.6903623,4.75820711 C11.1666002,4.28028438 11.6523853,4.02138616 12.1471561,3.97701965 C12.5335378,3.94276197 13.1069328,4.02475577 13.692683,4.61219077 C14.5626035,5.48323444 14.4536528,6.76143908 13.4247992,7.79253914 L5.40569367,16.3277563 C4.76546815,16.9696666 3.99270471,17.3431315 3.21713326,17.3908676 C3.15984992,17.3947988 3.10312819,17.3964836 3.04584485,17.3964836 C2.28431344,17.3964836 1.5525469,17.0808637 0.969604709,16.4973599 Z" id="Fill-1"></path>
            </g>
        </g>
    </g>
</svg>