<?xml version="1.0" encoding="UTF-8" standalone="no"?>
<svg width="50px" height="50px" viewBox="0 0 50 50" version="1.1" xmlns="http://www.w3.org/2000/svg" xmlns:xlink="http://www.w3.org/1999/xlink">
    <!-- Generator: Sketch 3.7 (28169) - http://www.bohemiancoding.com/sketch -->
    <title>Group 70</title>
    <desc>Created with Sketch.</desc>
    <defs></defs>
    <g id="Page-1" stroke="none" stroke-width="1" fill="none" fill-rule="evenodd">
        <g id="epay-web-services-cards" transform="translate(-333.000000, -3187.000000)">
            <g id="Group-74" transform="translate(326.000000, 3187.000000)">
                <g id="Group-70" transform="translate(7.000000, 0.000000)">
                    <g id="Group-58">
                        <path d="M31,18 C29.7071991,16.9503935 29.7071991,15.0502976 31,14 C32.0496065,12.7069687 33.9497024,12.7069687 35,14 C36.2930313,15.0502976 36.2930313,16.9503935 35,18 C33.9497024,19.2928009 32.0496065,19.2928009 31,18 L31,18 Z M46,15 L35,4 L27,5 L1,30 L20,49 L45,23 L46,15 Z" id="Fill-1" fill="#D6EEF5"></path>
                        <path d="M33.0963786,13.5181072 C31.7036745,13.5181072 30.9549554,13.8301381 30.7108643,14.7108643 C29.8286309,14.9619296 29.5181072,15.7142828 29.5181072,17.0963786 C29.5181072,17.3146642 29.8286309,18.0670175 30.7108643,18.2891357 C31.5164947,19.7641611 33.4802594,19.7652483 34.2891357,18.2891357 C35.1713691,18.0670175 35.4818928,17.3146642 35.4818928,17.0963786 C35.4818928,15.7142828 35.1713691,14.9619296 34.2891357,14.7108643 C34.0450446,13.8301381 33.2963255,13.5181072 33.0963786,13.5181072 L33.0963786,13.5181072 Z M33,20 L33,20 C31.5653621,20 30.6866347,19.6339074 30,19 C29.3643504,18.3053001 29,17.4223708 29,16 C29,15.5441565 29.3643504,14.6612272 30,14 C31.347311,12.6678482 33.652689,12.6678482 35,14 C35.6356496,14.6612272 36,15.5441565 36,16 C36,17.4223708 35.6356496,18.3053001 35,19 C34.3133653,19.6339074 33.4346379,20 33,20 L33,20 Z M1,31 L19,49 L44,24 L45,16 L34,5 L26,6 L1,31 Z M-7.10542736e-15,31 C-0.0482859371,31.1284991 26,5 26,5 C25.8181191,4.9482907 34,4 34,4 C34.1242908,3.98554998 46,16 46,16 C45.9615264,15.7246477 45,24 45,24 C45.1017891,24.0783053 19,50 19,50 C18.8966396,50 -7.10542736e-15,31 -7.10542736e-15,31 Z" id="Fill-3" fill="#00B2D4"></path>
                        <path d="M32,17 C32.2890119,17 32.0936832,16.8667261 32,17 C31.9392141,16.3972837 32.0817243,16.1158172 32,16 C35.1152982,15.1202412 37.3456327,12.7014193 38,10 C38.1678069,9.25917317 38.2465364,8.64054356 38,8 C38.4408685,7.11783948 38.5554746,6.22072708 39,5 C39.7035288,2.71482774 42.6364486,0.391485651 46,1 C45.8902655,1.21002612 46.0517106,1.48055225 46,2 C45.917173,2.01364787 45.645108,2.17377547 45,2 C42.9673114,1.50342763 40.4958058,3.49557412 40,6 C39.5321179,6.44052956 39.4284741,7.25210796 39,8 C39.2361352,8.76387165 39.1494332,9.43720324 39,10 C38.2365706,13.260374 35.7481232,15.9596679 33,17 C32.6019364,16.9920433 32.5501145,17 32,17" id="Fill-5" fill="#00B2D4"></path>
                        <g id="Group-64" transform="translate(13.000000, 21.000000)" fill="#00B2D4">
                            <path d="M14.2222222,11.1111111 C14.5114926,11.1111111 14.4119639,11.0730095 14.2222222,11.1111111 L4.88888889,1.77777778 C4.85098243,1.51184426 4.85098243,1.26535033 4.88888889,1 C5.15423412,0.96209281 5.40072331,0.96209281 5.66666667,1 L15,10.3333333 C15.0379065,10.5994612 15.0379065,10.8451776 15,11.1111111 C14.8100789,11.0730095 14.7105502,11.1111111 14.2222222,11.1111111" id="Fill-7"></path>
                            <path d="M10.3333333,15 C10.6226319,15 10.5231089,14.9619006 10.3333333,15 L1,5.66666667 C0.961901344,5.40050925 0.961901344,5.15480707 1,4.88888889 C1.26591307,4.8507895 1.51161052,4.8507895 1.77777778,4.88888889 L11.1111111,14.2222222 C11.1490154,14.4883796 11.1490154,14.7340818 11.1111111,15 C10.921201,14.9619006 10.821678,15 10.3333333,15" id="Fill-9"></path>
                        </g>
                    </g>
                    <polyline id="Path-2553" stroke="#00B4D5" points="48.6596799 19.8500977 48.6596799 25.5373001 25.1991358 48.8092602"></polyline>
                </g>
            </g>
        </g>
    </g>
</svg>