<?xml version="1.0" encoding="UTF-8" standalone="no"?>
<svg width="55px" height="71px" viewBox="0 0 55 71" version="1.1" xmlns="http://www.w3.org/2000/svg" xmlns:xlink="http://www.w3.org/1999/xlink">
    <!-- Generator: Sketch 3.8.3 (29802) - http://www.bohemiancoding.com/sketch -->
    <title>Group 9</title>
    <desc>Created with Sketch.</desc>
    <defs></defs>
    <g id="All-pages" stroke="none" stroke-width="1" fill="none" fill-rule="evenodd">
        <g id="colored-icons" transform="translate(-719.000000, -333.000000)">
            <g id="Group-25" transform="translate(224.000000, 168.000000)">
                <g id="Group-9" transform="translate(495.000000, 165.000000)">
                    <path d="M24,35 C20.8375429,33.5188061 19,30.6423198 19,27 C19,22.8107256 23.0361143,19 28,19 C32.9613143,19 37,22.8107256 37,27 C37,30.6428051 35.1614286,33.5188061 32,35 L31,33 C33.3187429,31.9691822 34.6857143,29.8328076 35,27 C34.6857143,24.0148022 31.6853714,21.1839359 28,21 C24.3120571,21.1839359 21.3142857,24.0148022 21,27 C21.3142857,29.8328076 22.6807429,31.9696676 25,33 L24,35 Z" id="Fill-113" fill="#00B4D5"></path>
                    <path d="M54,71 L52,71 L52,44 C51.754964,43.5073656 51.5010255,42.9003603 51,42 C50.5805608,41.9846494 49.9724055,41.732928 49,42 C48.6792647,41.732928 48.0701116,41.9841539 48,42 C47.1461546,42.9018468 46.8907194,43.5078611 47,44 C46.8907194,44.7679547 46.3883302,45.2669378 46,45 C45.1480726,45.2669378 44.6456834,44.7679547 45,44 C44.6456834,43.5068701 44.3927427,42.8978827 44,42 C43.4772669,41.9841539 42.8681138,41.732928 42,42 C41.5744742,41.732928 40.9668178,41.9841539 41,42 C40.0428608,42.9003603 39.7884234,43.5073656 40,44 C39.7884234,44.7679547 39.2855353,45.2669378 39,45 C38.0462755,45.2669378 37.5443852,44.7684502 38,44 C37.5433874,43.501915 37.2919434,42.8944141 37,42 C36.3764676,41.9841539 35.7663167,41.732928 35,42 C34.4716793,41.732928 33.8605306,41.9846494 33,42 C32.9410636,42.8973872 32.687624,43.5043925 33,44 C32.687624,44.7649816 32.1852349,45.2639647 32,45 C30.9454761,45.2639647 31.4425881,44.7649816 31,44 L31,28 C31.4425881,26.9953339 30.1901462,26.3903106 30,26 C29.2726749,25.4800504 28.6635218,25.2298155 28,25 C27.3648932,25.2298155 26.7557401,25.4805459 26,26 C25.836772,26.3893196 24.5848291,26.9938474 25,28 L25,57 C24.5848291,57.2578947 25.343363,57.6448916 25,58 C24.579053,58.0209871 24.1230612,57.9778773 24,58 C20.8517944,55.5117014 17.3550261,54.343278 14,54 C12.3341279,54.343278 11.245036,55.4254818 11,57 C11.245036,58.0858995 12.3341279,59.1685988 14,59 C20.2411446,59.1685988 25.5848291,64.4760553 26,71 L23,71 C23.3397931,65.7054269 19.0033814,61.3984144 14,61 C11.0958658,61.3984144 9,59.3157667 9,57 C9,54.1961102 11.0958658,52.1134625 14,52 C17.1190479,52.1134625 20.4217453,53.0157945 23,55 L23,28 C23.3397931,26.3957613 23.8272154,25.2288245 25,24 C25.5933103,23.4821357 26.7662169,23 28,23 C29.2646925,23 30.4385969,23.4826312 31,24 C32.2002018,25.2313021 32.687624,26.3982389 33,28 L33,40 C33.4150157,39.7379864 34.2496702,39.5031125 35,40 C36.3654919,39.5031125 37.5393962,39.9862391 38,41 C38.5097507,40.9495195 38.5925675,41.0387121 39,41 C39.8013947,39.9867347 40.9738024,39.5031125 42,40 C43.4687857,39.5031125 44.6426901,39.9867347 46,41 C46.9031918,39.9872302 48.0775951,39.5031125 49,40 C50.5710817,39.5031125 51.7434894,39.9862391 53,41 C53.5135755,41.7482889 54,42.9137392 54,44 L54,71 Z" id="Fill-114" fill="#374D6B"></path>
                    <polygon id="Fill-115" fill="#00B4D5" points="37 21 35 19 38 17 38 10 40 10 40 17"></polygon>
                    <polygon id="Fill-116" fill="#00B4D5" points="19 21 16 17 16 10 18 10 18 17 21 19"></polygon>
                    <path d="M27,12 L29,12 L29,10 L27,10 L27,12 Z M27,15.999846 L29,15.999846 L29,13.999846 L27,13.999846 L27,15.999846 Z" id="Fill-117" fill="#00B4D5"></path>
                    <path d="M39,29 L41,29 L41,27 L39,27 L39,29 Z M42.999846,29 L44.999846,29 L44.999846,27 L42.999846,27 L42.999846,29 Z" id="Fill-118" fill="#374D6B"></path>
                    <path d="M10,29 L12,29 L12,27 L10,27 L10,29 Z M14,29 L16,29 L16,27 L14,27 L14,29 Z" id="Fill-119" fill="#374D6B"></path>
                    <path d="M17.6666667,5 C15.8972308,5 15,5.89723077 15,7.66666667 C15,8.10276923 15.8972308,9 17.6666667,9 C18.1027692,9 19,8.10276923 19,7.66666667 C19,5.89723077 18.1027692,5 17.6666667,5 M17,11 C14.7945806,11 13,9.20541935 13,7 C13,4.79458065 14.7945806,3 17,3 C19.2054194,3 21,4.79458065 21,7 C21,9.20541935 19.2054194,11 17,11" id="Fill-120" fill="#00B4D5"></path>
                    <path d="M28.6666667,2 C26.8972308,2 26,2.89723077 26,4.66666667 C26,5.10276923 26.8972308,6 28.6666667,6 C29.1027692,6 30,5.10276923 30,4.66666667 C30,2.89723077 29.1027692,2 28.6666667,2 M28,8 C25.7945806,8 24,6.20541935 24,4 C24,1.79458065 25.7945806,0 28,0 C30.2059355,0 32,1.79458065 32,4 C32,6.20541935 30.2059355,8 28,8" id="Fill-121" fill="#00B4D5"></path>
                    <path d="M39.6666667,5 C37.8972308,5 37,5.89723077 37,7.66666667 C37,8.10276923 37.8972308,9 39.6666667,9 C40.1027692,9 41,8.10276923 41,7.66666667 C41,5.89723077 40.1027692,5 39.6666667,5 M39,11 C36.7945806,11 35,9.20541935 35,7 C35,4.79458065 36.7945806,3 39,3 C41.2054194,3 43,4.79458065 43,7 C43,9.20541935 41.2054194,11 39,11" id="Fill-122" fill="#00B4D5"></path>
                    <path d="M51.6666667,26 C49.8972308,26 49,26.8972308 49,28.6666667 C49,29.1027692 49.8972308,30 51.6666667,30 C52.1027692,30 53,29.1027692 53,28.6666667 C53,26.8972308 52.1027692,26 51.6666667,26 M51,32 C48.7945806,32 47,30.2054194 47,28 C47,25.7945806 48.7945806,24 51,24 C53.2054194,24 55,25.7945806 55,28 C55,30.2054194 53.2054194,32 51,32" id="Fill-123" fill="#374D6B"></path>
                    <path d="M4.66666667,26 C2.89723077,26 2,26.8972308 2,28.6666667 C2,29.1027692 2.89723077,30 4.66666667,30 C5.10276923,30 6,29.1027692 6,28.6666667 C6,26.8972308 5.10276923,26 4.66666667,26 M4,32 C1.79458065,32 0,30.2054194 0,28 C0,25.7945806 1.79458065,24 4,24 C6.20541935,24 8,25.7945806 8,28 C8,30.2054194 6.20541935,32 4,32" id="Fill-124" fill="#374D6B"></path>
                </g>
            </g>
        </g>
    </g>
</svg>