<?xml version="1.0" encoding="UTF-8" standalone="no"?>
<svg width="63px" height="70px" viewBox="0 0 63 70" version="1.1" xmlns="http://www.w3.org/2000/svg" xmlns:xlink="http://www.w3.org/1999/xlink">
    <!-- Generator: Sketch 3.8.3 (29802) - http://www.bohemiancoding.com/sketch -->
    <title>Group 21</title>
    <desc>Created with Sketch.</desc>
    <defs></defs>
    <g id="All-pages" stroke="none" stroke-width="1" fill="none" fill-rule="evenodd">
        <g id="colored-icons" transform="translate(-715.000000, -820.000000)">
            <g id="Group-25" transform="translate(224.000000, 168.000000)">
                <g id="Group-21" transform="translate(491.000000, 652.000000)">
                    <path d="M57,68 L61,68 L61,44 L56,44 L56,19 L51,19 L51,14 L48,14 L48,29 L42,29 L42,38 L52,38 L52,49 L57,49 L57,68 Z M63,70 L55,70 L55,51 L50,51 L50,40 L40,40 L40,27 L46,27 L46,12 L53,12 L53,17 L58,17 L58,42 L63,42 L63,70 Z" id="Fill-200" fill="#374D6B"></path>
                    <path d="M7,49 L10,49 L10,38 L20,38 L20,34 L14,34 L14,29 L9,29 L9,24 L7,24 L7,49 Z M2,68 L5,68 L5,54 L2,54 L2,68 Z M7,70 L0,70 L0,52 L5,52 L5,22 L11,22 L11,27 L16,27 L16,32 L22,32 L22,40 L12,40 L12,51 L7,51 L7,70 Z" id="Fill-201" fill="#374D6B"></path>
                    <polygon id="Fill-236" fill="#374D6B" points="45 46 48 46 48 43 45 43"></polygon>
                    <polygon id="Fill-237" fill="#374D6B" points="45 51 48 51 48 48 45 48"></polygon>
                    <polygon id="Fill-238" fill="#374D6B" points="45 56 48 56 48 53 45 53"></polygon>
                    <polygon id="Fill-239" fill="#374D6B" points="45 61 48 61 48 58 45 58"></polygon>
                    <polygon id="Fill-240" fill="#374D6B" points="45 66 48 66 48 63 45 63"></polygon>
                    <polygon id="Fill-241" fill="#374D6B" points="50 56 53 56 53 53 50 53"></polygon>
                    <polygon id="Fill-242" fill="#374D6B" points="50 61 53 61 53 58 50 58"></polygon>
                    <polygon id="Fill-243" fill="#374D6B" points="50 66 53 66 53 63 50 63"></polygon>
                    <path d="M42,68 L55,68 L55,49 L50,49 L50,39 L42,39 L42,68 Z M57,70 L40,70 L40,38 L52,38 L52,49 L57,49 L57,70 Z" id="Fill-244" fill="#374D6B"></path>
                    <polygon id="Fill-245" fill="#374D6B" points="14 46 17 46 17 43 14 43"></polygon>
                    <polygon id="Fill-246" fill="#374D6B" points="14 51 17 51 17 48 14 48"></polygon>
                    <polygon id="Fill-247" fill="#374D6B" points="14 56 17 56 17 53 14 53"></polygon>
                    <polygon id="Fill-248" fill="#374D6B" points="14 61 17 61 17 58 14 58"></polygon>
                    <polygon id="Fill-249" fill="#374D6B" points="14 66 17 66 17 63 14 63"></polygon>
                    <polygon id="Fill-250" fill="#374D6B" points="9 56 12 56 12 53 9 53"></polygon>
                    <polygon id="Fill-251" fill="#374D6B" points="9 61 12 61 12 58 9 58"></polygon>
                    <polygon id="Fill-252" fill="#374D6B" points="9 66 12 66 12 63 9 63"></polygon>
                    <path d="M7,68 L20,68 L20,40 L12,40 L12,50 L7,50 L7,68 Z M22,70 L5,70 L5,49 L10,49 L10,38 L22,38 L22,70 Z" id="Fill-253" fill="#374D6B"></path>
                    <g id="Group-20" transform="translate(20.000000, 0.000000)" fill="#00B4D5">
                        <polygon id="Fill-202" points="10 11 12 11 12 8 10 8"></polygon>
                        <polygon id="Fill-203" points="10 16 12 16 12 13 10 13"></polygon>
                        <polygon id="Fill-204" points="10 21 12 21 12 18 10 18"></polygon>
                        <polygon id="Fill-205" points="10 26 12 26 12 23 10 23"></polygon>
                        <polygon id="Fill-206" points="10 31 12 31 12 28 10 28"></polygon>
                        <polygon id="Fill-207" points="10 36 12 36 12 33 10 33"></polygon>
                        <polygon id="Fill-208" points="10 41 12 41 12 38 10 38"></polygon>
                        <polygon id="Fill-209" points="10 46 12 46 12 43 10 43"></polygon>
                        <polygon id="Fill-210" points="10 51 12 51 12 48 10 48"></polygon>
                        <polygon id="Fill-211" points="10 56 12 56 12 53 10 53"></polygon>
                        <polygon id="Fill-212" points="10 61 12 61 12 58 10 58"></polygon>
                        <polygon id="Fill-213" points="10 66 12 66 12 63 10 63"></polygon>
                        <polygon id="Fill-214" points="14 21 17 21 17 18 14 18"></polygon>
                        <polygon id="Fill-215" points="14 26 17 26 17 23 14 23"></polygon>
                        <polygon id="Fill-216" points="14 31 17 31 17 28 14 28"></polygon>
                        <polygon id="Fill-217" points="14 36 17 36 17 33 14 33"></polygon>
                        <polygon id="Fill-218" points="14 41 17 41 17 38 14 38"></polygon>
                        <polygon id="Fill-219" points="14 46 17 46 17 43 14 43"></polygon>
                        <polygon id="Fill-220" points="14 51 17 51 17 48 14 48"></polygon>
                        <polygon id="Fill-221" points="14 56 17 56 17 53 14 53"></polygon>
                        <polygon id="Fill-222" points="14 61 17 61 17 58 14 58"></polygon>
                        <polygon id="Fill-223" points="14 66 17 66 17 63 14 63"></polygon>
                        <polygon id="Fill-224" points="5 21 8 21 8 18 5 18"></polygon>
                        <polygon id="Fill-225" points="5 26 8 26 8 23 5 23"></polygon>
                        <polygon id="Fill-226" points="5 31 8 31 8 28 5 28"></polygon>
                        <polygon id="Fill-227" points="5 36 8 36 8 33 5 33"></polygon>
                        <polygon id="Fill-228" points="5 41 8 41 8 38 5 38"></polygon>
                        <polygon id="Fill-229" points="5 46 8 46 8 43 5 43"></polygon>
                        <polygon id="Fill-230" points="5 51 8 51 8 48 5 48"></polygon>
                        <polygon id="Fill-231" points="5 56 8 56 8 53 5 53"></polygon>
                        <polygon id="Fill-232" points="5 61 8 61 8 58 5 58"></polygon>
                        <polygon id="Fill-233" points="5 66 8 66 8 63 5 63"></polygon>
                        <path d="M2,68 L20,68 L20,15 L15,15 L15,5 L7,5 L7,15 L2,15 L2,68 Z M22,70 L0,70 L0,13 L5,13 L5,3 L17,3 L17,13 L22,13 L22,70 Z" id="Fill-234"></path>
                        <polygon id="Fill-235" points="10 4 12 4 12 0 10 0"></polygon>
                    </g>
                </g>
            </g>
        </g>
    </g>
</svg>