<?xml version="1.0" encoding="UTF-8" standalone="no"?>
<svg width="72px" height="64px" viewBox="0 0 72 64" version="1.1" xmlns="http://www.w3.org/2000/svg" xmlns:xlink="http://www.w3.org/1999/xlink">
    <!-- Generator: Sketch 3.8.3 (29802) - http://www.bohemiancoding.com/sketch -->
    <title>Page 1</title>
    <desc>Created with Sketch.</desc>
    <defs>
        <polygon id="path-1" points="0 63.7345 71.125 63.7345 71.125 0 0 0"></polygon>
    </defs>
    <g id="Page-1" stroke="none" stroke-width="1" fill="none" fill-rule="evenodd">
        <g id="epay-service-index2" transform="translate(-500.000000, -981.000000)">
            <g id="Group-52" transform="translate(0.000000, 900.000000)">
                <g id="Page-1" transform="translate(500.000000, 81.000000)">
                    <path d="M53.9995,61.4845 L55.8025,61.4845 L57.0855,58.123 L57.644,57.9755 C58.593,57.7255 59.5065,57.3465 60.3595,56.849 L60.858,56.5585 L64.144,58.029 L65.4165,56.7555 L63.945,53.468 L64.237,52.9685 C64.74,52.108 65.12,51.196 65.365,50.2585 L65.5115,49.6985 L68.8735,48.4155 L68.8745,46.614 L65.5115,45.331 L65.365,44.7705 C65.12,43.8325 64.7405,42.92 64.2365,42.0575 L63.945,41.558 L65.4165,38.273 L64.144,36.998 L60.858,38.4715 L60.3585,38.18 C59.505,37.6815 58.591,37.302 57.6425,37.052 L57.084,36.905 L55.802,33.543 L53.9995,33.543 L52.7195,36.9045 L52.161,37.052 C51.207,37.3035 50.2945,37.6825 49.4485,38.179 L48.948,38.472 L45.6625,36.998 L44.3875,38.2735 L45.8605,41.559 L45.567,42.059 C45.07,42.9075 44.6905,43.821 44.4395,44.774 L44.292,45.333 L40.931,46.6135 L40.931,48.4155 L44.292,49.698 L44.439,50.256 C44.691,51.2085 45.0705,52.1205 45.567,52.967 L45.8605,53.467 L44.3875,56.7555 L45.6625,58.029 L48.948,56.5585 L49.4475,56.8505 C50.2925,57.3455 51.2055,57.724 52.161,57.9755 L52.7195,58.123 L53.9995,61.4845 L53.9995,61.4845 Z M57.352,63.7345 L52.4485,63.7345 L51.0225,59.989 C50.262,59.7515 49.527,59.447 48.8255,59.0785 L45.1675,60.7155 L41.7005,57.2505 L43.3395,53.591 C42.969,52.889 42.6635,52.1535 42.4265,51.394 L38.681,49.9655 L38.681,45.0625 L42.426,43.6365 C42.663,42.876 42.969,42.14 43.3395,41.436 L41.7005,37.7795 L45.1675,34.3105 L48.8255,35.951 C49.5275,35.581 50.263,35.276 51.0225,35.0385 L52.4485,31.293 L57.352,31.293 L58.78,35.0385 C59.5375,35.275 60.2735,35.5805 60.9785,35.9515 L64.6395,34.3105 L68.1035,37.78 L66.465,41.4365 C66.839,42.146 67.145,42.8825 67.38,43.636 L71.125,45.064 L71.123,49.9655 L67.3795,51.3935 C67.1445,52.1465 66.8385,52.882 66.465,53.5905 L68.1035,57.2505 L64.6395,60.7155 L60.9785,59.078 C60.274,59.4475 59.539,59.7525 58.7815,59.989 L57.352,63.7345 L57.352,63.7345 Z" id="Fill-1" fill="#202020"></path>
                    <path d="M54.90185,42.8566 C52.33385,42.8566 50.24485,44.9466 50.24485,47.5146 C50.24485,50.0821 52.33385,52.1711 54.90185,52.1711 C57.46835,52.1711 59.55685,50.0821 59.55685,47.5146 C59.55685,44.9466 57.46835,42.8566 54.90185,42.8566 M54.90185,54.4211 C51.09335,54.4211 47.99485,51.3231 47.99485,47.5146 C47.99485,43.7056 51.09335,40.6066 54.90185,40.6066 C58.70935,40.6066 61.80685,43.7056 61.80685,47.5146 C61.80685,51.3231 58.70935,54.4211 54.90185,54.4211" id="Fill-3" fill="#202020"></path>
                    <mask id="mask-2" fill="white">
                        <use xlink:href="#path-1"></use>
                    </mask>
                    <g id="Clip-6"></g>
                    <polygon id="Fill-5" fill="#202020" mask="url(#mask-2)" points="0 32.1525 6.3985 32.1525 6.3985 29.9025 0 29.9025"></polygon>
                    <polygon id="Fill-7" fill="#202020" mask="url(#mask-2)" points="6.3985 40.7245 13.279 40.7245 13.279 38.4745 6.3985 38.4745"></polygon>
                    <polygon id="Fill-8" fill="#202020" mask="url(#mask-2)" points="6.3985 45.008 13.279 45.008 13.279 42.758 6.3985 42.758"></polygon>
                    <polygon id="Fill-9" fill="#202020" mask="url(#mask-2)" points="6.3985 57.8655 13.279 57.8655 13.279 55.6155 6.3985 55.6155"></polygon>
                    <polygon id="Fill-10" fill="#202020" mask="url(#mask-2)" points="6.3985 62.1505 13.279 62.1505 13.279 59.9005 6.3985 59.9005"></polygon>
                    <polygon id="Fill-11" fill="#202020" mask="url(#mask-2)" points="0 36.4355 13.279 36.4355 13.279 34.1855 0 34.1855"></polygon>
                    <polygon id="Fill-12" fill="#202020" mask="url(#mask-2)" points="0 49.295 6.3985 49.295 6.3985 47.045 0 47.045"></polygon>
                    <polygon id="Fill-13" fill="#202020" mask="url(#mask-2)" points="6.3985 23.58 13.279 23.58 13.279 21.33 6.3985 21.33"></polygon>
                    <polygon id="Fill-14" fill="#202020" mask="url(#mask-2)" points="6.3985 27.8655 13.279 27.8655 13.279 25.6155 6.3985 25.6155"></polygon>
                    <polygon id="Fill-15" fill="#202020" mask="url(#mask-2)" points="0 19.293 13.279 19.293 13.279 17.043 0 17.043"></polygon>
                    <polygon id="Fill-16" fill="#202020" mask="url(#mask-2)" points="0 53.58 13.279 53.58 13.279 51.33 0 51.33"></polygon>
                    <polygon id="Fill-17" fill="#202020" mask="url(#mask-2)" points="15.97 57.8665 22.851 57.8665 22.851 55.6165 15.97 55.6165"></polygon>
                    <polygon id="Fill-18" fill="#202020" mask="url(#mask-2)" points="15.97 62.1515 29.249 62.1515 29.249 59.9015 15.97 59.9015"></polygon>
                    <path d="M18.1045,7.997 L58.354,7.997 L58.354,2.25 L18.1045,2.25 L18.1045,7.997 Z M15.855,10.247 L60.6045,10.247 L60.6045,0 L15.855,0 L15.855,10.247 Z" id="Fill-19" fill="#202020" mask="url(#mask-2)"></path>
                    <polygon id="Fill-20" fill="#202020" mask="url(#mask-2)" points="21.3545 6.249 23.6055 6.249 23.6055 3.999 21.3545 3.999"></polygon>
                    <polygon id="Fill-21" fill="#202020" mask="url(#mask-2)" points="25.855 6.249 28.106 6.249 28.106 3.999 25.855 3.999"></polygon>
                    <polygon id="Fill-22" fill="#202020" mask="url(#mask-2)" points="30.3555 6.249 32.606 6.249 32.606 3.999 30.3555 3.999"></polygon>
                    <polygon id="Fill-23" fill="#202020" mask="url(#mask-2)" points="36.81055 53.5802 15.85455 53.5802 15.85455 7.9972 60.60455 7.9972 60.60455 30.3252 58.35455 30.3252 58.35455 10.2472 18.10455 10.2472 18.10455 51.3302 36.81055 51.3302"></polygon>
                    <path d="M38.07615,21.39565 L40.96815,21.39565 C41.31165,21.39565 41.63465,21.26165 41.87765,21.01865 C42.11965,20.77665 42.25365,20.45365 42.25365,20.11065 C42.25365,19.76715 42.11965,19.44465 41.87715,19.20115 C41.63465,18.95915 41.31165,18.82515 40.96815,18.82515 L38.07615,18.82515 L38.07615,21.39565 Z M38.07615,28.46615 L35.82615,28.46615 L35.82615,17.70015 C35.82615,17.07915 36.32965,16.57515 36.95115,16.57515 L40.96815,16.57515 C41.91165,16.57515 42.79965,16.94315 43.46815,17.61065 C44.13615,18.27965 44.50365,19.16665 44.50365,20.11065 C44.50365,21.05415 44.13615,21.94165 43.46865,22.60965 C42.79965,23.27815 41.91165,23.64565 40.96815,23.64565 L38.07615,23.64565 L38.07615,28.46615 Z" id="Fill-24" fill="#202020" mask="url(#mask-2)"></path>
                    <path d="M33.57715,28.46595 L31.32715,28.46595 L31.32715,20.11045 C31.32715,19.76745 31.19315,19.44445 30.95065,19.20145 C30.70815,18.95895 30.38515,18.82545 30.04215,18.82545 L28.43515,18.82545 C28.09215,18.82545 27.76915,18.95895 27.52615,19.20195 C27.28365,19.44445 27.15015,19.76745 27.15015,20.11045 L27.15015,28.46595 L24.90015,28.46595 L24.90015,20.11045 C24.90015,19.16595 25.26765,18.27845 25.93565,17.61095 C26.60315,16.94295 27.49115,16.57545 28.43515,16.57545 L30.04215,16.57545 C30.98565,16.57545 31.87365,16.94295 32.54165,17.61045 C33.20965,18.27945 33.57715,19.16645 33.57715,20.11045 L33.57715,28.46595 Z" id="Fill-25" fill="#202020" mask="url(#mask-2)"></path>
                    <polygon id="Fill-26" fill="#202020" mask="url(#mask-2)" points="24.9 23.6455 33.577 23.6455 33.577 21.3955 24.9 21.3955"></polygon>
                    <polygon id="Fill-27" fill="#202020" mask="url(#mask-2)" points="48.0235 27.341 50.2735 27.341 50.2735 17.7005 48.0235 17.7005"></polygon>
                    <polygon id="Fill-28" fill="#202020" mask="url(#mask-2)" points="46.738 18.8255 51.5595 18.8255 51.5595 16.5755 46.738 16.5755"></polygon>
                    <polygon id="Fill-29" fill="#202020" mask="url(#mask-2)" points="46.738 28.466 51.5595 28.466 51.5595 26.216 46.738 26.216"></polygon>
                </g>
            </g>
        </g>
    </g>
</svg>