<svg xmlns="http://www.w3.org/2000/svg" width="63" height="55" viewBox="0 0 63 55">
  <g fill="none" fill-rule="evenodd">
    <polygon fill="#374D6B" points="0 55 63 55 63 53 0 53"/>
    <path fill="#374D6B" d="M36 48L44 48 44 34 36 34 36 48zM34 50L46 50 46 32 34 32 34 50zM50 50L62 50 62 16 50 16 50 50zM52 48L60 48 60 18 52 18 52 48zM0 50L12 50 12 40 0 40 0 50zM2 48L10 48 10 42 2 42 2 48zM19 48L27 48 27 24 19 24 19 48zM17 50L29 50 29 22 17 22 17 50z"/>
    <g fill="#00B4D3">
      <polygon points="36.452 21 25 9.548 26.548 8 38 19.452"/>
      <polygon points="43.548 21 42 19.452 53.452 8 55 9.548"/>
      <polygon points="8.547 21 7 19.453 18.453 8 20 9.546"/>
      <path d="M5.00025798 20C3.34611746 20 2 21.3456015 2 22.999742 2 24.6543985 3.34611746 26 5.00025798 26 6.65439849 26 8 24.6543985 8 22.999742 8 21.3456015 6.65439849 20 5.00025798 20M5.00024238 28C2.24295894 28 0 25.7570411 0 22.9997576 0 20.2429589 2.24295894 18 5.00024238 18 7.75704106 18 10 20.2429589 10 22.9997576 10 25.7570411 7.75704106 28 5.00024238 28M22 2C20.3457172 2 19 3.34560151 19 5.00025798 19 6.65439849 20.3457172 8 22 8 23.6542828 8 25 6.65439849 25 5.00025798 25 3.34560151 23.6542828 2 22 2M22 10C19.2425829 10 17 7.75704106 17 5.00024238 17 2.24295894 19.2425829 0 22 0 24.7569323 0 27 2.24295894 27 5.00024238 27 7.75704106 24.7569323 10 22 10M40 20C38.3457172 20 37 21.3456015 37 22.999742 37 24.6543985 38.3457172 26 40 26 41.6542828 26 43 24.6543985 43 22.999742 43 21.3456015 41.6542828 20 40 20M40 28C37.2430677 28 35 25.7570411 35 22.9997576 35 20.2429589 37.2430677 18 40 18 42.7569323 18 45 20.2429589 45 22.9997576 45 25.7570411 42.7569323 28 40 28M57.5009032 2C55.5704086 2 54 3.56986843 54 5.50030097 54 7.43013157 55.5704086 9 57.5009032 9 59.4301935 9 61 7.43013157 61 5.50030097 61 3.56986843 59.4301935 2 57.5009032 2M57.5008 11C54.4677333 11 52 8.53274516 52 5.50026661 52 2.46725484 54.4677333 0 57.5008 0 60.5333333 0 63 2.46725484 63 5.50026661 63 8.53274516 60.5333333 11 57.5008 11"/>
    </g>
  </g>
</svg>
