<svg width="224" height="65" viewBox="0 0 224 65" fill="none" xmlns="http://www.w3.org/2000/svg">
<rect width="224" height="65" rx="5" fill="black"/>
<path d="M57.6222 20.8658C58.2914 20.1215 58.8018 19.257 59.1238 18.3219C59.4458 17.3867 59.5733 16.3994 59.4987 15.4166C57.444 15.5767 55.5367 16.5091 54.1877 18.0131C53.5416 18.7339 53.0521 19.5725 52.748 20.4792C52.4439 21.3858 52.3315 22.3422 52.4173 23.2915C53.4196 23.2996 54.4103 23.085 55.3129 22.6644C56.2155 22.2437 57.0056 21.6284 57.6222 20.8658ZM62.0835 33.575C62.0954 32.2661 62.4527 30.9816 63.1217 29.8429C63.7908 28.7042 64.7495 27.7487 65.9075 27.0667C65.1767 26.0507 64.2107 25.213 63.0859 24.62C61.9612 24.0269 60.7088 23.6949 59.4279 23.6502C56.6662 23.3769 54.1168 25.2047 52.6474 25.2047C51.178 25.2047 49.1067 23.6844 46.8052 23.7186C45.3006 23.7664 43.8346 24.1897 42.5501 24.9471C41.2655 25.7045 40.2064 26.7703 39.4759 28.0404C36.3601 33.2675 38.6792 41.0399 41.7951 45.2592C43.2114 47.3262 44.9817 49.6664 47.3186 49.581C49.6555 49.4956 50.4168 48.1803 53.1254 48.1803C55.8341 48.1803 56.6662 49.581 58.9676 49.5298C61.2691 49.4785 62.8979 47.4116 64.385 45.3446C65.4384 43.844 66.2613 42.2042 66.8281 40.4762C65.425 39.8989 64.228 38.9376 63.3848 37.7111C62.5416 36.4847 62.0892 35.0468 62.0835 33.575Z" fill="white"/>
<path d="M82.2578 25H85.6416C88.5742 25 90.2969 23.1748 90.2969 20.0713V20.0576C90.2969 16.9609 88.5674 15.1357 85.6416 15.1357H82.2578V25ZM83.4883 23.8926V16.2432H85.5596C87.7471 16.2432 89.0391 17.665 89.0391 20.0713V20.085C89.0391 22.4844 87.7607 23.8926 85.5596 23.8926H83.4883ZM95.3076 25.1299C97.4062 25.1299 98.7051 23.6807 98.7051 21.3223V21.3086C98.7051 18.9434 97.4062 17.501 95.3076 17.501C93.209 17.501 91.9102 18.9434 91.9102 21.3086V21.3223C91.9102 23.6807 93.209 25.1299 95.3076 25.1299ZM95.3076 24.0771C93.9131 24.0771 93.127 23.0586 93.127 21.3223V21.3086C93.127 19.5654 93.9131 18.5537 95.3076 18.5537C96.7021 18.5537 97.4883 19.5654 97.4883 21.3086V21.3223C97.4883 23.0586 96.7021 24.0771 95.3076 24.0771ZM101.699 25H102.889L104.529 19.2988H104.639L106.286 25H107.482L109.547 17.6309H108.364L106.915 23.5234H106.806L105.158 17.6309H104.03L102.383 23.5234H102.273L100.824 17.6309H99.6348L101.699 25ZM111.119 25H112.309V20.6387C112.309 19.3467 113.054 18.5537 114.229 18.5537C115.405 18.5537 115.952 19.1895 115.952 20.5156V25H117.142V20.2285C117.142 18.4785 116.219 17.501 114.564 17.501C113.478 17.501 112.787 17.959 112.418 18.7383H112.309V17.6309H111.119V25ZM119.363 25H120.553V14.7051H119.363V25ZM125.864 25.1299C127.963 25.1299 129.262 23.6807 129.262 21.3223V21.3086C129.262 18.9434 127.963 17.501 125.864 17.501C123.766 17.501 122.467 18.9434 122.467 21.3086V21.3223C122.467 23.6807 123.766 25.1299 125.864 25.1299ZM125.864 24.0771C124.47 24.0771 123.684 23.0586 123.684 21.3223V21.3086C123.684 19.5654 124.47 18.5537 125.864 18.5537C127.259 18.5537 128.045 19.5654 128.045 21.3086V21.3223C128.045 23.0586 127.259 24.0771 125.864 24.0771ZM133.131 25.1299C134.122 25.1299 134.895 24.6992 135.359 23.9131H135.469V25H136.658V19.9551C136.658 18.4238 135.653 17.501 133.855 17.501C132.283 17.501 131.162 18.2803 130.971 19.4355L130.964 19.4766H132.153L132.16 19.4561C132.352 18.8818 132.933 18.5537 133.814 18.5537C134.915 18.5537 135.469 19.0459 135.469 19.9551V20.625L133.356 20.7549C131.641 20.8574 130.67 21.6162 130.67 22.9287V22.9424C130.67 24.2822 131.729 25.1299 133.131 25.1299ZM131.887 22.915V22.9014C131.887 22.1699 132.379 21.7734 133.5 21.7051L135.469 21.582V22.252C135.469 23.3047 134.587 24.0977 133.377 24.0977C132.522 24.0977 131.887 23.6602 131.887 22.915ZM141.553 25.1299C142.578 25.1299 143.398 24.6445 143.85 23.8242H143.959V25H145.148V14.7051H143.959V18.793H143.85C143.446 18.0068 142.564 17.501 141.553 17.501C139.68 17.501 138.463 18.998 138.463 21.3086V21.3223C138.463 23.6191 139.687 25.1299 141.553 25.1299ZM141.826 24.0771C140.479 24.0771 139.68 23.0381 139.68 21.3223V21.3086C139.68 19.5928 140.479 18.5537 141.826 18.5537C143.166 18.5537 143.986 19.6064 143.986 21.3086V21.3223C143.986 23.0244 143.166 24.0771 141.826 24.0771ZM154.397 25.1299C156.496 25.1299 157.795 23.6807 157.795 21.3223V21.3086C157.795 18.9434 156.496 17.501 154.397 17.501C152.299 17.501 151 18.9434 151 21.3086V21.3223C151 23.6807 152.299 25.1299 154.397 25.1299ZM154.397 24.0771C153.003 24.0771 152.217 23.0586 152.217 21.3223V21.3086C152.217 19.5654 153.003 18.5537 154.397 18.5537C155.792 18.5537 156.578 19.5654 156.578 21.3086V21.3223C156.578 23.0586 155.792 24.0771 154.397 24.0771ZM159.641 25H160.83V20.6387C160.83 19.3467 161.575 18.5537 162.751 18.5537C163.927 18.5537 164.474 19.1895 164.474 20.5156V25H165.663V20.2285C165.663 18.4785 164.74 17.501 163.086 17.501C161.999 17.501 161.309 17.959 160.939 18.7383H160.83V17.6309H159.641V25ZM174.372 25.0547C174.604 25.0547 174.83 25.0273 175.062 24.9863V23.9746C174.844 23.9951 174.728 24.002 174.516 24.002C173.75 24.002 173.449 23.6533 173.449 22.7852V18.6152H175.062V17.6309H173.449V15.7236H172.219V17.6309H171.057V18.6152H172.219V23.0859C172.219 24.4941 172.854 25.0547 174.372 25.0547ZM176.908 25H178.098V20.6387C178.098 19.3467 178.843 18.5537 180.019 18.5537C181.194 18.5537 181.741 19.1895 181.741 20.5156V25H182.931V20.2285C182.931 18.4785 182.008 17.501 180.354 17.501C179.267 17.501 178.576 17.959 178.207 18.7383H178.098V14.7051H176.908V25ZM188.092 25.1299C189.828 25.1299 190.881 24.1455 191.134 23.1475L191.147 23.0928H189.958L189.931 23.1543C189.732 23.5986 189.117 24.0703 188.119 24.0703C186.807 24.0703 185.966 23.1816 185.932 21.6572H191.236V21.1924C191.236 18.9912 190.02 17.501 188.017 17.501C186.014 17.501 184.715 19.0596 184.715 21.3359V21.3428C184.715 23.6533 185.986 25.1299 188.092 25.1299ZM188.01 18.5605C189.097 18.5605 189.903 19.251 190.026 20.707H185.952C186.082 19.3057 186.916 18.5605 188.01 18.5605Z" fill="#B4B4B4"/>
<path d="M81.6836 48H83.9785L85.2578 44.1914H90.6484L91.918 48H94.2227L89.1348 33.9082H86.7715L81.6836 48ZM87.8652 36.3789H88.0312L90.0625 42.4336H85.8438L87.8652 36.3789ZM96.4297 51.5352H98.5488V46.3203H98.7051C99.2715 47.4629 100.512 48.1758 101.967 48.1758C104.662 48.1758 106.361 46.0664 106.361 42.707V42.6875C106.361 39.3477 104.643 37.209 101.967 37.209C100.482 37.209 99.3203 37.9023 98.7051 39.0645H98.5488V37.3945H96.4297V51.5352ZM101.371 46.3691C99.6035 46.3691 98.5098 44.9727 98.5098 42.707V42.6875C98.5098 40.4219 99.6035 39.0254 101.371 39.0254C103.139 39.0254 104.203 40.4023 104.203 42.6875V42.707C104.203 44.9824 103.139 46.3691 101.371 46.3691ZM108.91 51.5352H111.029V46.3203H111.186C111.752 47.4629 112.992 48.1758 114.447 48.1758C117.143 48.1758 118.842 46.0664 118.842 42.707V42.6875C118.842 39.3477 117.123 37.209 114.447 37.209C112.963 37.209 111.801 37.9023 111.186 39.0645H111.029V37.3945H108.91V51.5352ZM113.852 46.3691C112.084 46.3691 110.99 44.9727 110.99 42.707V42.6875C110.99 40.4219 112.084 39.0254 113.852 39.0254C115.619 39.0254 116.684 40.4023 116.684 42.6875V42.707C116.684 44.9824 115.619 46.3691 113.852 46.3691ZM122.787 48.1465C123.598 48.1465 124.213 47.5215 124.213 46.7305C124.213 45.9297 123.598 45.3047 122.787 45.3047C121.977 45.3047 121.352 45.9297 121.352 46.7305C121.352 47.5215 121.977 48.1465 122.787 48.1465ZM132.475 48.3418C135.756 48.3418 137.855 46.6621 137.855 43.9668V43.957C137.855 41.8672 136.645 40.6758 133.686 40.041L132.152 39.6992C130.326 39.3086 129.584 38.625 129.584 37.5801V37.5703C129.584 36.2422 130.805 35.4707 132.455 35.4707C134.164 35.4609 135.268 36.3008 135.453 37.4531L135.473 37.5801H137.592L137.582 37.4434C137.426 35.2559 135.473 33.5664 132.484 33.5664C129.496 33.5664 127.387 35.2461 127.377 37.6777V37.6875C127.377 39.7676 128.607 41.0957 131.469 41.7012L133.012 42.0332C134.877 42.4336 135.639 43.1367 135.639 44.2207V44.2305C135.639 45.5391 134.359 46.4375 132.562 46.4375C130.678 46.4375 129.32 45.6172 129.203 44.3379L129.193 44.2305H127.045L127.055 44.3574C127.25 46.7305 129.291 48.3418 132.475 48.3418ZM144.496 48.0684C144.906 48.0684 145.297 48.0195 145.639 47.9609V46.2715C145.346 46.3008 145.16 46.3105 144.838 46.3105C143.793 46.3105 143.363 45.8418 143.363 44.6992V39.0645H145.639V37.3945H143.363V34.7188H141.205V37.3945H139.545V39.0645H141.205V45.207C141.205 47.248 142.162 48.0684 144.496 48.0684ZM152.484 48.2051C155.59 48.2051 157.494 46.125 157.494 42.707V42.6875C157.494 39.2695 155.58 37.1895 152.484 37.1895C149.379 37.1895 147.465 39.2793 147.465 42.6875V42.707C147.465 46.125 149.369 48.2051 152.484 48.2051ZM152.484 46.4375C150.658 46.4375 149.633 45.0605 149.633 42.707V42.6875C149.633 40.334 150.658 38.957 152.484 38.957C154.301 38.957 155.336 40.334 155.336 42.6875V42.707C155.336 45.0508 154.301 46.4375 152.484 46.4375ZM160.023 48H162.143V41.6621C162.143 40.1289 163.246 39.1328 164.867 39.1328C165.268 39.1328 165.629 39.1816 166.01 39.2598V37.3066C165.795 37.2578 165.424 37.209 165.082 37.209C163.666 37.209 162.68 37.873 162.299 38.9961H162.143V37.3945H160.023V48ZM172.211 48.2051C174.926 48.2051 176.391 46.6426 176.742 45.2461L176.762 45.1582L174.721 45.168L174.682 45.2461C174.428 45.793 173.617 46.4668 172.26 46.4668C170.512 46.4668 169.398 45.2852 169.359 43.2539H176.879V42.5117C176.879 39.3281 175.062 37.1895 172.104 37.1895C169.145 37.1895 167.23 39.4062 167.23 42.7168V42.7266C167.23 46.0859 169.105 48.2051 172.211 48.2051ZM172.113 38.9277C173.549 38.9277 174.613 39.8457 174.779 41.7402H169.389C169.574 39.9141 170.668 38.9277 172.113 38.9277Z" fill="white"/>
</svg>
