<svg width="75" height="71" viewBox="0 0 75 71" fill="none" xmlns="http://www.w3.org/2000/svg">
<path fill-rule="evenodd" clip-rule="evenodd" d="M24 65H48V16H24V65ZM22 67H50V14H22V67Z" fill="#374D6B"/>
<path fill-rule="evenodd" clip-rule="evenodd" d="M28 22H31V19H28V22Z" fill="#374D6B"/>
<path fill-rule="evenodd" clip-rule="evenodd" d="M33 22H36V19H33V22Z" fill="#374D6B"/>
<path fill-rule="evenodd" clip-rule="evenodd" d="M38 22H41V19H38V22Z" fill="#374D6B"/>
<path fill-rule="evenodd" clip-rule="evenodd" d="M28 27H31V24H28V27Z" fill="#374D6B"/>
<path fill-rule="evenodd" clip-rule="evenodd" d="M33 27H36V24H33V27Z" fill="#374D6B"/>
<path fill-rule="evenodd" clip-rule="evenodd" d="M43 27H46V24H43V27Z" fill="#374D6B"/>
<path fill-rule="evenodd" clip-rule="evenodd" d="M28 32H31V29H28V32Z" fill="#374D6B"/>
<path fill-rule="evenodd" clip-rule="evenodd" d="M38 32H41V29H38V32Z" fill="#374D6B"/>
<path fill-rule="evenodd" clip-rule="evenodd" d="M43 32H46V29H43V32Z" fill="#374D6B"/>
<path fill-rule="evenodd" clip-rule="evenodd" d="M28 37H31V34H28V37Z" fill="#374D6B"/>
<path fill-rule="evenodd" clip-rule="evenodd" d="M33 37H36V34H33V37Z" fill="#374D6B"/>
<path fill-rule="evenodd" clip-rule="evenodd" d="M43 37H46V34H43V37Z" fill="#374D6B"/>
<path fill-rule="evenodd" clip-rule="evenodd" d="M28 42H31V39H28V42Z" fill="#374D6B"/>
<path fill-rule="evenodd" clip-rule="evenodd" d="M33 42H36V39H33V42Z" fill="#374D6B"/>
<path fill-rule="evenodd" clip-rule="evenodd" d="M38 42H41V39H38V42Z" fill="#374D6B"/>
<path fill-rule="evenodd" clip-rule="evenodd" d="M28 47H31V44H28V47Z" fill="#374D6B"/>
<path fill-rule="evenodd" clip-rule="evenodd" d="M33 47H36V44H33V47Z" fill="#374D6B"/>
<path fill-rule="evenodd" clip-rule="evenodd" d="M43 47H46V44H43V47Z" fill="#374D6B"/>
<path fill-rule="evenodd" clip-rule="evenodd" d="M28 52H31V49H28V52Z" fill="#374D6B"/>
<path fill-rule="evenodd" clip-rule="evenodd" d="M38 52H41V49H38V52Z" fill="#374D6B"/>
<path fill-rule="evenodd" clip-rule="evenodd" d="M43 52H46V49H43V52Z" fill="#374D6B"/>
<path fill-rule="evenodd" clip-rule="evenodd" d="M28 57H31V54H28V57Z" fill="#374D6B"/>
<path fill-rule="evenodd" clip-rule="evenodd" d="M33 57H36V54H33V57Z" fill="#374D6B"/>
<path fill-rule="evenodd" clip-rule="evenodd" d="M43 57H46V54H43V57Z" fill="#374D6B"/>
<path fill-rule="evenodd" clip-rule="evenodd" d="M28 62H31V59H28V62Z" fill="#374D6B"/>
<path fill-rule="evenodd" clip-rule="evenodd" d="M33 62H36V59H33V62Z" fill="#374D6B"/>
<path fill-rule="evenodd" clip-rule="evenodd" d="M38 62H41V59H38V62Z" fill="#374D6B"/>
<path fill-rule="evenodd" clip-rule="evenodd" d="M28 14H44V11H28V14ZM26 16H46V9H26V16Z" fill="#374D6B"/>
<path fill-rule="evenodd" clip-rule="evenodd" d="M32 9H40V6H32V9ZM30 11H42V4H30V11Z" fill="#374D6B"/>
<path fill-rule="evenodd" clip-rule="evenodd" d="M35 5H37V0H35V5Z" fill="#374D6B"/>
<path fill-rule="evenodd" clip-rule="evenodd" d="M53 61H55V26H53V61Z" fill="#374D6B"/>
<path fill-rule="evenodd" clip-rule="evenodd" d="M58 61H60V26H58V61Z" fill="#374D6B"/>
<path fill-rule="evenodd" clip-rule="evenodd" d="M63 61H65V26H63V61Z" fill="#374D6B"/>
<path fill-rule="evenodd" clip-rule="evenodd" d="M50 65H69V21H50V65ZM48 67H71V19H48V67Z" fill="#374D6B"/>
<path fill-rule="evenodd" clip-rule="evenodd" d="M55 19H63V16H55V19ZM53 21H65V14H53V21Z" fill="#374D6B"/>
<path fill-rule="evenodd" clip-rule="evenodd" d="M12 42H15V39H12V42Z" fill="#374D6B"/>
<path fill-rule="evenodd" clip-rule="evenodd" d="M17 42H20V39H17V42Z" fill="#374D6B"/>
<path fill-rule="evenodd" clip-rule="evenodd" d="M12 47H15V44H12V47Z" fill="#374D6B"/>
<path fill-rule="evenodd" clip-rule="evenodd" d="M17 47H20V44H17V47Z" fill="#374D6B"/>
<path fill-rule="evenodd" clip-rule="evenodd" d="M12 52H15V49H12V52Z" fill="#374D6B"/>
<path fill-rule="evenodd" clip-rule="evenodd" d="M17 52H20V49H17V52Z" fill="#374D6B"/>
<path fill-rule="evenodd" clip-rule="evenodd" d="M12 57H15V54H12V57Z" fill="#374D6B"/>
<path fill-rule="evenodd" clip-rule="evenodd" d="M17 57H20V54H17V57Z" fill="#374D6B"/>
<path fill-rule="evenodd" clip-rule="evenodd" d="M12 62H15V59H12V62Z" fill="#374D6B"/>
<path fill-rule="evenodd" clip-rule="evenodd" d="M17 62H20V59H17V62Z" fill="#374D6B"/>
<path fill-rule="evenodd" clip-rule="evenodd" d="M9 65H22V36H9V65ZM7 67H24V34H7V67Z" fill="#374D6B"/>
<path fill-rule="evenodd" clip-rule="evenodd" d="M75 71H73V67H5V71H3V65H75V71Z" fill="#374D6B"/>
<path fill-rule="evenodd" clip-rule="evenodd" d="M43 22H46V19H43V22Z" fill="#00B4D5"/>
<path fill-rule="evenodd" clip-rule="evenodd" d="M38 27H41V24H38V27Z" fill="#00B4D5"/>
<path fill-rule="evenodd" clip-rule="evenodd" d="M33 32H36V29H33V32Z" fill="#00B4D5"/>
<path fill-rule="evenodd" clip-rule="evenodd" d="M38 37H41V34H38V37Z" fill="#00B4D5"/>
<path fill-rule="evenodd" clip-rule="evenodd" d="M43 42H46V39H43V42Z" fill="#00B4D5"/>
<path fill-rule="evenodd" clip-rule="evenodd" d="M38 47H41V44H38V47Z" fill="#00B4D5"/>
<path fill-rule="evenodd" clip-rule="evenodd" d="M33 52H36V49H33V52Z" fill="#00B4D5"/>
<path fill-rule="evenodd" clip-rule="evenodd" d="M38 57H41V54H38V57Z" fill="#00B4D5"/>
<path fill-rule="evenodd" clip-rule="evenodd" d="M43 62H46V59H43V62Z" fill="#00B4D5"/>
<path fill-rule="evenodd" clip-rule="evenodd" d="M0 22H7V20H0V22Z" fill="#00B4D5"/>
<path fill-rule="evenodd" clip-rule="evenodd" d="M48 4H55V2H48V4Z" fill="#00B4D5"/>
<path fill-rule="evenodd" clip-rule="evenodd" d="M5 11H14V9H5V11Z" fill="#00B4D5"/>
<path fill-rule="evenodd" clip-rule="evenodd" d="M17 11H21V9H17V11Z" fill="#00B4D5"/>
</svg>
