<?xml version="1.0" encoding="UTF-8" standalone="no"?>
<svg width="68px" height="58px" viewBox="0 0 68 58" version="1.1" xmlns="http://www.w3.org/2000/svg" xmlns:xlink="http://www.w3.org/1999/xlink">
    <!-- Generator: Sketch 3.8.3 (29802) - http://www.bohemiancoding.com/sketch -->
    <title>Group 106</title>
    <desc>Created with Sketch.</desc>
    <defs></defs>
    <g id="All-pages" stroke="none" stroke-width="1" fill="none" fill-rule="evenodd">
        <g id="colored-icons" transform="translate(-391.000000, -340.000000)">
            <g id="Group-25" transform="translate(224.000000, 168.000000)">
                <g id="Group-106" transform="translate(167.000000, 172.000000)">
                    <path d="M2,56 L56.370757,56 L65,47.183909 L65,32.816091 L56.370757,24 L2,24 L2,56 Z M57.1238513,58 L0,58 L0,22 L57.1238513,22 L67,31.9975068 L67,48.0029974 L57.1238513,58 Z" id="Fill-287" fill="#374D6B"></path>
                    <path d="M57,38 C55.8974855,38 55,38.8976302 55,40.0003224 C55,41.1023698 55.8974855,42 57,42 C58.1025145,42 59,41.1023698 59,40.0003224 C59,38.8976302 58.1025145,38 57,38 M57,44 C54.7947908,44 53,42.2056173 53,40.0002631 C53,37.7943827 54.7947908,36 57,36 C59.2052092,36 61,37.7943827 61,40.0002631 C61,42.2056173 59.2052092,44 57,44" id="Fill-288" fill="#00B4D5"></path>
                    <path d="M6,52 L47,52 L47,28 L6,28 L6,52 Z M4,54 L49,54 L49,26 L4,26 L4,54 Z" id="Fill-289" fill="#00B4D5"></path>
                    <path d="M31,46 L23,46 C22.5012999,46 22,45.5136504 22,45 L22,35 C22,34.4863496 22.5012999,34 23,34 L31,34 L31,36 L24,36 L24,44 L31,44 L31,46 Z" id="Fill-290" fill="#00B4D5"></path>
                    <polygon id="Fill-291" fill="#00B4D5" points="22 41 28 41 28 39 22 39"></polygon>
                    <path d="M37,36 C36.1498239,36 35.7557244,36.1486989 35,36 C35.1640247,36.6915758 35,37.0514775 35,37 L35,43 C35,42.9480184 35.1640247,43.3089282 35,44 C35.7557244,43.8513011 36.1498239,44 37,44 L38,44 C38.8523778,44 39.2437252,43.8513011 40,44 C39.8376266,43.3104404 40,42.9510428 40,43 L40,37 C40,37.0484532 39.8376266,36.6900636 40,36 C39.2437252,36.1486989 38.8523778,36 38,36 L37,36 Z M38,46 L37,46 C35.6809887,46 34.762276,45.6318604 34,45 C33.381221,44.2919867 33,43.4017933 33,42 L33,38 C33,36.5986892 33.3807233,35.7094608 34,35 C34.762276,34.3686221 35.6809887,34 37,34 L38,34 C39.3214997,34 40.237724,34.3686221 41,35 C41.6177837,35.699811 42,36.5909694 42,38 L42,42 C42,43.4095131 41.617286,44.3016364 41,45 C40.237724,45.6318604 39.3214997,46 38,46 L38,46 Z" id="Fill-292" fill="#00B4D5"></path>
                    <path d="M15,46 L14,46 C12.677653,46 11.759885,45.6318604 11,45 C10.3797489,44.2939166 10,43.4032407 10,42 L12,42 C12.2396726,42.8237707 12.3864956,43.1687508 13,43 C12.9200354,43.6864621 13.2753968,43.8287966 14,44 L15,44 C15.7226124,43.8287966 16.0774761,43.6864621 16,43 C16.612509,43.1677858 16.7603274,42.8223232 17,42 C16.7603274,42.0913514 16.612509,41.7473363 16,41 C16.0774761,41.2281774 15.7221147,41.0858429 15,41 L14,41 C12.677653,41.0858429 11.759885,40.7177033 11,40 C10.3797489,39.3792771 10,38.4890837 10,38 C10,36.5967593 10.3792512,35.7080133 11,35 C11.759885,34.3681396 12.677653,34 14,34 L15,34 C16.3208538,34 17.2381242,34.3686221 18,35 C18.6197534,35.7084958 19,36.5977243 19,38 L17,38 C16.7603274,37.1771943 16.612509,36.8326967 16,37 C16.0774761,36.3135379 15.7226124,36.1712034 15,36 L14,36 C13.2753968,36.1712034 12.9200354,36.3135379 13,37 C12.3869933,36.8312492 12.2396726,37.1757469 12,38 C12.2396726,37.9096136 12.3864956,38.2541112 13,39 C12.9200354,38.7723051 13.2753968,38.9146395 14,39 L15,39 C16.3193607,38.9146395 17.2366311,39.2822967 18,40 C18.6197534,40.6226529 19,41.5118813 19,42 C19,43.4027582 18.6192557,44.2934341 18,45 C17.2381242,45.6313779 16.3208538,46 15,46" id="Fill-293" fill="#00B4D5"></path>
                    <path d="M58,37 L56,37 L56,23 C56.3692245,21.9469596 56.8393489,20.837809 58,20 C58.5459509,19.1701324 59.6808209,18.710867 61,19 L63,19 C64.0797695,18.710867 64.6439187,18.4827158 65,18 C65.4916591,17.6545566 65.7252047,17.103932 66,17 C65.7252047,15.9330522 65.4916591,15.3824275 65,15 C64.6444242,14.5542683 64.080275,14.3261171 63,14 L43,14 C41.3131129,14.3261171 40.1782428,13.8668517 39,13 C38.4701244,12.1986813 38,11.0900246 38,10 C38,8.73295606 38.4701244,7.62429929 39,7 C40.1777373,5.95563504 41.3126074,6.49587582 43,6 L54,6 C54.7248003,6.49587582 55.288444,5.26772463 56,5 C56.1361844,4.44005926 57.3692245,3.88943463 57,3 L57,0 L59,0 L59,3 C58.6440198,4.48351663 58.1738955,5.5921734 57,6 C56.4672935,7.25886231 55.3324234,7.7181277 54,8 L43,8 C41.9202305,7.7181277 41.3565868,7.9462789 41,8 C40.5083409,8.77542576 40.2747953,9.3260504 40,10 C40.2747953,10.4969302 40.5083409,11.0475549 41,11 C41.3560813,11.8757141 41.9202305,12.1038653 43,12 L63,12 C64.6884036,12.1038653 65.8232737,12.5631306 67,13 C67.5298756,14.2313011 68,15.3399578 68,17 C68,17.6970263 67.5298756,18.8056831 67,20 C65.8217572,20.4738535 64.6868871,20.9331189 63,21 L61,21 C60.288444,20.9331189 59.7248003,21.1612701 59,22 C58.8775655,21.9889355 57.6440198,22.5400539 58,23 L58,37 Z" id="Fill-294" fill="#00B4D5"></path>
                </g>
            </g>
        </g>
    </g>
</svg>