<?xml version="1.0" encoding="UTF-8" standalone="no"?>
<svg width="51px" height="72px" viewBox="0 0 51 72" version="1.1" xmlns="http://www.w3.org/2000/svg" xmlns:xlink="http://www.w3.org/1999/xlink">
    <!-- Generator: Sketch 3.8.3 (29802) - http://www.bohemiancoding.com/sketch -->
    <title>Group 3</title>
    <desc>Created with Sketch.</desc>
    <defs></defs>
    <g id="Page-1" stroke="none" stroke-width="1" fill="none" fill-rule="evenodd">
        <g id="colored-icons-2" transform="translate(-362.000000, -383.000000)">
            <g id="Group-3" transform="translate(362.000000, 383.000000)">
                <path d="M43,72 L41,72 L41,46 C40.7352793,45.0908614 40.4997484,44.5225362 40,44 C39.6467036,43.6655058 39.0825365,43.4297972 38,43 C37.8857574,43.4297972 37.3210871,43.6650011 37,44 C36.4630096,44.5240504 36.2264721,45.0913661 36,46 C36.2264721,46.3218962 35.7196779,46.8306633 35,47 C34.4685455,46.8306633 33.9617514,46.3218962 34,46 C33.9617514,45.0898519 33.7277302,44.5200125 33,44 C32.8787116,43.6650011 32.3140413,43.4297972 32,43 C31.1157524,43.4297972 30.5530951,43.6650011 30,44 C29.6955209,44.5235456 29.4594867,45.0913661 29,46 C29.4594867,46.3218962 28.9521892,46.8306633 28,47 C27.7025667,46.8306633 27.1967791,46.3239151 27,46 C27.194766,45.0853093 26.9617514,44.5169841 27,44 C26.1127328,43.6655058 25.5470559,43.4297972 25,43 C24.348767,43.4297972 22.7820835,43.6660105 22,44 C21.9290388,44.5195078 21.6945143,45.087833 22,46 C21.6945143,46.3193725 22.1877202,46.8276349 22,47 C20.9370911,46.8276349 20.4297937,46.3193725 20,46 L20,27 C20.4297937,25.9242704 20.1957725,25.3579641 20,25 C19.3452441,24.5054763 18.7800705,24.2712819 18,24 C17.5777554,24.2712819 17.0125818,24.505981 17,25 C16.1605435,25.3569547 15.9270257,25.923261 16,27 L16,58 C15.9270257,58.8028426 15.6834424,59.1970362 15,59 C14.9129341,59.5806305 14.4524409,59.5362143 14,59 C11.3276296,57.1579298 8.00956215,56.0379355 5,56 C3.27377957,56.0379355 2.26472068,57.0509272 2,58 C2.26472068,59.5417664 3.27377957,60.5547581 5,61 C10.8072471,60.5547581 15.9270257,65.6888647 16,72 L14,72 C13.662305,66.9416028 9.5586311,62.82604 5,63 C2.02516356,62.82604 0,60.7939998 0,58 C0,55.7986938 2.02516356,53.7666535 5,54 C7.77252139,53.7666535 10.8958228,54.6181319 14,56 L14,27 C13.662305,25.3135479 14.1333669,24.1753833 15,23 C15.8409663,22.4709124 16.9738299,22 18,22 C19.3860091,22 20.5203825,22.4714172 21,23 C22.2234524,24.177907 21.6945143,25.3155669 22,27 L22,42 C22.3749371,41.367978 24.1464519,41.1585153 25,41 C26.1509814,41.1585153 27.2848515,41.6299325 28,42 C28.2073478,42.5525777 28.2712632,42.6212208 28,43 C28.3955712,42.6207161 28.4604932,42.5520729 29,42 C29.3774534,41.6309419 30.5098138,41.1585153 32,41 C32.9199799,41.1585153 34.0543533,41.6309419 35,42 C34.9733266,42.555606 35.0372421,42.6237445 35,43 C35.1620533,42.622735 35.2279819,42.5530824 35,42 C36.1444389,41.6309419 37.2793156,41.1585153 38,41 C39.6874685,41.1585153 40.8193256,41.6304372 42,42 C42.5304479,43.3485358 43,44.4856909 43,46 L43,72 Z" id="Fill-82" fill="#00B4D5"></path>
                <path d="M29,34 C27.672927,34 27,34.672927 27,35 C27,36.327073 27.672927,37 29,37 C29.327073,37 30,36.327073 30,35 C30,34.672927 29.327073,34 29,34 M29,39 C26.5697897,39 25,37.4297323 25,35 C25,33.5702677 26.5697897,32 29,32 C30.4302103,32 32,33.5702677 32,35 C32,37.4297323 30.4302103,39 29,39" id="Fill-83" fill="#374D6B"></path>
                <path d="M39,34 C37.672927,34 37,34.67322 37,36 C37,36.3273114 37.672927,37 39,37 C39.327073,37 40,36.3273114 40,36 C40,34.67322 39.327073,34 39,34 M39,39 C36.5697897,39 35,37.4299467 35,36 C35,33.5700533 36.5697897,32 39,32 C40.4302103,32 42,33.5700533 42,36 C42,37.4299467 40.4302103,39 39,39" id="Fill-84" fill="#374D6B"></path>
                <path d="M29,25 C27.672927,25 27,25.672927 27,26 C27,27.327073 27.672927,28 29,28 C29.327073,28 30,27.327073 30,26 C30,25.672927 29.327073,25 29,25 M29,30 C26.5697897,30 25,28.4302103 25,26 C25,24.5702677 26.5697897,23 29,23 C30.4302103,23 32,24.5702677 32,26 C32,28.4302103 30.4302103,30 29,30" id="Fill-85" fill="#374D6B"></path>
                <path d="M39,25 C37.672927,25 37,25.67322 37,27 C37,27.3273114 37.672927,28 39,28 C39.327073,28 40,27.3273114 40,27 C40,25.67322 39.327073,25 39,25 M39,30 C36.5697897,30 35,28.4299467 35,27 C35,24.5700533 36.5697897,23 39,23 C40.4302103,23 42,24.5700533 42,27 C42,28.4299467 40.4302103,30 39,30" id="Fill-86" fill="#374D6B"></path>
                <path d="M18,16 C17.6728078,16 17,16.6726886 17,17 C17,18.32678 17.6728078,19 18,19 C19.3271922,19 20,18.32678 20,17 C20,16.6726886 19.3271922,16 18,16 M18,21 C16.5696825,21 15,19.4294688 15,17 C15,15.5700533 16.5696825,14 18,14 C20.4298395,14 22,15.5700533 22,17 C22,19.4294688 20.4298395,21 18,21" id="Fill-87" fill="#374D6B"></path>
                <path d="M29,16 C27.672927,16 27,16.6726886 27,17 C27,18.32678 27.672927,19 29,19 C29.327073,19 30,18.32678 30,17 C30,16.6726886 29.327073,16 29,16 M29,21 C26.5697897,21 25,19.4294688 25,17 C25,15.5700533 26.5697897,14 29,14 C30.4302103,14 32,15.5700533 32,17 C32,19.4294688 30.4302103,21 29,21" id="Fill-88" fill="#374D6B"></path>
                <path d="M39,16 C37.672927,16 37,16.6726886 37,17 C37,18.32678 37.672927,19 39,19 C39.327073,19 40,18.32678 40,17 C40,16.6726886 39.327073,16 39,16 M39,21 C36.5697897,21 35,19.4294688 35,17 C35,15.5700533 36.5697897,14 39,14 C40.4302103,14 42,15.5700533 42,17 C42,19.4294688 40.4302103,21 39,21" id="Fill-89" fill="#374D6B"></path>
                <path d="M8,11 L49,11 L49,2 L8,2 L8,11 Z M6,13 L51,13 L51,0 L6,0 L6,13 Z" id="Fill-90" fill="#374D6B"></path>
                <polygon id="Fill-91" fill="#374D6B" points="42 8 44 8 44 6 42 6"></polygon>
                <polygon id="Fill-92" fill="#374D6B" points="38 8 40 8 40 6 38 6"></polygon>
                <polygon id="Fill-93" fill="#374D6B" points="34 8 36 8 36 6 34 6"></polygon>
                <polygon id="Fill-94" fill="#374D6B" points="30 8 32 8 32 6 30 6"></polygon>
            </g>
        </g>
    </g>
</svg>