<?xml version="1.0" encoding="UTF-8" standalone="no"?>
<svg width="62px" height="43px" viewBox="0 0 62 43" version="1.1" xmlns="http://www.w3.org/2000/svg" xmlns:xlink="http://www.w3.org/1999/xlink">
    <!-- Generator: Sketch 3.7 (28169) - http://www.bohemiancoding.com/sketch -->
    <title>Group 55</title>
    <desc>Created with Sketch.</desc>
    <defs>
        <path d="M9,0 L9,9.49324965 C9,11.9822591 6.98022433,14 4.5,14 L4.5,14 C2.01471863,14 0,11.9941413 0,9.49324965 L0,0 L0,0" id="path-1"></path>
        <mask id="mask-2" maskContentUnits="userSpaceOnUse" maskUnits="objectBoundingBox" x="0" y="0" width="9" height="14" fill="white">
            <use xlink:href="#path-1"></use>
        </mask>
    </defs>
    <g id="Page-1" stroke="none" stroke-width="1" fill="none" fill-rule="evenodd">
        <g id="epay-web-services-cards" transform="translate(-220.000000, -3193.000000)">
            <g id="Group-73" transform="translate(220.000000, 3193.000000)">
                <g id="Group-55">
                    <path d="M49,21 C49,11.6113568 41.3886432,4 32,4 C22.6113568,4 15,11.6113568 15,21 C15,30.3886432 22.6113568,38 32,38 C41.3886432,38 49,30.3886432 49,21" id="Fill-25" fill="#D6EEF5"></path>
                    <path d="M32,5 C22.4013913,5 15,12.4023938 15,22 C15,30.5976062 22.4013913,38 32,38 C40.5986087,38 48,30.5976062 48,22 C48,12.4023938 40.5986087,5 32,5 M32,39 C21.8503923,39 14,31.1496077 14,22 C14,11.8503923 21.8503923,4 32,4 C41.1496077,4 49,11.8503923 49,22 C49,31.1496077 41.1496077,39 32,39" id="Fill-27" fill="#00B2D4"></path>
                    <path d="M43,21 C43,14.9253282 38.0754502,10 32,10 C25.9245498,10 21,14.9253282 21,21 C21,27.0746718 25.9245498,32 32,32 C38.0754502,32 43,27.0746718 43,21" id="Fill-29" fill="#D6EEF5"></path>
                    <path d="M32,11 C25.7103554,11 21,15.7105804 21,22 C21,27.2904227 25.7103554,32 32,32 C37.2896446,32 42,27.2904227 42,22 C42,15.7105804 37.2896446,11 32,11 M32,33 C25.1593565,33 20,27.8414214 20,22 C20,15.1595814 25.1593565,10 32,10 C37.8406435,10 43,15.1595814 43,22 C43,27.8414214 37.8406435,33 32,33" id="Fill-31" fill="#00B2D4"></path>
                    <path d="M57,3 L55,22 C54.9332679,22.4885593 55.2146107,23.1094473 56,23 L57,24 C57.0706174,24.427702 57.348751,24.9529914 57,26 L57,41 C57.348751,42.2030093 58.1959886,43 59,43 L60,43 C61.1527624,43 62,42.2030093 62,41 L62,25 L62,19 L62,3 C62,1.79699068 61.1527624,1 60,1 L59,1 C58.3960308,1 57.5894435,1.67321561 57,3" id="Fill-33" fill="#D6EEF5"></path>
                    <path d="M57,2 L55,21 C54.9513917,21.868372 55.1560072,22.3172624 56,23 L56,23 C57.0105384,23.618642 57.3764646,24.3000295 57,25 L57,41 C57.3764646,41.4273125 57.9924765,42 59,42 L60,42 C60.3839882,42 61,41.4273125 61,41 L61,2 C61,1.57268755 60.3839882,1 60,1 L59,1 C58.1689438,1 57.5832454,1.48311076 57,2 M60,43 L59,43 C57.4070974,43 56.3283487,41.9767175 56,41 L56,25 C56.3283487,24.6131131 56.1278733,24.2317718 56,24 L55,23 C54.2748015,22.9046237 53.9152186,22.1027003 54,21 L56,2 L56,2 C56.6020136,0.86430644 57.6287872,0 59,0 L60,0 C60.9201906,0 62,1.02328248 62,2 L62,41 C62,41.9767175 60.9201906,43 60,43" id="Fill-35" fill="#00B2D4"></path>
                    <path d="M4,42 C2.95518381,42 2,41.0851739 2,40 L2,15 C2,15.221297 2.23027675,15 3,15 C2.80132177,15 3,40 3,40 C3.03263114,40.5408228 3.5251962,41.0120669 4,41 L5,41 C5.4748038,41.0120669 5.96736886,40.5408228 6,40 L6,15 C6.76869062,15 7,15.221297 7,15 L7,40 C7,41.0851739 6.04481619,42 5,42 L4,42 Z" id="Fill-37" fill="#00B2D4"></path>
                    <path d="M4,8 L4,0 C4,0.221699864 4.224,0 5,0 C4.776,0 5,8 5,8 C4.224,8 4,7.77830014 4,8 Z" id="Fill-41" fill="#00B2D4"></path>
                    <use id="Rectangle-701" stroke="#00B1D3" mask="url(#mask-2)" stroke-width="2" xlink:href="#path-1"></use>
                </g>
            </g>
        </g>
    </g>
</svg>