<svg xmlns="http://www.w3.org/2000/svg" width="21" height="15" viewBox="0 0 21 15">
  <g fill="#00B4D5" fill-rule="evenodd">
    <path fill-rule="nonzero" d="M1.72942381,14 L19.2703762,14 C19.6676778,14 19.9999,13.6511667 19.9999,13.209 L19.9999,1.791 C19.9999,1.34883333 19.6676778,1 19.2703762,1 L1.72942381,1 C1.33212222,1 0.9999,1.34883333 0.9999,1.791 L0.9999,13.209 C0.9999,13.6511667 1.33212222,14 1.72942381,14 Z M1.72942381,15 C0.768630159,15 -0.0001,14.1928333 -0.0001,13.209 L-0.0001,1.791 C-0.0001,0.807166667 0.768630159,0 1.72942381,0 L19.2703762,0 C20.2311698,0 20.9999,0.807166667 20.9999,1.791 L20.9999,13.209 C20.9999,14.1928333 20.2311698,15 19.2703762,15 L1.72942381,15 Z"/>
    <polygon fill-rule="nonzero" points="1 5 20 5 20 4 1 4"/>
    <path d="M11.5,6 C9.567,6 8,7.567 8,9.5 C8,11.433 9.567,13 11.5,13 C13.433,13 15,11.433 15,9.5 C15,7.567 13.433,6 11.5,6 M11.5,7 C12.879,7 14,8.122 14,9.5 C14,10.878 12.879,12 11.5,12 C10.121,12 9,10.878 9,9.5 C9,8.122 10.121,7 11.5,7"/>
    <path d="M15.5,6 C13.567,6 12,7.567 12,9.5 C12,11.433 13.567,13 15.5,13 C17.433,13 19,11.433 19,9.5 C19,7.567 17.433,6 15.5,6 M15.5,7 C16.879,7 18,8.122 18,9.5 C18,10.878 16.879,12 15.5,12 C14.121,12 13,10.878 13,9.5 C13,8.122 14.121,7 15.5,7"/>
  </g>
</svg>
