<?xml version="1.0" encoding="UTF-8" standalone="no"?>
<svg width="72px" height="55px" viewBox="0 0 72 55" version="1.1" xmlns="http://www.w3.org/2000/svg" xmlns:xlink="http://www.w3.org/1999/xlink">
    <!-- Generator: Sketch 3.7 (28169) - http://www.bohemiancoding.com/sketch -->
    <title>Group</title>
    <desc>Created with Sketch.</desc>
    <defs></defs>
    <g id="Page-1" stroke="none" stroke-width="1" fill="none" fill-rule="evenodd">
        <g id="epay-service-menu" transform="translate(-1124.000000, -145.000000)">
            <g id="Group" transform="translate(1124.000000, 145.000000)">
                <polygon id="Fill-1" fill="#FFFFFF" points="52.6406159 38 51 36.3615761 57.3588686 30 59 31.6379088"></polygon>
                <polygon id="Fill-2" fill="#FFFFFF" points="20.3599124 38 14 31.6393612 15.6400876 30 22 36.3606388"></polygon>
                <polygon id="Fill-3" fill="#FFFFFF" points="35.3591858 22 29 15.638846 30.6402989 14 37 20.3606388"></polygon>
                <polygon id="Fill-12" fill="#FFFFFF" points="11.3723659 35 0 23.2943502 1.57883369 21.6693174 11.3723659 31.7499343 30.8428288 11.7061604 21.0488004 1.62452213 22.6276341 0 34 11.7061604"></polygon>
                <polygon id="Fill-15" fill="#00B4D5" points="60.626474 35 38 11.7051374 49.3720374 0 50.9509632 1.6249617 41.1578517 11.7051374 60.626474 31.7500766 70.4210741 21.6693903 72 23.294352"></polygon>
                <path d="M38.6443464,55 C37.6301492,55 36.6684703,54.598668 35.9356917,53.8701576 L34.9502309,52.8730906 L36.52677,51.2787853 L37.5057899,52.2693389 C38.1176773,52.8781009 39.1670519,52.8826103 39.7705166,52.270842 C40.0776989,51.960699 40.2446674,51.5533545 40.2446674,51.1214591 C40.2446674,50.6890627 40.0776989,50.2822192 39.7720029,49.9735794 L41.349533,48.3802762 C41.9534931,48.9915434 43.004354,48.9995601 43.6197096,48.3787731 C43.9224329,48.0731394 44.0889059,47.6683001 44.0889059,47.2379079 C44.0889059,46.8065135 43.9199556,46.3961628 43.6127733,46.0810094 L45.2007078,44.498228 C45.4955038,44.8008554 45.8953363,44.9677013 46.3253916,44.9677013 L46.326878,44.9677013 C46.7569333,44.9677013 47.1597385,44.7988513 47.4624618,44.4932176 C47.7627077,44.1895882 47.9276944,43.7837468 47.9276944,43.3493462 C47.9276944,42.9144446 47.7627077,42.5081022 47.4624618,42.2044727 L49.0399918,40.6106685 C49.3397423,40.9142979 49.7415566,41.0816449 50.1711165,41.0816449 L50.1716119,41.0816449 C50.6006763,41.0816449 51.0010043,40.9142979 51.3007548,40.6111695 C51.604469,40.3035317 51.770942,39.8956862 51.7704465,39.4607846 C51.770942,39.0248809 51.6069462,38.6225467 51.3081866,38.3254308 L44.438202,31.3740193 C43.193618,32.300941 41.6943699,32.8014787 40.1193172,32.8019797 L40.1188217,32.8019797 C38.2861322,32.8019797 36.5574883,32.1245753 35.2108405,30.8870097 L31.543975,34.5946963 C30.8146647,35.3302212 29.8529857,35.7340584 28.8348248,35.7340584 C28.8333385,35.7345595 28.8318521,35.7345595 28.8298703,35.7340584 C27.8122049,35.7340584 26.8505259,35.3302212 26.122702,34.5967005 C25.3988416,33.8681902 25,32.896175 25,31.8605279 C25,30.8354027 25.3958689,29.8633875 26.1142792,29.1233533 L41.0666279,14 L42.6426716,15.5943053 L27.6982501,30.7096419 C27.3984996,31.0187828 27.2295493,31.4301356 27.2295493,31.8605279 C27.2295493,32.2919223 27.3950314,32.6962605 27.6962683,32.999389 C28.0034507,33.3090309 28.4062559,33.4793841 28.8313567,33.4793841 L28.8333385,33.4793841 C29.2589347,33.4793841 29.6617399,33.3090309 29.9689223,32.999389 L35.2053905,27.7039105 L36.5292473,29.0431871 C37.4874581,30.0126971 38.7622648,30.5473054 40.1193172,30.5473054 C41.4753786,30.5473054 42.7506809,30.0126971 43.7093871,29.042185 L44.4981521,28.2445313 L52.8782848,36.724612 C53.6006588,37.4426005 54.0014822,38.4166198 53.9999959,39.4607846 C54.0014822,40.4959306 53.6026406,41.471453 52.8782848,42.2039716 C52.1583881,42.9339851 51.1972046,43.3363192 50.1721074,43.3363192 C50.1691347,43.3358182 50.1621983,43.3363192 50.1572437,43.3363192 L50.1572437,43.3493462 C50.1572437,44.3869974 49.7603839,45.3595136 49.0390009,46.0875229 C48.3161314,46.8185384 47.3529661,47.2223757 46.3273734,47.2223757 C46.3219234,47.2218746 46.3209325,47.2223757 46.3184552,47.2223757 L46.3184552,47.2379079 C46.3184552,48.2710497 45.9196136,49.2430649 45.1952578,49.9745814 C44.4689202,50.7081022 43.5072413,51.1119394 42.487594,51.1119394 L42.4742167,51.1119394 L42.4742167,51.1214591 C42.4752076,52.1541 42.0753751,53.1291213 41.3480466,53.8636441 C40.627159,54.5956617 39.6664709,55 38.6443464,55" id="Fill-17" fill="#FFFFFF"></path>
                <polygon id="Fill-19" fill="#00B4D5" points="60.5002357 28 59 26.5 60.5002357 25 62 26.5"></polygon>
                <polygon id="Fill-21" fill="#FFFFFF" points="11.5 28 10 26.5 11.5 25 13 26.5"></polygon>
                <path d="M21.605686,36.5547453 L21.5797281,36.5814286 C21.2058096,36.9549955 21,37.4557737 21,37.9906818 C21,38.5293131 21.2082818,39.0369173 21.5871446,39.4222745 C21.9573548,39.7914976 22.4616811,40 22.9975278,40 L22.999382,40 C23.5284302,40 24.025958,39.7970824 24.4017305,39.4272388 L24.4103832,39.4191718 C24.7904821,39.033194 25,38.5255898 25,37.9900612 C25,37.4532915 24.7935723,36.9512723 24.4184178,36.5777054 C23.6551298,35.815058 22.3800989,35.8076115 21.605686,36.5547453 M22.9994829,42 L22.9994829,42 L22.9968976,42 C21.9312306,42 20.9276112,41.5864564 20.1706308,40.835358 C19.4126163,40.0682347 19,39.0643577 19,38 C19,36.952184 19.3991727,35.9679504 20.1266805,35.2215043 L20.1752844,35.1713621 C20.9374354,34.4161282 21.9410548,34.0005169 23.0015512,34 C24.0630817,34 25.0667011,34.4166451 25.8267839,35.1729129 C26.5832472,35.9234944 27,36.9278883 27,37.9994831 C27,39.040579 26.6028956,40.0248126 25.8795243,40.7784957 L25.8267839,40.8327733 C25.0718718,41.5854226 24.0677353,42 22.9994829,42" id="Fill-4" fill="#00B4D5"></path>
                <path d="M24.6218395,40.5435357 L24.5879099,40.5778155 C24.2085146,40.9598793 23.9993845,41.4653502 24.0000014,42.0007381 C24.0006183,42.5379957 24.2085146,43.0428434 24.5854422,43.4211675 C25.3288103,44.1828019 26.6175205,44.1840485 27.3547195,43.4766385 L27.4108577,43.4192977 C27.790253,43.0353642 28,42.5305165 28,41.9976217 C28,41.4647269 27.790253,40.9586327 27.4096239,40.5734526 C26.6773601,39.8211673 25.3719935,39.8068321 24.6218395,40.5435357 M25.995867,46 C24.9196593,46 23.9157844,45.5816148 23.168174,44.8219019 C22.4195303,44.078221 22.0010338,43.0738897 22.0000005,42.0033616 C21.9994838,40.9581744 22.3988638,39.9740125 23.1258077,39.2230913 L23.1717907,39.1765466 C23.9219844,38.417868 24.9258593,38 25.9969003,38 C27.0782745,38 28.0852494,38.4189023 28.8318265,39.1791325 C29.5830535,39.9321223 30,40.9354192 30,41.9987071 C30,43.0211391 29.6145699,43.9872002 28.9124258,44.7345013 L28.8287265,44.822419 C28.0805994,45.5816148 27.0746579,46 25.995867,46" id="Fill-6" fill="#00B4D5"></path>
                <path d="M28.6183336,44.5286292 L28.5880352,44.5604824 C28.2083784,44.9489661 28,45.4611151 28,46.0019944 C28,46.5409999 28.2059051,47.0462786 28.5806152,47.4247692 C29.3454939,48.1911189 30.6458494,48.1936172 31.4175298,47.4210217 C31.7934766,47.0425312 32,46.5378771 32,45.9988715 C32,45.4592414 31.7897666,44.9458433 31.4088731,44.5536121 C30.6841861,43.8253613 29.3597156,43.814119 28.6183336,44.5286292 M29.9981899,50 L29.9976728,50 C28.9369707,50 27.9331566,49.5842544 27.1708578,48.8287764 C26.414765,48.0727813 26,47.0696141 26,46.0018098 C26,44.9784759 26.3821837,44.0099541 27.0788028,43.2611984 L27.1703407,43.1645013 C27.9212619,42.4131601 28.9261103,42 29.9992243,42 C31.0718211,42 32.075118,42.412643 32.8291422,43.1624329 C33.5873036,43.934458 34,44.9391765 34,45.9997415 C33.9994828,47.0696141 33.5842007,48.0722642 32.8301765,48.8236055 C32.0627061,49.5842544 31.058892,50 29.9981899,50" id="Fill-8" fill="#00B4D5"></path>
                <path d="M34.0015447,48 C33.4736512,48 32.9723378,48.2084168 32.5921803,48.5870202 C32.2076958,48.9668568 32,49.4657006 32,49.9990751 C32,50.534916 32.2083139,51.0362263 32.5853807,51.4092801 C32.9673926,51.7903499 33.468706,51.9987668 33.9990721,52 C34.524493,51.9993834 35.0307515,51.7866502 35.4257444,51.4006474 C35.7953935,51.0368429 36.0006167,50.5392323 35.9999986,50.0033914 C35.9993805,49.4583012 35.7947754,48.9582241 35.4232719,48.593803 C35.0344604,48.2090335 34.5312926,48 34.0015447,48 M33.9981899,54 L33.9966386,54 C32.9324541,53.9984503 31.929804,53.5821011 31.1743261,52.8274036 C30.4188481,52.0789049 30.0005171,51.0731581 30,49.9997417 C30,48.9273584 30.418331,47.9231614 31.1779458,47.1710467 C31.9370434,46.4158326 32.9386593,46 34.0007754,46 C35.0634087,46 36.0660587,46.4147995 36.8256734,47.1679473 C37.5806343,47.9086976 37.9994824,48.9165106 37.9999995,50.0012914 C38.0005166,51.0778072 37.5832198,52.0825208 36.8241221,52.8310196 C36.0536484,53.5857171 35.0504812,54 33.9981899,54" id="Fill-10" fill="#00B4D5"></path>
            </g>
        </g>
    </g>
</svg>