<?xml version="1.0" encoding="UTF-8" standalone="no"?>
<svg width="35px" height="34px" viewBox="0 0 35 34" version="1.1" xmlns="http://www.w3.org/2000/svg" xmlns:xlink="http://www.w3.org/1999/xlink">
    <!-- Generator: Sketch 3.7 (28169) - http://www.bohemiancoding.com/sketch -->
    <title>Group 30</title>
    <desc>Created with Sketch.</desc>
    <defs>
        <rect id="path-1" x="0" y="11" width="12" height="23" rx="3"></rect>
        <mask id="mask-2" maskContentUnits="userSpaceOnUse" maskUnits="objectBoundingBox" x="0" y="0" width="12" height="23" fill="white">
            <use xlink:href="#path-1"></use>
        </mask>
        <path d="M10,13.4418605 C14.3147246,13.4418605 17.8125,9.8573462 17.8125,5.44794149 L17.8125,3.99660757 C17.8125,1.78934216 19.6048453,0 21.8102953,0 L21.6272047,0 C23.8351261,0 25.625,1.78847312 25.625,3.99887752 L25.625,9.86191064 C25.625,10.9656818 26.5239144,11.8604651 27.6246737,11.8604651 L29.0095901,11.8604651 C32.3180022,11.8604651 35,14.5530727 35,17.8517421 L35,28.008723 C35,31.3176139 32.3236078,34 29.0017387,34 L16.6907311,34 C15.5843771,34 14.1931152,33.2494549 13.5853505,32.3267833 L14.2271495,33.3011237 C13.6184491,32.3770316 12.2378594,31.627907 11.1281967,31.627907 L10,31.627907 L10,13.4418605 L10,13.4418605 Z" id="path-3"></path>
        <mask id="mask-4" maskContentUnits="userSpaceOnUse" maskUnits="objectBoundingBox" x="0" y="0" width="25" height="34" fill="white">
            <use xlink:href="#path-3"></use>
        </mask>
    </defs>
    <g id="Page-1" stroke="none" stroke-width="1" fill="none" fill-rule="evenodd">
        <g id="epay-web-services-cards" transform="translate(-787.000000, -1509.000000)" stroke-width="4" stroke="#78C425">
            <g id="Group-47" transform="translate(537.000000, 1505.000000)">
                <g id="Group-38">
                    <g id="Group-31" transform="translate(250.000000, 4.000000)">
                        <g id="Group-30">
                            <use id="Rectangle-476" mask="url(#mask-2)" xlink:href="#path-1"></use>
                            <use id="Path-1184" mask="url(#mask-4)" xlink:href="#path-3"></use>
                        </g>
                    </g>
                </g>
            </g>
        </g>
    </g>
</svg>