<?xml version="1.0" encoding="UTF-8" standalone="no"?>
<svg width="55px" height="69px" viewBox="0 0 55 69" version="1.1" xmlns="http://www.w3.org/2000/svg" xmlns:xlink="http://www.w3.org/1999/xlink">
    <!-- Generator: Sketch 3.8.3 (29802) - http://www.bohemiancoding.com/sketch -->
    <title>Group 13</title>
    <desc>Created with Sketch.</desc>
    <defs></defs>
    <g id="Page-1" stroke="none" stroke-width="1" fill="none" fill-rule="evenodd">
        <g id="colored-icons-2" transform="translate(-938.000000, -167.000000)">
            <g id="Group-13" transform="translate(938.000000, 167.000000)">
                <path d="M50,69 L47,50 L52,32 C52.3511872,29.7573029 52.7569331,27.2999651 53,25 C52.7569331,12.370422 42.7025104,2.25627834 30,2 C17.9839134,2.25627834 7.92799529,12.370422 8,25 L8,28 L3,42 L9,42 L10,57 L22,56 L23,69 L21,69 L20,58 L8,59 L7,44 L0,44 L6,27 L6,25 C5.6849284,11.1259592 16.7467374,0 30,0 C43.939188,0 55,11.1259592 55,25 C55,27.5496599 54.5533805,30.2526814 54,33 L49,50 L52,69 L50,69 Z" id="Fill-41" fill="#374D6B"></path>
                <path d="M22,11 C20.8735725,11.4344785 19.7087481,11.9117385 19,13 C17.3690229,14.2243072 17.0546412,16.4815776 18,18 C18.2370992,18.5664764 18.2587634,18.9266632 18,19 C17.9927481,19.5608511 17.7201832,19.8004774 17,20 C15.3925496,20.4511053 14,22.266985 14,24 C14,26.8467878 16.0863053,28.9092683 19,29 L31,29 C33.2029771,28.9092683 35.3331145,30.139782 37,32 C37.8073588,30.139782 39.9359847,28.9092683 42,29 C43.5891603,28.9092683 44.7575115,28.4305138 46,28 C46.5168397,26.6953399 47,25.5400519 47,24 C47,22.266985 45.6079542,20.4511053 44,20 C43.2798168,19.8004774 43.0072519,19.5608511 43,19 C42.7412366,18.9266632 42.7629008,18.5664764 43,18 C43.9468702,16.4790867 43.6329924,14.2228127 42,13 C41.2912519,11.9117385 40.1269313,11.4344785 39,11 C38.0925191,11.4344785 37.3060611,11.6357447 37,12 C36.3115267,12.1852413 35.947771,12.2066632 36,12 C35.3074198,11.943124 35.0655878,11.6731085 35,11 C34.4096183,9.37498703 32.5711908,8 31,8 C28.429313,8 26.5908855,9.37498703 26,11 C25.934916,11.6731085 25.6925802,11.943124 25,12 C25.0527328,12.2066632 24.6884733,12.1852413 24,12 C23.6944427,11.6357447 22.9079847,11.4344785 22,11 M35,36 C35.3671141,33.3569416 33.3110067,31.3018575 31,31 L19,31 C15.0593289,31.3018575 12,28.2445476 12,24 C12,21.883715 13.5048322,19.5302962 16,18 C14.973906,15.9835388 15.5753423,13.2563331 17,11 C18.7037047,10.130024 20.413651,9.42216173 22,9 C22.9703758,9.42216173 23.7039195,9.54228983 24,10 C25.5365369,7.50259408 27.8931141,6 31,6 C33.1068859,6 35.4639597,7.50259408 37,10 C37.2965772,9.54228983 38.0301208,9.42216173 39,9 C40.586349,9.42216173 42.2957987,10.130024 44,11 C45.4266443,13.2538511 46.0285772,15.9815532 45,18 C47.4956644,19.5307926 49,21.883715 49,24 C49,26.3081025 48.2912886,28.0196797 47,29 C45.7097315,30.5934988 43.997302,31.3018575 42,31 C39.6561342,31.3018575 36.6020134,33.3569416 37,36 C36.6020134,36.4996317 37.101396,37 36,37 C35.8677315,37 35.3671141,36.4996317 35,36 Z" id="Fill-42" fill="#00B4D5"></path>
                <polygon id="Fill-43" fill="#00B4D5" points="35 68 37 68 37 36 35 36"></polygon>
                <polygon id="Fill-44" fill="#00B4D5" points="26 23 28 23 28 21 26 21"></polygon>
                <polygon id="Fill-45" fill="#00B4D5" points="30 23 32 23 32 21 30 21"></polygon>
                <polygon id="Fill-46" fill="#00B4D5" points="34 23 36 23 36 21 34 21"></polygon>
            </g>
        </g>
    </g>
</svg>