<svg xmlns="http://www.w3.org/2000/svg" width="60" height="67" viewBox="0 0 60 67">
  <g fill="none" fill-rule="evenodd">
    <path fill="#374D6B" d="M29.9975,64 C13.4572,64 0,50.6263 0,34.1881 C0,26.6914 2.81824,19.5238 7.93545,14.0045 L9.609,15.5363 C4.87958,20.6371 2.27522,27.2606 2.27522,34.1881 C2.27522,49.3794 14.7116,61.7392 29.9975,61.7392 C45.2864,61.7392 57.7248,49.3794 57.7248,34.1881 C57.7248,27.2571 55.1199,20.6316 50.3915,15.5313 L52.0645,14 C57.1818,19.5183 60,26.6879 60,34.1881 C60,50.6263 46.5408,64 29.9975,64 Z"/>
    <polygon fill="#00B4D5" points="49.861 40 46.5 36.675 43.139 40 41.786 38.663 46.5 34 51.214 38.663"/>
    <polygon fill="#374D6B" points="18 8 41 8 41 6 18 6"/>
    <polygon fill="#374D6B" points="29.253 22 13 2.409 14.747 1 31 20.591"/>
    <path fill="#374D6B" d="M29.9997,19.1786 L41.9657,27.4437 L47,6.56006 L45.7583,2 L14.2417,2 L13,6.56006 L18.0146,27.4437 L29.9997,19.1786 Z M16.8129,31 L11,6.78809 L12.8055,0 L47.1945,0 L49,6.78809 L43.1866,31 L29.9997,22.1826 L16.8129,31 Z"/>
    <polygon fill="#374D6B" points="30.747 22 29 20.591 45.253 1 47 2.409"/>
    <polygon fill="#00B4D5" points="33.251 34 27.75 34 24 25.883 26.072 25 29.224 31.822 31.777 31.822 34.928 25 37 25.883"/>
    <polygon fill="#00B4D5" points="21.137 67 19 66.449 27.685 32 33.316 32 42 66.449 39.862 67 31.602 34.231 29.398 34.231"/>
  </g>
</svg>
