<svg xmlns="http://www.w3.org/2000/svg" width="44" height="44" viewBox="0 0 44 44">
  <g fill="none" fill-rule="evenodd" stroke="#FFFFFF" stroke-width="2" transform="translate(1 1)" stroke-linecap="round" stroke-linejoin="round">
    <path d="M42,21 C42,32.597484 32.5982462,42 20.9995089,42 C9.40175377,42 0,32.597484 0,21 C0,9.40251602 9.40175377,0 20.9995089,0 C32.5982462,0 42,9.40251602 42,21 Z"/>
    <path d="M32 21C32 32.597484 27.0747925 42 20.9994956 42 14.9241987 42 10 32.597484 10 21 10 9.40251602 14.9241987 0 20.9994956 0 27.0747925 0 32 9.40251602 32 21zM21 0L21 42"/>
    <path d="M20.5 9C31.8213534 9 41 13.9252075 41 20.0005044 41 26.0758013 31.8213534 31 20.5 31 9.17864659 31 0 26.0758013 0 20.0005044 0 13.9252075 9.17864659 9 20.5 9zM0 20L40 20"/>
  </g>
</svg>
