<?xml version="1.0" encoding="UTF-8" standalone="no"?>
<svg width="57px" height="71px" viewBox="0 0 57 71" version="1.1" xmlns="http://www.w3.org/2000/svg" xmlns:xlink="http://www.w3.org/1999/xlink">
    <!-- Generator: Sketch 3.8.3 (29802) - http://www.bohemiancoding.com/sketch -->
    <title>Group 11</title>
    <desc>Created with Sketch.</desc>
    <defs></defs>
    <g id="Page-1" stroke="none" stroke-width="1" fill="none" fill-rule="evenodd">
        <g id="colored-icons-2" transform="translate(-359.000000, -165.000000)">
            <g id="Group-11" transform="translate(359.000000, 165.000000)">
                <polygon id="Fill-11" fill="#374D6B" points="36 67 38 67 38 58 36 58"></polygon>
                <polygon id="Fill-12" fill="#374D6B" points="19 67 21 67 21 58 19 58"></polygon>
                <polygon id="Fill-13" fill="#374D6B" points="17 59 40 59 40 57 17 57"></polygon>
                <polygon id="Fill-14" fill="#374D6B" points="17 63 40 63 40 61 17 61"></polygon>
                <polygon id="Fill-15" fill="#374D6B" points="17 67 40 67 40 65 17 65"></polygon>
                <polygon id="Fill-16" fill="#374D6B" points="24 71 33 71 33 69 24 69"></polygon>
                <path d="M21.3170732,57 L36.6829268,57 C36.8377163,52.3031403 38.9837241,47.8647676 42.8292683,44.75 C42.7452544,44.4841639 42.9659486,44.2890316 42.8292683,43.7291667 C47.5027248,40.1983492 50,34.6023604 50,28.4166667 C50,17.3247895 40.5797886,8 29.5121951,8 C17.4207235,8 8,17.3247895 8,28.4166667 C8,34.6038809 10.4962511,40.1993628 15.1707317,43.7291667 C14.9807981,44.2459505 15.1533594,44.3949606 15.1707317,44.75 L15.1707317,44.75 C19.0173,47.8723701 21.1597235,52.3122634 21.3170732,57 L21.3170732,57 Z M39,59 L19,59 L19,58 C19.3199521,53.4546547 17.4273535,49.2082553 14,46 C8.73352889,41.357908 6,35.2142452 6,29 C6,16.2396052 16.3175681,6 29,6 C41.6824319,6 52,16.2396052 52,29 C52,35.2127406 49.2654604,41.3569049 44,46 C40.5736572,49.2017355 38.6770157,53.4471319 39,58 L39,59 Z" id="Fill-17" fill="#374D6B"></path>
                <path d="M29,14 C21.2800721,14 15,20.2804116 15,28 C15,35.7195884 21.2800721,42 29,42 C36.7194234,42 43,35.7195884 43,28 C43,20.2804116 36.7194234,14 29,14 M29,44 C20.1769302,44 13,36.8227359 13,28 C13,19.1777602 20.1769302,12 29,12 C37.8220775,12 45,19.1777602 45,28 C45,36.8227359 37.8220775,44 29,44" id="Fill-18" fill="#00B4D5"></path>
                <path d="M30,35 L28,35 C26.9701546,35 25.9571583,34.6102072 25,34 C24.4145477,33.1599274 24,32.2097773 24,31 L26,31 C26.3116043,31.6417108 26.4929368,32.0541492 27,32 C27.1391586,32.6617249 27.5778497,32.8318076 28,33 L30,33 C30.4298557,32.8318076 30.8726563,32.6602795 31,32 C31.5137412,32.0652311 31.6883957,31.6542382 32,31 C31.6883957,30.7604611 31.5163097,30.3523591 31,30 C30.8716289,29.7553834 30.430883,29.5838553 30,30 L28,30 C26.9639903,29.5838553 25.9489392,29.1902079 25,28 C24.4160888,27.7505281 24,26.7989326 24,26 C24,24.7882955 24.4150614,23.839109 25,23 C25.9545898,22.3912383 26.9680999,22 28,22 L30,22 C31.035496,22 32.0495197,22.389311 33,23 C33.5885344,23.8207998 34,24.7714317 34,26 L32,26 C31.6883957,25.4753716 31.6031232,25.0210148 31,25 C30.8721426,24.3397205 30.4298557,24.1681924 30,24 L28,24 C27.5778497,24.1681924 27.1396723,24.3382751 27,25 C26.4924231,24.9468144 26.3116043,25.3582892 26,26 C26.3116043,26.2246025 26.490882,26.6346318 27,27 C27.1412133,27.2450984 27.5778497,27.4156629 28,27 L30,27 C31.0401192,27.4156629 32.055684,27.8069012 33,29 C33.585966,29.2258626 34,30.1798673 34,31 C34,32.2271228 33.5890481,33.1787184 33,34 C32.0464376,34.6121345 31.0329275,35 30,35" id="Fill-19" fill="#00B4D5"></path>
                <polygon id="Fill-20" fill="#00B4D5" points="28 23 30 23 30 20 28 20"></polygon>
                <polygon id="Fill-21" fill="#00B4D5" points="28 37 30 37 30 34 28 34"></polygon>
                <path d="M32,2 C31.1898368,1.92891093 30.5928527,1.88138045 30,2 L30,0 C30.7147284,0.0247985121 31.3637678,0.0764620789 32,0 L32,2 Z M25,2 L25,0 C25.6320988,0.0827501029 26.2781893,0.0284067517 27,0 L27,2 C26.408642,1.87690408 25.8131687,1.92713051 25,2 L25,2 Z M36,4 C35.5439883,3.77722772 34.7703446,3.58305831 34,3 L35,1 C35.3383431,1.17271727 36.1796188,1.38393839 37,2 L36,4 Z M21,4 L20,2 C20.8170843,1.38913282 21.6555698,1.17618002 22,1 L23,3 C22.2306567,3.57903403 21.4591183,3.77497256 21,4 L21,4 Z M40,5 C39.3495949,4.68141145 38.6755571,4.3871349 38,4 L39,2 C39.5592505,2.28515955 40.2910196,2.6052676 41,3 L40,5 Z M17,5 L16,3 C16.7055846,2.60931174 17.4349587,2.28744939 18,2 L19,4 C18.325291,4.38461538 17.6541252,4.68066802 17,5 L17,5 Z M44,7 C43.1794666,6.59932498 42.5933483,6.21745419 42,6 L43,4 C43.7516067,4.38235294 44.3888175,4.79749277 45,5 L44,7 Z M13,7 L12,5 C12.6099245,4.8007066 13.2444195,4.38445479 14,4 L15,6 C14.4093464,6.21326481 13.8254376,6.59723784 13,7 L13,7 Z M47,10 C46.0220299,9.52226593 45.5164437,9.05963808 45,9 L46,7 C46.9302911,7.47254131 47.4783635,7.97482297 48,8 L47,10 Z M10,10 L8,9 C8.51880409,7.98001574 9.0649882,7.47537372 10,7 L11,9 C10.4854445,9.05586153 9.98269079,9.52084972 10,10 L10,10 Z M49,13 C48.8661704,12.4469433 48.4409249,11.9038644 48,11 L50,10 C50.1057966,10.561134 50.5676275,11.1503009 51,12 L49,13 Z M7,13 L5,12 C5.42918251,11.1563688 5.88878327,10.5651141 6,10 L8,11 C7.55988593,11.9011407 7.13640684,12.4458175 7,13 L7,13 Z M52,17 C51.7032787,16.3676446 51.3619672,15.7421734 51,15 L53,14 C53.2903279,14.6544829 53.6616393,15.3340436 54,16 L52,17 Z M5,17 L3,16 C3.33568499,15.3413154 3.70484003,14.6588486 4,14 L6,15 C5.63921247,15.73938 5.29909762,16.3672298 5,17 L5,17 Z M54,21 C53.5233351,20.2805454 53.2747771,19.5616151 53,19 L55,18 C55.494494,18.7577347 55.765076,19.5390666 56,20 L54,21 Z M3,21 L1,20 C1.23214286,19.5451523 1.50052521,18.7618131 2,18 L4,19 C3.72636555,19.5582779 3.48004202,20.279139 3,21 L3,21 Z M54,25 C54.3109438,24.1757669 54.1713955,23.3474822 54,23 L57,22 C56.7348002,22.8780629 56.8865084,23.777542 57,25 L54,25 Z M3,26 L0,26 C0.109713622,24.7871105 0.258320433,23.8842655 0,23 L3,24 C2.83049536,24.345268 2.69349845,25.1761177 3,26 L3,26 Z M57,29 L55,29 C55.0162602,28.6300224 55.0224127,28.334693 55,28 C55.0224127,27.7481134 55.0166996,27.4564552 55,27 L55,27 L57,27 L57,27 C56.993408,27.4070977 57,27.7236386 57,28 C57,28.3599837 56.9929686,28.6810116 57,29 L57,29 Z M0,29 L0,29 C0.00704225352,28.6207781 0,28.2890124 0,28 C0,27.6378794 0.00660211268,27.3180847 0,27 L2,27 C1.98679577,27.368106 1.9806338,27.6631039 2,28 C1.9806338,28.2633604 1.98723592,28.5690466 2,29 L0,29 Z M57,35 L54,34 C54.1710145,33.6504348 54.3089855,32.8208696 54,32 L57,32 C56.8886957,33.213913 56.7391304,34.1153623 57,35 L57,35 Z M0,35 C0.262079629,34.1205797 0.111905682,33.2197101 0,32 L3,32 C2.69211442,32.826087 2.8301121,33.6556522 3,34 L0,35 Z M2,39 C1.50148783,38.2383202 1.23262734,37.456168 1,37 L3,36 C3.47855768,36.719685 3.72641344,37.4393701 4,38 L2,39 Z M55,39 L53,38 C53.2733951,37.4423279 53.5216022,36.722999 54,36 L56,37 C55.7654364,37.4606781 55.4957145,38.2429221 55,39 L55,39 Z M4,43 C3.70620079,42.3420276 3.33612205,41.6604331 3,41 L5,40 C5.29773622,40.6309055 5.6382874,41.257874 6,42 L4,43 Z M53,43 L51,42 C51.3615347,41.2602852 51.7019183,40.6333388 52,40 L54,41 C53.6625676,41.6634978 53.292179,42.344042 53,43 L53,43 Z M6,47 C5.89082554,46.4358365 5.43020124,45.8455323 5,45 L7,44 C7.13484392,44.5522814 7.55934083,45.0960076 8,46 L6,47 Z M51,47 L49,46 C49.4420152,45.0952305 49.8664449,44.5514182 50,44 L52,45 C51.5712928,45.8443987 51.1107414,46.4347964 51,47 L51,47 Z M10,50 C9.0694051,49.5279308 8.52219075,49.024705 8,49 L10,47 C9.9815864,47.4800944 10.4863078,47.9436664 11,48 L10,50 Z M46,50 L45,48 C45.5154996,47.9425739 46.0191975,47.4790749 46,47 L48,49 C47.4797797,49.0224984 46.9321794,49.5261171 46,50 L46,50 Z" id="Fill-22" fill="#00B4D5"></path>
            </g>
        </g>
    </g>
</svg>