<?xml version="1.0" encoding="UTF-8" standalone="no"?>
<svg width="73px" height="43px" viewBox="0 0 73 43" version="1.1" xmlns="http://www.w3.org/2000/svg" xmlns:xlink="http://www.w3.org/1999/xlink">
    <!-- Generator: Sketch 3.7 (28169) - http://www.bohemiancoding.com/sketch -->
    <title>Group 75</title>
    <desc>Created with Sketch.</desc>
    <defs></defs>
    <g id="Page-1" stroke="none" stroke-width="1" fill="none" fill-rule="evenodd">
        <g id="epay-web-services-cards" transform="translate(-767.000000, -4791.000000)">
            <g id="Group-75" transform="translate(767.000000, 4791.000000)">
                <polygon id="Fill-1" fill="#374D6B" points="0 0 0 27 18 27 18 25 2 25 2 2 71 2 71 25 55 25 55 27 73 27 73 0"></polygon>
                <polygon id="Fill-2" fill="#374D6B" points="68 22 55 22 55 20 66 20 66 7 7 7 7 20 18 20 18 22 5 22 5 5 68 5"></polygon>
                <polygon id="Fill-3" fill="#00B4D5" points="48 42 50 42 50 13 48 13"></polygon>
                <polygon id="Fill-4" fill="#00B4D5" points="38 42 40 42 40 13 38 13"></polygon>
                <g id="Group-11" transform="translate(11.000000, 12.000000)" fill="#00B4D5">
                    <path d="M41,31 L10,31 C8.81303869,31.0193452 7.8241189,30.5952381 7,30 C6.39857223,29.1840278 6,28.2311508 6,27 L6,1 L8,1 L8,27 C8.25323498,27.6289683 8.41346502,28.0173611 9,28 C9.00130899,28.5992063 9.39988123,28.7638889 10,29 L10,29 L41,29 C41.5905976,28.7678571 41.9871669,28.6036706 42,28 C42.5845246,28.0138889 42.7472582,27.6240079 43,27 L43,1 L45,1 L45,27 C45.0019953,28.218254 44.6044246,29.1701389 44,30 C43.1513383,30.6051587 42.1904588,31 41,31 L41,31 Z" id="Fill-5"></path>
                    <polygon id="Fill-7" points="11 12 13 12 13 4 11 4"></polygon>
                    <polygon id="Fill-9" points="11 24 13 24 13 16 11 16"></polygon>
                    <polygon id="Fill-10" points="0 2 51 2 51 0 0 0"></polygon>
                </g>
            </g>
        </g>
    </g>
</svg>