<?xml version="1.0" encoding="UTF-8" standalone="no"?>
<svg width="57px" height="67px" viewBox="0 0 57 67" version="1.1" xmlns="http://www.w3.org/2000/svg" xmlns:xlink="http://www.w3.org/1999/xlink">
    <!-- Generator: Sketch 3.8.3 (29802) - http://www.bohemiancoding.com/sketch -->
    <title>Group 84</title>
    <desc>Created with Sketch.</desc>
    <defs></defs>
    <g id="All-pages" stroke="none" stroke-width="1" fill="none" fill-rule="evenodd">
        <g id="activate-help-tab2" transform="translate(-489.000000, -313.000000)">
            <g id="Group-87" transform="translate(125.000000, 102.000000)">
                <g id="Group-84" transform="translate(364.000000, 211.000000)">
                    <g id="Group-49" transform="translate(0.000000, 28.000000)">
                        <path d="M9,24 L25,24 L25,20 L9,20 L9,24 Z M7,26 L27,26 L27,18 L7,18 L7,26 Z" id="Fill-4" fill="#00B4D5"></path>
                        <path d="M44,24 L48,24 L48,20 L44,20 L44,24 Z M42,26 L50,26 L50,18 L42,18 L42,26 Z" id="Fill-6" fill="#00B4D5"></path>
                        <path d="M2.46544673,36.5450628 C2.16979816,36.2461184 2,35.8338159 2,35.4139896 L2.00099881,15 L55,15 L54.9980024,35.4185039 C55,35.8348191 54.8317001,36.2426073 54.5315568,36.5430565 C54.2409023,36.8374866 53.8458719,37 53.41838,37 L3.57912293,37 C3.1531293,37 2.75710005,36.8374866 2.46544673,36.5450628 L2.46544673,36.5450628 Z M2.46145148,2.5290764 C2.76159471,2.18871152 3.15912218,2.00057013 3.57812412,2 L53.4258711,2 C53.8348849,2 54.2399035,2.19270239 54.530558,2.52223489 C54.8331983,2.87058153 55,3.32839225 55,3.80957811 L55,5 L2,5 L2,3.80957811 C2,3.32611174 2.16580291,2.86944128 2.46145148,2.5290764 L2.46145148,2.5290764 Z M54.9995006,13 L2,13 L2,7 L55,7 L54.9995006,13 Z M55.8840421,37.8864406 C56.5959975,37.1731445 57.0014853,36.1846986 56.9970294,35.1808003 L56.9990098,14.8939814 L57,14.8939814 L57,4.86596541 L57,4.86596541 L57,3.82518117 C57,2.80882146 56.6054044,1.84878772 55.8825568,1.11405785 C55.1631749,0.39527869 54.2145612,0 53.2030696,0 L3.79148426,0 C2.78197311,0.00199383955 1.83187409,0.39777099 1.11001668,1.12053783 C0.395090682,1.84679388 0.00099020221,2.80682762 0.00099020221,3.82518117 L0,35.1808003 C0,36.1861939 0.404497603,37.1721476 1.11150198,37.8884345 C1.82395247,38.6052198 2.776527,39 3.79346467,39 L53.2030696,39 C54.2259485,39 55.1795132,38.6027275 55.8840421,37.8864406 L55.8840421,37.8864406 Z" id="Fill-7" fill="#374D6B"></path>
                        <polygon id="Fill-8" fill="#00B4D5" points="7 32 15 32 15 30 7 30"></polygon>
                        <polygon id="Fill-9" fill="#00B4D5" points="19 32 27 32 27 30 19 30"></polygon>
                        <polygon id="Fill-10" fill="#00B4D5" points="31 32 38 32 38 30 31 30"></polygon>
                        <polygon id="Fill-11" fill="#00B4D5" points="42 32 50 32 50 30 42 30"></polygon>
                    </g>
                    <g id="Group-73" transform="translate(13.000000, 0.000000)">
                        <path d="M16,30.4761905 C23.9949792,30.4761905 30.4761905,23.9949792 30.4761905,16 C30.4761905,8.00502076 23.9949792,1.52380952 16,1.52380952 C8.00502076,1.52380952 1.52380952,8.00502076 1.52380952,16 C1.52380952,23.9949792 8.00502076,30.4761905 16,30.4761905 Z" id="Combined-Shape" fill="#FFFFFF"></path>
                        <path d="M16,32 C24.836556,32 32,24.836556 32,16 C32,7.163444 24.836556,0 16,0 C7.163444,0 0,7.163444 0,16 C0,24.836556 7.163444,32 16,32 Z M16,29.8809524 C23.6662383,29.8809524 29.8809524,23.6662383 29.8809524,16 C29.8809524,8.33376169 23.6662383,2.11904762 16,2.11904762 C8.33376169,2.11904762 2.11904762,8.33376169 2.11904762,16 C2.11904762,23.6662383 8.33376169,29.8809524 16,29.8809524 Z" id="Combined-Shape" fill="#00B4D5"></path>
                        <g id="Group-70" transform="translate(16.644054, 15.254931) rotate(-45.000000) translate(-16.644054, -15.254931) translate(10.644054, 10.754931)" fill="#00B4D5">
                            <polygon id="Rectangle" points="-3.14326343e-12 2.84572366e-12 1.91765225 2.27088259e-08 1.91765225 7.61904764 -3.14326343e-12 7.61904762"></polygon>
                            <polygon id="Rectangle" points="4.77246788 1.64019274 6.78682574 1.64019274 6.78682574 12.4761716 4.77246788 12.4761716"></polygon>
                        </g>
                    </g>
                </g>
            </g>
        </g>
    </g>
</svg>