<svg xmlns="http://www.w3.org/2000/svg" width="21" height="21" viewBox="0 0 21 21">
  <g fill="#00B4D5" fill-rule="evenodd">
    <path d="M18.8400454,5.95432784 L19.9677249,5.95432784 C20.5612171,7.18820875 20.9206078,8.55596349 20.988305,10 L21,10 L21,11 L20.988305,11 C20.8842535,13.2195042 20.0911017,15.2587995 18.8179699,16.9087656 L18.7721745,17 C18.7666025,16.9963361 18.7610187,16.9926768 18.7554232,16.989022 C16.8328576,19.431555 13.8495976,21 10.5,21 C4.86861297,21 0.272670553,16.5668259 0.0116950389,11 L0,11 L0,10 L0.0116950389,10 C0.268201862,4.52849503 4.71249104,0.152151142 10.2116481,0.00388283092 L10.2116481,1.05077887 C9.3173411,1.35677946 8.25348615,3.03190654 7.63708933,5.69894949 C8.58881774,5.83109758 9.59500422,5.90069623 10.6252918,5.90069623 C11.3788332,5.90069623 12.1194822,5.86346579 12.8353619,5.79176287 L13.4230858,5.95432784 L17.1979151,5.95432784 C16.4336058,6.23238174 15.587133,6.46007354 14.6845942,6.63117773 C14.8631544,7.68154502 14.9711706,8.815092 14.994986,10 L19.9870014,10 C19.9109556,8.54078342 19.5040391,7.16762825 18.8400454,5.95432784 Z M19.9870014,11 L14.9949886,11 C14.9711699,12.1849427 14.8631481,13.3185213 14.6845785,14.3689144 C16.140408,14.6449879 17.4501111,15.0682814 18.5038252,15.6124551 C19.3661538,14.2672179 19.8988543,12.6914245 19.9870014,11 Z M1.01299863,11 C1.10331582,12.7330652 1.66034453,14.344736 2.56046078,15.7113884 C3.58719997,15.150645 4.87859488,14.7101498 6.32357885,14.4165559 C6.14014143,13.352827 6.02919063,12.2028789 6.00501401,11 L1.01299863,11 Z M1.01299863,10 L6.00501125,10 C6.02918958,8.7971733 6.1401318,7.64727278 6.32355497,6.58358258 C4.879043,6.29014859 3.58764701,5.84986048 2.56011503,5.2891366 C1.66020188,6.65567673 1.10330425,8.26715669 1.01299863,10 Z M13.8700073,11 L7.12999261,11 C7.1535071,12.1713509 7.2589157,13.2513611 7.4231741,14.2259401 C8.44468628,14.078041 9.52358554,14 10.6257721,14 C11.6398678,14 12.6343217,14.0661016 13.5825277,14.191926 C13.7435228,13.2262511 13.8467661,12.1577408 13.870004,11 Z M13.870004,10 C13.8467664,8.84227635 13.7435258,7.77378057 13.5825348,6.80811697 C12.6341449,6.93392814 11.6395483,7 10.6252918,7 C9.52336033,7 8.44463472,6.9220116 7.42315798,6.77415558 C7.25890881,7.74870957 7.15350633,8.82868737 7.12999599,10 L13.8700073,10 Z M17.8664382,16.4922259 C16.9166222,16.0356987 15.7570659,15.6783422 14.4717306,15.439932 C14.0522278,17.2720688 13.4066871,18.7800222 12.6221329,19.761035 C14.7176831,19.2809986 16.5513262,18.1058542 17.8664382,16.4922259 Z M3.20613735,16.5802002 C4.515741,18.1485483 6.32059036,19.2897661 8.37786712,19.761035 C7.59991897,18.7882825 6.95865319,17.2974259 6.53891426,15.4861437 C5.26863939,15.7395614 4.12969441,16.1108527 3.20613735,16.5802002 Z M13.3703228,15.2688375 C12.4912171,15.1576398 11.5686194,15.0993038 10.6257721,15.0993038 C9.59517767,15.0993038 8.58885736,15.1689626 7.63710934,15.3011371 C8.32136382,18.2617181 9.55699294,20 10.5,20 C11.4464313,20 12.6876136,18.2490711 13.3703228,15.2688375 Z M3.20631244,4.41959013 C4.13000513,4.88929493 5.26891287,5.26059708 6.53889086,5.51395732 C6.95862936,3.70262954 7.59990451,2.21173554 8.37786712,1.23896496 C6.32068204,1.71021294 4.51590187,2.85134994 3.20631244,4.41959013 Z"/>
    <path d="M18.8400454,5.95432784 C18.7344729,5.76141761 18.6224015,5.57254848 18.5041279,5.38801705 C18.1035619,5.59473498 17.6661574,5.78398239 17.1979151,5.95432784 L13.4230858,5.95432784 L12.8353619,5.79176287 C13.015313,5.77373885 13.1936991,5.75353662 13.3703314,5.73119997 C12.687624,2.75094354 11.4464353,1 10.5,1 C10.4064859,1 10.3100943,1.01709401 10.2116481,1.05077887 L10.2116481,0.00388283092 C10.3074508,0.00129979866 10.4035736,0 10.5,0 C13.8494148,0 16.8325321,1.56827387 18.7551085,4.01057824 C18.7604967,4.00705639 18.7658741,4.00353031 18.7712406,4 L18.8154001,4.08790537 C19.2612992,4.66530988 19.6483977,5.29044093 19.9677249,5.95432784 L18.8400454,5.95432784 Z M17.8662958,4.50759941 C16.5511939,2.89406101 14.7176075,1.71898408 12.6221329,1.23896496 C13.4066964,2.21998938 14.0522431,3.72796696 14.4717455,5.56013311 C15.7568735,5.32178277 16.916378,4.96443917 17.8662958,4.50759941 Z"/>
  </g>
</svg>
