<svg xmlns="http://www.w3.org/2000/svg" width="22" height="19" viewBox="0 0 22 19">
  <g fill="#00B4D5">
    <path d="M20.8985118,13 C20.975178,13 21.0001,12.979825 21.0001,13.013 L21.0001,1.987 C21.0001,2.02017499 20.975178,2 20.8985118,2 L1.0001,2 L1.0001,13 L20.8985118,13 Z M20.8985118,14 L0.000100000001,14 L0.000100000001,1 L20.8985118,1 C21.4864338,1 22.0001,1.41582501 22.0001,1.987 L22.0001,13.013 C22.0001,13.584175 21.4864338,14 20.8985118,14 Z"/>
    <polygon points="1 19 1 0 0 0 0 19"/>
    <path d="M1,7 L10,7 L10,2 L1,2 L1,7 Z M11,1 L11,8 L0,8 L0,1 L11,1 Z"/>
    <polygon points="11 5 21 5 21 4 11 4"/>
    <polygon points="11 8 21 8 21 7 11 7"/>
    <polygon points="1 11 21 11 21 10 1 10"/>
  </g>
</svg>
