<?xml version="1.0" encoding="UTF-8" standalone="no"?>
<svg width="51px" height="64px" viewBox="0 0 51 64" version="1.1" xmlns="http://www.w3.org/2000/svg" xmlns:xlink="http://www.w3.org/1999/xlink">
    <!-- Generator: Sketch 3.8.3 (29802) - http://www.bohemiancoding.com/sketch -->
    <title>Group 103</title>
    <desc>Created with Sketch.</desc>
    <defs></defs>
    <g id="All-pages" stroke="none" stroke-width="1" fill="none" fill-rule="evenodd">
        <g id="colored-icons" transform="translate(-399.000000, -172.000000)">
            <g id="Group-25" transform="translate(224.000000, 168.000000)">
                <g id="Group-103" transform="translate(175.000000, 4.000000)">
                    <path d="M6.09099123,50 C5.56287809,50 5.0983521,49.6216247 5.01340743,49.0922815 C4.9197256,48.5056087 5.32697461,47.9552447 5.92255808,47.8630396 C16.8702269,46.1670393 24.8157085,37.0038602 24.8157085,26.0749298 C24.8157085,25.4815685 25.3049898,25 25.9078543,25 C26.5112041,25 27,25.4815685 27,26.0749298 C27,38.0687573 18.2783668,48.1253225 6.26233676,49.9866231 C6.20457438,49.9957003 6.14729741,50 6.09099123,50" id="Fill-254" fill="#00B4D5"></path>
                    <path d="M47.3105612,42 C47.1902972,42 47.0675172,41.9804761 46.9472531,41.9399263 C46.3549905,41.7401814 46.0374734,41.1008975 46.2382489,40.511675 C47.8952759,35.6467097 48.7356145,30.5514619 48.7356145,25.3686067 C48.7356145,12.6224776 38.3123964,2.25276232 25.5,2.25276232 C12.6881068,2.25276232 2.26438551,12.6224776 2.26438551,25.3686067 C2.26438551,25.9908698 1.75766635,26.4949879 1.13219275,26.4949879 C0.507222354,26.4949879 0,25.9908698 0,25.3686067 C0,11.3804546 11.4391724,0 25.5,0 C39.5608276,0 51,11.3804546 51,25.3686067 C51,30.7982645 50.1194056,36.13631 48.3828735,41.235062 C48.222857,41.7041372 47.7825598,42 47.3105612,42" id="Fill-255" fill="#374D6B"></path>
                    <path d="M8.58081785,55 C8.0741825,55 7.61638542,54.6507656 7.49946956,54.1350646 C7.3633144,53.5363771 7.73774111,52.9411474 8.33563989,52.8048126 C20.7612789,49.9733964 29.7800788,38.6556347 29.7800788,25.8945029 C29.7800788,23.8702279 28.1348705,22.2228495 26.1127689,22.2228495 C24.0896808,22.2228495 22.4439792,23.8702279 22.4439792,25.8945029 C22.4439792,36.3562205 14.6086439,45.0179239 4.21891933,46.0424106 C3.60572776,46.0997107 3.06554693,45.6556347 3.0053624,45.0450921 C2.94567119,44.4340555 3.39113538,43.8901983 4.00136705,43.8299344 C13.2495588,42.9180721 20.2240579,35.2077482 20.2240579,25.8945029 C20.2240579,22.6442029 22.8652709,20 26.1127689,20 C29.3587871,20 32,22.6442029 32,25.8945029 C32,39.6835791 22.2545459,51.9127091 8.82796908,54.9718439 C8.74509202,54.9906146 8.66221496,55 8.58081785,55" id="Fill-256" fill="#374D6B"></path>
                    <path d="M26.9121888,64 C26.63374,64 26.3552913,63.898042 26.1430708,63.6945893 C25.7021937,63.2714635 25.2811366,62.8437032 24.8861842,62.4177967 C24.1277014,62.8826326 23.3779202,63.3108564 22.6141198,63.7154444 C22.0881611,63.9944387 21.4258785,63.8113776 21.1358278,63.3071488 C20.8452936,62.80292 21.0362437,62.1689264 21.561719,61.8903956 C22.542574,61.370873 23.4987747,60.8105673 24.4854307,60.1765737 C24.972716,59.8637479 25.629681,59.9772921 25.9729077,60.4323957 C26.0057801,60.476423 26.0439701,60.5158159 26.0807099,60.5552087 C26.5791138,61.1206124 27.111357,61.673503 27.6813067,62.2199054 C28.1062311,62.6272741 28.1062311,63.2872206 27.6813067,63.6945893 C27.4690862,63.898042 27.1906375,64 26.9121888,64" id="Fill-257" fill="#374D6B"></path>
                    <path d="M37.8618088,61 C37.6372125,61 37.4126162,60.934216 37.2255371,60.8111849 C33.8464528,58.5860799 31.0929933,55.5298874 29.2637756,51.9725314 C28.7010173,50.8798145 28.2274892,49.7383874 27.8467402,48.5613063 C23.4815615,53.5623943 17.8646259,57.2041144 11.4770665,59.1530272 C10.8752701,59.3363184 10.2359564,59.0023769 10.0509053,58.4058017 C9.86534718,57.8092265 10.2030021,57.1769974 10.8047985,56.993204 C17.4564995,54.9639444 23.216406,50.9712091 27.4624422,45.445858 C27.7321606,45.0948428 28.1818602,44.9311361 28.6178711,45.0270501 C29.052868,45.1229641 29.3915369,45.460923 29.4853299,45.8917829 C29.8701349,47.6594131 30.4800431,49.3597529 31.2962961,50.9466028 C32.9429976,54.1489262 35.4201479,56.9018095 38.4600563,58.9104802 C38.7840225,59.110343 39,59.4653755 39,59.8701227 C39,60.4943171 38.4919966,61 37.8618088,61" id="Fill-258" fill="#00B4D5"></path>
                    <path d="M43.8771986,54 C43.7092072,54 43.5387234,53.9616852 43.3782094,53.8810225 C38.8070494,51.5781019 35.9671477,46.9485661 35.9671477,41.7977474 C35.9671477,40.6609072 36.1102146,39.5255795 36.3928588,38.423021 C36.4008347,38.3917642 36.410306,38.3610115 36.4207743,38.330763 C37.269704,35.8922282 37.8683914,33.3624437 38.2013832,30.8114853 C38.4202206,29.1911729 38.5308856,27.5007849 38.5308856,25.7816607 C38.5308856,18.3304422 32.5370331,12.2686389 25.1693401,12.2686389 C17.8011487,12.2686389 11.8072962,18.3304422 11.8072962,25.7816607 C11.8072962,31.7406189 7.0177973,36.6277713 1.13062182,36.6766731 L1.1211505,36.6766731 C0.506012939,36.6766731 0.00502975925,36.1750518 4.48519848e-05,35.5519324 C-0.00543854601,34.9252839 0.49255369,34.4130756 1.11217766,34.4080342 C5.77256746,34.3692153 9.56408793,30.4994214 9.56408793,25.7816607 C9.56408793,17.0796659 16.5648917,10 25.1693401,10 C33.7737886,10 40.7740938,17.0796659 40.7740938,25.7816607 C40.7740938,27.6036298 40.6569485,29.397367 40.4246518,31.1134663 C40.0742128,33.7985265 39.4441206,36.4659418 38.5528191,39.03757 C38.3255074,39.9399842 38.210356,40.8686137 38.210356,41.7977474 C38.210356,46.081946 40.5737005,49.9335908 44.3781818,51.8498344 C44.9325035,52.1291291 45.1583198,52.8102249 44.8821559,53.3708308 C44.686249,53.7696071 44.2894504,54 43.8771986,54" id="Fill-259" fill="#374D6B"></path>
                    <path d="M41.8627319,58 C41.6733641,58 41.4819765,57.9526836 41.3052333,57.8535206 C35.5282556,54.6042962 31.9393588,48.4808546 31.9393588,41.8721686 C31.9393588,40.2900907 32.1469058,38.7085162 32.55594,37.1702312 C32.5665446,37.120398 32.5801791,37.0710682 32.5973484,37.0242552 C33.1179834,35.578086 33.5467119,34.0528885 33.8709094,32.4914486 C34.3137774,30.3249634 34.5389987,28.0995844 34.5389987,25.8802458 C34.5389987,21.129482 30.660243,17.2651449 25.8932264,17.2651449 C21.1251999,17.2651449 17.2459392,21.129482 17.2459392,25.8802458 C17.2459392,34.3136318 10.6322088,41.226854 2.1894387,41.6184723 C1.57437237,41.649681 1.03101328,41.16494 1.00121943,40.53976 C0.972435538,39.9150834 1.4567119,39.3850395 2.08389776,39.3558443 C9.3116846,39.0206029 14.9735267,33.1015277 14.9735267,25.8802458 C14.9735267,19.8811355 19.8723432,15 25.8932264,15 C31.9136048,15 36.8114113,19.8811355 36.8114113,25.8802458 C36.8114113,28.2510975 36.5710405,30.6289962 36.0968638,32.9474978 C35.7549919,34.5914896 35.3060642,36.1967223 34.7601802,37.7229265 C34.3960892,39.0810067 34.2117713,40.476336 34.2117713,41.8721686 C34.2117713,47.664899 37.3578002,53.032789 42.4217453,55.8808311 C42.9686393,56.1878841 43.1615419,56.879005 42.8529987,57.4236465 C42.6444418,57.7926134 42.2591416,58 41.8627319,58" id="Fill-260" fill="#00B4D5"></path>
                    <path d="M45.8843939,49 C45.7243837,49 45.5623919,48.9651611 45.4083263,48.8919995 C42.4667139,47.49297 40.5659111,44.4794077 40.5659111,41.2135125 C40.5659111,40.5545602 40.6446777,39.8916262 40.7997341,39.2441209 C40.8066695,39.2142591 40.8150911,39.1843972 40.8249989,39.1555307 C40.8433282,39.0977977 40.8651253,39.0400647 40.8874177,38.9828294 C41.5581727,37.0104517 42.0793206,34.9863133 42.4369906,32.9666542 C42.8328054,30.7912156 43.0557299,28.5724773 43.099324,26.3671768 C43.1117087,26.0347144 43.1166626,25.7206669 43.1166626,25.4016424 C43.1166626,15.3869603 35.0066698,7.23964166 25.0384775,7.23964166 C15.0702852,7.23964166 6.96078772,15.3869603 6.96078772,25.4016424 C6.96078772,28.6326988 4.3451404,31.2968769 1.13007391,31.3411721 C0.49845453,31.329725 0.00901143379,30.854921 9.44543027e-05,30.2367799 C-0.00783174968,29.6181411 0.484088285,29.1099913 1.09985526,29.1015304 C3.10221254,29.074157 4.73154285,27.4143337 4.73154285,25.4016424 C4.73154285,14.1521712 13.8412282,5 25.0384775,5 C36.2357268,5 45.3459075,14.1521712 45.3459075,25.4016424 C45.3459075,25.7500311 45.3404582,26.0929451 45.3275781,26.432873 C45.2820024,28.7372154 45.0471887,31.0763967 44.6310629,33.364315 C44.2530821,35.4989424 43.7002294,37.643026 42.9888526,39.7313674 C42.9834033,39.7472938 42.9774586,39.7627224 42.971514,39.7786487 L42.9531846,39.8259301 C42.8486578,40.2838124 42.7951559,40.7501555 42.7951559,41.2135125 C42.7951559,43.6178922 44.1951217,45.8371283 46.3619477,46.8678611 C46.9182682,47.1321389 47.1560543,47.8000498 46.892508,48.3589648 C46.7017837,48.7630957 46.3020058,49 45.8843939,49" id="Fill-261" fill="#00B4D5"></path>
                    <path d="M32.8916283,64 C32.6489315,64 32.4047578,63.9174545 32.2004593,63.7472364 C30.8309207,62.6059549 29.5701773,61.3323955 28.4536735,59.9624476 C27.6527248,58.9831809 26.9177424,57.9552073 26.2600488,56.8949332 C23.3053506,59.3795019 20.0385432,61.3969964 16.5319928,62.901273 C16.3980911,62.958696 16.254836,62.9879202 16.1101041,62.9879202 C15.498193,62.9879202 15,62.4716262 15,61.8343338 C15,61.3282939 15.3111245,60.8986471 15.7453204,60.7432974 C19.4098945,59.1641658 22.7963272,56.9897836 25.8110843,54.2801374 C26.0606731,54.0555725 26.3939505,53.9596967 26.7193513,54.0155815 C27.0447521,54.0730045 27.3288009,54.2785992 27.4937166,54.5759682 C28.2449444,55.9284841 29.1359814,57.2384456 30.1417209,58.4679123 C31.1676441,59.727116 32.3254998,60.8965962 33.5842742,61.9455908 C34.0617912,62.3439626 34.1395723,63.0694403 33.7570664,63.5672769 C33.5384916,63.8518282 33.2165368,64 32.8916283,64" id="Fill-262" fill="#374D6B"></path>
                </g>
            </g>
        </g>
    </g>
</svg>