<?xml version="1.0" encoding="UTF-8" standalone="no"?>
<svg width="62px" height="61px" viewBox="0 0 62 61" version="1.1" xmlns="http://www.w3.org/2000/svg" xmlns:xlink="http://www.w3.org/1999/xlink">
    <!-- Generator: Sketch 3.7 (28169) - http://www.bohemiancoding.com/sketch -->
    <title>Group 41</title>
    <desc>Created with Sketch.</desc>
    <defs></defs>
    <g id="Page-1" stroke="none" stroke-width="1" fill="none" fill-rule="evenodd">
        <g id="epay-web-services-busines-solutions" transform="translate(-416.000000, -2919.000000)">
            <g id="Group-41" transform="translate(416.000000, 2919.000000)">
                <path d="M57,26 L54.7869411,26 C54.7869411,12.8836893 44.1165544,2.2131008 31.0004918,2.2131008 C17.8839374,2.2131008 7.21305894,12.8836893 7.21305894,26 L5,26 C5,11.663533 16.6633124,0 31.0004918,0 C45.3366876,0 57,11.663533 57,26 L57,26 Z" id="Fill-1" fill="#374D6B"></path>
                <path d="M19.1227185,26 L17,26 C17,11.4200919 22.7101128,0 30,0 L30,2.2131008 C24.1040314,2.2131008 19.1227185,13.1059829 19.1227185,26" id="Fill-3" fill="#374D6B"></path>
                <path d="M44,26 L41.8772815,26 C41.8772815,13.1059829 36.8959686,2.2131008 31,2.2131008 L31,0 C38.2898872,0 44,11.4200919 44,26" id="Fill-5" fill="#374D6B"></path>
                <polygon id="Fill-7" fill="#374D6B" points="30 26 32 26 32 1 30 1"></polygon>
                <path d="M30.9970159,14 C24.1698704,14 17.4421953,12.991109 11,11.0009359 L11.6982817,9 C17.9146793,10.9204492 24.4076045,11.8942443 30.9970159,11.8942443 C37.5928928,11.8942443 44.0873101,10.9204492 50.301221,9 L51,11.0009359 C44.5602914,12.991109 37.8301296,14 30.9970159,14" id="Fill-9" fill="#374D6B"></path>
                <path d="M31.0045124,35 C26.5908749,35 23,38.5890754 23,43.0005011 C23,47.4114257 26.5908749,51 31.0045124,51 C35.4131361,51 39,47.4114257 39,43.0005011 C39,38.5890754 35.4131361,35 31.0045124,35 L31.0045124,35 Z M21,43.0004887 C21,37.4864152 25.4881697,33 31.0043997,33 C36.51623,33 41,37.4864152 41,43.0004887 C41,48.5140735 36.51623,53 31.0043997,53 C25.4881697,53 21,48.5140735 21,43.0004887 Z M2,59 L60,59 L60,27 L2,27 L2,59 Z M0,61 L62,61 L62,25 L0,25 L0,61 Z" id="Fill-10" fill="#374D6B"></path>
                <path d="M12.8356989,54 L49.1578507,54 C49.6366747,51.0010178 52.0064815,48.626015 55,48.1463371 L55,37.8536629 C52.0064815,37.373985 49.6366747,34.9989822 49.1578507,32 L12.8356989,32 C12.3568748,34.9989822 9.99004517,37.3734874 7,37.8531654 L7,48.1468346 C9.99004517,48.6265126 12.3568748,51.0015154 12.8356989,54 L12.8356989,54 Z M51.1216793,56 L10.8714357,56 L10.8714357,54.9006446 C10.8714357,52.2895533 8.73364101,50.1655986 6.106519,50.1655986 L5,50.1655986 L5,35.83489 L6.106519,35.83489 C8.73364101,35.83489 10.8714357,33.7104467 10.8714357,31.0993554 L10.8714357,30 L51.1216793,30 L51.1216793,31.0993554 C51.1216793,33.7104467 53.2624247,35.83489 55.893481,35.83489 L57,35.83489 L57,50.1655986 L55.893481,50.1655986 C53.2624247,50.1655986 51.1216793,52.2895533 51.1216793,54.9006446 L51.1216793,56 Z" id="Fill-11" fill="#00B4D5" opacity="0.9"></path>
                <path d="M31.7310883,48 L30.272328,48 C29.4060517,48 28.5861396,47.6916674 27.9619327,47.1322832 C27.3347975,46.542916 27,45.790656 27,44.997673 L29.1961933,44.997673 C29.1961933,45.2625973 29.3099073,45.515439 29.5163494,45.7101047 C29.7086384,45.8823951 29.9838946,45.9862168 30.272328,45.9862168 L31.7310883,45.9862168 C32.0151293,45.9862168 32.2977062,45.8792625 32.5061005,45.6926519 C32.750122,45.4662132 32.8038067,45.1887586 32.8038067,44.997673 C32.8038067,44.726036 32.6949732,44.4767744 32.4982918,44.2968764 C32.295754,44.1147409 32.0141532,44.0073391 31.7310883,44.0073391 L30.272328,44.0073391 C29.4050756,44.0073391 28.5841874,43.6972165 27.9594924,43.1333572 C27.3367496,42.5551777 27,41.8011277 27,41.000537 C27,40.210239 27.3347975,39.4588741 27.9424109,38.8856171 C28.5861396,38.3083326 29.4060517,38 30.272328,38 L31.7310883,38 C32.5836994,38 33.4255735,38.3159402 34.0405076,38.8672693 C34.6642265,39.4458964 35,40.1986038 35,41.000537 L32.8038067,41.000537 C32.8038067,40.8107939 32.750122,40.5337868 32.4919473,40.2948179 C32.2977062,40.121185 32.0151293,40.0137832 31.7310883,40.0137832 L30.272328,40.0137832 C29.9838946,40.0137832 29.7086384,40.1180524 29.4978038,40.3073481 C29.3099073,40.484561 29.1961933,40.7369552 29.1961933,41.000537 C29.1961933,41.2681464 29.3079551,41.5196456 29.510981,41.7080462 C29.7110786,41.8888392 29.9853587,41.9935559 30.272328,41.9935559 L31.7310883,41.9935559 C32.5846755,41.9935559 33.4270376,42.3112861 34.0424597,42.8644053 C34.6622743,43.4309496 35,44.1867896 35,44.997673 C35,45.8018437 34.6642265,46.5558937 34.0536847,47.1210955 C33.4255735,47.6840598 32.5836994,48 31.7310883,48" id="Fill-12" fill="#374D6B"></path>
                <polygon id="Fill-13" fill="#374D6B" points="30 39 32 39 32 37 30 37"></polygon>
                <polygon id="Fill-14" fill="#374D6B" points="30 49 32 49 32 47 30 47"></polygon>
                <polygon id="Fill-15" fill="#374D6B" points="44 44 51 44 51 42 44 42"></polygon>
                <polygon id="Fill-16" fill="#374D6B" points="11 44 18 44 18 42 11 42"></polygon>
            </g>
        </g>
    </g>
</svg>