<svg xmlns="http://www.w3.org/2000/svg" width="113" height="82" viewBox="0 0 113 82">
  <g fill="none" fill-rule="evenodd" stroke-width="2" transform="translate(1 1)" stroke-linecap="round" stroke-linejoin="round">
    <polyline stroke="#FFFFFF" points="62.374 42.713 69.176 51.618 65.541 54.393"/>
    <polyline stroke="#FFFFFF" points="24.272 54.486 0 22.71 29.749 0 35.641 7.714"/>
    <polyline stroke="#FFFFFF" points="59.729 41.953 69.776 63.457 35.864 79.293 8.369 20.45 42.282 4.614 54.399 30.547"/>
    <path stroke="#00B4D6" d="M50.2537442,30.2648602 L42.0655581,12.7405591 C40.2456744,13.5904516 38.0816047,12.8042151 37.2314651,10.9848602 L16.4985581,20.6665806 C17.3486977,22.4859355 16.5622326,24.6493763 14.7432093,25.4992688 L36.0801628,71.1663656 C37.9000465,70.3164731 40.0641163,71.1027097 40.9142558,72.9220645 L61.6471628,63.2403441 C60.7970233,61.4209892 61.5834884,59.2575484 63.4033721,58.4076559 L55.3872791,41.2523871"/>
    <path stroke="#00B4D6" d="M40.5894302,32.5827097 C38.7721279,32.2867957 36.8489884,32.5156129 35.0549186,33.3534624 C30.3034302,35.571957 28.2512209,41.2209892 30.4703605,45.9710968 C32.6895,50.7203441 38.3401744,52.771957 43.0908023,50.5534624 C47.2021047,48.6343226 49.2921744,44.1465806 48.3439419,39.8953978"/>
    <path stroke="#FFFFFF" d="M74.7669326 29.7499355C74.7669326 29.7499355 60.1553744 30.8260645 54.4651186 30.5189677 48.7740023 30.2110108 40.3147698 29.1348817 40.3147698 33.9013333 40.3147698 38.6677849 47.5435372 40.051871 57.5412814 41.5890753 67.5381651 43.1271398 69.9990953 47.8935914 80.3040256 47.8935914 90.6089558 47.8935914 94.6419558 41.5890753 100.392444 41.7430538M88.3016186 38.8216774C88.3016186 38.8216774 93.4110605 37.4375914 100.392014 37.4375914M50.7262256 22.6863656C53.923714 21.2171183 58.3310163 19.3857204 60.6172721 19.2945376 64.4618302 19.1405591 69.3836907 18.3715269 80.3038535 21.907871 91.2240163 25.4450753 100.392272 24.5220645 100.392272 24.5220645"/>
    <polygon stroke="#FFFFFF" points="100.392 46.202 110.911 46.202 110.911 19.909 100.392 19.909"/>
    <path stroke="#00B4D6" d="M107.535595,40.7052903 C107.535595,39.6652903 106.69234,38.8214194 105.651177,38.8214194 C104.610874,38.8214194 103.767619,39.6652903 103.767619,40.7052903 C103.767619,41.7452903 104.610874,42.5891613 105.651177,42.5891613 C106.69234,42.5891613 107.535595,41.7452903 107.535595,40.7052903 Z"/>
  </g>
</svg>
