<?xml version="1.0" encoding="UTF-8" standalone="no"?>
<svg width="52px" height="72px" viewBox="0 0 52 72" version="1.1" xmlns="http://www.w3.org/2000/svg" xmlns:xlink="http://www.w3.org/1999/xlink">
    <!-- Generator: Sketch 3.8.3 (29802) - http://www.bohemiancoding.com/sketch -->
    <title>Group 7</title>
    <desc>Created with Sketch.</desc>
    <defs></defs>
    <g id="Page-1" stroke="none" stroke-width="1" fill="none" fill-rule="evenodd">
        <g id="colored-icons-2" transform="translate(-362.000000, -595.000000)">
            <g id="Group-7" transform="translate(362.000000, 595.000000)">
                <polygon id="Fill-132" fill="#00B4D5" points="51 61 44 61 44 44 51 44 51 46 46 46 46 59 51 59"></polygon>
                <polygon id="Fill-133" fill="#374D6B" points="37 18 44 18 44 16 37 16"></polygon>
                <path d="M38,4 L43,4 L43,2 L38,2 L38,4 Z M36,6 L45,6 L45,0 L36,0 L36,6 Z" id="Fill-134" fill="#374D6B"></path>
                <path d="M52,72 L30,72 L30,70 L50,70 L50,35 C49.7020426,31.2 47.2355684,27.796756 44,27 L43,26 L43,9 L44,9 L44,6 L37,6 L37,9 L38,9 L38,26 L37,27 C33.762389,27.7957578 31.2979574,31.1990018 31,35 L31,57 L29,57 L29,35 C29,30.5187523 31.7406972,26.479178 36,25 L36,11 C35.5624556,10.7520881 35.251976,10.5953761 35,10 C34.6856572,10.0269211 34.5202043,9.62466055 35,9 L35,6 C34.5202043,5.20478532 34.6846359,4.80252477 35,4 C35.3173401,4.16819083 35.736079,4 36,4 L45,4 C45.2588144,4 45.6785746,4.16868991 46,4 C46.3056616,4.78206239 46.4797957,5.19230826 46,6 L46,9 C46.4797957,9.63663853 46.305151,10.0468844 46,10 C45.7429174,10.5958752 45.4329485,10.7520881 45,11 L45,25 C49.2572602,26.4801761 52,30.5192514 52,35 L52,72 Z" id="Fill-135" fill="#374D6B"></path>
                <polygon id="Fill-136" fill="#00B4D5" points="50 65 40 65 40 40 50 40 50 42 42 42 42 63 50 63"></polygon>
                <polygon id="Fill-141" fill="#374D6B" points="30 72 18 72 18 37 24 25 31 37 31 57 29 57 29 37 24 29 20 37 20 70 30 70"></polygon>
                <polygon id="Fill-142" fill="#374D6B" points="20 72 0 72 0 36 6 25 25 25 25 27 7 27 2 37 2 70 20 70"></polygon>
                <polygon id="Fill-143" fill="#374D6B" points="1 37 30 37 30 35 1 35"></polygon>
                <path d="M8,25 L23,25 L23,22 L8,22 L8,25 Z M6,27 L25,27 L25,20 L6,20 L6,27 Z" id="Fill-144" fill="#374D6B"></path>
                <path d="M16,31 C16,31.3284286 15.1045714,32 14,32 C12.8954286,32 12,31.3284286 12,31 C12,29.6715714 12.8954286,29 14,29 C15.1045714,29 16,29.6715714 16,31" id="Fill-145" fill="#00B4D5"></path>
                <path d="M30,57 C26.6915745,57 24,59.6915745 24,63 C24,66.3084255 26.6915745,69 30,69 C33.3084255,69 36,66.3084255 36,63 C36,59.6915745 33.3084255,57 30,57 M30,71 C25.5889231,71 22,67.4110769 22,63 C22,58.5889231 25.5889231,55 30,55 C34.4110769,55 38,58.5889231 38,63 C38,67.4110769 34.4110769,71 30,71" id="Fill-146" fill="#00B4D5"></path>
                <path d="M28,64 L26,64 C26,61.2430769 28.2430769,59 31,59 L31,61 C29.5153846,61.3076923 28.3076923,62.5153846 28,64" id="Fill-147" fill="#00B4D5"></path>
                <polygon id="Fill-137" fill="#00B4D5" points="2 47 18 47 18 45 2 45"></polygon>
                <polygon id="Fill-138" fill="#00B4D5" points="2 62 18 62 18 60 2 60"></polygon>
                <polygon id="Fill-139" fill="#00B4D5" points="6 57 11 57 11 55 6 55"></polygon>
                <polygon id="Fill-140" fill="#00B4D5" points="6 52 16 52 16 50 6 50"></polygon>
            </g>
        </g>
    </g>
</svg>