<?xml version="1.0" encoding="UTF-8" standalone="no"?>
<svg width="64px" height="58px" viewBox="0 0 64 58" version="1.1" xmlns="http://www.w3.org/2000/svg" xmlns:xlink="http://www.w3.org/1999/xlink">
    <!-- Generator: Sketch 3.7 (28169) - http://www.bohemiancoding.com/sketch -->
    <title>Group 33</title>
    <desc>Created with Sketch.</desc>
    <defs></defs>
    <g id="Page-1" stroke="none" stroke-width="1" fill="none" fill-rule="evenodd" stroke-linecap="round" stroke-linejoin="round">
        <g id="epay-web-services-cash-out" transform="translate(-713.000000, -825.000000)" stroke-width="2">
            <g id="Group-6" transform="translate(0.000000, 195.000000)">
                <g id="Group-33" transform="translate(714.000000, 631.000000)">
                    <path d="M13,28 L13,1.95690388 C13,0.876240431 13.8913109,0 14.9905606,0 L48.0094394,0 C49.1086891,0 50,0.876240431 50,1.95690388 L50,28" id="Stroke-32" stroke="#374D6B"></path>
                    <polyline id="Stroke-34" stroke="#00B4D5" points="24 8 24 21 31.4994851 21 31.4994851 8 39 8 39 21"></polyline>
                    <path d="M42,15 L21,15" id="Stroke-36" stroke="#00B4D5"></path>
                    <path d="M39,28 L39,35" id="Stroke-38" stroke="#00B4D5"></path>
                    <path d="M24,28 L24,35" id="Stroke-40" stroke="#00B4D5"></path>
                    <path d="M29,28 L29,38" id="Stroke-42" stroke="#00B4D5"></path>
                    <path d="M34,28 L34,38" id="Stroke-44" stroke="#00B4D5"></path>
                    <path d="M0,53.6531207 C0,54.948804 1.06583356,56 2.37955874,56 L59.6194377,56 C60.9341664,56 62,54.948804 62,53.6531207 L62,20 L31.6298275,39.8887272 L0,20 L0,53.6531207 Z" id="Stroke-46" stroke="#374D6B"></path>
                    <path d="M50.4059386,12.865193 C54.6232956,15.4604896 62,20 62,20" id="Stroke-48" stroke="#374D6B"></path>
                    <path d="M0,20 L13,12" id="Stroke-50" stroke="#374D6B"></path>
                </g>
            </g>
        </g>
    </g>
</svg>