<svg width="228" height="65" viewBox="0 0 228 65" fill="none" xmlns="http://www.w3.org/2000/svg">
<rect width="228" height="65" rx="5" fill="black"/>
<path d="M56.1259 33.4756L60.1218 37.4427L66.0019 34.0464C66.7883 33.6531 67.2918 32.8564 67.3095 31.9773C67.2777 31.1272 66.777 30.3648 66.0095 29.9978C65.5211 29.7338 61.3329 27.3037 59.7614 26.389L59.7568 26.3859L40.7211 15.3958C39.943 14.9034 38.9599 14.868 38.1484 15.3033C38.071 15.356 37.9969 15.4135 37.9268 15.4755L56.1259 33.4756Z" fill="#00EE77"/>
<path d="M66.0098 29.9977C65.5527 29.7509 61.882 27.6219 60.1211 26.598L56.0878 30.6022L37.8424 48.7032C37.917 48.7711 37.9965 48.8333 38.0803 48.8894C38.4048 49.0753 38.7727 49.1721 39.1467 49.17C39.6006 49.1643 40.0452 49.0398 40.436 48.809C41.0398 48.4586 59.757 37.6537 59.757 37.6537L66.0021 34.0465C66.7885 33.6532 67.292 32.8565 67.3097 31.9774C67.2779 31.1273 66.7773 30.3648 66.0098 29.9977Z" fill="#FF3344"/>
<path d="M54.6565 32.0221L37.9296 15.4781C37.3309 15.9416 36.9711 16.6545 37.0018 17.4225V46.9128C36.9817 47.6155 37.3071 48.2661 37.8451 48.7005L54.6565 32.0221Z" fill="#00DDFF"/>
<path d="M66.0098 29.9977C64.8537 29.3752 60.7751 26.9783 60.1212 26.598L56.0879 30.6022L54.6566 32.0221L56.1262 33.4756L60.1222 37.4428L66.0023 34.0465C66.7886 33.6532 67.2922 32.8565 67.3099 31.9774C67.2781 31.1272 66.7774 30.3648 66.0098 29.9977Z" fill="#FFDD00"/>
<path d="M86.3457 25.2324C88.8682 25.2324 90.5361 23.6191 90.5361 21.1855V19.9824H86.5371V21.0625H89.3057V21.3018C89.3057 22.9697 88.1162 24.0977 86.3525 24.0977C84.3701 24.0977 83.1328 22.5527 83.1328 20.0713V20.0576C83.1328 17.6104 84.3906 16.0381 86.3457 16.0381C87.8154 16.0381 88.8066 16.7354 89.21 18.0068L89.2305 18.0752H90.4746L90.4609 18.0068C90.0713 16.1338 88.5332 14.9033 86.3457 14.9033C83.6455 14.9033 81.875 16.9473 81.875 20.0576V20.0713C81.875 23.2227 83.6182 25.2324 86.3457 25.2324ZM92.7168 25H98.8281V23.8926H93.9473V20.502H98.5752V19.4082H93.9473V16.2432H98.8281V15.1357H92.7168V25ZM103.62 25H104.851V16.2432H108.029V15.1357H100.441V16.2432H103.62V25ZM113.867 25H115.098V15.1357H113.867V25ZM120.177 25H121.407V16.2432H124.586V15.1357H116.998V16.2432H120.177V25ZM134.566 25.2324C137.383 25.2324 139.092 23.2158 139.092 20.0713V20.0576C139.092 16.8994 137.369 14.9033 134.566 14.9033C131.777 14.9033 130.041 16.8926 130.041 20.0576V20.0713C130.041 23.2227 131.736 25.2324 134.566 25.2324ZM134.566 24.0977C132.516 24.0977 131.299 22.5117 131.299 20.0713V20.0576C131.299 17.5967 132.557 16.0381 134.566 16.0381C136.583 16.0381 137.834 17.5967 137.834 20.0576V20.0713C137.834 22.5117 136.59 24.0977 134.566 24.0977ZM141.225 25H142.441V17.3506H142.551L147.903 25H149.1V15.1357H147.883V22.8125H147.773L142.421 15.1357H141.225V25Z" fill="#B4B4B4"/>
<path d="M88.7051 48.3418C92.3965 48.3418 94.7891 46.0273 94.7891 42.4531V40.7051H89.0078V42.4727H92.6309V42.7852C92.6113 44.9531 91.0391 46.4082 88.7344 46.4082C86.0879 46.4082 84.4277 44.3184 84.4277 40.9492V40.9297C84.4277 37.6094 86.0781 35.5 88.6855 35.5C90.6191 35.5 91.9668 36.4375 92.4746 38.1074L92.5039 38.2051H94.6914L94.6719 38.1074C94.1641 35.3828 91.8887 33.5664 88.6855 33.5664C84.7402 33.5664 82.1914 36.4668 82.1914 40.9395V40.959C82.1914 45.4902 84.7109 48.3418 88.7051 48.3418ZM102.055 48.2051C105.16 48.2051 107.064 46.125 107.064 42.707V42.6875C107.064 39.2695 105.15 37.1895 102.055 37.1895C98.9492 37.1895 97.0352 39.2793 97.0352 42.6875V42.707C97.0352 46.125 98.9395 48.2051 102.055 48.2051ZM102.055 46.4375C100.229 46.4375 99.2031 45.0605 99.2031 42.707V42.6875C99.2031 40.334 100.229 38.957 102.055 38.957C103.871 38.957 104.906 40.334 104.906 42.6875V42.707C104.906 45.0508 103.871 46.4375 102.055 46.4375ZM114.086 48.2051C117.191 48.2051 119.096 46.125 119.096 42.707V42.6875C119.096 39.2695 117.182 37.1895 114.086 37.1895C110.98 37.1895 109.066 39.2793 109.066 42.6875V42.707C109.066 46.125 110.971 48.2051 114.086 48.2051ZM114.086 46.4375C112.26 46.4375 111.234 45.0605 111.234 42.707V42.6875C111.234 40.334 112.26 38.957 114.086 38.957C115.902 38.957 116.938 40.334 116.938 42.6875V42.707C116.938 45.0508 115.902 46.4375 114.086 46.4375ZM126.107 51.7402C129.115 51.7402 131.02 50.1973 131.02 47.7852V37.3945H128.91V39.1328H128.783C128.168 37.9414 127.016 37.209 125.531 37.209C122.777 37.209 121.088 39.3477 121.088 42.375V42.3945C121.088 45.3828 122.768 47.4824 125.492 47.4824C126.947 47.4824 128.119 46.8379 128.764 45.6855H128.92V47.7754C128.92 49.2207 127.885 50.041 126.137 50.041C124.701 50.041 123.842 49.5234 123.666 48.791L123.656 48.7715H121.518L121.498 48.791C121.752 50.5586 123.412 51.7402 126.107 51.7402ZM126.078 45.7344C124.271 45.7344 123.256 44.3574 123.256 42.3848V42.3652C123.256 40.3926 124.271 39.0059 126.078 39.0059C127.865 39.0059 128.959 40.3926 128.959 42.3652V42.3848C128.959 44.3672 127.875 45.7344 126.078 45.7344ZM134.164 48H136.283V33.2344H134.164V48ZM143.891 48.2051C146.605 48.2051 148.07 46.6426 148.422 45.2461L148.441 45.1582L146.4 45.168L146.361 45.2461C146.107 45.793 145.297 46.4668 143.939 46.4668C142.191 46.4668 141.078 45.2852 141.039 43.2539H148.559V42.5117C148.559 39.3281 146.742 37.1895 143.783 37.1895C140.824 37.1895 138.91 39.4062 138.91 42.7168V42.7266C138.91 46.0859 140.785 48.2051 143.891 48.2051ZM143.793 38.9277C145.229 38.9277 146.293 39.8457 146.459 41.7402H141.068C141.254 39.9141 142.348 38.9277 143.793 38.9277ZM156.791 48H158.979V43.1855H162.279C165.043 43.1855 166.957 41.3008 166.957 38.5469V38.5273C166.957 35.7637 165.043 33.9082 162.279 33.9082H156.791V48ZM161.732 35.7539C163.627 35.7539 164.73 36.7793 164.73 38.5371V38.5566C164.73 40.3242 163.627 41.3496 161.732 41.3496H158.979V35.7539H161.732ZM169.633 48H171.752V33.2344H169.633V48ZM177.816 48.1758C179.223 48.1758 180.336 47.5703 180.961 46.4961H181.127V48H183.227V40.7441C183.227 38.5176 181.723 37.1895 179.057 37.1895C176.645 37.1895 174.975 38.3516 174.721 40.0898L174.711 40.1582H176.752L176.762 40.1191C177.016 39.3672 177.787 38.9375 178.959 38.9375C180.395 38.9375 181.127 39.582 181.127 40.7441V41.6816L178.256 41.8477C175.727 42.0039 174.301 43.1074 174.301 45.002V45.0215C174.301 46.9453 175.795 48.1758 177.816 48.1758ZM176.41 44.9336V44.9141C176.41 43.957 177.074 43.4297 178.539 43.3418L181.127 43.1758V44.084C181.127 45.4512 179.965 46.4863 178.383 46.4863C177.24 46.4863 176.41 45.9102 176.41 44.9336ZM186.898 51.7305C189.047 51.7305 190.121 50.9395 191.02 48.4102L194.965 37.3945H192.738L190.092 45.8711H189.906L187.25 37.3945H184.965L188.812 48.0098L188.656 48.5566C188.344 49.6309 187.748 50.0508 186.762 50.0508C186.518 50.0508 186.254 50.041 186.049 50.0117V51.6816C186.322 51.7109 186.635 51.7305 186.898 51.7305Z" fill="white"/>
</svg>
