<?xml version="1.0" encoding="UTF-8" standalone="no"?>
<svg width="72px" height="74px" viewBox="0 0 72 74" version="1.1" xmlns="http://www.w3.org/2000/svg" xmlns:xlink="http://www.w3.org/1999/xlink">
    <!-- Generator: Sketch 3.7 (28169) - http://www.bohemiancoding.com/sketch -->
    <title>Group 34</title>
    <desc>Created with Sketch.</desc>
    <defs></defs>
    <g id="Page-1" stroke="none" stroke-width="1" fill="none" fill-rule="evenodd">
        <g id="epay-web-services-busines-solutions" transform="translate(-644.000000, -401.000000)">
            <g id="Group-34" transform="translate(645.000000, 402.000000)">
                <path d="M45.8526582,4.65721519 L37.5846835,12.7807595 C37.0025316,13.358481 36.0641772,13.358481 35.4829114,12.7807595 L31.1056962,8.39911392 C30.975443,8.27240506 30.7574684,8.27240506 30.6272152,8.40265823 L19.0905063,19.9172152 C18.9567089,20.055443 18.9637975,20.265443 19.0905063,20.3886076 L27.4213924,28.7124051 C27.9991139,29.294557 27.9991139,30.2329114 27.4178481,30.8141772 L24.4335443,33.7949367 C24.3068354,33.9251899 24.3068354,34.1351899 24.4335443,34.265443 L32.7608861,42.5812658 C33.3421519,43.1598734 33.3421519,44.1017722 32.7644304,44.6839241 L30.3144304,47.1339241 C30.1797468,47.2677215 30.1841772,47.4741772 30.3108861,47.6008861 L41.8502532,59.126962 C41.9813924,59.2572152 42.186962,59.2572152 42.3181013,59.126962 L47.984557,53.4667089 C48.5631646,52.8889873 49.5006329,52.8889873 50.0818987,53.4667089 L57.9573418,61.3394937 C58.5829114,61.9694937 58.5235443,63.0026582 57.8270886,63.5520253 C51.7441772,68.3775949 44.0424051,71.2582278 35.6725316,71.2582278 C15.9839241,71.2582278 0,55.2991139 0,35.6317722 C0,15.9626582 15.9839241,0 35.6725316,0 C42.0567089,0 48.0518987,1.67822785 53.2407595,4.61468354 C52.4131646,5.32974684 50.8377215,6.65265823 50.8377215,6.65265823 L45.8526582,4.65721519 Z" id="Fill-1"></path>
                <path d="M45.8526582,4.65721519 L37.5846835,12.7807595 C37.0025316,13.358481 36.0641772,13.358481 35.4829114,12.7807595 L31.1056962,8.39911392 C30.975443,8.27240506 30.7574684,8.27240506 30.6272152,8.40265823 L19.0905063,19.9172152 C18.9567089,20.055443 18.9637975,20.265443 19.0905063,20.3886076 L27.4213924,28.7124051 C27.9991139,29.294557 27.9991139,30.2329114 27.4178481,30.8141772 L24.4335443,33.7949367 C24.3068354,33.9251899 24.3068354,34.1351899 24.4335443,34.265443 L32.7608861,42.5812658 C33.3421519,43.1598734 33.3421519,44.1017722 32.7644304,44.6839241 L30.3144304,47.1339241 C30.1797468,47.2677215 30.1841772,47.4741772 30.3108861,47.6008861 L41.8502532,59.126962 C41.9813924,59.2572152 42.186962,59.2572152 42.3181013,59.126962 L47.984557,53.4667089 C48.5631646,52.8889873 49.5006329,52.8889873 50.0818987,53.4667089 L57.9573418,61.3394937 C58.5829114,61.9694937 58.5235443,63.0026582 57.8270886,63.5520253 C51.7441772,68.3775949 44.0424051,71.2582278 35.6725316,71.2582278 C15.9839241,71.2582278 0,55.2991139 0,35.6317722 C0,15.9626582 15.9839241,0 35.6725316,0 C42.0567089,0 48.0518987,1.67822785 53.2407595,4.61468354 C52.4131646,5.32974684 50.8377215,6.65265823 50.8377215,6.65265823 L45.8526582,4.65721519 L45.8526582,4.65721519 Z" id="Stroke-3" stroke="#374D6B" stroke-width="2"></path>
                <path d="M31.1735696,23.800443 L28.0466076,20.6708228 C27.782557,20.4094304 27.782557,19.9805696 28.0466076,19.7182911 L31.1735696,16.5886709 C31.4376203,16.3263924 31.8638228,16.3263924 32.1287595,16.5886709 L35.2548354,19.7182911 C35.5188861,19.9805696 35.5188861,20.4094304 35.2548354,20.6708228 L32.1287595,23.800443 C31.8638228,24.0627215 31.4376203,24.0627215 31.1735696,23.800443" id="Stroke-7" stroke="#00B3D4" stroke-width="2" stroke-linecap="round" stroke-linejoin="round"></path>
                <path d="M36.5791646,37.0437342 L33.3042278,33.7696835 C33.0295443,33.4932278 33.0295443,33.0475316 33.3042278,32.7701899 L36.5791646,29.4970253 C36.8538481,29.2196835 37.3022025,29.2196835 37.576,29.4970253 L40.8518228,32.7701899 C41.1265063,33.0475316 41.1265063,33.4932278 40.8518228,33.7696835 L37.576,37.0437342 C37.3022025,37.3201899 36.8538481,37.3201899 36.5791646,37.0437342" id="Stroke-11" stroke="#00B3D4" stroke-width="2" stroke-linecap="round" stroke-linejoin="round"></path>
                <path d="M42.4145949,50.742557 L39.2043418,47.534962 C38.9358608,47.2629367 38.9358608,46.8261013 39.2043418,46.554962 L42.4145949,43.346481 C42.683962,43.0753418 43.1234557,43.0753418 43.3919367,43.346481 L46.6021899,46.554962 C46.8706709,46.8261013 46.8706709,47.2629367 46.6021899,47.534962 L43.3919367,50.742557 C43.1234557,51.0136962 42.683962,51.0136962 42.4145949,50.742557" id="Stroke-15" stroke="#00B3D4" stroke-width="2" stroke-linecap="round" stroke-linejoin="round"></path>
                <path d="M43.6395949,19.5073165 L40.7722532,16.6390886 C40.5303544,16.3945316 40.5303544,16.0028861 40.7722532,15.7618734 L43.6395949,12.8927595 C43.8806076,12.6517468 44.2731392,12.6517468 44.5141519,12.8927595 L47.3814937,15.7618734 C47.6233924,16.0028861 47.6233924,16.3945316 47.3814937,16.6390886 L44.5141519,19.5073165 C44.2731392,19.7483291 43.8806076,19.7483291 43.6395949,19.5073165" id="Stroke-19" stroke="#00B3D4" stroke-width="2" stroke-linecap="round" stroke-linejoin="round"></path>
                <path d="M48.8833038,31.5791266 L45.6526709,28.3476076 C45.3806456,28.0764684 45.3806456,27.6343165 45.6526709,27.3622911 L48.8833038,24.1316582 C49.154443,23.8596329 49.597481,23.8596329 49.8686203,24.1316582 L53.0992532,27.3622911 C53.3712785,27.6343165 53.3712785,28.0764684 53.0992532,28.3476076 L49.8686203,31.5791266 C49.597481,31.8511519 49.154443,31.8511519 48.8833038,31.5791266" id="Stroke-23" stroke="#00B3D4" stroke-width="2" stroke-linecap="round" stroke-linejoin="round"></path>
                <path d="M54.0399114,45.3442278 L49.9010506,41.204481 C49.5519367,40.8562532 49.5519367,40.2891646 49.9010506,39.9373924 L54.0399114,35.7976456 C54.3881392,35.4485316 54.9543418,35.4485316 55.3061139,35.7976456 L59.4458608,39.9373924 C59.7940886,40.2891646 59.7940886,40.8562532 59.4458608,41.204481 L55.3061139,45.3442278 C54.9543418,45.6924557 54.3881392,45.6924557 54.0399114,45.3442278" id="Stroke-27" stroke="#00B3D4" stroke-width="2" stroke-linecap="round" stroke-linejoin="round"></path>
                <path d="M59.5785949,55.7164557 L57.0107468,53.1477215 C56.7936582,52.931519 56.7936582,52.5806329 57.0107468,52.3644304 L59.5785949,49.7956962 C59.7947975,49.5794937 60.1456835,49.5794937 60.3618861,49.7956962 L62.9297342,52.3644304 C63.1459367,52.5806329 63.1459367,52.931519 62.9297342,53.1477215 L60.3618861,55.7164557 C60.1456835,55.9326582 59.7947975,55.9326582 59.5785949,55.7164557" id="Stroke-31" stroke="#00B3D4" stroke-width="2" stroke-linecap="round" stroke-linejoin="round"></path>
                <path d="M54.768,16.2874051 L51.9343291,13.4537342 C51.6968608,13.2153797 51.6968608,12.8281646 51.9343291,12.5871519 L54.768,9.75613924 C55.0054684,9.51512658 55.3926835,9.51512658 55.6301519,9.75613924 L58.4638228,12.5871519 C58.7057215,12.8281646 58.7057215,13.2153797 58.4638228,13.4537342 L55.6301519,16.2874051 C55.3926835,16.5248734 55.0054684,16.5248734 54.768,16.2874051" id="Stroke-35" stroke="#00B3D4" stroke-width="2" stroke-linecap="round" stroke-linejoin="round"></path>
                <path d="M60.0670886,28.4705949 L57.2334177,25.6369241 C56.9959494,25.3985696 56.9959494,25.0113544 57.2334177,24.7738861 L60.0670886,21.9393291 C60.304557,21.7018608 60.6917722,21.7018608 60.9292405,21.9393291 L63.7629114,24.7738861 C64.0003797,25.0113544 64.0003797,25.3985696 63.7629114,25.6369241 L60.9292405,28.4705949 C60.6917722,28.7080633 60.304557,28.7080633 60.0670886,28.4705949" id="Stroke-39" stroke="#00B3D4" stroke-width="2" stroke-linecap="round" stroke-linejoin="round"></path>
                <path d="M65.3622785,40.1274557 L62.5321519,37.2973291 C62.2911392,37.0554304 62.2911392,36.6717595 62.5321519,36.4307468 L65.3622785,33.5961899 C65.6032911,33.3587215 65.986962,33.3587215 66.2288608,33.5961899 L69.0581013,36.4307468 C69.3,36.6717595 69.3,37.0554304 69.0581013,37.2973291 L66.2288608,40.1274557 C65.986962,40.3684684 65.6032911,40.3684684 65.3622785,40.1274557" id="Stroke-43" stroke="#00B3D4" stroke-width="2" stroke-linecap="round" stroke-linejoin="round"></path>
            </g>
        </g>
    </g>
</svg>