<?xml version="1.0" encoding="UTF-8" standalone="no"?>
<svg width="47px" height="70px" viewBox="0 0 47 70" version="1.1" xmlns="http://www.w3.org/2000/svg" xmlns:xlink="http://www.w3.org/1999/xlink">
    <!-- Generator: Sketch 3.7 (28169) - http://www.bohemiancoding.com/sketch -->
    <title>Group 81</title>
    <desc>Created with Sketch.</desc>
    <defs></defs>
    <g id="Page-1" stroke="none" stroke-width="1" fill="none" fill-rule="evenodd">
        <g id="epay-web-services-cards" transform="translate(-661.000000, -1215.000000)">
            <g id="Group-81" transform="translate(661.000000, 1215.000000)">
                <polygon id="Fill-1" fill="#202020" points="6 45 9 45 9 42 6 42"></polygon>
                <polygon id="Fill-2" fill="#202020" points="12 45 15 45 15 42 12 42"></polygon>
                <polygon id="Fill-3" fill="#202020" points="19 45 22 45 22 42 19 42"></polygon>
                <polygon id="Fill-4" fill="#202020" points="25 45 28 45 28 42 25 42"></polygon>
                <polygon id="Fill-5" fill="#202020" points="6 52 9 52 9 49 6 49"></polygon>
                <polygon id="Fill-6" fill="#202020" points="12 52 15 52 15 49 12 49"></polygon>
                <polygon id="Fill-7" fill="#202020" points="19 52 22 52 22 49 19 49"></polygon>
                <polygon id="Fill-8" fill="#202020" points="25 52 28 52 28 49 25 49"></polygon>
                <polygon id="Fill-9" fill="#202020" points="6 58 9 58 9 55 6 55"></polygon>
                <polygon id="Fill-10" fill="#202020" points="12 58 15 58 15 55 12 55"></polygon>
                <polygon id="Fill-11" fill="#202020" points="19 58 22 58 22 55 19 55"></polygon>
                <polygon id="Fill-12" fill="#202020" points="25 58 28 58 28 55 25 55"></polygon>
                <polygon id="Fill-13" fill="#202020" points="6 64 9 64 9 61 6 61"></polygon>
                <polygon id="Fill-14" fill="#202020" points="12 64 15 64 15 61 12 61"></polygon>
                <polygon id="Fill-15" fill="#202020" points="19 64 28 64 28 61 19 61"></polygon>
                <path d="M0,70 L34,70 L34,36 L0,36 L0,70 Z M2,68 L32,68 L32,38 L2,38 L2,68 Z" id="Fill-16" fill="#202020"></path>
                <path d="M0,39 L34,39 L34,19 L0,19 L0,39 Z M2,39 L32,39 L32,21 L2,21 L2,39 Z" id="Fill-17" fill="#202020"></path>
                <path d="M7,32 L27,32 L27,26 L7,26 L7,32 Z M5,34 L29,34 L29,24 L5,24 L5,34 Z" id="Fill-18" fill="#00B4D5"></path>
                <polygon id="Fill-19" fill="#00B4D5" points="20 30 23 30 23 27 20 27"></polygon>
                <polygon id="Fill-20" fill="#00B4D5" points="15 30 18 30 18 27 15 27"></polygon>
                <polygon id="Fill-21" fill="#00B4D5" points="10 30 13 30 13 27 10 27"></polygon>
                <polygon id="Fill-22" fill="#00B4D5" points="45 42 45 63 37 63 37 65 47 65 47 42"></polygon>
                <path d="M36,20 L36,70 L43,70 L43,20 L40,16 L36,20 Z M38,20 L40,19 L41,20 L41,68 L38,68 L38,20 Z" id="Fill-23" fill="#00B4D5"></path>
                <polygon id="Fill-24" fill="#00B4D5" points="37 43 42 43 42 41 37 41"></polygon>
                <polygon id="Fill-25" fill="#00B4D5" points="38.5 18.5 40.5 18.5 40.5 14.5 38.5 14.5"></polygon>
                <polygon id="Fill-26" fill="#202020" points="25 4.54747351e-13 22 3 19 4.54747351e-13 17 3 14 4.54747351e-13 11 3 8 4.54747351e-13 4 4 4 20 6 20 6 5 8 3 11 6 14 3 17 6 19 3 22 6 25 3 27 5 27 20 29 20 29 4"></polygon>
                <polygon id="Fill-27" fill="#202020" points="9 11 25 11 25 9 9 9"></polygon>
                <polygon id="Fill-28" fill="#202020" points="9 16 17 16 17 14 9 14"></polygon>
            </g>
        </g>
    </g>
</svg>