<?xml version="1.0" encoding="UTF-8" standalone="no"?>
<svg width="65px" height="34px" viewBox="0 0 65 34" version="1.1" xmlns="http://www.w3.org/2000/svg" xmlns:xlink="http://www.w3.org/1999/xlink">
    <!-- Generator: Sketch 3.7 (28169) - http://www.bohemiancoding.com/sketch -->
    <title>Group 53</title>
    <desc>Created with Sketch.</desc>
    <defs></defs>
    <g id="Page-1" stroke="none" stroke-width="1" fill="none" fill-rule="evenodd">
        <g id="epay-web-services-cards" transform="translate(-111.000000, -3201.000000)">
            <g id="Group-71" transform="translate(110.000000, 3201.000000)">
                <g id="Group-53">
                    <path d="M7,18.9473684 L61,18.9473684 L61,8.42105263 C61,4.45774027 57.6513578,1.05263158 54,1.05263158 L14,1.05263158 C10.3486422,1.05263158 7,4.45774027 7,8.42105263 L7,18.9473684 Z M61,20 L7,20 C6.22540475,20 6,19.7700087 6,20 L6,8.42105263 C6,3.87596899 9.79867388,0 14,0 L54,0 C58.2003199,0 62,3.87596899 62,8.42105263 L62,20 C62,19.7700087 61.7745952,20 61,20 L61,20 Z" id="Fill-43" fill="#00B2D4"></path>
                    <path d="M57,17 L55,16 C53.2121889,14.6015107 51.4944493,14 50,14 L18,14 C16.5060661,14 14.7873208,14.6015107 13,16 L11,17 C10.6639414,17.8872513 11.0511368,19 12,19 L56,19 C56.9483729,19 57.336574,17.8872513 57,17" id="Fill-45" fill="#D6EEF5"></path>
                    <path d="M18,15 C16.1316821,15 14.5173112,15.5546522 13,17 L11,18 C10.9707243,18.3252033 10.9737418,18.5682023 11,19 C11.0743256,18.8093948 11.1809445,19 11,19 L56,19 C55.8200613,19 55.9266802,18.8084914 56,19 C56.0262582,18.5682023 56.0292757,18.3252033 56,18 L56,18 L54,17 C52.4826888,15.5546522 50.8683179,15 49,15 L18,15 Z M56,20 L11,20 C10.8364762,20 10.3266864,19.659303 10,19 C9.87018825,18.5280025 10.0360962,17.8932794 11,17 L13,16 C14.0470457,14.6543248 15.8951593,14 18,14 L49,14 C51.1048407,14 52.9529543,14.6543248 54,16 L56,17 C56.9639038,17.8932794 57.1298118,18.5270691 57,19 C56.6743191,19.659303 56.1635238,20 56,20 L56,20 Z" id="Fill-47" fill="#00B2D4"></path>
                    <polygon id="Fill-49" fill="#D6EEF5" points="63 19 3 19 3 22 63 22"></polygon>
                    <path d="M4,22 L63,22 L63,20 L4,20 L4,22 Z M64,23 L3,23 C3.22357484,23 3,22.7976513 3,23 L3,19 C3,19.2023487 3.22357484,19 3,19 L64,19 C63.7774233,19 64,19.2023487 64,19 L64,23 C64,22.7976513 63.7774233,23 64,23 L64,23 Z" id="Fill-51" fill="#00B2D4"></path>
                    <polygon id="Fill-52" fill="#D6EEF5" points="63 29 3 29 3 23 63 23"></polygon>
                    <path d="M4,28 L63,28 L63,23 L4,23 L4,28 Z M64,29 L3,29 C3.22357484,29 3,28.7847632 3,29 L3,22 C3,22.2142759 3.22357484,22 3,22 L64,22 C63.7774233,22 64,22.2142759 64,22 L64,29 C64,28.7847632 63.7774233,29 64,29 L64,29 Z" id="Fill-53" fill="#00B2D4"></path>
                    <path d="M2,34 C1.46521878,34 1.40414495,33.9900379 1,34 C1.07139785,33.8744771 0.932402222,33.5875675 1,33 L3,28 C3.07946343,28.0675477 3.38272661,27.9360475 4,28 C3.92817914,28.1253281 4.06822776,28.4122376 4,29 L2,34 C1.9422265,33.8754733 1.74110404,34 2,34" id="Fill-54" fill="#00B2D4"></path>
                    <path d="M65,34 C65.258896,34 65.0577735,33.8754816 65,34 L63,29 C62.9317722,28.4126103 63.0718209,28.1257199 63,28 C63.6162204,27.9354558 63.9205366,28.0679433 64,28 L66,33 C66.0675978,33.5875951 65.9286022,33.8744855 66,34 C65.5958551,33.9900385 65.5347812,34 65,34" id="Fill-55" fill="#00B2D4"></path>
                    <path d="M29,7 L21,7 C19.4519048,7 18,8.49939705 18,10 L18,14 L32,14 L32,10 C32,8.49939705 30.5480952,7 29,7" id="Fill-56" fill="#D6EEF5"></path>
                    <path d="M19,14 L32,14 L32,11 C32,9.27689031 30.7727738,8 29,8 L22,8 C20.2272262,8 19,9.27689031 19,11 L19,14 Z M32,15 L19,15 C18.2285559,15 18,14.7652607 18,14 L18,11 C18,8.72701074 19.6815183,7 22,7 L29,7 C31.3184817,7 33,8.72701074 33,11 L33,14 C33,14.7652607 32.7724645,15 32,15 L32,15 Z" id="Fill-57" fill="#00B2D4"></path>
                    <path d="M46,7 L38,7 C36.4519048,7 35,8.49939705 35,10 L35,14 L49,14 L49,10 C49,8.49939705 47.5480952,7 46,7" id="Fill-58" fill="#D6EEF5"></path>
                    <path d="M36,14 L49,14 L49,11 C49,9.27689031 47.771847,8 46,8 L39,8 C37.228153,8 36,9.27689031 36,11 L36,14 Z M49,15 L36,15 C35.2285403,15 35,14.7652607 35,14 L35,11 C35,8.72701074 36.6814039,7 39,7 L46,7 C48.3185961,7 50,8.72701074 50,11 L50,14 C50,14.7652607 49.7714597,15 49,15 L49,15 Z" id="Fill-59" fill="#00B2D4"></path>
                </g>
            </g>
        </g>
    </g>
</svg>