<?xml version="1.0" encoding="UTF-8" standalone="no"?>
<svg width="77px" height="54px" viewBox="0 0 77 54" version="1.1" xmlns="http://www.w3.org/2000/svg" xmlns:xlink="http://www.w3.org/1999/xlink">
    <!-- Generator: Sketch 3.8.3 (29802) - http://www.bohemiancoding.com/sketch -->
    <title>Group 10</title>
    <desc>Created with Sketch.</desc>
    <defs></defs>
    <g id="Page-1" stroke="none" stroke-width="1" fill="none" fill-rule="evenodd">
        <g id="colored-icons-2" transform="translate(-159.000000, -174.000000)">
            <g id="Group-10" transform="translate(159.000000, 174.000000)">
                <path d="M16,23 L14,23 L14,16 C14,15.0622887 14.3076465,14.3573153 15,14 C15.4247025,13.2930951 16.1646761,13 17,13 L37,13 L37,15 L17,15 C16.7738872,15.1728634 16.6066329,15.2399807 16,15 C16.35119,15.4833414 16.2807404,15.6426847 16,16 L16,23 Z" id="Fill-23" fill="#374D6B"></path>
                <polygon id="Fill-26" fill="#374D6B" points="20 23 18 23 18 17 36 17 36 19 20 19"></polygon>
                <path d="M2,42 L30,42 L30,24 L2,24 L2,42 Z M0,44 L32,44 L32,22 L0,22 L0,44 Z" id="Fill-28" fill="#374D6B"></path>
                <polygon id="Fill-29" fill="#374D6B" points="9 36 11 36 11 31 9 31"></polygon>
                <polygon id="Fill-30" fill="#374D6B" points="4 36 6 36 6 35 4 35"></polygon>
                <polygon id="Fill-31" fill="#374D6B" points="13 36 15 36 15 33 13 33"></polygon>
                <polygon id="Fill-32" fill="#374D6B" points="17 36 19 36 19 29 17 29"></polygon>
                <polygon id="Fill-33" fill="#374D6B" points="21 37 23 37 23 31 21 31"></polygon>
                <polygon id="Fill-34" fill="#374D6B" points="25 36 27 36 27 27 25 27"></polygon>
                <polygon id="Fill-35" fill="#374D6B" points="4 40 27 40 27 38 4 38"></polygon>
                <path d="M24,2 C22.8970667,2 22,2.89706667 22,4 C22,5.10293333 22.8970667,6 24,6 C25.1029333,6 26,5.10293333 26,4 C26,2.89706667 25.1029333,2 24,2 M24,8 C21.7944242,8 20,6.20557576 20,4 C20,1.79442424 21.7944242,0 24,0 C26.2055758,0 28,1.79442424 28,4 C28,6.20557576 26.2055758,8 24,8" id="Fill-40" fill="#00B4D5"></path>
                <polygon id="Fill-24" fill="#374D6B" points="70 49 14 49 14 43 16 43 16 47 68 47 68 28 70 28"></polygon>
                <polygon id="Fill-25" fill="#374D6B" points="65 49 18 49 18 43 20 43 20 47 63 47 63 28 65 28"></polygon>
                <path d="M11,49 L11,51 C11,50.9024682 11.1297238,51.2786624 11,52 C11.6032157,51.8429538 11.9190433,52 12,52 L72,52 C72.0804577,52 72.3962853,51.843551 73,52 C72.8697772,51.2786624 73,50.9024682 73,51 L73,49 L11,49 Z M72,54 L13,54 C11.5882159,54 10.7038585,53.6371221 10,53 C9.36701585,52.3163862 9,51.437393 9,51 L9,47 L76,47 L76,51 C76,51.4378922 75.6329842,52.3173845 75,53 C74.2981525,53.6366229 73.4127897,54 72,54 L72,54 Z" id="Fill-27" fill="#374D6B"></path>
                <path d="M38,28 L75,28 L75,4 L38,4 L38,28 Z M36,30 L77,30 L77,2 L36,2 L36,30 Z" id="Fill-36" fill="#00B4D5"></path>
                <polygon id="Fill-37" fill="#00B4D5" points="44 20 42 18 49 12 53 16 59 11 63 15 68 10 70 12 63 18 59 14 53 19 49 15"></polygon>
                <polygon id="Fill-38" fill="#00B4D5" points="71 15 69 15 69 11 65 11 65 9 71 9"></polygon>
                <path d="M51,35 C49.346087,35 48,36.346087 48,38 C48,39.6544348 49.346087,41 51,41 C52.653913,41 54,39.6544348 54,38 C54,36.346087 52.653913,35 51,35 M51,43 C48.2429268,43 46,40.7570732 46,38 C46,35.2429268 48.2429268,33 51,33 C53.7570732,33 56,35.2429268 56,38 C56,40.7570732 53.7570732,43 51,43" id="Fill-39" fill="#00B4D5"></path>
            </g>
        </g>
    </g>
</svg>