<?xml version="1.0" encoding="UTF-8" standalone="no"?>
<svg width="57px" height="53px" viewBox="0 0 57 53" version="1.1" xmlns="http://www.w3.org/2000/svg" xmlns:xlink="http://www.w3.org/1999/xlink">
    <!-- Generator: Sketch 3.7 (28169) - http://www.bohemiancoding.com/sketch -->
    <title>Group 5</title>
    <desc>Created with Sketch.</desc>
    <defs>
        <path d="M0,41 L0,2.00526988 C0,0.897789907 0.892110772,0 2.00325465,0 L55.3671176,0 C56.2690588,0 57,0.744833333 57,1.66391667 L57,39.3360833 C57,40.2551667 56.2690588,41 55.3671176,41 L0,41 Z" id="path-1"></path>
        <mask id="mask-2" maskContentUnits="userSpaceOnUse" maskUnits="objectBoundingBox" x="0" y="0" width="57" height="41" fill="white">
            <use xlink:href="#path-1"></use>
        </mask>
        <path d="M0,1.991155 C0,0.891470458 0.899897516,0 1.99124431,0 L26.0087557,0 C27.1084896,0 28,0.889673948 28,1.991155 L28,20.008845 C28,21.1085295 27.1001025,22 26.0087557,22 L0,22 L0,1.991155 Z" id="path-3"></path>
        <mask id="mask-4" maskContentUnits="userSpaceOnUse" maskUnits="objectBoundingBox" x="0" y="0" width="28" height="22" fill="white">
            <use xlink:href="#path-3"></use>
        </mask>
    </defs>
    <g id="Page-1" stroke="none" stroke-width="1" fill="none" fill-rule="evenodd">
        <g id="epay-web-pricing-1920" transform="translate(-265.000000, -866.000000)">
            <g id="Group-5" transform="translate(265.000000, 866.000000)">
                <rect id="Rectangle-639" fill="#374D6B" x="0" y="3" width="2" height="50"></rect>
                <use id="Stroke-51" stroke="#374D6B" mask="url(#mask-2)" stroke-width="4" xlink:href="#path-1"></use>
                <use id="Stroke-55" stroke="#00B4D5" mask="url(#mask-4)" stroke-width="4" xlink:href="#path-3"></use>
                <rect id="Rectangle-636" fill="#374D6B" x="33" y="17" width="17" height="2"></rect>
                <rect id="Rectangle-636" fill="#374D6B" x="33" y="22" width="17" height="2"></rect>
                <rect id="Rectangle-636-Copy" fill="#374D6B" x="7" y="27" width="43" height="2"></rect>
                <rect id="Rectangle-636-Copy-2" fill="#374D6B" x="7" y="32" width="43" height="2"></rect>
                <rect id="Rectangle-636" fill="#374D6B" x="33" y="12" width="17" height="2"></rect>
                <rect id="Rectangle-636" fill="#374D6B" x="33" y="7" width="17" height="2"></rect>
                <polygon id="Star-2" fill="#00B4D5" points="6 8.5 4.23664424 9.42705098 4.57341523 7.46352549 3.14683045 6.07294902 5.11832212 5.78647451 6 4 6.88167788 5.78647451 8.85316955 6.07294902 7.42658477 7.46352549 7.76335576 9.42705098"></polygon>
                <polygon id="Star-2" fill="#00B4D5" points="14 8.5 12.2366442 9.42705098 12.5734152 7.46352549 11.1468305 6.07294902 13.1183221 5.78647451 14 4 14.8816779 5.78647451 16.8531695 6.07294902 15.4265848 7.46352549 15.7633558 9.42705098"></polygon>
                <polygon id="Star-2" fill="#00B4D5" points="22 8.5 20.2366442 9.42705098 20.5734152 7.46352549 19.1468305 6.07294902 21.1183221 5.78647451 22 4 22.8816779 5.78647451 24.8531695 6.07294902 23.4265848 7.46352549 23.7633558 9.42705098"></polygon>
                <polygon id="Star-2" fill="#00B4D5" points="6 16.5 4.23664424 17.427051 4.57341523 15.4635255 3.14683045 14.072949 5.11832212 13.7864745 6 12 6.88167788 13.7864745 8.85316955 14.072949 7.42658477 15.4635255 7.76335576 17.427051"></polygon>
                <polygon id="Star-2" fill="#00B4D5" points="14 16.5 12.2366442 17.427051 12.5734152 15.4635255 11.1468305 14.072949 13.1183221 13.7864745 14 12 14.8816779 13.7864745 16.8531695 14.072949 15.4265848 15.4635255 15.7633558 17.427051"></polygon>
                <polygon id="Star-2" fill="#00B4D5" points="22 16.5 20.2366442 17.427051 20.5734152 15.4635255 19.1468305 14.072949 21.1183221 13.7864745 22 12 22.8816779 13.7864745 24.8531695 14.072949 23.4265848 15.4635255 23.7633558 17.427051"></polygon>
            </g>
        </g>
    </g>
</svg>