<svg xmlns="http://www.w3.org/2000/svg" width="63" height="63" viewBox="0 0 63 63">
  <g fill="none" fill-rule="evenodd">
    <path fill="#374D6B" d="M31.5,11 C20.1964,11 11,20.1964 11,31.5005 C11,42.8041 20.1964,52 31.5,52 C42.8036,52 52,42.8041 52,31.5005 C52,20.1964 42.8036,11 31.5,11 Z M31.5,54 C19.0933,54 9,43.9067 9,31.5005 C9,19.0938 19.0933,9 31.5,9 C43.9062,9 54,19.0938 54,31.5005 C54,43.9067 43.9062,54 31.5,54 Z"/>
    <path fill="#374D6B" d="M32 54C25.271 54 20 44.1169 20 31.5005 20 18.8831 25.271 9 32 9L32 11.284C26.7517 11.284 22.3184 20.5418 22.3184 31.5005 22.3184 42.4587 26.7517 51.716 32 51.716L32 54zM32 54L32 51.716C37.2482 51.716 41.6812 42.4587 41.6812 31.5005 41.6812 20.5418 37.2482 11.284 32 11.284L32 9C38.7291 9 44 18.8831 44 31.5005 44 44.1169 38.7291 54 32 54z"/>
    <polygon fill="#374D6B" points="30 52 32 52 32 10 30 10"/>
    <polygon fill="#374D6B" points="10 32 52 32 52 30 10 30"/>
    <path fill="#374D6B" d="M31.998 22C26.2031 22 20.4842 21.0648 15 19.2199L15.711 17C20.9652 18.7671 26.4453 19.6633 31.998 19.6633 37.5577 19.6633 43.0384 18.7671 48.2885 17L49 19.2199C43.5198 21.0648 37.7994 22 31.998 22zM15.7115 46L15 43.7813C20.4847 41.9357 26.2039 41 31.9982 41 37.7996 41 43.5199 41.9357 49 43.7813L48.2875 46C43.038 44.2318 37.5569 43.3355 31.9982 43.3355 26.4462 43.3355 20.9666 44.2318 15.7115 46z"/>
    <path fill="#00B4D5" d="M29.1477 2L29 .0783726C29.6595.0282655 30.331.00171306 30.9953 0L31 1.92719C30.383 1.92891 29.76 1.95332 29.1477 2zM36.6032 3C35.746 2.87467 34.8694 2.77962 34 2.71786L34.1941 0C35.1308.0672048 36.0754.169526 37 .304541L36.6032 3zM24.5774 3L24 .497528C24.8586.300114 25.7378.13237 26.6124 0L27 2.53785C26.1883 2.66109 25.3731 2.81685 24.5774 3zM40.2824 4C39.5325 3.77171 38.7646 3.56909 38 3.3976L38.5393 1C39.3635 1.1846 40.1916 1.40306 41 1.64883L40.2824 4zM20.8676 4L20 1.81057C20.7518 1.51282 21.5251 1.24071 22.2995 1L23 3.24856C22.2822 3.472 21.5644 3.72423 20.8676 4zM44.0132 5C43.3545 4.68488 42.677 4.39158 42 4.12771L42.8294 2C43.5592 2.28417 44.29 2.6003 45 2.93978L44.0132 5zM17.1181 6L16 4.07933C16.6604 3.69569 17.3431 3.33278 18.0287 3L19 4.99918C18.3638 5.30727 17.7311 5.64401 17.1181 6zM13.3447 9L12 7.32432C12.5766 6.86123 13.1771 6.4163 13.7842 6L15 7.77164C14.4368 8.15738 13.8798 8.57082 13.3447 9zM9.5607 11L8 9.5569C8.49599 9.02094 9.01748 8.49725 9.55078 8L11 9.55454C10.5054 10.0159 10.0208 10.5023 9.5607 11zM54.3392 13C53.9125 12.47 53.4622 11.95 53 11.4541L54.5585 10C55.0557 10.5338 55.5411 11.0941 56 11.6648L54.3392 13zM6.77679 15L5 13.79C5.41458 13.1799 5.8583 12.5775 6.31826 12L8 13.3381C7.57348 13.8745 7.16176 14.4334 6.77679 15zM57.1186 17C56.7686 16.3995 56.3921 15.8053 56 15.2349L57.7953 14C58.2178 14.615 58.6234 15.2547 59 15.9022L57.1186 17zM5.00445 19L3 18.0368C3.33004 17.3479 3.6917 16.6626 4.07312 16L6 17.1106C5.64575 17.7257 5.31077 18.3616 5.00445 19zM58.8804 21C58.615 20.3281 58.3186 19.6543 58 18.9981L60.0502 18C60.3931 18.7074 60.7128 19.434 61 20.1592L58.8804 21zM3.25551 23L1 22.3089C1.23698 21.5344 1.50647 20.7577 1.80269 20L4 20.859C3.7258 21.5622 3.47518 22.2821 3.25551 23zM59.6138 25C59.4386 24.2392 59.2318 23.4752 59 22.7308L61.3372 22C61.5881 22.8038 61.8106 23.6278 62 24.4485L59.6138 25zM2.54788 28L0 27.6233C.128768 26.746.293018 25.8635.4876 25L3 25.5677C2.81973 26.3675 2.66749 27.1864 2.54788 28zM60.297 30C60.2296 29.1306 60.1295 28.2594 60 27.4105L62.6801 27C62.8198 27.9141 62.9271 28.8529 63 29.7887L60.297 30zM0 31L.000430015 30.9405C.000430015 30.302.0240808 29.645.0700925 29L2 29.1392C1.95743 29.738 1.9355 30.3486 1.9355 30.953L0 31zM62.9266 33L61 32.8633C61.0451 32.2758 61.0683 31.6785 61.0683 31.0865L61.0683 31 63 31 63 31.0865C63 31.7233 62.9751 32.3668 62.9266 33zM.315567 37C.17679 36.078.0705953 35.1385 0 34.2056L2.70736 34C2.77253 34.8658 2.87088 35.7376 3 36.5931L.315567 37zM62.509 39L60 38.4278C60.1818 37.6312 60.3344 36.8144 60.4556 36L63 36.3797C62.8697 37.2589 62.7039 38.1403 62.509 39zM1.6585 41C1.40959 40.196 1.18845 39.3713 1 38.5487L3.38889 38C3.56318 38.7631 3.76906 39.5278 4 40.2735L1.6585 41zM61.1949 43L59 42.1386C59.274 41.4402 59.5249 40.7209 59.747 40L62 40.6942C61.7606 41.4712 61.4898 42.2471 61.1949 43zM2.94729 45C2.60517 44.2928 2.28637 43.5657 2 42.8382L4.12215 42C4.38723 42.6742 4.68272 43.3479 5 44.0039L2.94729 45zM58.9241 47L57 45.886C57.3537 45.2751 57.6896 44.6405 57.9984 44L60 44.9657C59.6675 45.6562 59.3055 46.3412 58.9241 47zM55.6793 51L54 49.6598C54.4273 49.1234 54.8399 48.565 55.2252 48L57 49.2127C56.5846 49.8207 56.1401 50.4225 55.6793 51zM52.4464 54L51 52.4426C51.496 51.9816 51.9811 51.496 52.4421 51L54 52.4459C53.504 52.9806 52.9811 53.5031 52.4464 54zM11.6712 56C11.1009 55.5454 10.5386 55.0628 10 54.5642L11.4472 53C11.9479 53.4631 12.4704 53.9116 13 54.3331L11.6712 56zM49.2133 57L48 55.2256C48.5634 54.8402 49.1211 54.428 49.6577 54L51 55.6789C50.4218 56.1407 49.8206 56.5854 49.2133 57zM15.9104 59C15.2616 58.6261 14.6182 58.2226 14 57.8013L15.2277 56C15.8018 56.3913 16.3978 56.7653 17 57.1125L15.9104 59zM44.9669 60L44 57.997C44.6365 57.6907 45.2705 57.3552 45.8843 57L47 58.9239C46.3373 59.3073 45.6533 59.669 44.9669 60zM20.1671 61C19.4353 60.7139 18.706 60.3965 18 60.0566L18.9902 58C19.6454 58.315 20.3214 58.6096 21 58.8749L20.1671 61zM40.6955 62L40 59.7471C40.7159 59.5271 41.4355 59.2751 42.1362 59L43 61.1937C42.2437 61.4913 41.468 61.7621 40.6955 62zM24.457 62C23.6333 61.814 22.8063 61.5947 22 61.347L22.7221 59C23.4694 59.2297 24.2358 59.4332 25 59.6056L24.457 62zM36.3835 63L36 60.4576C36.814 60.3354 37.6308 60.1817 38.4276 60L39 62.5064C38.1408 62.7023 37.2604 62.868 36.3835 63zM29.8019 63C28.8687 62.9323 27.9253 62.8283 27 62.6905L27.4005 60C28.2591 60.1275 29.1335 60.2237 30 60.2871L29.8019 63zM32.0017 63L32 61.0695C32.6171 61.0691 33.2415 61.0455 33.8564 61L34 62.9249C33.3386 62.9743 32.6661 62.9996 32.0017 63zM48.9995 5C47.8971 5 47 5.89707 47 7 47 8.10293 47.8971 9 48.9995 9 50.1024 9 51 8.10293 51 7 51 5.89707 50.1024 5 48.9995 5zM48.9995 11C46.7939 11 45 9.20558 45 7 45 4.79442 46.7939 3 48.9995 3 51.2056 3 53 4.79442 53 7 53 9.20558 51.2056 11 48.9995 11zM6.99947 47C5.89707 47 5 47.8971 5 49 5 50.1029 5.89707 51 6.99947 51 8.1024 51 9 50.1029 9 49 9 47.8971 8.1024 47 6.99947 47zM6.99952 53C4.79442 53 3 51.2056 3 49 3 46.7944 4.79442 45 6.99952 45 9.20558 45 11 46.7944 11 49 11 51.2056 9.20558 53 6.99952 53z"/>
  </g>
</svg>
