<?xml version="1.0" encoding="UTF-8" standalone="no"?>
<svg width="170px" height="48px" viewBox="0 0 170 48" version="1.1" xmlns="http://www.w3.org/2000/svg" xmlns:xlink="http://www.w3.org/1999/xlink">
    <!-- Generator: Sketch 39.1 (31720) - http://www.bohemiancoding.com/sketch -->
    <title>Group 9</title>
    <desc>Created with Sketch.</desc>
    <defs>
        <polygon id="path-1" points="84.986346 0.134422869 0.0110151188 0.134422869 0.0110151188 47.6806424 169.961677 47.6806424 169.961677 0.134422869"></polygon>
    </defs>
    <g id="Page-1" stroke="none" stroke-width="1" fill="none" fill-rule="evenodd">
        <g id="2" transform="translate(-261.000000, -13.000000)">
            <g id="Group-4" transform="translate(261.000000, 13.000000)">
                <g id="Group-5">
                    <g id="Group-9" transform="translate(0.000000, 0.319310)">
                        <mask id="mask-2" fill="white">
                            <use xlink:href="#path-1"></use>
                        </mask>
                        <g id="Clip-2"></g>
                        <path d="M135.20067,22.6604315 C136.663294,22.6707012 138.125918,22.6604315 139.588542,22.6648328 C139.144633,28.306192 138.779849,33.9534196 138.4046,39.5991802 C136.996134,39.5933118 135.588952,39.596246 134.180486,39.5991802 C134.505983,33.9519525 134.81973,28.3047249 135.20067,22.6604315 L135.20067,22.6604315 Z M116.785594,22.667767 C118.315227,22.667767 119.84486,22.653096 121.374676,22.6751025 C122.465173,26.387411 123.54649,30.1026537 124.635702,33.8149622 C124.669298,33.8164293 124.73649,33.8222977 124.769719,33.8252319 C126.340659,30.1099892 127.909762,26.3932794 129.470054,22.6736354 C131.00703,22.6547465 132.54419,22.6662999 134.082819,22.667767 C131.591015,28.3223301 129.061393,33.959288 126.547743,39.6035814 C125.097052,39.5511327 123.623963,39.6721683 122.186307,39.546548 C120.354492,33.9315965 118.59703,28.2902373 116.785594,22.667767 L116.785594,22.667767 Z M51.4332613,22.6006472 C53.0053024,22.6444768 54.6067171,22.514822 56.1611339,22.6635491 C57.3917063,26.1992557 58.5578402,29.7615534 59.7942873,33.2974434 C61.5515659,29.7643042 63.1953888,26.16863 64.8854752,22.6006472 L69.6994492,22.6006472 C65.5570302,30.9702589 61.3532937,39.3105286 57.2033477,47.677206 C55.727689,47.682891 54.2533153,47.6801402 52.7776566,47.6786731 C54.205216,44.6617691 55.6634341,41.6595361 57.1100864,38.6514347 C55.2064903,33.3060626 53.3249244,27.9506041 51.4332613,22.6006472 L51.4332613,22.6006472 Z M160.725821,26.3597195 C159.901339,27.0200971 159.401987,28.0028695 159.107333,28.9988457 C161.171382,29.0250701 163.236533,29.0047141 165.300583,29.0105825 C165.421566,28.1283064 165.302052,27.1121575 164.607181,26.4807551 C163.56662,25.5416289 161.819255,25.460205 160.725821,26.3597195 L160.725821,26.3597195 Z M156.294438,25.4380151 C158.364179,22.3805825 162.62189,21.6310787 165.954514,22.7858684 C167.504708,23.329795 168.762819,24.580863 169.33487,26.1178317 C170.091242,28.1312406 170.120432,30.3768177 169.65027,32.4589968 C165.977829,32.44726 162.305205,32.44726 158.63405,32.4589968 C158.669298,33.3950054 158.847376,34.3748436 159.459082,35.1199461 C160.359568,36.223754 161.858726,36.6290399 163.236533,36.6088673 C165.120853,36.68589 166.99379,36.2963754 168.778974,35.7161381 C168.821382,36.8331499 168.689935,37.9459439 168.657808,39.0613053 C166.117905,39.892233 163.407268,40.0583819 160.752257,39.9696224 C158.38162,39.8557389 156.072484,38.4634628 155.098931,36.2617152 C153.521199,32.7927616 154.227451,28.5541316 156.294438,25.4380151 L156.294438,25.4380151 Z M109.525162,24.7163862 C110.990724,22.7625782 113.568445,22.0321467 115.921641,22.2901726 C115.702624,23.552794 115.565302,24.8302697 115.337473,26.0914239 C113.320421,26.2693096 110.580594,26.4457282 109.661015,28.580356 C109.3223,32.2402157 109.262635,35.9319849 108.939892,39.5977131 C107.526836,39.596246 106.112495,39.5947789 104.699438,39.5991802 C104.966555,33.9315965 105.352084,28.2669471 105.695022,22.6006472 C106.969104,22.5993635 108.242084,22.6006472 109.51635,22.6006472 C109.520756,23.3050378 109.513413,24.010712 109.525162,24.7163862 L109.525162,24.7163862 Z M94.5840713,26.3494498 C93.7636285,27.0171629 93.2308639,27.9913161 92.9681533,29.0047141 C95.0233909,29.0221359 97.0771598,29.003247 99.1323974,29.0148004 C99.3001944,28.0699892 99.1061447,26.9619633 98.3047948,26.3479827 C97.2466091,25.5533657 95.6277538,25.4921143 94.5840713,26.3494498 L94.5840713,26.3494498 Z M90.3436177,25.17137 C92.7039741,22.0437001 97.4740713,21.486753 100.809633,23.2670766 C103.874773,25.1246063 104.192927,29.2818123 103.5054,32.4573463 C99.8228618,32.4545955 96.1399568,32.4340561 92.4572354,32.4677994 C92.5433369,33.3717152 92.6718467,34.3266127 93.2571166,35.0616289 C94.1504428,36.2208198 95.7050432,36.6290399 97.1122246,36.6088673 C98.9992981,36.6873571 100.87095,36.2835383 102.660356,35.7077023 C102.62676,36.8243474 102.529093,37.9397087 102.505594,39.0583711 C100.069417,39.8645415 97.4726026,40.0380259 94.9240713,39.9828263 C92.9989957,39.9358792 91.0149892,39.1618015 89.8007559,37.6235491 C88.5760583,36.111521 88.1031425,34.1327724 88.0504536,32.222794 C88.1861231,29.7380798 88.7994816,27.1746926 90.3436177,25.17137 L90.3436177,25.17137 Z M6.89289417,26.0798706 C5.8187365,26.6892665 5.21290497,27.8601942 4.86556156,29.003247 C6.93970842,29.0162675 9.01385529,29.0162675 11.0880022,29.003247 C11.2326674,28.0131392 10.980054,26.845329 10.1087581,26.2504207 C9.17008639,25.6437756 7.88113391,25.502384 6.89289417,26.0798706 L6.89289417,26.0798706 Z M3.44387689,23.9509277 C4.96176026,22.6910572 6.99074514,22.1953614 8.93656587,22.2887055 C11.0428402,22.2828371 13.3156263,23.0891909 14.487635,24.9337001 C15.9093197,27.1470011 15.8727862,29.943657 15.4523758,32.44726 C11.7696544,32.4589968 8.08858531,32.4456095 4.40586393,32.4545955 C4.40274298,33.5466667 4.71814255,34.7144768 5.55731102,35.4656311 C6.53985961,36.3623948 7.93969762,36.6420604 9.23434125,36.6013484 C11.0487149,36.6596656 12.8397732,36.2426429 14.5607019,35.7060518 C14.4599136,36.8201294 14.5489525,37.9426429 14.4233801,39.0539698 C11.958013,39.8471197 9.33641469,40.0422438 6.76016199,39.9738403 C4.70051836,39.9098382 2.62637149,38.9705286 1.43967603,37.2474218 C0.0121166307,35.1681769 -0.257937365,32.4852211 0.212041037,30.0531392 C0.635388769,27.7666667 1.59737581,25.451219 3.44387689,23.9509277 L3.44387689,23.9509277 Z M41.7366523,22.3923193 C43.8561447,22.027562 46.105432,22.2727508 48.0613499,23.1781338 C49.6699244,23.9247033 50.9708099,25.578123 50.845054,27.4110787 C50.6465983,31.4879612 50.3809503,35.561726 50.2304104,39.6400755 C48.6701188,39.6851888 47.1096436,39.6503452 45.5493521,39.6589644 C45.6574838,37.2721791 45.8091253,34.8852104 45.9537905,32.4997087 C44.8019762,32.046192 43.5262419,32.0331715 42.3103564,32.1483387 C41.1499136,32.3421791 39.8508639,33.0566559 39.6494708,34.3222114 C39.5035205,35.4538943 40.4974514,36.5516505 41.6345788,36.5619202 C42.9686933,36.5281769 44.2341469,35.9875512 45.3332721,35.2600539 C45.1931965,36.4744444 44.9932721,37.6818662 44.8254752,38.8935059 C43.2723434,40.07452 41.177635,40.2712945 39.3063499,39.9463323 C37.6876782,39.7319525 36.0614795,38.8570119 35.3403564,37.3359978 C34.3420194,35.1988026 34.8777214,32.4401079 36.5549568,30.7907228 C39.1034881,28.4316289 42.9132505,28.5235059 46.1404968,28.9361273 C46.2734125,28.1824056 46.2662527,27.3003128 45.695486,26.7169579 C44.9493952,25.9703883 43.8183261,25.7954369 42.8053024,25.8057066 C40.8214795,25.7442718 38.8611555,26.1803668 36.9592117,26.703754 C36.9417711,25.5403452 37.1286609,24.3883064 37.1343521,23.2247141 C38.6246976,22.7523085 40.19527,22.6094498 41.7366523,22.3923193 L41.7366523,22.3923193 Z M147.637106,20.5316721 C149.165454,20.5142503 150.694903,20.5258037 152.224903,20.5258037 C152.195529,21.2285437 152.148898,21.9329342 152.128521,22.6371413 C152.758769,22.7479072 153.393974,22.8399676 154.028812,22.9389968 C153.95446,24.137616 153.901771,25.3404531 153.833294,26.5405394 C151.5796,25.7400539 148.671976,25.3798813 146.79041,27.1734088 C145.136674,28.9245739 144.725076,31.6453074 145.332009,33.917109 C145.720659,35.3167206 147.034395,36.3359871 148.473521,36.4408846 C150.168013,36.53863 151.896285,36.24411 153.452354,35.5631931 C153.491825,36.7807012 153.360562,37.993808 153.331188,39.2113161 C152.652473,39.4344984 151.959255,39.618069 151.254104,39.728835 C151.169471,40.2844984 151.156253,40.8471305 151.132937,41.4086624 C149.61487,41.4115965 148.098456,41.4101294 146.580205,41.4086624 C146.58608,40.9347896 146.629957,40.462384 146.65933,39.9899784 C145.229935,39.7741316 143.780529,39.2943905 142.722343,38.2738403 C141.303596,36.9571197 140.751922,34.9697519 140.683078,33.0903991 C140.579719,30.4613592 140.96635,27.6355448 142.634957,25.5053182 C143.833218,23.9582632 145.689816,23.096343 147.571566,22.7071953 C147.624071,21.9839159 147.588823,21.2562352 147.637106,20.5316721 L147.637106,20.5316721 Z M22.9639525,20.0666019 C22.8616955,22.3396872 22.7669654,24.6127724 22.6632397,26.886041 C24.7987041,26.7694067 27.1239957,27.084466 29.0347516,25.9003344 C30.3178294,25.2196009 31.0943952,23.6285329 30.6156048,22.2186516 C30.2300756,21.0785329 29.0391577,20.4995793 27.9415011,20.2400863 C26.3052052,19.9076052 24.622095,20.1089644 22.9639525,20.0666019 L22.9639525,20.0666019 Z M18.7134017,16.2449946 C21.5773326,16.2638835 24.4425486,16.2288565 27.3064795,16.2624164 C30.2214471,16.4593743 33.7303132,17.4157389 34.9682289,20.3684574 C36.0381641,23.5383064 34.7260799,27.5379827 31.6723218,29.1198813 C28.8304212,30.6130205 25.5110151,30.646397 22.3757451,30.6537325 C22.0895356,33.6471629 21.9568035,36.6567314 21.7232829,39.6560302 C20.234406,39.6749191 18.7440605,39.6633657 17.2551836,39.6633657 C17.729568,31.8582201 18.1529158,24.0429881 18.7134017,16.2449946 L18.7134017,16.2449946 Z M72.9898488,18.2002697 C74.7983477,16.2842395 77.5453348,15.590302 80.1041469,15.6398166 C82.3416847,15.8088997 84.8378942,15.870151 86.6799892,17.3121251 C86.5470734,18.5501726 86.4215011,19.7896872 86.2871166,21.0273679 C83.4321814,19.7456742 80.0090497,18.8549622 77.0111015,20.1817691 C75.5850108,20.7607228 74.739784,22.7755987 75.8229374,24.0237325 C76.8869978,25.1873247 78.5131965,25.598479 80.0239201,25.7939698 C82.242365,26.1774326 84.5924406,27.027616 85.9265551,28.9507983 C87.2826998,30.8433549 86.9996112,33.403808 86.1894492,35.4566451 C85.0275378,38.2314779 81.9914039,39.6048652 79.1566631,39.921575 C75.9821058,40.1487918 72.5604428,40.2041748 69.6966955,38.6120065 C69.7930778,37.3288457 69.9258099,36.0488026 69.9638121,34.7627077 C72.5736609,36.0124919 75.5413175,36.3315858 78.3990065,36.111521 C79.9216631,35.89274 81.5987149,35.1124272 82.0686933,33.5248436 C82.4147516,32.6440345 82.1432289,31.582589 81.3754752,31.0166559 C80.0004212,29.9497087 78.1568575,30.1085221 76.581879,29.5427724 C74.1444168,28.8400324 71.6015767,27.2594175 71.0016199,24.6245092 C70.6307775,22.3426214 71.4512203,19.9092557 72.9898488,18.2002697 L72.9898488,18.2002697 Z M135.648801,14.400302 C137.163747,14.400302 138.680529,14.394617 140.197311,14.4032362 C140.192721,15.9240669 139.991512,17.4360949 140.01905,18.9583927 C138.496577,18.962794 136.975756,18.962794 135.454752,18.9569256 C135.472192,17.4360949 135.577387,15.919849 135.648801,14.400302 L135.648801,14.400302 Z M50.2450972,7.17997843 C51.3034665,8.42811219 52.3062095,9.72007551 53.3366739,10.9900324 C54.8824622,10.450507 56.3990605,9.83230852 57.9362203,9.2693096 C57.0572138,10.6472816 56.1510367,12.0076483 55.2488985,13.3724164 C56.2690821,14.6643797 57.3112959,15.9387379 58.3390065,17.2262999 C56.7669654,16.7872708 55.1890497,16.368781 53.6170086,15.925534 C52.6682397,17.290302 51.7908855,18.703301 50.8406479,20.0666019 C50.845054,18.4102481 50.6917603,16.7612298 50.6335637,15.1090939 C49.0584017,14.6876699 47.4747948,14.2851348 45.9201944,13.7923732 C47.4529482,13.2412945 48.9752376,12.663808 50.4962419,12.0821036 C50.3677322,10.450507 50.3809503,8.81157497 50.2450972,7.17997843 L50.2450972,7.17997843 Z M28.0261339,0.497529666 C29.0435637,1.77482201 30.0374946,3.06953614 31.0404212,4.36003236 C32.5786825,3.81757282 34.1099676,3.25182309 35.6513499,2.71523193 C34.7609611,4.08880259 33.7930994,5.408274 32.9115227,6.78771305 C33.9085745,8.07674218 34.9157235,9.35990291 35.9010259,10.6590183 C34.3275162,10.2185221 32.7699784,9.71402373 31.1876566,9.30727077 C30.2418251,10.6502157 29.3631857,12.0412082 28.3661339,13.346192 C28.3646652,11.721931 28.3165659,10.0974865 28.2800324,8.47322546 C26.7239633,7.9410356 25.1271382,7.52841424 23.5550972,7.04867314 C25.0876674,6.46531823 26.6510799,5.95806904 28.1851188,5.37618123 C28.0668898,3.75210356 28.0727646,2.12325782 28.0261339,0.497529666 L28.0261339,0.497529666 Z M41.6156695,4.17481122 C42.5482829,2.82893204 43.465108,1.47149946 44.4092873,0.134422869 C44.4386609,1.77757282 44.4283801,3.42824164 44.5699244,5.06717368 C46.1245248,5.54398058 47.6980346,5.96247033 49.2408855,6.47998921 C47.681879,6.99035599 46.1434341,7.56050701 44.5961771,8.10149946 C44.664838,9.72722762 44.7364363,11.3544229 44.7028402,12.9830852 C43.6984449,11.7103776 42.7307667,10.4066775 41.7395896,9.12204962 C40.1879266,9.626548 38.6626998,10.2053182 37.1139741,10.7171521 C38.0131749,9.36705502 38.9575378,8.0461165 39.8771166,6.70885653 C38.872905,5.41707659 37.9008207,4.10182309 36.8949568,2.81151025 C38.4787473,3.23 40.0362851,3.74018339 41.6156695,4.17481122 L41.6156695,4.17481122 Z" id="Fill-1" fill="#FFFFFF" mask="url(#mask-2)"></path>
                    </g>
                </g>
            </g>
        </g>
    </g>
</svg>