<?xml version="1.0" encoding="UTF-8" standalone="no"?>
<svg width="256px" height="39px" viewBox="0 0 256 39" version="1.1" xmlns="http://www.w3.org/2000/svg" xmlns:xlink="http://www.w3.org/1999/xlink">
    <!-- Generator: Sketch 3.7 (28169) - http://www.bohemiancoding.com/sketch -->
    <title>Group 13</title>
    <desc>Created with Sketch.</desc>
    <defs></defs>
    <g id="Page-1" stroke="none" stroke-width="1" fill="none" fill-rule="evenodd">
        <g id="epay-web-services-cash-out" transform="translate(-100.000000, -337.000000)">
            <g id="Group-6" transform="translate(0.000000, 195.000000)">
                <g id="Group-42" transform="translate(100.000000, 142.000000)">
                    <g id="Group-13">
                        <g id="Group-5">
                            <path d="M27.7615748,13.6557016 L14.5857253,13.6557016 L14.5857253,17.7391344 L23.9300561,17.7391344 C23.4686022,23.4654966 18.9072913,25.9073785 14.6015616,25.9073785 C9.09270868,25.9073785 4.28593424,21.3805936 4.28593424,15.0358357 C4.28593424,8.8550951 8.86792038,4.09537811 14.6134389,4.09537811 C19.0462994,4.09537811 21.6584186,7.04631076 21.6584186,7.04631076 L24.3959089,4.08573004 C24.3959089,4.08573004 20.8819971,0 14.4735511,0 C6.31298801,0 0,7.19332905 0,14.9632454 C0,22.5764955 5.93863411,30 14.6816232,30 C22.3710547,30 28,24.4987595 28,16.3631352 C28,14.6466967 27.7615748,13.6547827 27.7615748,13.6547827 L27.7615748,13.6557016" id="Fill-1" fill="#377EF4"></path>
                            <path d="M39.5552752,15 C42.3509524,15 45,17.3004864 45,21.0065903 C45,24.634552 42.3620537,27 39.5423237,27 C36.4441361,27 34,24.4749725 34,20.9778754 C34,17.5556253 36.4140701,15 39.5552752,15 L39.5552752,15 Z M39.5087886,11 C33.9697322,11 30,15.3492722 30,20.4219141 C30,25.5696996 33.8502977,30 39.5736888,30 C44.7553431,30 49,26.0228242 49,20.5328187 C49,14.2402259 44.0621724,11 39.5087886,11 L39.5087886,11 Z" id="Fill-3" fill="#E94133"></path>
                            <path d="M59.5552752,15 C62.3509524,15 65,17.3004864 65,21.0065903 C65,24.634552 62.3620537,27 59.5423237,27 C56.4441361,27 54,24.4749725 54,20.9778754 C54,17.5556253 56.4136075,15 59.5552752,15 L59.5552752,15 Z M59.5090137,11 C53.969638,11 50,15.3492722 50,20.4219141 C50,25.5696996 53.8506571,30 59.5739124,30 C64.7549931,30 69,26.0228242 69,20.5328187 C69,14.2402259 64.0622895,11 59.5090137,11 L59.5090137,11 Z" id="Fill-4" fill="#FBBC04"></path>
                            <path d="M80.1137651,15 C82.5246273,15 85,17.2218563 85,21.0167039 C85,24.8741325 82.5298579,27 80.0605876,27 C77.4391945,27 75,24.702388 75,21.0534055 C75,17.2623221 77.5329091,15 80.1137651,15 L80.1137651,15 Z M80.0071528,11 C74.9639877,11 71,15.5458878 71,20.6485088 C71,26.4606195 75.5956686,30.3149618 79.9204252,30.3149618 C82.5942281,30.3149618 84.0162925,29.2226604 85.0659646,27.9688604 L85.0659646,29.872796 C85.0659646,33.2044532 83.1007351,35.1994906 80.1341148,35.1994906 C77.2680807,35.1994906 75.8308166,33.0061458 75.3310153,31.7615479 L71.7255613,33.3130392 C73.0045698,36.0967053 75.5795748,39 80.1640672,39 C85.1781741,39 89,35.7493222 89,28.932331 L89,11.5806589 L85.0659646,11.5806589 L85.0659646,13.2163503 C83.8566958,11.8746693 82.2026128,11 80.0071528,11 L80.0071528,11 Z" id="Fill-6" fill="#377EF4"></path>
                            <path d="M106.707477,15 C108.333388,15 109.503111,15.9915708 110,17.180094 L102.032399,21 C101.688986,18.0427946 104.131457,15 106.707477,15 L106.707477,15 Z M106.646194,11 C101.945908,11 98,14.8282165 98,20.4773906 C98,26.4548527 102.398623,30 107.097584,30 C111.0192,30 113.426319,27.8032748 114.863081,25.8353563 L111.658743,23.6521967 C110.827072,24.9734876 109.437127,26.2649341 107.117017,26.2649341 C104.511146,26.2649341 103.312886,24.8039174 102.570876,23.3885716 L115,18.1083821 L114.354716,16.5609977 C113.153806,13.5308915 110.353157,11.0004522 106.646635,11.0004522 L106.646194,11 L106.646194,11 Z" id="Fill-8" fill="#E94133"></path>
                            <polygon id="Fill-9" fill="#27A348" points="92 1 96 1 96 29 92 29"></polygon>
                        </g>
                        <path d="M137.874295,24.1620879 L129.142627,24.1620879 L127.247381,30 L123,30 L131.596293,5 L135.505238,5 L144,30 L139.752619,30 L137.874295,24.1620879 Z M130,21 L136,21 L133.070496,11 L132.976501,11 L130,21 Z M145,20.658444 C145,17.7096627 145.627112,15.3330261 146.881356,13.528463 C148.135599,11.7238999 149.898294,10.8216319 152.169492,10.8216319 C153.163847,10.8216319 154.053668,11.0237171 154.838983,11.4278937 C155.624298,11.8320703 156.305082,12.4098634 156.881356,13.1612903 L156.881356,3 L161,3 L161,29.6413662 L157.661017,29.6413662 L157.169492,27.3017078 C156.581918,28.1783725 155.870061,28.8472463 155.033898,29.3083491 C154.197736,29.769452 153.231644,30 152.135593,30 C149.886994,30 148.135599,29.1745813 146.881356,27.5237192 C145.627112,25.872857 145,23.7039983 145,21.0170778 L145,20.658444 Z M150,20.5785124 C150,22.2314132 150.334786,23.5482045 151.004367,24.5289256 C151.673948,25.5096468 152.736528,26 154.19214,26 C155.088796,26 155.848614,25.8181836 156.471616,25.4545455 C157.094617,25.0909073 157.604074,24.5730061 158,23.9008264 L158,16.0991736 C157.604074,15.4380132 157.091706,14.9228669 156.462882,14.553719 C155.834058,14.1845712 155.088796,14 154.227074,14 C152.783108,14 151.717616,14.5757518 151.030568,15.7272727 C150.343519,16.8787936 150,18.380156 150,20.231405 L150,20.5785124 Z M178.881926,23.1441923 C178.881926,22.0912275 178.517574,21.2291978 177.788857,20.5580774 C177.060141,19.886957 175.769372,19.2852719 173.916512,18.753004 C171.261499,18.0008863 169.213781,17.0144698 167.773295,15.793725 C166.332809,14.5729801 165.612577,12.9790931 165.612577,11.012016 C165.612577,8.97551274 166.40342,7.2977369 167.98513,5.97863818 C169.56684,4.65953947 171.600436,4 174.08598,4 C176.752291,4 178.884743,4.73185739 180.483399,6.19559413 C182.082056,7.65933086 182.853128,9.46727896 182.796638,11.6194927 L182.762745,11.7236315 L178.797192,11.7236315 C178.797192,10.3929617 178.365053,9.33422734 177.500762,8.54739653 C176.63647,7.76056571 175.486923,7.36715621 174.052087,7.36715621 C172.662442,7.36715621 171.591979,7.70271138 170.840667,8.37383178 C170.089355,9.04495218 169.713704,9.91276726 169.713704,10.9773031 C169.713704,11.9492705 170.126072,12.7505531 170.950821,13.3811749 C171.77557,14.0117967 173.142598,14.6105891 175.051948,15.1775701 C177.639173,15.9181167 179.610632,16.927675 180.966383,18.206275 C182.322135,19.4848751 183,21.1192602 183,23.1094793 C183,25.2038378 182.197859,26.8758282 180.593554,28.1255007 C178.989248,29.3751731 176.882216,30 174.272395,30 C171.764255,30 169.578139,29.3173188 167.713981,27.9519359 C165.849823,26.586553 164.946003,24.6600035 165.002492,22.1722296 L165.036386,22.0680908 L169.001938,22.0680908 C169.001938,23.5838972 169.513162,24.7265204 170.535624,25.4959947 C171.558087,26.2654689 172.803664,26.6502003 174.272395,26.6502003 C175.729828,26.6502003 176.862428,26.3348941 177.67023,25.7042724 C178.478031,25.0736506 178.881926,24.2202991 178.881926,23.1441923 L178.881926,23.1441923 Z M194.217391,30 C191.641291,30 189.627725,29.1568847 188.17663,27.4706289 C186.725536,25.7843731 186,23.5990409 186,20.9145667 L186,20.2378119 C186,17.5533378 186.725536,15.3398077 188.17663,13.5971554 C189.627725,11.854503 191.499989,10.9888295 193.793478,11.0001088 C196.163055,11.0001088 197.956516,11.7586306 199.173913,13.2756968 C200.39131,14.7927631 201,16.8201875 201,19.3580307 L201,21.5744027 L190.092391,21.5744027 L190.059783,21.658997 C190.103261,23.1591443 190.483692,24.3772908 191.201087,25.313473 C191.918482,26.2496551 192.999993,26.7177392 194.445652,26.7177392 C195.521745,26.7177392 196.4538,26.5823896 197.241848,26.3116863 C198.029895,26.040983 198.760866,25.6518529 199.434783,25.1442843 L200.722826,27.8343846 C200.04891,28.443467 199.157614,28.9566676 198.048913,29.3740018 C196.940212,29.791336 195.663051,30 194.217391,30 L194.217391,30 Z M193.672941,14 C192.629799,14 191.795297,14.3624302 191.169412,15.0873016 C190.543526,15.8121729 190.153726,16.7566079 190,17.9206349 L190.032941,18 L197,18 L197,17.6984127 C197,16.5978781 196.733728,15.7063526 196.201176,15.0238095 C195.668625,14.3412664 194.825888,14 193.672941,14 L193.672941,14 Z M207.663366,11.3448276 L207.894389,14.0344828 C208.477451,13.080455 209.211767,12.3362096 210.09736,11.8017241 C210.982953,11.2672387 211.981293,11 213.092409,11 C214.951604,11 216.400985,11.5976952 217.440594,12.7931034 C218.480203,13.9885117 219,15.8563091 219,18.3965517 L219,30 L214.990099,30 L214.990099,18.4310345 C214.990099,16.9827514 214.720575,15.954026 214.181518,15.3448276 C213.642462,14.7356291 212.828388,14.4310345 211.739274,14.4310345 C210.881184,14.4310345 210.138617,14.600573 209.511551,14.9396552 C208.884485,15.2787373 208.38394,15.7471234 208.009901,16.3448276 L208.009901,30 L204,30 L204,11.3448276 L207.663366,11.3448276 Z M233.959568,24.6366874 C233.959568,24.0050428 233.691899,23.4833799 233.156553,23.071683 C232.621207,22.6599861 231.6097,22.2905923 230.122002,21.9634907 C227.969348,21.5235953 226.323888,20.8750414 225.185574,20.0178094 C224.04726,19.1605775 223.478111,18.0100992 223.478111,16.5663402 C223.478111,15.0323461 224.126151,13.7211393 225.422252,12.6326803 C226.718353,11.5442213 228.425799,11 230.544641,11 C232.731107,11 234.492086,11.5611401 235.827634,12.6834372 C237.163181,13.8057343 237.802769,15.1564183 237.746416,16.7355298 L237.712605,16.8370436 L233.773606,16.8370436 C233.773606,16.0926054 233.480579,15.4468712 232.894516,14.8998219 C232.308453,14.3527726 231.52517,14.079252 230.544641,14.079252 C229.552843,14.079252 228.797734,14.304836 228.279294,14.7560107 C227.760854,15.2071854 227.501638,15.7598661 227.501638,16.4140695 C227.501638,17.0344347 227.743949,17.5307194 228.228578,17.9029386 C228.713206,18.2751577 229.710625,18.6078941 231.220864,18.9011576 C233.463682,19.3523323 235.154222,20.0149852 236.292537,20.8891362 C237.430851,21.7632872 238,22.9335041 238,24.3998219 C238,26.0466096 237.320966,27.391654 235.962878,28.4349955 C234.60479,29.4783371 232.815635,30 230.595358,30 C228.217295,30 226.340795,29.3909233 224.965802,28.1727516 C223.590808,26.9545798 222.937132,25.5559592 223.004755,23.9768477 L223.038566,23.8753339 L226.859226,23.8753339 C226.904308,24.9355945 227.287497,25.7082196 228.008805,26.1932324 C228.730113,26.6782452 229.609194,26.920748 230.646075,26.920748 C231.694226,26.920748 232.508503,26.7120828 233.08893,26.2947462 C233.669358,25.8774096 233.959568,25.3247289 233.959568,24.6366874 L233.959568,24.6366874 Z M249.217391,30 C246.641291,30 244.627725,29.1568847 243.17663,27.4706289 C241.725536,25.7843731 241,23.5990409 241,20.9145667 L241,20.2378119 C241,17.5533378 241.725536,15.3398077 243.17663,13.5971554 C244.627725,11.854503 246.499989,10.9888295 248.793478,11.0001088 C251.163055,11.0001088 252.956516,11.7586306 254.173913,13.2756968 C255.39131,14.7927631 256,16.8201875 256,19.3580307 L256,21.5744027 L245.092391,21.5744027 L245.059783,21.658997 C245.103261,23.1591443 245.483692,24.3772908 246.201087,25.313473 C246.918482,26.2496551 247.999993,26.7177392 249.445652,26.7177392 C250.521745,26.7177392 251.4538,26.5823896 252.241848,26.3116863 C253.029895,26.040983 253.760866,25.6518529 254.434783,25.1442843 L255.722826,27.8343846 C255.04891,28.443467 254.157614,28.9566676 253.048913,29.3740018 C251.940212,29.791336 250.663051,30 249.217391,30 L249.217391,30 Z M248.672941,14 C247.629799,14 246.795297,14.3624302 246.169412,15.0873016 C245.543526,15.8121729 245.153726,16.7566079 245,17.9206349 L245.032941,18 L252,18 L252,17.6984127 C252,16.5978781 251.733728,15.7063526 251.201176,15.0238095 C250.668625,14.3412664 249.825888,14 248.672941,14 L248.672941,14 Z" id="AdSense" fill="#758292"></path>
                    </g>
                </g>
            </g>
        </g>
    </g>
</svg>