<svg xmlns="http://www.w3.org/2000/svg" width="186" height="116" viewBox="0 0 186 116">
  <g fill="none" fill-rule="evenodd" transform="translate(1 1)">
    <path fill="#FFFFFF" stroke="#374D6B" stroke-width="2" d="M178,114 L6,114 C2.66594394,114 0,111.316785 0,108 L0,6 C0,2.68221123 2.66594394,0 6,0 L178,0 C181.334056,0 184,2.68221123 184,6 L184,108 C184,111.316785 181.334056,114 178,114 Z" stroke-linecap="round" stroke-linejoin="round"/>
    <path fill="#374D6B" d="M12.7844664,58.6750617 L15.0163312,58.6750617 C15.2104074,58.6750617 15.3842647,58.6972993 15.5379083,58.7417751 C15.6915519,58.7862508 15.8411501,58.8772227 15.9867072,59.0146933 C16.1565238,59.1764234 16.2616469,59.3361296 16.3020794,59.4938165 C16.3425119,59.6515033 16.3627279,59.8354686 16.3627279,60.0457178 L16.3627279,62.6414736 C16.3627279,62.8274633 16.3465551,62.9932342 16.3142091,63.1387913 C16.2818631,63.2843484 16.2009992,63.4339466 16.0716151,63.5875902 C15.9179715,63.7735799 15.7582653,63.8888109 15.5924919,63.9332867 C15.4267186,63.9777624 15.2346669,64 15.0163312,64 L12.3235378,64 C12.1618077,64 12.0263607,63.979784 11.9171928,63.9393515 C11.808025,63.898919 11.6766212,63.8463575 11.5229776,63.7816654 L11.062049,63.5754605 C10.9811839,63.5431145 10.9003201,63.5087473 10.819455,63.4723581 C10.7385899,63.4359688 10.6637909,63.3935152 10.5950555,63.3449962 C10.5263202,63.2964772 10.4717371,63.2358293 10.4313046,63.1630507 C10.3908721,63.0902721 10.3706561,63.0013219 10.3706561,62.8961973 C10.3706561,62.7344672 10.4272608,62.5929554 10.5404719,62.4716578 C10.653683,62.3503602 10.7911516,62.2897123 10.9528817,62.2897123 C11.0256603,62.2897123 11.0923729,62.2977987 11.1530217,62.3139717 C11.2136706,62.3301447 11.27634,62.3544039 11.3410321,62.3867499 L11.7049231,62.544436 C11.7938747,62.5848685 11.8989977,62.6354084 12.0202953,62.6960573 C12.1415929,62.7567061 12.2507591,62.78703 12.3477972,62.78703 L15.1497579,62.78703 L15.1497579,59.8880317 L11.5714964,59.8880317 L11.5714964,54.5630934 L15.7562429,54.5630934 C15.917973,54.5630934 16.0594848,54.6095901 16.1807824,54.702585 C16.30208,54.7955798 16.3627279,54.9512427 16.3627279,55.1695784 C16.3627279,55.3879141 16.30208,55.543577 16.1807824,55.6365719 C16.0594848,55.7295667 15.917973,55.7760634 15.7562429,55.7760634 L12.7844664,55.7760634 L12.7844664,58.6750617 Z M23.8831419,57.6682966 L23.8831419,55.7760634 L20.3170101,55.7760634 L20.3170101,57.6682966 L23.8831419,57.6682966 Z M23.8831419,58.8812666 L19.7105251,58.8812666 C19.5407085,58.8812666 19.3971751,58.8206187 19.2799207,58.6993211 C19.1626664,58.5780235 19.1040401,58.4365117 19.1040401,58.2747816 L19.1040401,55.1695784 C19.1040401,55.0078483 19.1626664,54.8663365 19.2799207,54.7450389 C19.3971751,54.6237413 19.5407085,54.5630934 19.7105251,54.5630934 L24.4896269,54.5630934 C24.6594435,54.5630934 24.8029769,54.6237413 24.9202312,54.7450389 C25.0374856,54.8663365 25.0961119,55.0078483 25.0961119,55.1695784 L25.0961119,63.393515 C25.0961119,63.5552451 25.0415288,63.6967569 24.9323609,63.8180545 C24.8231931,63.9393521 24.6756166,64 24.4896269,64 L23.8831419,64 C23.6971522,64 23.5495757,63.9393521 23.4404078,63.8180545 C23.33124,63.6967569 23.2766569,63.5552451 23.2766569,63.393515 C23.2766569,63.2075253 23.3332616,63.0599488 23.4464727,62.950781 C23.5596838,62.8416131 23.7052387,62.78703 23.8831419,62.78703 L23.8831419,58.8812666 Z M32.0100409,59.7060862 L32.0100409,56.2006029 C32.0100409,56.0469593 32.0524944,55.9074691 32.1374027,55.7821283 C32.2223111,55.6567874 32.3820172,55.5941179 32.6165259,55.5941179 C32.8510346,55.5941179 33.0107407,55.6567874 33.095649,55.7821283 C33.1805574,55.9074691 33.2230109,56.0469593 33.2230109,56.2006029 L33.2230109,59.7060862 C33.384741,59.7060862 33.5262528,59.7525829 33.6475504,59.8455778 C33.768848,59.9385726 33.8294959,60.0942355 33.8294959,60.3125712 C33.8294959,60.5309069 33.768848,60.6865698 33.6475504,60.7795647 C33.5262528,60.8725595 33.384741,60.9190562 33.2230109,60.9190562 L33.2230109,63.393515 C33.2230109,63.5875912 33.1765142,63.7371893 33.0835193,63.8423139 C32.9905245,63.9474385 32.8348616,64 32.6165259,64 C32.3981902,64 32.2425273,63.9474385 32.1495324,63.8423139 C32.0565376,63.7371893 32.0100409,63.5875912 32.0100409,63.393515 L32.0100409,60.9190562 L28.4439091,60.9190562 L28.4439091,55.1695784 C28.4439091,55.0159348 28.4863626,54.8764446 28.5712709,54.7511038 C28.6561793,54.6257629 28.8158854,54.5630934 29.0503941,54.5630934 C29.2849028,54.5630934 29.4446089,54.6257629 29.5295172,54.7511038 C29.6144256,54.8764446 29.6568791,55.0159348 29.6568791,55.1695784 L29.6568791,59.7060862 L32.0100409,59.7060862 Z M37.7837781,62.78703 L41.9563949,62.78703 C42.118125,62.78703 42.2596368,62.8335267 42.3809344,62.9265216 C42.502232,63.0195164 42.5628799,63.1751793 42.5628799,63.393515 C42.5628799,63.6118507 42.502232,63.7675136 42.3809344,63.8605085 C42.2596368,63.9535033 42.118125,64 41.9563949,64 L36.5708081,64 L36.5708081,60.0457178 C36.5708081,59.1319425 37.0276889,58.6750617 37.9414642,58.6750617 L41.3499099,58.6750617 L41.3499099,55.7760634 L37.1772931,55.7760634 C37.015563,55.7760634 36.8740512,55.7295667 36.7527536,55.6365719 C36.631456,55.543577 36.5708081,55.3879141 36.5708081,55.1695784 C36.5708081,54.9512427 36.631456,54.7955798 36.7527536,54.702585 C36.8740512,54.6095901 37.015563,54.5630934 37.1772931,54.5630934 L41.2043535,54.5630934 C41.4065162,54.5630934 41.5823951,54.585331 41.7319954,54.6298068 C41.8815958,54.6742825 42.0332156,54.7652544 42.1868592,54.902725 C42.3566758,55.0644551 42.4617989,55.2302261 42.5022314,55.4000427 C42.5426639,55.5698593 42.5628799,55.7639326 42.5628799,55.9822683 L42.5628799,58.4688568 C42.5628799,58.6871925 42.5426639,58.8812658 42.5022314,59.0510824 C42.4617989,59.220899 42.3566758,59.38667 42.1868592,59.5484001 C42.0332156,59.6858707 41.8815958,59.7768426 41.7319954,59.8213184 C41.5823951,59.8657941 41.4065162,59.8880317 41.2043535,59.8880317 L37.7837781,59.8880317 L37.7837781,62.78703 Z M58.8166779,62.78703 L58.8166779,59.8880317 L55.2505461,59.8880317 L55.2505461,62.78703 L58.8166779,62.78703 Z M58.2101929,54.5630934 C58.4204421,54.5630934 58.5740834,54.6237413 58.6711215,54.7450389 C58.7681596,54.8663365 58.8166779,55.0078483 58.8166779,55.1695784 L58.8166779,58.6750617 C59.0026676,58.6750617 59.1684385,58.7053856 59.3139956,58.7660345 C59.4595527,58.8266833 59.5889349,58.9095687 59.702146,59.0146933 C59.9204817,59.2249425 60.0296479,59.5200956 60.0296479,59.9001614 L60.0296479,62.78703 C60.0296479,63.1590093 59.9225033,63.4541624 59.7082108,63.6724981 C59.4939184,63.8908338 59.1967437,64 58.8166779,64 L55.2505461,64 C54.8704803,64 54.5733056,63.8908338 54.3590131,63.6724981 C54.1447207,63.4541624 54.0375761,63.1590093 54.0375761,62.78703 L54.0375761,59.9001614 C54.0375761,59.5200956 54.1467423,59.2249425 54.365078,59.0146933 C54.4782891,58.9095687 54.6076713,58.8266833 54.7532284,58.7660345 C54.8987855,58.7053856 55.0645564,58.6750617 55.2505461,58.6750617 L55.2505461,55.1695784 C55.2505461,55.0078483 55.2990644,54.8663365 55.3961025,54.7450389 C55.4931406,54.6237413 55.6467819,54.5630934 55.8570311,54.5630934 L58.2101929,54.5630934 Z M57.6037079,58.6750617 L57.6037079,55.7760634 L56.4635161,55.7760634 L56.4635161,58.6750617 L57.6037079,58.6750617 Z M67.5500619,62.78703 L67.5500619,60.3368306 C67.5500619,60.1589274 67.594537,60.0133725 67.6834886,59.9001614 C67.7724402,59.7869503 67.9301247,59.7303456 68.1565469,59.7303456 C68.3829691,59.7303456 68.5406536,59.7869503 68.6296052,59.9001614 C68.7185568,60.0133725 68.7630319,60.1589274 68.7630319,60.3368306 L68.7630319,63.393515 C68.7630319,63.6118507 68.702384,63.7675136 68.5810864,63.8605085 C68.4597888,63.9535033 68.318277,64 68.1565469,64 L63.3774451,64 C63.215715,64 63.0742032,63.9535033 62.9529056,63.8605085 C62.831608,63.7675136 62.7709601,63.6118507 62.7709601,63.393515 C62.7709601,63.1751793 62.831608,63.0195164 62.9529056,62.9265216 C63.0742032,62.8335267 63.215715,62.78703 63.3774451,62.78703 L65.160511,62.78703 L65.160511,55.7760634 L63.3774451,55.7760634 C63.215715,55.7760634 63.0742032,55.7295667 62.9529056,55.6365719 C62.831608,55.543577 62.7709601,55.3879141 62.7709601,55.1695784 C62.7709601,54.9512427 62.831608,54.7955798 62.9529056,54.702585 C63.0742032,54.6095901 63.215715,54.5630934 63.3774451,54.5630934 L66.373481,54.5630934 L66.373481,62.78703 L67.5500619,62.78703 Z M72.7173141,55.7760634 C72.7173141,55.913534 72.6647526,56.048981 72.559628,56.1824084 C72.4545034,56.3158357 72.3049053,56.3825484 72.1108291,56.3825484 C71.9167529,56.3825484 71.7671548,56.3158357 71.6620302,56.1824084 C71.5569056,56.048981 71.5043441,55.913534 71.5043441,55.7760634 L71.5043441,55.1695784 C71.5043441,55.0321078 71.5569056,54.8966608 71.6620302,54.7632335 C71.7671548,54.6298061 71.9167529,54.5630934 72.1108291,54.5630934 L77.4964159,54.5630934 L77.4964159,58.0807064 C77.4964159,58.185831 77.4943943,58.270738 77.490351,58.3354301 C77.4863078,58.4001222 77.4761998,58.4587485 77.4600268,58.5113108 C77.4438538,58.563873 77.4115082,58.614413 77.3629892,58.662932 C77.3144702,58.711451 77.2497791,58.7720989 77.168914,58.8448775 L75.470756,60.3125712 C75.3898909,60.3853498 75.3272214,60.4439761 75.2827456,60.4884519 C75.2382699,60.5329276 75.2039027,60.5774028 75.1796432,60.6218786 C75.1553837,60.6663543 75.1412325,60.7209374 75.1371892,60.7856295 C75.133146,60.8503216 75.1311244,60.9352286 75.1311244,61.0403532 L75.1311244,63.393515 C75.1311244,63.5875912 75.0846277,63.7371893 74.9916328,63.8423139 C74.898638,63.9474385 74.7429751,64 74.5246394,64 C74.3063037,64 74.1506408,63.9474385 74.0576459,63.8423139 C73.9646511,63.7371893 73.9181544,63.5875912 73.9181544,63.393515 L73.9181544,60.4702573 C73.9181544,60.3732192 73.920176,60.294377 73.9242192,60.2337282 C73.9282625,60.1730793 73.9403921,60.1184962 73.9606083,60.0699772 C73.9808246,60.0214582 74.0131702,59.9749614 74.0576459,59.9304857 C74.1021217,59.8860099 74.160748,59.8314268 74.2335266,59.7667347 L75.9074252,58.3233004 C76.0044633,58.2343488 76.0792624,58.1635929 76.1318246,58.1110307 C76.1843869,58.0584684 76.2227973,58.0059068 76.2470568,57.9533446 C76.2713163,57.9007823 76.2834459,57.8381128 76.2834459,57.7653342 L76.2834459,55.7760634 L72.7173141,55.7760634 Z M84.4103449,59.7060862 L84.4103449,56.2006029 C84.4103449,56.0469593 84.4527984,55.9074691 84.5377067,55.7821283 C84.6226151,55.6567874 84.7823212,55.5941179 85.0168299,55.5941179 C85.2513386,55.5941179 85.4110447,55.6567874 85.495953,55.7821283 C85.5808614,55.9074691 85.6233149,56.0469593 85.6233149,56.2006029 L85.6233149,59.7060862 C85.785045,59.7060862 85.9265568,59.7525829 86.0478544,59.8455778 C86.169152,59.9385726 86.2297999,60.0942355 86.2297999,60.3125712 C86.2297999,60.5309069 86.169152,60.6865698 86.0478544,60.7795647 C85.9265568,60.8725595 85.785045,60.9190562 85.6233149,60.9190562 L85.6233149,63.393515 C85.6233149,63.5875912 85.5768182,63.7371893 85.4838233,63.8423139 C85.3908285,63.9474385 85.2351656,64 85.0168299,64 C84.7984942,64 84.6428313,63.9474385 84.5498364,63.8423139 C84.4568416,63.7371893 84.4103449,63.5875912 84.4103449,63.393515 L84.4103449,60.9190562 L80.8442131,60.9190562 L80.8442131,55.1695784 C80.8442131,55.0159348 80.8866666,54.8764446 80.9715749,54.7511038 C81.0564833,54.6257629 81.2161894,54.5630934 81.4506981,54.5630934 C81.6852068,54.5630934 81.8449129,54.6257629 81.9298212,54.7511038 C82.0147296,54.8764446 82.0571831,55.0159348 82.0571831,55.1695784 L82.0571831,59.7060862 L84.4103449,59.7060862 Z M102.483598,62.78703 L102.483598,59.8880317 L98.9174661,59.8880317 L98.9174661,62.78703 L102.483598,62.78703 Z M101.877113,54.5630934 C102.087362,54.5630934 102.241003,54.6237413 102.338041,54.7450389 C102.43508,54.8663365 102.483598,55.0078483 102.483598,55.1695784 L102.483598,58.6750617 C102.669588,58.6750617 102.835358,58.7053856 102.980916,58.7660345 C103.126473,58.8266833 103.255855,58.9095687 103.369066,59.0146933 C103.587402,59.2249425 103.696568,59.5200956 103.696568,59.9001614 L103.696568,62.78703 C103.696568,63.1590093 103.589423,63.4541624 103.375131,63.6724981 C103.160838,63.8908338 102.863664,64 102.483598,64 L98.9174661,64 C98.5374003,64 98.2402256,63.8908338 98.0259331,63.6724981 C97.8116407,63.4541624 97.7044961,63.1590093 97.7044961,62.78703 L97.7044961,59.9001614 C97.7044961,59.5200956 97.8136623,59.2249425 98.031998,59.0146933 C98.1452091,58.9095687 98.2745913,58.8266833 98.4201484,58.7660345 C98.5657055,58.7053856 98.7314764,58.6750617 98.9174661,58.6750617 L98.9174661,55.1695784 C98.9174661,55.0078483 98.9659844,54.8663365 99.0630225,54.7450389 C99.1600606,54.6237413 99.3137019,54.5630934 99.5239511,54.5630934 L101.877113,54.5630934 Z M101.270628,58.6750617 L101.270628,55.7760634 L100.130436,55.7760634 L100.130436,58.6750617 L101.270628,58.6750617 Z M107.044365,55.7760634 C106.882635,55.7760634 106.741123,55.7295667 106.619826,55.6365719 C106.498528,55.543577 106.43788,55.3879141 106.43788,55.1695784 C106.43788,54.9512427 106.498528,54.7955798 106.619826,54.702585 C106.741123,54.6095901 106.882635,54.5630934 107.044365,54.5630934 L111.216982,54.5630934 C111.564702,54.5630934 111.85379,54.6783244 112.084255,54.9087899 C112.314721,55.1392553 112.429952,55.4283436 112.429952,55.7760634 L112.429952,58.1049658 C112.429952,58.347561 112.397606,58.5618502 112.332914,58.7478399 C112.268222,58.9338296 112.142883,59.1117301 111.956894,59.2815467 C112.142883,59.4513633 112.268222,59.6292638 112.332914,59.8152535 C112.397606,60.0012432 112.429952,60.2155324 112.429952,60.4581276 L112.429952,62.78703 C112.429952,63.1347498 112.314721,63.4238381 112.084255,63.6543036 C111.85379,63.884769 111.564702,64 111.216982,64 L107.044365,64 C106.882635,64 106.741123,63.9535033 106.619826,63.8605085 C106.498528,63.7675136 106.43788,63.6118507 106.43788,63.393515 C106.43788,63.1751793 106.498528,63.0195164 106.619826,62.9265216 C106.741123,62.8335267 106.882635,62.78703 107.044365,62.78703 L111.216982,62.78703 L111.216982,60.7734998 C111.216982,60.4338665 111.158356,60.2013829 111.041101,60.0760421 C110.923847,59.9507012 110.780314,59.8880317 110.610497,59.8880317 L108.233076,59.8880317 C108.071346,59.8880317 107.929834,59.841535 107.808536,59.7485402 C107.687239,59.6555453 107.626591,59.4998824 107.626591,59.2815467 C107.626591,59.063211 107.687239,58.9075481 107.808536,58.8145533 C107.929834,58.7215584 108.071346,58.6750617 108.233076,58.6750617 L110.610497,58.6750617 C110.780314,58.6750617 110.923847,58.6123922 111.041101,58.4870514 C111.158356,58.3617105 111.216982,58.1292269 111.216982,57.7895936 L111.216982,55.7760634 L107.044365,55.7760634 Z M119.950366,62.78703 L119.950366,60.3368306 C119.950366,60.1589274 119.994841,60.0133725 120.083793,59.9001614 C120.172744,59.7869503 120.330429,59.7303456 120.556851,59.7303456 C120.783273,59.7303456 120.940958,59.7869503 121.029909,59.9001614 C121.118861,60.0133725 121.163336,60.1589274 121.163336,60.3368306 L121.163336,63.393515 C121.163336,63.6118507 121.102688,63.7675136 120.98139,63.8605085 C120.860093,63.9535033 120.718581,64 120.556851,64 L115.777749,64 C115.616019,64 115.474507,63.9535033 115.35321,63.8605085 C115.231912,63.7675136 115.171264,63.6118507 115.171264,63.393515 C115.171264,63.1751793 115.231912,63.0195164 115.35321,62.9265216 C115.474507,62.8335267 115.616019,62.78703 115.777749,62.78703 L117.560815,62.78703 L117.560815,55.7760634 L115.777749,55.7760634 C115.616019,55.7760634 115.474507,55.7295667 115.35321,55.6365719 C115.231912,55.543577 115.171264,55.3879141 115.171264,55.1695784 C115.171264,54.9512427 115.231912,54.7955798 115.35321,54.702585 C115.474507,54.6095901 115.616019,54.5630934 115.777749,54.5630934 L118.773785,54.5630934 L118.773785,62.78703 L119.950366,62.78703 Z M125.117618,62.78703 L129.290235,62.78703 C129.451965,62.78703 129.593477,62.8335267 129.714774,62.9265216 C129.836072,63.0195164 129.89672,63.1751793 129.89672,63.393515 C129.89672,63.6118507 129.836072,63.7675136 129.714774,63.8605085 C129.593477,63.9535033 129.451965,64 129.290235,64 L123.904648,64 L123.904648,60.0457178 C123.904648,59.1319425 124.361529,58.6750617 125.275304,58.6750617 L128.68375,58.6750617 L128.68375,55.7760634 L124.511133,55.7760634 C124.349403,55.7760634 124.207891,55.7295667 124.086594,55.6365719 C123.965296,55.543577 123.904648,55.3879141 123.904648,55.1695784 C123.904648,54.9512427 123.965296,54.7955798 124.086594,54.702585 C124.207891,54.6095901 124.349403,54.5630934 124.511133,54.5630934 L128.538193,54.5630934 C128.740356,54.5630934 128.916235,54.585331 129.065835,54.6298068 C129.215436,54.6742825 129.367056,54.7652544 129.520699,54.902725 C129.690516,55.0644551 129.795639,55.2302261 129.836071,55.4000427 C129.876504,55.5698593 129.89672,55.7639326 129.89672,55.9822683 L129.89672,58.4688568 C129.89672,58.6871925 129.876504,58.8812658 129.836071,59.0510824 C129.795639,59.220899 129.690516,59.38667 129.520699,59.5484001 C129.367056,59.6858707 129.215436,59.7768426 129.065835,59.8213184 C128.916235,59.8657941 128.740356,59.8880317 128.538193,59.8880317 L125.117618,59.8880317 L125.117618,62.78703 Z M142.584386,55.7760634 C142.584386,55.913534 142.531825,56.048981 142.4267,56.1824084 C142.321575,56.3158357 142.171977,56.3825484 141.977901,56.3825484 C141.783825,56.3825484 141.634227,56.3158357 141.529102,56.1824084 C141.423978,56.048981 141.371416,55.913534 141.371416,55.7760634 L141.371416,55.1695784 C141.371416,55.0321078 141.423978,54.8966608 141.529102,54.7632335 C141.634227,54.6298061 141.783825,54.5630934 141.977901,54.5630934 L147.363488,54.5630934 L147.363488,58.0807064 C147.363488,58.185831 147.361466,58.270738 147.357423,58.3354301 C147.35338,58.4001222 147.343272,58.4587485 147.327099,58.5113108 C147.310926,58.563873 147.27858,58.614413 147.230061,58.662932 C147.181542,58.711451 147.116851,58.7720989 147.035986,58.8448775 L145.337828,60.3125712 C145.256963,60.3853498 145.194293,60.4439761 145.149818,60.4884519 C145.105342,60.5329276 145.070975,60.5774028 145.046715,60.6218786 C145.022456,60.6663543 145.008305,60.7209374 145.004261,60.7856295 C145.000218,60.8503216 144.998196,60.9352286 144.998196,61.0403532 L144.998196,63.393515 C144.998196,63.5875912 144.9517,63.7371893 144.858705,63.8423139 C144.76571,63.9474385 144.610047,64 144.391711,64 C144.173376,64 144.017713,63.9474385 143.924718,63.8423139 C143.831723,63.7371893 143.785226,63.5875912 143.785226,63.393515 L143.785226,60.4702573 C143.785226,60.3732192 143.787248,60.294377 143.791291,60.2337282 C143.795335,60.1730793 143.807464,60.1184962 143.82768,60.0699772 C143.847897,60.0214582 143.880242,59.9749614 143.924718,59.9304857 C143.969194,59.8860099 144.02782,59.8314268 144.100599,59.7667347 L145.774497,58.3233004 C145.871535,58.2343488 145.946334,58.1635929 145.998897,58.1110307 C146.051459,58.0584684 146.089869,58.0059068 146.114129,57.9533446 C146.138388,57.9007823 146.150518,57.8381128 146.150518,57.7653342 L146.150518,55.7760634 L142.584386,55.7760634 Z M152.51861,58.6750617 L154.750475,58.6750617 C154.944551,58.6750617 155.118409,58.6972993 155.272052,58.7417751 C155.425696,58.7862508 155.575294,58.8772227 155.720851,59.0146933 C155.890668,59.1764234 155.995791,59.3361296 156.036223,59.4938165 C156.076656,59.6515033 156.096872,59.8354686 156.096872,60.0457178 L156.096872,62.6414736 C156.096872,62.8274633 156.080699,62.9932342 156.048353,63.1387913 C156.016007,63.2843484 155.935143,63.4339466 155.805759,63.5875902 C155.652115,63.7735799 155.492409,63.8888109 155.326636,63.9332867 C155.160863,63.9777624 154.968811,64 154.750475,64 L152.057682,64 C151.895952,64 151.760505,63.979784 151.651337,63.9393515 C151.542169,63.898919 151.410765,63.8463575 151.257122,63.7816654 L150.796193,63.5754605 C150.715328,63.5431145 150.634464,63.5087473 150.553599,63.4723581 C150.472734,63.4359688 150.397935,63.3935152 150.3292,63.3449962 C150.260464,63.2964772 150.205881,63.2358293 150.165449,63.1630507 C150.125016,63.0902721 150.1048,63.0013219 150.1048,62.8961973 C150.1048,62.7344672 150.161405,62.5929554 150.274616,62.4716578 C150.387827,62.3503602 150.525296,62.2897123 150.687026,62.2897123 C150.759804,62.2897123 150.826517,62.2977987 150.887166,62.3139717 C150.947815,62.3301447 151.010484,62.3544039 151.075176,62.3867499 L151.439067,62.544436 C151.528019,62.5848685 151.633142,62.6354084 151.754439,62.6960573 C151.875737,62.7567061 151.984903,62.78703 152.081941,62.78703 L154.883902,62.78703 L154.883902,59.8880317 L151.30564,59.8880317 L151.30564,54.5630934 L155.490387,54.5630934 C155.652117,54.5630934 155.793629,54.6095901 155.914926,54.702585 C156.036224,54.7955798 156.096872,54.9512427 156.096872,55.1695784 C156.096872,55.3879141 156.036224,55.543577 155.914926,55.6365719 C155.793629,55.7295667 155.652117,55.7760634 155.490387,55.7760634 L152.51861,55.7760634 L152.51861,58.6750617 Z M159.444669,55.7760634 C159.282939,55.7760634 159.141427,55.7295667 159.02013,55.6365719 C158.898832,55.543577 158.838184,55.3879141 158.838184,55.1695784 C158.838184,54.9512427 158.898832,54.7955798 159.02013,54.702585 C159.141427,54.6095901 159.282939,54.5630934 159.444669,54.5630934 L163.617286,54.5630934 C163.965006,54.5630934 164.254094,54.6783244 164.484559,54.9087899 C164.715025,55.1392553 164.830256,55.4283436 164.830256,55.7760634 L164.830256,58.1049658 C164.830256,58.347561 164.79791,58.5618502 164.733218,58.7478399 C164.668526,58.9338296 164.543187,59.1117301 164.357198,59.2815467 C164.543187,59.4513633 164.668526,59.6292638 164.733218,59.8152535 C164.79791,60.0012432 164.830256,60.2155324 164.830256,60.4581276 L164.830256,62.78703 C164.830256,63.1347498 164.715025,63.4238381 164.484559,63.6543036 C164.254094,63.884769 163.965006,64 163.617286,64 L159.444669,64 C159.282939,64 159.141427,63.9535033 159.02013,63.8605085 C158.898832,63.7675136 158.838184,63.6118507 158.838184,63.393515 C158.838184,63.1751793 158.898832,63.0195164 159.02013,62.9265216 C159.141427,62.8335267 159.282939,62.78703 159.444669,62.78703 L163.617286,62.78703 L163.617286,60.7734998 C163.617286,60.4338665 163.55866,60.2013829 163.441405,60.0760421 C163.324151,59.9507012 163.180618,59.8880317 163.010801,59.8880317 L160.63338,59.8880317 C160.47165,59.8880317 160.330138,59.841535 160.20884,59.7485402 C160.087543,59.6555453 160.026895,59.4998824 160.026895,59.2815467 C160.026895,59.063211 160.087543,58.9075481 160.20884,58.8145533 C160.330138,58.7215584 160.47165,58.6750617 160.63338,58.6750617 L163.010801,58.6750617 C163.180618,58.6750617 163.324151,58.6123922 163.441405,58.4870514 C163.55866,58.3617105 163.617286,58.1292269 163.617286,57.7895936 L163.617286,55.7760634 L159.444669,55.7760634 Z M172.35067,62.78703 L172.35067,59.8880317 L168.784538,59.8880317 L168.784538,62.78703 L172.35067,62.78703 Z M171.744185,54.5630934 C171.954434,54.5630934 172.108075,54.6237413 172.205113,54.7450389 C172.302152,54.8663365 172.35067,55.0078483 172.35067,55.1695784 L172.35067,58.6750617 C172.53666,58.6750617 172.70243,58.7053856 172.847988,58.7660345 C172.993545,58.8266833 173.122927,58.9095687 173.236138,59.0146933 C173.454474,59.2249425 173.56364,59.5200956 173.56364,59.9001614 L173.56364,62.78703 C173.56364,63.1590093 173.456495,63.4541624 173.242203,63.6724981 C173.02791,63.8908338 172.730736,64 172.35067,64 L168.784538,64 C168.404472,64 168.107298,63.8908338 167.893005,63.6724981 C167.678713,63.4541624 167.571568,63.1590093 167.571568,62.78703 L167.571568,59.9001614 C167.571568,59.5200956 167.680734,59.2249425 167.89907,59.0146933 C168.012281,58.9095687 168.141663,58.8266833 168.28722,58.7660345 C168.432778,58.7053856 168.598548,58.6750617 168.784538,58.6750617 L168.784538,55.1695784 C168.784538,55.0078483 168.833056,54.8663365 168.930094,54.7450389 C169.027133,54.6237413 169.180774,54.5630934 169.391023,54.5630934 L171.744185,54.5630934 Z M171.1377,58.6750617 L171.1377,55.7760634 L169.997508,55.7760634 L169.997508,58.6750617 L171.1377,58.6750617 Z"/>
    <g stroke="#374D6B" stroke-width="2" transform="translate(11 16)" stroke-linecap="round" stroke-linejoin="round">
      <path d="M31 0L4 0C1.88436468 0 0 1.91122932 0 4L0 25C0 27.0887707 1.88436468 29 4 29L31 29C33.1156353 29 35 27.0887707 35 25L35 4C35 1.91122932 33.1156353 0 31 0zM13 28.121L13 7M22 28.121L22 7M23 11L33.59 11M23 16L33.59 16M23 21L33.59 21M0 11L12.59 11M0 16L12.59 16M0 21L12.59 21"/>
    </g>
    <g stroke="#374D6B" stroke-width="2" transform="translate(157 22)" stroke-linecap="round" stroke-linejoin="round">
      <path d="M0 12C.319 11.2336842.503 10.3905263.503 9.5.503 8.60947368.319 7.76631579 0 7M4 14C4.624 12.6213425 4.977 11.1013339 4.977 9.5 4.977 7.89866609 4.624 6.37768933 4 5M8 16C8.63875433 13.8580749 9 11.4934389 9 9.00051316 9 6.50758742 8.63875433 4.1429514 8 2M12 18C13.2772586 15.2450593 14 12.2045455 14 9 14 5.79545455 13.2772586 2.75494071 12 0"/>
    </g>
    <path fill="#374D6B" d="M10.5771281,90.1376403 L15.6332805,90.1376403 C16.8888206,90.1376403 17.9170493,90.5381083 18.7179973,91.3390563 C19.5189453,92.1400043 19.9194133,93.1713254 19.9194133,94.4330504 C19.9194133,95.7009604 19.5173991,96.7369201 18.7133586,97.5409606 C17.9093181,98.3450011 16.8764508,98.7470153 15.6147258,98.7470153 L12.24705,98.7470153 L12.24705,103.524847 L10.5771281,103.524847 L10.5771281,90.1376403 Z M12.24705,91.6220153 L12.24705,97.2626403 L15.1972453,97.2626403 C16.149724,97.2626403 16.8888117,97.0137007 17.4145305,96.5158141 C17.9402492,96.0179275 18.2031047,95.3236799 18.2031047,94.4330504 C18.2031047,93.542421 17.9417955,92.8512658 17.4191691,92.3595641 C16.8965428,91.8678624 16.155909,91.6220153 15.1972453,91.6220153 L12.24705,91.6220153 Z M22.4525315,103.524847 L22.4525315,93.5238707 L23.9740159,93.5238707 L23.9740159,95.1474059 L24.0111253,95.1474059 C24.1595635,94.6216871 24.4533431,94.2042108 24.8924729,93.8949645 C25.3316027,93.5857181 25.844944,93.4310973 26.432512,93.4310973 C26.686094,93.4310973 26.8932859,93.4527442 27.054094,93.4960387 L27.054094,95.0917418 C26.8809161,95.0175227 26.6025986,94.9804137 26.2191331,94.9804137 C25.5697158,94.9804137 25.0486435,95.1968829 24.6559007,95.6298278 C24.2631578,96.0627726 24.0667893,96.6317774 24.0667893,97.336859 L24.0667893,103.524847 L22.4525315,103.524847 Z M32.8250052,94.8505309 C32.0395195,94.8505309 31.3885658,95.1102939 30.8721244,95.6298278 C30.355683,96.1493616 30.0696344,96.8327858 30.0139701,97.6801207 L35.5154349,97.6801207 C35.4968802,96.8327858 35.2417558,96.1493616 34.7500541,95.6298278 C34.2583524,95.1102939 33.6166759,94.8505309 32.8250052,94.8505309 Z M35.4783256,100.667425 L37.0740287,100.667425 C36.9379603,101.52713 36.4802826,102.233748 35.7009818,102.787298 C34.921681,103.340849 33.9970484,103.617621 32.927056,103.617621 C31.5230777,103.617621 30.4082613,103.163035 29.5825736,102.253851 C28.7568859,101.344667 28.3440482,100.113885 28.3440482,98.5614684 C28.3440482,97.0090518 28.7553397,95.7659001 29.5779349,94.8319762 C30.4005302,93.8980523 31.4921534,93.4310973 32.8528373,93.4310973 C34.1887815,93.4310973 35.2463881,93.8717667 36.0256888,94.7531188 C36.8049896,95.6344708 37.1946342,96.82969 37.1946342,98.3388121 L37.1946342,98.9696715 L30.0139701,98.9696715 L30.0139701,99.062445 C30.0139701,100.014924 30.2830104,100.775658 30.821099,101.344672 C31.3591876,101.913685 32.0735359,102.198187 32.9641654,102.198187 C33.588843,102.198187 34.1284698,102.060575 34.5830619,101.785345 C35.037654,101.510116 35.3360722,101.13748 35.4783256,100.667425 Z M44.5241391,93.4310973 C45.804419,93.4310973 46.8388324,93.8995985 47.6274106,94.8366149 C48.4159888,95.7736313 48.8102719,97.002867 48.8102719,98.524359 C48.8102719,100.045851 48.417535,101.275087 47.6320493,102.212103 C46.8465636,103.14912 45.8229736,103.617621 44.5612485,103.617621 C43.8561668,103.617621 43.22686,103.469185 42.673309,103.172308 C42.1197581,102.875432 41.6852735,102.451771 41.3698422,101.901312 L41.3327329,101.901312 L41.3327329,106.864691 L39.7184751,106.864691 L39.7184751,93.5238707 L41.2492368,93.5238707 L41.2492368,95.1474059 L41.2863462,95.1474059 C41.5770377,94.627872 42.0161609,94.211942 42.603729,93.8996032 C43.191297,93.5872644 43.8314273,93.4310973 44.5241391,93.4310973 Z M44.2272641,102.179632 C45.1117086,102.179632 45.8214183,101.847198 46.3564145,101.182318 C46.8914107,100.517438 47.1589047,99.6314609 47.1589047,98.524359 C47.1589047,97.4234421 46.8914107,96.5390108 46.3564145,95.8710387 C45.8214183,95.2030666 45.1117086,94.8690856 44.2272641,94.8690856 C43.3675593,94.8690856 42.6686731,95.206159 42.1305844,95.880316 C41.5924958,96.5544731 41.3234555,97.4358119 41.3234555,98.524359 C41.3234555,99.6129061 41.5909496,100.494245 42.1259458,101.168402 C42.6609419,101.842559 43.3613744,102.179632 44.2272641,102.179632 Z M54.5997378,102.216742 C55.4161482,102.216742 56.0918413,101.980172 56.6268374,101.507025 C57.1618336,101.033878 57.4293277,100.438588 57.4293277,99.7211364 L57.4293277,98.9140075 L54.8131167,99.0809996 C53.2916248,99.1737735 52.5308902,99.7087617 52.5308902,100.68598 C52.5308902,101.14985 52.7179814,101.52094 53.0921695,101.799261 C53.4663575,102.077583 53.9688753,102.216742 54.5997378,102.216742 Z M54.2564761,103.617621 C53.2421481,103.617621 52.42575,103.34858 51.8072574,102.810492 C51.1887647,102.272403 50.879523,101.561147 50.879523,100.676703 C50.879523,99.8169979 51.2011344,99.1413048 51.8443667,98.6496032 C52.4875991,98.1579015 53.4153242,97.8749453 54.6275699,97.8007262 L57.4293277,97.633734 L57.4293277,96.7987731 C57.4293277,96.1802804 57.231413,95.7040482 56.8355777,95.3700621 C56.4397424,95.0360761 55.8738301,94.8690856 55.1378238,94.8690856 C54.5564407,94.8690856 54.0662926,95.0082443 53.6673648,95.286566 C53.268437,95.5648878 53.0194974,95.9390702 52.9205386,96.4091246 L51.3712222,96.4091246 C51.3959619,95.5679746 51.7701444,94.8613573 52.4937808,94.2892516 C53.2174172,93.7171459 54.1049409,93.4310973 55.1563785,93.4310973 C56.3376995,93.4310973 57.2808867,93.7233307 57.9859683,94.3078063 C58.69105,94.8922819 59.0435855,95.6762096 59.0435855,96.6596129 L59.0435855,103.524847 L57.5128238,103.524847 L57.5128238,101.789984 L57.4757144,101.789984 C57.1912078,102.346627 56.7582694,102.790389 56.1768863,103.121283 C55.5955032,103.452176 54.9553728,103.617621 54.2564761,103.617621 Z M62.1055123,103.524847 L62.1055123,93.5238707 L63.7197701,93.5238707 L63.7197701,103.524847 L62.1055123,103.524847 Z M62.9126412,91.9096129 C62.6343195,91.9096129 62.3946572,91.8091094 62.1936471,91.6080993 C61.992637,91.4070891 61.8921334,91.1674268 61.8921334,90.8891051 C61.8921334,90.6045985 61.992637,90.36339 62.1936471,90.1654723 C62.3946572,89.9675546 62.6343195,89.8685973 62.9126412,89.8685973 C63.1971479,89.8685973 63.4383564,89.9675546 63.6362741,90.1654723 C63.8341917,90.36339 63.9331491,90.6045985 63.9331491,90.8891051 C63.9331491,91.1674268 63.8341917,91.4070891 63.6362741,91.6080993 C63.4383564,91.8091094 63.1971479,91.9096129 62.9126412,91.9096129 Z M70.6225173,103.617621 C69.3607922,103.617621 68.3310174,103.14912 67.5331618,102.212103 C66.7353063,101.275087 66.3363845,100.045851 66.3363845,98.524359 C66.3363845,97.009052 66.7322139,95.7813624 67.5238845,94.8412535 C68.3155551,93.9011447 69.3360527,93.4310973 70.5854079,93.4310973 C71.2966745,93.4310973 71.9290738,93.5795333 72.4826247,93.8764098 C73.0361757,94.1732863 73.4675678,94.5969474 73.7768142,95.1474059 L73.8139236,95.1474059 L73.8139236,89.5531676 L75.4281814,89.5531676 L75.4281814,103.524847 L73.8881423,103.524847 L73.8881423,101.836371 L73.8603103,101.836371 C73.5325092,102.411569 73.0918397,102.852238 72.5382888,103.158392 C71.9847378,103.464546 71.3461537,103.617621 70.6225173,103.617621 Z M70.910115,94.8690856 C70.0318554,94.8690856 69.3252381,95.2030666 68.7902419,95.8710387 C68.2552457,96.5390108 67.9877517,97.4234421 67.9877517,98.524359 C67.9877517,99.6314609 68.2552457,100.517438 68.7902419,101.182318 C69.3252381,101.847198 70.0318554,102.179632 70.910115,102.179632 C71.7760047,102.179632 72.4779834,101.842559 73.016072,101.168402 C73.5541606,100.494245 73.8232009,99.6129061 73.8232009,98.524359 C73.8232009,97.4358119 73.5541606,96.5544731 73.016072,95.880316 C72.4779834,95.206159 71.7760047,94.8690856 70.910115,94.8690856 Z"/>
    <path stroke="#00B4D6" stroke-width="2" d="M159.1948,92.9009 C159.1948,86.9989 154.4098,82.2139 148.5078,82.2139 C142.6058,82.2139 137.8208,86.9989 137.8208,92.9009 C137.8208,98.8029 142.6058,103.5879 148.5078,103.5879 C154.4098,103.5879 159.1948,98.8029 159.1948,92.9009 Z" stroke-linecap="round" stroke-linejoin="round"/>
    <path stroke="#00B4D6" stroke-width="2" d="M174.6144,92.9009 C174.6144,86.9989 169.8294,82.2139 163.9274,82.2139 C158.0254,82.2139 153.2404,86.9989 153.2404,92.9009 C153.2404,98.8029 158.0254,103.5879 163.9274,103.5879 C169.8294,103.5879 174.6144,98.8029 174.6144,92.9009 Z" stroke-linecap="round" stroke-linejoin="round"/>
  </g>
</svg>
