<?xml version="1.0" encoding="UTF-8" standalone="no"?>
<svg width="862px" height="273px" viewBox="0 0 862 273" version="1.1" xmlns="http://www.w3.org/2000/svg" xmlns:xlink="http://www.w3.org/1999/xlink">
    <!-- Generator: Sketch 39.1 (31720) - http://www.bohemiancoding.com/sketch -->
    <title>Group 48</title>
    <desc>Created with Sketch.</desc>
    <defs></defs>
    <g id="Page-1" stroke="none" stroke-width="1" fill="none" fill-rule="evenodd">
        <g id="epay-web-services-virtual-cards" transform="translate(-260.000000, -923.000000)">
            <g id="Group-55" transform="translate(258.000000, 769.000000)">
                <g id="Group-48" transform="translate(3.000000, 155.000000)">
                    <polygon id="Stroke-33" stroke="#00B4D5" stroke-width="2" stroke-linecap="round" stroke-linejoin="round" points="389.097 223 385 227.097 389.097 231.194 393.194 227.097"></polygon>
                    <polygon id="Stroke-32" stroke="#00B4D5" stroke-width="2" stroke-linecap="round" stroke-linejoin="round" points="570.842 18 565 23.842 570.842 29.683 576.684 23.842"></polygon>
                    <g id="Group-41" transform="translate(623.000000, 0.000000)">
                        <path d="M153,180 L153,198.377914 C153,205.34913 147.283071,211 140.23109,211 L63,211" id="Stroke-40" stroke="#374D6B" stroke-width="2" stroke-linecap="round" stroke-linejoin="round"></path>
                        <path d="M153,65 L153,77" id="Stroke-41" stroke="#374D6B" stroke-width="2" stroke-linecap="round" stroke-linejoin="round"></path>
                        <path d="M37,28.9994163 L37,12.6227053 C37,5.65114734 42.6807653,0 49.6881378,0 L139.311862,0 C146.319235,0 152,5.65114734 152,12.6227053 L152,28" id="Stroke-42" stroke="#374D6B" stroke-width="2" stroke-linecap="round" stroke-linejoin="round"></path>
                        <path d="M37,91 L37,66" id="Stroke-43" stroke="#374D6B" stroke-width="2" stroke-linecap="round" stroke-linejoin="round"></path>
                        <path d="M113.72763,18 L75.2723698,18 C74.0175233,18 73,16.8805483 73,15.5 L73,15.5 C73,14.1194517 74.0175233,13 75.2723698,13 L113.72763,13 C114.982477,13 116,14.1194517 116,15.5 L116,15.5 C116,16.8805483 114.982477,18 113.72763,18 L113.72763,18 Z" id="Stroke-44" stroke="#374D6B" stroke-width="2" stroke-linecap="round" stroke-linejoin="round"></path>
                        <polygon id="Stroke-45" stroke="#00B4D5" stroke-width="2" stroke-linecap="round" stroke-linejoin="round" points="171 47 19 47 42.4976754 24 147.502325 24"></polygon>
                        <path d="M69,47 L69,53.1364607 C69,60.2405803 63.4034783,66 56.5002899,66 L56.5002899,66 C49.5965217,66 44,60.2405803 44,53.1364607 L44,47" id="Stroke-46" stroke="#00B4D5" stroke-width="2" stroke-linecap="round" stroke-linejoin="round"></path>
                        <path d="M94,47 L94,53.1364607 C94,60.2405803 88.4034783,66 81.5002899,66 L81.5002899,66 C74.5965217,66 69,60.2405803 69,53.1364607 L69,47" id="Stroke-47" stroke="#00B4D5" stroke-width="2" stroke-linecap="round" stroke-linejoin="round"></path>
                        <path d="M120,47 L120,53.1364607 C120,60.2405803 114.403478,66 107.50029,66 L107.50029,66 C100.596522,66 95,60.2405803 95,53.1364607 L95,47" id="Stroke-48" stroke="#00B4D5" stroke-width="2" stroke-linecap="round" stroke-linejoin="round"></path>
                        <path d="M145,47 L145,53.1364607 C145,60.2405803 139.403478,66 132.50029,66 L132.50029,66 C125.596522,66 120,60.2405803 120,53.1364607 L120,47" id="Stroke-49" stroke="#00B4D5" stroke-width="2" stroke-linecap="round" stroke-linejoin="round"></path>
                        <path d="M61,216 C61.3970109,216.270914 66.8965144,202.186686 64,185 C61.7167632,168.226991 40.939353,147.327356 41,147 C41.7210353,142.253095 38.9948815,138.146399 39,138 C50.1260372,126.435977 51.3012154,110.818149 51,111 C51.3012154,110.818149 58.7239524,106.522775 63,91 C68.0976504,76.0754402 53.452759,71 53,71 L42,89 C41.540511,89.3459946 30.6052183,93.0535188 26,102 C20.8409741,111.400103 13.61587,124.671837 10,128 C5.8043567,132.088654 -0.312233433,150.239485 1,168 C2.81213591,186.541736 9.8596654,211.523892 26,228 L26,251" id="Stroke-50" stroke="#374D6B" stroke-width="2" stroke-linecap="round" stroke-linejoin="round"></path>
                        <path d="M115,251 L115,240.337349 C115,240.337349 132.95577,233.643831 139,212" id="Stroke-51" stroke="#374D6B" stroke-width="2" stroke-linecap="round" stroke-linejoin="round"></path>
                        <path d="M132.973024,174.812655 L132.973024,174.812655 C128.968601,167.882133 131.252835,158.966798 138.075727,154.899205 L159.422324,142.004148 C166.245216,137.936556 175.022098,140.256823 179.027106,147.187345 L179.027106,147.187345 C183.031529,154.117273 180.746711,163.033202 173.924403,167.100795 L152.577221,179.995852 C145.754914,184.063444 136.977448,181.743177 132.973024,174.812655 L132.973024,174.812655 Z" id="Stroke-52" stroke="#374D6B" stroke-width="2" stroke-linecap="round" stroke-linejoin="round"></path>
                        <path d="M150.831592,163.773218 C147.984367,158.812125 144.129137,155.183039 142.502648,156.159371 L139.636875,157.879659 C134.785811,160.791464 133.709407,167.61808 136.557212,172.579174 L136.581557,172.622448 C139.429361,177.583541 145.554488,179.554581 150.405552,176.642184 L153.271325,174.921896 C154.897814,173.946157 153.678817,168.734311 150.831592,163.773218 L150.831592,163.773218 Z" id="Stroke-53" stroke="#374D6B" stroke-width="2" stroke-linecap="round" stroke-linejoin="round"></path>
                        <path d="M131.973024,140.812655 L131.973024,140.812655 C127.968601,133.882133 130.252835,124.966798 137.075727,120.899205 L158.422324,108.004148 C165.245216,103.936556 174.022098,106.256823 178.027106,113.187345 L178.027106,113.187345 C182.031529,120.117273 179.746711,129.033202 172.924403,133.100795 L151.577221,145.995852 C144.754914,150.063444 135.977448,147.743177 131.973024,140.812655 L131.973024,140.812655 Z" id="Stroke-54" stroke="#374D6B" stroke-width="2" stroke-linecap="round" stroke-linejoin="round"></path>
                        <path d="M149.831592,129.773218 C146.984367,124.812125 143.129137,121.183039 141.502648,122.159371 L138.636875,123.879659 C133.785811,126.791464 132.709407,133.61808 135.557212,138.579174 L135.581557,138.622448 C138.429361,143.583541 144.554488,145.554581 149.405552,142.642184 L152.271325,140.921896 C153.897814,139.945564 152.678817,134.734311 149.831592,129.773218 L149.831592,129.773218 Z" id="Stroke-55" stroke="#374D6B" stroke-width="2" stroke-linecap="round" stroke-linejoin="round"></path>
                        <path d="M159,35.2882155 L164.81287,28.7319183 C170.186955,22.8284815 179.339435,22.3889202 185.256834,27.7502709 L185.256834,27.7502709 C191.174233,33.1116215 191.61479,42.2440067 186.241295,48.1474436 L166.865062,70" id="Stroke-56" stroke="#374D6B" stroke-width="2" stroke-linecap="round" stroke-linejoin="round"></path>
                        <path d="M37,135 C37,135 35.2606276,130.945061 29,127" id="Stroke-57" stroke="#374D6B" stroke-width="2" stroke-linecap="round" stroke-linejoin="round"></path>
                        <path d="M20,146 C20,146 28.6036293,140.721091 38,144.168354" id="Stroke-58" stroke="#374D6B" stroke-width="2" stroke-linecap="round" stroke-linejoin="round"></path>
                        <path d="M41,62 L41,89" id="Stroke-59" stroke="#374D6B" stroke-width="2" stroke-linecap="round" stroke-linejoin="round"></path>
                        <path d="M149,80 L149,62" id="Stroke-60" stroke="#374D6B" stroke-width="2" stroke-linecap="round" stroke-linejoin="round"></path>
                        <polyline id="Stroke-61" stroke="#374D6B" stroke-width="2" stroke-linecap="round" stroke-linejoin="round" points="64 185 149 185 149 182"></polyline>
                        <path d="M102,198.5 C102,194.358175 98.6422727,191 94.4997119,191 C90.3577273,191 87,194.358175 87,198.5 C87,202.641825 90.3577273,206 94.4997119,206 C98.6422727,206 102,202.641825 102,198.5 L102,198.5 Z" id="Stroke-62" stroke="#374D6B" stroke-width="2" stroke-linecap="round" stroke-linejoin="round"></path>
                        <polyline id="Stroke-63" stroke="#374D6B" stroke-width="2" stroke-linecap="round" stroke-linejoin="round" points="121 271 121 251 21 251 21 262"></polyline>
                        <path d="M54.1894256,71 C54.1894256,71 56.7177458,76.572682 52.8437651,81.5217419 C48.9703882,86.4713804 42,89 42,89" id="Stroke-66" stroke="#374D6B" stroke-width="2" stroke-linecap="round" stroke-linejoin="round"></path>
                        <path d="M171,47 L171,53.1364607 C171,60.2405803 165.403478,66 158.50029,66 L158.50029,66 C151.596522,66 146,60.2405803 146,53.1364607 L146,47" id="Stroke-67" stroke="#00B4D5" stroke-width="2" stroke-linecap="round" stroke-linejoin="round"></path>
                        <path d="M44,47 L44,53.1364607 C44,60.2405803 38.4034783,66 31.5002899,66 L31.5002899,66 C24.5965217,66 19,60.2405803 19,53.1364607 L19,47" id="Stroke-68" stroke="#00B4D5" stroke-width="2" stroke-linecap="round" stroke-linejoin="round"></path>
                        <path d="M134.371777,106.423623 L134.371777,106.423623 C129.982093,99.7068471 131.859833,90.6969713 138.565457,86.300579 L159.537999,72.375902 C166.244215,67.9789165 175.238538,69.8591868 179.628223,76.5759632 L179.628223,76.5759632 C184.017907,83.2933328 182.140167,92.3026154 175.434543,96.6996009 L154.461409,110.624278 C147.755785,115.021263 138.761462,113.1404 134.371777,106.423623 L134.371777,106.423623 Z" id="Stroke-69" stroke="#374D6B" stroke-width="2" stroke-linecap="round" stroke-linejoin="round"></path>
                        <path d="M152.258782,94.4257835 C149.065838,89.583469 144.895487,86.130211 143.260267,87.1930272 L140.379109,89.0651821 C135.501084,92.235738 134.724925,99.1494109 137.917869,103.992322 L137.945503,104.034071 C141.139047,108.876982 147.576599,110.549337 152.454624,107.379377 L155.335783,105.506626 C156.971002,104.444406 155.451726,99.268098 152.258782,94.4257835 L152.258782,94.4257835 Z" id="Stroke-70" stroke="#374D6B" stroke-width="2" stroke-linecap="round" stroke-linejoin="round"></path>
                        <polygon id="Stroke-71" stroke="#00B4D5" stroke-width="2" stroke-linecap="round" stroke-linejoin="round" points="69 120 123 120 123 90 69 90"></polygon>
                        <path d="M114.010019,80 L83.6759713,80 C82.8156796,80 81.9974674,80.3719164 81.4293944,81.0207169 L75.7434042,87.5198679 C74.7521986,88.652629 74.7521986,90.347371 75.7434042,91.4801321 L81.4293944,97.9792831 C81.9974674,98.6280836 82.8156796,99 83.6759713,99 L114.010019,99 C115.661639,99 117,97.6566427 117,95.9988576 L117,83.0011424 C117,81.3439439 115.661639,80 114.010019,80" id="Fill-72" fill="#FFFFFF"></path>
                        <path d="M114.010019,80 L83.6759713,80 C82.8156796,80 81.9974674,80.3719164 81.4293944,81.0207169 L75.7434042,87.5198679 C74.7521986,88.652629 74.7521986,90.347371 75.7434042,91.4801321 L81.4293944,97.9792831 C81.9974674,98.6280836 82.8156796,99 83.6759713,99 L114.010019,99 C115.661639,99 117,97.6566427 117,95.9988576 L117,83.0011424 C117,81.3439439 115.661639,80 114.010019,80 L114.010019,80 Z" id="Stroke-73" stroke="#00B4D5" stroke-width="2" stroke-linecap="round" stroke-linejoin="round"></path>
                        <path d="M100,87.4998541 C100,86.1188934 98.8805883,85 97.5002918,85 C96.1194117,85 95,86.1188934 95,87.4998541 C95,88.8808148 96.1194117,89.9997082 97.5002918,89.9997082 C98.8805883,89.9997082 100,91.1191852 100,92.5001459 C100,93.880523 98.8805883,95 97.5002918,95 C96.1194117,95 95,93.880523 95,92.5001459" id="Stroke-74" stroke="#00B4D5" stroke-width="2" stroke-linecap="round" stroke-linejoin="round"></path>
                        <path d="M98,85 L98,84" id="Stroke-75" stroke="#00B4D5" stroke-width="2" stroke-linecap="round" stroke-linejoin="round"></path>
                        <path d="M98,96 L98,95" id="Stroke-76" stroke="#00B4D5" stroke-width="2" stroke-linecap="round" stroke-linejoin="round"></path>
                        <path d="M69,127 L116,127" id="Stroke-77" stroke="#00B4D5" stroke-width="2" stroke-linecap="round" stroke-linejoin="round"></path>
                        <path d="M69,132 L98,132" id="Stroke-78" stroke="#00B4D5" stroke-width="2" stroke-linecap="round" stroke-linejoin="round"></path>
                        <polyline id="Stroke-79" stroke="#00B4D5" stroke-width="2" stroke-linecap="round" stroke-linejoin="round" points="123 183 123 156 69 156 69 183"></polyline>
                        <path d="M114.010019,146 L83.6759713,146 C82.8156796,146 81.9974674,146.371916 81.4293944,147.020717 L75.7434042,153.519868 C74.7521986,154.652629 74.7521986,156.347371 75.7434042,157.480132 L81.4293944,163.979283 C81.9974674,164.628084 82.8156796,165 83.6759713,165 L114.010019,165 C115.661639,165 117,163.656643 117,161.998858 L117,149.001142 C117,147.343944 115.661639,146 114.010019,146" id="Fill-80" fill="#FFFFFF"></path>
                        <path d="M114.010019,146 L83.6759713,146 C82.8156796,146 81.9974674,146.371916 81.4293944,147.020717 L75.7434042,153.519868 C74.7521986,154.652629 74.7521986,156.347371 75.7434042,157.480132 L81.4293944,163.979283 C81.9974674,164.628084 82.8156796,165 83.6759713,165 L114.010019,165 C115.661639,165 117,163.656643 117,161.998858 L117,149.001142 C117,147.343944 115.661639,146 114.010019,146 L114.010019,146 Z" id="Stroke-81" stroke="#00B4D5" stroke-width="2" stroke-linecap="round" stroke-linejoin="round"></path>
                        <path d="M100,153.499854 C100,152.118893 98.8805883,151 97.5002918,151 C96.1194117,151 95,152.118893 95,153.499854 C95,154.880815 96.1194117,155.999708 97.5002918,155.999708 C98.8805883,155.999708 100,157.119185 100,158.500146 C100,159.880523 98.8805883,161 97.5002918,161 C96.1194117,161 95,159.880523 95,158.500146" id="Stroke-82" stroke="#00B4D5" stroke-width="2" stroke-linecap="round" stroke-linejoin="round"></path>
                        <path d="M98,150 L98,149" id="Stroke-83" stroke="#00B4D5" stroke-width="2" stroke-linecap="round" stroke-linejoin="round"></path>
                        <path d="M98,162 L98,161" id="Stroke-84" stroke="#00B4D5" stroke-width="2" stroke-linecap="round" stroke-linejoin="round"></path>
                    </g>
                    <g id="Group-47" transform="translate(0.000000, 35.000000)">
                        <g id="Group-31" transform="translate(0.000000, 69.000000)" stroke="#374D6B" stroke-width="2" stroke-linecap="round" stroke-linejoin="round">
                            <path d="M255,97 L255,138 C255,146.996583 248.006487,154 239,154 L16,154 L16,154 C6.99351253,154 0,146.996583 0,138 L0,16 C0,7.00241441 6.99351253,0 16,0 L82,0" id="Stroke-1"></path>
                            <path d="M208,121 C208,131.493674 199.493674,140 189,140 C178.507328,140 170,131.493674 170,121 C170,110.506326 178.507328,102 189,102 C199.493674,102 208,110.506326 208,121 L208,121 Z" id="Stroke-13"></path>
                            <path d="M202,107.018584 C205.398969,103.902254 209.935622,102 214.919904,102 C225.457815,102 234,110.506551 234,121.000501 C234,131.493449 225.457815,140 214.919904,140 C209.936628,140 205.399975,138.097746 202.001006,134.982417" id="Stroke-14"></path>
                            <path d="M63.8339519,120 L27.1660481,120 C25.4174399,120 24,118.56519 24,116.795153 L24,115.204847 C24,113.43481 25.4174399,112 27.1660481,112 L63.8339519,112 C65.5825601,112 67,113.43481 67,115.204847 L67,116.795153 C67,118.56519 65.5825601,120 63.8339519,120 L63.8339519,120 Z" id="Stroke-19"></path>
                            <path d="M137.833952,120 L101.166048,120 C99.4174399,120 98,118.56519 98,116.795153 L98,115.204847 C98,113.43481 99.4174399,112 101.166048,112 L137.833952,112 C139.58256,112 141,113.43481 141,115.204847 L141,116.795153 C141,118.56519 139.58256,120 137.833952,120 L137.833952,120 Z" id="Stroke-20"></path>
                            <path d="M48.8815748,133 L27.1184252,133 C25.3961192,133 24,131.56519 24,129.795153 L24,128.204847 C24,126.43481 25.3961192,125 27.1184252,125 L48.8815748,125 C50.6038808,125 52,126.43481 52,128.204847 L52,129.795153 C52,131.56519 50.6038808,133 48.8815748,133 L48.8815748,133 Z" id="Stroke-21"></path>
                            <path d="M126.779402,133 L101.220598,133 C99.4418619,133 98,131.56519 98,129.795153 L98,128.204847 C98,126.43481 99.4418619,125 101.220598,125 L126.779402,125 C128.558138,125 130,126.43481 130,128.204847 L130,129.795153 C130,131.56519 128.558138,133 126.779402,133 L126.779402,133 Z" id="Stroke-22"></path>
                            <polyline id="Stroke-9" points="50 40 50 53.013013 27 76"></polyline>
                            <polyline id="Stroke-12" points="24 53 37 53 37 66"></polyline>
                            <polyline id="Stroke-10" points="50 77 50 66.1202984 72 42"></polyline>
                            <polyline id="Stroke-11" points="63 53 63 66 75 66"></polyline>
                            <rect id="Rectangle-3" x="24" y="39" width="52" height="40" rx="9"></rect>
                        </g>
                        <g id="Group-46" transform="translate(94.000000, 0.000000)">
                            <g id="Group-43">
                                <g id="Group-37" stroke-width="2" stroke-linecap="round" stroke-linejoin="round">
                                    <path d="M239.379688,154 L15.6193117,154 C6.99251174,154 0,146.996629 0,138.357668 L0,15.6423319 C0,7.00337104 6.99251174,0 15.6193117,0 L239.379688,0 C248.006487,0 255,7.00337104 255,15.6423319 L255,138.357668 C255,146.996629 248.006487,154 239.379688,154 L239.379688,154 Z" id="Stroke-16" stroke="#00B4D5" stroke-dasharray="6.047,10.078"></path>
                                    <path d="M57.8339519,118 L21.1660481,118 C19.4174399,118 18,116.56519 18,114.795153 L18,113.204847 C18,111.43481 19.4174399,110 21.1660481,110 L57.8339519,110 C59.5825601,110 61,111.43481 61,113.204847 L61,114.795153 C61,116.56519 59.5825601,118 57.8339519,118 L57.8339519,118 Z" id="Stroke-19" stroke="#374D6B"></path>
                                    <path d="M131.833952,118 L95.1660481,118 C93.4174399,118 92,116.56519 92,114.795153 L92,113.204847 C92,111.43481 93.4174399,110 95.1660481,110 L131.833952,110 C133.58256,110 135,111.43481 135,113.204847 L135,114.795153 C135,116.56519 133.58256,118 131.833952,118 L131.833952,118 Z" id="Stroke-20" stroke="#374D6B"></path>
                                    <path d="M42.8815748,131 L21.1184252,131 C19.3961192,131 18,129.56519 18,127.795153 L18,126.204847 C18,124.43481 19.3961192,123 21.1184252,123 L42.8815748,123 C44.6038808,123 46,124.43481 46,126.204847 L46,127.795153 C46,129.56519 44.6038808,131 42.8815748,131 L42.8815748,131 Z" id="Stroke-21" stroke="#374D6B"></path>
                                    <path d="M120.779402,131 L95.220598,131 C93.4418619,131 92,129.56519 92,127.795153 L92,126.204847 C92,124.43481 93.4418619,123 95.220598,123 L120.779402,123 C122.558138,123 124,124.43481 124,126.204847 L124,127.795153 C124,129.56519 122.558138,131 120.779402,131 L120.779402,131 Z" id="Stroke-22" stroke="#374D6B"></path>
                                    <path d="M215,123.5 C215,132.612933 207.612933,140 198.5,140 C189.387067,140 182,132.612933 182,123.5 C182,114.387067 189.387067,107 198.5,107 C207.612933,107 215,114.387067 215,123.5 L215,123.5 Z" id="Stroke-29" stroke="#374D6B"></path>
                                    <path d="M209,111.358491 C211.867405,108.652317 215.696181,107 219.901445,107 C228.79266,107 236,114.387067 236,123.5 C236,132.612933 228.79266,140 219.901445,140 C215.696181,140 211.868388,138.34869 209.000983,135.642517" id="Stroke-30" stroke="#374D6B"></path>
                                    <rect id="Rectangle-4" stroke="#374D6B" x="19" y="65" width="216" height="26" rx="6"></rect>
                                </g>
                                <path d="M145.8858,31.7924 C147.2658,31.8024 148.6458,31.7924 150.0258,31.7964 C149.6068,37.1244 149.2628,42.4574 148.9088,47.7894 C147.5798,47.7834 146.2518,47.7864 144.9238,47.7894 C145.2308,42.4564 145.5268,37.1224 145.8858,31.7924 M128.5128,31.7994 C129.9568,31.7994 131.3998,31.7854 132.8428,31.8064 C133.8708,35.3124 134.8918,38.8204 135.9188,42.3264 C135.9508,42.3284 136.0138,42.3334 136.0458,42.3364 C137.5278,38.8274 139.0078,35.3174 140.4798,31.8044 C141.9298,31.7874 143.3798,31.7974 144.8308,31.7994 C142.4808,37.1394 140.0938,42.4634 137.7228,47.7934 C136.3538,47.7444 134.9648,47.8584 133.6078,47.7394 C131.8798,42.4364 130.2218,37.1094 128.5128,31.7994 M66.8608,31.7364 C68.3438,31.7774 69.8538,31.6544 71.3208,31.7954 C72.4818,35.1344 73.5818,38.4984 74.7478,41.8384 C76.4058,38.5014 77.9568,35.1054 79.5508,31.7364 L84.0928,31.7364 C80.1848,39.6404 76.2188,47.5164 72.3038,55.4184 C70.9118,55.4234 69.5208,55.4214 68.1288,55.4194 C69.4758,52.5704 70.8508,49.7354 72.2158,46.8944 C70.4198,41.8464 68.6448,36.7884 66.8608,31.7364 M169.9658,35.2864 C169.1878,35.9094 168.7168,36.8374 168.4388,37.7784 C170.3858,37.8034 172.3348,37.7834 174.2818,37.7894 C174.3958,36.9564 174.2828,35.9964 173.6278,35.4004 C172.6458,34.5134 170.9978,34.4364 169.9658,35.2864 M165.7858,34.4154 C167.7378,31.5284 171.7548,30.8204 174.8988,31.9104 C176.3608,32.4244 177.5478,33.6064 178.0878,35.0574 C178.8008,36.9594 178.8288,39.0794 178.3848,41.0464 C174.9208,41.0354 171.4558,41.0354 167.9928,41.0464 C168.0258,41.9304 168.1938,42.8554 168.7708,43.5594 C169.6208,44.6014 171.0348,44.9844 172.3348,44.9654 C174.1118,45.0384 175.8788,44.6704 177.5628,44.1224 C177.6028,45.1774 177.4788,46.2284 177.4488,47.2814 C175.0528,48.0664 172.4958,48.2234 169.9908,48.1394 C167.7548,48.0314 165.5758,46.7164 164.6578,44.6374 C163.1688,41.3614 163.8358,37.3584 165.7858,34.4154 M121.6638,33.7344 C123.0468,31.8884 125.4778,31.1984 127.6978,31.4424 C127.4918,32.6354 127.3618,33.8414 127.1468,35.0324 C125.2438,35.2004 122.6598,35.3674 121.7918,37.3834 C121.4728,40.8394 121.4158,44.3264 121.1118,47.7884 C119.7788,47.7864 118.4448,47.7854 117.1118,47.7894 C117.3638,42.4364 117.7268,37.0874 118.0508,31.7364 C119.2528,31.7344 120.4538,31.7364 121.6558,31.7364 C121.6598,32.4014 121.6528,33.0674 121.6638,33.7344 M107.5688,35.2764 C106.7948,35.9074 106.2918,36.8264 106.0438,37.7834 C107.9828,37.8004 109.9208,37.7824 111.8598,37.7934 C112.0178,36.9014 111.8348,35.8544 111.0788,35.2744 C110.0798,34.5244 108.5528,34.4664 107.5688,35.2764 M103.5678,34.1634 C105.7948,31.2094 110.2948,30.6834 113.4418,32.3654 C116.3338,34.1194 116.6338,38.0454 115.9848,41.0444 C112.5108,41.0424 109.0368,41.0224 105.5618,41.0544 C105.6438,41.9084 105.7648,42.8104 106.3168,43.5044 C107.1598,44.5994 108.6258,44.9844 109.9538,44.9654 C111.7338,45.0394 113.4998,44.6584 115.1878,44.1144 C115.1558,45.1684 115.0638,46.2224 115.0418,47.2784 C112.7438,48.0404 110.2938,48.2034 107.8898,48.1514 C106.0728,48.1074 104.2018,47.3764 103.0558,45.9234 C101.9008,44.4954 101.4548,42.6274 101.4048,40.8234 C101.5328,38.4764 102.1118,36.0554 103.5678,34.1634 M24.8418,35.0214 C23.8278,35.5974 23.2568,36.7034 22.9288,37.7824 C24.8858,37.7944 26.8428,37.7944 28.7988,37.7824 C28.9358,36.8474 28.6978,35.7444 27.8758,35.1824 C26.9898,34.6094 25.7738,34.4764 24.8418,35.0214 M21.5878,33.0114 C23.0198,31.8214 24.9338,31.3534 26.7698,31.4414 C28.7568,31.4354 30.9008,32.1974 32.0068,33.9394 C33.3478,36.0294 33.3128,38.6704 32.9168,41.0354 C29.4428,41.0464 25.9698,41.0334 22.4948,41.0424 C22.4928,42.0734 22.7898,43.1764 23.5818,43.8854 C24.5088,44.7324 25.8288,44.9964 27.0508,44.9584 C28.7618,45.0134 30.4518,44.6194 32.0748,44.1124 C31.9798,45.1644 32.0638,46.2254 31.9458,47.2744 C29.6198,48.0234 27.1468,48.2074 24.7168,48.1434 C22.7738,48.0824 20.8168,47.1954 19.6968,45.5684 C18.3508,43.6044 18.0958,41.0704 18.5388,38.7744 C18.9388,36.6144 19.8458,34.4284 21.5878,33.0114 M57.7128,31.5394 C59.7128,31.1944 61.8348,31.4264 63.6798,32.2814 C65.1968,32.9864 66.4238,34.5474 66.3058,36.2784 C66.1188,40.1294 65.8678,43.9764 65.7258,47.8284 C64.2538,47.8704 62.7818,47.8374 61.3098,47.8464 C61.4118,45.5914 61.5548,43.3374 61.6908,41.0844 C60.6048,40.6564 59.4008,40.6444 58.2538,40.7524 C57.1598,40.9354 55.9338,41.6104 55.7438,42.8054 C55.6058,43.8744 56.5438,44.9114 57.6168,44.9214 C58.8748,44.8894 60.0688,44.3784 61.1058,43.6914 C60.9738,44.8384 60.7848,45.9784 60.6268,47.1234 C59.1618,48.2384 57.1858,48.4244 55.4198,48.1174 C53.8928,47.9144 52.3588,47.0884 51.6788,45.6524 C50.7368,43.6334 51.2418,41.0284 52.8248,39.4704 C55.2288,37.2424 58.8228,37.3294 61.8678,37.7194 C61.9928,37.0074 61.9858,36.1744 61.4478,35.6234 C60.7438,34.9184 59.6768,34.7534 58.7208,34.7624 C56.8498,34.7044 54.9998,35.1164 53.2058,35.6104 C53.1898,34.5124 53.3658,33.4244 53.3708,32.3254 C54.7768,31.8794 56.2588,31.7444 57.7128,31.5394 M157.6178,29.7824 C159.0598,29.7654 160.5028,29.7764 161.9468,29.7764 C161.9188,30.4404 161.8748,31.1054 161.8558,31.7704 C162.4498,31.8754 163.0488,31.9614 163.6478,32.0554 C163.5778,33.1874 163.5278,34.3234 163.4638,35.4564 C161.3378,34.7004 158.5948,34.3604 156.8198,36.0544 C155.2598,37.7084 154.8708,40.2774 155.4438,42.4234 C155.8098,43.7454 157.0498,44.7074 158.4068,44.8064 C160.0058,44.8994 161.6368,44.6204 163.1038,43.9774 C163.1418,45.1274 163.0178,46.2734 162.9898,47.4234 C162.3498,47.6334 161.6958,47.8074 161.0308,47.9114 C160.9508,48.4364 160.9378,48.9684 160.9158,49.4984 C159.4838,49.5014 158.0538,49.4994 156.6208,49.4984 C156.6268,49.0504 156.6678,48.6044 156.6958,48.1584 C155.3468,47.9544 153.9798,47.5014 152.9818,46.5374 C151.6428,45.2944 151.1228,43.4174 151.0578,41.6424 C150.9608,39.1594 151.3248,36.4904 152.8988,34.4794 C154.0298,33.0184 155.7808,32.2044 157.5568,31.8364 C157.6058,31.1534 157.5728,30.4664 157.6178,29.7824 M40.0028,29.3424 C39.9068,31.4894 39.8168,33.6364 39.7188,35.7834 C41.7338,35.6734 43.9278,35.9704 45.7298,34.8524 C46.9408,34.2094 47.6728,32.7064 47.2208,31.3754 C46.8578,30.2984 45.7338,29.7514 44.6988,29.5064 C43.1548,29.1924 41.5668,29.3824 40.0028,29.3424 M35.9928,25.7334 C38.6948,25.7514 41.3978,25.7184 44.0998,25.7504 C46.8498,25.9354 50.1598,26.8394 51.3278,29.6274 C52.3368,32.6214 51.0988,36.3984 48.2188,37.8924 C45.5368,39.3024 42.4058,39.3344 39.4478,39.3414 C39.1778,42.1684 39.0528,45.0104 38.8328,47.8434 C37.4278,47.8614 36.0218,47.8504 34.6168,47.8504 C35.0648,40.4784 35.4638,33.0984 35.9928,25.7334 M87.1968,27.5804 C88.9028,25.7704 91.4948,25.1154 93.9088,25.1624 C96.0188,25.3214 98.3738,25.3794 100.1118,26.7414 C99.9868,27.9104 99.8678,29.0814 99.7418,30.2504 C97.0478,29.0394 93.8188,28.1984 90.9908,29.4514 C89.6448,29.9984 88.8478,31.9014 89.8698,33.0794 C90.8728,34.1784 92.4078,34.5674 93.8328,34.7514 C95.9258,35.1134 98.1428,35.9164 99.4008,37.7334 C100.6808,39.5204 100.4138,41.9384 99.6488,43.8774 C98.5528,46.4974 95.6888,47.7944 93.0148,48.0934 C90.0198,48.3084 86.7918,48.3604 84.0898,46.8574 C84.1808,45.6454 84.3058,44.4364 84.3418,43.2214 C86.8038,44.4024 89.6038,44.7034 92.2998,44.4954 C93.7358,44.2894 95.3188,43.5524 95.7618,42.0524 C96.0878,41.2204 95.8318,40.2184 95.1078,39.6844 C93.8108,38.6764 92.0718,38.8264 90.5858,38.2924 C88.2858,37.6284 85.8868,36.1354 85.3208,33.6474 C84.9708,31.4924 85.7448,29.1944 87.1968,27.5804 M146.3088,23.9914 C147.7378,23.9914 149.1688,23.9864 150.5998,23.9944 C150.5958,25.4304 150.4058,26.8584 150.4318,28.2964 C148.9948,28.3004 147.5608,28.3004 146.1258,28.2944 C146.1418,26.8584 146.2408,25.4264 146.3088,23.9914 M65.7398,17.1724 C66.7378,18.3514 67.6838,19.5714 68.6558,20.7704 C70.1148,20.2614 71.5448,19.6774 72.9948,19.1454 C72.1658,20.4474 71.3108,21.7314 70.4598,23.0204 C71.4228,24.2404 72.4058,25.4444 73.3758,26.6604 C71.8928,26.2454 70.4038,25.8504 68.9208,25.4314 C68.0258,26.7204 67.1978,28.0554 66.3018,29.3424 C66.3058,27.7784 66.1608,26.2214 66.1058,24.6604 C64.6198,24.2624 63.1258,23.8824 61.6598,23.4174 C63.1058,22.8964 64.5418,22.3514 65.9768,21.8024 C65.8558,20.2614 65.8678,18.7134 65.7398,17.1724 M44.7788,10.8614 C45.7378,12.0674 46.6758,13.2904 47.6218,14.5094 C49.0738,13.9974 50.5178,13.4624 51.9718,12.9564 C51.1318,14.2534 50.2188,15.4994 49.3878,16.8024 C50.3278,18.0194 51.2778,19.2314 52.2078,20.4584 C50.7228,20.0424 49.2538,19.5654 47.7608,19.1814 C46.8688,20.4494 46.0398,21.7634 45.0988,22.9954 C45.0978,21.4614 45.0528,19.9274 45.0178,18.3934 C43.5498,17.8914 42.0438,17.5014 40.5608,17.0484 C42.0068,16.4974 43.4808,16.0184 44.9288,15.4694 C44.8168,13.9354 44.8228,12.3964 44.7788,10.8614 M57.5988,14.3344 C58.4788,13.0634 59.3438,11.7814 60.2338,10.5184 C60.2618,12.0704 60.2518,13.6294 60.3858,15.1774 C61.8518,15.6274 63.3368,16.0224 64.7928,16.5114 C63.3218,16.9934 61.8698,17.5314 60.4108,18.0424 C60.4748,19.5784 60.5428,21.1144 60.5108,22.6534 C59.5638,21.4514 58.6508,20.2194 57.7158,19.0064 C56.2518,19.4834 54.8128,20.0294 53.3518,20.5134 C54.1998,19.2384 55.0908,17.9904 55.9588,16.7274 C55.0108,15.5074 54.0938,14.2654 53.1448,13.0464 C54.6398,13.4424 56.1088,13.9234 57.5988,14.3344" id="Fill-31" fill="#374D6B"></path>
                            </g>
                        </g>
                    </g>
                    <g id="Group-45" transform="translate(393.000000, 47.000000)">
                        <path d="M179,11 L192,11" id="Stroke-35" stroke="#00B4D5" stroke-width="2" stroke-linecap="round" stroke-linejoin="round"></path>
                        <path d="M194,29 L219,29" id="Stroke-36" stroke="#00B4D5" stroke-width="2" stroke-linecap="round" stroke-linejoin="round"></path>
                        <g id="Group-32" transform="translate(0.000000, 95.000000)" stroke="#00B4D5" stroke-width="2" stroke-linecap="round" stroke-linejoin="round">
                            <path d="M42,19 L65,19" id="Stroke-37"></path>
                            <path d="M42,0 L0,0" id="Stroke-38" stroke-dasharray="6,10"></path>
                        </g>
                        <g id="Group-42" transform="translate(50.000000, 0.000000)">
                            <path d="M119,27.4018657 C96.1748679,27.2302548 75.3552781,16.9084051 59.4996036,0 C43.6431364,16.9084051 22.8243394,27.2294676 0,27.4018657 C3.81211572,68.8805554 26.5135859,104.935393 59.4996036,127 C92.4864141,104.935393 115.187884,68.8805554 119,27.4018657" id="Fill-89" fill="#FFFFFF"></path>
                            <path d="M119,27.4018657 C96.1748679,27.2302548 75.3552781,16.9084051 59.4996036,0 C43.6431364,16.9084051 22.8243394,27.2294676 0,27.4018657 C3.81211572,68.8805554 26.5135859,104.935393 59.4996036,127 C92.4864141,104.935393 115.187884,68.8805554 119,27.4018657 L119,27.4018657 Z" id="Stroke-90" stroke="#00B4D5" stroke-width="2" stroke-linecap="round" stroke-linejoin="round"></path>
                            <path d="M82,50.7083754 C82,44.2417134 77.6410958,39 71.031647,39 L49.968353,39 C43.3589042,39 38,44.2417134 38,50.7083754 L38,72.2916246 C38,78.7582866 43.3589042,84 49.968353,84 L71.031647,84 C77.6410958,84 82,78.7582866 82,72.2916246" id="Stroke-91" stroke="#374D6B" stroke-width="2" stroke-linecap="round" stroke-linejoin="round"></path>
                            <path d="M60,32 L60,39" id="Stroke-93" stroke="#374D6B" stroke-width="2" stroke-linecap="round" stroke-linejoin="round"></path>
                            <path d="M60,84 L60,91" id="Stroke-93" stroke="#374D6B" stroke-width="2" stroke-linecap="round" stroke-linejoin="round"></path>
                        </g>
                    </g>
                    <g id="Group-40" transform="translate(850.000000, 189.000000)" stroke="#00B4D5" stroke-width="2" stroke-linecap="round" stroke-linejoin="round">
                        <path d="M5,10 L5,0" id="Stroke-87"></path>
                        <path d="M10,5 L0,5" id="Stroke-88"></path>
                    </g>
                </g>
            </g>
        </g>
    </g>
</svg>