<svg xmlns="http://www.w3.org/2000/svg" xmlns:xlink="http://www.w3.org/1999/xlink" width="922" height="236" viewBox="0 0 922 236">
  <defs>
    <path id="solution-img12-a" d="M0,29.0002338 C0,12.9838469 12.9802207,0 29,0 L29,0 C45.0162577,0 58,12.991554 58,29.0002338 L58,83 L0,83 L0,29.0002338 Z"/>
    <rect id="solution-img12-c" width="59" height="52"/>
    <path id="solution-img12-e" d="M0,13.0058866 C0,5.82293378 5.82178679,0 12.9913482,0 L219.008652,0 C226.183575,0 232,5.81273831 232,13.0058866 L232,164 L0,164 L0,13.0058866 Z"/>
  </defs>
  <g fill="none" fill-rule="evenodd" transform="translate(1 1)">
    <g stroke-linecap="round" stroke-linejoin="round" stroke-width="2" transform="translate(388)">
      <path stroke="#264C6D" d="M94.6277247,0 L0,233.666443"/>
      <g transform="translate(21 90)">
        <circle cx="26.5" cy="26.5" r="26.5" fill="#FFF" stroke="#264C6D"/>
        <path fill="#00B4D5" stroke="#00B4D5" d="M27,9.00700546 C36.4337627,9.27167289 44,17.0022417 44,26.5 C44,31.1431692 42.1917155,35.363991 39.2409666,38.4966451 L27,27 L27,9.00700546 Z" opacity=".3"/>
        <polyline stroke="#264C6D" points="39.241 38.497 27 27 27 9.007 27 9.007"/>
      </g>
    </g>
    <g transform="translate(0 11)">
      <g stroke="#00B4D5" stroke-linecap="round" stroke-linejoin="round" stroke-width="2" transform="translate(215)">
        <path d="M50.1525396,0.740504798 C17.7278071,5.87607791 -4.39506831,36.3256037 0.740504798,68.7503362 C3.73400994,87.6505838 15.3362071,103.037715 30.9100487,111.579063 C29.8125032,116.877374 26.5075597,121.491986 21.8486457,124.233965 C24.1287821,124.738936 26.5339939,124.848783 28.9807229,124.461259 C34.4480179,123.595325 38.9899548,120.486936 41.8614644,116.234487 C50.2938992,118.85415 59.4386843,119.637192 68.7503362,118.162371 C101.175069,113.026798 123.297944,82.5772721 118.162371,50.1525396 C113.026798,17.7278071 82.5772721,-4.39506831 50.1525396,0.740504798 Z"/>
        <g transform="translate(49 37)">
          <path d="M19.7340198 13.0730297L19.7340198 13.0730297C19.7340198 7.70273267 15.3807525 3.34946535 10.0104554 3.34946535L10.0104554 3.34946535C4.64134653 3.34946535.288079208 7.70273267.288079208 13.0730297.288079208 18.4433267 4.64134653 22.7965941 10.0104554 22.7965941L10.0104554 22.7965941M.287841584 32.5193267L.287841584 32.5193267C.287841584 37.8896238 4.64110891 42.2428911 10.0114059 42.2428911L10.0114059 42.2428911C15.3805149 42.2428911 19.7337822 37.8896238 19.7337822 32.5193267 19.7337822 27.1490297 15.3805149 22.7957624 10.0114059 22.7957624L10.0114059 22.7957624M10.0109307 42.2424158L10.0109307 45.3184554M10.0109307.274019802L10.0109307 3.35005941"/>
        </g>
      </g>
      <g transform="translate(29 40)">
        <path stroke="#264C6D" stroke-linecap="round" stroke-linejoin="round" stroke-width="2" d="M51.0773014,103.504116 L50.970407,103.486171 C31.3547735,100.247015 18.2467151,82.0562958 21.4935095,62.4807852 L29.0370618,17 L100,28.7213791 L92.4574468,74.2021642 C89.2106523,93.7776748 70.6929349,106.74427 51.0773014,103.504116 Z"/>
        <path fill="#264C6D" d="M31.5347803,22.8783239 C32.3187914,20.5417047 35.086831,19.5596038 37.1568605,20.8940997 C44.0929595,25.3661125 59.8311841,33.9417253 82.8255123,37.7519964 C114.598966,43.0158969 117,10.68866 117,10.68866 L116.790997,10.6325971 C96.1397023,5.14544637 76.1584171,1.84174312 54.8421129,0.389114807 L54.8421129,0.389114807 C35.5248372,-2.81147286 18.8965999,14.2216202 22.4926512,33.4902192 L24.4466791,44 L31.5347803,22.8783239 Z"/>
        <path stroke="#FFF" stroke-linecap="round" stroke-linejoin="round" stroke-width="2" d="M80 32.4835981C99.0019782 35.7117141 106.305638 23.0692749 109 15M81 27C92.4320352 26.8084917 98.1520938 21.5537396 101 16"/>
        <path stroke="#264C6D" stroke-linecap="round" stroke-linejoin="round" stroke-width="2" d="M25 41C22.2290554 42.0046371 18.7145063 44.944131 18.0966855 49.0039108 17.4788648 53.0646964 19.9344248 57.0782167 22.2605014 59M71 90.0937879C65.1156586 93.524638 57.5045789 92.2239369 53 87"/>
        <path stroke="#004A70" stroke-linecap="round" stroke-linejoin="round" stroke-width="4" d="M44 39.9060247C49.884312 36.4752136 57.4960561 37.7764852 62 43M76 44.9060247C81.884312 41.4752136 89.4960561 42.7764852 94 48"/>
        <path fill="#00B4D5" d="M84.229639 56.4394643C84.0507108 57.4559136 83.0303942 58.1428931 81.9493698 57.9746532L81.6596766 57.929589C80.5786522 57.7613491 79.8480289 56.8009798 80.026957 55.785532L80.770361 51.5605079C80.9492892 50.54506 81.9696058 49.8570791 83.0506302 50.025319L83.3403234 50.0703832C84.4213478 50.2386231 85.1519711 51.1989924 84.973043 52.2144402L84.229639 56.4394643zM54.229639 51.4394643C54.0507108 52.4559136 53.0303942 53.1428931 51.9493698 52.9746532L51.6596766 52.929589C50.5786522 52.7613491 49.8480289 51.8009798 50.026957 50.785532L50.770361 46.5605079C50.9492892 45.54506 51.9696058 44.8570791 53.0506302 45.025319L53.3403234 45.0703832C54.4213478 45.2386231 55.1519711 46.1989924 54.973043 47.2144402L54.229639 51.4394643z"/>
        <path stroke="#264C6D" stroke-linecap="round" stroke-linejoin="round" stroke-width="2" d="M61 70C61.737136 71.4545056 63.0380269 72.642045 64.6612153 72.9320255 66.28334 73.2231568 67.8692993 72.5522891 69 71.432642M176.563486 162L40.436514 162C37.9856008 162 36 159.864918 36 157.231902L36 156 181 156 181 157.231902C181 159.864918 179.013396 162 176.563486 162zM99.6473512 89L191.120946 89C192.290518 89 193.17598 90.0481348 192.970175 91.1898352L181.289512 156 86 156 97.798122 90.5348754C97.95875 89.6469968 98.7377955 89 99.6473512 89z"/>
        <g stroke="#00B4D5" stroke-linecap="round" stroke-linejoin="round" stroke-width="2" transform="translate(126 107)">
          <path d="M23.3022985 20.082C22.5115524 24.497 18.2457923 28 13.7584607 28L5.8388031 28C1.35248785 28-.620311853 24.573.170434243 20.158L1.8688105 10.68C2.66057297 6.265 5.65280499 4 10.1401366 4L18.0597942 4C22.2523747 4 25.2588361 6.481 24.9823798 10.447M14.529 1L14 4M9.529 28L9 31"/>
        </g>
        <path stroke="#264C6D" stroke-linecap="round" stroke-linejoin="round" stroke-width="2" d="M43.0881741 101L41.0201634 108.750333C41.0201634 108.750333 40.3498004 113.075517 46.7396752 114.73883 52.1639555 116.150037 54.757501 111.382416 54.757501 111.382416L57 104.177923M20.0942901 128C16.9812589 131.591192 8.51082545 148.49133 10.2272263 150.432677 12.9158891 153.474922 37.5481845 155.834991 37.5481845 155.834991 37.5481845 155.834991 40.112326 151.367288 42.6196859 151.871157 45.1280419 152.376028 47.979232 154.669983 47.979232 155.834991"/>
        <path stroke="#264C6D" stroke-linecap="round" stroke-linejoin="round" stroke-width="2" d="M40 108C40 108 24.5364544 109.117134 17.9189415 115.090419 11.3014285 121.064698 1.38866838 144.606996.0957866799 151.241219-1.19709502 157.875441 10.5198956 162.583503 40 161.94145M56 112C56 112 65.9371333 115.961356 67.2468497 119.397205 68.5565661 122.833055 71.048148 147.652203 72.030687 150.587618 73.013226 153.524036 80.5259387 155.274404 82.8181941 155.927275M59 129C59 129 60.9771932 151.305425 63.9510979 154.103518 65.5874615 155.643623 67.4949917 155.923455 67.4949917 155.923455M17 132C17 132 13.2544975 139.337185 14.1336669 152M59.7432957 135C59.7432957 135 57.9110272 152.22002 60 156"/>
      </g>
      <path stroke="#264C6D" stroke-linecap="round" stroke-linejoin="round" stroke-width="2" d="M0,202 L327.824219,202"/>
      <g fill="#FFF" stroke-width="2" transform="translate(257 137)">
        <g transform="translate(0 23)">
          <g stroke="#004A70" stroke-linecap="round" stroke-linejoin="round">
            <path fill-rule="nonzero" d="M25,14.0095579 L25,27.9904421 C25,28.5467917 25.4517247,29 26.0000202,29 L32.9999798,29 C33.5487459,29 34,28.5479495 34,27.9904421 L34,14.0095579 C34,13.4532083 33.5482753,13 32.9999798,13 L26.0000202,13 C25.4512541,13 25,13.4520505 25,14.0095579 Z M30,7 L32.9999798,7 C36.8663961,7 40,10.1438961 40,14.0095579 L40,27.9904421 C40,31.8592919 36.8648251,35 32.9999798,35 L30,35 L30,7 Z"/>
            <rect width="30" height="42" rx="4"/>
          </g>
          <path stroke="#264C6D" d="M5.46428571 9L17.5357143 9M5.32142857 13L13.6785714 13"/>
        </g>
        <g stroke="#264C6D" stroke-linecap="round" stroke-linejoin="round" transform="translate(3)">
          <g transform="rotate(45 4.741 11.583)">
            <path d="M6.25 6.67741935L6.25 6.67741935C2.79822031 6.67741935-2.33590924e-12 3.84683768-2.33590924e-12.370967742L-2.33590924e-12.370967742-2.33590924e-12.370967742M6.25 6.67741935L6.25 6.67741935C9.70177969 6.67741935 12.5 9.50800103 12.5 12.983871L12.5 12.983871"/>
          </g>
          <g transform="rotate(45 2.472 16.844)">
            <path d="M5.51470588 2.96774194C3.51146544 2.96774194 1.72834782 2.0143846.584560166.534819324M5.51470588 2.96774194L5.51470588 2.96774194C7.3869361 2.96774194 9.06689372 3.80047931 10.2123573 5.11724895 11.1787536 6.22817151 11.7647059 9.27419355 11.7647059 9.27419355"/>
          </g>
        </g>
      </g>
      <g transform="translate(507)">
        <g transform="translate(107)">
          <path stroke="#264C6D" stroke-linecap="round" stroke-linejoin="round" stroke-width="2" d="M0,202 L305.980469,202"/>
          <g transform="translate(37)">
            <g transform="translate(20 119)">
              <mask id="solution-img12-b" fill="#fff">
                <use xlink:href="#solution-img12-a"/>
              </mask>
              <g mask="url(#solution-img12-b)">
                <g transform="translate(10 31)">
                  <mask id="solution-img12-d" fill="#fff">
                    <use xlink:href="#solution-img12-c"/>
                  </mask>
                  <use fill="#D8D8D8" fill-opacity="0" xlink:href="#solution-img12-c"/>
                  <g stroke-linecap="round" stroke-linejoin="round" mask="url(#solution-img12-d)">
                    <g transform="rotate(51 11.583 27.5)">
                      <polygon fill="#FFF" stroke="#264C6D" stroke-width="2" points="2 32 57 32 57 4 2 4" transform="rotate(7 29.5 18)"/>
                      <polygon fill="#FFF" stroke="#264C6D" stroke-width="2" points="7 34 62 34 62 6 7 6"/>
                      <path stroke="#00B3D5" stroke-width="2" d="M45.9738243,0 L3.02545975,0 C3.02545975,1.68740317 1.67094725,3.05597824 0,3.05597824 L0,18.9440218 C1.67094725,18.9440218 3.02545975,20.3125968 3.02545975,22 L45.9738243,22 C45.9738243,20.3125968 47.3283368,18.9440218 49,18.9440218 L49,3.05597824 C47.3283368,3.05597824 45.9738243,1.68740317 45.9738243,0 Z" transform="translate(10 9)"/>
                      <g transform="translate(31 12)">
                        <path stroke="#264C6D" stroke-width="2" d="M8 4.5L8 4.5C8 2.56695992 6.20907924 1 3.99975561 1L3.99975561 1C1.79092076 1 5.68434189e-13 2.56695992 5.68434189e-13 4.5 5.68434189e-13 6.43304008 1.79092076 8 3.99975561 8L3.99975561 8M4.8316906e-13 11.5L4.8316906e-13 11.5C4.8316906e-13 13.4330401 1.79092076 15 4.00024439 15L4.00024439 15C6.20907924 15 8 13.4330401 8 11.5 8 9.56695992 6.20907924 8 4.00024439 8L4.00024439 8M4 15L4 16M4-3.97903932e-13L4 1"/>
                      </g>
                    </g>
                  </g>
                </g>
              </g>
            </g>
            <path stroke="#264C6D" stroke-linecap="round" stroke-linejoin="round" stroke-width="2" d="M20,148.000234 C20,131.983847 32.9802207,119 49,119 L49,119 C65.0162577,119 78,131.991554 78,148.000234 L78,202 L20,202 L20,148.000234 Z"/>
            <g transform="translate(0 38)">
              <mask id="solution-img12-f" fill="#fff">
                <use xlink:href="#solution-img12-e"/>
              </mask>
              <use stroke="#264C6D" stroke-linecap="round" stroke-linejoin="round" stroke-width="2" xlink:href="#solution-img12-e"/>
              <g mask="url(#solution-img12-f)" opacity=".7">
                <g transform="translate(75 -15)">
                  <path stroke="#264C6D" stroke-linecap="round" stroke-linejoin="round" stroke-width="2" d="M95.0363937,71.0971488 L96.7123937,71.0971488 C99.7293937,71.0971488 102.174394,73.9881488 102.174394,77.0051488 L102.080394,76.9541488 C102.080394,81.4791488 98.3193937,85.0971488 93.7943937,85.0971488 L95.0363937,85.0971488" transform="rotate(-3 97.984 78.097)"/>
                  <path stroke="#264C6D" stroke-linecap="round" stroke-linejoin="round" stroke-width="2" d="M94.9072895,75.1668585 L96.0882895,75.1668585 C96.7712895,75.1668585 97.9022895,75.5038585 98.2702895,76.0198585" transform="rotate(-3 96.589 75.667)"/>
                  <path stroke="#264C6D" stroke-linecap="round" stroke-linejoin="round" stroke-width="2" d="M77.6155757,111.788774 C77.6155757,116.306774 81.2785757,119.969774 85.7965757,119.969774 C89.0445757,119.969774 91.8415757,118.072774 93.1625757,115.330774 C93.5385757,115.367774 93.9195757,115.388774 94.3055757,115.388774 C100.630576,115.388774 105.758576,110.260774 105.758576,103.934774 C105.758576,97.6087736 100.630576,92.4807736 94.3055757,92.4807736" transform="rotate(-3 91.687 106.225)"/>
                  <path stroke="#264C6D" stroke-linecap="round" stroke-linejoin="round" stroke-width="2" d="M54.8339029,111.616511 C54.1519029,115.663511 50.2189029,118.374511 46.0499029,117.671511 C43.0529029,117.166511 40.7579029,115.032511 39.9519029,112.371511 C39.5999029,112.346511 39.2449029,112.305511 38.8889029,112.245511 C33.0519029,111.261511 29.0939029,105.871511 30.0479029,100.205511 C31.0029029,94.540511 36.5089029,90.744511 42.3459029,91.728511" transform="rotate(-3 42.37 104.678)"/>
                  <path fill="#FFF" d="M93.7440997,61.643994 C93.7440997,44.683994 79.9950997,30.934994 63.0350997,30.934994 L62.4530997,30.934994 C45.4930997,30.934994 31.7440997,44.683994 31.7440997,61.643994 L31.7440997,85.225994 C31.7440997,102.185994 45.4930997,115.934994 62.4530997,115.934994 L63.0350997,115.934994 C79.9950997,115.934994 93.7440997,102.185994 93.7440997,85.225994 L93.7440997,61.643994 Z" transform="rotate(-3 62.744 73.435)"/>
                  <path stroke="#264C6D" stroke-linecap="round" stroke-linejoin="round" stroke-width="2" d="M93.7440997,61.643994 C93.7440997,44.683994 79.9950997,30.934994 63.0350997,30.934994 L62.4530997,30.934994 C45.4930997,30.934994 31.7440997,44.683994 31.7440997,61.643994 L31.7440997,85.225994 C31.7440997,102.185994 45.4930997,115.934994 62.4530997,115.934994 L63.0350997,115.934994 C79.9950997,115.934994 93.7440997,102.185994 93.7440997,85.225994 L93.7440997,61.643994 Z" transform="rotate(-3 62.744 73.435)"/>
                  <path stroke="#264C6D" stroke-linecap="round" stroke-linejoin="round" stroke-width="4" d="M60.2182375,55.5336187 C65.3962375,51.3836187 72.9792375,51.3776187 78.1562375,55.5336187" transform="rotate(-3 69.187 53.976)"/>
                  <path stroke="#264C6D" stroke-linecap="round" stroke-linejoin="round" stroke-width="4" d="M31.8802271,57.0187509 C37.0582271,52.8687509 44.6412271,52.8627509 49.8182271,57.0187509" transform="rotate(-3 40.85 55.461)"/>
                  <path stroke="#264C6D" stroke-linecap="round" stroke-linejoin="round" stroke-width="2" d="M52.0709228,82.4051456 C53.0569228,83.6621456 54.5809228,84.5681456 56.2939228,84.5681456 C58.0069228,84.5681456 59.5309228,83.6621456 60.5169228,82.4051456" transform="rotate(-3 56.294 83.487)"/>
                  <path fill="#00B4D5" d="M41.6186178,75.3179322 C41.6186178,76.3259322 40.8016178,77.1429322 39.7936178,77.1429322 L39.4436178,77.1429322 C38.4356178,77.1429322 37.6186178,76.3259322 37.6186178,75.3179322 L37.6186178,67.9679322 C37.6186178,66.9599322 38.4356178,66.1429322 39.4436178,66.1429322 L39.7936178,66.1429322 C40.8016178,66.1429322 41.6186178,66.9599322 41.6186178,67.9679322 L41.6186178,75.3179322 Z" transform="rotate(-3 39.619 71.643)"/>
                  <path fill="#00B4D5" d="M71.5775038,73.7478536 C71.5775038,74.7558536 70.7605038,75.5728536 69.7525038,75.5728536 L69.4025038,75.5728536 C68.3945038,75.5728536 67.5775038,74.7558536 67.5775038,73.7478536 L67.5775038,66.3978536 C67.5775038,65.3898536 68.3945038,64.5728536 69.4025038,64.5728536 L69.7525038,64.5728536 C70.7605038,64.5728536 71.5775038,65.3898536 71.5775038,66.3978536 L71.5775038,73.7478536 Z" transform="rotate(-3 69.578 70.073)"/>
                  <path stroke="#00B4D5" stroke-linecap="round" stroke-linejoin="round" stroke-width="2" d="M44.7400723,97.3360512 C52.5160723,101.202051 61.5950723,101.203051 69.3710723,97.3360512" transform="rotate(-3 57.056 98.786)"/>
                  <path stroke="#00B4D5" stroke-linecap="round" stroke-linejoin="round" stroke-width="2" d="M64.4158392,98.6793754 C63.8698392,96.5203754 62.2728392,94.9453754 60.3658392,94.9453754 C58.9628392,94.9453754 57.7298392,95.8023754 56.9518392,97.1083754 C56.1738392,95.8023754 54.9408392,94.9453754 53.5378392,94.9453754 C51.6308392,94.9453754 50.0348392,96.5203754 49.4878392,98.6793754" transform="rotate(-3 56.952 96.812)"/>
                  <path stroke="#00B4D5" stroke-linecap="round" stroke-linejoin="round" stroke-width="2" d="M49.7898807,99.7935327 C50.6438807,103.104533 53.6418807,105.554533 57.2188807,105.554533 C60.7968807,105.554533 63.7938807,103.104533 64.6478807,99.7935327" transform="rotate(-3 57.219 102.674)"/>
                  <path fill="#264C6D" d="M62.6382034,46.5139573 L62.1962034,46.5139573 C49.9412034,46.5139573 38.6382034,35.0959573 38.6382034,22.8409573 L38.6382034,20.5139573 L62.6382034,20.5139573 L62.6382034,46.5139573 Z" transform="rotate(-3 50.638 33.514)"/>
                  <path fill="#264C6D" d="M76.8228788,45.5664282 L75.9478788,45.5664282 C67.4638788,45.5664282 60.8228788,37.2054282 60.8228788,28.7204282 L60.8228788,27.5664282 L76.8228788,27.5664282 L76.8228788,45.5664282 Z" transform="rotate(-3 68.823 36.566)"/>
                  <path stroke="#264C6D" stroke-linecap="round" stroke-linejoin="round" stroke-width="2" d="M72.2823988,114.868626 L72.2823988,122.442626 C72.2823988,126.517626 69.9603988,128.868626 65.8853988,128.868626 L65.6783988,128.868626 C61.6043988,128.868626 58.2823988,126.517626 58.2823988,122.442626 L58.2823988,115.868626" transform="rotate(-3 65.282 121.869)"/>
                  <path fill="#264C6D" d="M91.8840552,72.7109621 L94.0483514,72.7109621 C96.5813514,72.7109621 99.3053514,74.5359621 99.8883514,76.8889621 C107.465351,71.3379621 113.430351,60.8189621 113.430351,50.4709621 C113.430351,24.3479621 92.2533514,3.3949621 66.1303514,3.3949621 C40.0063514,3.3949621 18.8793514,24.4639621 18.8793514,50.5869621 C18.8793514,66.6979621 30.0063514,76.7099621 30.0063514,76.7099621 L30.0063514,63.5389621 C30.0063514,46.7599621 44.3913514,32.7109621 61.1703514,32.7109621 C78.0513514,32.7109621 91.8840552,46.7599621 91.8840552,63.5389621 L91.8840552,72.7109621 Z" transform="rotate(-3 66.155 40.142)"/>
                  <path stroke="#264C6D" stroke-linecap="round" stroke-linejoin="round" stroke-width="2" d="M72.4390625 124.403125C78.15 125.364844 94.7764465 130.264392 97.756134 134.28783 100.735821 138.311267 108.454267 163.692888 105.658503 172.558265 102.86274 181.423641 96.7091995 178.62372 72.4390625 178.62372 71.6104695 178.62372 72.4390625 171.558265 72.4390625 171.558265 72.4390625 171.558265 93.5351959 173.175619 95.8368435 169.508908 98.1384911 165.842197 91.6464279 144.556979 91.6464279 144.556979L93.4496875 170.857511M58.3270162 124.334237C58.3270162 124.334237 48.2034206 132.481996 46.5838661 134.450499 44.9643116 136.419002 40.2723607 167.350455 39.3925 168.710395 38.5126393 170.070335 16.8303956 171.760599 13.7522495 171.760599 13.0738749 171.760599 13.407262 178.895191 13.407262 178.895191 13.407262 178.895191 42.4930982 179.405204 45.4232275 177.837644 48.3533568 176.270084 52.970117 145.932254 52.970117 145.932254M51.3863408 156.195913C51.3863408 156.195913 49.911934 175.311396 48.9551923 177.970675"/>
                  <path stroke="#264C6D" stroke-linecap="round" stroke-linejoin="round" stroke-width="2" d="M60.5640035,176.055065 C60.5640035,178.006355 65.6179442,179.455798 68.9419752,179.455798 C72.2660062,179.455798 74.3199224,169.792159 69.4194731,169.646824 C64.5190237,169.501488 63.4652174,167.950745 62.3669614,169.501488 L62.3669614,169.501488" transform="scale(-1 1) rotate(-22 0 515.991)"/>
                  <path fill="#FFF" stroke="#264C6D" stroke-linecap="round" stroke-linejoin="round" stroke-width="2" d="M1.56400354,176.055065 C1.56400354,178.006355 6.6179442,179.455798 9.94197519,179.455798 C13.2660062,179.455798 15.3199224,169.792159 10.4194731,169.646824 C5.51902374,169.501488 4.46521737,167.950745 3.36696135,169.501488 L3.36696135,169.501488" transform="scale(-1 1) rotate(-22 0 212.462)"/>
                </g>
              </g>
            </g>
            <g transform="translate(52)">
              <path fill="#FFF" stroke="#00B3D5" stroke-linecap="round" stroke-linejoin="round" stroke-width="2" d="M-2.27373675e-13,42.8739949 C-2.27373675e-13,45.6348692 2.23903656,47.873 4.99761772,47.873 L124.002382,47.873 C126.76249,47.873 129,45.6281962 129,42.8739949 L129,4.99900506 C129,2.2381308 126.760963,0 124.002382,0 L4.99761772,0 C2.23750967,0 -2.27373675e-13,2.24480375 -2.27373675e-13,4.99900506 L-2.27373675e-13,42.8739949 Z"/>
              <path fill="#00B3D5" d="M43.426565,28.393085 C43.426565,28.8921575 43.3320451,29.3685377 43.1430025,29.82224 C42.9539599,30.2759423 42.693085,30.6729258 42.36037,31.0132025 C42.027655,31.3534792 41.6382331,31.6256965 41.1920925,31.8298625 C40.7459519,32.0340285 40.2657909,32.13611 39.751595,32.13611 C39.3130161,32.13611 38.8668823,32.0756173 38.41318,31.95463 C37.9594777,31.8336427 37.5511518,31.625699 37.18819,31.3307925 C36.8252282,31.035886 36.5265453,30.6464641 36.2921325,30.162515 C36.0577197,29.6785659 35.940515,29.066077 35.940515,28.32503 L35.940515,19.43251 C35.940515,18.9031907 36.0312541,18.4116873 36.212735,17.957985 C36.3942159,17.5042827 36.65131,17.11108 36.984025,16.778365 C37.31674,16.44565 37.7137235,16.1847751 38.1749875,15.9957325 C38.6362515,15.8066899 39.1466589,15.71217 39.706225,15.71217 C40.2355443,15.71217 40.7270477,15.8066899 41.18075,15.9957325 C41.6344523,16.1847751 42.027655,16.4494308 42.36037,16.7897075 C42.693085,17.1299842 42.9539599,17.5383101 43.1430025,18.0146975 C43.3320451,18.4910849 43.426565,19.0090539 43.426565,19.56862 L43.426565,20.47602 L41.112695,20.47602 L41.112695,19.70473 C41.112695,19.2510277 40.984148,18.857825 40.72705,18.52511 C40.469952,18.192395 40.1221189,18.02604 39.68354,18.02604 C39.1088505,18.02604 38.7269901,18.2037374 38.5379475,18.5591375 C38.3489049,18.9145376 38.254385,19.3644523 38.254385,19.908895 L38.254385,28.166235 C38.254385,28.6350607 38.3564665,29.0282634 38.5606325,29.345855 C38.7647985,29.6634466 39.1315357,29.82224 39.660855,29.82224 C39.8120891,29.82224 39.9746633,29.7957744 40.1485825,29.7428425 C40.3225017,29.6899106 40.4812951,29.6029523 40.6249675,29.481965 C40.7686399,29.3609777 40.8858445,29.1946227 40.976585,28.982895 C41.0673255,28.7711673 41.112695,28.5065116 41.112695,28.18892 L41.112695,27.394945 L43.426565,27.394945 L43.426565,28.393085 Z M48.84828,20.498705 L48.80291,20.498705 L47.66866,26.351435 L49.98253,26.351435 L48.84828,20.498705 Z M47.872825,15.84828 L49.80105,15.84828 L53.407965,32 L51.094095,32 L50.413545,28.529195 L47.26033,28.529195 L46.57978,32 L44.26591,32 L47.872825,15.84828 Z M62.028265,20.498705 L59.714395,20.498705 L59.714395,19.97695 C59.714395,19.4476307 59.5896287,18.9901544 59.3400925,18.6045075 C59.0905563,18.2188606 58.6708879,18.02604 58.081075,18.02604 C57.7634834,18.02604 57.5026085,18.0865327 57.2984425,18.20752 C57.0942765,18.3285073 56.9354831,18.4835199 56.8220575,18.6725625 C56.7086319,18.8616051 56.6292352,19.0808913 56.583865,19.3304275 C56.5384948,19.5799637 56.51581,19.8408386 56.51581,20.11306 C56.51581,20.4306516 56.5271524,20.6990881 56.5498375,20.9183775 C56.5725226,21.1376669 56.6292345,21.3267067 56.719975,21.4855025 C56.8107155,21.6442983 56.9430433,21.7841877 57.1169625,21.905175 C57.2908817,22.0261623 57.5290718,22.1471477 57.83154,22.268135 L59.60097,22.97137 C60.1151659,23.1679743 60.5310534,23.3986028 60.848645,23.6632625 C61.1662366,23.9279222 61.4119883,24.2379474 61.5859075,24.5933475 C61.7598267,24.9487476 61.8770314,25.3570735 61.937525,25.8183375 C61.9980186,26.2796015 62.028265,26.8051321 62.028265,27.394945 C62.028265,28.0754984 61.9602107,28.7068913 61.8241,29.2891425 C61.6879893,29.8713937 61.4649224,30.3704588 61.1548925,30.7863525 C60.8448626,31.2022462 60.4327559,31.5311755 59.91856,31.77315 C59.4043641,32.0151245 58.776752,32.13611 58.035705,32.13611 C57.4761389,32.13611 56.9543891,32.0378093 56.47044,31.841205 C55.9864909,31.6446007 55.5706034,31.3761642 55.222765,31.0358875 C54.8749266,30.6956108 54.5989285,30.2910657 54.3947625,29.82224 C54.1905965,29.3534143 54.088515,28.8467877 54.088515,28.302345 L54.088515,27.440315 L56.402385,27.440315 L56.402385,28.166235 C56.402385,28.5896905 56.5271513,28.9715508 56.7766875,29.3118275 C57.0262237,29.6521042 57.4458921,29.82224 58.035705,29.82224 C58.4289136,29.82224 58.7351581,29.7655281 58.9544475,29.6521025 C59.1737369,29.5386769 59.3400919,29.3798835 59.4535175,29.1757175 C59.5669431,28.9715515 59.6387782,28.7182382 59.669025,28.41577 C59.6992718,28.1133018 59.714395,27.7805918 59.714395,27.41763 C59.714395,26.9941745 59.6992718,26.6463414 59.669025,26.37412 C59.6387782,26.1018986 59.5745047,25.8826125 59.4762025,25.716255 C59.3779003,25.5498975 59.2417917,25.4137889 59.0678725,25.307925 C58.8939533,25.2020611 58.6633248,25.0886373 58.37598,24.96765 L56.719975,24.2871 C55.72183,23.878768 55.0526292,23.3381142 54.7123525,22.6651225 C54.3720758,21.9921308 54.20194,21.1490134 54.20194,20.135745 C54.20194,19.5308086 54.2851175,18.9561277 54.451475,18.411685 C54.6178325,17.8672423 54.8635842,17.3984236 55.1887375,17.005215 C55.5138908,16.6120064 55.9259975,16.2982003 56.42507,16.0637875 C56.9241425,15.8293747 57.506385,15.71217 58.171815,15.71217 C58.7465045,15.71217 59.2720351,15.8180323 59.7484225,16.02976 C60.2248099,16.2414877 60.6331358,16.5212666 60.9734125,16.869105 C61.3136892,17.2169434 61.5745641,17.6063653 61.756045,18.0373825 C61.9375259,18.4683997 62.028265,18.9107527 62.028265,19.364455 L62.028265,20.498705 Z M63.752325,15.84828 L66.066195,15.84828 L66.066195,22.767205 L68.924505,22.767205 L68.924505,15.84828 L71.238375,15.84828 L71.238375,32 L68.924505,32 L68.924505,24.808855 L66.066195,24.808855 L66.066195,32 L63.752325,32 L63.752325,15.84828 Z M73.48419,15.84828 L75.79806,15.84828 L75.79806,32 L73.48419,32 L73.48419,15.84828 Z M78.043875,15.84828 L84.940115,15.84828 L84.940115,18.02604 L80.357745,18.02604 L80.357745,22.767205 L84.350305,22.767205 L84.350305,24.944965 L80.357745,24.944965 L80.357745,29.68613 L84.940115,29.68613 L84.940115,32 L78.043875,32 L78.043875,15.84828 Z M88.751195,23.06211 L90.066925,23.06211 C90.475257,23.06211 90.8004055,23.0053981 91.04238,22.8919725 C91.2843545,22.7785469 91.4696135,22.6159727 91.5981625,22.404245 C91.7267115,22.1925173 91.8136698,21.9316424 91.85904,21.6216125 C91.9044102,21.3115826 91.927095,20.952407 91.927095,20.544075 C91.927095,20.135743 91.9044102,19.7765674 91.85904,19.4665375 C91.8136698,19.1565076 91.7191499,18.8918519 91.5754775,18.6725625 C91.4318051,18.4532731 91.231423,18.2906989 90.974325,18.184835 C90.717227,18.0789711 90.3769555,18.02604 89.9535,18.02604 L88.751195,18.02604 L88.751195,23.06211 Z M86.437325,15.84828 L90.157665,15.84828 C92.8798786,15.84828 94.240965,17.4286525 94.240965,20.589445 C94.240965,21.5270964 94.093514,22.3324058 93.7986075,23.0053975 C93.503701,23.6783892 92.985732,24.219043 92.244685,24.627375 L94.740035,32 L92.290055,32 L90.13498,25.10376 L88.751195,25.10376 L88.751195,32 L86.437325,32 L86.437325,15.84828 Z"/>
            </g>
          </g>
        </g>
        <g transform="translate(0 41)">
          <path stroke="#264C6D" stroke-linecap="round" stroke-linejoin="round" stroke-width="2" d="M15 43C12.4382287 44.2402123 9.31149062 47.4562044 9.02194514 51.5162575 8.73239966 55.5763106 11.3621435 59.3138686 13.7155833 61M47.2468984 102.879669L47.1383217 102.870642C27.1943808 101.269706 12.5154071 84.1328763 14.1199302 64.23353L17.8487374 18 90 23.7928584 86.2721982 70.0263884C84.6666697 89.9257347 67.1908393 104.480605 47.2468984 102.879669z"/>
          <path stroke="#264C6D" stroke-linecap="round" stroke-linejoin="round" stroke-width="2" d="M36.0798399,100 L35.0201755,107.750333 C35.0201755,107.750333 34.3494109,112.075517 40.7431137,113.73883 C46.1706435,115.150037 48.7657427,110.382416 48.7657427,110.382416 L50,103.177923"/>
          <path fill="#264C6D" d="M20.1243132,24.4046192 C20.7084304,22.0160105 23.3758321,20.8072206 25.5428469,21.9610655 C32.8054363,25.8291931 49.1517449,33.0409733 72.3090985,34.9091031 C104.306955,37.4885209 103.999945,5.1419032 103.999945,5.1419032 L103.787629,5.1039412 C82.8182229,1.37267658 62.6960855,-0.242706252 41.4017267,0.0939567137 L41.4017267,0.0939567137 C21.9484333,-1.47447313 6.85010191,16.85218 12.0274131,35.7122991 L14.8433362,46 L20.1243132,24.4046192 Z"/>
          <path stroke="#FFF" stroke-linecap="round" stroke-linejoin="round" stroke-width="2" d="M70 28.869751C89.5672367 30.4520375 95.9344014 17.2548356 98 9M71 24C82.3882679 22.8468231 87.6394123 16.9567345 90 11"/>
          <path stroke="#264C6D" stroke-linecap="round" stroke-linejoin="round" stroke-width="2" d="M65,87.4864752 C59.4699827,91.3318771 51.859285,90.7095836 47,86"/>
          <path stroke="#264C6D" stroke-linecap="round" stroke-linejoin="round" stroke-width="4" d="M34 39.5135562C39.5302792 35.6682342 47.1411223 36.2902568 52 41M67 41.5135562C72.5302792 37.6682342 80.1411223 38.2902568 85 43"/>
          <path fill="#00B4D5" d="M75.678477 52.2889082C75.6020181 53.3127489 74.7757088 54.0758848 73.831487 53.9939775L73.577238 53.9720024C72.6330162 53.8890963 71.9292256 52.9921119 72.0056845 51.9682713L72.3216533 47.7110918C72.3971911 46.6872511 73.2244215 45.9241152 74.1686433 46.0060225L74.4219711 46.0279976C75.3661929 46.1109037 76.0699836 47.0078881 75.9944458 48.0317287L75.678477 52.2889082zM45.6784765 50.2889082C45.6029386 51.3127489 44.7757068 52.0758848 43.8314834 51.9939775L43.5781552 51.9720024C42.6339319 51.8890963 41.9292188 50.9921119 42.0056779 49.9682713L42.3216472 45.7110918C42.3971851 44.6872511 43.2244169 43.9241152 44.1686403 44.0060225L44.4219685 44.0279976C45.3661919 44.1109037 46.0699837 45.0078881 45.9944458 46.0317287L45.6784765 50.2889082z"/>
          <path stroke="#264C6D" stroke-linecap="round" stroke-linejoin="round" stroke-width="2" d="M54 68C54.838005 69.0613066 56.21187 69.878036 57.8352415 69.9875219 59.4575602 70.0970077 60.9703908 69.4754105 62 68.5394828M34.6246379 110C32.489812 110 13.5621348 114.696717 10.5111209 116.786004 7.46010704 118.875291 4.3181729e-16 148.734889 0 155.92007 0 163.105251 40 160.563694 40 160.563694L40 153.823217C40 153.823217 18.0063504 155.082717 10.5425443 150.846789 7.91967398 149.358234 15.2354299 127.963935 15.2354299 127.963935L13.5308766 151.846671"/>
          <path stroke="#264C6D" stroke-linecap="round" stroke-linejoin="round" stroke-width="2" d="M58.0858861,137.9865 L68.0135,137.9865 L68.0135,156.364377 C68.0135,158.917409 65.9432305,160.9865 63.3899639,160.9865 L51.6360483,160.9865 C49.0837695,160.9865 47.0135,158.917409 47.0135,156.364377 L47.0135,137.9865" transform="rotate(-90 57.644 149.63)"/>
          <path stroke="#264C6D" stroke-linecap="round" stroke-linejoin="round" stroke-width="2" d="M52.7095,147.2905 C52.7095,150.052252 54.7797695,152.2905 57.3320483,152.2905 L69.0859639,152.2905 C71.6392305,152.2905 73.7095,150.052252 73.7095,147.2905" transform="rotate(-90 63.34 149.63)"/>
          <path stroke="#264C6D" stroke-linecap="round" stroke-linejoin="round" stroke-width="2" d="M62.0005,149.9995 C62.0005,148.895576 61.1052468,147.9995 59.9999696,147.9995 C58.8957532,147.9995 58.0005,148.895576 58.0005,149.9995 C58.0005,151.103424 58.8957532,151.9995 59.9999696,151.9995 C61.1052468,151.9995 62.0005,151.103424 62.0005,149.9995 Z" transform="rotate(-90 59.886 149.886)"/>
          <path stroke="#264C6D" stroke-linecap="round" stroke-linejoin="round" stroke-width="2" d="M39.5640035,157.301162 C39.5640035,159.318801 44.716029,160.81753 48.1045714,160.81753 C51.4931138,160.81753 53.5868916,150.825299 48.5913364,150.675022 C43.5957811,150.524745 42.5215229,148.921272 41.4019524,150.524745 L41.4019524,150.524745" transform="rotate(-22 45.45 155.137)"/>
          <path stroke="#264C6D" stroke-linecap="round" stroke-linejoin="round" stroke-width="2" d="M49,111 C49,111 61.0486847,117.247688 61.6667758,119.163773 C62.2848668,121.079859 63,138 63,138"/>
          <path fill="#FFF" stroke="#264C6D" stroke-linecap="round" stroke-linejoin="round" stroke-width="2" d="M66.1740889,158.001167 C66.1740889,159.927285 69.6421423,160.150971 72.3794825,160.150971 C75.1168226,160.150971 76.808223,150.611997 72.7727021,150.468536 C68.7371811,150.325076 67.5519398,149.560518 66.6475257,151.091256 L66.1740889,158.001167 Z" transform="scale(-1 1) rotate(2 0 -3888.79)"/>
          <path stroke="#264C6D" stroke-linecap="round" stroke-linejoin="round" stroke-width="2" d="M13.5 161.5L13.5 169.562258M60.5 161.5L60.5 169.562258"/>
        </g>
      </g>
    </g>
  </g>
</svg>
