<svg xmlns="http://www.w3.org/2000/svg" width="787" height="380" viewBox="0 0 787 380">
  <g fill="none" fill-rule="evenodd" transform="translate(0 1)">
    <g fill="#334C69" opacity=".1" transform="translate(0 10)">
      <polygon points="713 349 728 349 728 334 713 334"/>
      <polygon points="198 349 213 349 213 334 198 334"/>
      <polygon points="179 349 194 349 194 334 179 334"/>
      <polygon points="713 330 728 330 728 315 713 315"/>
      <polygon points="693 330 708 330 708 315 693 315"/>
      <polygon points="673 330 688 330 688 315 673 315"/>
      <polygon points="654 330 669 330 669 315 654 315"/>
      <polygon points="634 330 649 330 649 315 634 315"/>
      <polygon points="436 330 451 330 451 315 436 315"/>
      <polygon points="416 330 431 330 431 315 416 315"/>
      <polygon points="218 330 233 330 233 315 218 315"/>
      <polygon points="198 330 213 330 213 315 198 315"/>
      <polygon points="179 330 194 330 194 315 179 315"/>
      <polygon points="713 310 728 310 728 295 713 295"/>
      <polygon points="693 310 708 310 708 295 693 295"/>
      <polygon points="673 310 688 310 688 295 673 295"/>
      <polygon points="654 310 669 310 669 295 654 295"/>
      <polygon points="634 310 649 310 649 295 634 295"/>
      <polygon points="475 310 490 310 490 295 475 295"/>
      <polygon points="436 310 451 310 451 295 436 295"/>
      <polygon points="416 310 431 310 431 295 416 295"/>
      <polygon points="238 310 253 310 253 295 238 295"/>
      <polygon points="218 310 233 310 233 295 218 295"/>
      <polygon points="198 310 213 310 213 295 198 295"/>
      <polygon points="179 310 194 310 194 295 179 295"/>
      <polygon points="713 290 728 290 728 275 713 275"/>
      <polygon points="693 290 708 290 708 275 693 275"/>
      <polygon points="673 290 688 290 688 275 673 275"/>
      <polygon points="654 290 669 290 669 275 654 275"/>
      <polygon points="634 290 649 290 649 275 634 275"/>
      <polygon points="495 290 510 290 510 275 495 275"/>
      <polygon points="456 290 471 290 471 275 456 275"/>
      <polygon points="436 290 451 290 451 275 436 275"/>
      <polygon points="416 290 431 290 431 275 416 275"/>
      <polygon points="396 290 411 290 411 275 396 275"/>
      <polygon points="257 290 272 290 272 275 257 275"/>
      <polygon points="238 290 253 290 253 275 238 275"/>
      <polygon points="218 290 233 290 233 275 218 275"/>
      <polygon points="198 290 213 290 213 275 198 275"/>
      <polygon points="179 290 194 290 194 275 179 275"/>
      <polygon points="673 271 688 271 688 256 673 256"/>
      <polygon points="456 271 471 271 471 256 456 256"/>
      <polygon points="436 271 451 271 451 256 436 256"/>
      <polygon points="416 271 431 271 431 256 416 256"/>
      <polygon points="396 271 411 271 411 256 396 256"/>
      <polygon points="257 271 272 271 272 256 257 256"/>
      <polygon points="238 271 253 271 253 256 238 256"/>
      <polygon points="218 271 233 271 233 256 218 256"/>
      <polygon points="198 271 213 271 213 256 198 256"/>
      <polygon points="179 271 194 271 194 256 179 256"/>
      <polygon points="159 271 174 271 174 256 159 256"/>
      <polygon points="713 251 728 251 728 236 713 236"/>
      <polygon points="654 251 669 251 669 236 654 236"/>
      <polygon points="456 251 471 251 471 236 456 236"/>
      <polygon points="436 251 451 251 451 236 436 236"/>
      <polygon points="416 251 431 251 431 236 416 236"/>
      <polygon points="396 251 411 251 411 236 396 236"/>
      <polygon points="257 251 272 251 272 236 257 236"/>
      <polygon points="238 251 253 251 253 236 238 236"/>
      <polygon points="218 251 233 251 233 236 218 236"/>
      <polygon points="198 251 213 251 213 236 198 236"/>
      <polygon points="179 251 194 251 194 236 179 236"/>
      <polygon points="159 251 174 251 174 236 159 236"/>
      <polygon points="139 251 154 251 154 236 139 236"/>
      <polygon points="634 231 649 231 649 216 634 216"/>
      <polygon points="475 231 490 231 490 216 475 216"/>
      <polygon points="456 231 471 231 471 216 456 216"/>
      <polygon points="436 231 451 231 451 216 436 216"/>
      <polygon points="416 231 431 231 431 216 416 216"/>
      <polygon points="396 231 411 231 411 216 396 216"/>
      <polygon points="218 231 233 231 233 216 218 216"/>
      <polygon points="198 231 213 231 213 216 198 216"/>
      <polygon points="179 231 194 231 194 216 179 216"/>
      <polygon points="159 231 174 231 174 216 159 216"/>
      <polygon points="634 212 649 212 649 197 634 197"/>
      <polygon points="574 212 589 212 589 197 574 197"/>
      <polygon points="475 212 490 212 490 197 475 197"/>
      <polygon points="456 212 471 212 471 197 456 197"/>
      <polygon points="436 212 451 212 451 197 436 197"/>
      <polygon points="416 212 431 212 431 197 416 197"/>
      <polygon points="396 212 411 212 411 197 396 197"/>
      <polygon points="376 212 391 212 391 197 376 197"/>
      <polygon points="357 212 372 212 372 197 357 197"/>
      <polygon points="337 212 352 212 352 197 337 197"/>
      <polygon points="198 212 213 212 213 197 198 197"/>
      <polygon points="179 212 194 212 194 197 179 197"/>
      <polygon points="159 212 174 212 174 197 159 197"/>
      <polygon points="139 212 154 212 154 197 139 197"/>
      <polygon points="654 192 669 192 669 177 654 177"/>
      <polygon points="634 192 649 192 649 177 634 177"/>
      <polygon points="594 192 609 192 609 177 594 177"/>
      <polygon points="574 192 589 192 589 177 574 177"/>
      <polygon points="554 192 569 192 569 177 554 177"/>
      <polygon points="495 192 510 192 510 177 495 177"/>
      <polygon points="456 192 471 192 471 177 456 177"/>
      <polygon points="436 192 451 192 451 177 436 177"/>
      <polygon points="416 192 431 192 431 177 416 177"/>
      <polygon points="396 192 411 192 411 177 396 177"/>
      <polygon points="376 192 391 192 391 177 376 177"/>
      <polygon points="357 192 372 192 372 177 357 177"/>
      <polygon points="337 192 352 192 352 177 337 177"/>
      <polygon points="317 192 332 192 332 177 317 177"/>
      <polygon points="119 192 134 192 134 177 119 177"/>
      <polygon points="654 172 669 172 669 157 654 157"/>
      <polygon points="634 172 649 172 649 157 634 157"/>
      <polygon points="614 172 629 172 629 157 614 157"/>
      <polygon points="594 172 609 172 609 157 594 157"/>
      <polygon points="574 172 589 172 589 157 574 157"/>
      <polygon points="554 172 569 172 569 157 554 157"/>
      <polygon points="515 172 530 172 530 157 515 157"/>
      <polygon points="495 172 510 172 510 157 495 157"/>
      <polygon points="475 172 490 172 490 157 475 157"/>
      <polygon points="436 172 451 172 451 157 436 157"/>
      <polygon points="416 172 431 172 431 157 416 157"/>
      <polygon points="396 172 411 172 411 157 396 157"/>
      <polygon points="376 172 391 172 391 157 376 157"/>
      <polygon points="357 172 372 172 372 157 357 157"/>
      <polygon points="337 172 352 172 352 157 337 157"/>
      <polygon points="317 172 332 172 332 157 317 157"/>
      <polygon points="99 172 114 172 114 157 99 157"/>
      <polygon points="79 172 94 172 94 157 79 157"/>
      <polygon points="654 152 669 152 669 137 654 137"/>
      <polygon points="634 152 649 152 649 137 634 137"/>
      <polygon points="614 152 629 152 629 137 614 137"/>
      <polygon points="594 152 609 152 609 137 594 137"/>
      <polygon points="574 152 589 152 589 137 574 137"/>
      <polygon points="554 152 569 152 569 137 554 137"/>
      <polygon points="535 152 550 152 550 137 535 137"/>
      <polygon points="515 152 530 152 530 137 515 137"/>
      <polygon points="495 152 510 152 510 137 495 137"/>
      <polygon points="475 152 490 152 490 137 475 137"/>
      <polygon points="456 152 471 152 471 137 456 137"/>
      <polygon points="436 152 451 152 451 137 436 137"/>
      <polygon points="416 152 431 152 431 137 416 137"/>
      <polygon points="396 152 411 152 411 137 396 137"/>
      <polygon points="376 152 391 152 391 137 376 137"/>
      <polygon points="357 152 372 152 372 137 357 137"/>
      <polygon points="337 152 352 152 352 137 337 137"/>
      <polygon points="159 152 174 152 174 137 159 137"/>
      <polygon points="99 152 114 152 114 137 99 137"/>
      <polygon points="79 152 94 152 94 137 79 137"/>
      <polygon points="654 133 669 133 669 118 654 118"/>
      <polygon points="634 133 649 133 649 118 634 118"/>
      <polygon points="614 133 629 133 629 118 614 118"/>
      <polygon points="594 133 609 133 609 118 594 118"/>
      <polygon points="574 133 589 133 589 118 574 118"/>
      <polygon points="554 133 569 133 569 118 554 118"/>
      <polygon points="535 133 550 133 550 118 535 118"/>
      <polygon points="515 133 530 133 530 118 515 118"/>
      <polygon points="495 133 510 133 510 118 495 118"/>
      <polygon points="475 133 490 133 490 118 475 118"/>
      <polygon points="456 133 471 133 471 118 456 118"/>
      <polygon points="376 133 391 133 391 118 376 118"/>
      <polygon points="357 133 372 133 372 118 357 118"/>
      <polygon points="159 133 174 133 174 118 159 118"/>
      <polygon points="139 133 154 133 154 118 139 118"/>
      <polygon points="119 133 134 133 134 118 119 118"/>
      <polygon points="99 133 114 133 114 118 99 118"/>
      <polygon points="79 133 94 133 94 118 79 118"/>
      <polygon points="60 133 75 133 75 118 60 118"/>
      <polygon points="693 113 708 113 708 98 693 98"/>
      <polygon points="673 113 688 113 688 98 673 98"/>
      <polygon points="654 113 669 113 669 98 654 98"/>
      <polygon points="634 113 649 113 649 98 634 98"/>
      <polygon points="614 113 629 113 629 98 614 98"/>
      <polygon points="594 113 609 113 609 98 594 98"/>
      <polygon points="574 113 589 113 589 98 574 98"/>
      <polygon points="554 113 569 113 569 98 554 98"/>
      <polygon points="535 113 550 113 550 98 535 98"/>
      <polygon points="515 113 530 113 530 98 515 98"/>
      <polygon points="495 113 510 113 510 98 495 98"/>
      <polygon points="475 113 490 113 490 98 475 98"/>
      <polygon points="456 113 471 113 471 98 456 98"/>
      <polygon points="436 113 451 113 451 98 436 98"/>
      <polygon points="416 113 431 113 431 98 416 98"/>
      <polygon points="396 113 411 113 411 98 396 98"/>
      <polygon points="396 133 411 133 411 118 396 118"/>
      <polygon points="357 113 372 113 372 98 357 98"/>
      <polygon points="179 113 194 113 194 98 179 98"/>
      <polygon points="159 113 174 113 174 98 159 98"/>
      <polygon points="139 113 154 113 154 98 139 98"/>
      <polygon points="119 113 134 113 134 98 119 98"/>
      <polygon points="99 113 114 113 114 98 99 98"/>
      <polygon points="79 113 94 113 94 98 79 98"/>
      <polygon points="60 113 75 113 75 98 60 98"/>
      <polygon points="752 94 767 94 767 79 752 79"/>
      <polygon points="693 94 708 94 708 79 693 79"/>
      <polygon points="673 94 688 94 688 79 673 79"/>
      <polygon points="654 94 669 94 669 79 654 79"/>
      <polygon points="634 94 649 94 649 79 634 79"/>
      <polygon points="614 94 629 94 629 79 614 79"/>
      <polygon points="594 94 609 94 609 79 594 79"/>
      <polygon points="574 94 589 94 589 79 574 79"/>
      <polygon points="554 94 569 94 569 79 554 79"/>
      <polygon points="535 94 550 94 550 79 535 79"/>
      <polygon points="515 94 530 94 530 79 515 79"/>
      <polygon points="495 94 510 94 510 79 495 79"/>
      <polygon points="475 94 490 94 490 79 475 79"/>
      <polygon points="456 94 471 94 471 79 456 79"/>
      <polygon points="436 94 451 94 451 79 436 79"/>
      <polygon points="416 94 431 94 431 79 416 79"/>
      <polygon points="396 94 411 94 411 79 396 79"/>
      <polygon points="376 94 391 94 391 79 376 79"/>
      <polygon points="357 94 372 94 372 79 357 79"/>
      <polygon points="198 94 213 94 213 79 198 79"/>
      <polygon points="179 94 194 94 194 79 179 79"/>
      <polygon points="159 94 174 94 174 79 159 79"/>
      <polygon points="139 94 154 94 154 79 139 79"/>
      <polygon points="119 94 134 94 134 79 119 79"/>
      <polygon points="99 94 114 94 114 79 99 79"/>
      <polygon points="79 94 94 94 94 79 79 79"/>
      <polygon points="693 74 708 74 708 59 693 59"/>
      <polygon points="673 74 688 74 688 59 673 59"/>
      <polygon points="654 74 669 74 669 59 654 59"/>
      <polygon points="634 74 649 74 649 59 634 59"/>
      <polygon points="614 74 629 74 629 59 614 59"/>
      <polygon points="594 74 609 74 609 59 594 59"/>
      <polygon points="574 74 589 74 589 59 574 59"/>
      <polygon points="554 74 569 74 569 59 554 59"/>
      <polygon points="535 74 550 74 550 59 535 59"/>
      <polygon points="515 74 530 74 530 59 515 59"/>
      <polygon points="495 74 510 74 510 59 495 59"/>
      <polygon points="475 74 490 74 490 59 475 59"/>
      <polygon points="456 74 471 74 471 59 456 59"/>
      <polygon points="436 74 451 74 451 59 436 59"/>
      <polygon points="416 74 431 74 431 59 416 59"/>
      <polygon points="396 74 411 74 411 59 396 59"/>
      <polygon points="357 74 372 74 372 59 357 59"/>
      <polygon points="218 74 233 74 233 59 218 59"/>
      <polygon points="198 74 213 74 213 59 198 59"/>
      <polygon points="159 74 174 74 174 59 159 59"/>
      <polygon points="139 74 154 74 154 59 139 59"/>
      <polygon points="119 74 134 74 134 59 119 59"/>
      <polygon points="99 74 114 74 114 59 99 59"/>
      <polygon points="79 74 94 74 94 59 79 59"/>
      <polygon points="752 54 767 54 767 39 752 39"/>
      <polygon points="733 54 748 54 748 39 733 39"/>
      <polygon points="713 54 728 54 728 39 713 39"/>
      <polygon points="693 54 708 54 708 39 693 39"/>
      <polygon points="673 54 688 54 688 39 673 39"/>
      <polygon points="654 54 669 54 669 39 654 39"/>
      <polygon points="634 54 649 54 649 39 634 39"/>
      <polygon points="614 54 629 54 629 39 614 39"/>
      <polygon points="594 54 609 54 609 39 594 39"/>
      <polygon points="574 54 589 54 589 39 574 39"/>
      <polygon points="554 54 569 54 569 39 554 39"/>
      <polygon points="535 54 550 54 550 39 535 39"/>
      <polygon points="515 54 530 54 530 39 515 39"/>
      <polygon points="495 54 510 54 510 39 495 39"/>
      <polygon points="475 54 490 54 490 39 475 39"/>
      <polygon points="456 54 471 54 471 39 456 39"/>
      <polygon points="436 54 451 54 451 39 436 39"/>
      <polygon points="416 54 431 54 431 39 416 39"/>
      <polygon points="396 54 411 54 411 39 396 39"/>
      <polygon points="337 54 352 54 352 39 337 39"/>
      <polygon points="257 54 272 54 272 39 257 39"/>
      <polygon points="238 54 253 54 253 39 238 39"/>
      <polygon points="179 54 194 54 194 39 179 39"/>
      <polygon points="159 54 174 54 174 39 159 39"/>
      <polygon points="139 54 154 54 154 39 139 39"/>
      <polygon points="119 54 134 54 134 39 119 39"/>
      <polygon points="99 54 114 54 114 39 99 39"/>
      <polygon points="79 54 94 54 94 39 79 39"/>
      <polygon points="60 54 75 54 75 39 60 39"/>
      <polygon points="40 54 55 54 55 39 40 39"/>
      <polygon points="20 54 35 54 35 39 20 39"/>
      <polygon points="752 35 767 35 767 20 752 20"/>
      <polygon points="733 35 748 35 748 20 733 20"/>
      <polygon points="713 35 728 35 728 20 713 20"/>
      <polygon points="693 35 708 35 708 20 693 20"/>
      <polygon points="673 35 688 35 688 20 673 20"/>
      <polygon points="654 35 669 35 669 20 654 20"/>
      <polygon points="634 35 649 35 649 20 634 20"/>
      <polygon points="614 35 629 35 629 20 614 20"/>
      <polygon points="594 35 609 35 609 20 594 20"/>
      <polygon points="574 35 589 35 589 20 574 20"/>
      <polygon points="554 35 569 35 569 20 554 20"/>
      <polygon points="535 35 550 35 550 20 535 20"/>
      <polygon points="515 35 530 35 530 20 515 20"/>
      <polygon points="495 35 510 35 510 20 495 20"/>
      <polygon points="475 35 490 35 490 20 475 20"/>
      <polygon points="436 35 451 35 451 20 436 20"/>
      <polygon points="416 35 431 35 431 20 416 20"/>
      <polygon points="317 35 332 35 332 20 317 20"/>
      <polygon points="297 35 312 35 312 20 297 20"/>
      <polygon points="277 35 292 35 292 20 277 20"/>
      <polygon points="257 35 272 35 272 20 257 20"/>
      <polygon points="238 35 253 35 253 20 238 20"/>
      <polygon points="218 35 233 35 233 20 218 20"/>
      <polygon points="198 35 213 35 213 20 198 20"/>
      <polygon points="179 35 194 35 194 20 179 20"/>
      <polygon points="159 35 174 35 174 20 159 20"/>
      <polygon points="139 35 154 35 154 20 139 20"/>
      <polygon points="119 35 134 35 134 20 119 20"/>
      <polygon points="99 35 114 35 114 20 99 20"/>
      <polygon points="79 35 94 35 94 20 79 20"/>
      <polygon points="60 35 75 35 75 20 60 20"/>
      <polygon points="654 15 669 15 669 0 654 0"/>
      <polygon points="634 15 649 15 649 0 634 0"/>
      <polygon points="614 15 629 15 629 0 614 0"/>
      <polygon points="594 15 609 15 609 0 594 0"/>
      <polygon points="574 15 589 15 589 0 574 0"/>
      <polygon points="554 15 569 15 569 0 554 0"/>
      <polygon points="337 15 352 15 352 0 337 0"/>
      <polygon points="317 15 332 15 332 0 317 0"/>
      <polygon points="297 15 312 15 312 0 297 0"/>
      <polygon points="277 15 292 15 292 0 277 0"/>
      <polygon points="257 15 272 15 272 0 257 0"/>
      <polygon points="238 15 253 15 253 0 238 0"/>
      <polygon points="0 74 15 74 15 59 0 59"/>
      <polygon points="198 369 213 369 213 354 198 354"/>
      <polygon points="772 35 787 35 787 20 772 20"/>
    </g>
    <g transform="translate(677 255)">
      <path fill="#FFFFFF" d="M26.159755,61.3626344 L61.3626325,26.1598639 C62.2124558,25.3100431 62.2124558,23.9320979 61.3626325,23.0822772 L38.9184061,0.637365575 C38.0685827,-0.212455192 36.6906334,-0.212455192 35.84081,0.637365575 L0.637932553,35.8401361 C-0.212644184,36.6907102 -0.212644184,38.0686554 0.637932553,38.9184762 L23.0821589,61.3626344 C23.9319823,62.2124552 25.3099317,62.2124552 26.159755,61.3626344"/>
      <path stroke="#264C6C" stroke-width="2" d="M26.159755 61.3626344L61.3626325 26.1598639C62.2124558 25.3100431 62.2124558 23.9320979 61.3626325 23.0822772L38.9184061.637365575C38.0685827-.212455192 36.6906334-.212455192 35.84081.637365575L.637932553 35.8401361C-.212644184 36.6907102-.212644184 38.0686554.637932553 38.9184762L23.0821589 61.3626344C23.9319823 62.2124552 25.3099317 62.2124552 26.159755 61.3626344zM50 17L46 21M41 26L37 30M32 35L28 39M23 44L19 48" stroke-linecap="round" stroke-linejoin="round"/>
      <polygon stroke="#00B4D8" stroke-width="2" points="49.335 32 57 24.335 53.665 21 46 28.665" stroke-linecap="round" stroke-linejoin="round"/>
      <path stroke="#00B4D8" stroke-width="2" d="M15.2858184,32.5188373 L10.5188463,37.2857267 C9.82705123,37.9775098 9.82705123,39.0984121 10.5188463,39.7901952 L13.2104332,42.4817354 C13.9014647,43.1727549 15.0223865,43.1727549 15.7141816,42.4817354 L20.4811537,37.7140824 C21.1729488,37.0230629 21.1729488,35.9021605 20.4811537,35.2103774 L17.7895668,32.5188373 C17.0985353,31.8270542 15.9776135,31.8270542 15.2858184,32.5188373 Z" stroke-linecap="round" stroke-linejoin="round"/>
      <path stroke="#264C6C" stroke-width="2" d="M16,63 L33,63" stroke-linecap="round" stroke-linejoin="round"/>
      <path fill="#264C6D" d="M26.0729861,21.340723 L25.4821658,19.4608402 L22.7590212,19.4608402 L22.1682009,21.340723 L20.5031619,21.340723 L23.1940798,13.5902348 L25.1008181,13.5902348 L27.7971072,21.340723 L26.0729861,21.340723 Z M24.1017947,15.0726566 L23.1081423,18.246973 L25.1330447,18.246973 L24.1393923,15.0726566 L24.1017947,15.0726566 Z M30.5975956,13.5902348 L30.5975956,18.4403324 C30.5975956,18.9452178 30.7399281,19.3453602 31.0245975,19.6407719 C31.3092669,19.9361835 31.7094094,20.0838871 32.225037,20.0838871 C32.7370838,20.0838871 33.1354359,19.9361835 33.4201053,19.6407719 C33.7047747,19.3453602 33.8471073,18.9452178 33.8471073,18.4403324 L33.8471073,13.5902348 L35.4691776,13.5902348 L35.4691776,18.6014652 C35.4691776,19.4608445 35.1746656,20.1546039 34.5856327,20.6827641 C33.9965998,21.2109243 33.2097424,21.4750004 32.225037,21.4750004 C31.2367508,21.4750004 30.4481031,21.2109243 29.8590702,20.6827641 C29.2700373,20.1546039 28.9755252,19.4608445 28.9755252,18.6014652 L28.9755252,13.5902348 L30.5975956,13.5902348 Z M37.3082402,13.5902348 L40.2945683,13.5902348 C41.4618919,13.5902348 42.3695976,13.9250296 43.0177128,14.5946293 C43.6658281,15.264229 43.9898808,16.2113224 43.9898808,17.4359379 C43.9898808,18.6641341 43.6649329,19.6219696 43.0150273,20.309473 C42.3651217,20.9969765 41.4583111,21.340723 40.2945683,21.340723 L37.3082402,21.340723 L37.3082402,13.5902348 Z M38.9303105,14.9276371 L38.9303105,19.9979496 L40.1012089,19.9979496 C40.8281006,19.9979496 41.3822129,19.7804225 41.7635625,19.3453617 C42.144912,18.9103009 42.3355839,18.2756231 42.3355839,17.441309 C42.3355839,16.6320601 42.1422265,16.0108098 41.7555058,15.5775395 C41.3687851,15.1442691 40.8173584,14.9276371 40.1012089,14.9276371 L38.9303105,14.9276371 Z" transform="rotate(-45 32.247 17.533)"/>
    </g>
    <g transform="translate(62 78)">
      <path fill="#FFFFFF" d="M26.159755,61.3626344 L61.3626325,26.1598639 C62.2124558,25.3100431 62.2124558,23.9320979 61.3626325,23.0822772 L38.9184061,0.637365575 C38.0685827,-0.212455192 36.6906334,-0.212455192 35.84081,0.637365575 L0.637932553,35.8401361 C-0.212644184,36.6907102 -0.212644184,38.0686554 0.637932553,38.9184762 L23.0821589,61.3626344 C23.9319823,62.2124552 25.3099317,62.2124552 26.159755,61.3626344"/>
      <path stroke="#264C6C" stroke-width="2" d="M26.159755 61.3626344L61.3626325 26.1598639C62.2124558 25.3100431 62.2124558 23.9320979 61.3626325 23.0822772L38.9184061.637365575C38.0685827-.212455192 36.6906334-.212455192 35.84081.637365575L.637932553 35.8401361C-.212644184 36.6907102-.212644184 38.0686554.637932553 38.9184762L23.0821589 61.3626344C23.9319823 62.2124552 25.3099317 62.2124552 26.159755 61.3626344zM50 17L46 21M41 26L37 30M32 35L28 39M23 44L19 48" stroke-linecap="round" stroke-linejoin="round"/>
      <polygon stroke="#00B4D8" stroke-width="2" points="49.335 32 57 24.335 53.665 21 46 28.665" stroke-linecap="round" stroke-linejoin="round"/>
      <path stroke="#00B4D8" stroke-width="2" d="M15.2858184,32.5188373 L10.5188463,37.2857267 C9.82705123,37.9775098 9.82705123,39.0984121 10.5188463,39.7901952 L13.2104332,42.4817354 C13.9014647,43.1727549 15.0223865,43.1727549 15.7141816,42.4817354 L20.4811537,37.7140824 C21.1729488,37.0230629 21.1729488,35.9021605 20.4811537,35.2103774 L17.7895668,32.5188373 C17.0985353,31.8270542 15.9776135,31.8270542 15.2858184,32.5188373 Z" stroke-linecap="round" stroke-linejoin="round"/>
      <path stroke="#264C6C" stroke-width="2" d="M16,63 L33,63" stroke-linecap="round" stroke-linejoin="round"/>
      <path fill="#264C6D" d="M22.6193728,13.5902348 L22.6193728,18.4403324 C22.6193728,18.9452178 22.7617054,19.3453602 23.0463748,19.6407719 C23.3310441,19.9361835 23.7311866,20.0838871 24.2468142,20.0838871 C24.758861,20.0838871 25.1572132,19.9361835 25.4418826,19.6407719 C25.726552,19.3453602 25.8688845,18.9452178 25.8688845,18.4403324 L25.8688845,13.5902348 L27.4909548,13.5902348 L27.4909548,18.6014652 C27.4909548,19.4608445 27.1964428,20.1546039 26.6074099,20.6827641 C26.018377,21.2109243 25.2315197,21.4750004 24.2468142,21.4750004 C23.258528,21.4750004 22.4698803,21.2109243 21.8808474,20.6827641 C21.2918145,20.1546039 20.9973025,19.4608445 20.9973025,18.6014652 L20.9973025,13.5902348 L22.6193728,13.5902348 Z M29.0399784,19.1332035 L30.6029667,19.1332035 C30.6387741,19.4483093 30.8061715,19.7034337 31.1051639,19.8985844 C31.4041563,20.0937351 31.7702822,20.191309 32.2035526,20.191309 C32.6332422,20.191309 32.983255,20.0991061 33.2536014,19.9146977 C33.5239478,19.7302892 33.659119,19.4948586 33.659119,19.2083988 C33.659119,18.9577465 33.5588596,18.7554374 33.3583377,18.6014652 C33.1578159,18.4474931 32.8230211,18.3185881 32.3539432,18.2147465 L31.3441776,17.9945316 C29.922621,17.6901681 29.2118534,16.9686584 29.2118534,15.8299809 C29.2118534,15.1209929 29.4884619,14.548082 30.0416874,14.1112309 C30.5949128,13.6743797 31.3065756,13.4559574 32.1766971,13.4559574 C33.0718839,13.4559574 33.7862322,13.6681135 34.3197635,14.092432 C34.8532948,14.5167506 35.1272179,15.0816049 35.1415409,15.7870121 L33.6215213,15.7870121 C33.5964561,15.4611641 33.4523332,15.2042494 33.1891483,15.0162602 C32.9259634,14.8282709 32.5902734,14.7342777 32.1820682,14.7342777 C31.7810245,14.7342777 31.457867,14.8220047 31.2125858,14.9974613 C30.9673046,15.1729179 30.8446659,15.4038727 30.8446659,15.6903324 C30.8446659,15.9266617 30.9440301,16.1182288 31.1427616,16.2650395 C31.341493,16.4118501 31.6646506,16.5371743 32.112244,16.641016 L33.0521854,16.8397465 C33.8292075,17.0044608 34.3949571,17.2613756 34.749451,17.6104984 C35.103945,17.9596213 35.2811893,18.4295873 35.2811893,19.0204105 C35.2811893,19.7723674 34.9983145,20.369448 34.4325565,20.8116703 C33.8667985,21.2538926 33.1023204,21.4750004 32.1390995,21.4750004 C31.2045245,21.4750004 30.4606354,21.266425 29.90741,20.849268 C29.3541846,20.4321109 29.0650436,19.8600952 29.0399784,19.1332035 Z M36.8248418,13.5902348 L39.8111699,13.5902348 C40.9784934,13.5902348 41.8861992,13.9250296 42.5343144,14.5946293 C43.1824296,15.264229 43.5064824,16.2113224 43.5064824,17.4359379 C43.5064824,18.6641341 43.1815345,19.6219696 42.5316289,20.309473 C41.8817233,20.9969765 40.9749127,21.340723 39.8111699,21.340723 L36.8248418,21.340723 L36.8248418,13.5902348 Z M38.4469121,14.9276371 L38.4469121,19.9979496 L39.6178105,19.9979496 C40.3447022,19.9979496 40.8988145,19.7804225 41.280164,19.3453617 C41.6615136,18.9103009 41.8521855,18.2756231 41.8521855,17.441309 C41.8521855,16.6320601 41.6588281,16.0108098 41.2721074,15.5775395 C40.8853867,15.1442691 40.3339599,14.9276371 39.6178105,14.9276371 L38.4469121,14.9276371 Z" transform="rotate(-45 32.252 17.465)"/>
    </g>
    <g transform="translate(101)">
      <path fill="#FFFFFF" d="M26.159755,61.3626344 L61.3626325,26.1598639 C62.2124558,25.3100431 62.2124558,23.9320979 61.3626325,23.0822772 L38.9184061,0.637365575 C38.0685827,-0.212455192 36.6906334,-0.212455192 35.84081,0.637365575 L0.637932553,35.8401361 C-0.212644184,36.6907102 -0.212644184,38.0686554 0.637932553,38.9184762 L23.0821589,61.3626344 C23.9319823,62.2124552 25.3099317,62.2124552 26.159755,61.3626344"/>
      <path stroke="#264C6C" stroke-width="2" d="M26.159755 61.3626344L61.3626325 26.1598639C62.2124558 25.3100431 62.2124558 23.9320979 61.3626325 23.0822772L38.9184061.637365575C38.0685827-.212455192 36.6906334-.212455192 35.84081.637365575L.637932553 35.8401361C-.212644184 36.6907102-.212644184 38.0686554.637932553 38.9184762L23.0821589 61.3626344C23.9319823 62.2124552 25.3099317 62.2124552 26.159755 61.3626344zM50 17L46 21M41 26L37 30M32 35L28 39M23 44L19 48" stroke-linecap="round" stroke-linejoin="round"/>
      <polygon stroke="#00B4D8" stroke-width="2" points="49.335 32 57 24.335 53.665 21 46 28.665" stroke-linecap="round" stroke-linejoin="round"/>
      <path stroke="#00B4D8" stroke-width="2" d="M15.2858184,32.5188373 L10.5188463,37.2857267 C9.82705123,37.9775098 9.82705123,39.0984121 10.5188463,39.7901952 L13.2104332,42.4817354 C13.9014647,43.1727549 15.0223865,43.1727549 15.7141816,42.4817354 L20.4811537,37.7140824 C21.1729488,37.0230629 21.1729488,35.9021605 20.4811537,35.2103774 L17.7895668,32.5188373 C17.0985353,31.8270542 15.9776135,31.8270542 15.2858184,32.5188373 Z" stroke-linecap="round" stroke-linejoin="round"/>
      <path stroke="#264C6C" stroke-width="2" d="M16,63 L33,63" stroke-linecap="round" stroke-linejoin="round"/>
      <path fill="#264C6D" d="M24.4240603,21.4750004 C23.2925442,21.4750004 22.3982661,21.1178262 21.741199,20.4034672 C21.0841319,19.6891081 20.7556033,18.7088933 20.7556033,17.4627934 C20.7556033,16.2202741 21.0850271,15.2418497 21.7438845,14.5274906 C22.402742,13.8131316 23.296125,13.4559574 24.4240603,13.4559574 C25.0399488,13.4559574 25.5994321,13.577701 26.1025271,13.8211918 C26.6056221,14.0646826 27.0093452,14.4084292 27.3137087,14.8524418 C27.6180722,15.2964544 27.7899455,15.8031225 27.8293337,16.3724613 L26.2502322,16.3724613 C26.1750365,15.896222 25.9700418,15.5148781 25.6352419,15.2284184 C25.3004421,14.9419586 24.8967189,14.7987309 24.4240603,14.7987309 C23.8117526,14.7987309 23.3229879,15.0386373 22.9577517,15.5184574 C22.5925155,15.9982775 22.4099001,16.6445927 22.4099001,17.4574223 C22.4099001,18.2845748 22.5907252,18.9371562 22.9523806,19.4151859 C23.3140361,19.8932157 23.8063814,20.132227 24.4294314,20.132227 C24.9092515,20.132227 25.3120795,19.9997413 25.6379275,19.734766 C25.9637755,19.4697907 26.1696653,19.1081407 26.2556033,18.6498051 L27.8347048,18.6498051 C27.7451862,19.5127651 27.3924879,20.1993631 26.7765994,20.7096195 C26.1607109,21.219876 25.376539,21.4750004 24.4240603,21.4750004 Z M34.1908573,21.340723 L33.600037,19.4608402 L30.8768924,19.4608402 L30.2860721,21.340723 L28.6210331,21.340723 L31.311951,13.5902348 L33.2186893,13.5902348 L35.9149784,21.340723 L34.1908573,21.340723 Z M32.2196659,15.0726566 L31.2260135,18.246973 L33.2509159,18.246973 L32.2572635,15.0726566 L32.2196659,15.0726566 Z M37.2545293,13.5902348 L40.2408574,13.5902348 C41.4081809,13.5902348 42.3158867,13.9250296 42.9640019,14.5946293 C43.6121171,15.264229 43.9361699,16.2113224 43.9361699,17.4359379 C43.9361699,18.6641341 43.611222,19.6219696 42.9613164,20.309473 C42.3114108,20.9969765 41.4046002,21.340723 40.2408574,21.340723 L37.2545293,21.340723 L37.2545293,13.5902348 Z M38.8765996,14.9276371 L38.8765996,19.9979496 L40.047498,19.9979496 C40.7743897,19.9979496 41.328502,19.7804225 41.7098515,19.3453617 C42.0912011,18.9103009 42.281873,18.2756231 42.281873,17.441309 C42.281873,16.6320601 42.0885156,16.0108098 41.7017949,15.5775395 C41.3150742,15.1442691 40.7636474,14.9276371 40.047498,14.9276371 L38.8765996,14.9276371 Z" transform="rotate(-45 32.346 17.465)"/>
    </g>
    <g transform="translate(578 39)">
      <path fill="#FFFFFF" d="M26.159755,61.3626344 L61.3626325,26.1598639 C62.2124558,25.3100431 62.2124558,23.9320979 61.3626325,23.0822772 L38.9184061,0.637365575 C38.0685827,-0.212455192 36.6906334,-0.212455192 35.84081,0.637365575 L0.637932553,35.8401361 C-0.212644184,36.6907102 -0.212644184,38.0686554 0.637932553,38.9184762 L23.0821589,61.3626344 C23.9319823,62.2124552 25.3099317,62.2124552 26.159755,61.3626344"/>
      <path stroke="#264C6C" stroke-width="2" d="M16 64L34 64M26.159755 61.3626344L61.3626325 26.1598639C62.2124558 25.3100431 62.2124558 23.9320979 61.3626325 23.0822772L38.9184061.637365575C38.0685827-.212455192 36.6906334-.212455192 35.84081.637365575L.637932553 35.8401361C-.212644184 36.6907102-.212644184 38.0686554.637932553 38.9184762L23.0821589 61.3626344C23.9319823 62.2124552 25.3099317 62.2124552 26.159755 61.3626344zM50 17L46 21M41 26L37 30M32 35L28 39M23 44L19 48" stroke-linecap="round" stroke-linejoin="round"/>
      <polygon stroke="#00B4D8" stroke-width="2" points="49.335 32 57 24.335 53.665 21 46 28.665" stroke-linecap="round" stroke-linejoin="round"/>
      <path stroke="#00B4D8" stroke-width="2" d="M15.2858184,32.5188373 L10.5188463,37.2857267 C9.82705123,37.9775098 9.82705123,39.0984121 10.5188463,39.7901952 L13.2104332,42.4817354 C13.9014647,43.1727549 15.0223865,43.1727549 15.7141816,42.4817354 L20.4811537,37.7140824 C21.1729488,37.0230629 21.1729488,35.9021605 20.4811537,35.2103774 L17.7895668,32.5188373 C17.0985353,31.8270542 15.9776135,31.8270542 15.2858184,32.5188373 Z" stroke-linecap="round" stroke-linejoin="round"/>
      <path fill="#264C6D" d="M22.7305311,14.5894531 L22.7305311,17.0601562 L24.1538709,17.0601562 C24.5620761,17.0601562 24.8798626,16.9509451 25.1072401,16.7325195 C25.3346175,16.5140939 25.4483045,16.2115253 25.4483045,15.8248046 C25.4483045,15.4488262 25.3301416,15.1489431 25.0938123,14.9251464 C24.857483,14.7013498 24.5388013,14.5894531 24.1377576,14.5894531 L22.7305311,14.5894531 Z M22.7305311,18.2364257 L22.7305311,21.0723632 L21.1084608,21.0723632 L21.1084608,13.321875 L24.3096326,13.321875 C25.1940772,13.321875 25.8824655,13.5411924 26.3748182,13.9798339 C26.8671709,14.4184755 27.1133436,15.0227175 27.1133436,15.7925781 C27.1133436,16.2974634 26.9889145,16.7477356 26.7400526,17.1434082 C26.4911906,17.5390807 26.1465489,17.8228507 25.706117,17.9947265 L27.3389295,21.0723632 L25.5020154,21.0723632 L24.0571912,18.2364257 L22.7305311,18.2364257 Z M30.3488905,13.321875 L30.3488905,18.1719726 C30.3488905,18.676858 30.4912231,19.0770004 30.7758925,19.3724121 C31.0605619,19.6678237 31.4607044,19.8155273 31.976332,19.8155273 C32.4883788,19.8155273 32.8867309,19.6678237 33.1714003,19.3724121 C33.4560697,19.0770004 33.5984023,18.676858 33.5984023,18.1719726 L33.5984023,13.321875 L35.2204726,13.321875 L35.2204726,18.3331054 C35.2204726,19.1924847 34.9259605,19.8862441 34.3369277,20.4144043 C33.7478948,20.9425645 32.9610374,21.2066406 31.976332,21.2066406 C30.9880458,21.2066406 30.199398,20.9425645 29.6103652,20.4144043 C29.0213323,19.8862441 28.7268202,19.1924847 28.7268202,18.3331054 L28.7268202,13.321875 L30.3488905,13.321875 Z M40.5400039,21.0723632 L37.0595352,21.0723632 L37.0595352,13.321875 L40.4809219,13.321875 C41.2078136,13.321875 41.7843052,13.4955386 42.2104141,13.8428711 C42.636523,14.1902035 42.8495742,14.6610647 42.8495742,15.2554687 C42.8495742,15.6779969 42.7108224,16.0485986 42.4333145,16.3672851 C42.1558066,16.6859716 41.8093745,16.8757484 41.3940078,16.9366211 L41.3940078,16.9795898 C41.9239584,17.018978 42.360803,17.2141258 42.7045547,17.565039 C43.0483064,17.9159522 43.2201797,18.3456354 43.2201797,18.8541015 C43.2201797,19.5380242 42.9802733,20.0787089 42.5004531,20.4761718 C42.020633,20.8736348 41.3671565,21.0723632 40.5400039,21.0723632 Z M38.6816055,14.5303711 L38.6816055,16.5445312 L39.8954727,16.5445312 C40.3287431,16.5445312 40.6635379,16.4541187 40.8998672,16.273291 C41.1361965,16.0924633 41.2543594,15.8373388 41.2543594,15.5079101 C41.2543594,15.1963851 41.1505193,14.9555835 40.942836,14.785498 C40.7351526,14.6154125 40.4415358,14.5303711 40.0619766,14.5303711 L38.6816055,14.5303711 Z M38.6816055,19.8638671 L40.1264297,19.8638671 C40.5955076,19.8638671 40.9526817,19.7662933 41.1979629,19.5711425 C41.4432441,19.3759918 41.5658828,19.0940122 41.5658828,18.7251953 C41.5658828,18.3635398 41.4396634,18.0878264 41.1872207,17.8980468 C40.9347781,17.7082672 40.5686522,17.6133789 40.0888321,17.6133789 L38.6816055,17.6133789 L38.6816055,19.8638671 Z" transform="rotate(-45 32.164 17.264)"/>
    </g>
    <g transform="translate(617 177)">
      <path fill="#FFFFFF" d="M26.159755,61.3626344 L61.3626325,26.1598639 C62.2124558,25.3100431 62.2124558,23.9320979 61.3626325,23.0822772 L38.9184061,0.637365575 C38.0685827,-0.212455192 36.6906334,-0.212455192 35.84081,0.637365575 L0.637932553,35.8401361 C-0.212644184,36.6907102 -0.212644184,38.0686554 0.637932553,38.9184762 L23.0821589,61.3626344 C23.9319823,62.2124552 25.3099317,62.2124552 26.159755,61.3626344"/>
      <path stroke="#264C6C" stroke-width="2" d="M26.159755 61.3626344L61.3626325 26.1598639C62.2124558 25.3100431 62.2124558 23.9320979 61.3626325 23.0822772L38.9184061.637365575C38.0685827-.212455192 36.6906334-.212455192 35.84081.637365575L.637932553 35.8401361C-.212644184 36.6907102-.212644184 38.0686554.637932553 38.9184762L23.0821589 61.3626344C23.9319823 62.2124552 25.3099317 62.2124552 26.159755 61.3626344zM50 17L46 21M41 26L37 30M32 35L28 39M23 44L19 48" stroke-linecap="round" stroke-linejoin="round"/>
      <polygon stroke="#00B4D8" stroke-width="2" points="49.335 32 57 24.335 53.665 21 46 28.665" stroke-linecap="round" stroke-linejoin="round"/>
      <path stroke="#00B4D8" stroke-width="2" d="M15.2858184,32.5188373 L10.5188463,37.2857267 C9.82705123,37.9775098 9.82705123,39.0984121 10.5188463,39.7901952 L13.2104332,42.4817354 C13.9014647,43.1727549 15.0223865,43.1727549 15.7141816,42.4817354 L20.4811537,37.7140824 C21.1729488,37.0230629 21.1729488,35.9021605 20.4811537,35.2103774 L17.7895668,32.5188373 C17.0985353,31.8270542 15.9776135,31.8270542 15.2858184,32.5188373 Z" stroke-linecap="round" stroke-linejoin="round"/>
      <path stroke="#264C6C" stroke-width="2" d="M16,63 L33,63" stroke-linecap="round" stroke-linejoin="round"/>
      <path fill="#264C6D" d="M21.1084608,13.321875 L24.3418592,13.321875 C25.1403658,13.321875 25.7875761,13.5653621 26.2835096,14.0523437 C26.7794431,14.5393253 27.0274061,15.1802694 27.0274061,15.9751953 C27.0274061,16.7665404 26.7713865,17.4065893 26.2593397,17.8953613 C25.7472928,18.3841333 25.0812839,18.6285156 24.2612928,18.6285156 L22.7305311,18.6285156 L22.7305311,21.0723632 L21.1084608,21.0723632 L21.1084608,13.321875 Z M22.7305311,14.6055664 L22.7305311,17.3609375 L23.9068006,17.3609375 C24.3722977,17.3609375 24.7339478,17.2409842 24.9917615,17.0010742 C25.2495753,16.7611641 25.3784803,16.4209983 25.3784803,15.9805664 C25.3784803,15.5401345 25.2504705,15.2008638 24.9944471,14.9627441 C24.7384237,14.7246244 24.3776688,14.6055664 23.9121717,14.6055664 L22.7305311,14.6055664 Z M35.2688124,21.0723632 L33.6467421,21.0723632 L33.6467421,17.8067382 L30.1555312,17.8067382 L30.1555312,21.0723632 L28.5334609,21.0723632 L28.5334609,13.321875 L30.1555312,13.321875 L30.1555312,16.4693359 L33.6467421,16.4693359 L33.6467421,13.321875 L35.2688124,13.321875 L35.2688124,21.0723632 Z M37.107875,13.321875 L40.3412735,13.321875 C41.1397801,13.321875 41.7869904,13.5653621 42.2829238,14.0523437 C42.7788573,14.5393253 43.0268203,15.1802694 43.0268203,15.9751953 C43.0268203,16.7665404 42.7708008,17.4065893 42.2587539,17.8953613 C41.7467071,18.3841333 41.0806981,18.6285156 40.2607071,18.6285156 L38.7299453,18.6285156 L38.7299453,21.0723632 L37.107875,21.0723632 L37.107875,13.321875 Z M38.7299453,14.6055664 L38.7299453,17.3609375 L39.9062149,17.3609375 C40.371712,17.3609375 40.733362,17.2409842 40.9911758,17.0010742 C41.2489896,16.7611641 41.3778946,16.4209983 41.3778946,15.9805664 C41.3778946,15.5401345 41.2498848,15.2008638 40.9938613,14.9627441 C40.7378379,14.7246244 40.3770831,14.6055664 39.911586,14.6055664 L38.7299453,14.6055664 Z" transform="rotate(-45 32.068 17.197)"/>
    </g>
    <g transform="translate(420 58)">
      <path fill="#FFFFFF" d="M26.159755,61.3626344 L61.3626325,26.1598639 C62.2124558,25.3100431 62.2124558,23.9320979 61.3626325,23.0822772 L38.9184061,0.637365575 C38.0685827,-0.212455192 36.6906334,-0.212455192 35.84081,0.637365575 L0.637932553,35.8401361 C-0.212644184,36.6907102 -0.212644184,38.0686554 0.637932553,38.9184762 L23.0821589,61.3626344 C23.9319823,62.2124552 25.3099317,62.2124552 26.159755,61.3626344"/>
      <path stroke="#264C6C" stroke-width="2" d="M26.159755 61.3626344L61.3626325 26.1598639C62.2124558 25.3100431 62.2124558 23.9320979 61.3626325 23.0822772L38.9184061.637365575C38.0685827-.212455192 36.6906334-.212455192 35.84081.637365575L.637932553 35.8401361C-.212644184 36.6907102-.212644184 38.0686554.637932553 38.9184762L23.0821589 61.3626344C23.9319823 62.2124552 25.3099317 62.2124552 26.159755 61.3626344zM50 17L46 21M41 26L37 30M32 35L28 39M23 44L19 48" stroke-linecap="round" stroke-linejoin="round"/>
      <polygon stroke="#00B4D8" stroke-width="2" points="49.335 32 57 24.335 53.665 21 46 28.665" stroke-linecap="round" stroke-linejoin="round"/>
      <path stroke="#00B4D8" stroke-width="2" d="M15.2858184,32.5188373 L10.5188463,37.2857267 C9.82705123,37.9775098 9.82705123,39.0984121 10.5188463,39.7901952 L13.2104332,42.4817354 C13.9014647,43.1727549 15.0223865,43.1727549 15.7141816,42.4817354 L20.4811537,37.7140824 C21.1729488,37.0230629 21.1729488,35.9021605 20.4811537,35.2103774 L17.7895668,32.5188373 C17.0985353,31.8270542 15.9776135,31.8270542 15.2858184,32.5188373 Z" stroke-linecap="round" stroke-linejoin="round"/>
      <path stroke="#264C6C" stroke-width="2" d="M16,63 L33,63" stroke-linecap="round" stroke-linejoin="round"/>
      <path fill="#264C6D" d="M25.3543847,20.46123 L25.3543847,21.8040034 L20.219619,21.8040034 L20.219619,14.0535152 L25.3543847,14.0535152 L25.3543847,15.3909175 L21.8416893,15.3909175 L21.8416893,17.2600581 L25.1556542,17.2600581 L25.1556542,18.5061519 L21.8416893,18.5061519 L21.8416893,20.46123 L25.3543847,20.46123 Z M28.6973535,14.0535152 L28.6973535,18.9036128 C28.6973535,19.4084982 28.8396861,19.8086406 29.1243555,20.1040523 C29.4090248,20.3994639 29.8091673,20.5471675 30.3247949,20.5471675 C30.8368417,20.5471675 31.2351939,20.3994639 31.5198633,20.1040523 C31.8045327,19.8086406 31.9468652,19.4084982 31.9468652,18.9036128 L31.9468652,14.0535152 L33.5689355,14.0535152 L33.5689355,19.0647456 C33.5689355,19.9241249 33.2744235,20.6178843 32.6853906,21.1460445 C32.0963577,21.6742046 31.3095004,21.9382808 30.3247949,21.9382808 C29.3365087,21.9382808 28.547861,21.6742046 27.9588281,21.1460445 C27.3697952,20.6178843 27.0752832,19.9241249 27.0752832,19.0647456 L27.0752832,14.0535152 L28.6973535,14.0535152 Z M37.0300684,15.3210933 L37.0300684,17.7917964 L38.4534083,17.7917964 C38.8616135,17.7917964 39.1794,17.6825853 39.4067774,17.4641597 C39.6341549,17.2457341 39.7478419,16.9431655 39.7478419,16.5564448 C39.7478419,16.1804664 39.629679,15.8805833 39.3933497,15.6567866 C39.1570204,15.43299 38.8383387,15.3210933 38.437295,15.3210933 L37.0300684,15.3210933 Z M37.0300684,18.9680659 L37.0300684,21.8040034 L35.4079981,21.8040034 L35.4079981,14.0535152 L38.60917,14.0535152 C39.4936145,14.0535152 40.1820028,14.2728326 40.6743556,14.7114741 C41.1667083,15.1501157 41.4128809,15.7543577 41.4128809,16.5242183 C41.4128809,17.0291036 41.2884519,17.4793758 41.0395899,17.8750484 C40.790728,18.2707209 40.4460863,18.5544909 40.0056544,18.7263667 L41.6384669,21.8040034 L39.8015528,21.8040034 L38.3567286,18.9680659 L37.0300684,18.9680659 Z" transform="rotate(-45 30.929 17.996)"/>
    </g>
    <g transform="translate(440 157)">
      <path fill="#FFFFFF" d="M26.159755,61.3626344 L61.3626325,26.1598639 C62.2124558,25.3100431 62.2124558,23.9320979 61.3626325,23.0822772 L38.9184061,0.637365575 C38.0685827,-0.212455192 36.6906334,-0.212455192 35.84081,0.637365575 L0.637932553,35.8401361 C-0.212644184,36.6907102 -0.212644184,38.0686554 0.637932553,38.9184762 L23.0821589,61.3626344 C23.9319823,62.2124552 25.3099317,62.2124552 26.159755,61.3626344"/>
      <path stroke="#264C6C" stroke-width="2" d="M26.159755 61.3626344L61.3626325 26.1598639C62.2124558 25.3100431 62.2124558 23.9320979 61.3626325 23.0822772L38.9184061.637365575C38.0685827-.212455192 36.6906334-.212455192 35.84081.637365575L.637932553 35.8401361C-.212644184 36.6907102-.212644184 38.0686554.637932553 38.9184762L23.0821589 61.3626344C23.9319823 62.2124552 25.3099317 62.2124552 26.159755 61.3626344zM50 17L46 21M41 26L37 30M32 35L28 39M23 44L19 48" stroke-linecap="round" stroke-linejoin="round"/>
      <polygon stroke="#00B4D8" stroke-width="2" points="49.335 32 57 24.335 53.665 21 46 28.665" stroke-linecap="round" stroke-linejoin="round"/>
      <path stroke="#00B4D8" stroke-width="2" d="M15.2858184,32.5188373 L10.5188463,37.2857267 C9.82705123,37.9775098 9.82705123,39.0984121 10.5188463,39.7901952 L13.2104332,42.4817354 C13.9014647,43.1727549 15.0223865,43.1727549 15.7141816,42.4817354 L20.4811537,37.7140824 C21.1729488,37.0230629 21.1729488,35.9021605 20.4811537,35.2103774 L17.7895668,32.5188373 C17.0985353,31.8270542 15.9776135,31.8270542 15.2858184,32.5188373 Z" stroke-linecap="round" stroke-linejoin="round"/>
      <path stroke="#264C6C" stroke-width="2" d="M16,63 L33,63" stroke-linecap="round" stroke-linejoin="round"/>
      <path fill="#264C6D" d="M21.8416893,21.8040034 L20.219619,21.8040034 L20.219619,14.0535152 L21.8416893,14.0535152 L21.8416893,17.5876948 L21.8900292,17.5876948 L24.801162,14.0535152 L26.6058495,14.0535152 L23.7376854,17.4910152 L26.80458,21.8040034 L24.8656151,21.8040034 L22.566787,18.5652339 L21.8416893,19.4353511 L21.8416893,21.8040034 Z M33.1714746,20.46123 L33.1714746,21.8040034 L28.036709,21.8040034 L28.036709,14.0535152 L33.1714746,14.0535152 L33.1714746,15.3909175 L29.6587793,15.3909175 L29.6587793,17.2600581 L32.9727441,17.2600581 L32.9727441,18.5061519 L29.6587793,18.5061519 L29.6587793,20.46123 L33.1714746,20.46123 Z M34.6023341,19.5964839 L36.1653224,19.5964839 C36.2011298,19.9115897 36.3685272,20.1667141 36.6675196,20.3618648 C36.966512,20.5570155 37.3326379,20.6545894 37.7659083,20.6545894 C38.1955979,20.6545894 38.5456107,20.5623865 38.8159571,20.3779781 C39.0863035,20.1935696 39.2214747,19.958139 39.2214747,19.6716792 C39.2214747,19.4210269 39.1212153,19.2187178 38.9206934,19.0647456 C38.7201716,18.9107735 38.3853768,18.7818685 37.9162989,18.6780269 L36.9065333,18.457812 C35.4849767,18.1534485 34.7742091,17.4319388 34.7742091,16.2932613 C34.7742091,15.5842733 35.0508176,15.0113624 35.6040431,14.5745113 C36.1572685,14.1376601 36.8689313,13.9192378 37.7390528,13.9192378 C38.6342396,13.9192378 39.3485879,14.1313939 39.8821192,14.5557124 C40.4156505,14.980031 40.6895736,15.5448853 40.7038966,16.2502925 L39.183877,16.2502925 C39.1588118,15.9244445 39.0146889,15.6675298 38.751504,15.4795406 C38.4883191,15.2915513 38.1526291,15.1975581 37.7444239,15.1975581 C37.3433802,15.1975581 37.0202227,15.2852851 36.7749415,15.4607417 C36.5296603,15.6361983 36.4070216,15.8671531 36.4070216,16.1536128 C36.4070216,16.3899421 36.5063858,16.5815092 36.7051173,16.7283198 C36.9038487,16.8751305 37.2270063,17.0004547 37.6745997,17.1042964 L38.6145411,17.3030269 C39.3915632,17.4677412 39.9573128,17.724656 40.3118067,18.0737788 C40.6663007,18.4229017 40.843545,18.8928677 40.843545,19.4836909 C40.843545,20.2356478 40.5606702,20.8327284 39.9949122,21.2749507 C39.4291542,21.717173 38.6646761,21.9382808 37.7014552,21.9382808 C36.7668802,21.9382808 36.0229911,21.7297054 35.4697657,21.3125484 C34.9165403,20.8953913 34.6273993,20.3233756 34.6023341,19.5964839 Z" transform="rotate(-45 30.532 17.929)"/>
    </g>
    <g transform="translate(143 157)">
      <path fill="#FFFFFF" d="M26.159755,61.3626344 L61.3626325,26.1598639 C62.2124558,25.3100431 62.2124558,23.9320979 61.3626325,23.0822772 L38.9184061,0.637365575 C38.0685827,-0.212455192 36.6906334,-0.212455192 35.84081,0.637365575 L0.637932553,35.8401361 C-0.212644184,36.6907102 -0.212644184,38.0686554 0.637932553,38.9184762 L23.0821589,61.3626344 C23.9319823,62.2124552 25.3099317,62.2124552 26.159755,61.3626344"/>
      <path stroke="#264C6C" stroke-width="2" d="M26.159755 61.3626344L61.3626325 26.1598639C62.2124558 25.3100431 62.2124558 23.9320979 61.3626325 23.0822772L38.9184061.637365575C38.0685827-.212455192 36.6906334-.212455192 35.84081.637365575L.637932553 35.8401361C-.212644184 36.6907102-.212644184 38.0686554.637932553 38.9184762L23.0821589 61.3626344C23.9319823 62.2124552 25.3099317 62.2124552 26.159755 61.3626344zM50 17L46 21M41 26L37 30M32 35L28 39M23 44L19 48" stroke-linecap="round" stroke-linejoin="round"/>
      <polygon stroke="#00B4D8" stroke-width="2" points="49.335 32 57 24.335 53.665 21 46 28.665" stroke-linecap="round" stroke-linejoin="round"/>
      <path stroke="#00B4D8" stroke-width="2" d="M15.2858184,32.5188373 L10.5188463,37.2857267 C9.82705123,37.9775098 9.82705123,39.0984121 10.5188463,39.7901952 L13.2104332,42.4817354 C13.9014647,43.1727549 15.0223865,43.1727549 15.7141816,42.4817354 L20.4811537,37.7140824 C21.1729488,37.0230629 21.1729488,35.9021605 20.4811537,35.2103774 L17.7895668,32.5188373 C17.0985353,31.8270542 15.9776135,31.8270542 15.2858184,32.5188373 Z" stroke-linecap="round" stroke-linejoin="round"/>
      <path stroke="#264C6C" stroke-width="2" d="M16,63 L33,63" stroke-linecap="round" stroke-linejoin="round"/>
      <path fill="#264C6D" d="M24.4240603,21.4750004 C23.2925442,21.4750004 22.3982661,21.1178262 21.741199,20.4034672 C21.0841319,19.6891081 20.7556033,18.7088933 20.7556033,17.4627934 C20.7556033,16.2202741 21.0850271,15.2418497 21.7438845,14.5274906 C22.402742,13.8131316 23.296125,13.4559574 24.4240603,13.4559574 C25.0399488,13.4559574 25.5994321,13.577701 26.1025271,13.8211918 C26.6056221,14.0646826 27.0093452,14.4084292 27.3137087,14.8524418 C27.6180722,15.2964544 27.7899455,15.8031225 27.8293337,16.3724613 L26.2502322,16.3724613 C26.1750365,15.896222 25.9700418,15.5148781 25.6352419,15.2284184 C25.3004421,14.9419586 24.8967189,14.7987309 24.4240603,14.7987309 C23.8117526,14.7987309 23.3229879,15.0386373 22.9577517,15.5184574 C22.5925155,15.9982775 22.4099001,16.6445927 22.4099001,17.4574223 C22.4099001,18.2845748 22.5907252,18.9371562 22.9523806,19.4151859 C23.3140361,19.8932157 23.8063814,20.132227 24.4294314,20.132227 C24.9092515,20.132227 25.3120795,19.9997413 25.6379275,19.734766 C25.9637755,19.4697907 26.1696653,19.1081407 26.2556033,18.6498051 L27.8347048,18.6498051 C27.7451862,19.5127651 27.3924879,20.1993631 26.7765994,20.7096195 C26.1607109,21.219876 25.376539,21.4750004 24.4240603,21.4750004 Z M32.8803104,13.4559574 C34.0297302,13.4559574 34.9401215,13.8158171 35.6115116,14.5355473 C36.2829016,15.2552774 36.6185917,16.2328067 36.6185917,17.4681645 C36.6185917,18.6999414 36.2820065,19.6756804 35.608826,20.3954105 C34.9356456,21.1151407 34.0261495,21.4750004 32.8803104,21.4750004 C31.7308906,21.4750004 30.8204993,21.1151407 30.1491092,20.3954105 C29.4777192,19.6756804 29.1420292,18.6999414 29.1420292,17.4681645 C29.1420292,16.2328067 29.4777192,15.2552774 30.1491092,14.5355473 C30.8204993,13.8158171 31.7308906,13.4559574 32.8803104,13.4559574 Z M32.8803104,14.809473 C32.2465182,14.809473 31.7407452,15.0493795 31.3629764,15.5291996 C30.9852076,16.0090197 30.796326,16.6553349 30.796326,17.4681645 C30.796326,18.2774133 30.9843124,18.9210429 31.3602909,19.3990727 C31.7362693,19.8771024 32.2429374,20.1161137 32.8803104,20.1161137 C33.5141026,20.1161137 34.0189804,19.8771024 34.3949588,19.3990727 C34.7709373,18.9210429 34.9589237,18.2774133 34.9589237,17.4681645 C34.9589237,16.6553349 34.7709373,16.0090197 34.3949588,15.5291996 C34.0189804,15.0493795 33.5141026,14.809473 32.8803104,14.809473 Z M38.2105839,13.5902348 L41.4439824,13.5902348 C42.242489,13.5902348 42.8896993,13.8337219 43.3856328,14.3207035 C43.8815662,14.8076851 44.1295293,15.4486292 44.1295293,16.2435551 C44.1295293,17.0349002 43.8735097,17.6749491 43.3614628,18.1637211 C42.849416,18.6524931 42.183407,18.8968754 41.363416,18.8968754 L39.8326543,18.8968754 L39.8326543,21.340723 L38.2105839,21.340723 L38.2105839,13.5902348 Z M39.8326543,14.8739262 L39.8326543,17.6292973 L41.0089238,17.6292973 C41.4744209,17.6292973 41.8360709,17.509344 42.0938847,17.269434 C42.3516985,17.0295239 42.4806035,16.6893581 42.4806035,16.2489262 C42.4806035,15.8084943 42.3525937,15.4692236 42.0965703,15.2311039 C41.8405469,14.9929842 41.479792,14.8739262 41.0142949,14.8739262 L39.8326543,14.8739262 Z" transform="rotate(-45 32.443 17.465)"/>
    </g>
    <g transform="translate(201 236)">
      <path fill="#FFFFFF" d="M26.159755,61.3626344 L61.3626325,26.1598639 C62.2124558,25.3100431 62.2124558,23.9320979 61.3626325,23.0822772 L38.9184061,0.637365575 C38.0685827,-0.212455192 36.6906334,-0.212455192 35.84081,0.637365575 L0.637932553,35.8401361 C-0.212644184,36.6907102 -0.212644184,38.0686554 0.637932553,38.9184762 L23.0821589,61.3626344 C23.9319823,62.2124552 25.3099317,62.2124552 26.159755,61.3626344"/>
      <path stroke="#264C6C" stroke-width="2" d="M26.159755 61.3626344L61.3626325 26.1598639C62.2124558 25.3100431 62.2124558 23.9320979 61.3626325 23.0822772L38.9184061.637365575C38.0685827-.212455192 36.6906334-.212455192 35.84081.637365575L.637932553 35.8401361C-.212644184 36.6907102-.212644184 38.0686554.637932553 38.9184762L23.0821589 61.3626344C23.9319823 62.2124552 25.3099317 62.2124552 26.159755 61.3626344zM50 17L46 21M41 26L37 30M32 35L28 39M23 44L19 48" stroke-linecap="round" stroke-linejoin="round"/>
      <polygon stroke="#00B4D8" stroke-width="2" points="49.335 32 57 24.335 53.665 21 46 28.665" stroke-linecap="round" stroke-linejoin="round"/>
      <path stroke="#00B4D8" stroke-width="2" d="M15.2858184,32.5188373 L10.5188463,37.2857267 C9.82705123,37.9775098 9.82705123,39.0984121 10.5188463,39.7901952 L13.2104332,42.4817354 C13.9014647,43.1727549 15.0223865,43.1727549 15.7141816,42.4817354 L20.4811537,37.7140824 C21.1729488,37.0230629 21.1729488,35.9021605 20.4811537,35.2103774 L17.7895668,32.5188373 C17.0985353,31.8270542 15.9776135,31.8270542 15.2858184,32.5188373 Z" stroke-linecap="round" stroke-linejoin="round"/>
      <path stroke="#264C6C" stroke-width="2" d="M16,63 L33,63" stroke-linecap="round" stroke-linejoin="round"/>
      <path fill="#264C6D" d="M23.811246,21.5356436 L20.3307773,21.5356436 L20.3307773,13.7851554 L23.752164,13.7851554 C24.4790557,13.7851554 25.0555473,13.958819 25.4816562,14.3061515 C25.9077651,14.6534839 26.1208164,15.1243451 26.1208164,15.7187491 C26.1208164,16.1412773 25.9820645,16.511879 25.7045566,16.8305655 C25.4270487,17.149252 25.0806166,17.3390288 24.66525,17.3999015 L24.66525,17.4428702 C25.1952005,17.4822584 25.6320451,17.6774062 25.9757968,18.0283194 C26.3195485,18.3792326 26.4914218,18.8089158 26.4914218,19.3173819 C26.4914218,20.0013046 26.2515154,20.5419893 25.7716953,20.9394522 C25.2918752,21.3369152 24.6383986,21.5356436 23.811246,21.5356436 Z M21.9528476,14.9936515 L21.9528476,17.0078116 L23.1667148,17.0078116 C23.5999852,17.0078116 23.93478,16.9173991 24.1711093,16.7365714 C24.4074386,16.5557436 24.5256015,16.3006192 24.5256015,15.9711905 C24.5256015,15.6596655 24.4217614,15.4188639 24.2140781,15.2487784 C24.0063947,15.0786929 23.7127779,14.9936515 23.3332187,14.9936515 L21.9528476,14.9936515 Z M21.9528476,20.3271475 L23.3976718,20.3271475 C23.8667497,20.3271475 24.2239239,20.2295737 24.469205,20.0344229 C24.7144862,19.8392722 24.837125,19.5572926 24.837125,19.1884757 C24.837125,18.8268202 24.7109055,18.5511068 24.4584628,18.3613272 C24.2060202,18.1715476 23.8398943,18.0766593 23.3600742,18.0766593 L21.9528476,18.0766593 L21.9528476,20.3271475 Z M29.5873204,15.0527335 L29.5873204,17.5234366 L31.0106602,17.5234366 C31.4188654,17.5234366 31.7366519,17.4142255 31.9640294,17.1957999 C32.1914068,16.9773743 32.3050938,16.6748057 32.3050938,16.288085 C32.3050938,15.9121066 32.1869309,15.6122235 31.9506016,15.3884268 C31.7142723,15.1646301 31.3955906,15.0527335 30.9945469,15.0527335 L29.5873204,15.0527335 Z M29.5873204,18.6997061 L29.5873204,21.5356436 L27.9652501,21.5356436 L27.9652501,13.7851554 L31.1664219,13.7851554 C32.0508665,13.7851554 32.7392548,14.0044728 33.2316075,14.4431143 C33.7239602,14.8817559 33.9701329,15.4859979 33.9701329,16.2558585 C33.9701329,16.7607438 33.8457038,17.211016 33.5968419,17.6066886 C33.3479799,18.0023611 33.0033382,18.2861311 32.5629063,18.4580069 L34.1957188,21.5356436 L32.3588047,21.5356436 L30.9139805,18.6997061 L29.5873204,18.6997061 Z M40.59484,20.1928702 L40.59484,21.5356436 L35.5836095,21.5356436 L35.5836095,13.7851554 L37.2056798,13.7851554 L37.2056798,20.1928702 L40.59484,20.1928702 Z" transform="rotate(-45 30.463 17.66)"/>
    </g>
    <g transform="translate(229 24)">
      <path fill="#FFFFFF" stroke="#264C6C" stroke-width="2" d="M93,52 L93,71 C95.3458882,69.4555672 99,65.7856769 99,61.5 C99,57.2143231 95.3458882,53.5444328 93,52 Z" stroke-linecap="round" stroke-linejoin="round"/>
      <g transform="translate(42 119)">
        <path fill="#FFFFFF" d="M18,5.55111512e-17 L18,7.10083333 C18,11.3883333 14.08,15 9.74652632,15 L9.52673684,15 C5.19410526,15 2,11.3883333 2,7.10083333 L2,5.55111512e-17"/>
        <path stroke="#264C6C" stroke-width="2" d="M17,5.55111512e-17 L17,7.10083333 C17,11.3883333 13.08,15 8.74652632,15 L8.52673684,15 C4.19410526,15 1,11.3883333 1,7.10083333 L1,5.55111512e-17" stroke-linecap="round" stroke-linejoin="round"/>
      </g>
      <path stroke="#264C6C" stroke-width="2" d="M42 127L25.4571429 133.025822C20.2269388 134.811555 17 139.841834 17 145.399456L17 153M82 153L82 145.434115C82 139.901838 78.5573929 134.874055 73.2945 133.096466L59 128" stroke-linecap="round" stroke-linejoin="round"/>
      <path fill="#FFFFFF" d="M8,78.5750526 L8,25 L93,25 L93,78.5750526 C93,101.536614 72.746068,119 49.765534,119 C26.6595631,119 8,101.536614 8,78.5750526 Z"/>
      <path stroke="#264C6C" stroke-width="2" d="M49.765534 119L49.6409223 119C26.6595631 119 8 101.536614 8 78.5750526L8 25 93 25 93 78.5750526C93 101.536614 72.746068 119 49.765534 119zM60 101C53.9388951 106.329201 45.0602679 106.337464 39 101" stroke-linecap="round" stroke-linejoin="round"/>
      <path stroke="#264C6C" stroke-width="4" d="M20 49C26.0610613 43.6706711 34.9389387 43.6626637 41 49M58 49C64.0610613 43.6706711 72.9389387 43.6626637 79 49" stroke-linecap="round" stroke-linejoin="round"/>
      <path fill="#264C6C" d="M11.3467959,31.6900015 C11.8022883,28.8900371 14.7866342,27.2541861 17.4100709,28.3796055 C26.2004921,32.1518598 45.848888,38.9266045 72.9054643,38.9266045 C110.291511,38.9266045 106.921366,1.77623918 106.921366,1.77623918 L106.669974,1.75318743 C81.9804645,-0.592328156 58.469925,-0.584095388 33.7820748,1.77623918 L33.7820748,1.77623918 C11.0522608,1.77623918 -4.76717865,24.2401698 3.00025158,45.4370774 L8.10939871,57 L11.3467959,31.6900015 Z"/>
      <path stroke="#FFFFFF" stroke-width="2" d="M69 33C91.3712949 33 97.4046309 17.5130275 99 8M69 28C82.2136452 25.5792963 87.800412 18.1934809 90 11" stroke-linecap="round" stroke-linejoin="round"/>
      <path fill="#FFFFFF" stroke="#264C6C" stroke-width="2" d="M7,71 L7,52 C3.87214909,53.5444328 1,57.2143231 1,61.5 C1,65.7856769 3.87214909,69.4555672 7,71 Z" stroke-linecap="round" stroke-linejoin="round"/>
      <path fill="#00B5D6" d="M71 58.8293636C71 60.028 70.01 61 68.7891667 61L68.2108333 61C66.99 61 66 60.028 66 58.8293636L66 54.1698182C66 52.9711818 66.99 52 68.2108333 52L68.7891667 52C70.01 52 71 52.9711818 71 54.1698182L71 58.8293636zM35 58.8293636C35 60.028 34.01 61 32.7891667 61L32.2108333 61C30.99 61 30 60.028 30 58.8293636L30 54.1698182C30 52.9711818 30.99 52 32.2108333 52L32.7891667 52C34.01 52 35 52.9711818 35 54.1698182L35 58.8293636z"/>
      <path stroke="#264C6C" stroke-width="2" d="M45,80 C46.0505344,81.1622116 47.6740109,82 49.5,82 C51.3259891,82 52.9494656,81.1622116 54,80" stroke-linecap="round" stroke-linejoin="round"/>
      <g transform="translate(16 99)">
        <g fill="#FFFFFF" stroke="#004A6E" stroke-width="2" stroke-linecap="round" stroke-linejoin="round">
          <path d="M0 54L111 54 111 56C111 57.1045695 110.106512 58 109.002522 58L1.9974782 58C.894301451 58 0 57.1122704 0 56L0 54zM38.5546593 4.76845162C39.0399955 2.13490851 41.5264171 0 44.1000624 0L116.129206 0C118.706511 0 120.402648 2.13349621 119.917051 4.76845162L111.362392 54 30 54 38.5546593 4.76845162z"/>
        </g>
        <g transform="translate(55 16)">
          <polygon fill="#FFFFFF" points="39.2 2 2.8 2 0 7.431 .165 7.431 21 30 41.835 7.431 42 7.431"/>
          <polygon stroke="#264C6C" stroke-width="2" points="40.361 1 3.96 1 0 6.431 .165 6.431 16.178 29 41.835 6.431 42 6.431" stroke-linecap="round" stroke-linejoin="round"/>
          <path fill="#00B5D6" fill-rule="nonzero" d="M18.4502608,6.87836658 C16.9696572,6.87836658 15.4668241,8.0649063 15.0931941,9.52857653 L13.5900884,15.41689 C13.2163439,16.8810086 14.1132409,18.0671 15.5941207,18.0671 L21.5498435,18.0671 C23.0302698,18.0671 24.5332354,16.8807356 24.9069102,15.41689 C25.008606,15.0185039 25.4176996,14.6955482 25.8206464,14.6955482 C26.2235933,14.6955482 26.4678055,15.0185039 26.3661098,15.41689 C25.7890313,17.6775555 23.4678423,19.5097837 21.1815706,19.5097837 L18.7467503,19.5097837 L18.295211,21.2786582 C18.1935152,21.6770443 17.7844216,22 17.3814748,22 C16.978528,22 16.7343157,21.6770443 16.8360115,21.2786582 L17.2875508,19.5097837 L15.2258478,19.5097837 C12.9390744,19.5097837 11.5537529,17.6777808 12.1308889,15.41689 L13.6339946,9.52857653 C14.2110039,7.26818182 16.5319881,5.43568288 18.8185337,5.43568288 L20.8802367,5.43568288 L21.3178553,3.72134185 C21.4195511,3.32295575 21.8286447,3 22.2315915,3 C22.6345383,3 22.8787506,3.32295575 22.7770548,3.72134185 L22.3394362,5.43568288 L24.7742565,5.43568288 C27.0603003,5.43568288 28.4461673,7.26840712 27.8692154,9.52857653 C27.7675197,9.92696263 27.3584261,10.2499184 26.9554792,10.2499184 C26.5525324,10.2499184 26.3083202,9.92696263 26.4100159,9.52857653 C26.7835763,8.06517932 25.8861338,6.87836658 24.4059836,6.87836658 L21.2624012,6.87836658 C21.2345208,6.87865512 18.4502608,6.87836658 18.4502608,6.87836658 Z"/>
        </g>
      </g>
    </g>
    <path stroke="#00B4D8" stroke-width="2" d="M408 88L372.764651 88C364.05802 88 357 95.1633887 357 104M580 50L372.679971 50C364.020108 50 357 57.1633887 357 66M276 261L331.463557 261C340.044151 261 347 253.836611 347 245M169 10L341.265939 10C349.955122 10 357 17.026973 357 25.6953047L357 115" stroke-linecap="round" stroke-linejoin="round" stroke-dasharray="1 3"/>
    <path stroke="#00B4D8" stroke-width="2" d="M347 295.723803L347 311.254518C347 319.950562 339.070137 327 329.28767 327L103.71333 327C93.9308639 327 86 319.950562 86 311.254518L86 154M347 188L347 191.627954C347 200.117754 354.009602 207 362.656506 207L431 207M347 210C347 218.836611 354.030155 226 362.702412 226L604 226" stroke-linecap="round" stroke-linejoin="round" stroke-dasharray="1 3"/>
    <path stroke="#00B4D8" stroke-width="2" d="M347 188L347 290.27195C347 298.958367 354.028963 306 362.699749 306L667 306M206 203L332.243291 203C340.945536 203 347 195.836611 347 187" stroke-linecap="round" stroke-linejoin="round" stroke-dasharray="1 3"/>
    <polyline stroke="#00B4D5" stroke-width="2" points="277.435 257.435 277.435 264.435 270.435 264.435" transform="rotate(135 273.9 260.9)"/>
    <polyline stroke="#00B4D5" stroke-width="2" points="436.435 203.435 436.435 210.435 429.435 210.435" transform="rotate(-45 432.9 206.9)"/>
    <polyline stroke="#00B4D5" stroke-width="2" points="608.435 222.435 608.435 229.435 601.435 229.435" transform="rotate(-45 604.9 225.9)"/>
    <polyline stroke="#00B4D5" stroke-width="2" points="586.435 46.435 586.435 53.435 579.435 53.435" transform="rotate(-45 582.9 49.9)"/>
    <polyline stroke="#00B4D5" stroke-width="2" points="413.435 84.435 413.435 91.435 406.435 91.435" transform="rotate(-45 409.9 87.9)"/>
    <polyline stroke="#00B4D5" stroke-width="2" points="208.435 199.435 208.435 206.435 201.435 206.435" transform="rotate(135 204.9 202.9)"/>
    <polyline stroke="#00B4D5" stroke-width="2" points="170.435 6.435 170.435 13.435 163.435 13.435" transform="rotate(135 166.9 9.9)"/>
    <polyline stroke="#00B4D5" stroke-width="2" points="89.435 149.435 89.435 156.435 82.435 156.435" transform="rotate(-135 85.9 152.9)"/>
    <polyline stroke="#00B4D5" stroke-width="2" points="671.435 302.435 671.435 309.435 664.435 309.435" transform="rotate(-45 667.9 305.9)"/>
  </g>
</svg>
